<?xml version="1.0" encoding="UTF-8" standalone="no"?><svg xmlns="http://www.w3.org/2000/svg" xmlns:xlink="http://www.w3.org/1999/xlink" contentStyleType="text/css" height="234px" preserveAspectRatio="none" style="width:261px;height:234px;background:#FFFFFF;" version="1.1" viewBox="0 0 261 234" width="261px" zoomAndPan="magnify"><defs/><g><line style="stroke:#181818;stroke-width:0.5;stroke-dasharray:5.0,5.0;" x1="22" x2="22" y1="36.2969" y2="198.8281"/><line style="stroke:#181818;stroke-width:0.5;stroke-dasharray:5.0,5.0;" x1="232" x2="232" y1="36.2969" y2="198.8281"/><rect fill="#E2E2F0" height="30.2969" rx="2.5" ry="2.5" style="stroke:#181818;stroke-width:0.5;" width="35" x="5" y="5"/><text fill="#000000" font-family="sans-serif" font-size="14" lengthAdjust="spacing" textLength="21" x="12" y="24.9951">API</text><rect fill="#E2E2F0" height="30.2969" rx="2.5" ry="2.5" style="stroke:#181818;stroke-width:0.5;" width="35" x="5" y="197.8281"/><text fill="#000000" font-family="sans-serif" font-size="14" lengthAdjust="spacing" textLength="21" x="12" y="217.8232">API</text><rect fill="#E2E2F0" height="30.2969" rx="2.5" ry="2.5" style="stroke:#181818;stroke-width:0.5;" width="45" x="210" y="5"/><text fill="#000000" font-family="sans-serif" font-size="14" lengthAdjust="spacing" textLength="31" x="217" y="24.9951">ODA</text><rect fill="#E2E2F0" height="30.2969" rx="2.5" ry="2.5" style="stroke:#181818;stroke-width:0.5;" width="45" x="210" y="197.8281"/><text fill="#000000" font-family="sans-serif" font-size="14" lengthAdjust="spacing" textLength="31" x="217" y="217.8232">ODA</text><line style="stroke:#181818;stroke-width:1.0;" x1="22.5" x2="64.5" y1="67.4297" y2="67.4297"/><line style="stroke:#181818;stroke-width:1.0;" x1="64.5" x2="64.5" y1="67.4297" y2="80.4297"/><line style="stroke:#181818;stroke-width:1.0;" x1="23.5" x2="64.5" y1="80.4297" y2="80.4297"/><polygon fill="#181818" points="33.5,76.4297,23.5,80.4297,33.5,84.4297,29.5,80.4297" style="stroke:#181818;stroke-width:1.0;"/><text fill="#000000" font-family="sans-serif" font-size="13" lengthAdjust="spacing" textLength="163" x="29.5" y="62.3638">HTTP POST (/prsls/create)</text><polygon fill="#181818" points="220.5,105.5625,230.5,109.5625,220.5,113.5625,224.5,109.5625" style="stroke:#181818;stroke-width:1.0;"/><line style="stroke:#181818;stroke-width:1.0;" x1="22.5" x2="226.5" y1="109.5625" y2="109.5625"/><text fill="#000000" font-family="sans-serif" font-size="13" lengthAdjust="spacing" textLength="186" x="29.5" y="104.4966">Validate params: proposal_id</text><line style="stroke:#181818;stroke-width:1.0;" x1="22.5" x2="64.5" y1="138.6953" y2="138.6953"/><line style="stroke:#181818;stroke-width:1.0;" x1="64.5" x2="64.5" y1="138.6953" y2="151.6953"/><line style="stroke:#181818;stroke-width:1.0;" x1="23.5" x2="64.5" y1="151.6953" y2="151.6953"/><polygon fill="#181818" points="33.5,147.6953,23.5,151.6953,33.5,155.6953,29.5,151.6953" style="stroke:#181818;stroke-width:1.0;"/><text fill="#000000" font-family="sans-serif" font-size="13" lengthAdjust="spacing" textLength="62" x="29.5" y="133.6294">Response</text><polygon fill="#181818" points="220.5,176.8281,230.5,180.8281,220.5,184.8281,224.5,180.8281" style="stroke:#181818;stroke-width:1.0;"/><line style="stroke:#181818;stroke-width:1.0;stroke-dasharray:2.0,2.0;" x1="22.5" x2="226.5" y1="180.8281" y2="180.8281"/><text fill="#000000" font-family="sans-serif" font-size="13" lengthAdjust="spacing" textLength="127" x="29.5" y="175.7622">Store valid proposal</text><!--SRC=[SmpmLD2rKt0CyBHIy0W92L08y0yEKT3GBoWgpYdMJovAJIn9rUHoXAZoTt6qKWXBpCbC0Oeg52GM9UOMMoaK5EKNv1SdviHdfi0KWeqBIYqkoCyhJeK8mhG7b-GNfIgKWGo1wmG0]--></g></svg>