<?xml version="1.0" encoding="UTF-8" standalone="no"?><svg xmlns="http://www.w3.org/2000/svg" xmlns:xlink="http://www.w3.org/1999/xlink" contentStyleType="text/css" height="318px" preserveAspectRatio="none" style="width:302px;height:318px;background:#FFFFFF;" version="1.1" viewBox="0 0 302 318" width="302px" zoomAndPan="magnify"><defs/><g><line style="stroke:#181818;stroke-width:0.5;stroke-dasharray:5.0,5.0;" x1="22" x2="22" y1="36.2969" y2="283.0938"/><line style="stroke:#181818;stroke-width:0.5;stroke-dasharray:5.0,5.0;" x1="273" x2="273" y1="36.2969" y2="283.0938"/><rect fill="#E2E2F0" height="30.2969" rx="2.5" ry="2.5" style="stroke:#181818;stroke-width:0.5;" width="35" x="5" y="5"/><text fill="#000000" font-family="sans-serif" font-size="14" lengthAdjust="spacing" textLength="21" x="12" y="24.9951">API</text><rect fill="#E2E2F0" height="30.2969" rx="2.5" ry="2.5" style="stroke:#181818;stroke-width:0.5;" width="35" x="5" y="282.0938"/><text fill="#000000" font-family="sans-serif" font-size="14" lengthAdjust="spacing" textLength="21" x="12" y="302.0889">API</text><rect fill="#E2E2F0" height="30.2969" rx="2.5" ry="2.5" style="stroke:#181818;stroke-width:0.5;" width="45" x="251" y="5"/><text fill="#000000" font-family="sans-serif" font-size="14" lengthAdjust="spacing" textLength="31" x="258" y="24.9951">ODA</text><rect fill="#E2E2F0" height="30.2969" rx="2.5" ry="2.5" style="stroke:#181818;stroke-width:0.5;" width="45" x="251" y="282.0938"/><text fill="#000000" font-family="sans-serif" font-size="14" lengthAdjust="spacing" textLength="31" x="258" y="302.0889">ODA</text><line style="stroke:#181818;stroke-width:1.0;" x1="22.5" x2="64.5" y1="67.4297" y2="67.4297"/><line style="stroke:#181818;stroke-width:1.0;" x1="64.5" x2="64.5" y1="67.4297" y2="80.4297"/><line style="stroke:#181818;stroke-width:1.0;" x1="23.5" x2="64.5" y1="80.4297" y2="80.4297"/><polygon fill="#181818" points="33.5,76.4297,23.5,80.4297,33.5,84.4297,29.5,80.4297" style="stroke:#181818;stroke-width:1.0;"/><text fill="#000000" font-family="sans-serif" font-size="13" lengthAdjust="spacing" textLength="186" x="29.5" y="62.3638">Validate params: proposal_id</text><line style="stroke:#181818;stroke-width:1.0;" x1="22.5" x2="64.5" y1="109.5625" y2="109.5625"/><line style="stroke:#181818;stroke-width:1.0;" x1="64.5" x2="64.5" y1="109.5625" y2="122.5625"/><line style="stroke:#181818;stroke-width:1.0;" x1="23.5" x2="64.5" y1="122.5625" y2="122.5625"/><polygon fill="#181818" points="33.5,118.5625,23.5,122.5625,33.5,126.5625,29.5,122.5625" style="stroke:#181818;stroke-width:1.0;"/><text fill="#000000" font-family="sans-serif" font-size="13" lengthAdjust="spacing" textLength="202" x="29.5" y="104.4966">HTTP GET (/prsls/{proposal_id})</text><polygon fill="#181818" points="261.5,147.6953,271.5,151.6953,261.5,155.6953,265.5,151.6953" style="stroke:#181818;stroke-width:1.0;"/><line style="stroke:#181818;stroke-width:1.0;" x1="22.5" x2="267.5" y1="151.6953" y2="151.6953"/><text fill="#000000" font-family="sans-serif" font-size="13" lengthAdjust="spacing" textLength="227" x="29.5" y="146.6294">Validate existing proposal: Proposal</text><line style="stroke:#181818;stroke-width:1.0;" x1="22.5" x2="64.5" y1="180.8281" y2="180.8281"/><line style="stroke:#181818;stroke-width:1.0;" x1="64.5" x2="64.5" y1="180.8281" y2="193.8281"/><line style="stroke:#181818;stroke-width:1.0;" x1="23.5" x2="64.5" y1="193.8281" y2="193.8281"/><polygon fill="#181818" points="33.5,189.8281,23.5,193.8281,33.5,197.8281,29.5,193.8281" style="stroke:#181818;stroke-width:1.0;"/><text fill="#000000" font-family="sans-serif" font-size="13" lengthAdjust="spacing" textLength="202" x="29.5" y="175.7622">HTTP PUT (/prsls/{proposal_id})</text><line style="stroke:#181818;stroke-width:1.0;" x1="22.5" x2="64.5" y1="222.9609" y2="222.9609"/><line style="stroke:#181818;stroke-width:1.0;" x1="64.5" x2="64.5" y1="222.9609" y2="235.9609"/><line style="stroke:#181818;stroke-width:1.0;" x1="23.5" x2="64.5" y1="235.9609" y2="235.9609"/><polygon fill="#181818" points="33.5,231.9609,23.5,235.9609,33.5,239.9609,29.5,235.9609" style="stroke:#181818;stroke-width:1.0;"/><text fill="#000000" font-family="sans-serif" font-size="13" lengthAdjust="spacing" textLength="62" x="29.5" y="217.895">Response</text><polygon fill="#181818" points="261.5,261.0938,271.5,265.0938,261.5,269.0938,265.5,265.0938" style="stroke:#181818;stroke-width:1.0;"/><line style="stroke:#181818;stroke-width:1.0;stroke-dasharray:2.0,2.0;" x1="22.5" x2="267.5" y1="265.0938" y2="265.0938"/><text fill="#000000" font-family="sans-serif" font-size="13" lengthAdjust="spacing" textLength="127" x="29.5" y="260.0278">Store valid proposal</text><!--SRC=[SmpmLD2rKt0CyBHI24lCoKn9B4bLA4WiIimjjb8eACelo2zEp8dFJE5oH5Be4H8IeE3k6gAWeLzGL9nJh5-DfB9M4wRMtyKHoT3KYipYaioyTBYfLWe1K1QcuG6XX0m7gmrABIx8pojEXGZ2h0mkoIzALIW3MGot3000]--></g></svg>