<?xml version="1.0" encoding="UTF-8" standalone="no"?><svg xmlns="http://www.w3.org/2000/svg" xmlns:xlink="http://www.w3.org/1999/xlink" contentStyleType="text/css" height="204px" preserveAspectRatio="none" style="width:320px;height:204px;background:#FFFFFF;" version="1.1" viewBox="0 0 320 204" width="320px" zoomAndPan="magnify"><defs/><g><line style="stroke:#181818;stroke-width:0.5;stroke-dasharray:5.0,5.0;" x1="22" x2="22" y1="36.2969" y2="169.6953"/><line style="stroke:#181818;stroke-width:0.5;stroke-dasharray:5.0,5.0;" x1="291" x2="291" y1="36.2969" y2="169.6953"/><rect fill="#E2E2F0" height="30.2969" rx="2.5" ry="2.5" style="stroke:#181818;stroke-width:0.5;" width="35" x="5" y="5"/><text fill="#000000" font-family="sans-serif" font-size="14" lengthAdjust="spacing" textLength="21" x="12" y="24.9951">API</text><rect fill="#E2E2F0" height="30.2969" rx="2.5" ry="2.5" style="stroke:#181818;stroke-width:0.5;" width="35" x="5" y="168.6953"/><text fill="#000000" font-family="sans-serif" font-size="14" lengthAdjust="spacing" textLength="21" x="12" y="188.6904">API</text><rect fill="#E2E2F0" height="30.2969" rx="2.5" ry="2.5" style="stroke:#181818;stroke-width:0.5;" width="45" x="269" y="5"/><text fill="#000000" font-family="sans-serif" font-size="14" lengthAdjust="spacing" textLength="31" x="276" y="24.9951">ODA</text><rect fill="#E2E2F0" height="30.2969" rx="2.5" ry="2.5" style="stroke:#181818;stroke-width:0.5;" width="45" x="269" y="168.6953"/><text fill="#000000" font-family="sans-serif" font-size="14" lengthAdjust="spacing" textLength="31" x="276" y="188.6904">ODA</text><polygon fill="#181818" points="279.5,63.4297,289.5,67.4297,279.5,71.4297,283.5,67.4297" style="stroke:#181818;stroke-width:1.0;"/><line style="stroke:#181818;stroke-width:1.0;" x1="22.5" x2="285.5" y1="67.4297" y2="67.4297"/><text fill="#000000" font-family="sans-serif" font-size="13" lengthAdjust="spacing" textLength="245" x="29.5" y="62.3638">Validate existing proposal: proposal_id</text><line style="stroke:#181818;stroke-width:1.0;" x1="22.5" x2="64.5" y1="96.5625" y2="96.5625"/><line style="stroke:#181818;stroke-width:1.0;" x1="64.5" x2="64.5" y1="96.5625" y2="109.5625"/><line style="stroke:#181818;stroke-width:1.0;" x1="23.5" x2="64.5" y1="109.5625" y2="109.5625"/><polygon fill="#181818" points="33.5,105.5625,23.5,109.5625,33.5,113.5625,29.5,109.5625" style="stroke:#181818;stroke-width:1.0;"/><text fill="#000000" font-family="sans-serif" font-size="13" lengthAdjust="spacing" textLength="202" x="29.5" y="91.4966">HTTP GET (/prsls/{proposal_id})</text><line style="stroke:#181818;stroke-width:1.0;" x1="22.5" x2="64.5" y1="138.6953" y2="138.6953"/><line style="stroke:#181818;stroke-width:1.0;" x1="64.5" x2="64.5" y1="138.6953" y2="151.6953"/><line style="stroke:#181818;stroke-width:1.0;" x1="23.5" x2="64.5" y1="151.6953" y2="151.6953"/><polygon fill="#181818" points="33.5,147.6953,23.5,151.6953,33.5,155.6953,29.5,151.6953" style="stroke:#181818;stroke-width:1.0;"/><text fill="#000000" font-family="sans-serif" font-size="13" lengthAdjust="spacing" textLength="62" x="29.5" y="133.6294">Response</text><!--SRC=[SmpmLD2rK_1tSRHI24lCoKn9B4bLIAt8B2x9p4jNA2ZAByWlJionWhFYCrEu725wW9ILWaT8I822ksk8WeP-GL5nJh5-DPBAMaqKjK6fnGNvUSMf0000]--></g></svg>