<?xml version="1.0" encoding="UTF-8" standalone="no"?><svg xmlns="http://www.w3.org/2000/svg" xmlns:xlink="http://www.w3.org/1999/xlink" contentStyleType="text/css" height="537px" preserveAspectRatio="none" style="width:4538px;height:537px;background:#FFFFFF;" version="1.1" viewBox="0 0 4538 537" width="4538px" zoomAndPan="magnify"><defs/><g><!--cluster pht_pkg--><g id="cluster_pht_pkg"><path d="M8.5,154 L35.5,154 A3.75,3.75 0 0 1 38,156.5 L45,176.2969 L3453.5,176.2969 A2.5,2.5 0 0 1 3456,178.7969 L3456,527.5 A2.5,2.5 0 0 1 3453.5,530 L8.5,530 A2.5,2.5 0 0 1 6,527.5 L6,156.5 A2.5,2.5 0 0 1 8.5,154 " fill="none" style="stroke:#000000;stroke-width:1.5;"/><line style="stroke:#000000;stroke-width:1.5;" x1="6" x2="45" y1="176.2969" y2="176.2969"/><text fill="#000000" font-family="sans-serif" font-size="14" font-weight="bold" lengthAdjust="spacing" textLength="26" x="10" y="168.9951">pht</text></g><!--cluster api--><g id="cluster_api"><rect fill="none" height="309" rx="2.5" ry="2.5" style="stroke:#181818;stroke-width:1.0;" width="1766" x="30" y="197"/><text fill="#000000" font-family="sans-serif" font-size="14" font-weight="bold" lengthAdjust="spacing" textLength="23" x="901.5" y="211.9951">api</text></g><!--cluster panel_decision--><g id="cluster_panel_decision"><rect fill="none" height="144" rx="2.5" ry="2.5" style="stroke:#181818;stroke-width:1.0;" width="306" x="54" y="289"/><text fill="#000000" font-family="sans-serif" font-size="14" font-weight="bold" lengthAdjust="spacing" textLength="116" x="149" y="303.9951">panel_decision</text></g><!--cluster panels--><g id="cluster_panels"><rect fill="none" height="144" rx="2.5" ry="2.5" style="stroke:#181818;stroke-width:1.0;" width="280" x="1224" y="289"/><text fill="#000000" font-family="sans-serif" font-size="14" font-weight="bold" lengthAdjust="spacing" textLength="52" x="1338" y="303.9951">panels</text></g><!--cluster prsls--><g id="cluster_prsls"><rect fill="none" height="242" rx="2.5" ry="2.5" style="stroke:#181818;stroke-width:1.0;" width="366" x="834" y="240"/><text fill="#000000" font-family="sans-serif" font-size="14" font-weight="bold" lengthAdjust="spacing" textLength="39" x="997.5" y="254.9951">prsls</text></g><!--cluster report--><g id="cluster_report"><rect fill="none" height="96" rx="2.5" ry="2.5" style="stroke:#181818;stroke-width:1.0;" width="212" x="598" y="313"/><text fill="#000000" font-family="sans-serif" font-size="14" font-weight="bold" lengthAdjust="spacing" textLength="50" x="679" y="327.9951">report</text></g><!--cluster reviewers--><g id="cluster_reviewers"><rect fill="none" height="96" rx="2.5" ry="2.5" style="stroke:#181818;stroke-width:1.0;" width="190" x="384" y="313"/><text fill="#000000" font-family="sans-serif" font-size="14" font-weight="bold" lengthAdjust="spacing" textLength="80" x="439" y="327.9951">reviewers</text></g><!--cluster reviews--><g id="cluster_reviews"><rect fill="none" height="144" rx="2.5" ry="2.5" style="stroke:#181818;stroke-width:1.0;" width="244" x="1528" y="289"/><text fill="#000000" font-family="sans-serif" font-size="14" font-weight="bold" lengthAdjust="spacing" textLength="63" x="1618.5" y="303.9951">reviews</text></g><!--cluster utils--><g id="cluster_utils"><rect fill="none" height="260" rx="2.5" ry="2.5" style="stroke:#181818;stroke-width:1.0;" width="1612" x="1820" y="221.5"/><text fill="#000000" font-family="sans-serif" font-size="14" font-weight="bold" lengthAdjust="spacing" textLength="33" x="2609.5" y="236.4951">utils</text></g><!--cluster email_helper--><g id="cluster_email_helper"><rect fill="none" height="112" rx="2.5" ry="2.5" style="stroke:#181818;stroke-width:1.0;" width="194" x="2469" y="305"/><text fill="#000000" font-family="sans-serif" font-size="14" font-weight="bold" lengthAdjust="spacing" textLength="99" x="2516.5" y="319.9951">email_helper</text></g><!--cluster pht_handler--><g id="cluster_pht_handler"><rect fill="none" height="144" rx="2.5" ry="2.5" style="stroke:#181818;stroke-width:1.0;" width="352" x="2093" y="289"/><text fill="#000000" font-family="sans-serif" font-size="14" font-weight="bold" lengthAdjust="spacing" textLength="93" x="2222.5" y="303.9951">pht_handler</text></g><!--cluster s3_bucket--><g id="cluster_s3_bucket"><rect fill="none" height="193" rx="2.5" ry="2.5" style="stroke:#181818;stroke-width:1.0;" width="316" x="3092" y="264.5"/><text fill="#000000" font-family="sans-serif" font-size="14" font-weight="bold" lengthAdjust="spacing" textLength="80" x="3210" y="279.4951">s3_bucket</text></g><!--cluster validation--><g id="cluster_validation"><rect fill="none" height="107" rx="2.5" ry="2.5" style="stroke:#181818;stroke-width:1.0;" width="381" x="2687" y="307.5"/><text fill="#000000" font-family="sans-serif" font-size="14" font-weight="bold" lengthAdjust="spacing" textLength="75" x="2840" y="322.4951">validation</text></g><!--cluster api.prsls--><g id="cluster_api.prsls"><path d="M4015.5,6 L4083.5,6 A3.75,3.75 0 0 1 4086,8.5 L4093,28.2969 L4184.5,28.2969 A2.5,2.5 0 0 1 4187,30.7969 L4187,102.5 A2.5,2.5 0 0 1 4184.5,105 L4015.5,105 A2.5,2.5 0 0 1 4013,102.5 L4013,8.5 A2.5,2.5 0 0 1 4015.5,6 " fill="none" style="stroke:#000000;stroke-width:1.5;"/><line style="stroke:#000000;stroke-width:1.5;" x1="4013" x2="4093" y1="28.2969" y2="28.2969"/><text fill="#000000" font-family="sans-serif" font-size="14" font-weight="bold" lengthAdjust="spacing" textLength="67" x="4017" y="20.9951">api.prsls</text></g><!--cluster utils.validation--><g id="cluster_utils.validation"><path d="M3482.5,311.5 L3596.5,311.5 A3.75,3.75 0 0 1 3599,314 L3606,333.7969 L3858.5,333.7969 A2.5,2.5 0 0 1 3861,336.2969 L3861,408 A2.5,2.5 0 0 1 3858.5,410.5 L3482.5,410.5 A2.5,2.5 0 0 1 3480,408 L3480,314 A2.5,2.5 0 0 1 3482.5,311.5 " fill="none" style="stroke:#000000;stroke-width:1.5;"/><line style="stroke:#000000;stroke-width:1.5;" x1="3480" x2="3606" y1="333.7969" y2="333.7969"/><text fill="#000000" font-family="sans-serif" font-size="14" font-weight="bold" lengthAdjust="spacing" textLength="113" x="3484" y="326.4951">utils.validation</text></g><!--cluster utils.pht_handler--><g id="cluster_utils.pht_handler"><path d="M4339.5,311.5 L4471.5,311.5 A3.75,3.75 0 0 1 4474,314 L4481,333.7969 L4524.5,333.7969 A2.5,2.5 0 0 1 4527,336.2969 L4527,408 A2.5,2.5 0 0 1 4524.5,410.5 L4339.5,410.5 A2.5,2.5 0 0 1 4337,408 L4337,314 A2.5,2.5 0 0 1 4339.5,311.5 " fill="none" style="stroke:#000000;stroke-width:1.5;"/><line style="stroke:#000000;stroke-width:1.5;" x1="4337" x2="4481" y1="333.7969" y2="333.7969"/><text fill="#000000" font-family="sans-serif" font-size="14" font-weight="bold" lengthAdjust="spacing" textLength="131" x="4341" y="326.4951">utils.pht_handler</text></g><!--cluster utils.s3_bucket--><g id="cluster_utils.s3_bucket"><path d="M3887.5,311.5 L4006.5,311.5 A3.75,3.75 0 0 1 4009,314 L4016,333.7969 L4090.5,333.7969 A2.5,2.5 0 0 1 4093,336.2969 L4093,408 A2.5,2.5 0 0 1 4090.5,410.5 L3887.5,410.5 A2.5,2.5 0 0 1 3885,408 L3885,314 A2.5,2.5 0 0 1 3887.5,311.5 " fill="none" style="stroke:#000000;stroke-width:1.5;"/><line style="stroke:#000000;stroke-width:1.5;" x1="3885" x2="4016" y1="333.7969" y2="333.7969"/><text fill="#000000" font-family="sans-serif" font-size="14" font-weight="bold" lengthAdjust="spacing" textLength="118" x="3889" y="326.4951">utils.s3_bucket</text></g><!--cluster api.panels--><g id="cluster_api.panels"><path d="M3485.5,6 L3566.5,6 A3.75,3.75 0 0 1 3569,8.5 L3576,28.2969 L3668.5,28.2969 A2.5,2.5 0 0 1 3671,30.7969 L3671,102.5 A2.5,2.5 0 0 1 3668.5,105 L3485.5,105 A2.5,2.5 0 0 1 3483,102.5 L3483,8.5 A2.5,2.5 0 0 1 3485.5,6 " fill="none" style="stroke:#000000;stroke-width:1.5;"/><line style="stroke:#000000;stroke-width:1.5;" x1="3483" x2="3576" y1="28.2969" y2="28.2969"/><text fill="#000000" font-family="sans-serif" font-size="14" font-weight="bold" lengthAdjust="spacing" textLength="80" x="3487" y="20.9951">api.panels</text></g><!--cluster api.report--><g id="cluster_api.report"><path d="M4342.5,6 L4421.5,6 A3.75,3.75 0 0 1 4424,8.5 L4431,28.2969 L4521.5,28.2969 A2.5,2.5 0 0 1 4524,30.7969 L4524,102.5 A2.5,2.5 0 0 1 4521.5,105 L4342.5,105 A2.5,2.5 0 0 1 4340,102.5 L4340,8.5 A2.5,2.5 0 0 1 4342.5,6 " fill="none" style="stroke:#000000;stroke-width:1.5;"/><line style="stroke:#000000;stroke-width:1.5;" x1="4340" x2="4431" y1="28.2969" y2="28.2969"/><text fill="#000000" font-family="sans-serif" font-size="14" font-weight="bold" lengthAdjust="spacing" textLength="78" x="4344" y="20.9951">api.report</text></g><!--cluster utils.email_helper--><g id="cluster_utils.email_helper"><path d="M4119.5,311.5 L4257.5,311.5 A3.75,3.75 0 0 1 4260,314 L4267,333.7969 L4310.5,333.7969 A2.5,2.5 0 0 1 4313,336.2969 L4313,408 A2.5,2.5 0 0 1 4310.5,410.5 L4119.5,410.5 A2.5,2.5 0 0 1 4117,408 L4117,314 A2.5,2.5 0 0 1 4119.5,311.5 " fill="none" style="stroke:#000000;stroke-width:1.5;"/><line style="stroke:#000000;stroke-width:1.5;" x1="4117" x2="4267" y1="333.7969" y2="333.7969"/><text fill="#000000" font-family="sans-serif" font-size="14" font-weight="bold" lengthAdjust="spacing" textLength="137" x="4121" y="326.4951">utils.email_helper</text></g><!--cluster api.reviewers--><g id="cluster_api.reviewers"><path d="M1785.5,6 L1894.5,6 A3.75,3.75 0 0 1 1897,8.5 L1904,28.2969 L1988.5,28.2969 A2.5,2.5 0 0 1 1991,30.7969 L1991,102.5 A2.5,2.5 0 0 1 1988.5,105 L1785.5,105 A2.5,2.5 0 0 1 1783,102.5 L1783,8.5 A2.5,2.5 0 0 1 1785.5,6 " fill="none" style="stroke:#000000;stroke-width:1.5;"/><line style="stroke:#000000;stroke-width:1.5;" x1="1783" x2="1904" y1="28.2969" y2="28.2969"/><text fill="#000000" font-family="sans-serif" font-size="14" font-weight="bold" lengthAdjust="spacing" textLength="108" x="1787" y="20.9951">api.reviewers</text></g><g id="elem_panel_decision_endpoints"><rect fill="#F1F1F1" height="93.4844" style="stroke:#181818;stroke-width:0.5;" width="273" x="70.5" y="324"/><text fill="#000000" font-family="sans-serif" font-size="14" lengthAdjust="spacing" textLength="180" x="117" y="338.9951">panel_decision_endpoints</text><line style="stroke:#181818;stroke-width:0.5;" x1="71.5" x2="342.5" y1="344.2969" y2="344.2969"/><ellipse cx="81.5" cy="357.9453" fill="none" rx="3" ry="3" style="stroke:#038048;stroke-width:1.0;"/><text fill="#000000" font-family="sans-serif" font-size="14" lengthAdjust="spacing" textLength="156" x="90.5" y="361.292">POST /panel-decisions</text><ellipse cx="81.5" cy="374.2422" fill="none" rx="3" ry="3" style="stroke:#038048;stroke-width:1.0;"/><text fill="#000000" font-family="sans-serif" font-size="14" lengthAdjust="spacing" textLength="247" x="90.5" y="377.5889">GET /panel-decisions/{decision_id}</text><ellipse cx="81.5" cy="390.5391" fill="none" rx="3" ry="3" style="stroke:#038048;stroke-width:1.0;"/><text fill="#000000" font-family="sans-serif" font-size="14" lengthAdjust="spacing" textLength="244" x="90.5" y="393.8857">GET /panel-decisions/list/{user_id}</text><ellipse cx="81.5" cy="406.8359" fill="none" rx="3" ry="3" style="stroke:#038048;stroke-width:1.0;"/><text fill="#000000" font-family="sans-serif" font-size="14" lengthAdjust="spacing" textLength="246" x="90.5" y="410.1826">PUT /panel-decisions/{decision_id}</text></g><g id="elem_panels_endpoints"><rect fill="#F1F1F1" height="93.4844" style="stroke:#181818;stroke-width:0.5;" width="247" x="1240.5" y="324"/><text fill="#000000" font-family="sans-serif" font-size="14" lengthAdjust="spacing" textLength="123" x="1302.5" y="338.9951">panels_endpoints</text><line style="stroke:#181818;stroke-width:0.5;" x1="1241.5" x2="1486.5" y1="344.2969" y2="344.2969"/><ellipse cx="1251.5" cy="357.9453" fill="none" rx="3" ry="3" style="stroke:#038048;stroke-width:1.0;"/><text fill="#000000" font-family="sans-serif" font-size="14" lengthAdjust="spacing" textLength="93" x="1260.5" y="361.292">POST /panels</text><ellipse cx="1251.5" cy="374.2422" fill="none" rx="3" ry="3" style="stroke:#038048;stroke-width:1.0;"/><text fill="#000000" font-family="sans-serif" font-size="14" lengthAdjust="spacing" textLength="169" x="1260.5" y="377.5889">GET /panels//{panel_id}</text><ellipse cx="1251.5" cy="390.5391" fill="none" rx="3" ry="3" style="stroke:#038048;stroke-width:1.0;"/><text fill="#000000" font-family="sans-serif" font-size="14" lengthAdjust="spacing" textLength="221" x="1260.5" y="393.8857">GET /panels/reviews/{panel_id}</text><ellipse cx="1251.5" cy="406.8359" fill="none" rx="3" ry="3" style="stroke:#038048;stroke-width:1.0;"/><text fill="#000000" font-family="sans-serif" font-size="14" lengthAdjust="spacing" textLength="181" x="1260.5" y="410.1826">GET /panels/list/{user_id}</text></g><g id="elem_prsls_endpoints"><rect fill="#F1F1F1" height="191.2656" style="stroke:#181818;stroke-width:0.5;" width="333" x="850.5" y="275"/><text fill="#000000" font-family="sans-serif" font-size="14" lengthAdjust="spacing" textLength="110" x="962" y="289.9951">prsls_endpoints</text><line style="stroke:#181818;stroke-width:0.5;" x1="851.5" x2="1182.5" y1="295.2969" y2="295.2969"/><ellipse cx="861.5" cy="308.9453" fill="none" rx="3" ry="3" style="stroke:#038048;stroke-width:1.0;"/><text fill="#000000" font-family="sans-serif" font-size="14" lengthAdjust="spacing" textLength="160" x="870.5" y="312.292">GET /prsls/osd/{cycle}</text><ellipse cx="861.5" cy="325.2422" fill="none" rx="3" ry="3" style="stroke:#038048;stroke-width:1.0;"/><text fill="#000000" font-family="sans-serif" font-size="14" lengthAdjust="spacing" textLength="129" x="870.5" y="328.5889">POST /prsls/create</text><ellipse cx="861.5" cy="341.5391" fill="none" rx="3" ry="3" style="stroke:#038048;stroke-width:1.0;"/><text fill="#000000" font-family="sans-serif" font-size="14" lengthAdjust="spacing" textLength="173" x="870.5" y="344.8857">GET /prsls/{proposal_id}</text><ellipse cx="861.5" cy="357.8359" fill="none" rx="3" ry="3" style="stroke:#038048;stroke-width:1.0;"/><text fill="#000000" font-family="sans-serif" font-size="14" lengthAdjust="spacing" textLength="168" x="870.5" y="361.1826">GET /prsls/list/{user_id}</text><ellipse cx="861.5" cy="374.1328" fill="none" rx="3" ry="3" style="stroke:#038048;stroke-width:1.0;"/><text fill="#000000" font-family="sans-serif" font-size="14" lengthAdjust="spacing" textLength="172" x="870.5" y="377.4795">PUT /prsls/{proposal_id}</text><ellipse cx="861.5" cy="390.4297" fill="none" rx="3" ry="3" style="stroke:#038048;stroke-width:1.0;"/><text fill="#000000" font-family="sans-serif" font-size="14" lengthAdjust="spacing" textLength="137" x="870.5" y="393.7764">POST /prsls/validate</text><ellipse cx="861.5" cy="406.7266" fill="none" rx="3" ry="3" style="stroke:#038048;stroke-width:1.0;"/><text fill="#000000" font-family="sans-serif" font-size="14" lengthAdjust="spacing" textLength="161" x="870.5" y="410.0732">POST /prsls/send-email</text><ellipse cx="861.5" cy="423.0234" fill="none" rx="3" ry="3" style="stroke:#038048;stroke-width:1.0;"/><text fill="#000000" font-family="sans-serif" font-size="14" lengthAdjust="spacing" textLength="287" x="870.5" y="426.3701">POST /prsls/signed-url/upload/{filename}</text><ellipse cx="861.5" cy="439.3203" fill="none" rx="3" ry="3" style="stroke:#038048;stroke-width:1.0;"/><text fill="#000000" font-family="sans-serif" font-size="14" lengthAdjust="spacing" textLength="307" x="870.5" y="442.667">POST /prsls/signed-url/download/{filename}</text><ellipse cx="861.5" cy="455.6172" fill="none" rx="3" ry="3" style="stroke:#038048;stroke-width:1.0;"/><text fill="#000000" font-family="sans-serif" font-size="14" lengthAdjust="spacing" textLength="284" x="870.5" y="458.9639">POST /prsls/signed-url/delete/{filename}</text></g><g id="elem_report_endpoints"><rect fill="#F1F1F1" height="44.5938" style="stroke:#181818;stroke-width:0.5;" width="179" x="614.5" y="348"/><text fill="#000000" font-family="sans-serif" font-size="14" lengthAdjust="spacing" textLength="119" x="644.5" y="362.9951">report_endpoints</text><line style="stroke:#181818;stroke-width:0.5;" x1="615.5" x2="792.5" y1="368.2969" y2="368.2969"/><ellipse cx="625.5" cy="381.9453" fill="none" rx="3" ry="3" style="stroke:#038048;stroke-width:1.0;"/><text fill="#000000" font-family="sans-serif" font-size="14" lengthAdjust="spacing" textLength="153" x="634.5" y="385.292">GET /report/{user_id}</text></g><g id="elem_reviewers_endpoints"><rect fill="#F1F1F1" height="44.5938" style="stroke:#181818;stroke-width:0.5;" width="157" x="400.5" y="348"/><text fill="#000000" font-family="sans-serif" font-size="14" lengthAdjust="spacing" textLength="143" x="407.5" y="362.9951">reviewers_endpoints</text><line style="stroke:#181818;stroke-width:0.5;" x1="401.5" x2="556.5" y1="368.2969" y2="368.2969"/><ellipse cx="411.5" cy="381.9453" fill="none" rx="3" ry="3" style="stroke:#038048;stroke-width:1.0;"/><text fill="#000000" font-family="sans-serif" font-size="14" lengthAdjust="spacing" textLength="104" x="420.5" y="385.292">GET /reviewers</text></g><g id="elem_reviews_endpoints"><rect fill="#F1F1F1" height="93.4844" style="stroke:#181818;stroke-width:0.5;" width="213" x="1543.5" y="324"/><text fill="#000000" font-family="sans-serif" font-size="14" lengthAdjust="spacing" textLength="129" x="1585.5" y="338.9951">reviews_endpoints</text><line style="stroke:#181818;stroke-width:0.5;" x1="1544.5" x2="1755.5" y1="344.2969" y2="344.2969"/><ellipse cx="1554.5" cy="357.9453" fill="none" rx="3" ry="3" style="stroke:#038048;stroke-width:1.0;"/><text fill="#000000" font-family="sans-serif" font-size="14" lengthAdjust="spacing" textLength="99" x="1563.5" y="361.292">POST /reviews</text><ellipse cx="1554.5" cy="374.2422" fill="none" rx="3" ry="3" style="stroke:#038048;stroke-width:1.0;"/><text fill="#000000" font-family="sans-serif" font-size="14" lengthAdjust="spacing" textLength="176" x="1563.5" y="377.5889">GET /reviews/{review_id}</text><ellipse cx="1554.5" cy="390.5391" fill="none" rx="3" ry="3" style="stroke:#038048;stroke-width:1.0;"/><text fill="#000000" font-family="sans-serif" font-size="14" lengthAdjust="spacing" textLength="187" x="1563.5" y="393.8857">GET /reviews/list/{user_id}</text><ellipse cx="1554.5" cy="406.8359" fill="none" rx="3" ry="3" style="stroke:#038048;stroke-width:1.0;"/><text fill="#000000" font-family="sans-serif" font-size="14" lengthAdjust="spacing" textLength="175" x="1563.5" y="410.1826">PUT /reviews/{review_id}</text></g><!--class constants--><g id="elem_constants"><rect codeLine="92" fill="#F1F1F1" height="48" id="constants" rx="2.5" ry="2.5" style="stroke:#181818;stroke-width:0.5;" width="101" x="1972.5" y="346.5"/><ellipse cx="1987.5" cy="362.5" fill="#ADD1B2" rx="11" ry="11" style="stroke:#181818;stroke-width:1.0;"/><path d="M1990.4688,368.1406 Q1989.8906,368.4375 1989.25,368.5781 Q1988.6094,368.7344 1987.9063,368.7344 Q1985.4063,368.7344 1984.0781,367.0938 Q1982.7656,365.4375 1982.7656,362.3125 Q1982.7656,359.1875 1984.0781,357.5313 Q1985.4063,355.875 1987.9063,355.875 Q1988.6094,355.875 1989.25,356.0313 Q1989.9063,356.1875 1990.4688,356.4844 L1990.4688,359.2031 Q1989.8438,358.625 1989.25,358.3594 Q1988.6563,358.0781 1988.0313,358.0781 Q1986.6875,358.0781 1986,359.1563 Q1985.3125,360.2188 1985.3125,362.3125 Q1985.3125,364.4063 1986,365.4844 Q1986.6875,366.5469 1988.0313,366.5469 Q1988.6563,366.5469 1989.25,366.2813 Q1989.8438,366 1990.4688,365.4219 L1990.4688,368.1406 Z " fill="#000000"/><text fill="#000000" font-family="sans-serif" font-size="14" lengthAdjust="spacing" textLength="69" x="2001.5" y="367.3467">constants</text><line style="stroke:#181818;stroke-width:0.5;" x1="1973.5" x2="2072.5" y1="378.5" y2="378.5"/><line style="stroke:#181818;stroke-width:0.5;" x1="1973.5" x2="2072.5" y1="386.5" y2="386.5"/></g><!--class utils.constants--><g id="elem_utils.constants"><rect fill="#F1F1F1" height="48" id="utils.constants" rx="2.5" ry="2.5" style="stroke:#181818;stroke-width:0.5;" width="101" x="1836.5" y="346.5"/><ellipse cx="1851.5" cy="362.5" fill="#ADD1B2" rx="11" ry="11" style="stroke:#181818;stroke-width:1.0;"/><path d="M1854.4688,368.1406 Q1853.8906,368.4375 1853.25,368.5781 Q1852.6094,368.7344 1851.9063,368.7344 Q1849.4063,368.7344 1848.0781,367.0938 Q1846.7656,365.4375 1846.7656,362.3125 Q1846.7656,359.1875 1848.0781,357.5313 Q1849.4063,355.875 1851.9063,355.875 Q1852.6094,355.875 1853.25,356.0313 Q1853.9063,356.1875 1854.4688,356.4844 L1854.4688,359.2031 Q1853.8438,358.625 1853.25,358.3594 Q1852.6563,358.0781 1852.0313,358.0781 Q1850.6875,358.0781 1850,359.1563 Q1849.3125,360.2188 1849.3125,362.3125 Q1849.3125,364.4063 1850,365.4844 Q1850.6875,366.5469 1852.0313,366.5469 Q1852.6563,366.5469 1853.25,366.2813 Q1853.8438,366 1854.4688,365.4219 L1854.4688,368.1406 Z " fill="#000000"/><text fill="#000000" font-family="sans-serif" font-size="14" lengthAdjust="spacing" textLength="69" x="1865.5" y="367.3467">constants</text><line style="stroke:#181818;stroke-width:0.5;" x1="1837.5" x2="1936.5" y1="378.5" y2="378.5"/><line style="stroke:#181818;stroke-width:0.5;" x1="1837.5" x2="1936.5" y1="386.5" y2="386.5"/></g><g id="elem_email_helper_items"><rect fill="#F1F1F1" height="60.8906" style="stroke:#181818;stroke-width:0.5;" width="161" x="2485.5" y="340"/><text fill="#000000" font-family="sans-serif" font-size="14" lengthAdjust="spacing" textLength="132" x="2500" y="354.9951">email_helper_items</text><line style="stroke:#181818;stroke-width:0.5;" x1="2486.5" x2="2645.5" y1="360.2969" y2="360.2969"/><ellipse cx="2496.5" cy="373.9453" fill="#84BE84" rx="3" ry="3" style="stroke:#038048;stroke-width:1.0;"/><text fill="#000000" font-family="sans-serif" font-size="14" lengthAdjust="spacing" textLength="99" x="2505.5" y="377.292">render_email()</text><ellipse cx="2496.5" cy="390.2422" fill="#84BE84" rx="3" ry="3" style="stroke:#038048;stroke-width:1.0;"/><text fill="#000000" font-family="sans-serif" font-size="14" lengthAdjust="spacing" textLength="135" x="2505.5" y="393.5889">send_email_async()</text></g><g id="elem_pht_handler_items"><rect fill="#F1F1F1" height="93.4844" style="stroke:#181818;stroke-width:0.5;" width="320" x="2109" y="324"/><text fill="#000000" font-family="sans-serif" font-size="14" lengthAdjust="spacing" textLength="127" x="2205.5" y="338.9951">pht_handler_items</text><line style="stroke:#181818;stroke-width:0.5;" x1="2110" x2="2428" y1="344.2969" y2="344.2969"/><ellipse cx="2120" cy="357.9453" fill="#84BE84" rx="3" ry="3" style="stroke:#038048;stroke-width:1.0;"/><text fill="#000000" font-family="sans-serif" font-size="14" lengthAdjust="spacing" textLength="199" x="2129" y="361.292">transform_update_proposal()</text><ellipse cx="2120" cy="374.2422" fill="#84BE84" rx="3" ry="3" style="stroke:#038048;stroke-width:1.0;"/><text fill="#000000" font-family="sans-serif" font-size="14" lengthAdjust="spacing" textLength="165" x="2129" y="377.5889">get_latest_entity_by_id()</text><ellipse cx="2120" cy="390.5391" fill="#84BE84" rx="3" ry="3" style="stroke:#038048;stroke-width:1.0;"/><text fill="#000000" font-family="sans-serif" font-size="14" lengthAdjust="spacing" textLength="122" x="2129" y="393.8857">_get_array_class()</text><ellipse cx="2120" cy="406.8359" fill="#84BE84" rx="3" ry="3" style="stroke:#038048;stroke-width:1.0;"/><text fill="#000000" font-family="sans-serif" font-size="14" lengthAdjust="spacing" textLength="294" x="2129" y="410.1826">join_proposals_panels_reviews_decisions()</text></g><g id="elem_s3_bucket_functions"><rect fill="#F1F1F1" height="142.375" style="stroke:#181818;stroke-width:0.5;" width="284" x="3108" y="299.5"/><text fill="#000000" font-family="sans-serif" font-size="14" lengthAdjust="spacing" textLength="143" x="3178.5" y="314.4951">s3_bucket_functions</text><line style="stroke:#181818;stroke-width:0.5;" x1="3109" x2="3391" y1="319.7969" y2="319.7969"/><ellipse cx="3119" cy="333.4453" fill="#84BE84" rx="3" ry="3" style="stroke:#038048;stroke-width:1.0;"/><text fill="#000000" font-family="sans-serif" font-size="14" lengthAdjust="spacing" textLength="125" x="3128" y="336.792">S3Method (Enum)</text><ellipse cx="3119" cy="349.7422" fill="none" rx="3" ry="3" style="stroke:#038048;stroke-width:1.0;"/><text fill="#000000" font-family="sans-serif" font-size="14" lengthAdjust="spacing" textLength="62" x="3128" y="353.0889">S3Config</text><ellipse cx="3119" cy="366.0391" fill="#84BE84" rx="3" ry="3" style="stroke:#038048;stroke-width:1.0;"/><text fill="#000000" font-family="sans-serif" font-size="14" lengthAdjust="spacing" textLength="111" x="3128" y="369.3857">get_aws_client()</text><ellipse cx="3119" cy="382.3359" fill="#84BE84" rx="3" ry="3" style="stroke:#038048;stroke-width:1.0;"/><text fill="#000000" font-family="sans-serif" font-size="14" lengthAdjust="spacing" textLength="174" x="3128" y="385.6826">generate_presigned_url()</text><ellipse cx="3119" cy="398.6328" fill="#84BE84" rx="3" ry="3" style="stroke:#038048;stroke-width:1.0;"/><text fill="#000000" font-family="sans-serif" font-size="14" lengthAdjust="spacing" textLength="238" x="3128" y="401.9795">create_presigned_url_upload_pdf()</text><ellipse cx="3119" cy="414.9297" fill="#84BE84" rx="3" ry="3" style="stroke:#038048;stroke-width:1.0;"/><text fill="#000000" font-family="sans-serif" font-size="14" lengthAdjust="spacing" textLength="258" x="3128" y="418.2764">create_presigned_url_download_pdf()</text><ellipse cx="3119" cy="431.2266" fill="#84BE84" rx="3" ry="3" style="stroke:#038048;stroke-width:1.0;"/><text fill="#000000" font-family="sans-serif" font-size="14" lengthAdjust="spacing" textLength="235" x="3128" y="434.5732">create_presigned_url_delete_pdf()</text></g><!--class validate_duplicates--><g id="elem_validate_duplicates"><rect codeLine="89" fill="#F1F1F1" height="56.2656" id="validate_duplicates" rx="2.5" ry="2.5" style="stroke:#181818;stroke-width:0.5;" width="162" x="2890" y="342.5"/><ellipse cx="2905" cy="362.6328" fill="#ADD1B2" rx="11" ry="11" style="stroke:#181818;stroke-width:1.0;"/><path d="M2907.9688,368.2734 Q2907.3906,368.5703 2906.75,368.7109 Q2906.1094,368.8672 2905.4063,368.8672 Q2902.9063,368.8672 2901.5781,367.2266 Q2900.2656,365.5703 2900.2656,362.4453 Q2900.2656,359.3203 2901.5781,357.6641 Q2902.9063,356.0078 2905.4063,356.0078 Q2906.1094,356.0078 2906.75,356.1641 Q2907.4063,356.3203 2907.9688,356.6172 L2907.9688,359.3359 Q2907.3438,358.7578 2906.75,358.4922 Q2906.1563,358.2109 2905.5313,358.2109 Q2904.1875,358.2109 2903.5,359.2891 Q2902.8125,360.3516 2902.8125,362.4453 Q2902.8125,364.5391 2903.5,365.6172 Q2904.1875,366.6797 2905.5313,366.6797 Q2906.1563,366.6797 2906.75,366.4141 Q2907.3438,366.1328 2907.9688,365.5547 L2907.9688,368.2734 Z " fill="#000000"/><text fill="#000000" font-family="sans-serif" font-size="12" font-style="italic" lengthAdjust="spacing" textLength="65" x="2951.5" y="358.6387">«function»</text><text fill="#000000" font-family="sans-serif" font-size="14" lengthAdjust="spacing" textLength="130" x="2919" y="374.4639">validate_duplicates</text><line style="stroke:#181818;stroke-width:0.5;" x1="2891" x2="3051" y1="382.7656" y2="382.7656"/><line style="stroke:#181818;stroke-width:0.5;" x1="2891" x2="3051" y1="390.7656" y2="390.7656"/></g><!--class validate_proposal--><g id="elem_validate_proposal"><rect codeLine="90" fill="#F1F1F1" height="56.2656" id="validate_proposal" rx="2.5" ry="2.5" style="stroke:#181818;stroke-width:0.5;" width="151" x="2703.5" y="342.5"/><ellipse cx="2718.5" cy="362.6328" fill="#ADD1B2" rx="11" ry="11" style="stroke:#181818;stroke-width:1.0;"/><path d="M2721.4688,368.2734 Q2720.8906,368.5703 2720.25,368.7109 Q2719.6094,368.8672 2718.9063,368.8672 Q2716.4063,368.8672 2715.0781,367.2266 Q2713.7656,365.5703 2713.7656,362.4453 Q2713.7656,359.3203 2715.0781,357.6641 Q2716.4063,356.0078 2718.9063,356.0078 Q2719.6094,356.0078 2720.25,356.1641 Q2720.9063,356.3203 2721.4688,356.6172 L2721.4688,359.3359 Q2720.8438,358.7578 2720.25,358.4922 Q2719.6563,358.2109 2719.0313,358.2109 Q2717.6875,358.2109 2717,359.2891 Q2716.3125,360.3516 2716.3125,362.4453 Q2716.3125,364.5391 2717,365.6172 Q2717.6875,366.6797 2719.0313,366.6797 Q2719.6563,366.6797 2720.25,366.4141 Q2720.8438,366.1328 2721.4688,365.5547 L2721.4688,368.2734 Z " fill="#000000"/><text fill="#000000" font-family="sans-serif" font-size="12" font-style="italic" lengthAdjust="spacing" textLength="65" x="2759.5" y="358.6387">«function»</text><text fill="#000000" font-family="sans-serif" font-size="14" lengthAdjust="spacing" textLength="119" x="2732.5" y="374.4639">validate_proposal</text><line style="stroke:#181818;stroke-width:0.5;" x1="2704.5" x2="2853.5" y1="382.7656" y2="382.7656"/><line style="stroke:#181818;stroke-width:0.5;" x1="2704.5" x2="2853.5" y1="390.7656" y2="390.7656"/></g><!--class api.prsls.prsls_endpoints--><g id="elem_api.prsls.prsls_endpoints"><rect fill="#F1F1F1" height="48" id="api.prsls.prsls_endpoints" rx="2.5" ry="2.5" style="stroke:#181818;stroke-width:0.5;" width="142" x="4029" y="41"/><ellipse cx="4044" cy="57" fill="#ADD1B2" rx="11" ry="11" style="stroke:#181818;stroke-width:1.0;"/><path d="M4046.9688,62.6406 Q4046.3906,62.9375 4045.75,63.0781 Q4045.1094,63.2344 4044.4063,63.2344 Q4041.9063,63.2344 4040.5781,61.5938 Q4039.2656,59.9375 4039.2656,56.8125 Q4039.2656,53.6875 4040.5781,52.0313 Q4041.9063,50.375 4044.4063,50.375 Q4045.1094,50.375 4045.75,50.5313 Q4046.4063,50.6875 4046.9688,50.9844 L4046.9688,53.7031 Q4046.3438,53.125 4045.75,52.8594 Q4045.1563,52.5781 4044.5313,52.5781 Q4043.1875,52.5781 4042.5,53.6563 Q4041.8125,54.7188 4041.8125,56.8125 Q4041.8125,58.9063 4042.5,59.9844 Q4043.1875,61.0469 4044.5313,61.0469 Q4045.1563,61.0469 4045.75,60.7813 Q4046.3438,60.5 4046.9688,59.9219 L4046.9688,62.6406 Z " fill="#000000"/><text fill="#000000" font-family="sans-serif" font-size="14" lengthAdjust="spacing" textLength="110" x="4058" y="61.8467">prsls_endpoints</text><line style="stroke:#181818;stroke-width:0.5;" x1="4030" x2="4170" y1="73" y2="73"/><line style="stroke:#181818;stroke-width:0.5;" x1="4030" x2="4170" y1="81" y2="81"/></g><!--class utils.validation.validate_proposal--><g id="elem_utils.validation.validate_proposal"><rect fill="#F1F1F1" height="48" id="utils.validation.validate_proposal" rx="2.5" ry="2.5" style="stroke:#181818;stroke-width:0.5;" width="151" x="3693.5" y="346.5"/><ellipse cx="3708.5" cy="362.5" fill="#ADD1B2" rx="11" ry="11" style="stroke:#181818;stroke-width:1.0;"/><path d="M3711.4688,368.1406 Q3710.8906,368.4375 3710.25,368.5781 Q3709.6094,368.7344 3708.9063,368.7344 Q3706.4063,368.7344 3705.0781,367.0938 Q3703.7656,365.4375 3703.7656,362.3125 Q3703.7656,359.1875 3705.0781,357.5313 Q3706.4063,355.875 3708.9063,355.875 Q3709.6094,355.875 3710.25,356.0313 Q3710.9063,356.1875 3711.4688,356.4844 L3711.4688,359.2031 Q3710.8438,358.625 3710.25,358.3594 Q3709.6563,358.0781 3709.0313,358.0781 Q3707.6875,358.0781 3707,359.1563 Q3706.3125,360.2188 3706.3125,362.3125 Q3706.3125,364.4063 3707,365.4844 Q3707.6875,366.5469 3709.0313,366.5469 Q3709.6563,366.5469 3710.25,366.2813 Q3710.8438,366 3711.4688,365.4219 L3711.4688,368.1406 Z " fill="#000000"/><text fill="#000000" font-family="sans-serif" font-size="14" lengthAdjust="spacing" textLength="119" x="3722.5" y="367.3467">validate_proposal</text><line style="stroke:#181818;stroke-width:0.5;" x1="3694.5" x2="3843.5" y1="378.5" y2="378.5"/><line style="stroke:#181818;stroke-width:0.5;" x1="3694.5" x2="3843.5" y1="386.5" y2="386.5"/></g><!--class utils.validation.validate_duplicates--><g id="elem_utils.validation.validate_duplicates"><rect fill="#F1F1F1" height="48" id="utils.validation.validate_duplicates" rx="2.5" ry="2.5" style="stroke:#181818;stroke-width:0.5;" width="162" x="3496" y="346.5"/><ellipse cx="3511" cy="362.5" fill="#ADD1B2" rx="11" ry="11" style="stroke:#181818;stroke-width:1.0;"/><path d="M3513.9688,368.1406 Q3513.3906,368.4375 3512.75,368.5781 Q3512.1094,368.7344 3511.4063,368.7344 Q3508.9063,368.7344 3507.5781,367.0938 Q3506.2656,365.4375 3506.2656,362.3125 Q3506.2656,359.1875 3507.5781,357.5313 Q3508.9063,355.875 3511.4063,355.875 Q3512.1094,355.875 3512.75,356.0313 Q3513.4063,356.1875 3513.9688,356.4844 L3513.9688,359.2031 Q3513.3438,358.625 3512.75,358.3594 Q3512.1563,358.0781 3511.5313,358.0781 Q3510.1875,358.0781 3509.5,359.1563 Q3508.8125,360.2188 3508.8125,362.3125 Q3508.8125,364.4063 3509.5,365.4844 Q3510.1875,366.5469 3511.5313,366.5469 Q3512.1563,366.5469 3512.75,366.2813 Q3513.3438,366 3513.9688,365.4219 L3513.9688,368.1406 Z " fill="#000000"/><text fill="#000000" font-family="sans-serif" font-size="14" lengthAdjust="spacing" textLength="130" x="3525" y="367.3467">validate_duplicates</text><line style="stroke:#181818;stroke-width:0.5;" x1="3497" x2="3657" y1="378.5" y2="378.5"/><line style="stroke:#181818;stroke-width:0.5;" x1="3497" x2="3657" y1="386.5" y2="386.5"/></g><!--class utils.pht_handler.pht_handler_items--><g id="elem_utils.pht_handler.pht_handler_items"><rect fill="#F1F1F1" height="48" id="utils.pht_handler.pht_handler_items" rx="2.5" ry="2.5" style="stroke:#181818;stroke-width:0.5;" width="159" x="4352.5" y="346.5"/><ellipse cx="4367.5" cy="362.5" fill="#ADD1B2" rx="11" ry="11" style="stroke:#181818;stroke-width:1.0;"/><path d="M4370.4688,368.1406 Q4369.8906,368.4375 4369.25,368.5781 Q4368.6094,368.7344 4367.9063,368.7344 Q4365.4063,368.7344 4364.0781,367.0938 Q4362.7656,365.4375 4362.7656,362.3125 Q4362.7656,359.1875 4364.0781,357.5313 Q4365.4063,355.875 4367.9063,355.875 Q4368.6094,355.875 4369.25,356.0313 Q4369.9063,356.1875 4370.4688,356.4844 L4370.4688,359.2031 Q4369.8438,358.625 4369.25,358.3594 Q4368.6563,358.0781 4368.0313,358.0781 Q4366.6875,358.0781 4366,359.1563 Q4365.3125,360.2188 4365.3125,362.3125 Q4365.3125,364.4063 4366,365.4844 Q4366.6875,366.5469 4368.0313,366.5469 Q4368.6563,366.5469 4369.25,366.2813 Q4369.8438,366 4370.4688,365.4219 L4370.4688,368.1406 Z " fill="#000000"/><text fill="#000000" font-family="sans-serif" font-size="14" lengthAdjust="spacing" textLength="127" x="4381.5" y="367.3467">pht_handler_items</text><line style="stroke:#181818;stroke-width:0.5;" x1="4353.5" x2="4510.5" y1="378.5" y2="378.5"/><line style="stroke:#181818;stroke-width:0.5;" x1="4353.5" x2="4510.5" y1="386.5" y2="386.5"/></g><!--class utils.s3_bucket.s3_bucket_functions--><g id="elem_utils.s3_bucket.s3_bucket_functions"><rect fill="#F1F1F1" height="48" id="utils.s3_bucket.s3_bucket_functions" rx="2.5" ry="2.5" style="stroke:#181818;stroke-width:0.5;" width="175" x="3901.5" y="346.5"/><ellipse cx="3916.5" cy="362.5" fill="#ADD1B2" rx="11" ry="11" style="stroke:#181818;stroke-width:1.0;"/><path d="M3919.4688,368.1406 Q3918.8906,368.4375 3918.25,368.5781 Q3917.6094,368.7344 3916.9063,368.7344 Q3914.4063,368.7344 3913.0781,367.0938 Q3911.7656,365.4375 3911.7656,362.3125 Q3911.7656,359.1875 3913.0781,357.5313 Q3914.4063,355.875 3916.9063,355.875 Q3917.6094,355.875 3918.25,356.0313 Q3918.9063,356.1875 3919.4688,356.4844 L3919.4688,359.2031 Q3918.8438,358.625 3918.25,358.3594 Q3917.6563,358.0781 3917.0313,358.0781 Q3915.6875,358.0781 3915,359.1563 Q3914.3125,360.2188 3914.3125,362.3125 Q3914.3125,364.4063 3915,365.4844 Q3915.6875,366.5469 3917.0313,366.5469 Q3917.6563,366.5469 3918.25,366.2813 Q3918.8438,366 3919.4688,365.4219 L3919.4688,368.1406 Z " fill="#000000"/><text fill="#000000" font-family="sans-serif" font-size="14" lengthAdjust="spacing" textLength="143" x="3930.5" y="367.3467">s3_bucket_functions</text><line style="stroke:#181818;stroke-width:0.5;" x1="3902.5" x2="4075.5" y1="378.5" y2="378.5"/><line style="stroke:#181818;stroke-width:0.5;" x1="3902.5" x2="4075.5" y1="386.5" y2="386.5"/></g><!--class api.panels.panels_endpoints--><g id="elem_api.panels.panels_endpoints"><rect fill="#F1F1F1" height="48" id="api.panels.panels_endpoints" rx="2.5" ry="2.5" style="stroke:#181818;stroke-width:0.5;" width="155" x="3499.5" y="41"/><ellipse cx="3514.5" cy="57" fill="#ADD1B2" rx="11" ry="11" style="stroke:#181818;stroke-width:1.0;"/><path d="M3517.4688,62.6406 Q3516.8906,62.9375 3516.25,63.0781 Q3515.6094,63.2344 3514.9063,63.2344 Q3512.4063,63.2344 3511.0781,61.5938 Q3509.7656,59.9375 3509.7656,56.8125 Q3509.7656,53.6875 3511.0781,52.0313 Q3512.4063,50.375 3514.9063,50.375 Q3515.6094,50.375 3516.25,50.5313 Q3516.9063,50.6875 3517.4688,50.9844 L3517.4688,53.7031 Q3516.8438,53.125 3516.25,52.8594 Q3515.6563,52.5781 3515.0313,52.5781 Q3513.6875,52.5781 3513,53.6563 Q3512.3125,54.7188 3512.3125,56.8125 Q3512.3125,58.9063 3513,59.9844 Q3513.6875,61.0469 3515.0313,61.0469 Q3515.6563,61.0469 3516.25,60.7813 Q3516.8438,60.5 3517.4688,59.9219 L3517.4688,62.6406 Z " fill="#000000"/><text fill="#000000" font-family="sans-serif" font-size="14" lengthAdjust="spacing" textLength="123" x="3528.5" y="61.8467">panels_endpoints</text><line style="stroke:#181818;stroke-width:0.5;" x1="3500.5" x2="3653.5" y1="73" y2="73"/><line style="stroke:#181818;stroke-width:0.5;" x1="3500.5" x2="3653.5" y1="81" y2="81"/></g><!--class api.report.report_endpoints--><g id="elem_api.report.report_endpoints"><rect fill="#F1F1F1" height="48" id="api.report.report_endpoints" rx="2.5" ry="2.5" style="stroke:#181818;stroke-width:0.5;" width="151" x="4356.5" y="41"/><ellipse cx="4371.5" cy="57" fill="#ADD1B2" rx="11" ry="11" style="stroke:#181818;stroke-width:1.0;"/><path d="M4374.4688,62.6406 Q4373.8906,62.9375 4373.25,63.0781 Q4372.6094,63.2344 4371.9063,63.2344 Q4369.4063,63.2344 4368.0781,61.5938 Q4366.7656,59.9375 4366.7656,56.8125 Q4366.7656,53.6875 4368.0781,52.0313 Q4369.4063,50.375 4371.9063,50.375 Q4372.6094,50.375 4373.25,50.5313 Q4373.9063,50.6875 4374.4688,50.9844 L4374.4688,53.7031 Q4373.8438,53.125 4373.25,52.8594 Q4372.6563,52.5781 4372.0313,52.5781 Q4370.6875,52.5781 4370,53.6563 Q4369.3125,54.7188 4369.3125,56.8125 Q4369.3125,58.9063 4370,59.9844 Q4370.6875,61.0469 4372.0313,61.0469 Q4372.6563,61.0469 4373.25,60.7813 Q4373.8438,60.5 4374.4688,59.9219 L4374.4688,62.6406 Z " fill="#000000"/><text fill="#000000" font-family="sans-serif" font-size="14" lengthAdjust="spacing" textLength="119" x="4385.5" y="61.8467">report_endpoints</text><line style="stroke:#181818;stroke-width:0.5;" x1="4357.5" x2="4506.5" y1="73" y2="73"/><line style="stroke:#181818;stroke-width:0.5;" x1="4357.5" x2="4506.5" y1="81" y2="81"/></g><!--class utils.email_helper.email_helper_items--><g id="elem_utils.email_helper.email_helper_items"><rect fill="#F1F1F1" height="48" id="utils.email_helper.email_helper_items" rx="2.5" ry="2.5" style="stroke:#181818;stroke-width:0.5;" width="164" x="4133" y="346.5"/><ellipse cx="4148" cy="362.5" fill="#ADD1B2" rx="11" ry="11" style="stroke:#181818;stroke-width:1.0;"/><path d="M4150.9688,368.1406 Q4150.3906,368.4375 4149.75,368.5781 Q4149.1094,368.7344 4148.4063,368.7344 Q4145.9063,368.7344 4144.5781,367.0938 Q4143.2656,365.4375 4143.2656,362.3125 Q4143.2656,359.1875 4144.5781,357.5313 Q4145.9063,355.875 4148.4063,355.875 Q4149.1094,355.875 4149.75,356.0313 Q4150.4063,356.1875 4150.9688,356.4844 L4150.9688,359.2031 Q4150.3438,358.625 4149.75,358.3594 Q4149.1563,358.0781 4148.5313,358.0781 Q4147.1875,358.0781 4146.5,359.1563 Q4145.8125,360.2188 4145.8125,362.3125 Q4145.8125,364.4063 4146.5,365.4844 Q4147.1875,366.5469 4148.5313,366.5469 Q4149.1563,366.5469 4149.75,366.2813 Q4150.3438,366 4150.9688,365.4219 L4150.9688,368.1406 Z " fill="#000000"/><text fill="#000000" font-family="sans-serif" font-size="14" lengthAdjust="spacing" textLength="132" x="4162" y="367.3467">email_helper_items</text><line style="stroke:#181818;stroke-width:0.5;" x1="4134" x2="4296" y1="378.5" y2="378.5"/><line style="stroke:#181818;stroke-width:0.5;" x1="4134" x2="4296" y1="386.5" y2="386.5"/></g><!--class api.reviewers.reviewers_endpoints--><g id="elem_api.reviewers.reviewers_endpoints"><rect fill="#F1F1F1" height="48" id="api.reviewers.reviewers_endpoints" rx="2.5" ry="2.5" style="stroke:#181818;stroke-width:0.5;" width="175" x="1799.5" y="41"/><ellipse cx="1814.5" cy="57" fill="#ADD1B2" rx="11" ry="11" style="stroke:#181818;stroke-width:1.0;"/><path d="M1817.4688,62.6406 Q1816.8906,62.9375 1816.25,63.0781 Q1815.6094,63.2344 1814.9063,63.2344 Q1812.4063,63.2344 1811.0781,61.5938 Q1809.7656,59.9375 1809.7656,56.8125 Q1809.7656,53.6875 1811.0781,52.0313 Q1812.4063,50.375 1814.9063,50.375 Q1815.6094,50.375 1816.25,50.5313 Q1816.9063,50.6875 1817.4688,50.9844 L1817.4688,53.7031 Q1816.8438,53.125 1816.25,52.8594 Q1815.6563,52.5781 1815.0313,52.5781 Q1813.6875,52.5781 1813,53.6563 Q1812.3125,54.7188 1812.3125,56.8125 Q1812.3125,58.9063 1813,59.9844 Q1813.6875,61.0469 1815.0313,61.0469 Q1815.6563,61.0469 1816.25,60.7813 Q1816.8438,60.5 1817.4688,59.9219 L1817.4688,62.6406 Z " fill="#000000"/><text fill="#000000" font-family="sans-serif" font-size="14" lengthAdjust="spacing" textLength="143" x="1828.5" y="61.8467">reviewers_endpoints</text><line style="stroke:#181818;stroke-width:0.5;" x1="1800.5" x2="1973.5" y1="73" y2="73"/><line style="stroke:#181818;stroke-width:0.5;" x1="1800.5" x2="1973.5" y1="81" y2="81"/></g><!--link api.prsls.prsls_endpoints to utils.validation.validate_proposal--><g id="link_api.prsls.prsls_endpoints_utils.validation.validate_proposal"><path codeLine="96" d="M4028.81,78.73 C3983.29,89.93 3925.42,110.25 3885,146 C3823.7,200.21 3790.03,294.63 3776.35,341.48 " fill="none" id="api.prsls.prsls_endpoints-to-utils.validation.validate_proposal" style="stroke:#181818;stroke-width:1.0;"/><polygon fill="#181818" points="3774.94,346.41,3781.2793,338.8726,3776.3268,341.6062,3773.5932,336.6537,3774.94,346.41" style="stroke:#181818;stroke-width:1.0;"/></g><!--link api.prsls.prsls_endpoints to utils.pht_handler.pht_handler_items--><g id="link_api.prsls.prsls_endpoints_utils.pht_handler.pht_handler_items"><path codeLine="97" d="M4171.16,79.21 C4216.09,90.57 4273,110.89 4313,146 C4374.84,200.28 4409.87,294.67 4424.23,341.5 " fill="none" id="api.prsls.prsls_endpoints-to-utils.pht_handler.pht_handler_items" style="stroke:#181818;stroke-width:1.0;"/><polygon fill="#181818" points="4425.72,346.42,4426.9518,336.6485,4424.2767,341.6328,4419.2923,338.9577,4425.72,346.42" style="stroke:#181818;stroke-width:1.0;"/></g><!--link api.prsls.prsls_endpoints to utils.s3_bucket.s3_bucket_functions--><g id="link_api.prsls.prsls_endpoints_utils.s3_bucket.s3_bucket_functions"><path codeLine="98" d="M4082.14,89.16 C4075.44,98.64 4068.2,109.97 4063,121 C4027.14,197.01 4004.23,294.32 3994.45,341.44 " fill="none" id="api.prsls.prsls_endpoints-to-utils.s3_bucket.s3_bucket_functions" style="stroke:#181818;stroke-width:1.0;"/><polygon fill="#181818" points="3993.43,346.38,3999.1759,338.381,3994.4463,341.4844,3991.3429,336.7548,3993.43,346.38" style="stroke:#181818;stroke-width:1.0;"/><text fill="#000000" font-family="sans-serif" font-size="13" lengthAdjust="spacing" textLength="47" x="4064" y="134.0669">PDF file</text></g><!--link api.panels.panels_endpoints to utils.validation.validate_duplicates--><g id="link_api.panels.panels_endpoints_utils.validation.validate_duplicates"><path codeLine="99" d="M3577,89.31 C3577,144.15 3577,281.19 3577,340.92 " fill="none" id="api.panels.panels_endpoints-to-utils.validation.validate_duplicates" style="stroke:#181818;stroke-width:1.0;"/><polygon fill="#181818" points="3577,346.11,3581,337.11,3577,341.11,3573,337.11,3577,346.11" style="stroke:#181818;stroke-width:1.0;"/><text fill="#000000" font-family="sans-serif" font-size="13" lengthAdjust="spacing" textLength="67" x="3578" y="134.0669">List[Panel]</text></g><!--link api.report.report_endpoints to utils.pht_handler.pht_handler_items--><g id="link_api.report.report_endpoints_utils.pht_handler.pht_handler_items"><path codeLine="100" d="M4432,89.31 C4432,144.15 4432,281.19 4432,340.92 " fill="none" id="api.report.report_endpoints-to-utils.pht_handler.pht_handler_items" style="stroke:#181818;stroke-width:1.0;"/><polygon fill="#181818" points="4432,346.11,4436,337.11,4432,341.11,4428,337.11,4432,346.11" style="stroke:#181818;stroke-width:1.0;"/><text fill="#000000" font-family="sans-serif" font-size="13" lengthAdjust="spacing" textLength="97" x="4433" y="134.0669">ProposalReport</text></g><!--link api.prsls.prsls_endpoints to utils.email_helper.email_helper_items--><g id="link_api.prsls.prsls_endpoints_utils.email_helper.email_helper_items"><path codeLine="101" d="M4108.83,89.31 C4129.65,144.26 4181.75,281.74 4204.31,341.28 " fill="none" id="api.prsls.prsls_endpoints-to-utils.email_helper.email_helper_items" style="stroke:#181818;stroke-width:1.0;"/><polygon fill="#181818" points="4206.14,346.11,4206.689,336.2765,4204.3672,341.4348,4199.2088,339.113,4206.14,346.11" style="stroke:#181818;stroke-width:1.0;"/></g><!--link api.reviewers.reviewers_endpoints to utils.constants--><g id="link_api.reviewers.reviewers_endpoints_utils.constants"><path codeLine="102" d="M1887,89.31 C1887,144.15 1887,281.19 1887,340.92 " fill="none" id="api.reviewers.reviewers_endpoints-to-utils.constants" style="stroke:#181818;stroke-width:1.0;"/><polygon fill="#181818" points="1887,346.11,1891,337.11,1887,341.11,1883,337.11,1887,346.11" style="stroke:#181818;stroke-width:1.0;"/><text fill="#000000" font-family="sans-serif" font-size="13" lengthAdjust="spacing" textLength="72" x="1888" y="134.0669">REVIEWERS</text></g><!--SRC=[dLPDZzem4BtpAwozT5SjoM5lgnMNbbQLMXL1FmvLPPba02_6jcndLn7YlzTnFZ1WWY4NWlBUUFmyyyP6I6G4cWjZn0RbL45cgE23WIJPcYm1tScLkKD48_kBvNg9jeC1ia_tdKXwXvwVfvP8-9B1QDH23c2IS60uXung6_-KWRn7p5_iDtH8mS1pAIWt-X1SFU_HvCVi9qeTOzWoT03tPNmAIxVT6ZJVnP8OrIRT5XhK6TRarrLBxV_jtyx8gEFbqtlPq0NT-kNIQRgj3-IIHZfLy4hXJSSJUhJqPGd8eNIi6XMoluRgZ2fSAdIURhCoOx0xBvf3PWg8WVveMwc459hqI-6WaLKL5TPFyvKmceSJzM7Q2ZI43Q7i4f0kEUJ3Gh6qa4mGAzU2Ck1aSr4nZvgBDtux6HWOE4Vjhni5KYWJLJWrDA9oQk1DPLmt32WTcL63ZaggmTxWDKqRNv6JZZ7f1jgViQtk-gMlPLfeNDDS2dmiokveq1M6zdbDXtFjWrV09AWexNm2fWOsOQjMLbiBSEZxXm2WQjxwCoQwvDaHA7Je_fJ7Ay9p5fcpX-z9sIZ2zKAe3IvavJwuTQnW_aimc5cKhhhDK5FYUMbFAOZ55PWeHKgSCQ9r4FHYAx5RKkDc8BQbsWtbQtJIZtXUP6k8yuuEZHS5TnUhi4wpn-zWLY97zsDUR1w2Y8-2B-ZoZ6p4xYTZrCfsHbaEgjOVQWV5ra63q7gU7G9nRV5OvejuJkljLxASgGSulQVIJBUB5qjNAgYTXJYt-w9PLN6MrPxGQDH7QQifJDYdLjCoU-0s5QDzGtc7XiCXcW9p2UiLbVg3RMvJA8vCAMqoWhEo0ZculLydRlObHrSOYnWXPqh9Vl_9IQRHGRoMJaxQEpfAL_99gFYVqEJJPrHDx7r0rvN9oMsrVtVUqJsXRzR__qwg0F-wiFKqJewdT-n-RQADVbCN8Nh_lfadfyxkvTSCvYGmphruNGdPVKx7lx-E_uodiy5Wzny0]--></g></svg>