<?xml version="1.0" encoding="UTF-8" standalone="no"?><svg xmlns="http://www.w3.org/2000/svg" xmlns:xlink="http://www.w3.org/1999/xlink" contentStyleType="text/css" height="307px" preserveAspectRatio="none" style="width:541px;height:307px;background:#FFFFFF;" version="1.1" viewBox="0 0 541 307" width="541px" zoomAndPan="magnify"><defs/><g><text fill="#000000" font-family="sans-serif" font-size="14" font-weight="bold" lengthAdjust="spacing" textLength="280" x="123.5" y="22.9951">Detailed View: common.osdmapper</text><!--cluster osdmapper--><g id="cluster_osdmapper"><rect fill="none" height="257" rx="2.5" ry="2.5" style="stroke:#181818;stroke-width:1.0;" width="528" x="7" y="44.2969"/><text fill="#000000" font-family="sans-serif" font-size="14" font-weight="bold" lengthAdjust="spacing" textLength="89" x="226.5" y="59.292">osdmapper</text></g><!--class configuration_from_osd--><g id="elem_configuration_from_osd"><rect codeLine="6" fill="#F1F1F1" height="72.5625" id="configuration_from_osd" rx="2.5" ry="2.5" style="stroke:#181818;stroke-width:0.5;" width="193" x="23.5" y="79.2969"/><ellipse cx="38.5" cy="99.4297" fill="#ADD1B2" rx="11" ry="11" style="stroke:#181818;stroke-width:1.0;"/><path d="M41.4688,105.0703 Q40.8906,105.3672 40.25,105.5078 Q39.6094,105.6641 38.9063,105.6641 Q36.4063,105.6641 35.0781,104.0234 Q33.7656,102.3672 33.7656,99.2422 Q33.7656,96.1172 35.0781,94.4609 Q36.4063,92.8047 38.9063,92.8047 Q39.6094,92.8047 40.25,92.9609 Q40.9063,93.1172 41.4688,93.4141 L41.4688,96.1328 Q40.8438,95.5547 40.25,95.2891 Q39.6563,95.0078 39.0313,95.0078 Q37.6875,95.0078 37,96.0859 Q36.3125,97.1484 36.3125,99.2422 Q36.3125,101.3359 37,102.4141 Q37.6875,103.4766 39.0313,103.4766 Q39.6563,103.4766 40.25,103.2109 Q40.8438,102.9297 41.4688,102.3516 L41.4688,105.0703 Z " fill="#000000"/><text fill="#000000" font-family="sans-serif" font-size="12" font-style="italic" lengthAdjust="spacing" textLength="65" x="100.5" y="95.4355">«function»</text><text fill="#000000" font-family="sans-serif" font-size="14" lengthAdjust="spacing" textLength="161" x="52.5" y="111.2607">configuration_from_osd</text><line style="stroke:#181818;stroke-width:0.5;" x1="24.5" x2="215.5" y1="119.5625" y2="119.5625"/><text fill="#000000" font-family="sans-serif" font-size="14" lengthAdjust="spacing" textLength="151" x="29.5" y="136.5576">returns: Configuration</text><line style="stroke:#181818;stroke-width:0.5;" x1="24.5" x2="215.5" y1="143.8594" y2="143.8594"/></g><!--class _get_mid_telescope_configuration--><g id="elem__get_mid_telescope_configuration"><rect codeLine="9" fill="#F1F1F1" height="72.5625" id="_get_mid_telescope_configuration" rx="2.5" ry="2.5" style="stroke:#181818;stroke-width:0.5;" width="267" x="251.5" y="79.2969"/><ellipse cx="266.5" cy="99.4297" fill="#ADD1B2" rx="11" ry="11" style="stroke:#181818;stroke-width:1.0;"/><path d="M269.4688,105.0703 Q268.8906,105.3672 268.25,105.5078 Q267.6094,105.6641 266.9063,105.6641 Q264.4063,105.6641 263.0781,104.0234 Q261.7656,102.3672 261.7656,99.2422 Q261.7656,96.1172 263.0781,94.4609 Q264.4063,92.8047 266.9063,92.8047 Q267.6094,92.8047 268.25,92.9609 Q268.9063,93.1172 269.4688,93.4141 L269.4688,96.1328 Q268.8438,95.5547 268.25,95.2891 Q267.6563,95.0078 267.0313,95.0078 Q265.6875,95.0078 265,96.0859 Q264.3125,97.1484 264.3125,99.2422 Q264.3125,101.3359 265,102.4141 Q265.6875,103.4766 267.0313,103.4766 Q267.6563,103.4766 268.25,103.2109 Q268.8438,102.9297 269.4688,102.3516 L269.4688,105.0703 Z " fill="#000000"/><text fill="#000000" font-family="sans-serif" font-size="12" font-style="italic" lengthAdjust="spacing" textLength="65" x="365.5" y="95.4355">«function»</text><text fill="#000000" font-family="sans-serif" font-size="14" lengthAdjust="spacing" textLength="235" x="280.5" y="111.2607">_get_mid_telescope_configuration</text><line style="stroke:#181818;stroke-width:0.5;" x1="252.5" x2="517.5" y1="119.5625" y2="119.5625"/><text fill="#000000" font-family="sans-serif" font-size="14" lengthAdjust="spacing" textLength="175" x="257.5" y="136.5576">returns: MidConfiguration</text><line style="stroke:#181818;stroke-width:0.5;" x1="252.5" x2="517.5" y1="143.8594" y2="143.8594"/></g><!--class _get_low_telescope_configuration--><g id="elem__get_low_telescope_configuration"><rect codeLine="12" fill="#F1F1F1" height="72.5625" id="_get_low_telescope_configuration" rx="2.5" ry="2.5" style="stroke:#181818;stroke-width:0.5;" width="265" x="23.5" y="212.2969"/><ellipse cx="38.5" cy="232.4297" fill="#ADD1B2" rx="11" ry="11" style="stroke:#181818;stroke-width:1.0;"/><path d="M41.4688,238.0703 Q40.8906,238.3672 40.25,238.5078 Q39.6094,238.6641 38.9063,238.6641 Q36.4063,238.6641 35.0781,237.0234 Q33.7656,235.3672 33.7656,232.2422 Q33.7656,229.1172 35.0781,227.4609 Q36.4063,225.8047 38.9063,225.8047 Q39.6094,225.8047 40.25,225.9609 Q40.9063,226.1172 41.4688,226.4141 L41.4688,229.1328 Q40.8438,228.5547 40.25,228.2891 Q39.6563,228.0078 39.0313,228.0078 Q37.6875,228.0078 37,229.0859 Q36.3125,230.1484 36.3125,232.2422 Q36.3125,234.3359 37,235.4141 Q37.6875,236.4766 39.0313,236.4766 Q39.6563,236.4766 40.25,236.2109 Q40.8438,235.9297 41.4688,235.3516 L41.4688,238.0703 Z " fill="#000000"/><text fill="#000000" font-family="sans-serif" font-size="12" font-style="italic" lengthAdjust="spacing" textLength="65" x="136.5" y="228.4355">«function»</text><text fill="#000000" font-family="sans-serif" font-size="14" lengthAdjust="spacing" textLength="233" x="52.5" y="244.2607">_get_low_telescope_configuration</text><line style="stroke:#181818;stroke-width:0.5;" x1="24.5" x2="287.5" y1="252.5625" y2="252.5625"/><text fill="#000000" font-family="sans-serif" font-size="14" lengthAdjust="spacing" textLength="178" x="29.5" y="269.5576">returns: LowConfiguration</text><line style="stroke:#181818;stroke-width:0.5;" x1="24.5" x2="287.5" y1="276.8594" y2="276.8594"/></g><!--SRC=[dOsn2i8m54NtVCMZ7-07bD95HrqSN4DCNaCmoGl9Ansa_sxQeLGG5EzwxpcN7Nk44x9o7WtS74ujQ0g1ue6A2Iebp48m9M22Ep5J0ECoQdOKXKXAFvH5QBPn0rrthRMArcFVmrD0ZVQgb2gEWxDZLWiiXqn1Lgu2mnXNuRPVaf7774iBnpssrlDEAYso3Cv8Hez5KqBvzlDLVt7cXmTFqzyFPve-FSpY1G00]--></g></svg>