<svg xmlns="http://www.w3.org/2000/svg" xmlns:xlink="http://www.w3.org/1999/xlink" contentStyleType="text/css" data-diagram-type="CLASS" height="1070px" preserveAspectRatio="none" style="width:3568px;height:1070px;background:#FFFFFF;" version="1.1" viewBox="0 0 3568 1070" width="3568px" zoomAndPan="magnify"><defs/><g><!--cluster common_pkg--><g class="cluster" data-entity="common_pkg" data-source-line="3" data-uid="ent0002" id="cluster_common_pkg"><path d="M1613.5,146.27 L1681.1777,146.27 A3.75,3.75 0 0 1 1683.6777,148.77 L1690.6777,168.5669 L3443.5,168.5669 A2.5,2.5 0 0 1 3446,171.0669 L3446,469.04 A2.5,2.5 0 0 1 3443.5,471.54 L1613.5,471.54 A2.5,2.5 0 0 1 1611,469.04 L1611,148.77 A2.5,2.5 0 0 1 1613.5,146.27" fill="none" style="stroke:#000000;stroke-width:1.5;"/><line style="stroke:#000000;stroke-width:1.5;" x1="1611" x2="1690.6777" y1="168.5669" y2="168.5669"/><text fill="#000000" font-family="sans-serif" font-size="14" font-weight="bold" lengthAdjust="spacing" textLength="66.6777" x="1615" y="161.2651">common</text></g><!--cluster api--><g class="cluster" data-entity="api" data-source-line="15" data-uid="ent0007" id="cluster_api"><path d="M1645.5,203.16 L1670.7676,203.16 A3.75,3.75 0 0 1 1673.2676,205.66 L1680.2676,225.4569 L1988.5,225.4569 A2.5,2.5 0 0 1 1991,227.9569 L1991,412.14 A2.5,2.5 0 0 1 1988.5,414.64 L1645.5,414.64 A2.5,2.5 0 0 1 1643,412.14 L1643,205.66 A2.5,2.5 0 0 1 1645.5,203.16" fill="none" style="stroke:#000000;stroke-width:1.5;"/><line style="stroke:#000000;stroke-width:1.5;" x1="1643" x2="1680.2676" y1="225.4569" y2="225.4569"/><text fill="#000000" font-family="sans-serif" font-size="14" font-weight="bold" lengthAdjust="spacing" textLength="24.2676" x="1647" y="218.1551">api</text></g><!--cluster coordinates--><g class="cluster" data-entity="coordinates" data-source-line="5" data-uid="ent0003" id="cluster_coordinates"><rect fill="none" height="144.48" rx="2.5" ry="2.5" style="stroke:#181818;stroke-width:1;" width="300" x="1667" y="246.16"/><text fill="#000000" font-family="sans-serif" font-size="14" font-weight="bold" lengthAdjust="spacing" textLength="93.1943" x="1770.4028" y="261.1551">coordinates</text></g><!--cluster auth--><g class="cluster" data-entity="auth" data-source-line="14" data-uid="ent0005" id="cluster_auth"><rect fill="none" height="99" rx="2.5" ry="2.5" style="stroke:#181818;stroke-width:1;" width="106" x="2015" y="268.9"/><text fill="#000000" font-family="sans-serif" font-size="14" font-weight="bold" lengthAdjust="spacing" textLength="36.0732" x="2049.9634" y="283.8951">auth</text></g><!--cluster coordinateslookup--><g class="cluster" data-entity="coordinateslookup" data-source-line="21" data-uid="ent0009" id="cluster_coordinateslookup"><rect fill="none" height="177.08" rx="2.5" ry="2.5" style="stroke:#181818;stroke-width:1;" width="222" x="2145" y="229.86"/><text fill="#000000" font-family="sans-serif" font-size="14" font-weight="bold" lengthAdjust="spacing" textLength="146.5283" x="2182.7358" y="244.8551">coordinateslookup</text></g><!--cluster error_handling--><g class="cluster" data-entity="error_handling" data-source-line="32" data-uid="ent0011" id="cluster_error_handling"><rect fill="none" height="242.27" rx="2.5" ry="2.5" style="stroke:#181818;stroke-width:1;" width="316" x="2391" y="197.27"/><text fill="#000000" font-family="sans-serif" font-size="14" font-weight="bold" lengthAdjust="spacing" textLength="115.8145" x="2491.0928" y="212.2651">error_handling</text></g><!--cluster model--><g class="cluster" data-entity="model" data-source-line="47" data-uid="ent0013" id="cluster_model"><rect fill="none" height="144.48" rx="2.5" ry="2.5" style="stroke:#181818;stroke-width:1;" width="234" x="2731" y="246.16"/><text fill="#000000" font-family="sans-serif" font-size="14" font-weight="bold" lengthAdjust="spacing" textLength="48.5215" x="2823.7393" y="261.1551">model</text></g><!--cluster osdmapper--><g class="cluster" data-entity="osdmapper" data-source-line="56" data-uid="ent0015" id="cluster_osdmapper"><rect fill="none" height="209.67" rx="2.5" ry="2.5" style="stroke:#181818;stroke-width:1;" width="306" x="2989" y="213.57"/><text fill="#000000" font-family="sans-serif" font-size="14" font-weight="bold" lengthAdjust="spacing" textLength="88.4502" x="3097.7749" y="228.5651">osdmapper</text></g><!--cluster odt_pkg--><g class="cluster" data-entity="odt_pkg" data-source-line="70" data-uid="ent0017" id="cluster_odt_pkg"><path d="M3070.5,511.54 L3097.832,511.54 A3.75,3.75 0 0 1 3100.332,514.04 L3107.332,533.8369 L3470.5,533.8369 A2.5,2.5 0 0 1 3473,536.3369 L3473,612.33 A2.5,2.5 0 0 1 3470.5,614.83 L3070.5,614.83 A2.5,2.5 0 0 1 3068,612.33 L3068,514.04 A2.5,2.5 0 0 1 3070.5,511.54" fill="none" style="stroke:#000000;stroke-width:1.5;"/><line style="stroke:#000000;stroke-width:1.5;" x1="3068" x2="3107.332" y1="533.8369" y2="533.8369"/><text fill="#000000" font-family="sans-serif" font-size="14" font-weight="bold" lengthAdjust="spacing" textLength="26.332" x="3072" y="526.5351">odt</text></g><!--cluster pht_pkg--><g class="cluster" data-entity="pht_pkg" data-source-line="79" data-uid="ent0020" id="cluster_pht_pkg"><path d="M8.5,654.83 L36.1807,654.83 A3.75,3.75 0 0 1 38.6807,657.33 L45.6807,677.1269 L3470.5,677.1269 A2.5,2.5 0 0 1 3473,679.6269 L3473,1061.34 A2.5,2.5 0 0 1 3470.5,1063.84 L8.5,1063.84 A2.5,2.5 0 0 1 6,1061.34 L6,657.33 A2.5,2.5 0 0 1 8.5,654.83" fill="none" style="stroke:#000000;stroke-width:1.5;"/><line style="stroke:#000000;stroke-width:1.5;" x1="6" x2="45.6807" y1="677.1269" y2="677.1269"/><text fill="#000000" font-family="sans-serif" font-size="14" font-weight="bold" lengthAdjust="spacing" textLength="26.6807" x="10" y="669.8251">pht</text></g><!--cluster api--><g class="cluster" data-entity="api" data-source-line="80" data-uid="ent0021" id="cluster_api"><rect fill="none" height="309.27" rx="2.5" ry="2.5" style="stroke:#181818;stroke-width:1;" width="1846" x="38" y="705.83"/><text fill="#000000" font-family="sans-serif" font-size="14" font-weight="bold" lengthAdjust="spacing" textLength="24.2676" x="948.8662" y="720.8251">api</text></g><!--cluster panel_decision--><g class="cluster" data-entity="panel_decision" data-source-line="81" data-uid="ent0022" id="cluster_panel_decision"><rect fill="none" height="144.49" rx="2.5" ry="2.5" style="stroke:#181818;stroke-width:1;" width="342" x="62" y="797.72"/><text fill="#000000" font-family="sans-serif" font-size="14" font-weight="bold" lengthAdjust="spacing" textLength="116.0605" x="174.9697" y="812.7151">panel_decision</text></g><!--cluster panels--><g class="cluster" data-entity="panels" data-source-line="89" data-uid="ent0024" id="cluster_panels"><rect fill="none" height="144.49" rx="2.5" ry="2.5" style="stroke:#181818;stroke-width:1;" width="294" x="428" y="797.72"/><text fill="#000000" font-family="sans-serif" font-size="14" font-weight="bold" lengthAdjust="spacing" textLength="52.0625" x="548.9688" y="812.7151">panels</text></g><!--cluster prsls--><g class="cluster" data-entity="prsls" data-source-line="97" data-uid="ent0026" id="cluster_prsls"><rect fill="none" height="242.27" rx="2.5" ry="2.5" style="stroke:#181818;stroke-width:1;" width="312" x="746" y="748.83"/><text fill="#000000" font-family="sans-serif" font-size="14" font-weight="bold" lengthAdjust="spacing" textLength="38.3906" x="882.8047" y="763.8251">prsls</text></g><!--cluster report--><g class="cluster" data-entity="report" data-source-line="111" data-uid="ent0028" id="cluster_report"><rect fill="none" height="95.59" rx="2.5" ry="2.5" style="stroke:#181818;stroke-width:1;" width="210" x="1082" y="822.17"/><text fill="#000000" font-family="sans-serif" font-size="14" font-weight="bold" lengthAdjust="spacing" textLength="49.6357" x="1162.1821" y="837.1651">report</text></g><!--cluster reviewers--><g class="cluster" data-entity="reviewers" data-source-line="116" data-uid="ent0030" id="cluster_reviewers"><rect fill="none" height="95.59" rx="2.5" ry="2.5" style="stroke:#181818;stroke-width:1;" width="236" x="1316" y="822.17"/><text fill="#000000" font-family="sans-serif" font-size="14" font-weight="bold" lengthAdjust="spacing" textLength="77.4854" x="1395.2573" y="837.1651">reviewers</text></g><!--cluster reviews--><g class="cluster" data-entity="reviews" data-source-line="121" data-uid="ent0032" id="cluster_reviews"><rect fill="none" height="144.49" rx="2.5" ry="2.5" style="stroke:#181818;stroke-width:1;" width="284" x="1576" y="797.72"/><text fill="#000000" font-family="sans-serif" font-size="14" font-weight="bold" lengthAdjust="spacing" textLength="61.0859" x="1687.457" y="812.7151">reviews</text></g><!--cluster utils--><g class="cluster" data-entity="utils" data-source-line="194" data-uid="ent0051" id="cluster_utils"><path d="M1910.5,730.28 L1946.0898,730.28 A3.75,3.75 0 0 1 1948.5898,732.78 L1955.5898,752.5769 L3198.5,752.5769 A2.5,2.5 0 0 1 3201,755.0769 L3201,988.15 A2.5,2.5 0 0 1 3198.5,990.65 L1910.5,990.65 A2.5,2.5 0 0 1 1908,988.15 L1908,732.78 A2.5,2.5 0 0 1 1910.5,730.28" fill="none" style="stroke:#000000;stroke-width:1.5;"/><line style="stroke:#000000;stroke-width:1.5;" x1="1908" x2="1955.5898" y1="752.5769" y2="752.5769"/><text fill="#000000" font-family="sans-serif" font-size="14" font-weight="bold" lengthAdjust="spacing" textLength="34.5898" x="1912" y="745.2751">utils</text></g><!--cluster email_helper--><g class="cluster" data-entity="email_helper" data-source-line="134" data-uid="ent0035" id="cluster_email_helper"><rect fill="none" height="111.89" rx="2.5" ry="2.5" style="stroke:#181818;stroke-width:1;" width="196" x="1932" y="814.02"/><text fill="#000000" font-family="sans-serif" font-size="14" font-weight="bold" lengthAdjust="spacing" textLength="100.8096" x="1979.5952" y="829.0151">email_helper</text></g><!--cluster pht_handler--><g class="cluster" data-entity="pht_handler" data-source-line="140" data-uid="ent0037" id="cluster_pht_handler"><rect fill="none" height="144.49" rx="2.5" ry="2.5" style="stroke:#181818;stroke-width:1;" width="354" x="2152" y="797.72"/><text fill="#000000" font-family="sans-serif" font-size="14" font-weight="bold" lengthAdjust="spacing" textLength="94.2813" x="2281.8594" y="812.7151">pht_handler</text></g><!--cluster s3_bucket--><g class="cluster" data-entity="s3_bucket" data-source-line="148" data-uid="ent0039" id="cluster_s3_bucket"><rect fill="none" height="193.37" rx="2.5" ry="2.5" style="stroke:#181818;stroke-width:1;" width="320" x="2530" y="773.28"/><text fill="#000000" font-family="sans-serif" font-size="14" font-weight="bold" lengthAdjust="spacing" textLength="78.8594" x="2650.5703" y="788.2751">s3_bucket</text></g><!--cluster validation--><g class="cluster" data-entity="validation" data-source-line="159" data-uid="ent0041" id="cluster_validation"><rect fill="none" height="111.89" rx="2.5" ry="2.5" style="stroke:#181818;stroke-width:1;" width="204" x="2874" y="814.02"/><text fill="#000000" font-family="sans-serif" font-size="14" font-weight="bold" lengthAdjust="spacing" textLength="78.7158" x="2936.6421" y="829.0151">validation</text></g><!--cluster model--><g class="cluster" data-entity="model" data-source-line="167" data-uid="ent0043" id="cluster_model"><rect fill="none" height="323.75" rx="2.5" ry="2.5" style="stroke:#181818;stroke-width:1;" width="208" x="3225" y="708.09"/><text fill="#000000" font-family="sans-serif" font-size="14" font-weight="bold" lengthAdjust="spacing" textLength="48.5215" x="3304.7393" y="723.0851">model</text></g><!--cluster app--><g class="cluster" data-entity="app" data-source-line="193" data-uid="ent0049" id="cluster_app"><rect fill="none" height="107.27" rx="2.5" ry="2.5" style="stroke:#181818;stroke-width:1;" width="142" x="3420" y="7"/><text fill="#000000" font-family="sans-serif" font-size="14" font-weight="bold" lengthAdjust="spacing" textLength="29.4902" x="3476.2549" y="21.9951">app</text></g><g class="entity" data-entity="coordinates_items" data-source-line="6" data-uid="ent0004" id="entity_coordinates_items"><rect fill="#F1F1F1" height="93.4844" rx="2.5" ry="2.5" style="stroke:#181818;stroke-width:0.5;" width="268.0195" x="1682.99" y="281.16"/><text fill="#000000" font-family="sans-serif" font-size="14" lengthAdjust="spacing" textLength="128.1328" x="1752.9334" y="296.1551">coordinates_items</text><line style="stroke:#181818;stroke-width:0.5;" x1="1683.99" x2="1950.0095" y1="301.4569" y2="301.4569"/><ellipse cx="1693.99" cy="315.1053" fill="none" rx="3" ry="3" style="stroke:#038048;stroke-width:1;"/><text fill="#000000" font-family="sans-serif" font-size="14" lengthAdjust="spacing" textLength="116.0742" x="1702.99" y="318.452">ReferenceFrame</text><ellipse cx="1693.99" cy="331.4022" fill="none" rx="3" ry="3" style="stroke:#038048;stroke-width:1;"/><text fill="#000000" font-family="sans-serif" font-size="14" lengthAdjust="spacing" textLength="139.2207" x="1702.99" y="334.7489">EquatorialResponse</text><ellipse cx="1693.99" cy="347.6991" fill="none" rx="3" ry="3" style="stroke:#038048;stroke-width:1;"/><text fill="#000000" font-family="sans-serif" font-size="14" lengthAdjust="spacing" textLength="124.5371" x="1702.99" y="351.0457">GalacticResponse</text><ellipse cx="1693.99" cy="363.9959" fill="none" rx="3" ry="3" style="stroke:#038048;stroke-width:1;"/><text fill="#000000" font-family="sans-serif" font-size="14" lengthAdjust="spacing" textLength="242.0195" x="1702.99" y="367.3426">get_systemcoordinates&#171;endpoint&#187;</text></g><!--class Scope--><g class="entity" data-entity="Scope" data-source-line="15" data-uid="ent0006" id="entity_Scope"><rect fill="#F1F1F1" height="48" rx="2.5" ry="2.5" style="stroke:#181818;stroke-width:0.5;" width="74.6494" x="2030.68" y="303.9"/><ellipse cx="2045.68" cy="319.9" fill="#ADD1B2" rx="11" ry="11" style="stroke:#181818;stroke-width:1;"/><path d="M2048.6488,325.5406 Q2048.0706,325.8375 2047.43,325.9781 Q2046.7894,326.1344 2046.0862,326.1344 Q2043.5862,326.1344 2042.2581,324.4937 Q2040.9456,322.8375 2040.9456,319.7125 Q2040.9456,316.5875 2042.2581,314.9312 Q2043.5862,313.275 2046.0862,313.275 Q2046.7894,313.275 2047.43,313.4312 Q2048.0863,313.5875 2048.6488,313.8844 L2048.6488,316.6031 Q2048.0238,316.025 2047.43,315.7594 Q2046.8362,315.4781 2046.2112,315.4781 Q2044.8675,315.4781 2044.18,316.5562 Q2043.4925,317.6187 2043.4925,319.7125 Q2043.4925,321.8062 2044.18,322.8844 Q2044.8675,323.9469 2046.2112,323.9469 Q2046.8362,323.9469 2047.43,323.6812 Q2048.0238,323.4 2048.6488,322.8219 L2048.6488,325.5406 Z " fill="#000000"/><text fill="#000000" font-family="sans-serif" font-size="14" lengthAdjust="spacing" textLength="42.6494" x="2059.68" y="324.7467">Scope</text><line style="stroke:#181818;stroke-width:0.5;" x1="2031.68" x2="2104.3294" y1="335.9" y2="335.9"/><line style="stroke:#181818;stroke-width:0.5;" x1="2031.68" x2="2104.3294" y1="343.9" y2="343.9"/></g><!--entity constants--><g class="entity" data-entity="constants" data-source-line="18" data-uid="ent0008" id="entity_constants"><rect fill="#F1F1F1" height="36.2969" rx="2.5" ry="2.5" style="stroke:#181818;stroke-width:0.5;" width="88.1543" x="3314.92" y="309.75"/><text fill="#000000" font-family="sans-serif" font-size="14" lengthAdjust="spacing" textLength="68.1543" x="3324.92" y="332.7451">constants</text></g><g class="entity" data-entity="coordinateslookup_items" data-source-line="22" data-uid="ent0010" id="entity_coordinateslookup_items"><rect fill="#F1F1F1" height="126.0781" rx="2.5" ry="2.5" style="stroke:#181818;stroke-width:0.5;" width="189.0205" x="2161.49" y="264.86"/><text fill="#000000" font-family="sans-serif" font-size="14" lengthAdjust="spacing" textLength="175.0205" x="2168.49" y="279.8551">coordinateslookup_items</text><line style="stroke:#181818;stroke-width:0.5;" x1="2162.49" x2="2349.5105" y1="285.1569" y2="285.1569"/><ellipse cx="2172.49" cy="298.8053" fill="none" rx="3" ry="3" style="stroke:#038048;stroke-width:1;"/><text fill="#000000" font-family="sans-serif" font-size="14" lengthAdjust="spacing" textLength="71.3535" x="2181.49" y="302.152">Equatorial</text><ellipse cx="2172.49" cy="315.1022" fill="none" rx="3" ry="3" style="stroke:#038048;stroke-width:1;"/><text fill="#000000" font-family="sans-serif" font-size="14" lengthAdjust="spacing" textLength="56.6699" x="2181.49" y="318.4489">Galactic</text><ellipse cx="2172.49" cy="331.3991" fill="#84BE84" rx="3" ry="3" style="stroke:#038048;stroke-width:1;"/><text fill="#000000" font-family="sans-serif" font-size="14" lengthAdjust="spacing" textLength="98.3486" x="2181.49" y="334.7457">round_coord()</text><ellipse cx="2172.49" cy="347.6959" fill="#84BE84" rx="3" ry="3" style="stroke:#038048;stroke-width:1;"/><text fill="#000000" font-family="sans-serif" font-size="14" lengthAdjust="spacing" textLength="151.1221" x="2181.49" y="351.0426">convert_ra_dec_deg()</text><ellipse cx="2172.49" cy="363.9928" fill="#84BE84" rx="3" ry="3" style="stroke:#038048;stroke-width:1;"/><text fill="#000000" font-family="sans-serif" font-size="14" lengthAdjust="spacing" textLength="146.9658" x="2181.49" y="367.3395">convert_to_galactic()</text><ellipse cx="2172.49" cy="380.2897" fill="#84BE84" rx="3" ry="3" style="stroke:#038048;stroke-width:1;"/><text fill="#000000" font-family="sans-serif" font-size="14" lengthAdjust="spacing" textLength="123.1221" x="2181.49" y="383.6364">get_coordinates()</text></g><g class="entity" data-entity="error_handling_items" data-source-line="33" data-uid="ent0012" id="entity_error_handling_items"><rect fill="#F1F1F1" height="191.2656" rx="2.5" ry="2.5" style="stroke:#181818;stroke-width:0.5;" width="284.002" x="2407" y="232.27"/><text fill="#000000" font-family="sans-serif" font-size="14" lengthAdjust="spacing" textLength="148.1211" x="2474.9404" y="247.2651">error_handling_items</text><line style="stroke:#181818;stroke-width:0.5;" x1="2408" x2="2690.002" y1="252.5669" y2="252.5669"/><ellipse cx="2418" cy="266.2153" fill="#84BE84" rx="3" ry="3" style="stroke:#038048;stroke-width:1;"/><text fill="#000000" font-family="sans-serif" font-size="14" lengthAdjust="spacing" textLength="99.0117" x="2427" y="269.562">error_details()</text><ellipse cx="2418" cy="282.5122" fill="none" rx="3" ry="3" style="stroke:#038048;stroke-width:1;"/><text fill="#000000" font-family="sans-serif" font-size="14" lengthAdjust="spacing" textLength="119.2461" x="2427" y="285.8589">BadRequestError</text><ellipse cx="2418" cy="298.8091" fill="none" rx="3" ry="3" style="stroke:#038048;stroke-width:1;"/><text fill="#000000" font-family="sans-serif" font-size="14" lengthAdjust="spacing" textLength="101.377" x="2427" y="302.1557">DuplicateError</text><ellipse cx="2418" cy="315.1059" fill="none" rx="3" ry="3" style="stroke:#038048;stroke-width:1;"/><text fill="#000000" font-family="sans-serif" font-size="14" lengthAdjust="spacing" textLength="178.7461" x="2427" y="318.4526">UnprocessableEntityError</text><ellipse cx="2418" cy="331.4028" fill="none" rx="3" ry="3" style="stroke:#038048;stroke-width:1;"/><text fill="#000000" font-family="sans-serif" font-size="14" lengthAdjust="spacing" textLength="102.457" x="2427" y="334.7495">NotFoundError</text><ellipse cx="2418" cy="347.6997" fill="#84BE84" rx="3" ry="3" style="stroke:#038048;stroke-width:1;"/><text fill="#000000" font-family="sans-serif" font-size="14" lengthAdjust="spacing" textLength="127.7568" x="2427" y="351.0464">_make_response()</text><ellipse cx="2418" cy="363.9966" fill="#84BE84" rx="3" ry="3" style="stroke:#038048;stroke-width:1;"/><text fill="#000000" font-family="sans-serif" font-size="14" lengthAdjust="spacing" textLength="174.4805" x="2427" y="367.3432">oda_not_found_handler()</text><ellipse cx="2418" cy="380.2934" fill="#84BE84" rx="3" ry="3" style="stroke:#038048;stroke-width:1;"/><text fill="#000000" font-family="sans-serif" font-size="14" lengthAdjust="spacing" textLength="138.8721" x="2427" y="383.6401">oda_error_handler()</text><ellipse cx="2418" cy="396.5903" fill="#84BE84" rx="3" ry="3" style="stroke:#038048;stroke-width:1;"/><text fill="#000000" font-family="sans-serif" font-size="14" lengthAdjust="spacing" textLength="229.9404" x="2427" y="399.937">oda_unique_constraint_handler()</text><ellipse cx="2418" cy="412.8872" fill="#84BE84" rx="3" ry="3" style="stroke:#038048;stroke-width:1;"/><text fill="#000000" font-family="sans-serif" font-size="14" lengthAdjust="spacing" textLength="258.002" x="2427" y="416.2339">dangerous_internal_server_handler()</text></g><g class="entity" data-entity="model_items" data-source-line="48" data-uid="ent0014" id="entity_model_items"><rect fill="#F1F1F1" height="93.4844" rx="2.5" ry="2.5" style="stroke:#181818;stroke-width:0.5;" width="201.0137" x="2747.49" y="281.16"/><text fill="#000000" font-family="sans-serif" font-size="14" lengthAdjust="spacing" textLength="89.5166" x="2803.2385" y="296.1551">model_items</text><line style="stroke:#181818;stroke-width:0.5;" x1="2748.49" x2="2947.5037" y1="301.4569" y2="301.4569"/><ellipse cx="2758.49" cy="315.1053" fill="none" rx="3" ry="3" style="stroke:#038048;stroke-width:1;"/><text fill="#000000" font-family="sans-serif" font-size="14" lengthAdjust="spacing" textLength="69.3848" x="2767.49" y="318.452">AppModel</text><ellipse cx="2758.49" cy="331.4022" fill="none" rx="3" ry="3" style="stroke:#038048;stroke-width:1;"/><text fill="#000000" font-family="sans-serif" font-size="14" lengthAdjust="spacing" textLength="138.0859" x="2767.49" y="334.7489">ValidationResponse</text><ellipse cx="2758.49" cy="347.6991" fill="none" rx="3" ry="3" style="stroke:#038048;stroke-width:1;"/><text fill="#000000" font-family="sans-serif" font-size="14" lengthAdjust="spacing" textLength="175.0137" x="2767.49" y="351.0457">ErrorResponseTraceback</text><ellipse cx="2758.49" cy="363.9959" fill="none" rx="3" ry="3" style="stroke:#038048;stroke-width:1;"/><text fill="#000000" font-family="sans-serif" font-size="14" lengthAdjust="spacing" textLength="83.2139" x="2767.49" y="367.3426">ErrorDetails</text></g><g class="entity" data-entity="osdmapper_items" data-source-line="57" data-uid="ent0016" id="entity_osdmapper_items"><rect fill="#F1F1F1" height="158.6719" rx="2.5" ry="2.5" style="stroke:#181818;stroke-width:0.5;" width="274.8555" x="3004.57" y="248.57"/><text fill="#000000" font-family="sans-serif" font-size="14" lengthAdjust="spacing" textLength="125.0293" x="3079.4831" y="263.5651">osdmapper_items</text><line style="stroke:#181818;stroke-width:0.5;" x1="3005.57" x2="3278.4255" y1="268.8669" y2="268.8669"/><ellipse cx="3015.57" cy="282.5153" fill="none" rx="3" ry="3" style="stroke:#038048;stroke-width:1;"/><text fill="#000000" font-family="sans-serif" font-size="14" lengthAdjust="spacing" textLength="109.5938" x="3024.57" y="285.862">FrequencyBand</text><ellipse cx="3015.57" cy="298.8122" fill="none" rx="3" ry="3" style="stroke:#038048;stroke-width:1;"/><text fill="#000000" font-family="sans-serif" font-size="14" lengthAdjust="spacing" textLength="63.6016" x="3024.57" y="302.1589">Subarray</text><ellipse cx="3015.57" cy="315.1091" fill="none" rx="3" ry="3" style="stroke:#038048;stroke-width:1;"/><text fill="#000000" font-family="sans-serif" font-size="14" lengthAdjust="spacing" textLength="119.7998" x="3024.57" y="318.4557">MidConfiguration</text><ellipse cx="3015.57" cy="331.4059" fill="none" rx="3" ry="3" style="stroke:#038048;stroke-width:1;"/><text fill="#000000" font-family="sans-serif" font-size="14" lengthAdjust="spacing" textLength="122.7598" x="3024.57" y="334.7526">LowConfiguration</text><ellipse cx="3015.57" cy="347.7028" fill="none" rx="3" ry="3" style="stroke:#038048;stroke-width:1;"/><text fill="#000000" font-family="sans-serif" font-size="14" lengthAdjust="spacing" textLength="94.9443" x="3024.57" y="351.0495">Configuration</text><ellipse cx="3015.57" cy="363.9997" fill="#84BE84" rx="3" ry="3" style="stroke:#038048;stroke-width:1;"/><text fill="#000000" font-family="sans-serif" font-size="14" lengthAdjust="spacing" textLength="175.4238" x="3024.57" y="367.3464">configuration_from_osd()</text><ellipse cx="3015.57" cy="380.2966" fill="#84BE84" rx="3" ry="3" style="stroke:#038048;stroke-width:1;"/><text fill="#000000" font-family="sans-serif" font-size="14" lengthAdjust="spacing" textLength="248.8555" x="3024.57" y="383.6432">_get_mid_telescope_configuration()</text><ellipse cx="3015.57" cy="396.5934" fill="#84BE84" rx="3" ry="3" style="stroke:#038048;stroke-width:1;"/><text fill="#000000" font-family="sans-serif" font-size="14" lengthAdjust="spacing" textLength="246.3467" x="3024.57" y="399.9401">_get_low_telescope_configuration()</text></g><g class="entity" data-entity="odt_note" data-source-line="72" data-uid="ent0018" id="entity_odt_note"><path d="M3092.2,560.12 L3092.2,585.2528 L3353.8079,585.2528 L3353.8079,570.12 L3343.8079,560.12 L3092.2,560.12" fill="#FEFFDD" style="stroke:#181818;stroke-width:0.5;"/><path d="M3343.8079,560.12 L3343.8079,570.12 L3353.8079,570.12 L3343.8079,560.12" fill="#FEFFDD" style="stroke:#181818;stroke-width:1;"/><text fill="#000000" font-family="sans-serif" font-size="13" lengthAdjust="spacing" textLength="240.6079" x="3098.2" y="577.1869">"ODT section minimized in this view"</text></g><!--entity api--><g class="entity" data-entity="api" data-source-line="74" data-uid="ent0019" id="entity_api"><rect fill="#F1F1F1" height="36.2969" rx="2.5" ry="2.5" style="stroke:#181818;stroke-width:0.5;" width="41.3555" x="3388.32" y="554.54"/><text fill="#000000" font-family="sans-serif" font-size="14" lengthAdjust="spacing" textLength="21.3555" x="3398.32" y="577.5351">api</text></g><g class="entity" data-entity="panel_decision_endpoints" data-source-line="82" data-uid="ent0023" id="entity_panel_decision_endpoints"><rect fill="#F1F1F1" height="93.4844" rx="2.5" ry="2.5" style="stroke:#181818;stroke-width:0.5;" width="309.8281" x="78.09" y="832.72"/><text fill="#000000" font-family="sans-serif" font-size="14" lengthAdjust="spacing" textLength="179.9219" x="143.0431" y="847.7151">panel_decision_endpoints</text><line style="stroke:#181818;stroke-width:0.5;" x1="79.09" x2="386.9181" y1="853.0169" y2="853.0169"/><ellipse cx="89.09" cy="866.6653" fill="none" rx="3" ry="3" style="stroke:#038048;stroke-width:1;"/><text fill="#000000" font-family="sans-serif" font-size="14" lengthAdjust="spacing" textLength="234.5068" x="98.09" y="870.012">create_panel_decision&#171;endpoint&#187;</text><ellipse cx="89.09" cy="882.9622" fill="none" rx="3" ry="3" style="stroke:#038048;stroke-width:1;"/><text fill="#000000" font-family="sans-serif" font-size="14" lengthAdjust="spacing" textLength="212.748" x="98.09" y="886.3089">get_panel_decision&#171;endpoint&#187;</text><ellipse cx="89.09" cy="899.2591" fill="none" rx="3" ry="3" style="stroke:#038048;stroke-width:1;"/><text fill="#000000" font-family="sans-serif" font-size="14" lengthAdjust="spacing" textLength="283.8281" x="98.09" y="902.6057">get_panel_decisions_for_user&#171;endpoint&#187;</text><ellipse cx="89.09" cy="915.5559" fill="none" rx="3" ry="3" style="stroke:#038048;stroke-width:1;"/><text fill="#000000" font-family="sans-serif" font-size="14" lengthAdjust="spacing" textLength="239.0869" x="98.09" y="918.9026">update_panel_decision&#171;endpoint&#187;</text></g><g class="entity" data-entity="panels_endpoints" data-source-line="90" data-uid="ent0025" id="entity_panels_endpoints"><rect fill="#F1F1F1" height="93.4844" rx="2.5" ry="2.5" style="stroke:#181818;stroke-width:0.5;" width="261.1904" x="444.4" y="832.72"/><text fill="#000000" font-family="sans-serif" font-size="14" lengthAdjust="spacing" textLength="122.5068" x="513.7418" y="847.7151">panels_endpoints</text><line style="stroke:#181818;stroke-width:0.5;" x1="445.4" x2="704.5904" y1="853.0169" y2="853.0169"/><ellipse cx="455.4" cy="866.6653" fill="none" rx="3" ry="3" style="stroke:#038048;stroke-width:1;"/><text fill="#000000" font-family="sans-serif" font-size="14" lengthAdjust="spacing" textLength="169.7979" x="464.4" y="870.012">create_panel&#171;endpoint&#187;</text><ellipse cx="455.4" cy="882.9622" fill="none" rx="3" ry="3" style="stroke:#038048;stroke-width:1;"/><text fill="#000000" font-family="sans-serif" font-size="14" lengthAdjust="spacing" textLength="148.0391" x="464.4" y="886.3089">get_panel&#171;endpoint&#187;</text><ellipse cx="455.4" cy="899.2591" fill="none" rx="3" ry="3" style="stroke:#038048;stroke-width:1;"/><text fill="#000000" font-family="sans-serif" font-size="14" lengthAdjust="spacing" textLength="235.1904" x="464.4" y="902.6057">get_reviews_for_panel&#171;endpoint&#187;</text><ellipse cx="455.4" cy="915.5559" fill="none" rx="3" ry="3" style="stroke:#038048;stroke-width:1;"/><text fill="#000000" font-family="sans-serif" font-size="14" lengthAdjust="spacing" textLength="219.1191" x="464.4" y="918.9026">get_panels_for_user&#171;endpoint&#187;</text></g><g class="entity" data-entity="prsls_endpoints" data-source-line="98" data-uid="ent0027" id="entity_prsls_endpoints"><rect fill="#F1F1F1" height="191.2656" rx="2.5" ry="2.5" style="stroke:#181818;stroke-width:0.5;" width="279.873" x="762.06" y="783.83"/><text fill="#000000" font-family="sans-serif" font-size="14" lengthAdjust="spacing" textLength="109.4912" x="847.2509" y="798.8251">prsls_endpoints</text><line style="stroke:#181818;stroke-width:0.5;" x1="763.06" x2="1040.933" y1="804.1269" y2="804.1269"/><ellipse cx="773.06" cy="817.7753" fill="none" rx="3" ry="3" style="stroke:#038048;stroke-width:1;"/><text fill="#000000" font-family="sans-serif" font-size="14" lengthAdjust="spacing" textLength="201.2979" x="782.06" y="821.122">get_osd_by_cycle&#171;endpoint&#187;</text><ellipse cx="773.06" cy="834.0722" fill="none" rx="3" ry="3" style="stroke:#038048;stroke-width:1;"/><text fill="#000000" font-family="sans-serif" font-size="14" lengthAdjust="spacing" textLength="191.3789" x="782.06" y="837.4189">create_proposal&#171;endpoint&#187;</text><ellipse cx="773.06" cy="850.3691" fill="none" rx="3" ry="3" style="stroke:#038048;stroke-width:1;"/><text fill="#000000" font-family="sans-serif" font-size="14" lengthAdjust="spacing" textLength="169.6201" x="782.06" y="853.7157">get_proposal&#171;endpoint&#187;</text><ellipse cx="773.06" cy="866.6659" fill="none" rx="3" ry="3" style="stroke:#038048;stroke-width:1;"/><text fill="#000000" font-family="sans-serif" font-size="14" lengthAdjust="spacing" textLength="240.7002" x="782.06" y="870.0126">get_proposals_for_user&#171;endpoint&#187;</text><ellipse cx="773.06" cy="882.9628" fill="none" rx="3" ry="3" style="stroke:#038048;stroke-width:1;"/><text fill="#000000" font-family="sans-serif" font-size="14" lengthAdjust="spacing" textLength="195.959" x="782.06" y="886.3095">update_proposal&#171;endpoint&#187;</text><ellipse cx="773.06" cy="899.2597" fill="none" rx="3" ry="3" style="stroke:#038048;stroke-width:1;"/><text fill="#000000" font-family="sans-serif" font-size="14" lengthAdjust="spacing" textLength="202.8428" x="782.06" y="902.6064">validate_proposal&#171;endpoint&#187;</text><ellipse cx="773.06" cy="915.5566" fill="none" rx="3" ry="3" style="stroke:#038048;stroke-width:1;"/><text fill="#000000" font-family="sans-serif" font-size="14" lengthAdjust="spacing" textLength="158.4844" x="782.06" y="918.9032">send_email&#171;endpoint&#187;</text><ellipse cx="773.06" cy="931.8534" fill="none" rx="3" ry="3" style="stroke:#038048;stroke-width:1;"/><text fill="#000000" font-family="sans-serif" font-size="14" lengthAdjust="spacing" textLength="233.8574" x="782.06" y="935.2001">create_upload_pdf_url&#171;endpoint&#187;</text><ellipse cx="773.06" cy="948.1503" fill="none" rx="3" ry="3" style="stroke:#038048;stroke-width:1;"/><text fill="#000000" font-family="sans-serif" font-size="14" lengthAdjust="spacing" textLength="253.873" x="782.06" y="951.497">create_download_pdf_url&#171;endpoint&#187;</text><ellipse cx="773.06" cy="964.4472" fill="none" rx="3" ry="3" style="stroke:#038048;stroke-width:1;"/><text fill="#000000" font-family="sans-serif" font-size="14" lengthAdjust="spacing" textLength="230.2822" x="782.06" y="967.7939">create_delete_pdf_url&#171;endpoint&#187;</text></g><g class="entity" data-entity="report_endpoints" data-source-line="112" data-uid="ent0029" id="entity_report_endpoints"><rect fill="#F1F1F1" height="44.5938" rx="2.5" ry="2.5" style="stroke:#181818;stroke-width:0.5;" width="178.2637" x="1097.87" y="857.17"/><text fill="#000000" font-family="sans-serif" font-size="14" lengthAdjust="spacing" textLength="119.4375" x="1127.2831" y="872.1651">report_endpoints</text><line style="stroke:#181818;stroke-width:0.5;" x1="1098.87" x2="1275.1337" y1="877.4669" y2="877.4669"/><ellipse cx="1108.87" cy="891.1153" fill="none" rx="3" ry="3" style="stroke:#038048;stroke-width:1;"/><text fill="#000000" font-family="sans-serif" font-size="14" lengthAdjust="spacing" textLength="152.2637" x="1117.87" y="894.462">get_report&#171;endpoint&#187;</text></g><g class="entity" data-entity="reviewers_endpoints" data-source-line="117" data-uid="ent0031" id="entity_reviewers_endpoints"><rect fill="#F1F1F1" height="44.5938" rx="2.5" ry="2.5" style="stroke:#181818;stroke-width:0.5;" width="203.4678" x="1332.27" y="857.17"/><text fill="#000000" font-family="sans-serif" font-size="14" lengthAdjust="spacing" textLength="144.6416" x="1361.6831" y="872.1651">reviewers_endpoints</text><line style="stroke:#181818;stroke-width:0.5;" x1="1333.27" x2="1534.7378" y1="877.4669" y2="877.4669"/><ellipse cx="1343.27" cy="891.1153" fill="none" rx="3" ry="3" style="stroke:#038048;stroke-width:1;"/><text fill="#000000" font-family="sans-serif" font-size="14" lengthAdjust="spacing" textLength="177.4678" x="1352.27" y="894.462">get_reviewers&#171;endpoint&#187;</text></g><g class="entity" data-entity="reviews_endpoints" data-source-line="122" data-uid="ent0033" id="entity_reviews_endpoints"><rect fill="#F1F1F1" height="93.4844" rx="2.5" ry="2.5" style="stroke:#181818;stroke-width:0.5;" width="252.8848" x="1591.56" y="832.72"/><text fill="#000000" font-family="sans-serif" font-size="14" lengthAdjust="spacing" textLength="130.2725" x="1652.8662" y="847.7151">reviews_endpoints</text><line style="stroke:#181818;stroke-width:0.5;" x1="1592.56" x2="1843.4448" y1="853.0169" y2="853.0169"/><ellipse cx="1602.56" cy="866.6653" fill="none" rx="3" ry="3" style="stroke:#038048;stroke-width:1;"/><text fill="#000000" font-family="sans-serif" font-size="14" lengthAdjust="spacing" textLength="177.5635" x="1611.56" y="870.012">create_review&#171;endpoint&#187;</text><ellipse cx="1602.56" cy="882.9622" fill="none" rx="3" ry="3" style="stroke:#038048;stroke-width:1;"/><text fill="#000000" font-family="sans-serif" font-size="14" lengthAdjust="spacing" textLength="155.8047" x="1611.56" y="886.3089">get_review&#171;endpoint&#187;</text><ellipse cx="1602.56" cy="899.2591" fill="none" rx="3" ry="3" style="stroke:#038048;stroke-width:1;"/><text fill="#000000" font-family="sans-serif" font-size="14" lengthAdjust="spacing" textLength="226.8848" x="1611.56" y="902.6057">get_reviews_for_user&#171;endpoint&#187;</text><ellipse cx="1602.56" cy="915.5559" fill="none" rx="3" ry="3" style="stroke:#038048;stroke-width:1;"/><text fill="#000000" font-family="sans-serif" font-size="14" lengthAdjust="spacing" textLength="182.1436" x="1611.56" y="918.9026">update_review&#171;endpoint&#187;</text></g><!--entity constants--><g class="entity" data-entity="constants" data-source-line="131" data-uid="ent0034" id="entity_constants"><rect fill="#F1F1F1" height="36.2969" rx="2.5" ry="2.5" style="stroke:#181818;stroke-width:0.5;" width="88.1543" x="3096.92" y="861.32"/><text fill="#000000" font-family="sans-serif" font-size="14" lengthAdjust="spacing" textLength="68.1543" x="3106.92" y="884.3151">constants</text></g><g class="entity" data-entity="email_helper_items" data-source-line="135" data-uid="ent0036" id="entity_email_helper_items"><rect fill="#F1F1F1" height="60.8906" rx="2.5" ry="2.5" style="stroke:#181818;stroke-width:0.5;" width="163.9287" x="1948.04" y="849.02"/><text fill="#000000" font-family="sans-serif" font-size="14" lengthAdjust="spacing" textLength="136.165" x="1961.9218" y="864.0151">email_helper_items</text><line style="stroke:#181818;stroke-width:0.5;" x1="1949.04" x2="2110.9687" y1="869.3169" y2="869.3169"/><ellipse cx="1959.04" cy="882.9653" fill="#84BE84" rx="3" ry="3" style="stroke:#038048;stroke-width:1;"/><text fill="#000000" font-family="sans-serif" font-size="14" lengthAdjust="spacing" textLength="103.0313" x="1968.04" y="886.312">render_email()</text><ellipse cx="1959.04" cy="899.2622" fill="#84BE84" rx="3" ry="3" style="stroke:#038048;stroke-width:1;"/><text fill="#000000" font-family="sans-serif" font-size="14" lengthAdjust="spacing" textLength="137.9287" x="1968.04" y="902.6089">send_email_async()</text></g><g class="entity" data-entity="pht_handler_items" data-source-line="141" data-uid="ent0038" id="entity_pht_handler_items"><rect fill="#F1F1F1" height="93.4844" rx="2.5" ry="2.5" style="stroke:#181818;stroke-width:0.5;" width="322.8984" x="2167.55" y="832.72"/><text fill="#000000" font-family="sans-serif" font-size="14" lengthAdjust="spacing" textLength="129.6436" x="2264.1774" y="847.7151">pht_handler_items</text><line style="stroke:#181818;stroke-width:0.5;" x1="2168.55" x2="2489.4484" y1="853.0169" y2="853.0169"/><ellipse cx="2178.55" cy="866.6653" fill="#84BE84" rx="3" ry="3" style="stroke:#038048;stroke-width:1;"/><text fill="#000000" font-family="sans-serif" font-size="14" lengthAdjust="spacing" textLength="203.5537" x="2187.55" y="870.012">transform_update_proposal()</text><ellipse cx="2178.55" cy="882.9622" fill="#84BE84" rx="3" ry="3" style="stroke:#038048;stroke-width:1;"/><text fill="#000000" font-family="sans-serif" font-size="14" lengthAdjust="spacing" textLength="171.8555" x="2187.55" y="886.3089">get_latest_entity_by_id()</text><ellipse cx="2178.55" cy="899.2591" fill="#84BE84" rx="3" ry="3" style="stroke:#038048;stroke-width:1;"/><text fill="#000000" font-family="sans-serif" font-size="14" lengthAdjust="spacing" textLength="126.6221" x="2187.55" y="902.6057">_get_array_class()</text><ellipse cx="2178.55" cy="915.5559" fill="#84BE84" rx="3" ry="3" style="stroke:#038048;stroke-width:1;"/><text fill="#000000" font-family="sans-serif" font-size="14" lengthAdjust="spacing" textLength="296.8984" x="2187.55" y="918.9026">join_proposals_panels_reviews_decisions()</text></g><g class="entity" data-entity="s3_bucket_items" data-source-line="149" data-uid="ent0040" id="entity_s3_bucket_items"><rect fill="#F1F1F1" height="142.375" rx="2.5" ry="2.5" style="stroke:#181818;stroke-width:0.5;" width="288.2881" x="2545.86" y="808.28"/><text fill="#000000" font-family="sans-serif" font-size="14" lengthAdjust="spacing" textLength="116.792" x="2631.608" y="823.2751">s3_bucket_items</text><line style="stroke:#181818;stroke-width:0.5;" x1="2546.86" x2="2833.1481" y1="828.5769" y2="828.5769"/><text fill="#000000" font-family="sans-serif" font-size="14" lengthAdjust="spacing" textLength="70.3008" x="2565.86" y="845.572">S3Method</text><text fill="#000000" font-family="sans-serif" font-size="14" lengthAdjust="spacing" textLength="62.7129" x="2565.86" y="861.8689">S3Config</text><ellipse cx="2556.86" cy="874.8191" fill="#84BE84" rx="3" ry="3" style="stroke:#038048;stroke-width:1;"/><text fill="#000000" font-family="sans-serif" font-size="14" lengthAdjust="spacing" textLength="113.6885" x="2565.86" y="878.1657">get_aws_client()</text><ellipse cx="2556.86" cy="891.1159" fill="#84BE84" rx="3" ry="3" style="stroke:#038048;stroke-width:1;"/><text fill="#000000" font-family="sans-serif" font-size="14" lengthAdjust="spacing" textLength="176.5654" x="2565.86" y="894.4626">generate_presigned_url()</text><ellipse cx="2556.86" cy="907.4128" fill="#84BE84" rx="3" ry="3" style="stroke:#038048;stroke-width:1;"/><text fill="#000000" font-family="sans-serif" font-size="14" lengthAdjust="spacing" textLength="242.2725" x="2565.86" y="910.7595">create_presigned_url_upload_pdf()</text><ellipse cx="2556.86" cy="923.7097" fill="#84BE84" rx="3" ry="3" style="stroke:#038048;stroke-width:1;"/><text fill="#000000" font-family="sans-serif" font-size="14" lengthAdjust="spacing" textLength="262.2881" x="2565.86" y="927.0564">create_presigned_url_download_pdf()</text><ellipse cx="2556.86" cy="940.0066" fill="#84BE84" rx="3" ry="3" style="stroke:#038048;stroke-width:1;"/><text fill="#000000" font-family="sans-serif" font-size="14" lengthAdjust="spacing" textLength="238.6973" x="2565.86" y="943.3532">create_presigned_url_delete_pdf()</text></g><g class="entity" data-entity="validation_items" data-source-line="160" data-uid="ent0042" id="entity_validation_items"><rect fill="#F1F1F1" height="60.8906" rx="2.5" ry="2.5" style="stroke:#181818;stroke-width:0.5;" width="172.2344" x="2889.88" y="849.02"/><text fill="#000000" font-family="sans-serif" font-size="14" lengthAdjust="spacing" textLength="114.8506" x="2918.5719" y="864.0151">validation_items</text><line style="stroke:#181818;stroke-width:0.5;" x1="2890.88" x2="3061.1144" y1="869.3169" y2="869.3169"/><ellipse cx="2900.88" cy="882.9653" fill="#84BE84" rx="3" ry="3" style="stroke:#038048;stroke-width:1;"/><text fill="#000000" font-family="sans-serif" font-size="14" lengthAdjust="spacing" textLength="134.5586" x="2909.88" y="886.312">validate_proposal()</text><ellipse cx="2900.88" cy="899.2622" fill="#84BE84" rx="3" ry="3" style="stroke:#038048;stroke-width:1;"/><text fill="#000000" font-family="sans-serif" font-size="14" lengthAdjust="spacing" textLength="146.2344" x="2909.88" y="902.6089">validate_duplicates()</text></g><g class="entity" data-entity="models" data-source-line="168" data-uid="ent0044" id="entity_models"><rect fill="#F1F1F1" height="272.75" rx="2.5" ry="2.5" style="stroke:#181818;stroke-width:0.5;" width="175.3105" x="3241.34" y="743.09"/><text fill="#000000" font-family="sans-serif" font-size="14" lengthAdjust="spacing" textLength="50.8867" x="3303.5519" y="758.0851">models</text><line style="stroke:#181818;stroke-width:0.5;" x1="3242.34" x2="3415.6505" y1="763.3869" y2="763.3869"/><text fill="#000000" font-family="sans-serif" font-size="14" lengthAdjust="spacing" textLength="107.2627" x="3247.34" y="780.382">EmailRequest()</text><text fill="#000000" font-family="sans-serif" font-size="14" lengthAdjust="spacing" textLength="130.4707" x="3247.34" y="796.6789">CycleInformation()</text><text fill="#000000" font-family="sans-serif" font-size="14" lengthAdjust="spacing" textLength="101.4658" x="3247.34" y="812.9757">CyclePolicies()</text><text fill="#000000" font-family="sans-serif" font-size="14" lengthAdjust="spacing" textLength="163.3105" x="3247.34" y="829.2726">TelescopeCapabilities()</text><text fill="#000000" font-family="sans-serif" font-size="14" lengthAdjust="spacing" textLength="138.2227" x="3247.34" y="845.5695">ObservatoryPolicy()</text><text fill="#000000" font-family="sans-serif" font-size="14" lengthAdjust="spacing" textLength="153.4053" x="3247.34" y="861.8664">ReceiverInformation()</text><text fill="#000000" font-family="sans-serif" font-size="14" lengthAdjust="spacing" textLength="154.5059" x="3247.34" y="878.1632">BasicCapabilitiesMid()</text><text fill="#000000" font-family="sans-serif" font-size="14" lengthAdjust="spacing" textLength="72.9736" x="3247.34" y="894.4601">AA2_MID()</text><text fill="#000000" font-family="sans-serif" font-size="14" lengthAdjust="spacing" textLength="35.7793" x="3247.34" y="910.757">Mid()</text><text fill="#000000" font-family="sans-serif" font-size="14" lengthAdjust="spacing" textLength="157.4658" x="3247.34" y="927.0539">BasicCapabilitiesLow()</text><text fill="#000000" font-family="sans-serif" font-size="14" lengthAdjust="spacing" textLength="78.6475" x="3247.34" y="943.3507">AA2_LOW()</text><text fill="#000000" font-family="sans-serif" font-size="14" lengthAdjust="spacing" textLength="38.7393" x="3247.34" y="959.6476">Low()</text><text fill="#000000" font-family="sans-serif" font-size="14" lengthAdjust="spacing" textLength="92.5859" x="3247.34" y="975.9445">Capabilities()</text><text fill="#000000" font-family="sans-serif" font-size="14" lengthAdjust="spacing" textLength="113.5859" x="3247.34" y="992.2414">OsdDataModel()</text><text fill="#000000" font-family="sans-serif" font-size="14" lengthAdjust="spacing" textLength="117.9404" x="3247.34" y="1008.5382">ProposalReport()</text></g><!--class create_app--><g class="entity" data-entity="create_app" data-source-line="194" data-uid="ent0050" id="entity_create_app"><rect fill="#F1F1F1" height="56.2656" rx="2.5" ry="2.5" style="stroke:#181818;stroke-width:0.5;" width="110.1006" x="3435.95" y="42"/><ellipse cx="3450.95" cy="62.1328" fill="#ADD1B2" rx="11" ry="11" style="stroke:#181818;stroke-width:1;"/><path d="M3453.9188,67.7734 Q3453.3406,68.0703 3452.7,68.2109 Q3452.0594,68.3672 3451.3563,68.3672 Q3448.8563,68.3672 3447.5281,66.7266 Q3446.2156,65.0703 3446.2156,61.9453 Q3446.2156,58.8203 3447.5281,57.1641 Q3448.8563,55.5078 3451.3563,55.5078 Q3452.0594,55.5078 3452.7,55.6641 Q3453.3563,55.8203 3453.9188,56.1172 L3453.9188,58.8359 Q3453.2938,58.2578 3452.7,57.9922 Q3452.1063,57.7109 3451.4813,57.7109 Q3450.1375,57.7109 3449.45,58.7891 Q3448.7625,59.8516 3448.7625,61.9453 Q3448.7625,64.0391 3449.45,65.1172 Q3450.1375,66.1797 3451.4813,66.1797 Q3452.1063,66.1797 3452.7,65.9141 Q3453.2938,65.6328 3453.9188,65.0547 L3453.9188,67.7734 Z " fill="#000000"/><text fill="#000000" font-family="sans-serif" font-size="12" font-style="italic" lengthAdjust="spacing" textLength="63.7031" x="3472.1487" y="58.1387">&#171;function&#187;</text><text fill="#000000" font-family="sans-serif" font-size="14" lengthAdjust="spacing" textLength="78.1006" x="3464.95" y="73.9639">create_app</text><line style="stroke:#181818;stroke-width:0.5;" x1="3436.95" x2="3545.0506" y1="82.2656" y2="82.2656"/><line style="stroke:#181818;stroke-width:0.5;" x1="3436.95" x2="3545.0506" y1="90.2656" y2="90.2656"/></g><!--link common_pkg to odt_pkg--><!--link common_pkg to odt_pkg--><!--link odt_pkg to pht_pkg--><!--link odt_pkg to pht_pkg--><!--reverse link create_app to common_pkg--><g class="link" data-entity-1="create_app" data-entity-2="common_pkg" data-source-line="198" data-uid="lnk53" id="link_create_app_common_pkg"><path codeLine="198" d="M3474.57,103.979 C3470.1,113.779 3468.02,119.59 3465,130.27 C3459.0975,151.16 3454.465,173.6769 3450.8348,195.7547 C3449.0198,206.7936 3447.4553,217.7227 3446.1079,228.2839" fill="none" id="create_app-backto-common_pkg" style="stroke:#181818;stroke-width:1;"/><polygon fill="#181818" points="3477.06,98.52,3469.6858,105.0485,3474.985,103.0691,3476.9644,108.3684,3477.06,98.52" style="stroke:#181818;stroke-width:1;"/></g><!--reverse link create_app to odt_pkg--><g class="link" data-entity-1="create_app" data-entity-2="odt_pkg" data-source-line="199" data-uid="lnk55" id="link_create_app_odt_pkg"><path codeLine="199" d="M3489.2587,104.7519 C3486.5537,156.8119 3480.7975,267.6175 3475.3687,372.1087 C3472.6544,424.3544 3470.0997,495.8203 3468.2048,532.2823" fill="none" id="create_app-backto-odt_pkg" style="stroke:#181818;stroke-width:1;"/><polygon fill="#181818" points="3489.57,98.76,3485.1084,107.5403,3489.3106,103.7533,3493.0976,107.9554,3489.57,98.76" style="stroke:#181818;stroke-width:1;"/></g><!--reverse link create_app to pht_pkg--><g class="link" data-entity-1="create_app" data-entity-2="pht_pkg" data-source-line="200" data-uid="lnk57" id="link_create_app_pht_pkg"><path codeLine="200" d="M3499.6878,104.4544 C3501.9878,114.3544 3502.86,119.82 3504,130.27 C3521.84,294.495 3512.38,479.915 3498.3163,625.0837 C3491.2844,697.6681 3483.1016,760.1897 3476.6048,804.9677 C3475.7928,810.5649 3475.007,815.8849 3474.2532,820.9127 C3473.8762,823.4265 3473.5073,825.8674 3473.147,828.2332" fill="none" id="create_app-backto-pht_pkg" style="stroke:#181818;stroke-width:1;"/><polygon fill="#181818" points="3498.33,98.61,3496.4704,108.2817,3499.4615,103.4803,3504.2629,106.4713,3498.33,98.61" style="stroke:#181818;stroke-width:1;"/></g><!--SRC=[fLZTJoCt47_FNs7nqZjLyD1xHKX0e48w2WBQUwWgorbF4bzsRP_j1QKL_tl7-nLdrvjrk4YGoFCRxypFy-5PfpHnYYoKSweWN1Z8d51oDjCisx0La9DC5OMI9uHPKl-aUhCY_yrc13yTYcbnbYbbk93CWJqXv-TFk1MJgnmkBX1EcezQVCTr4c2fS53O0E8_lv8dM881cS6jOGNqX3S_IkQK4In_0gkLj7t0xondw4as8bw1etPhyS618UVd8BbMGhgBYmx_Fgl_zzmjtNhSnondrfBdJ6c8QcTe4Qgv4Pg6yCx4NAbDgOzXjzOOuNX7umXzlMMZIibfjVkdppqPElKAnb73A8SC_rQZ4AVegdd00EDF9Z0_aCTF0enHXgwPvBcGgqbczk4ZjDGW3ew9t0uil6By2NwKODsDn_MayrBd8aFJOy8_fJOg0slP8eSRwOJRnc1_A7VhcOx9QC4sG4qJrWFZ56TKAaUNrKbLVeA9eW8cHX2b5EWchQBLC4oBKJH7lW630tDPEZ2IvTI2mREEQCIFiL0SyidJgr0ZXtQfzRqNzvR_OhdWpDUqaL9GaTpANWpBO856nK3pEY0cF56M5qnhC9FUTCWHZswD3pEPRQ-Gn9xikLmmOzYsjtml-BMIIx4gJULpJ_nLlHqI7v9beOmkZIeesZ-81Ehpjn2SEiZ1-Wf8zpJZ2hbwIr1e-NuFkfFYhcfD-Dtq9O_1381srV-k5ayUvY_4rlsD54AAGlmBd0X9t5fOyYhWxQG2OXSWdLROuSPFz1VowP9p_pno-NX7sZvYoHfx615BibKbUSEI_pdYWrxNFk1tu4FQWtURC8cfWPLNME7RzPX247_xAhGpUX_S7By1h6bqNoNQCFTB-KygM2naXfPOJ2PKIysFiEzzDlorpwHDPz2cCvVgVmBEW0_Ocf-ZzawWz30zngQouv67oV5MOHcXYotDjbaE4qwqN1gbbML9BXyFFJhcqXxnMZUYPBn5AOK2EquQANZlK8nJpPUqD8awNBt93sXXfVP-JEWSZ283MXcN54OrT3gEQjn7pV7P1COcMjIWKunge3zZrp5MfLMZ6fjSPewiH-cvCx7z-yHTgtHu7pixSfogbQhCecl8Ksvg8NZaieQZAaTXXHnSSdQvJ9dToYnogOcOwEy3pVrvqi80Es8WNk6bnTCfQAzkHKUmt0zVFkdyZEBBinYvwrMtK5fDl0F0TppIeAmsxQUDbAx7fx5Xlz15cMt0JNBH8QDCF7-v1xTMlBTOttqZJ30qDSi5CX4XIeAfgGGhLXAuBuZ3iRVjMW4eADTf-B1K9sfqPJgDuDTkKffaU0ST2RP1inkOt25uEp17P_qFJubzcsvyzZLpUy-OQt_pk9C-Ds8pIYL-L6YaW7wClxH3opNJR25ouOQOXuMVXVrxbcsroxOdHrz0uAmyRi4Lio8Bdt0_oCRBoz_e_Tsyjph43RR2aJ2orTU7RxtL8UwGovRFcMFLFDuJFJO1yLHrw_Xq5xndFFLn__TQS0xodzDsp4j0j0DXJzpCM5FYMJ1zZRnkgr_oDPc7A0GjIrbDbzZ5VEY6HfRwz88WwcodiBCX9co7mPZmVm00]--></g></svg>