<?xml version="1.0" encoding="UTF-8" standalone="no"?><svg xmlns="http://www.w3.org/2000/svg" xmlns:xlink="http://www.w3.org/1999/xlink" contentStyleType="text/css" height="846px" preserveAspectRatio="none" style="width:2751px;height:846px;background:#FFFFFF;" version="1.1" viewBox="0 0 2751 846" width="2751px" zoomAndPan="magnify"><defs/><g><text fill="#000000" font-family="sans-serif" font-size="14" font-weight="bold" lengthAdjust="spacing" textLength="321" x="1208" y="22.9951">High Level Module View of OSO Services</text><!--cluster common_pkg--><g id="cluster_common_pkg"><path d="M1764.5,393.2969 L1832.5,393.2969 A3.75,3.75 0 0 1 1835,395.7969 L1842,415.5938 L2741.5,415.5938 A2.5,2.5 0 0 1 2744,418.0938 L2744,837.2969 A2.5,2.5 0 0 1 2741.5,839.7969 L1764.5,839.7969 A2.5,2.5 0 0 1 1762,837.2969 L1762,395.7969 A2.5,2.5 0 0 1 1764.5,393.2969 " fill="none" style="stroke:#000000;stroke-width:1.5;"/><line style="stroke:#000000;stroke-width:1.5;" x1="1762" x2="1842" y1="415.5938" y2="415.5938"/><text fill="#000000" font-family="sans-serif" font-size="14" font-weight="bold" lengthAdjust="spacing" textLength="67" x="1766" y="408.292">common</text></g><!--cluster auth--><g id="cluster_auth"><rect fill="none" height="96" rx="2.5" ry="2.5" style="stroke:#181818;stroke-width:1.0;" width="122" x="2590" y="444.2969"/><text fill="#000000" font-family="sans-serif" font-size="14" font-weight="bold" lengthAdjust="spacing" textLength="35" x="2633.5" y="459.292">auth</text></g><!--cluster odt_pkg--><g id="cluster_odt_pkg"><path d="M1405.5,664.7969 L1432.5,664.7969 A3.75,3.75 0 0 1 1435,667.2969 L1442,687.0938 L1719.5,687.0938 A2.5,2.5 0 0 1 1722,689.5938 L1722,754.2969 A2.5,2.5 0 0 1 1719.5,756.7969 L1405.5,756.7969 A2.5,2.5 0 0 1 1403,754.2969 L1403,667.2969 A2.5,2.5 0 0 1 1405.5,664.7969 " fill="none" style="stroke:#000000;stroke-width:1.5;"/><line style="stroke:#000000;stroke-width:1.5;" x1="1403" x2="1442" y1="687.0938" y2="687.0938"/><text fill="#000000" font-family="sans-serif" font-size="14" font-weight="bold" lengthAdjust="spacing" textLength="26" x="1407" y="679.792">odt</text></g><!--cluster pht_pkg--><g id="cluster_pht_pkg"><path d="M8.5,43.2969 L35.5,43.2969 A3.75,3.75 0 0 1 38,45.7969 L45,65.5938 L1429.5,65.5938 A2.5,2.5 0 0 1 1432,68.0938 L1432,593.7969 A2.5,2.5 0 0 1 1429.5,596.2969 L8.5,596.2969 A2.5,2.5 0 0 1 6,593.7969 L6,45.7969 A2.5,2.5 0 0 1 8.5,43.2969 " fill="none" style="stroke:#000000;stroke-width:1.5;"/><line style="stroke:#000000;stroke-width:1.5;" x1="6" x2="45" y1="65.5938" y2="65.5938"/><text fill="#000000" font-family="sans-serif" font-size="14" font-weight="bold" lengthAdjust="spacing" textLength="26" x="10" y="58.292">pht</text></g><!--cluster api--><g id="cluster_api"><rect fill="none" height="470" rx="2.5" ry="2.5" style="stroke:#181818;stroke-width:1.0;" width="728" x="664" y="94.2969"/><text fill="#000000" font-family="sans-serif" font-size="14" font-weight="bold" lengthAdjust="spacing" textLength="23" x="1016.5" y="109.292">api</text></g><!--cluster pht.utils--><g id="cluster_pht.utils"><rect fill="none" height="76" rx="2.5" ry="2.5" style="stroke:#181818;stroke-width:1.0;" width="282" x="358" y="201.7969"/><text fill="#000000" font-family="sans-serif" font-size="14" font-weight="bold" lengthAdjust="spacing" textLength="64" x="467" y="216.792">pht.utils</text></g><!--cluster pht.model--><g id="cluster_pht.model"><rect fill="none" height="76" rx="2.5" ry="2.5" style="stroke:#181818;stroke-width:1.0;" width="296" x="38" y="201.7969"/><text fill="#000000" font-family="sans-serif" font-size="14" font-weight="bold" lengthAdjust="spacing" textLength="79" x="146.5" y="216.792">pht.model</text></g><!--cluster app--><g id="cluster_app"><rect fill="none" height="107" rx="2.5" ry="2.5" style="stroke:#181818;stroke-width:1.0;" width="142" x="1464" y="438.7969"/><text fill="#000000" font-family="sans-serif" font-size="14" font-weight="bold" lengthAdjust="spacing" textLength="29" x="1520.5" y="453.792">app</text></g><g id="elem_Constants"><rect fill="#F1F1F1" height="126.0781" style="stroke:#181818;stroke-width:0.5;" width="310" x="1805" y="438.7969"/><text fill="#000000" font-family="sans-serif" font-size="14" lengthAdjust="spacing" textLength="71" x="1924.5" y="453.792">Constants</text><line style="stroke:#181818;stroke-width:0.5;" x1="1806" x2="2114" y1="459.0938" y2="459.0938"/><ellipse cx="1816" cy="472.7422" fill="none" rx="3" ry="3" style="stroke:#038048;stroke-width:1.0;"/><text fill="#000000" font-family="sans-serif" font-size="14" lengthAdjust="spacing" textLength="224" x="1825" y="476.0889">MID_20_CHANNELS_WIDTH_MHZ</text><ellipse cx="1816" cy="489.0391" fill="none" rx="3" ry="3" style="stroke:#038048;stroke-width:1.0;"/><text fill="#000000" font-family="sans-serif" font-size="14" lengthAdjust="spacing" textLength="187" x="1825" y="492.3857">MID_CHANNEL_WIDTH_KHZ</text><ellipse cx="1816" cy="505.3359" fill="none" rx="3" ry="3" style="stroke:#038048;stroke-width:1.0;"/><text fill="#000000" font-family="sans-serif" font-size="14" lengthAdjust="spacing" textLength="196" x="1825" y="508.6826">LOW_CHANNEL_BLOCK_MHZ</text><ellipse cx="1816" cy="521.6328" fill="none" rx="3" ry="3" style="stroke:#038048;stroke-width:1.0;"/><text fill="#000000" font-family="sans-serif" font-size="14" lengthAdjust="spacing" textLength="284" x="1825" y="524.9795">LOW_CONTINUUM_CHANNEL_WIDTH_KHZ</text><ellipse cx="1816" cy="537.9297" fill="none" rx="3" ry="3" style="stroke:#038048;stroke-width:1.0;"/><text fill="#000000" font-family="sans-serif" font-size="14" lengthAdjust="spacing" textLength="226" x="1825" y="541.2764">LOW_PST_CHANNEL_WIDTH_KHZ</text><ellipse cx="1816" cy="554.2266" fill="none" rx="3" ry="3" style="stroke:#038048;stroke-width:1.0;"/><text fill="#000000" font-family="sans-serif" font-size="14" lengthAdjust="spacing" textLength="262" x="1825" y="557.5732">LOW_STATION_CHANNEL_WIDTH_MHZ</text></g><g id="elem_Coordinates"><rect fill="#F1F1F1" height="93.4844" style="stroke:#181818;stroke-width:0.5;" width="198" x="2150" y="455.2969"/><text fill="#000000" font-family="sans-serif" font-size="14" lengthAdjust="spacing" textLength="84" x="2207" y="470.292">Coordinates</text><line style="stroke:#181818;stroke-width:0.5;" x1="2151" x2="2347" y1="475.5938" y2="475.5938"/><ellipse cx="2161" cy="489.2422" fill="none" rx="3" ry="3" style="stroke:#038048;stroke-width:1.0;"/><text fill="#000000" font-family="sans-serif" font-size="14" lengthAdjust="spacing" textLength="139" x="2170" y="492.5889">EquatorialResponse</text><ellipse cx="2161" cy="505.5391" fill="none" rx="3" ry="3" style="stroke:#038048;stroke-width:1.0;"/><text fill="#000000" font-family="sans-serif" font-size="14" lengthAdjust="spacing" textLength="125" x="2170" y="508.8857">GalacticResponse</text><ellipse cx="2161" cy="521.8359" fill="none" rx="3" ry="3" style="stroke:#038048;stroke-width:1.0;"/><text fill="#000000" font-family="sans-serif" font-size="14" lengthAdjust="spacing" textLength="115" x="2170" y="525.1826">ReferenceFrame</text><ellipse cx="2161" cy="538.1328" fill="#84BE84" rx="3" ry="3" style="stroke:#038048;stroke-width:1.0;"/><text fill="#000000" font-family="sans-serif" font-size="14" lengthAdjust="spacing" textLength="172" x="2170" y="541.4795">get_systemcoordinates()</text></g><g id="elem_coordinateslookup_items"><rect fill="#F1F1F1" height="126.0781" style="stroke:#181818;stroke-width:0.5;" width="188" x="2383" y="438.7969"/><text fill="#000000" font-family="sans-serif" font-size="14" lengthAdjust="spacing" textLength="174" x="2390" y="453.792">coordinateslookup_items</text><line style="stroke:#181818;stroke-width:0.5;" x1="2384" x2="2570" y1="459.0938" y2="459.0938"/><ellipse cx="2394" cy="472.7422" fill="none" rx="3" ry="3" style="stroke:#038048;stroke-width:1.0;"/><text fill="#000000" font-family="sans-serif" font-size="14" lengthAdjust="spacing" textLength="68" x="2403" y="476.0889">Equatorial</text><ellipse cx="2394" cy="489.0391" fill="none" rx="3" ry="3" style="stroke:#038048;stroke-width:1.0;"/><text fill="#000000" font-family="sans-serif" font-size="14" lengthAdjust="spacing" textLength="54" x="2403" y="492.3857">Galactic</text><ellipse cx="2394" cy="505.3359" fill="#84BE84" rx="3" ry="3" style="stroke:#038048;stroke-width:1.0;"/><text fill="#000000" font-family="sans-serif" font-size="14" lengthAdjust="spacing" textLength="149" x="2403" y="508.6826">convert_ra_dec_deg()</text><ellipse cx="2394" cy="521.6328" fill="#84BE84" rx="3" ry="3" style="stroke:#038048;stroke-width:1.0;"/><text fill="#000000" font-family="sans-serif" font-size="14" lengthAdjust="spacing" textLength="142" x="2403" y="524.9795">convert_to_galactic()</text><ellipse cx="2394" cy="537.9297" fill="#84BE84" rx="3" ry="3" style="stroke:#038048;stroke-width:1.0;"/><text fill="#000000" font-family="sans-serif" font-size="14" lengthAdjust="spacing" textLength="122" x="2403" y="541.2764">get_coordinates()</text><ellipse cx="2394" cy="554.2266" fill="#84BE84" rx="3" ry="3" style="stroke:#038048;stroke-width:1.0;"/><text fill="#000000" font-family="sans-serif" font-size="14" lengthAdjust="spacing" textLength="98" x="2403" y="557.5732">round_coord()</text></g><g id="elem_error_handling_items"><rect fill="#F1F1F1" height="191.2656" style="stroke:#181818;stroke-width:0.5;" width="278" x="1821" y="624.7969"/><text fill="#000000" font-family="sans-serif" font-size="14" lengthAdjust="spacing" textLength="144" x="1888" y="639.792">error_handling_items</text><line style="stroke:#181818;stroke-width:0.5;" x1="1822" x2="2098" y1="645.0938" y2="645.0938"/><ellipse cx="1832" cy="658.7422" fill="none" rx="3" ry="3" style="stroke:#038048;stroke-width:1.0;"/><text fill="#000000" font-family="sans-serif" font-size="14" lengthAdjust="spacing" textLength="119" x="1841" y="662.0889">BadRequestError</text><ellipse cx="1832" cy="675.0391" fill="none" rx="3" ry="3" style="stroke:#038048;stroke-width:1.0;"/><text fill="#000000" font-family="sans-serif" font-size="14" lengthAdjust="spacing" textLength="98" x="1841" y="678.3857">DuplicateError</text><ellipse cx="1832" cy="691.3359" fill="none" rx="3" ry="3" style="stroke:#038048;stroke-width:1.0;"/><text fill="#000000" font-family="sans-serif" font-size="14" lengthAdjust="spacing" textLength="101" x="1841" y="694.6826">NotFoundError</text><ellipse cx="1832" cy="707.6328" fill="none" rx="3" ry="3" style="stroke:#038048;stroke-width:1.0;"/><text fill="#000000" font-family="sans-serif" font-size="14" lengthAdjust="spacing" textLength="175" x="1841" y="710.9795">UnprocessableEntityError</text><ellipse cx="1832" cy="723.9297" fill="#84BE84" rx="3" ry="3" style="stroke:#038048;stroke-width:1.0;"/><text fill="#000000" font-family="sans-serif" font-size="14" lengthAdjust="spacing" textLength="128" x="1841" y="727.2764">_make_response()</text><ellipse cx="1832" cy="740.2266" fill="#84BE84" rx="3" ry="3" style="stroke:#038048;stroke-width:1.0;"/><text fill="#000000" font-family="sans-serif" font-size="14" lengthAdjust="spacing" textLength="252" x="1841" y="743.5732">dangerous_internal_server_handler()</text><ellipse cx="1832" cy="756.5234" fill="#84BE84" rx="3" ry="3" style="stroke:#038048;stroke-width:1.0;"/><text fill="#000000" font-family="sans-serif" font-size="14" lengthAdjust="spacing" textLength="95" x="1841" y="759.8701">error_details()</text><ellipse cx="1832" cy="772.8203" fill="#84BE84" rx="3" ry="3" style="stroke:#038048;stroke-width:1.0;"/><text fill="#000000" font-family="sans-serif" font-size="14" lengthAdjust="spacing" textLength="135" x="1841" y="776.167">oda_error_handler()</text><ellipse cx="1832" cy="789.1172" fill="#84BE84" rx="3" ry="3" style="stroke:#038048;stroke-width:1.0;"/><text fill="#000000" font-family="sans-serif" font-size="14" lengthAdjust="spacing" textLength="172" x="1841" y="792.4639">oda_not_found_handler()</text><ellipse cx="1832" cy="805.4141" fill="#84BE84" rx="3" ry="3" style="stroke:#038048;stroke-width:1.0;"/><text fill="#000000" font-family="sans-serif" font-size="14" lengthAdjust="spacing" textLength="226" x="1841" y="808.7607">oda_unique_constraint_handler()</text></g><g id="elem_model_items"><rect fill="#F1F1F1" height="93.4844" style="stroke:#181818;stroke-width:0.5;" width="202" x="2134" y="673.7969"/><text fill="#000000" font-family="sans-serif" font-size="14" lengthAdjust="spacing" textLength="88" x="2191" y="688.792">model_items</text><line style="stroke:#181818;stroke-width:0.5;" x1="2135" x2="2335" y1="694.0938" y2="694.0938"/><ellipse cx="2145" cy="707.7422" fill="none" rx="3" ry="3" style="stroke:#038048;stroke-width:1.0;"/><text fill="#000000" font-family="sans-serif" font-size="14" lengthAdjust="spacing" textLength="69" x="2154" y="711.0889">AppModel</text><ellipse cx="2145" cy="724.0391" fill="none" rx="3" ry="3" style="stroke:#038048;stroke-width:1.0;"/><text fill="#000000" font-family="sans-serif" font-size="14" lengthAdjust="spacing" textLength="80" x="2154" y="727.3857">ErrorDetails</text><ellipse cx="2145" cy="740.3359" fill="none" rx="3" ry="3" style="stroke:#038048;stroke-width:1.0;"/><text fill="#000000" font-family="sans-serif" font-size="14" lengthAdjust="spacing" textLength="176" x="2154" y="743.6826">ErrorResponseTraceback</text><ellipse cx="2145" cy="756.6328" fill="none" rx="3" ry="3" style="stroke:#038048;stroke-width:1.0;"/><text fill="#000000" font-family="sans-serif" font-size="14" lengthAdjust="spacing" textLength="137" x="2154" y="759.9795">ValidationResponse</text></g><g id="elem_osdmapper_items"><rect fill="#F1F1F1" height="158.6719" style="stroke:#181818;stroke-width:0.5;" width="271" x="2371.5" y="640.7969"/><text fill="#000000" font-family="sans-serif" font-size="14" lengthAdjust="spacing" textLength="124" x="2445" y="655.792">osdmapper_items</text><line style="stroke:#181818;stroke-width:0.5;" x1="2372.5" x2="2641.5" y1="661.0938" y2="661.0938"/><ellipse cx="2382.5" cy="674.7422" fill="none" rx="3" ry="3" style="stroke:#038048;stroke-width:1.0;"/><text fill="#000000" font-family="sans-serif" font-size="14" lengthAdjust="spacing" textLength="92" x="2391.5" y="678.0889">Configuration</text><ellipse cx="2382.5" cy="691.0391" fill="none" rx="3" ry="3" style="stroke:#038048;stroke-width:1.0;"/><text fill="#000000" font-family="sans-serif" font-size="14" lengthAdjust="spacing" textLength="109" x="2391.5" y="694.3857">FrequencyBand</text><ellipse cx="2382.5" cy="707.3359" fill="none" rx="3" ry="3" style="stroke:#038048;stroke-width:1.0;"/><text fill="#000000" font-family="sans-serif" font-size="14" lengthAdjust="spacing" textLength="119" x="2391.5" y="710.6826">LowConfiguration</text><ellipse cx="2382.5" cy="723.6328" fill="none" rx="3" ry="3" style="stroke:#038048;stroke-width:1.0;"/><text fill="#000000" font-family="sans-serif" font-size="14" lengthAdjust="spacing" textLength="116" x="2391.5" y="726.9795">MidConfiguration</text><ellipse cx="2382.5" cy="739.9297" fill="none" rx="3" ry="3" style="stroke:#038048;stroke-width:1.0;"/><text fill="#000000" font-family="sans-serif" font-size="14" lengthAdjust="spacing" textLength="60" x="2391.5" y="743.2764">Subarray</text><ellipse cx="2382.5" cy="756.2266" fill="#84BE84" rx="3" ry="3" style="stroke:#038048;stroke-width:1.0;"/><text fill="#000000" font-family="sans-serif" font-size="14" lengthAdjust="spacing" textLength="171" x="2391.5" y="759.5732">configuration_from_osd()</text><ellipse cx="2382.5" cy="772.5234" fill="#84BE84" rx="3" ry="3" style="stroke:#038048;stroke-width:1.0;"/><text fill="#000000" font-family="sans-serif" font-size="14" lengthAdjust="spacing" textLength="243" x="2391.5" y="775.8701">_get_low_telescope_configuration()</text><ellipse cx="2382.5" cy="788.8203" fill="#84BE84" rx="3" ry="3" style="stroke:#038048;stroke-width:1.0;"/><text fill="#000000" font-family="sans-serif" font-size="14" lengthAdjust="spacing" textLength="245" x="2391.5" y="792.167">_get_mid_telescope_configuration()</text></g><g id="elem_auth_items"><rect fill="#F1F1F1" height="44.5938" style="stroke:#181818;stroke-width:0.5;" width="90" x="2606" y="479.2969"/><text fill="#000000" font-family="sans-serif" font-size="14" lengthAdjust="spacing" textLength="76" x="2613" y="494.292">auth_items</text><line style="stroke:#181818;stroke-width:0.5;" x1="2607" x2="2695" y1="499.5938" y2="499.5938"/><ellipse cx="2617" cy="513.2422" fill="none" rx="3" ry="3" style="stroke:#038048;stroke-width:1.0;"/><text fill="#000000" font-family="sans-serif" font-size="14" lengthAdjust="spacing" textLength="44" x="2626" y="516.5889">Scope</text></g><g id="elem_odt_note"><path d="M1446.5,707.7969 L1446.5,732.9297 L1697.5,732.9297 L1697.5,717.7969 L1687.5,707.7969 L1446.5,707.7969 " fill="#FEFFDD" style="stroke:#181818;stroke-width:0.5;"/><path d="M1687.5,707.7969 L1687.5,717.7969 L1697.5,717.7969 L1687.5,707.7969 " fill="#FEFFDD" style="stroke:#181818;stroke-width:1.0;"/><text fill="#000000" font-family="sans-serif" font-size="13" lengthAdjust="spacing" textLength="230" x="1452.5" y="724.8638">"ODT section minimized in this view"</text></g><g id="elem_panel_decision_endpoints"><rect fill="#F1F1F1" height="93.4844" style="stroke:#181818;stroke-width:0.5;" width="240" x="680" y="202.7969"/><text fill="#000000" font-family="sans-serif" font-size="14" lengthAdjust="spacing" textLength="180" x="710" y="217.792">panel_decision_endpoints</text><line style="stroke:#181818;stroke-width:0.5;" x1="681" x2="919" y1="223.0938" y2="223.0938"/><ellipse cx="691" cy="236.7422" fill="#84BE84" rx="3" ry="3" style="stroke:#038048;stroke-width:1.0;"/><text fill="#000000" font-family="sans-serif" font-size="14" lengthAdjust="spacing" textLength="164" x="700" y="240.0889">create_panel_decision()</text><ellipse cx="691" cy="253.0391" fill="#84BE84" rx="3" ry="3" style="stroke:#038048;stroke-width:1.0;"/><text fill="#000000" font-family="sans-serif" font-size="14" lengthAdjust="spacing" textLength="143" x="700" y="256.3857">get_panel_decision()</text><ellipse cx="691" cy="269.3359" fill="#84BE84" rx="3" ry="3" style="stroke:#038048;stroke-width:1.0;"/><text fill="#000000" font-family="sans-serif" font-size="14" lengthAdjust="spacing" textLength="214" x="700" y="272.6826">get_panel_decisions_for_user()</text><ellipse cx="691" cy="285.6328" fill="#84BE84" rx="3" ry="3" style="stroke:#038048;stroke-width:1.0;"/><text fill="#000000" font-family="sans-serif" font-size="14" lengthAdjust="spacing" textLength="169" x="700" y="288.9795">update_panel_decision()</text></g><g id="elem_panels_endpoints"><rect fill="#F1F1F1" height="77.1875" style="stroke:#181818;stroke-width:0.5;" width="175" x="955.5" y="210.7969"/><text fill="#000000" font-family="sans-serif" font-size="14" lengthAdjust="spacing" textLength="123" x="981.5" y="225.792">panels_endpoints</text><line style="stroke:#181818;stroke-width:0.5;" x1="956.5" x2="1129.5" y1="231.0938" y2="231.0938"/><ellipse cx="966.5" cy="244.7422" fill="#84BE84" rx="3" ry="3" style="stroke:#038048;stroke-width:1.0;"/><text fill="#000000" font-family="sans-serif" font-size="14" lengthAdjust="spacing" textLength="99" x="975.5" y="248.0889">create_panel()</text><ellipse cx="966.5" cy="261.0391" fill="#84BE84" rx="3" ry="3" style="stroke:#038048;stroke-width:1.0;"/><text fill="#000000" font-family="sans-serif" font-size="14" lengthAdjust="spacing" textLength="78" x="975.5" y="264.3857">get_panel()</text><ellipse cx="966.5" cy="277.3359" fill="#84BE84" rx="3" ry="3" style="stroke:#038048;stroke-width:1.0;"/><text fill="#000000" font-family="sans-serif" font-size="14" lengthAdjust="spacing" textLength="149" x="975.5" y="280.6826">get_panels_for_user()</text></g><g id="elem_prsls_endpoints"><rect fill="#F1F1F1" height="240.1563" style="stroke:#181818;stroke-width:0.5;" width="210" x="1166" y="129.2969"/><text fill="#000000" font-family="sans-serif" font-size="14" lengthAdjust="spacing" textLength="110" x="1216" y="144.292">prsls_endpoints</text><line style="stroke:#181818;stroke-width:0.5;" x1="1167" x2="1375" y1="149.5938" y2="149.5938"/><ellipse cx="1177" cy="163.2422" fill="#84BE84" rx="3" ry="3" style="stroke:#038048;stroke-width:1.0;"/><text fill="#000000" font-family="sans-serif" font-size="14" lengthAdjust="spacing" textLength="158" x="1186" y="166.5889">create_delete_pdf_url()</text><ellipse cx="1177" cy="179.5391" fill="#84BE84" rx="3" ry="3" style="stroke:#038048;stroke-width:1.0;"/><text fill="#000000" font-family="sans-serif" font-size="14" lengthAdjust="spacing" textLength="181" x="1186" y="182.8857">create_download_pdf_url()</text><ellipse cx="1177" cy="195.8359" fill="#84BE84" rx="3" ry="3" style="stroke:#038048;stroke-width:1.0;"/><text fill="#000000" font-family="sans-serif" font-size="14" lengthAdjust="spacing" textLength="121" x="1186" y="199.1826">create_proposal()</text><ellipse cx="1177" cy="212.1328" fill="#84BE84" rx="3" ry="3" style="stroke:#038048;stroke-width:1.0;"/><text fill="#000000" font-family="sans-serif" font-size="14" lengthAdjust="spacing" textLength="161" x="1186" y="215.4795">create_upload_pdf_url()</text><ellipse cx="1177" cy="228.4297" fill="#84BE84" rx="3" ry="3" style="stroke:#038048;stroke-width:1.0;"/><text fill="#000000" font-family="sans-serif" font-size="14" lengthAdjust="spacing" textLength="131" x="1186" y="231.7764">get_osd_by_cycle()</text><ellipse cx="1177" cy="244.7266" fill="#84BE84" rx="3" ry="3" style="stroke:#038048;stroke-width:1.0;"/><text fill="#000000" font-family="sans-serif" font-size="14" lengthAdjust="spacing" textLength="100" x="1186" y="248.0732">get_proposal()</text><ellipse cx="1177" cy="261.0234" fill="#84BE84" rx="3" ry="3" style="stroke:#038048;stroke-width:1.0;"/><text fill="#000000" font-family="sans-serif" font-size="14" lengthAdjust="spacing" textLength="154" x="1186" y="264.3701">get_proposals_batch()</text><ellipse cx="1177" cy="277.3203" fill="#84BE84" rx="3" ry="3" style="stroke:#038048;stroke-width:1.0;"/><text fill="#000000" font-family="sans-serif" font-size="14" lengthAdjust="spacing" textLength="181" x="1186" y="280.667">get_proposals_by_status()</text><ellipse cx="1177" cy="293.6172" fill="#84BE84" rx="3" ry="3" style="stroke:#038048;stroke-width:1.0;"/><text fill="#000000" font-family="sans-serif" font-size="14" lengthAdjust="spacing" textLength="171" x="1186" y="296.9639">get_proposals_for_user()</text><ellipse cx="1177" cy="309.9141" fill="#84BE84" rx="3" ry="3" style="stroke:#038048;stroke-width:1.0;"/><text fill="#000000" font-family="sans-serif" font-size="14" lengthAdjust="spacing" textLength="184" x="1186" y="313.2607">get_reviews_for_proposal()</text><ellipse cx="1177" cy="326.2109" fill="#84BE84" rx="3" ry="3" style="stroke:#038048;stroke-width:1.0;"/><text fill="#000000" font-family="sans-serif" font-size="14" lengthAdjust="spacing" textLength="88" x="1186" y="329.5576">send_email()</text><ellipse cx="1177" cy="342.5078" fill="#84BE84" rx="3" ry="3" style="stroke:#038048;stroke-width:1.0;"/><text fill="#000000" font-family="sans-serif" font-size="14" lengthAdjust="spacing" textLength="126" x="1186" y="345.8545">update_proposal()</text><ellipse cx="1177" cy="358.8047" fill="#84BE84" rx="3" ry="3" style="stroke:#038048;stroke-width:1.0;"/><text fill="#000000" font-family="sans-serif" font-size="14" lengthAdjust="spacing" textLength="129" x="1186" y="362.1514">validate_proposal()</text></g><g id="elem_report_endpoints"><rect fill="#F1F1F1" height="44.5938" style="stroke:#181818;stroke-width:0.5;" width="133" x="733.5" y="479.2969"/><text fill="#000000" font-family="sans-serif" font-size="14" lengthAdjust="spacing" textLength="119" x="740.5" y="494.292">report_endpoints</text><line style="stroke:#181818;stroke-width:0.5;" x1="734.5" x2="865.5" y1="499.5938" y2="499.5938"/><ellipse cx="744.5" cy="513.2422" fill="#84BE84" rx="3" ry="3" style="stroke:#038048;stroke-width:1.0;"/><text fill="#000000" font-family="sans-serif" font-size="14" lengthAdjust="spacing" textLength="82" x="753.5" y="516.5889">get_report()</text></g><g id="elem_reviewers_endpoints"><rect fill="#F1F1F1" height="44.5938" style="stroke:#181818;stroke-width:0.5;" width="157" x="901.5" y="479.2969"/><text fill="#000000" font-family="sans-serif" font-size="14" lengthAdjust="spacing" textLength="143" x="908.5" y="494.292">reviewers_endpoints</text><line style="stroke:#181818;stroke-width:0.5;" x1="902.5" x2="1057.5" y1="499.5938" y2="499.5938"/><ellipse cx="912.5" cy="513.2422" fill="#84BE84" rx="3" ry="3" style="stroke:#038048;stroke-width:1.0;"/><text fill="#000000" font-family="sans-serif" font-size="14" lengthAdjust="spacing" textLength="106" x="921.5" y="516.5889">get_reviewers()</text></g><g id="elem_reviews_endpoints"><rect fill="#F1F1F1" height="93.4844" style="stroke:#181818;stroke-width:0.5;" width="181" x="1093.5" y="455.2969"/><text fill="#000000" font-family="sans-serif" font-size="14" lengthAdjust="spacing" textLength="129" x="1119.5" y="470.292">reviews_endpoints</text><line style="stroke:#181818;stroke-width:0.5;" x1="1094.5" x2="1273.5" y1="475.5938" y2="475.5938"/><ellipse cx="1104.5" cy="489.2422" fill="#84BE84" rx="3" ry="3" style="stroke:#038048;stroke-width:1.0;"/><text fill="#000000" font-family="sans-serif" font-size="14" lengthAdjust="spacing" textLength="105" x="1113.5" y="492.5889">create_review()</text><ellipse cx="1104.5" cy="505.5391" fill="#84BE84" rx="3" ry="3" style="stroke:#038048;stroke-width:1.0;"/><text fill="#000000" font-family="sans-serif" font-size="14" lengthAdjust="spacing" textLength="84" x="1113.5" y="508.8857">get_review()</text><ellipse cx="1104.5" cy="521.8359" fill="#84BE84" rx="3" ry="3" style="stroke:#038048;stroke-width:1.0;"/><text fill="#000000" font-family="sans-serif" font-size="14" lengthAdjust="spacing" textLength="155" x="1113.5" y="525.1826">get_reviews_for_user()</text><ellipse cx="1104.5" cy="538.1328" fill="#84BE84" rx="3" ry="3" style="stroke:#038048;stroke-width:1.0;"/><text fill="#000000" font-family="sans-serif" font-size="14" lengthAdjust="spacing" textLength="110" x="1113.5" y="541.4795">update_review()</text></g><g id="elem_utils_note"><path d="M374,236.7969 L374,261.9297 L624,261.9297 L624,246.7969 L614,236.7969 L374,236.7969 " fill="#FEFFDD" style="stroke:#181818;stroke-width:0.5;"/><path d="M614,236.7969 L614,246.7969 L624,246.7969 L614,236.7969 " fill="#FEFFDD" style="stroke:#181818;stroke-width:1.0;"/><text fill="#000000" font-family="sans-serif" font-size="13" lengthAdjust="spacing" textLength="229" x="380" y="253.8638">"utils section minimized in this view"</text></g><g id="elem_model_note"><path d="M54,236.7969 L54,261.9297 L318,261.9297 L318,246.7969 L308,236.7969 L54,236.7969 " fill="#FEFFDD" style="stroke:#181818;stroke-width:0.5;"/><path d="M308,236.7969 L308,246.7969 L318,246.7969 L308,236.7969 " fill="#FEFFDD" style="stroke:#181818;stroke-width:1.0;"/><text fill="#000000" font-family="sans-serif" font-size="13" lengthAdjust="spacing" textLength="243" x="60" y="253.8638">"model section minimized in this view"</text></g><!--class create_app--><g id="elem_create_app"><rect codeLine="139" fill="#F1F1F1" height="56.2656" id="create_app" rx="2.5" ry="2.5" style="stroke:#181818;stroke-width:0.5;" width="109" x="1480.5" y="473.7969"/><ellipse cx="1495.5" cy="493.9297" fill="#ADD1B2" rx="11" ry="11" style="stroke:#181818;stroke-width:1.0;"/><path d="M1498.4688,499.5703 Q1497.8906,499.8672 1497.25,500.0078 Q1496.6094,500.1641 1495.9063,500.1641 Q1493.4063,500.1641 1492.0781,498.5234 Q1490.7656,496.8672 1490.7656,493.7422 Q1490.7656,490.6172 1492.0781,488.9609 Q1493.4063,487.3047 1495.9063,487.3047 Q1496.6094,487.3047 1497.25,487.4609 Q1497.9063,487.6172 1498.4688,487.9141 L1498.4688,490.6328 Q1497.8438,490.0547 1497.25,489.7891 Q1496.6563,489.5078 1496.0313,489.5078 Q1494.6875,489.5078 1494,490.5859 Q1493.3125,491.6484 1493.3125,493.7422 Q1493.3125,495.8359 1494,496.9141 Q1494.6875,497.9766 1496.0313,497.9766 Q1496.6563,497.9766 1497.25,497.7109 Q1497.8438,497.4297 1498.4688,496.8516 L1498.4688,499.5703 Z " fill="#000000"/><text fill="#000000" font-family="sans-serif" font-size="12" font-style="italic" lengthAdjust="spacing" textLength="65" x="1515.5" y="489.9355">«function»</text><text fill="#000000" font-family="sans-serif" font-size="14" lengthAdjust="spacing" textLength="77" x="1509.5" y="505.7607">create_app</text><line style="stroke:#181818;stroke-width:0.5;" x1="1481.5" x2="1588.5" y1="514.0625" y2="514.0625"/><line style="stroke:#181818;stroke-width:0.5;" x1="1481.5" x2="1588.5" y1="522.0625" y2="522.0625"/></g><!--reverse link create_app to common_pkg--><g id="link_create_app_common_pkg"><path codeLine="145" d="M1594.88,501.7969 C1623.95,501.7969 1653.02,501.7969 1682.09,501.7969 C1696.625,501.7969 1711.16,501.7969 1725.695,501.7969 C1732.9625,501.7969 1740.23,501.7969 1747.4975,501.7969 C1751.1313,501.7969 1754.765,501.7969 1758.3987,501.7969 C1759.3072,501.7969 1760.2156,501.7969 1761.1241,501.7969 C1761.3512,501.7969 1761.5783,501.7969 1761.8054,501.7969 " fill="none" id="create_app-backto-common_pkg" style="stroke:#181818;stroke-width:1.0;"/><polygon fill="#181818" points="1589.62,501.7969,1598.62,505.7969,1594.62,501.7969,1598.62,497.7969,1589.62,501.7969" style="stroke:#181818;stroke-width:1.0;"/></g><!--link pht_pkg to create_app--><g id="link_pht_pkg_create_app"><path codeLine="146" d="M1432.2412,268.8995 C1432.3339,269.1085 1432.4272,269.3191 1432.5211,269.5311 C1432.7091,269.9552 1432.8996,270.3852 1433.0928,270.8211 C1433.8654,272.5646 1434.6795,274.4018 1435.532,276.3256 C1442.3522,291.7162 1451.6306,312.6544 1461.7938,335.5894 C1482.12,381.4594 1505.985,435.3169 1520.8,468.7569 " fill="none" id="pht_pkg-to-create_app" style="stroke:#181818;stroke-width:1.0;"/><polygon fill="#181818" points="1522.87,473.4269,1522.8757,463.578,1520.842,468.8566,1515.5633,466.8229,1522.87,473.4269" style="stroke:#181818;stroke-width:1.0;"/></g><!--reverse link create_app to odt_pkg--><g id="link_create_app_odt_pkg"><path codeLine="147" d="M1500.21,533.8169 C1476.77,556.6769 1447.12,589.7669 1430,624.7969 C1425.445,634.1194 1421.9819,644.4694 1419.3489,654.8023 C1418.6907,657.3856 1418.0843,659.9678 1417.5257,662.5326 C1417.3861,663.1738 1417.2495,663.8139 1417.1157,664.4526 " fill="none" id="create_app-backto-odt_pkg" style="stroke:#181818;stroke-width:1.0;"/><polygon fill="#181818" points="1503.91,530.2369,1494.6549,533.6047,1500.3108,533.7076,1500.2079,539.3635,1503.91,530.2369" style="stroke:#181818;stroke-width:1.0;"/></g><!--SRC=[dLTTRnev57tdLrWyTRLALVMvGaf2iedAnogGLjeNoumluCPZkxQ7YAtottizCy1unWFP7Gc1V8xlbttF7Rmsn6koqjxhd71X8VD2gy702o-1F8ZDbanW1v9CDIzmvPk0LwBNPBwOamNOdSZ03GQ6PIzi0sIOwJpNQaYO8zLFQbusvDTWGCf7htwW0tAhbVDCUOS8gPy_oVHnJ3z_ehSFrxFPtMH1lp-Ebmzq-l1FYrCJQlnhX4_ctu_upMH- -xMrlyJdi-NZxFbvUj7ItulbHSvYURrydCzQl9FNjqxksdAXc8Tczi7QtS-2UMq5aq_W39O88lWl9XaUJfO4ds0D5bG6zvRbCRG1JztUUSYpa-iFVyJX7G-G5Nux95- -F66iJ6qaZ4QDCEiS0eaAjDXEOP5f0qVBKVh7pOqefDOlXKbQEXKZMOHeCTDg1zPJooY733-ROtenmMkwgGsq6A58gV9KgDM5uXNUGBgfWRNQqYrJN0grIUPrm_WJ_2p0-Rj0Zh1nOQJ8q7yNccb_7uBe8i_AM8rDwDXAmft2ljrtIJHdBq1jVNDQsN4yPy0K7HNAWrLCKeUT3NKcO5lyAaiEdWdPhfJcZ3QgqDaRSAKzNPSLxUSKIc2HiEGe59PXN0bkj_wvvY2JPRysPXh0-8w5GCTL7btWq6TBop9OONz4b6zC2iw2LhRwiHkLTZndnc0zKv6X5gx5fh2bhGYvj-6Yg6n_Wwb7o4I_zc-R2juFBeeLivRjs-rnejErrJd5c5kdGaEBIFrAFKXmeSzfj2z5pmL_1_rjyDQO89hxSdpWTpqx0WVl31nMm-zoSJWVBuch9XR9XHAv-1Su4OhuhN1aXwDgM191yT92vCXiAqVutN1q4a8Z-dNmUBQ6ARnng3h2XTgX8wD5FDZg6bl0ngOnFwhPGOR-CyLXDrbQk5OZ1N9X-0MltUjQabrFAd4Y2H4zkvwCDCo9JWpMNGu1snb297nD2zlsUU3eLoKru-TPgA16EzQ3eYhtMmYvORFGrPvc-qn2AlMqzIRaw8hvR7kUiQVuqkGBTvQLl0eLoKBeY8hI4vF3abF8KH1RmE4YfRVjAZ5CugdZjM0qZkE-yws23PIBTa96ODq5KpNhNTOkNhkArblV2uLFd4rTsyxskZMhzwXOd52pFXOUnrQVH1tqiYIT51CrirnvbsesTFDS7ENGlHH7DPcRSPGh_o-EICPnigQTPv8vTpWqP25fNQZItMWKJE3J-8zo9M7jhqO4cHzFcmQ7wN0LbAGB7wRKLM4wu6y0]--></g></svg>