<?xml version="1.0" encoding="UTF-8" standalone="no"?><svg xmlns="http://www.w3.org/2000/svg" xmlns:xlink="http://www.w3.org/1999/xlink" contentStyleType="text/css" height="594px" preserveAspectRatio="none" style="width:4574px;height:594px;background:#FFFFFF;" version="1.1" viewBox="0 0 4574 594" width="4574px" zoomAndPan="magnify"><defs/><g><!--cluster common_pkg--><g id="cluster_common_pkg"><path d="M153.5,146 L221.5,146 A3.75,3.75 0 0 1 224,148.5 L231,168.2969 L4205.5,168.2969 A2.5,2.5 0 0 1 4208,170.7969 L4208,584.5 A2.5,2.5 0 0 1 4205.5,587 L153.5,587 A2.5,2.5 0 0 1 151,584.5 L151,148.5 A2.5,2.5 0 0 1 153.5,146 " fill="none" style="stroke:#000000;stroke-width:1.5;"/><line style="stroke:#000000;stroke-width:1.5;" x1="151" x2="231" y1="168.2969" y2="168.2969"/><text fill="#000000" font-family="sans-serif" font-size="14" font-weight="bold" lengthAdjust="spacing" textLength="67" x="155" y="160.9951">common</text></g><!--cluster constants--><g id="cluster_constants"><rect fill="none" height="177" rx="2.5" ry="2.5" style="stroke:#181818;stroke-width:1.0;" width="342" x="825" y="297"/><text fill="#000000" font-family="sans-serif" font-size="14" font-weight="bold" lengthAdjust="spacing" textLength="78" x="957" y="311.9951">constants</text></g><!--cluster api.coordinates--><g id="cluster_api.coordinates"><rect fill="none" height="144" rx="2.5" ry="2.5" style="stroke:#181818;stroke-width:1.0;" width="220" x="581" y="313.5"/><text fill="#000000" font-family="sans-serif" font-size="14" font-weight="bold" lengthAdjust="spacing" textLength="122" x="630" y="328.4951">api.coordinates</text></g><!--cluster auth--><g id="cluster_auth"><rect fill="none" height="96" rx="2.5" ry="2.5" style="stroke:#181818;stroke-width:1.0;" width="122" x="435" y="337.5"/><text fill="#000000" font-family="sans-serif" font-size="14" font-weight="bold" lengthAdjust="spacing" textLength="35" x="478.5" y="352.4951">auth</text></g><!--cluster coordinateslookup--><g id="cluster_coordinateslookup"><rect fill="none" height="177" rx="2.5" ry="2.5" style="stroke:#181818;stroke-width:1.0;" width="220" x="191" y="297"/><text fill="#000000" font-family="sans-serif" font-size="14" font-weight="bold" lengthAdjust="spacing" textLength="147" x="227.5" y="311.9951">coordinateslookup</text></g><!--cluster error_handling--><g id="cluster_error_handling"><rect fill="none" height="242" rx="2.5" ry="2.5" style="stroke:#181818;stroke-width:1.0;" width="310" x="1748" y="264.5"/><text fill="#000000" font-family="sans-serif" font-size="14" font-weight="bold" lengthAdjust="spacing" textLength="115" x="1845.5" y="279.4951">error_handling</text></g><!--cluster model--><g id="cluster_model"><rect fill="none" height="144" rx="2.5" ry="2.5" style="stroke:#181818;stroke-width:1.0;" width="533" x="1191" y="313.5"/><text fill="#000000" font-family="sans-serif" font-size="14" font-weight="bold" lengthAdjust="spacing" textLength="48" x="1433.5" y="328.4951">model</text></g><!--cluster osdmapper--><g id="cluster_osdmapper"><rect fill="none" height="210" rx="2.5" ry="2.5" style="stroke:#181818;stroke-width:1.0;" width="304" x="3872" y="280.5"/><text fill="#000000" font-family="sans-serif" font-size="14" font-weight="bold" lengthAdjust="spacing" textLength="89" x="3979.5" y="295.4951">osdmapper</text></g><!--cluster pht_utils--><g id="cluster_pht_utils"><rect fill="none" height="76" rx="2.5" ry="2.5" style="stroke:#181818;stroke-width:1.0;" width="282" x="3566" y="347.5"/><text fill="#000000" font-family="sans-serif" font-size="14" font-weight="bold" lengthAdjust="spacing" textLength="66" x="3674" y="362.4951">pht_utils</text></g><!--cluster api--><g id="cluster_api"><rect fill="none" height="358" rx="2.5" ry="2.5" style="stroke:#181818;stroke-width:1.0;" width="1460" x="2082" y="197"/><text fill="#000000" font-family="sans-serif" font-size="14" font-weight="bold" lengthAdjust="spacing" textLength="23" x="2800.5" y="211.9951">api</text></g><!--cluster panel_decision--><g id="cluster_panel_decision"><rect fill="none" height="144" rx="2.5" ry="2.5" style="stroke:#181818;stroke-width:1.0;" width="272" x="2106" y="313.5"/><text fill="#000000" font-family="sans-serif" font-size="14" font-weight="bold" lengthAdjust="spacing" textLength="116" x="2184" y="328.4951">panel_decision</text></g><!--cluster panels--><g id="cluster_panels"><rect fill="none" height="128" rx="2.5" ry="2.5" style="stroke:#181818;stroke-width:1.0;" width="208" x="2668" y="321.5"/><text fill="#000000" font-family="sans-serif" font-size="14" font-weight="bold" lengthAdjust="spacing" textLength="52" x="2746" y="336.4951">panels</text></g><!--cluster prsls--><g id="cluster_prsls"><rect fill="none" height="291" rx="2.5" ry="2.5" style="stroke:#181818;stroke-width:1.0;" width="242" x="2402" y="240"/><text fill="#000000" font-family="sans-serif" font-size="14" font-weight="bold" lengthAdjust="spacing" textLength="39" x="2503.5" y="254.9951">prsls</text></g><!--cluster report--><g id="cluster_report"><rect fill="none" height="96" rx="2.5" ry="2.5" style="stroke:#181818;stroke-width:1.0;" width="166" x="3114" y="337.5"/><text fill="#000000" font-family="sans-serif" font-size="14" font-weight="bold" lengthAdjust="spacing" textLength="50" x="3172" y="352.4951">report</text></g><!--cluster reviewers--><g id="cluster_reviewers"><rect fill="none" height="96" rx="2.5" ry="2.5" style="stroke:#181818;stroke-width:1.0;" width="190" x="2900" y="337.5"/><text fill="#000000" font-family="sans-serif" font-size="14" font-weight="bold" lengthAdjust="spacing" textLength="80" x="2955" y="352.4951">reviewers</text></g><!--cluster reviews--><g id="cluster_reviews"><rect fill="none" height="144" rx="2.5" ry="2.5" style="stroke:#181818;stroke-width:1.0;" width="214" x="3304" y="313.5"/><text fill="#000000" font-family="sans-serif" font-size="14" font-weight="bold" lengthAdjust="spacing" textLength="63" x="3379.5" y="328.4951">reviews</text></g><!--cluster odt_pkg--><g id="cluster_odt_pkg"><path d="M4250.5,339.5 L4277.5,339.5 A3.75,3.75 0 0 1 4280,342 L4287,361.7969 L4564.5,361.7969 A2.5,2.5 0 0 1 4567,364.2969 L4567,429 A2.5,2.5 0 0 1 4564.5,431.5 L4250.5,431.5 A2.5,2.5 0 0 1 4248,429 L4248,342 A2.5,2.5 0 0 1 4250.5,339.5 " fill="none" style="stroke:#000000;stroke-width:1.5;"/><line style="stroke:#000000;stroke-width:1.5;" x1="4248" x2="4287" y1="361.7969" y2="361.7969"/><text fill="#000000" font-family="sans-serif" font-size="14" font-weight="bold" lengthAdjust="spacing" textLength="26" x="4252" y="354.4951">odt</text></g><!--cluster app--><g id="cluster_app"><rect fill="none" height="107" rx="2.5" ry="2.5" style="stroke:#181818;stroke-width:1.0;" width="142" x="88" y="7"/><text fill="#000000" font-family="sans-serif" font-size="14" font-weight="bold" lengthAdjust="spacing" textLength="29" x="144.5" y="21.9951">app</text></g><g id="elem_constants_items"><rect fill="#F1F1F1" height="126.0781" style="stroke:#181818;stroke-width:0.5;" width="310" x="841" y="332"/><text fill="#000000" font-family="sans-serif" font-size="14" lengthAdjust="spacing" textLength="114" x="939" y="346.9951">constants_items</text><line style="stroke:#181818;stroke-width:0.5;" x1="842" x2="1150" y1="352.2969" y2="352.2969"/><ellipse cx="852" cy="365.9453" fill="none" rx="3" ry="3" style="stroke:#038048;stroke-width:1.0;"/><text fill="#000000" font-family="sans-serif" font-size="14" lengthAdjust="spacing" textLength="187" x="861" y="369.292">MID_CHANNEL_WIDTH_KHZ</text><ellipse cx="852" cy="382.2422" fill="none" rx="3" ry="3" style="stroke:#038048;stroke-width:1.0;"/><text fill="#000000" font-family="sans-serif" font-size="14" lengthAdjust="spacing" textLength="224" x="861" y="385.5889">MID_20_CHANNELS_WIDTH_MHZ</text><ellipse cx="852" cy="398.5391" fill="none" rx="3" ry="3" style="stroke:#038048;stroke-width:1.0;"/><text fill="#000000" font-family="sans-serif" font-size="14" lengthAdjust="spacing" textLength="262" x="861" y="401.8857">LOW_STATION_CHANNEL_WIDTH_MHZ</text><ellipse cx="852" cy="414.8359" fill="none" rx="3" ry="3" style="stroke:#038048;stroke-width:1.0;"/><text fill="#000000" font-family="sans-serif" font-size="14" lengthAdjust="spacing" textLength="196" x="861" y="418.1826">LOW_CHANNEL_BLOCK_MHZ</text><ellipse cx="852" cy="431.1328" fill="none" rx="3" ry="3" style="stroke:#038048;stroke-width:1.0;"/><text fill="#000000" font-family="sans-serif" font-size="14" lengthAdjust="spacing" textLength="284" x="861" y="434.4795">LOW_CONTINUUM_CHANNEL_WIDTH_KHZ</text><ellipse cx="852" cy="447.4297" fill="none" rx="3" ry="3" style="stroke:#038048;stroke-width:1.0;"/><text fill="#000000" font-family="sans-serif" font-size="14" lengthAdjust="spacing" textLength="226" x="861" y="450.7764">LOW_PST_CHANNEL_WIDTH_KHZ</text></g><g id="elem_coordinates_items"><rect fill="#F1F1F1" height="93.4844" style="stroke:#181818;stroke-width:0.5;" width="188" x="597" y="348.5"/><text fill="#000000" font-family="sans-serif" font-size="14" lengthAdjust="spacing" textLength="127" x="627.5" y="363.4951">coordinates_items</text><line style="stroke:#181818;stroke-width:0.5;" x1="598" x2="784" y1="368.7969" y2="368.7969"/><ellipse cx="608" cy="382.4453" fill="none" rx="3" ry="3" style="stroke:#038048;stroke-width:1.0;"/><text fill="#000000" font-family="sans-serif" font-size="14" lengthAdjust="spacing" textLength="115" x="617" y="385.792">ReferenceFrame</text><ellipse cx="608" cy="398.7422" fill="none" rx="3" ry="3" style="stroke:#038048;stroke-width:1.0;"/><text fill="#000000" font-family="sans-serif" font-size="14" lengthAdjust="spacing" textLength="139" x="617" y="402.0889">EquatorialResponse</text><ellipse cx="608" cy="415.0391" fill="none" rx="3" ry="3" style="stroke:#038048;stroke-width:1.0;"/><text fill="#000000" font-family="sans-serif" font-size="14" lengthAdjust="spacing" textLength="125" x="617" y="418.3857">GalacticResponse</text><ellipse cx="608" cy="431.3359" fill="none" rx="3" ry="3" style="stroke:#038048;stroke-width:1.0;"/><text fill="#000000" font-family="sans-serif" font-size="14" lengthAdjust="spacing" textLength="162" x="617" y="434.6826">get_systemcoordinates</text></g><g id="elem_auth_items"><rect fill="#F1F1F1" height="44.5938" style="stroke:#181818;stroke-width:0.5;" width="90" x="451" y="372.5"/><text fill="#000000" font-family="sans-serif" font-size="14" lengthAdjust="spacing" textLength="76" x="458" y="387.4951">auth_items</text><line style="stroke:#181818;stroke-width:0.5;" x1="452" x2="540" y1="392.7969" y2="392.7969"/><ellipse cx="462" cy="406.4453" fill="none" rx="3" ry="3" style="stroke:#038048;stroke-width:1.0;"/><text fill="#000000" font-family="sans-serif" font-size="14" lengthAdjust="spacing" textLength="44" x="471" y="409.792">Scope</text></g><g id="elem_coordinateslookup_items"><rect fill="#F1F1F1" height="126.0781" style="stroke:#181818;stroke-width:0.5;" width="188" x="207" y="332"/><text fill="#000000" font-family="sans-serif" font-size="14" lengthAdjust="spacing" textLength="174" x="214" y="346.9951">coordinateslookup_items</text><line style="stroke:#181818;stroke-width:0.5;" x1="208" x2="394" y1="352.2969" y2="352.2969"/><ellipse cx="218" cy="365.9453" fill="none" rx="3" ry="3" style="stroke:#038048;stroke-width:1.0;"/><text fill="#000000" font-family="sans-serif" font-size="14" lengthAdjust="spacing" textLength="68" x="227" y="369.292">Equatorial</text><ellipse cx="218" cy="382.2422" fill="none" rx="3" ry="3" style="stroke:#038048;stroke-width:1.0;"/><text fill="#000000" font-family="sans-serif" font-size="14" lengthAdjust="spacing" textLength="54" x="227" y="385.5889">Galactic</text><ellipse cx="218" cy="398.5391" fill="#84BE84" rx="3" ry="3" style="stroke:#038048;stroke-width:1.0;"/><text fill="#000000" font-family="sans-serif" font-size="14" lengthAdjust="spacing" textLength="98" x="227" y="401.8857">round_coord()</text><ellipse cx="218" cy="414.8359" fill="#84BE84" rx="3" ry="3" style="stroke:#038048;stroke-width:1.0;"/><text fill="#000000" font-family="sans-serif" font-size="14" lengthAdjust="spacing" textLength="149" x="227" y="418.1826">convert_ra_dec_deg()</text><ellipse cx="218" cy="431.1328" fill="#84BE84" rx="3" ry="3" style="stroke:#038048;stroke-width:1.0;"/><text fill="#000000" font-family="sans-serif" font-size="14" lengthAdjust="spacing" textLength="142" x="227" y="434.4795">convert_to_galactic()</text><ellipse cx="218" cy="447.4297" fill="#84BE84" rx="3" ry="3" style="stroke:#038048;stroke-width:1.0;"/><text fill="#000000" font-family="sans-serif" font-size="14" lengthAdjust="spacing" textLength="122" x="227" y="450.7764">get_coordinates()</text></g><g id="elem_error_handling_items"><rect fill="#F1F1F1" height="191.2656" style="stroke:#181818;stroke-width:0.5;" width="278" x="1764" y="299.5"/><text fill="#000000" font-family="sans-serif" font-size="14" lengthAdjust="spacing" textLength="144" x="1831" y="314.4951">error_handling_items</text><line style="stroke:#181818;stroke-width:0.5;" x1="1765" x2="2041" y1="319.7969" y2="319.7969"/><ellipse cx="1775" cy="333.4453" fill="#84BE84" rx="3" ry="3" style="stroke:#038048;stroke-width:1.0;"/><text fill="#000000" font-family="sans-serif" font-size="14" lengthAdjust="spacing" textLength="95" x="1784" y="336.792">error_details()</text><ellipse cx="1775" cy="349.7422" fill="none" rx="3" ry="3" style="stroke:#038048;stroke-width:1.0;"/><text fill="#000000" font-family="sans-serif" font-size="14" lengthAdjust="spacing" textLength="119" x="1784" y="353.0889">BadRequestError</text><ellipse cx="1775" cy="366.0391" fill="none" rx="3" ry="3" style="stroke:#038048;stroke-width:1.0;"/><text fill="#000000" font-family="sans-serif" font-size="14" lengthAdjust="spacing" textLength="98" x="1784" y="369.3857">DuplicateError</text><ellipse cx="1775" cy="382.3359" fill="none" rx="3" ry="3" style="stroke:#038048;stroke-width:1.0;"/><text fill="#000000" font-family="sans-serif" font-size="14" lengthAdjust="spacing" textLength="175" x="1784" y="385.6826">UnprocessableEntityError</text><ellipse cx="1775" cy="398.6328" fill="none" rx="3" ry="3" style="stroke:#038048;stroke-width:1.0;"/><text fill="#000000" font-family="sans-serif" font-size="14" lengthAdjust="spacing" textLength="101" x="1784" y="401.9795">NotFoundError</text><ellipse cx="1775" cy="414.9297" fill="#84BE84" rx="3" ry="3" style="stroke:#038048;stroke-width:1.0;"/><text fill="#000000" font-family="sans-serif" font-size="14" lengthAdjust="spacing" textLength="128" x="1784" y="418.2764">_make_response()</text><ellipse cx="1775" cy="431.2266" fill="#84BE84" rx="3" ry="3" style="stroke:#038048;stroke-width:1.0;"/><text fill="#000000" font-family="sans-serif" font-size="14" lengthAdjust="spacing" textLength="172" x="1784" y="434.5732">oda_not_found_handler()</text><ellipse cx="1775" cy="447.5234" fill="#84BE84" rx="3" ry="3" style="stroke:#038048;stroke-width:1.0;"/><text fill="#000000" font-family="sans-serif" font-size="14" lengthAdjust="spacing" textLength="135" x="1784" y="450.8701">oda_error_handler()</text><ellipse cx="1775" cy="463.8203" fill="#84BE84" rx="3" ry="3" style="stroke:#038048;stroke-width:1.0;"/><text fill="#000000" font-family="sans-serif" font-size="14" lengthAdjust="spacing" textLength="226" x="1784" y="467.167">oda_unique_constraint_handler()</text><ellipse cx="1775" cy="480.1172" fill="#84BE84" rx="3" ry="3" style="stroke:#038048;stroke-width:1.0;"/><text fill="#000000" font-family="sans-serif" font-size="14" lengthAdjust="spacing" textLength="252" x="1784" y="483.4639">dangerous_internal_server_handler()</text></g><g id="elem_model_items"><rect fill="#F1F1F1" height="93.4844" style="stroke:#181818;stroke-width:0.5;" width="202" x="1506" y="348.5"/><text fill="#000000" font-family="sans-serif" font-size="14" lengthAdjust="spacing" textLength="88" x="1563" y="363.4951">model_items</text><line style="stroke:#181818;stroke-width:0.5;" x1="1507" x2="1707" y1="368.7969" y2="368.7969"/><ellipse cx="1517" cy="382.4453" fill="none" rx="3" ry="3" style="stroke:#038048;stroke-width:1.0;"/><text fill="#000000" font-family="sans-serif" font-size="14" lengthAdjust="spacing" textLength="69" x="1526" y="385.792">AppModel</text><ellipse cx="1517" cy="398.7422" fill="none" rx="3" ry="3" style="stroke:#038048;stroke-width:1.0;"/><text fill="#000000" font-family="sans-serif" font-size="14" lengthAdjust="spacing" textLength="137" x="1526" y="402.0889">ValidationResponse</text><ellipse cx="1517" cy="415.0391" fill="none" rx="3" ry="3" style="stroke:#038048;stroke-width:1.0;"/><text fill="#000000" font-family="sans-serif" font-size="14" lengthAdjust="spacing" textLength="176" x="1526" y="418.3857">ErrorResponseTraceback</text><ellipse cx="1517" cy="431.3359" fill="none" rx="3" ry="3" style="stroke:#038048;stroke-width:1.0;"/><text fill="#000000" font-family="sans-serif" font-size="14" lengthAdjust="spacing" textLength="80" x="1526" y="434.6826">ErrorDetails</text></g><g id="elem_model_note"><path d="M1207,382.5 L1207,407.6328 L1471,407.6328 L1471,392.5 L1461,382.5 L1207,382.5 " fill="#FEFFDD" style="stroke:#181818;stroke-width:0.5;"/><path d="M1461,382.5 L1461,392.5 L1471,392.5 L1461,382.5 " fill="#FEFFDD" style="stroke:#181818;stroke-width:1.0;"/><text fill="#000000" font-family="sans-serif" font-size="13" lengthAdjust="spacing" textLength="243" x="1213" y="399.5669">"model section minimised in this view"</text></g><g id="elem_osdmapper_items"><rect fill="#F1F1F1" height="158.6719" style="stroke:#181818;stroke-width:0.5;" width="271" x="3888.5" y="315.5"/><text fill="#000000" font-family="sans-serif" font-size="14" lengthAdjust="spacing" textLength="124" x="3962" y="330.4951">osdmapper_items</text><line style="stroke:#181818;stroke-width:0.5;" x1="3889.5" x2="4158.5" y1="335.7969" y2="335.7969"/><ellipse cx="3899.5" cy="349.4453" fill="none" rx="3" ry="3" style="stroke:#038048;stroke-width:1.0;"/><text fill="#000000" font-family="sans-serif" font-size="14" lengthAdjust="spacing" textLength="109" x="3908.5" y="352.792">FrequencyBand</text><ellipse cx="3899.5" cy="365.7422" fill="none" rx="3" ry="3" style="stroke:#038048;stroke-width:1.0;"/><text fill="#000000" font-family="sans-serif" font-size="14" lengthAdjust="spacing" textLength="60" x="3908.5" y="369.0889">Subarray</text><ellipse cx="3899.5" cy="382.0391" fill="none" rx="3" ry="3" style="stroke:#038048;stroke-width:1.0;"/><text fill="#000000" font-family="sans-serif" font-size="14" lengthAdjust="spacing" textLength="116" x="3908.5" y="385.3857">MidConfiguration</text><ellipse cx="3899.5" cy="398.3359" fill="none" rx="3" ry="3" style="stroke:#038048;stroke-width:1.0;"/><text fill="#000000" font-family="sans-serif" font-size="14" lengthAdjust="spacing" textLength="119" x="3908.5" y="401.6826">LowConfiguration</text><ellipse cx="3899.5" cy="414.6328" fill="none" rx="3" ry="3" style="stroke:#038048;stroke-width:1.0;"/><text fill="#000000" font-family="sans-serif" font-size="14" lengthAdjust="spacing" textLength="92" x="3908.5" y="417.9795">Configuration</text><ellipse cx="3899.5" cy="430.9297" fill="#84BE84" rx="3" ry="3" style="stroke:#038048;stroke-width:1.0;"/><text fill="#000000" font-family="sans-serif" font-size="14" lengthAdjust="spacing" textLength="171" x="3908.5" y="434.2764">configuration_from_osd()</text><ellipse cx="3899.5" cy="447.2266" fill="#84BE84" rx="3" ry="3" style="stroke:#038048;stroke-width:1.0;"/><text fill="#000000" font-family="sans-serif" font-size="14" lengthAdjust="spacing" textLength="245" x="3908.5" y="450.5732">_get_mid_telescope_configuration()</text><ellipse cx="3899.5" cy="463.5234" fill="#84BE84" rx="3" ry="3" style="stroke:#038048;stroke-width:1.0;"/><text fill="#000000" font-family="sans-serif" font-size="14" lengthAdjust="spacing" textLength="243" x="3908.5" y="466.8701">_get_low_telescope_configuration()</text></g><g id="elem_pht_utils_note"><path d="M3582,382.5 L3582,407.6328 L3832,407.6328 L3832,392.5 L3822,382.5 L3582,382.5 " fill="#FEFFDD" style="stroke:#181818;stroke-width:0.5;"/><path d="M3822,382.5 L3822,392.5 L3832,392.5 L3822,382.5 " fill="#FEFFDD" style="stroke:#181818;stroke-width:1.0;"/><text fill="#000000" font-family="sans-serif" font-size="13" lengthAdjust="spacing" textLength="229" x="3588" y="399.5669">"utils section minimised in this view"</text></g><g id="elem_panel_decision_endpoints"><rect fill="#F1F1F1" height="93.4844" style="stroke:#181818;stroke-width:0.5;" width="240" x="2122" y="348.5"/><text fill="#000000" font-family="sans-serif" font-size="14" lengthAdjust="spacing" textLength="180" x="2152" y="363.4951">panel_decision_endpoints</text><line style="stroke:#181818;stroke-width:0.5;" x1="2123" x2="2361" y1="368.7969" y2="368.7969"/><ellipse cx="2133" cy="382.4453" fill="#84BE84" rx="3" ry="3" style="stroke:#038048;stroke-width:1.0;"/><text fill="#000000" font-family="sans-serif" font-size="14" lengthAdjust="spacing" textLength="164" x="2142" y="385.792">create_panel_decision()</text><ellipse cx="2133" cy="398.7422" fill="#84BE84" rx="3" ry="3" style="stroke:#038048;stroke-width:1.0;"/><text fill="#000000" font-family="sans-serif" font-size="14" lengthAdjust="spacing" textLength="143" x="2142" y="402.0889">get_panel_decision()</text><ellipse cx="2133" cy="415.0391" fill="#84BE84" rx="3" ry="3" style="stroke:#038048;stroke-width:1.0;"/><text fill="#000000" font-family="sans-serif" font-size="14" lengthAdjust="spacing" textLength="214" x="2142" y="418.3857">get_panel_decisions_for_user()</text><ellipse cx="2133" cy="431.3359" fill="#84BE84" rx="3" ry="3" style="stroke:#038048;stroke-width:1.0;"/><text fill="#000000" font-family="sans-serif" font-size="14" lengthAdjust="spacing" textLength="169" x="2142" y="434.6826">update_panel_decision()</text></g><g id="elem_panels_endpoints"><rect fill="#F1F1F1" height="77.1875" style="stroke:#181818;stroke-width:0.5;" width="175" x="2684.5" y="356.5"/><text fill="#000000" font-family="sans-serif" font-size="14" lengthAdjust="spacing" textLength="123" x="2710.5" y="371.4951">panels_endpoints</text><line style="stroke:#181818;stroke-width:0.5;" x1="2685.5" x2="2858.5" y1="376.7969" y2="376.7969"/><ellipse cx="2695.5" cy="390.4453" fill="#84BE84" rx="3" ry="3" style="stroke:#038048;stroke-width:1.0;"/><text fill="#000000" font-family="sans-serif" font-size="14" lengthAdjust="spacing" textLength="99" x="2704.5" y="393.792">create_panel()</text><ellipse cx="2695.5" cy="406.7422" fill="#84BE84" rx="3" ry="3" style="stroke:#038048;stroke-width:1.0;"/><text fill="#000000" font-family="sans-serif" font-size="14" lengthAdjust="spacing" textLength="78" x="2704.5" y="410.0889">get_panel()</text><ellipse cx="2695.5" cy="423.0391" fill="#84BE84" rx="3" ry="3" style="stroke:#038048;stroke-width:1.0;"/><text fill="#000000" font-family="sans-serif" font-size="14" lengthAdjust="spacing" textLength="149" x="2704.5" y="426.3857">get_panels_for_user()</text></g><g id="elem_prsls_endpoints"><rect fill="#F1F1F1" height="240.1563" style="stroke:#181818;stroke-width:0.5;" width="210" x="2418" y="275"/><text fill="#000000" font-family="sans-serif" font-size="14" lengthAdjust="spacing" textLength="110" x="2468" y="289.9951">prsls_endpoints</text><line style="stroke:#181818;stroke-width:0.5;" x1="2419" x2="2627" y1="295.2969" y2="295.2969"/><ellipse cx="2429" cy="308.9453" fill="#84BE84" rx="3" ry="3" style="stroke:#038048;stroke-width:1.0;"/><text fill="#000000" font-family="sans-serif" font-size="14" lengthAdjust="spacing" textLength="131" x="2438" y="312.292">get_osd_by_cycle()</text><ellipse cx="2429" cy="325.2422" fill="#84BE84" rx="3" ry="3" style="stroke:#038048;stroke-width:1.0;"/><text fill="#000000" font-family="sans-serif" font-size="14" lengthAdjust="spacing" textLength="121" x="2438" y="328.5889">create_proposal()</text><ellipse cx="2429" cy="341.5391" fill="#84BE84" rx="3" ry="3" style="stroke:#038048;stroke-width:1.0;"/><text fill="#000000" font-family="sans-serif" font-size="14" lengthAdjust="spacing" textLength="100" x="2438" y="344.8857">get_proposal()</text><ellipse cx="2429" cy="357.8359" fill="#84BE84" rx="3" ry="3" style="stroke:#038048;stroke-width:1.0;"/><text fill="#000000" font-family="sans-serif" font-size="14" lengthAdjust="spacing" textLength="154" x="2438" y="361.1826">get_proposals_batch()</text><ellipse cx="2429" cy="374.1328" fill="#84BE84" rx="3" ry="3" style="stroke:#038048;stroke-width:1.0;"/><text fill="#000000" font-family="sans-serif" font-size="14" lengthAdjust="spacing" textLength="181" x="2438" y="377.4795">get_proposals_by_status()</text><ellipse cx="2429" cy="390.4297" fill="#84BE84" rx="3" ry="3" style="stroke:#038048;stroke-width:1.0;"/><text fill="#000000" font-family="sans-serif" font-size="14" lengthAdjust="spacing" textLength="184" x="2438" y="393.7764">get_reviews_for_proposal()</text><ellipse cx="2429" cy="406.7266" fill="#84BE84" rx="3" ry="3" style="stroke:#038048;stroke-width:1.0;"/><text fill="#000000" font-family="sans-serif" font-size="14" lengthAdjust="spacing" textLength="171" x="2438" y="410.0732">get_proposals_for_user()</text><ellipse cx="2429" cy="423.0234" fill="#84BE84" rx="3" ry="3" style="stroke:#038048;stroke-width:1.0;"/><text fill="#000000" font-family="sans-serif" font-size="14" lengthAdjust="spacing" textLength="126" x="2438" y="426.3701">update_proposal()</text><ellipse cx="2429" cy="439.3203" fill="#84BE84" rx="3" ry="3" style="stroke:#038048;stroke-width:1.0;"/><text fill="#000000" font-family="sans-serif" font-size="14" lengthAdjust="spacing" textLength="129" x="2438" y="442.667">validate_proposal()</text><ellipse cx="2429" cy="455.6172" fill="#84BE84" rx="3" ry="3" style="stroke:#038048;stroke-width:1.0;"/><text fill="#000000" font-family="sans-serif" font-size="14" lengthAdjust="spacing" textLength="88" x="2438" y="458.9639">send_email()</text><ellipse cx="2429" cy="471.9141" fill="#84BE84" rx="3" ry="3" style="stroke:#038048;stroke-width:1.0;"/><text fill="#000000" font-family="sans-serif" font-size="14" lengthAdjust="spacing" textLength="161" x="2438" y="475.2607">create_upload_pdf_url()</text><ellipse cx="2429" cy="488.2109" fill="#84BE84" rx="3" ry="3" style="stroke:#038048;stroke-width:1.0;"/><text fill="#000000" font-family="sans-serif" font-size="14" lengthAdjust="spacing" textLength="181" x="2438" y="491.5576">create_download_pdf_url()</text><ellipse cx="2429" cy="504.5078" fill="#84BE84" rx="3" ry="3" style="stroke:#038048;stroke-width:1.0;"/><text fill="#000000" font-family="sans-serif" font-size="14" lengthAdjust="spacing" textLength="158" x="2438" y="507.8545">create_delete_pdf_url()</text></g><g id="elem_report_endpoints"><rect fill="#F1F1F1" height="44.5938" style="stroke:#181818;stroke-width:0.5;" width="133" x="3130.5" y="372.5"/><text fill="#000000" font-family="sans-serif" font-size="14" lengthAdjust="spacing" textLength="119" x="3137.5" y="387.4951">report_endpoints</text><line style="stroke:#181818;stroke-width:0.5;" x1="3131.5" x2="3262.5" y1="392.7969" y2="392.7969"/><ellipse cx="3141.5" cy="406.4453" fill="#84BE84" rx="3" ry="3" style="stroke:#038048;stroke-width:1.0;"/><text fill="#000000" font-family="sans-serif" font-size="14" lengthAdjust="spacing" textLength="82" x="3150.5" y="409.792">get_report()</text></g><g id="elem_reviewers_endpoints"><rect fill="#F1F1F1" height="44.5938" style="stroke:#181818;stroke-width:0.5;" width="157" x="2916.5" y="372.5"/><text fill="#000000" font-family="sans-serif" font-size="14" lengthAdjust="spacing" textLength="143" x="2923.5" y="387.4951">reviewers_endpoints</text><line style="stroke:#181818;stroke-width:0.5;" x1="2917.5" x2="3072.5" y1="392.7969" y2="392.7969"/><ellipse cx="2927.5" cy="406.4453" fill="#84BE84" rx="3" ry="3" style="stroke:#038048;stroke-width:1.0;"/><text fill="#000000" font-family="sans-serif" font-size="14" lengthAdjust="spacing" textLength="106" x="2936.5" y="409.792">get_reviewers()</text></g><g id="elem_reviews_endpoints"><rect fill="#F1F1F1" height="93.4844" style="stroke:#181818;stroke-width:0.5;" width="181" x="3320.5" y="348.5"/><text fill="#000000" font-family="sans-serif" font-size="14" lengthAdjust="spacing" textLength="129" x="3346.5" y="363.4951">reviews_endpoints</text><line style="stroke:#181818;stroke-width:0.5;" x1="3321.5" x2="3500.5" y1="368.7969" y2="368.7969"/><ellipse cx="3331.5" cy="382.4453" fill="#84BE84" rx="3" ry="3" style="stroke:#038048;stroke-width:1.0;"/><text fill="#000000" font-family="sans-serif" font-size="14" lengthAdjust="spacing" textLength="105" x="3340.5" y="385.792">create_review()</text><ellipse cx="3331.5" cy="398.7422" fill="#84BE84" rx="3" ry="3" style="stroke:#038048;stroke-width:1.0;"/><text fill="#000000" font-family="sans-serif" font-size="14" lengthAdjust="spacing" textLength="84" x="3340.5" y="402.0889">get_review()</text><ellipse cx="3331.5" cy="415.0391" fill="#84BE84" rx="3" ry="3" style="stroke:#038048;stroke-width:1.0;"/><text fill="#000000" font-family="sans-serif" font-size="14" lengthAdjust="spacing" textLength="155" x="3340.5" y="418.3857">get_reviews_for_user()</text><ellipse cx="3331.5" cy="431.3359" fill="#84BE84" rx="3" ry="3" style="stroke:#038048;stroke-width:1.0;"/><text fill="#000000" font-family="sans-serif" font-size="14" lengthAdjust="spacing" textLength="110" x="3340.5" y="434.6826">update_review()</text></g><g id="elem_odt_note"><path d="M4291.5,382.5 L4291.5,407.6328 L4542.5,407.6328 L4542.5,392.5 L4532.5,382.5 L4291.5,382.5 " fill="#FEFFDD" style="stroke:#181818;stroke-width:0.5;"/><path d="M4532.5,382.5 L4532.5,392.5 L4542.5,392.5 L4532.5,382.5 " fill="#FEFFDD" style="stroke:#181818;stroke-width:1.0;"/><text fill="#000000" font-family="sans-serif" font-size="13" lengthAdjust="spacing" textLength="230" x="4297.5" y="399.5669">"ODT section minimised in this view"</text></g><!--entity pht_pkg--><g id="elem_pht_pkg"><path d="M8.5,359 L77.5,359 A3.75,3.75 0 0 1 80,361.5 L87,381.2969 L121.5,381.2969 A2.5,2.5 0 0 1 124,383.7969 L124,428.3906 A2.5,2.5 0 0 1 121.5,430.8906 L8.5,430.8906 A2.5,2.5 0 0 1 6,428.3906 L6,361.5 A2.5,2.5 0 0 1 8.5,359 " fill="#F1F1F1" style="stroke:#181818;stroke-width:0.5;"/><line style="stroke:#181818;stroke-width:0.5;" x1="6" x2="87" y1="381.2969" y2="381.2969"/><text fill="#000000" font-family="sans-serif" font-size="14" lengthAdjust="spacing" textLength="56" x="16" y="374.9951">pht_pkg</text><text fill="#000000" font-family="sans-serif" font-size="14" font-style="italic" lengthAdjust="spacing" textLength="88" x="16" y="401.292">«Rectangle»</text><text fill="#000000" font-family="sans-serif" font-size="14" lengthAdjust="spacing" textLength="23" x="48.5" y="417.5889">pht</text></g><!--class create_app--><g id="elem_create_app"><rect codeLine="158" fill="#F1F1F1" height="56.2656" id="create_app" rx="2.5" ry="2.5" style="stroke:#181818;stroke-width:0.5;" width="109" x="104.5" y="42"/><ellipse cx="119.5" cy="62.1328" fill="#ADD1B2" rx="11" ry="11" style="stroke:#181818;stroke-width:1.0;"/><path d="M122.4688,67.7734 Q121.8906,68.0703 121.25,68.2109 Q120.6094,68.3672 119.9063,68.3672 Q117.4063,68.3672 116.0781,66.7266 Q114.7656,65.0703 114.7656,61.9453 Q114.7656,58.8203 116.0781,57.1641 Q117.4063,55.5078 119.9063,55.5078 Q120.6094,55.5078 121.25,55.6641 Q121.9063,55.8203 122.4688,56.1172 L122.4688,58.8359 Q121.8438,58.2578 121.25,57.9922 Q120.6563,57.7109 120.0313,57.7109 Q118.6875,57.7109 118,58.7891 Q117.3125,59.8516 117.3125,61.9453 Q117.3125,64.0391 118,65.1172 Q118.6875,66.1797 120.0313,66.1797 Q120.6563,66.1797 121.25,65.9141 Q121.8438,65.6328 122.4688,65.0547 L122.4688,67.7734 Z " fill="#000000"/><text fill="#000000" font-family="sans-serif" font-size="12" font-style="italic" lengthAdjust="spacing" textLength="65" x="139.5" y="58.1387">«function»</text><text fill="#000000" font-family="sans-serif" font-size="14" lengthAdjust="spacing" textLength="77" x="133.5" y="73.9639">create_app</text><line style="stroke:#181818;stroke-width:0.5;" x1="105.5" x2="212.5" y1="82.2656" y2="82.2656"/><line style="stroke:#181818;stroke-width:0.5;" x1="105.5" x2="212.5" y1="90.2656" y2="90.2656"/></g><!--reverse link create_app to common_pkg--><g id="link_create_app_common_pkg"><path codeLine="162" d="M159,103.39 C159,113.4587 159,125.4475 159,138.7316 C159,140.3921 159,142.0728 159,143.7726 C159,144.1975 159,144.6237 159,145.051 " fill="none" id="create_app-backto-common_pkg" style="stroke:#181818;stroke-width:1.0;"/><polygon fill="#181818" points="159,98.26,155,107.26,159,103.26,163,107.26,159,98.26" style="stroke:#181818;stroke-width:1.0;"/></g><!--reverse link create_app to odt_pkg--><g id="link_create_app_odt_pkg"><path codeLine="163" d="M219.14,70.9 C713.69,70.21 4093.39,67.77 4176,130 C4224.2,166.31 4244.3325,230.83 4252.35,286.995 C4254.3544,301.0363 4255.6016,314.5553 4256.3408,326.9809 C4256.5256,330.0872 4256.6787,333.1253 4256.8039,336.0861 C4256.8352,336.8263 4256.8648,337.5616 4256.8927,338.292 C4256.9066,338.6572 4256.9201,339.0212 4256.9332,339.3839 " fill="none" id="create_app-backto-odt_pkg" style="stroke:#181818;stroke-width:1.0;"/><polygon fill="#181818" points="213.81,70.91,222.8214,74.8843,218.81,70.8957,222.7985,66.8843,213.81,70.91" style="stroke:#181818;stroke-width:1.0;"/></g><!--reverse link create_app to pht_pkg--><g id="link_create_app_pht_pkg"><path codeLine="164" d="M149.62,103.23 C131.88,164.2 93.54,295.95 75.19,358.99 " fill="none" id="create_app-backto-pht_pkg" style="stroke:#181818;stroke-width:1.0;"/><polygon fill="#181818" points="151.07,98.26,144.71,105.78,149.67,103.06,152.39,108.02,151.07,98.26" style="stroke:#181818;stroke-width:1.0;"/></g><!--SRC=[fLVRRjiu47ttLn1-wIwA5aMVYm19d3H14xj8d0Re2q6JOvkDHB8abS0eykyTwk9GCYLviG6Cs7EEE6Skcf6yDiHhijBUwvm8QO5xgTLaOXX_OXiWKwxpNAifOOvKNwbvsf0_4q8YYdAUAU-cvCkNEpo1gKq69oSbYn2z-eKsicTHwI5tDHZ-tfFRwnazlpgTpozkwEFrR7b5lrtzxE2VFpMK-vfps-BSB1xf_V9qURsOTyuwv3NusStY_5iANyoNr_E7Xzj1LO7v_NxPmtcTX4-S9sRaHwwr5L8n3sFPslCI-Rg3DLXG72ujoo42BduNp6ihMNO7pc36O_0honYMboUW3NZgTWuTHOxxmYZyTb1x82H4ttDjeEVCo6kczLDXZarEnKvuUyj48WEHoUf22LgU-C-_aHtRzHcifvPH0Hm_coJiDTtKXxRmaD18PeqT1WxMQaktJ8bCgirWr6rg8kIA8C0pcRcMcZCcxk1t0SvV14w4p0gJIOuIky23CbPpS8wjChXGNlfTbpBN_Z9ahskdENi2QkikQmdHWb6bFLsNMIzZ0Nl0Y29De8MI60ejvubbKlaaKs0E0OkBju_oO1NBg0EBDUkm3qkIQm7PO2LAHg80fyRS1YWo_M2P52pCrCHTLoQkiIyjux124Lt2h2feZrhjHCwC0JkeUCzAgBwqeJKKtvrXOkBxjLWnQzakdiDId6krbfl2bZ75mr2_z45zTXxRwThgdABELXLfk8zoAQY735mO8BHrrI4vqoyZv2g7hz6EqyAN2mx_xxSRTYaqjl0TJTF5R4bSjI59BfNCfGD1f29-Anrvbl0oHHeeKLxTSc6slbiWF1ojX-jqeFyQKLK3rh98VSaHqY9ntJuAKWgFVJRiUK-Bl9U__vztN8rfls_wcCAGSHHB9yFpI8gyR_SscQ9Ret4CjFkUMy2vHzlSWo7-ds27WytImdLcKM74WAVNkYiJyRfZudH7n9VMdROcWkYHQDsumi3f4HWyuWrFLplATpnhRuf6lTL6EvQGEWOukcAURuVm7SKdKb-u0uw5qBDL8evmD5ZqrENFrLReGHscYqAEGp-L4LpOcWbgn9eMDiaG-aMDSd141lyTHhhG5eosVgJI5McWr1LXr5N8F5Wtwgtc3JgiEKVvFCxZoCrMaNhwQR3D-lgdS-bhpmh3vPxIppFcN2CEEKXP5weSr2SduO1tv8RjT56_dfMFKowy4O92KHom5msh5tVq-lUXC1zmWHdpyUteIRCzas2pwLBWNm00]--></g></svg>