<?xml version="1.0" encoding="UTF-8" standalone="no"?><svg xmlns="http://www.w3.org/2000/svg" xmlns:xlink="http://www.w3.org/1999/xlink" contentStyleType="text/css" height="791px" preserveAspectRatio="none" style="width:1741px;height:791px;background:#FFFFFF;" version="1.1" viewBox="0 0 1741 791" width="1741px" zoomAndPan="magnify"><defs/><g><text fill="#000000" font-family="sans-serif" font-size="14" font-weight="bold" lengthAdjust="spacing" textLength="150" x="788.5" y="22.9951">Detailed View: PHT</text><!--cluster pht_pkg--><g id="cluster_pht_pkg"><path d="M8.5,43.2969 L35.5,43.2969 A3.75,3.75 0 0 1 38,45.7969 L45,65.5938 L1731.5,65.5938 A2.5,2.5 0 0 1 1734,68.0938 L1734,781.7969 A2.5,2.5 0 0 1 1731.5,784.2969 L8.5,784.2969 A2.5,2.5 0 0 1 6,781.7969 L6,45.7969 A2.5,2.5 0 0 1 8.5,43.2969 " fill="none" style="stroke:#000000;stroke-width:1.5;"/><line style="stroke:#000000;stroke-width:1.5;" x1="6" x2="45" y1="65.5938" y2="65.5938"/><text fill="#000000" font-family="sans-serif" font-size="14" font-weight="bold" lengthAdjust="spacing" textLength="26" x="10" y="58.292">pht</text></g><!--cluster api--><g id="cluster_api"><rect fill="none" height="358" rx="2.5" ry="2.5" style="stroke:#181818;stroke-width:1.0;" width="1680" x="30" y="86.2969"/><text fill="#000000" font-family="sans-serif" font-size="14" font-weight="bold" lengthAdjust="spacing" textLength="23" x="858.5" y="101.292">api</text></g><!--cluster panel_decision--><g id="cluster_panel_decision"><rect fill="none" height="144" rx="2.5" ry="2.5" style="stroke:#181818;stroke-width:1.0;" width="306" x="54" y="202.7969"/><text fill="#000000" font-family="sans-serif" font-size="14" font-weight="bold" lengthAdjust="spacing" textLength="116" x="149" y="217.792">panel_decision</text></g><!--cluster panels_management--><g id="cluster_panels_management"><rect fill="none" height="128" rx="2.5" ry="2.5" style="stroke:#181818;stroke-width:1.0;" width="240" x="1178" y="210.7969"/><text fill="#000000" font-family="sans-serif" font-size="14" font-weight="bold" lengthAdjust="spacing" textLength="161" x="1217.5" y="225.792">panels_management</text></g><!--cluster prsls--><g id="cluster_prsls"><rect fill="none" height="291" rx="2.5" ry="2.5" style="stroke:#181818;stroke-width:1.0;" width="366" x="788" y="129.2969"/><text fill="#000000" font-family="sans-serif" font-size="14" font-weight="bold" lengthAdjust="spacing" textLength="39" x="951.5" y="144.292">prsls</text></g><!--cluster report--><g id="cluster_report"><rect fill="none" height="96" rx="2.5" ry="2.5" style="stroke:#181818;stroke-width:1.0;" width="166" x="598" y="226.7969"/><text fill="#000000" font-family="sans-serif" font-size="14" font-weight="bold" lengthAdjust="spacing" textLength="50" x="656" y="241.792">report</text></g><!--cluster reviewers--><g id="cluster_reviewers"><rect fill="none" height="96" rx="2.5" ry="2.5" style="stroke:#181818;stroke-width:1.0;" width="190" x="384" y="226.7969"/><text fill="#000000" font-family="sans-serif" font-size="14" font-weight="bold" lengthAdjust="spacing" textLength="80" x="439" y="241.792">reviewers</text></g><!--cluster reviews--><g id="cluster_reviews"><rect fill="none" height="144" rx="2.5" ry="2.5" style="stroke:#181818;stroke-width:1.0;" width="244" x="1442" y="202.7969"/><text fill="#000000" font-family="sans-serif" font-size="14" font-weight="bold" lengthAdjust="spacing" textLength="63" x="1532.5" y="217.792">reviews</text></g><!--cluster utils--><g id="cluster_utils"><rect fill="none" height="292" rx="2.5" ry="2.5" style="stroke:#181818;stroke-width:1.0;" width="1514" x="196" y="468.2969"/><text fill="#000000" font-family="sans-serif" font-size="14" font-weight="bold" lengthAdjust="spacing" textLength="33" x="936.5" y="483.292">utils</text></g><!--cluster email_helper--><g id="cluster_email_helper"><rect fill="none" height="112" rx="2.5" ry="2.5" style="stroke:#181818;stroke-width:1.0;" width="194" x="696" y="567.7969"/><text fill="#000000" font-family="sans-serif" font-size="14" font-weight="bold" lengthAdjust="spacing" textLength="99" x="743.5" y="582.792">email_helper</text></g><!--cluster pht_handler--><g id="cluster_pht_handler"><rect fill="none" height="144" rx="2.5" ry="2.5" style="stroke:#181818;stroke-width:1.0;" width="352" x="320" y="551.7969"/><text fill="#000000" font-family="sans-serif" font-size="14" font-weight="bold" lengthAdjust="spacing" textLength="93" x="449.5" y="566.792">pht_handler</text></g><!--cluster s3_bucket--><g id="cluster_s3_bucket"><rect fill="none" height="209" rx="2.5" ry="2.5" style="stroke:#181818;stroke-width:1.0;" width="351" x="922" y="519.2969"/><text fill="#000000" font-family="sans-serif" font-size="14" font-weight="bold" lengthAdjust="spacing" textLength="80" x="1057.5" y="534.292">s3_bucket</text></g><!--cluster validation--><g id="cluster_validation"><rect fill="none" height="107" rx="2.5" ry="2.5" style="stroke:#181818;stroke-width:1.0;" width="381" x="1305" y="570.2969"/><text fill="#000000" font-family="sans-serif" font-size="14" font-weight="bold" lengthAdjust="spacing" textLength="75" x="1458" y="585.292">validation</text></g><g id="elem_panel_decision_endpoints"><rect fill="#F1F1F1" height="93.4844" style="stroke:#181818;stroke-width:0.5;" width="273" x="70.5" y="237.7969"/><text fill="#000000" font-family="sans-serif" font-size="14" lengthAdjust="spacing" textLength="180" x="117" y="252.792">panel_decision_endpoints</text><line style="stroke:#181818;stroke-width:0.5;" x1="71.5" x2="342.5" y1="258.0938" y2="258.0938"/><ellipse cx="81.5" cy="271.7422" fill="none" rx="3" ry="3" style="stroke:#038048;stroke-width:1.0;"/><text fill="#000000" font-family="sans-serif" font-size="14" lengthAdjust="spacing" textLength="161" x="90.5" y="275.0889">POST /panel-decisions/</text><ellipse cx="81.5" cy="288.0391" fill="none" rx="3" ry="3" style="stroke:#038048;stroke-width:1.0;"/><text fill="#000000" font-family="sans-serif" font-size="14" lengthAdjust="spacing" textLength="247" x="90.5" y="291.3857">GET /panel-decisions/{decision_id}</text><ellipse cx="81.5" cy="304.3359" fill="none" rx="3" ry="3" style="stroke:#038048;stroke-width:1.0;"/><text fill="#000000" font-family="sans-serif" font-size="14" lengthAdjust="spacing" textLength="244" x="90.5" y="307.6826">GET /panel-decisions/list/{user_id}</text><ellipse cx="81.5" cy="320.6328" fill="none" rx="3" ry="3" style="stroke:#038048;stroke-width:1.0;"/><text fill="#000000" font-family="sans-serif" font-size="14" lengthAdjust="spacing" textLength="246" x="90.5" y="323.9795">PUT /panel-decisions/{decision_id}</text></g><g id="elem_panels_endpoints"><rect fill="#F1F1F1" height="77.1875" style="stroke:#181818;stroke-width:0.5;" width="207" x="1194.5" y="245.7969"/><text fill="#000000" font-family="sans-serif" font-size="14" lengthAdjust="spacing" textLength="123" x="1236.5" y="260.792">panels_endpoints</text><line style="stroke:#181818;stroke-width:0.5;" x1="1195.5" x2="1400.5" y1="266.0938" y2="266.0938"/><ellipse cx="1205.5" cy="279.7422" fill="none" rx="3" ry="3" style="stroke:#038048;stroke-width:1.0;"/><text fill="#000000" font-family="sans-serif" font-size="14" lengthAdjust="spacing" textLength="98" x="1214.5" y="283.0889">POST /panels/</text><ellipse cx="1205.5" cy="296.0391" fill="none" rx="3" ry="3" style="stroke:#038048;stroke-width:1.0;"/><text fill="#000000" font-family="sans-serif" font-size="14" lengthAdjust="spacing" textLength="169" x="1214.5" y="299.3857">GET /panels//{panel_id}</text><ellipse cx="1205.5" cy="312.3359" fill="none" rx="3" ry="3" style="stroke:#038048;stroke-width:1.0;"/><text fill="#000000" font-family="sans-serif" font-size="14" lengthAdjust="spacing" textLength="181" x="1214.5" y="315.6826">GET /panels/list/{user_id}</text></g><g id="elem_prsls_endpoints"><rect fill="#F1F1F1" height="240.1563" style="stroke:#181818;stroke-width:0.5;" width="333" x="804.5" y="164.2969"/><text fill="#000000" font-family="sans-serif" font-size="14" lengthAdjust="spacing" textLength="110" x="916" y="179.292">prsls_endpoints</text><line style="stroke:#181818;stroke-width:0.5;" x1="805.5" x2="1136.5" y1="184.5938" y2="184.5938"/><ellipse cx="815.5" cy="198.2422" fill="none" rx="3" ry="3" style="stroke:#038048;stroke-width:1.0;"/><text fill="#000000" font-family="sans-serif" font-size="14" lengthAdjust="spacing" textLength="129" x="824.5" y="201.5889">POST /prsls/create</text><ellipse cx="815.5" cy="214.5391" fill="none" rx="3" ry="3" style="stroke:#038048;stroke-width:1.0;"/><text fill="#000000" font-family="sans-serif" font-size="14" lengthAdjust="spacing" textLength="124" x="824.5" y="217.8857">POST /prsls/batch</text><ellipse cx="815.5" cy="230.8359" fill="none" rx="3" ry="3" style="stroke:#038048;stroke-width:1.0;"/><text fill="#000000" font-family="sans-serif" font-size="14" lengthAdjust="spacing" textLength="137" x="824.5" y="234.1826">POST /prsls/validate</text><ellipse cx="815.5" cy="247.1328" fill="none" rx="3" ry="3" style="stroke:#038048;stroke-width:1.0;"/><text fill="#000000" font-family="sans-serif" font-size="14" lengthAdjust="spacing" textLength="166" x="824.5" y="250.4795">POST /prsls/send-email/</text><ellipse cx="815.5" cy="263.4297" fill="none" rx="3" ry="3" style="stroke:#038048;stroke-width:1.0;"/><text fill="#000000" font-family="sans-serif" font-size="14" lengthAdjust="spacing" textLength="287" x="824.5" y="266.7764">POST /prsls/signed-url/upload/{filename}</text><ellipse cx="815.5" cy="279.7266" fill="none" rx="3" ry="3" style="stroke:#038048;stroke-width:1.0;"/><text fill="#000000" font-family="sans-serif" font-size="14" lengthAdjust="spacing" textLength="307" x="824.5" y="283.0732">POST /prsls/signed-url/download/{filename}</text><ellipse cx="815.5" cy="296.0234" fill="none" rx="3" ry="3" style="stroke:#038048;stroke-width:1.0;"/><text fill="#000000" font-family="sans-serif" font-size="14" lengthAdjust="spacing" textLength="284" x="824.5" y="299.3701">POST /prsls/signed-url/delete/{filename}</text><ellipse cx="815.5" cy="312.3203" fill="none" rx="3" ry="3" style="stroke:#038048;stroke-width:1.0;"/><text fill="#000000" font-family="sans-serif" font-size="14" lengthAdjust="spacing" textLength="160" x="824.5" y="315.667">GET /prsls/osd/{cycle}</text><ellipse cx="815.5" cy="328.6172" fill="none" rx="3" ry="3" style="stroke:#038048;stroke-width:1.0;"/><text fill="#000000" font-family="sans-serif" font-size="14" lengthAdjust="spacing" textLength="173" x="824.5" y="331.9639">GET /prsls/{proposal_id}</text><ellipse cx="815.5" cy="344.9141" fill="none" rx="3" ry="3" style="stroke:#038048;stroke-width:1.0;"/><text fill="#000000" font-family="sans-serif" font-size="14" lengthAdjust="spacing" textLength="185" x="824.5" y="348.2607">GET /prsls/status/{status}</text><ellipse cx="815.5" cy="361.2109" fill="none" rx="3" ry="3" style="stroke:#038048;stroke-width:1.0;"/><text fill="#000000" font-family="sans-serif" font-size="14" lengthAdjust="spacing" textLength="195" x="824.5" y="364.5576">GET /prsls/reviews/{prsl_id}</text><ellipse cx="815.5" cy="377.5078" fill="none" rx="3" ry="3" style="stroke:#038048;stroke-width:1.0;"/><text fill="#000000" font-family="sans-serif" font-size="14" lengthAdjust="spacing" textLength="168" x="824.5" y="380.8545">GET /prsls/list/{user_id}</text><ellipse cx="815.5" cy="393.8047" fill="none" rx="3" ry="3" style="stroke:#038048;stroke-width:1.0;"/><text fill="#000000" font-family="sans-serif" font-size="14" lengthAdjust="spacing" textLength="172" x="824.5" y="397.1514">PUT /prsls/{proposal_id}</text></g><g id="elem_report_endpoints"><rect fill="#F1F1F1" height="44.5938" style="stroke:#181818;stroke-width:0.5;" width="133" x="614.5" y="261.7969"/><text fill="#000000" font-family="sans-serif" font-size="14" lengthAdjust="spacing" textLength="119" x="621.5" y="276.792">report_endpoints</text><line style="stroke:#181818;stroke-width:0.5;" x1="615.5" x2="746.5" y1="282.0938" y2="282.0938"/><ellipse cx="625.5" cy="295.7422" fill="none" rx="3" ry="3" style="stroke:#038048;stroke-width:1.0;"/><text fill="#000000" font-family="sans-serif" font-size="14" lengthAdjust="spacing" textLength="85" x="634.5" y="299.0889">GET /report/</text></g><g id="elem_reviewers_endpoints"><rect fill="#F1F1F1" height="44.5938" style="stroke:#181818;stroke-width:0.5;" width="157" x="400.5" y="261.7969"/><text fill="#000000" font-family="sans-serif" font-size="14" lengthAdjust="spacing" textLength="143" x="407.5" y="276.792">reviewers_endpoints</text><line style="stroke:#181818;stroke-width:0.5;" x1="401.5" x2="556.5" y1="282.0938" y2="282.0938"/><ellipse cx="411.5" cy="295.7422" fill="none" rx="3" ry="3" style="stroke:#038048;stroke-width:1.0;"/><text fill="#000000" font-family="sans-serif" font-size="14" lengthAdjust="spacing" textLength="104" x="420.5" y="299.0889">GET /reviewers</text></g><g id="elem_reviews_endpoints"><rect fill="#F1F1F1" height="93.4844" style="stroke:#181818;stroke-width:0.5;" width="213" x="1457.5" y="237.7969"/><text fill="#000000" font-family="sans-serif" font-size="14" lengthAdjust="spacing" textLength="129" x="1499.5" y="252.792">reviews_endpoints</text><line style="stroke:#181818;stroke-width:0.5;" x1="1458.5" x2="1669.5" y1="258.0938" y2="258.0938"/><ellipse cx="1468.5" cy="271.7422" fill="none" rx="3" ry="3" style="stroke:#038048;stroke-width:1.0;"/><text fill="#000000" font-family="sans-serif" font-size="14" lengthAdjust="spacing" textLength="99" x="1477.5" y="275.0889">POST /reviews</text><ellipse cx="1468.5" cy="288.0391" fill="none" rx="3" ry="3" style="stroke:#038048;stroke-width:1.0;"/><text fill="#000000" font-family="sans-serif" font-size="14" lengthAdjust="spacing" textLength="176" x="1477.5" y="291.3857">GET /reviews/{review_id}</text><ellipse cx="1468.5" cy="304.3359" fill="none" rx="3" ry="3" style="stroke:#038048;stroke-width:1.0;"/><text fill="#000000" font-family="sans-serif" font-size="14" lengthAdjust="spacing" textLength="187" x="1477.5" y="307.6826">GET /reviews/list/{user_id}</text><ellipse cx="1468.5" cy="320.6328" fill="none" rx="3" ry="3" style="stroke:#038048;stroke-width:1.0;"/><text fill="#000000" font-family="sans-serif" font-size="14" lengthAdjust="spacing" textLength="175" x="1477.5" y="323.9795">PUT /reviews/{review_id}</text></g><g id="elem_email_helper_items"><rect fill="#F1F1F1" height="60.8906" style="stroke:#181818;stroke-width:0.5;" width="161" x="712.5" y="602.7969"/><text fill="#000000" font-family="sans-serif" font-size="14" lengthAdjust="spacing" textLength="132" x="727" y="617.792">email_helper_items</text><line style="stroke:#181818;stroke-width:0.5;" x1="713.5" x2="872.5" y1="623.0938" y2="623.0938"/><ellipse cx="723.5" cy="636.7422" fill="#84BE84" rx="3" ry="3" style="stroke:#038048;stroke-width:1.0;"/><text fill="#000000" font-family="sans-serif" font-size="14" lengthAdjust="spacing" textLength="99" x="732.5" y="640.0889">render_email()</text><ellipse cx="723.5" cy="653.0391" fill="#84BE84" rx="3" ry="3" style="stroke:#038048;stroke-width:1.0;"/><text fill="#000000" font-family="sans-serif" font-size="14" lengthAdjust="spacing" textLength="135" x="732.5" y="656.3857">send_email_async()</text></g><g id="elem_pht_handler_items"><rect fill="#F1F1F1" height="93.4844" style="stroke:#181818;stroke-width:0.5;" width="320" x="336" y="586.7969"/><text fill="#000000" font-family="sans-serif" font-size="14" lengthAdjust="spacing" textLength="127" x="432.5" y="601.792">pht_handler_items</text><line style="stroke:#181818;stroke-width:0.5;" x1="337" x2="655" y1="607.0938" y2="607.0938"/><ellipse cx="347" cy="620.7422" fill="#84BE84" rx="3" ry="3" style="stroke:#038048;stroke-width:1.0;"/><text fill="#000000" font-family="sans-serif" font-size="14" lengthAdjust="spacing" textLength="199" x="356" y="624.0889">transform_update_proposal()</text><ellipse cx="347" cy="637.0391" fill="#84BE84" rx="3" ry="3" style="stroke:#038048;stroke-width:1.0;"/><text fill="#000000" font-family="sans-serif" font-size="14" lengthAdjust="spacing" textLength="165" x="356" y="640.3857">get_latest_entity_by_id()</text><ellipse cx="347" cy="653.3359" fill="#84BE84" rx="3" ry="3" style="stroke:#038048;stroke-width:1.0;"/><text fill="#000000" font-family="sans-serif" font-size="14" lengthAdjust="spacing" textLength="122" x="356" y="656.6826">_get_array_class()</text><ellipse cx="347" cy="669.6328" fill="#84BE84" rx="3" ry="3" style="stroke:#038048;stroke-width:1.0;"/><text fill="#000000" font-family="sans-serif" font-size="14" lengthAdjust="spacing" textLength="294" x="356" y="672.9795">join_proposals_panels_reviews_decisions()</text></g><g id="elem_s3_bucket_items"><rect fill="#F1F1F1" height="142.375" style="stroke:#181818;stroke-width:0.5;" width="284" x="965" y="562.2969"/><text fill="#000000" font-family="sans-serif" font-size="14" lengthAdjust="spacing" textLength="117" x="1048.5" y="577.292">s3_bucket_items</text><line style="stroke:#181818;stroke-width:0.5;" x1="966" x2="1248" y1="582.5938" y2="582.5938"/><ellipse cx="976" cy="596.2422" fill="#84BE84" rx="3" ry="3" style="stroke:#038048;stroke-width:1.0;"/><text fill="#000000" font-family="sans-serif" font-size="14" lengthAdjust="spacing" textLength="125" x="985" y="599.5889">S3Method (Enum)</text><ellipse cx="976" cy="612.5391" fill="none" rx="3" ry="3" style="stroke:#038048;stroke-width:1.0;"/><text fill="#000000" font-family="sans-serif" font-size="14" lengthAdjust="spacing" textLength="62" x="985" y="615.8857">S3Config</text><ellipse cx="976" cy="628.8359" fill="#84BE84" rx="3" ry="3" style="stroke:#038048;stroke-width:1.0;"/><text fill="#000000" font-family="sans-serif" font-size="14" lengthAdjust="spacing" textLength="111" x="985" y="632.1826">get_aws_client()</text><ellipse cx="976" cy="645.1328" fill="#84BE84" rx="3" ry="3" style="stroke:#038048;stroke-width:1.0;"/><text fill="#000000" font-family="sans-serif" font-size="14" lengthAdjust="spacing" textLength="174" x="985" y="648.4795">generate_presigned_url()</text><ellipse cx="976" cy="661.4297" fill="#84BE84" rx="3" ry="3" style="stroke:#038048;stroke-width:1.0;"/><text fill="#000000" font-family="sans-serif" font-size="14" lengthAdjust="spacing" textLength="238" x="985" y="664.7764">create_presigned_url_upload_pdf()</text><ellipse cx="976" cy="677.7266" fill="#84BE84" rx="3" ry="3" style="stroke:#038048;stroke-width:1.0;"/><text fill="#000000" font-family="sans-serif" font-size="14" lengthAdjust="spacing" textLength="258" x="985" y="681.0732">create_presigned_url_download_pdf()</text><ellipse cx="976" cy="694.0234" fill="#84BE84" rx="3" ry="3" style="stroke:#038048;stroke-width:1.0;"/><text fill="#000000" font-family="sans-serif" font-size="14" lengthAdjust="spacing" textLength="235" x="985" y="697.3701">create_presigned_url_delete_pdf()</text></g><!--class validate_duplicates--><g id="elem_validate_duplicates"><rect codeLine="93" fill="#F1F1F1" height="56.2656" id="validate_duplicates" rx="2.5" ry="2.5" style="stroke:#181818;stroke-width:0.5;" width="162" x="1508" y="605.2969"/><ellipse cx="1523" cy="625.4297" fill="#ADD1B2" rx="11" ry="11" style="stroke:#181818;stroke-width:1.0;"/><path d="M1525.9688,631.0703 Q1525.3906,631.3672 1524.75,631.5078 Q1524.1094,631.6641 1523.4063,631.6641 Q1520.9063,631.6641 1519.5781,630.0234 Q1518.2656,628.3672 1518.2656,625.2422 Q1518.2656,622.1172 1519.5781,620.4609 Q1520.9063,618.8047 1523.4063,618.8047 Q1524.1094,618.8047 1524.75,618.9609 Q1525.4063,619.1172 1525.9688,619.4141 L1525.9688,622.1328 Q1525.3438,621.5547 1524.75,621.2891 Q1524.1563,621.0078 1523.5313,621.0078 Q1522.1875,621.0078 1521.5,622.0859 Q1520.8125,623.1484 1520.8125,625.2422 Q1520.8125,627.3359 1521.5,628.4141 Q1522.1875,629.4766 1523.5313,629.4766 Q1524.1563,629.4766 1524.75,629.2109 Q1525.3438,628.9297 1525.9688,628.3516 L1525.9688,631.0703 Z " fill="#000000"/><text fill="#000000" font-family="sans-serif" font-size="12" font-style="italic" lengthAdjust="spacing" textLength="65" x="1569.5" y="621.4355">«function»</text><text fill="#000000" font-family="sans-serif" font-size="14" lengthAdjust="spacing" textLength="130" x="1537" y="637.2607">validate_duplicates</text><line style="stroke:#181818;stroke-width:0.5;" x1="1509" x2="1669" y1="645.5625" y2="645.5625"/><line style="stroke:#181818;stroke-width:0.5;" x1="1509" x2="1669" y1="653.5625" y2="653.5625"/></g><!--class validate_proposal--><g id="elem_validate_proposal"><rect codeLine="94" fill="#F1F1F1" height="56.2656" id="validate_proposal" rx="2.5" ry="2.5" style="stroke:#181818;stroke-width:0.5;" width="151" x="1321.5" y="605.2969"/><ellipse cx="1336.5" cy="625.4297" fill="#ADD1B2" rx="11" ry="11" style="stroke:#181818;stroke-width:1.0;"/><path d="M1339.4688,631.0703 Q1338.8906,631.3672 1338.25,631.5078 Q1337.6094,631.6641 1336.9063,631.6641 Q1334.4063,631.6641 1333.0781,630.0234 Q1331.7656,628.3672 1331.7656,625.2422 Q1331.7656,622.1172 1333.0781,620.4609 Q1334.4063,618.8047 1336.9063,618.8047 Q1337.6094,618.8047 1338.25,618.9609 Q1338.9063,619.1172 1339.4688,619.4141 L1339.4688,622.1328 Q1338.8438,621.5547 1338.25,621.2891 Q1337.6563,621.0078 1337.0313,621.0078 Q1335.6875,621.0078 1335,622.0859 Q1334.3125,623.1484 1334.3125,625.2422 Q1334.3125,627.3359 1335,628.4141 Q1335.6875,629.4766 1337.0313,629.4766 Q1337.6563,629.4766 1338.25,629.2109 Q1338.8438,628.9297 1339.4688,628.3516 L1339.4688,631.0703 Z " fill="#000000"/><text fill="#000000" font-family="sans-serif" font-size="12" font-style="italic" lengthAdjust="spacing" textLength="65" x="1377.5" y="621.4355">«function»</text><text fill="#000000" font-family="sans-serif" font-size="14" lengthAdjust="spacing" textLength="119" x="1350.5" y="637.2607">validate_proposal</text><line style="stroke:#181818;stroke-width:0.5;" x1="1322.5" x2="1471.5" y1="645.5625" y2="645.5625"/><line style="stroke:#181818;stroke-width:0.5;" x1="1322.5" x2="1471.5" y1="653.5625" y2="653.5625"/></g><!--entity constants--><g id="elem_constants"><rect fill="#F1F1F1" height="36.2969" rx="2.5" ry="2.5" style="stroke:#181818;stroke-width:0.5;" width="89" x="211.5" y="615.2969"/><text fill="#000000" font-family="sans-serif" font-size="14" lengthAdjust="spacing" textLength="69" x="221.5" y="638.292">constants</text></g><!--link prsls_endpoints to validate_proposal--><g id="link_prsls_endpoints_validate_proposal"><path codeLine="102" d="M1095.15,404.3269 C1120.87,423.3069 1149.01,440.5369 1178,452.2969 C1213.98,466.8869 1231,441.5469 1265,460.2969 C1322.33,491.9069 1362.69,559.9669 1382.68,600.3469 " fill="none" id="prsls_endpoints-to-validate_proposal" style="stroke:#181818;stroke-width:1.0;"/><polygon fill="#181818" points="1385.01,605.1269,1384.6506,595.2846,1382.8139,600.635,1377.4636,598.7983,1385.01,605.1269" style="stroke:#181818;stroke-width:1.0;"/></g><!--link prsls_endpoints to s3_bucket--><g id="link_prsls_endpoints_s3_bucket"><path codeLine="103" d="M955.79,404.3469 C953.47,423.0669 951.14,442.2069 949,460.2969 C946.78,479.0944 944.5019,499.0569 942.3287,518.4725 " fill="none" id="prsls_endpoints-to-s3_bucket" style="stroke:#181818;stroke-width:1.0;"/><polygon fill="#181818" points="942.3287,518.4725,947.305,509.9733,942.8849,513.5035,939.3547,509.0834,942.3287,518.4725" style="stroke:#181818;stroke-width:1.0;"/></g><!--link prsls_endpoints to email_helper_items--><g id="link_prsls_endpoints_email_helper_items"><path codeLine="104" d="M909.74,404.7169 C874.74,472.9469 833.38,553.5769 810.48,598.2269 " fill="none" id="prsls_endpoints-to-email_helper_items" style="stroke:#181818;stroke-width:1.0;"/><polygon fill="#181818" points="808.19,602.6969,815.8561,596.5138,810.4716,598.2478,808.7376,592.8633,808.19,602.6969" style="stroke:#181818;stroke-width:1.0;"/></g><!--link panels_endpoints to validate_duplicates--><g id="link_panels_endpoints_validate_duplicates"><path codeLine="105" d="M1319.44,322.9369 C1343.83,362.0069 1387.44,421.6169 1442,452.2969 C1460.85,462.8969 1472.23,447.9669 1490,460.2969 C1538.76,494.1469 1566.72,560.3269 1579.8,599.9969 " fill="none" id="panels_endpoints-to-validate_duplicates" style="stroke:#181818;stroke-width:1.0;"/><polygon fill="#181818" points="1581.47,605.1669,1582.525,595.3747,1579.9404,600.4066,1574.9085,597.822,1581.47,605.1669" style="stroke:#181818;stroke-width:1.0;"/></g><!--link prsls_endpoints to pht_handler_items--><g id="link_prsls_endpoints_pht_handler_items"><path codeLine="106" d="M845.75,404.3669 C820.29,423.1569 792.52,440.3069 764,452.2969 C735.95,464.0869 723.86,448.0669 696,460.2969 C633.03,487.9369 575.13,542.3269 538,582.5769 " fill="none" id="prsls_endpoints-to-pht_handler_items" style="stroke:#181818;stroke-width:1.0;"/><polygon fill="#181818" points="534.48,586.4269,543.5067,582.4875,537.8554,582.7381,537.6047,577.0869,534.48,586.4269" style="stroke:#181818;stroke-width:1.0;"/></g><!--link report_endpoints to pht_handler_items--><g id="link_report_endpoints_pht_handler_items"><path codeLine="107" d="M669.43,307.0069 C640.38,361.4869 563.8,505.1269 522.8,582.0269 " fill="none" id="report_endpoints-to-pht_handler_items" style="stroke:#181818;stroke-width:1.0;"/><polygon fill="#181818" points="520.4,586.5369,528.1525,580.4624,522.744,582.1204,521.0861,576.7119,520.4,586.5369" style="stroke:#181818;stroke-width:1.0;"/></g><!--link reviewers_endpoints to constants--><g id="link_reviewers_endpoints_constants"><path codeLine="108" d="M470.03,306.9769 C453.82,343.2969 416.03,416.0169 360,452.2969 C344.78,462.1469 333.8,448.5369 320,460.2969 C274.71,498.9169 261.44,572.7669 257.57,609.8569 " fill="none" id="reviewers_endpoints-to-constants" style="stroke:#181818;stroke-width:1.0;"/><polygon fill="#181818" points="257.07,615.0569,261.9018,606.4747,257.542,610.0792,253.9375,605.7195,257.07,615.0569" style="stroke:#181818;stroke-width:1.0;"/></g><!--SRC=[dPOzRzim48Pt_GeYInEqXePiHU2b2Tgbg96aNGbQEjkCAP8WgGI2uV_UaoZ9Nn95Hui_zBpayUNnZavfuXHPAkTKGN9k87DSoIHnt0aWZ-0O5v2JVnm-lfF5hzSaqIpRiZMG6xrnDuHPWfzKRzTaboG4d_uzq_o6F3myuv1ChWNCvnroWcacGT0SCcvnvai5ENhKyWtVaLC91PbhnQMpft3zV2MBFo-l96qKiqvXqm7mvzC0j-iduVa-LYIuTUckj616L8k_Lqrr-7NuDkAZfGMJ-BC0wUAjj0SBoOI74zRPDDtvtPdoAsXJv8gD5JPkbJKPbISrc6O6c8C9QCbSjfbWtfdW-VHG5YERGO57BPqY-Lf2FYkDI4ij5ClJtGeFg6G5xEEbkVgGdnU300TXgT_cHgaiJfDLcPW2TzeehImBfuwFnZ5Nei9_Ji06th5uDUFRYB4Z3-z4oCS9V9cu1hGoSUVJe-7KRQBtO7fL5BKnO6na82qT5KlBVk9GjzjrHKnH1xj5mn7ZZleleJJfqBX4cHhut9JzMHCj7G_Lk9vhgWVTWD1Wehmx5b3ke1Wk_GQzHQ2XR-y6WBfs-TUKsKfcPz3GfX_V8EY6oLn4ndp41q9sXacxKgQWfQwBB-rEwM3yQt1K86NhGuQtdeekAzobGPRMC3E6LJGJpDf1w0qpiP_IqhR1TgdQz_jhVBBtT5bcMuWh6JqTyEZb_ZUuZSh9xPCiYxj1ueUIAxuUiOpXMZB1qR8HLoKOxptuta6nTmoYljcUWjGtDwhpLRocwsfNgffsDg09xaZRs2Slh4sQaEuQG7DS5y_gR4FLgfJDPNi-3qcwJ1eMX2ffXbc6ORb0-UXgJZ_05pARpSWpY6PjTiEr_OOrm9L64bTfZ5j9KTMGBrEdzohyVtuP-IZP9-eeSLcaskfuTcazcVTWykYu5uMa8SzxRH2zw8ODtNlkBKts_m40]--></g></svg>