<?xml version="1.0" encoding="UTF-8" standalone="no"?><svg xmlns="http://www.w3.org/2000/svg" xmlns:xlink="http://www.w3.org/1999/xlink" contentStyleType="text/css" height="925px" preserveAspectRatio="none" style="width:4019px;height:925px;background:#FFFFFF;" version="1.1" viewBox="0 0 4019 925" width="4019px" zoomAndPan="magnify"><defs/><g><!--cluster common_pkg--><g id="cluster_common_pkg"><path d="M28.3675,146 L96.3675,146 A3.75,3.75 0 0 1 98.8675,148.5 L105.8675,168.2969 L3774.3675,168.2969 A2.5,2.5 0 0 1 3776.8675,170.7969 L3776.8675,584.5 A2.5,2.5 0 0 1 3774.3675,587 L28.3675,587 A2.5,2.5 0 0 1 25.8675,584.5 L25.8675,148.5 A2.5,2.5 0 0 1 28.3675,146 " fill="none" style="stroke:#000000;stroke-width:1.5;"/><line style="stroke:#000000;stroke-width:1.5;" x1="25.8675" x2="105.8675" y1="168.2969" y2="168.2969"/><text fill="#000000" font-family="sans-serif" font-size="14" font-weight="bold" lengthAdjust="spacing" textLength="67" x="29.8675" y="160.9951">common</text></g><!--cluster constants--><g id="cluster_constants"><rect fill="none" height="177" rx="2.5" ry="2.5" style="stroke:#181818;stroke-width:1.0;" width="342" x="1033.8675" y="297"/><text fill="#000000" font-family="sans-serif" font-size="14" font-weight="bold" lengthAdjust="spacing" textLength="78" x="1165.8675" y="311.9951">constants</text></g><!--cluster api.coordinates--><g id="cluster_api.coordinates"><rect fill="none" height="144" rx="2.5" ry="2.5" style="stroke:#181818;stroke-width:1.0;" width="220" x="789.8675" y="313.5"/><text fill="#000000" font-family="sans-serif" font-size="14" font-weight="bold" lengthAdjust="spacing" textLength="122" x="838.8675" y="328.4951">api.coordinates</text></g><!--cluster auth--><g id="cluster_auth"><rect fill="none" height="96" rx="2.5" ry="2.5" style="stroke:#181818;stroke-width:1.0;" width="122" x="643.8675" y="337.5"/><text fill="#000000" font-family="sans-serif" font-size="14" font-weight="bold" lengthAdjust="spacing" textLength="35" x="687.3675" y="352.4951">auth</text></g><!--cluster coordinateslookup--><g id="cluster_coordinateslookup"><rect fill="none" height="177" rx="2.5" ry="2.5" style="stroke:#181818;stroke-width:1.0;" width="220" x="399.8675" y="297"/><text fill="#000000" font-family="sans-serif" font-size="14" font-weight="bold" lengthAdjust="spacing" textLength="147" x="436.3675" y="311.9951">coordinateslookup</text></g><!--cluster error_handling--><g id="cluster_error_handling"><rect fill="none" height="242" rx="2.5" ry="2.5" style="stroke:#181818;stroke-width:1.0;" width="310" x="65.8675" y="264.5"/><text fill="#000000" font-family="sans-serif" font-size="14" font-weight="bold" lengthAdjust="spacing" textLength="115" x="163.3675" y="279.4951">error_handling</text></g><!--cluster model--><g id="cluster_model"><rect fill="none" height="144" rx="2.5" ry="2.5" style="stroke:#181818;stroke-width:1.0;" width="533" x="1399.8675" y="313.5"/><text fill="#000000" font-family="sans-serif" font-size="14" font-weight="bold" lengthAdjust="spacing" textLength="48" x="1642.3675" y="328.4951">model</text></g><!--cluster osdmapper--><g id="cluster_osdmapper"><rect fill="none" height="210" rx="2.5" ry="2.5" style="stroke:#181818;stroke-width:1.0;" width="304" x="3440.8675" y="280.5"/><text fill="#000000" font-family="sans-serif" font-size="14" font-weight="bold" lengthAdjust="spacing" textLength="89" x="3548.3675" y="295.4951">osdmapper</text></g><!--cluster api--><g id="cluster_api"><rect fill="none" height="358" rx="2.5" ry="2.5" style="stroke:#181818;stroke-width:1.0;" width="1460" x="1956.8675" y="197"/><text fill="#000000" font-family="sans-serif" font-size="14" font-weight="bold" lengthAdjust="spacing" textLength="23" x="2675.3675" y="211.9951">api</text></g><!--cluster panel_decision--><g id="cluster_panel_decision"><rect fill="none" height="144" rx="2.5" ry="2.5" style="stroke:#181818;stroke-width:1.0;" width="272" x="1980.8675" y="313.5"/><text fill="#000000" font-family="sans-serif" font-size="14" font-weight="bold" lengthAdjust="spacing" textLength="116" x="2058.8675" y="328.4951">panel_decision</text></g><!--cluster panels--><g id="cluster_panels"><rect fill="none" height="128" rx="2.5" ry="2.5" style="stroke:#181818;stroke-width:1.0;" width="208" x="2946.8675" y="321.5"/><text fill="#000000" font-family="sans-serif" font-size="14" font-weight="bold" lengthAdjust="spacing" textLength="52" x="3024.8675" y="336.4951">panels</text></g><!--cluster prsls--><g id="cluster_prsls"><rect fill="none" height="291" rx="2.5" ry="2.5" style="stroke:#181818;stroke-width:1.0;" width="242" x="2680.8675" y="240"/><text fill="#000000" font-family="sans-serif" font-size="14" font-weight="bold" lengthAdjust="spacing" textLength="39" x="2782.3675" y="254.9951">prsls</text></g><!--cluster report--><g id="cluster_report"><rect fill="none" height="96" rx="2.5" ry="2.5" style="stroke:#181818;stroke-width:1.0;" width="166" x="2490.8675" y="337.5"/><text fill="#000000" font-family="sans-serif" font-size="14" font-weight="bold" lengthAdjust="spacing" textLength="50" x="2548.8675" y="352.4951">report</text></g><!--cluster reviewers--><g id="cluster_reviewers"><rect fill="none" height="96" rx="2.5" ry="2.5" style="stroke:#181818;stroke-width:1.0;" width="190" x="2276.8675" y="337.5"/><text fill="#000000" font-family="sans-serif" font-size="14" font-weight="bold" lengthAdjust="spacing" textLength="80" x="2331.8675" y="352.4951">reviewers</text></g><!--cluster reviews--><g id="cluster_reviews"><rect fill="none" height="144" rx="2.5" ry="2.5" style="stroke:#181818;stroke-width:1.0;" width="214" x="3178.8675" y="313.5"/><text fill="#000000" font-family="sans-serif" font-size="14" font-weight="bold" lengthAdjust="spacing" textLength="63" x="3254.3675" y="328.4951">reviews</text></g><!--cluster odt_pkg--><g id="cluster_odt_pkg"><path d="M3531.3675,627 L3558.3675,627 A3.75,3.75 0 0 1 3560.8675,629.5 L3567.8675,649.2969 L3845.3675,649.2969 A2.5,2.5 0 0 1 3847.8675,651.7969 L3847.8675,716.5 A2.5,2.5 0 0 1 3845.3675,719 L3531.3675,719 A2.5,2.5 0 0 1 3528.8675,716.5 L3528.8675,629.5 A2.5,2.5 0 0 1 3531.3675,627 " fill="none" style="stroke:#000000;stroke-width:1.5;"/><line style="stroke:#000000;stroke-width:1.5;" x1="3528.8675" x2="3567.8675" y1="649.2969" y2="649.2969"/><text fill="#000000" font-family="sans-serif" font-size="14" font-weight="bold" lengthAdjust="spacing" textLength="26" x="3532.8675" y="641.9951">odt</text></g><!--cluster pht_pkg--><g id="cluster_pht_pkg"><path d="M3531.3675,759 L3558.3675,759 A3.75,3.75 0 0 1 3560.8675,761.5 L3567.8675,781.2969 L3880.3675,781.2969 A2.5,2.5 0 0 1 3882.8675,783.7969 L3882.8675,915.5 A2.5,2.5 0 0 1 3880.3675,918 L3531.3675,918 A2.5,2.5 0 0 1 3528.8675,915.5 L3528.8675,761.5 A2.5,2.5 0 0 1 3531.3675,759 " fill="none" style="stroke:#000000;stroke-width:1.5;"/><line style="stroke:#000000;stroke-width:1.5;" x1="3528.8675" x2="3567.8675" y1="781.2969" y2="781.2969"/><text fill="#000000" font-family="sans-serif" font-size="14" font-weight="bold" lengthAdjust="spacing" textLength="26" x="3532.8675" y="773.9951">pht</text></g><!--cluster utils--><g id="cluster_utils"><rect fill="none" height="76" rx="2.5" ry="2.5" style="stroke:#181818;stroke-width:1.0;" width="282" x="3568.8675" y="810"/><text fill="#000000" font-family="sans-serif" font-size="14" font-weight="bold" lengthAdjust="spacing" textLength="33" x="3693.3675" y="824.9951">utils</text></g><!--cluster app--><g id="cluster_app"><rect fill="none" height="107" rx="2.5" ry="2.5" style="stroke:#181818;stroke-width:1.0;" width="142" x="3747.8675" y="7"/><text fill="#000000" font-family="sans-serif" font-size="14" font-weight="bold" lengthAdjust="spacing" textLength="29" x="3804.3675" y="21.9951">app</text></g><g id="elem_constants_items"><rect fill="#F1F1F1" height="126.0781" style="stroke:#181818;stroke-width:0.5;" width="310" x="1049.8675" y="332"/><text fill="#000000" font-family="sans-serif" font-size="14" lengthAdjust="spacing" textLength="114" x="1147.8675" y="346.9951">constants_items</text><line style="stroke:#181818;stroke-width:0.5;" x1="1050.8675" x2="1358.8675" y1="352.2969" y2="352.2969"/><ellipse cx="1060.8675" cy="365.9453" fill="none" rx="3" ry="3" style="stroke:#038048;stroke-width:1.0;"/><text fill="#000000" font-family="sans-serif" font-size="14" lengthAdjust="spacing" textLength="187" x="1069.8675" y="369.292">MID_CHANNEL_WIDTH_KHZ</text><ellipse cx="1060.8675" cy="382.2422" fill="none" rx="3" ry="3" style="stroke:#038048;stroke-width:1.0;"/><text fill="#000000" font-family="sans-serif" font-size="14" lengthAdjust="spacing" textLength="224" x="1069.8675" y="385.5889">MID_20_CHANNELS_WIDTH_MHZ</text><ellipse cx="1060.8675" cy="398.5391" fill="none" rx="3" ry="3" style="stroke:#038048;stroke-width:1.0;"/><text fill="#000000" font-family="sans-serif" font-size="14" lengthAdjust="spacing" textLength="262" x="1069.8675" y="401.8857">LOW_STATION_CHANNEL_WIDTH_MHZ</text><ellipse cx="1060.8675" cy="414.8359" fill="none" rx="3" ry="3" style="stroke:#038048;stroke-width:1.0;"/><text fill="#000000" font-family="sans-serif" font-size="14" lengthAdjust="spacing" textLength="196" x="1069.8675" y="418.1826">LOW_CHANNEL_BLOCK_MHZ</text><ellipse cx="1060.8675" cy="431.1328" fill="none" rx="3" ry="3" style="stroke:#038048;stroke-width:1.0;"/><text fill="#000000" font-family="sans-serif" font-size="14" lengthAdjust="spacing" textLength="284" x="1069.8675" y="434.4795">LOW_CONTINUUM_CHANNEL_WIDTH_KHZ</text><ellipse cx="1060.8675" cy="447.4297" fill="none" rx="3" ry="3" style="stroke:#038048;stroke-width:1.0;"/><text fill="#000000" font-family="sans-serif" font-size="14" lengthAdjust="spacing" textLength="226" x="1069.8675" y="450.7764">LOW_PST_CHANNEL_WIDTH_KHZ</text></g><g id="elem_coordinates_items"><rect fill="#F1F1F1" height="93.4844" style="stroke:#181818;stroke-width:0.5;" width="188" x="805.8675" y="348.5"/><text fill="#000000" font-family="sans-serif" font-size="14" lengthAdjust="spacing" textLength="127" x="836.3675" y="363.4951">coordinates_items</text><line style="stroke:#181818;stroke-width:0.5;" x1="806.8675" x2="992.8675" y1="368.7969" y2="368.7969"/><ellipse cx="816.8675" cy="382.4453" fill="none" rx="3" ry="3" style="stroke:#038048;stroke-width:1.0;"/><text fill="#000000" font-family="sans-serif" font-size="14" lengthAdjust="spacing" textLength="115" x="825.8675" y="385.792">ReferenceFrame</text><ellipse cx="816.8675" cy="398.7422" fill="none" rx="3" ry="3" style="stroke:#038048;stroke-width:1.0;"/><text fill="#000000" font-family="sans-serif" font-size="14" lengthAdjust="spacing" textLength="139" x="825.8675" y="402.0889">EquatorialResponse</text><ellipse cx="816.8675" cy="415.0391" fill="none" rx="3" ry="3" style="stroke:#038048;stroke-width:1.0;"/><text fill="#000000" font-family="sans-serif" font-size="14" lengthAdjust="spacing" textLength="125" x="825.8675" y="418.3857">GalacticResponse</text><ellipse cx="816.8675" cy="431.3359" fill="none" rx="3" ry="3" style="stroke:#038048;stroke-width:1.0;"/><text fill="#000000" font-family="sans-serif" font-size="14" lengthAdjust="spacing" textLength="162" x="825.8675" y="434.6826">get_systemcoordinates</text></g><g id="elem_auth_items"><rect fill="#F1F1F1" height="44.5938" style="stroke:#181818;stroke-width:0.5;" width="90" x="659.8675" y="372.5"/><text fill="#000000" font-family="sans-serif" font-size="14" lengthAdjust="spacing" textLength="76" x="666.8675" y="387.4951">auth_items</text><line style="stroke:#181818;stroke-width:0.5;" x1="660.8675" x2="748.8675" y1="392.7969" y2="392.7969"/><ellipse cx="670.8675" cy="406.4453" fill="none" rx="3" ry="3" style="stroke:#038048;stroke-width:1.0;"/><text fill="#000000" font-family="sans-serif" font-size="14" lengthAdjust="spacing" textLength="44" x="679.8675" y="409.792">Scope</text></g><g id="elem_coordinateslookup_items"><rect fill="#F1F1F1" height="126.0781" style="stroke:#181818;stroke-width:0.5;" width="188" x="415.8675" y="332"/><text fill="#000000" font-family="sans-serif" font-size="14" lengthAdjust="spacing" textLength="174" x="422.8675" y="346.9951">coordinateslookup_items</text><line style="stroke:#181818;stroke-width:0.5;" x1="416.8675" x2="602.8675" y1="352.2969" y2="352.2969"/><ellipse cx="426.8675" cy="365.9453" fill="none" rx="3" ry="3" style="stroke:#038048;stroke-width:1.0;"/><text fill="#000000" font-family="sans-serif" font-size="14" lengthAdjust="spacing" textLength="68" x="435.8675" y="369.292">Equatorial</text><ellipse cx="426.8675" cy="382.2422" fill="none" rx="3" ry="3" style="stroke:#038048;stroke-width:1.0;"/><text fill="#000000" font-family="sans-serif" font-size="14" lengthAdjust="spacing" textLength="54" x="435.8675" y="385.5889">Galactic</text><ellipse cx="426.8675" cy="398.5391" fill="#84BE84" rx="3" ry="3" style="stroke:#038048;stroke-width:1.0;"/><text fill="#000000" font-family="sans-serif" font-size="14" lengthAdjust="spacing" textLength="98" x="435.8675" y="401.8857">round_coord()</text><ellipse cx="426.8675" cy="414.8359" fill="#84BE84" rx="3" ry="3" style="stroke:#038048;stroke-width:1.0;"/><text fill="#000000" font-family="sans-serif" font-size="14" lengthAdjust="spacing" textLength="149" x="435.8675" y="418.1826">convert_ra_dec_deg()</text><ellipse cx="426.8675" cy="431.1328" fill="#84BE84" rx="3" ry="3" style="stroke:#038048;stroke-width:1.0;"/><text fill="#000000" font-family="sans-serif" font-size="14" lengthAdjust="spacing" textLength="142" x="435.8675" y="434.4795">convert_to_galactic()</text><ellipse cx="426.8675" cy="447.4297" fill="#84BE84" rx="3" ry="3" style="stroke:#038048;stroke-width:1.0;"/><text fill="#000000" font-family="sans-serif" font-size="14" lengthAdjust="spacing" textLength="122" x="435.8675" y="450.7764">get_coordinates()</text></g><g id="elem_error_handling_items"><rect fill="#F1F1F1" height="191.2656" style="stroke:#181818;stroke-width:0.5;" width="278" x="81.8675" y="299.5"/><text fill="#000000" font-family="sans-serif" font-size="14" lengthAdjust="spacing" textLength="144" x="148.8675" y="314.4951">error_handling_items</text><line style="stroke:#181818;stroke-width:0.5;" x1="82.8675" x2="358.8675" y1="319.7969" y2="319.7969"/><ellipse cx="92.8675" cy="333.4453" fill="#84BE84" rx="3" ry="3" style="stroke:#038048;stroke-width:1.0;"/><text fill="#000000" font-family="sans-serif" font-size="14" lengthAdjust="spacing" textLength="95" x="101.8675" y="336.792">error_details()</text><ellipse cx="92.8675" cy="349.7422" fill="none" rx="3" ry="3" style="stroke:#038048;stroke-width:1.0;"/><text fill="#000000" font-family="sans-serif" font-size="14" lengthAdjust="spacing" textLength="119" x="101.8675" y="353.0889">BadRequestError</text><ellipse cx="92.8675" cy="366.0391" fill="none" rx="3" ry="3" style="stroke:#038048;stroke-width:1.0;"/><text fill="#000000" font-family="sans-serif" font-size="14" lengthAdjust="spacing" textLength="98" x="101.8675" y="369.3857">DuplicateError</text><ellipse cx="92.8675" cy="382.3359" fill="none" rx="3" ry="3" style="stroke:#038048;stroke-width:1.0;"/><text fill="#000000" font-family="sans-serif" font-size="14" lengthAdjust="spacing" textLength="175" x="101.8675" y="385.6826">UnprocessableEntityError</text><ellipse cx="92.8675" cy="398.6328" fill="none" rx="3" ry="3" style="stroke:#038048;stroke-width:1.0;"/><text fill="#000000" font-family="sans-serif" font-size="14" lengthAdjust="spacing" textLength="101" x="101.8675" y="401.9795">NotFoundError</text><ellipse cx="92.8675" cy="414.9297" fill="#84BE84" rx="3" ry="3" style="stroke:#038048;stroke-width:1.0;"/><text fill="#000000" font-family="sans-serif" font-size="14" lengthAdjust="spacing" textLength="128" x="101.8675" y="418.2764">_make_response()</text><ellipse cx="92.8675" cy="431.2266" fill="#84BE84" rx="3" ry="3" style="stroke:#038048;stroke-width:1.0;"/><text fill="#000000" font-family="sans-serif" font-size="14" lengthAdjust="spacing" textLength="172" x="101.8675" y="434.5732">oda_not_found_handler()</text><ellipse cx="92.8675" cy="447.5234" fill="#84BE84" rx="3" ry="3" style="stroke:#038048;stroke-width:1.0;"/><text fill="#000000" font-family="sans-serif" font-size="14" lengthAdjust="spacing" textLength="135" x="101.8675" y="450.8701">oda_error_handler()</text><ellipse cx="92.8675" cy="463.8203" fill="#84BE84" rx="3" ry="3" style="stroke:#038048;stroke-width:1.0;"/><text fill="#000000" font-family="sans-serif" font-size="14" lengthAdjust="spacing" textLength="226" x="101.8675" y="467.167">oda_unique_constraint_handler()</text><ellipse cx="92.8675" cy="480.1172" fill="#84BE84" rx="3" ry="3" style="stroke:#038048;stroke-width:1.0;"/><text fill="#000000" font-family="sans-serif" font-size="14" lengthAdjust="spacing" textLength="252" x="101.8675" y="483.4639">dangerous_internal_server_handler()</text></g><g id="elem_model_items"><rect fill="#F1F1F1" height="93.4844" style="stroke:#181818;stroke-width:0.5;" width="202" x="1714.8675" y="348.5"/><text fill="#000000" font-family="sans-serif" font-size="14" lengthAdjust="spacing" textLength="88" x="1771.8675" y="363.4951">model_items</text><line style="stroke:#181818;stroke-width:0.5;" x1="1715.8675" x2="1915.8675" y1="368.7969" y2="368.7969"/><ellipse cx="1725.8675" cy="382.4453" fill="none" rx="3" ry="3" style="stroke:#038048;stroke-width:1.0;"/><text fill="#000000" font-family="sans-serif" font-size="14" lengthAdjust="spacing" textLength="69" x="1734.8675" y="385.792">AppModel</text><ellipse cx="1725.8675" cy="398.7422" fill="none" rx="3" ry="3" style="stroke:#038048;stroke-width:1.0;"/><text fill="#000000" font-family="sans-serif" font-size="14" lengthAdjust="spacing" textLength="137" x="1734.8675" y="402.0889">ValidationResponse</text><ellipse cx="1725.8675" cy="415.0391" fill="none" rx="3" ry="3" style="stroke:#038048;stroke-width:1.0;"/><text fill="#000000" font-family="sans-serif" font-size="14" lengthAdjust="spacing" textLength="176" x="1734.8675" y="418.3857">ErrorResponseTraceback</text><ellipse cx="1725.8675" cy="431.3359" fill="none" rx="3" ry="3" style="stroke:#038048;stroke-width:1.0;"/><text fill="#000000" font-family="sans-serif" font-size="14" lengthAdjust="spacing" textLength="80" x="1734.8675" y="434.6826">ErrorDetails</text></g><g id="elem_model_note"><path d="M1415.8675,382.5 L1415.8675,407.6328 L1679.8675,407.6328 L1679.8675,392.5 L1669.8675,382.5 L1415.8675,382.5 " fill="#FEFFDD" style="stroke:#181818;stroke-width:0.5;"/><path d="M1669.8675,382.5 L1669.8675,392.5 L1679.8675,392.5 L1669.8675,382.5 " fill="#FEFFDD" style="stroke:#181818;stroke-width:1.0;"/><text fill="#000000" font-family="sans-serif" font-size="13" lengthAdjust="spacing" textLength="243" x="1421.8675" y="399.5669">"model section minimised in this view"</text></g><g id="elem_osdmapper_items"><rect fill="#F1F1F1" height="158.6719" style="stroke:#181818;stroke-width:0.5;" width="271" x="3457.3675" y="315.5"/><text fill="#000000" font-family="sans-serif" font-size="14" lengthAdjust="spacing" textLength="124" x="3530.8675" y="330.4951">osdmapper_items</text><line style="stroke:#181818;stroke-width:0.5;" x1="3458.3675" x2="3727.3675" y1="335.7969" y2="335.7969"/><ellipse cx="3468.3675" cy="349.4453" fill="none" rx="3" ry="3" style="stroke:#038048;stroke-width:1.0;"/><text fill="#000000" font-family="sans-serif" font-size="14" lengthAdjust="spacing" textLength="109" x="3477.3675" y="352.792">FrequencyBand</text><ellipse cx="3468.3675" cy="365.7422" fill="none" rx="3" ry="3" style="stroke:#038048;stroke-width:1.0;"/><text fill="#000000" font-family="sans-serif" font-size="14" lengthAdjust="spacing" textLength="60" x="3477.3675" y="369.0889">Subarray</text><ellipse cx="3468.3675" cy="382.0391" fill="none" rx="3" ry="3" style="stroke:#038048;stroke-width:1.0;"/><text fill="#000000" font-family="sans-serif" font-size="14" lengthAdjust="spacing" textLength="116" x="3477.3675" y="385.3857">MidConfiguration</text><ellipse cx="3468.3675" cy="398.3359" fill="none" rx="3" ry="3" style="stroke:#038048;stroke-width:1.0;"/><text fill="#000000" font-family="sans-serif" font-size="14" lengthAdjust="spacing" textLength="119" x="3477.3675" y="401.6826">LowConfiguration</text><ellipse cx="3468.3675" cy="414.6328" fill="none" rx="3" ry="3" style="stroke:#038048;stroke-width:1.0;"/><text fill="#000000" font-family="sans-serif" font-size="14" lengthAdjust="spacing" textLength="92" x="3477.3675" y="417.9795">Configuration</text><ellipse cx="3468.3675" cy="430.9297" fill="#84BE84" rx="3" ry="3" style="stroke:#038048;stroke-width:1.0;"/><text fill="#000000" font-family="sans-serif" font-size="14" lengthAdjust="spacing" textLength="171" x="3477.3675" y="434.2764">configuration_from_osd()</text><ellipse cx="3468.3675" cy="447.2266" fill="#84BE84" rx="3" ry="3" style="stroke:#038048;stroke-width:1.0;"/><text fill="#000000" font-family="sans-serif" font-size="14" lengthAdjust="spacing" textLength="245" x="3477.3675" y="450.5732">_get_mid_telescope_configuration()</text><ellipse cx="3468.3675" cy="463.5234" fill="#84BE84" rx="3" ry="3" style="stroke:#038048;stroke-width:1.0;"/><text fill="#000000" font-family="sans-serif" font-size="14" lengthAdjust="spacing" textLength="243" x="3477.3675" y="466.8701">_get_low_telescope_configuration()</text></g><g id="elem_panel_decision_endpoints"><rect fill="#F1F1F1" height="93.4844" style="stroke:#181818;stroke-width:0.5;" width="240" x="1996.8675" y="348.5"/><text fill="#000000" font-family="sans-serif" font-size="14" lengthAdjust="spacing" textLength="180" x="2026.8675" y="363.4951">panel_decision_endpoints</text><line style="stroke:#181818;stroke-width:0.5;" x1="1997.8675" x2="2235.8675" y1="368.7969" y2="368.7969"/><ellipse cx="2007.8675" cy="382.4453" fill="#84BE84" rx="3" ry="3" style="stroke:#038048;stroke-width:1.0;"/><text fill="#000000" font-family="sans-serif" font-size="14" lengthAdjust="spacing" textLength="164" x="2016.8675" y="385.792">create_panel_decision()</text><ellipse cx="2007.8675" cy="398.7422" fill="#84BE84" rx="3" ry="3" style="stroke:#038048;stroke-width:1.0;"/><text fill="#000000" font-family="sans-serif" font-size="14" lengthAdjust="spacing" textLength="143" x="2016.8675" y="402.0889">get_panel_decision()</text><ellipse cx="2007.8675" cy="415.0391" fill="#84BE84" rx="3" ry="3" style="stroke:#038048;stroke-width:1.0;"/><text fill="#000000" font-family="sans-serif" font-size="14" lengthAdjust="spacing" textLength="214" x="2016.8675" y="418.3857">get_panel_decisions_for_user()</text><ellipse cx="2007.8675" cy="431.3359" fill="#84BE84" rx="3" ry="3" style="stroke:#038048;stroke-width:1.0;"/><text fill="#000000" font-family="sans-serif" font-size="14" lengthAdjust="spacing" textLength="169" x="2016.8675" y="434.6826">update_panel_decision()</text></g><g id="elem_panels_endpoints"><rect fill="#F1F1F1" height="77.1875" style="stroke:#181818;stroke-width:0.5;" width="175" x="2963.3675" y="356.5"/><text fill="#000000" font-family="sans-serif" font-size="14" lengthAdjust="spacing" textLength="123" x="2989.3675" y="371.4951">panels_endpoints</text><line style="stroke:#181818;stroke-width:0.5;" x1="2964.3675" x2="3137.3675" y1="376.7969" y2="376.7969"/><ellipse cx="2974.3675" cy="390.4453" fill="#84BE84" rx="3" ry="3" style="stroke:#038048;stroke-width:1.0;"/><text fill="#000000" font-family="sans-serif" font-size="14" lengthAdjust="spacing" textLength="99" x="2983.3675" y="393.792">create_panel()</text><ellipse cx="2974.3675" cy="406.7422" fill="#84BE84" rx="3" ry="3" style="stroke:#038048;stroke-width:1.0;"/><text fill="#000000" font-family="sans-serif" font-size="14" lengthAdjust="spacing" textLength="78" x="2983.3675" y="410.0889">get_panel()</text><ellipse cx="2974.3675" cy="423.0391" fill="#84BE84" rx="3" ry="3" style="stroke:#038048;stroke-width:1.0;"/><text fill="#000000" font-family="sans-serif" font-size="14" lengthAdjust="spacing" textLength="149" x="2983.3675" y="426.3857">get_panels_for_user()</text></g><g id="elem_prsls_endpoints"><rect fill="#F1F1F1" height="240.1563" style="stroke:#181818;stroke-width:0.5;" width="210" x="2696.8675" y="275"/><text fill="#000000" font-family="sans-serif" font-size="14" lengthAdjust="spacing" textLength="110" x="2746.8675" y="289.9951">prsls_endpoints</text><line style="stroke:#181818;stroke-width:0.5;" x1="2697.8675" x2="2905.8675" y1="295.2969" y2="295.2969"/><ellipse cx="2707.8675" cy="308.9453" fill="#84BE84" rx="3" ry="3" style="stroke:#038048;stroke-width:1.0;"/><text fill="#000000" font-family="sans-serif" font-size="14" lengthAdjust="spacing" textLength="131" x="2716.8675" y="312.292">get_osd_by_cycle()</text><ellipse cx="2707.8675" cy="325.2422" fill="#84BE84" rx="3" ry="3" style="stroke:#038048;stroke-width:1.0;"/><text fill="#000000" font-family="sans-serif" font-size="14" lengthAdjust="spacing" textLength="121" x="2716.8675" y="328.5889">create_proposal()</text><ellipse cx="2707.8675" cy="341.5391" fill="#84BE84" rx="3" ry="3" style="stroke:#038048;stroke-width:1.0;"/><text fill="#000000" font-family="sans-serif" font-size="14" lengthAdjust="spacing" textLength="100" x="2716.8675" y="344.8857">get_proposal()</text><ellipse cx="2707.8675" cy="357.8359" fill="#84BE84" rx="3" ry="3" style="stroke:#038048;stroke-width:1.0;"/><text fill="#000000" font-family="sans-serif" font-size="14" lengthAdjust="spacing" textLength="154" x="2716.8675" y="361.1826">get_proposals_batch()</text><ellipse cx="2707.8675" cy="374.1328" fill="#84BE84" rx="3" ry="3" style="stroke:#038048;stroke-width:1.0;"/><text fill="#000000" font-family="sans-serif" font-size="14" lengthAdjust="spacing" textLength="181" x="2716.8675" y="377.4795">get_proposals_by_status()</text><ellipse cx="2707.8675" cy="390.4297" fill="#84BE84" rx="3" ry="3" style="stroke:#038048;stroke-width:1.0;"/><text fill="#000000" font-family="sans-serif" font-size="14" lengthAdjust="spacing" textLength="184" x="2716.8675" y="393.7764">get_reviews_for_proposal()</text><ellipse cx="2707.8675" cy="406.7266" fill="#84BE84" rx="3" ry="3" style="stroke:#038048;stroke-width:1.0;"/><text fill="#000000" font-family="sans-serif" font-size="14" lengthAdjust="spacing" textLength="171" x="2716.8675" y="410.0732">get_proposals_for_user()</text><ellipse cx="2707.8675" cy="423.0234" fill="#84BE84" rx="3" ry="3" style="stroke:#038048;stroke-width:1.0;"/><text fill="#000000" font-family="sans-serif" font-size="14" lengthAdjust="spacing" textLength="126" x="2716.8675" y="426.3701">update_proposal()</text><ellipse cx="2707.8675" cy="439.3203" fill="#84BE84" rx="3" ry="3" style="stroke:#038048;stroke-width:1.0;"/><text fill="#000000" font-family="sans-serif" font-size="14" lengthAdjust="spacing" textLength="129" x="2716.8675" y="442.667">validate_proposal()</text><ellipse cx="2707.8675" cy="455.6172" fill="#84BE84" rx="3" ry="3" style="stroke:#038048;stroke-width:1.0;"/><text fill="#000000" font-family="sans-serif" font-size="14" lengthAdjust="spacing" textLength="88" x="2716.8675" y="458.9639">send_email()</text><ellipse cx="2707.8675" cy="471.9141" fill="#84BE84" rx="3" ry="3" style="stroke:#038048;stroke-width:1.0;"/><text fill="#000000" font-family="sans-serif" font-size="14" lengthAdjust="spacing" textLength="161" x="2716.8675" y="475.2607">create_upload_pdf_url()</text><ellipse cx="2707.8675" cy="488.2109" fill="#84BE84" rx="3" ry="3" style="stroke:#038048;stroke-width:1.0;"/><text fill="#000000" font-family="sans-serif" font-size="14" lengthAdjust="spacing" textLength="181" x="2716.8675" y="491.5576">create_download_pdf_url()</text><ellipse cx="2707.8675" cy="504.5078" fill="#84BE84" rx="3" ry="3" style="stroke:#038048;stroke-width:1.0;"/><text fill="#000000" font-family="sans-serif" font-size="14" lengthAdjust="spacing" textLength="158" x="2716.8675" y="507.8545">create_delete_pdf_url()</text></g><g id="elem_report_endpoints"><rect fill="#F1F1F1" height="44.5938" style="stroke:#181818;stroke-width:0.5;" width="133" x="2507.3675" y="372.5"/><text fill="#000000" font-family="sans-serif" font-size="14" lengthAdjust="spacing" textLength="119" x="2514.3675" y="387.4951">report_endpoints</text><line style="stroke:#181818;stroke-width:0.5;" x1="2508.3675" x2="2639.3675" y1="392.7969" y2="392.7969"/><ellipse cx="2518.3675" cy="406.4453" fill="#84BE84" rx="3" ry="3" style="stroke:#038048;stroke-width:1.0;"/><text fill="#000000" font-family="sans-serif" font-size="14" lengthAdjust="spacing" textLength="82" x="2527.3675" y="409.792">get_report()</text></g><g id="elem_reviewers_endpoints"><rect fill="#F1F1F1" height="44.5938" style="stroke:#181818;stroke-width:0.5;" width="157" x="2293.3675" y="372.5"/><text fill="#000000" font-family="sans-serif" font-size="14" lengthAdjust="spacing" textLength="143" x="2300.3675" y="387.4951">reviewers_endpoints</text><line style="stroke:#181818;stroke-width:0.5;" x1="2294.3675" x2="2449.3675" y1="392.7969" y2="392.7969"/><ellipse cx="2304.3675" cy="406.4453" fill="#84BE84" rx="3" ry="3" style="stroke:#038048;stroke-width:1.0;"/><text fill="#000000" font-family="sans-serif" font-size="14" lengthAdjust="spacing" textLength="106" x="2313.3675" y="409.792">get_reviewers()</text></g><g id="elem_reviews_endpoints"><rect fill="#F1F1F1" height="93.4844" style="stroke:#181818;stroke-width:0.5;" width="181" x="3195.3675" y="348.5"/><text fill="#000000" font-family="sans-serif" font-size="14" lengthAdjust="spacing" textLength="129" x="3221.3675" y="363.4951">reviews_endpoints</text><line style="stroke:#181818;stroke-width:0.5;" x1="3196.3675" x2="3375.3675" y1="368.7969" y2="368.7969"/><ellipse cx="3206.3675" cy="382.4453" fill="#84BE84" rx="3" ry="3" style="stroke:#038048;stroke-width:1.0;"/><text fill="#000000" font-family="sans-serif" font-size="14" lengthAdjust="spacing" textLength="105" x="3215.3675" y="385.792">create_review()</text><ellipse cx="3206.3675" cy="398.7422" fill="#84BE84" rx="3" ry="3" style="stroke:#038048;stroke-width:1.0;"/><text fill="#000000" font-family="sans-serif" font-size="14" lengthAdjust="spacing" textLength="84" x="3215.3675" y="402.0889">get_review()</text><ellipse cx="3206.3675" cy="415.0391" fill="#84BE84" rx="3" ry="3" style="stroke:#038048;stroke-width:1.0;"/><text fill="#000000" font-family="sans-serif" font-size="14" lengthAdjust="spacing" textLength="155" x="3215.3675" y="418.3857">get_reviews_for_user()</text><ellipse cx="3206.3675" cy="431.3359" fill="#84BE84" rx="3" ry="3" style="stroke:#038048;stroke-width:1.0;"/><text fill="#000000" font-family="sans-serif" font-size="14" lengthAdjust="spacing" textLength="110" x="3215.3675" y="434.6826">update_review()</text></g><g id="elem_odt_note"><path d="M3572.3675,670 L3572.3675,695.1328 L3823.3675,695.1328 L3823.3675,680 L3813.3675,670 L3572.3675,670 " fill="#FEFFDD" style="stroke:#181818;stroke-width:0.5;"/><path d="M3813.3675,670 L3813.3675,680 L3823.3675,680 L3813.3675,670 " fill="#FEFFDD" style="stroke:#181818;stroke-width:1.0;"/><text fill="#000000" font-family="sans-serif" font-size="13" lengthAdjust="spacing" textLength="230" x="3578.3675" y="687.0669">"ODT section minimised in this view"</text></g><g id="elem_utils_note"><path d="M3584.8675,845 L3584.8675,870.1328 L3834.8675,870.1328 L3834.8675,855 L3824.8675,845 L3584.8675,845 " fill="#FEFFDD" style="stroke:#181818;stroke-width:0.5;"/><path d="M3824.8675,845 L3824.8675,855 L3834.8675,855 L3824.8675,845 " fill="#FEFFDD" style="stroke:#181818;stroke-width:1.0;"/><text fill="#000000" font-family="sans-serif" font-size="13" lengthAdjust="spacing" textLength="229" x="3590.8675" y="862.0669">"utils section minimised in this view"</text></g><!--class create_app--><g id="elem_create_app"><rect codeLine="162" fill="#F1F1F1" height="56.2656" id="create_app" rx="2.5" ry="2.5" style="stroke:#181818;stroke-width:0.5;" width="109" x="3764.3675" y="42"/><ellipse cx="3779.3675" cy="62.1328" fill="#ADD1B2" rx="11" ry="11" style="stroke:#181818;stroke-width:1.0;"/><path d="M3782.3363,67.7734 Q3781.7581,68.0703 3781.1175,68.2109 Q3780.4769,68.3672 3779.7738,68.3672 Q3777.2738,68.3672 3775.9456,66.7266 Q3774.6331,65.0703 3774.6331,61.9453 Q3774.6331,58.8203 3775.9456,57.1641 Q3777.2738,55.5078 3779.7738,55.5078 Q3780.4769,55.5078 3781.1175,55.6641 Q3781.7738,55.8203 3782.3363,56.1172 L3782.3363,58.8359 Q3781.7113,58.2578 3781.1175,57.9922 Q3780.5238,57.7109 3779.8988,57.7109 Q3778.555,57.7109 3777.8675,58.7891 Q3777.18,59.8516 3777.18,61.9453 Q3777.18,64.0391 3777.8675,65.1172 Q3778.555,66.1797 3779.8988,66.1797 Q3780.5238,66.1797 3781.1175,65.9141 Q3781.7113,65.6328 3782.3363,65.0547 L3782.3363,67.7734 Z " fill="#000000"/><text fill="#000000" font-family="sans-serif" font-size="12" font-style="italic" lengthAdjust="spacing" textLength="65" x="3799.3675" y="58.1387">«function»</text><text fill="#000000" font-family="sans-serif" font-size="14" lengthAdjust="spacing" textLength="77" x="3793.3675" y="73.9639">create_app</text><line style="stroke:#181818;stroke-width:0.5;" x1="3765.3675" x2="3872.3675" y1="82.2656" y2="82.2656"/><line style="stroke:#181818;stroke-width:0.5;" x1="3765.3675" x2="3872.3675" y1="90.2656" y2="90.2656"/></g><!--link common_pkg to odt_pkg--><!--link common_pkg to odt_pkg--><!--link odt_pkg to pht_pkg--><!--link odt_pkg to pht_pkg--><!--reverse link create_app to common_pkg--><g id="link_create_app_common_pkg"><path codeLine="166" d="M3758.8875,70.85 C3283.2675,69.83 137.4975,65.52 65.8675,130 C22.6325,168.92 14.205,233.4825 16.795,289.0175 C17.4425,302.9013 18.7786,316.2208 20.4316,328.4344 C21.258,334.5412 22.1638,340.3715 23.1022,345.8576 C23.5714,348.6007 24.0489,351.2577 24.5286,353.8202 C24.7685,355.1014 25.009,356.359 25.2494,357.5919 C25.3696,358.2084 25.4897,358.8187 25.6098,359.4227 C25.6698,359.7247 25.7298,360.0251 25.7897,360.3239 " fill="none" id="create_app-backto-common_pkg" style="stroke:#181818;stroke-width:1.0;"/><polygon fill="#181818" points="3764.0275,70.87,3755.0275,66.87,3759.0275,70.87,3755.0275,74.87,3764.0275,70.87" style="stroke:#181818;stroke-width:1.0;"/></g><!--reverse link create_app to odt_pkg--><g id="link_create_app_odt_pkg"><path codeLine="167" d="M3826.5175,103.24 C3846.6375,196.97 3890.0075,471.15 3744.8675,603 C3729.3075,617.13 3572.2775,597.87 3555.8675,611 C3552.8,613.455 3550.1967,616.3492 3547.9902,619.5403 C3546.887,621.1358 3545.8829,622.8056 3544.9696,624.5318 C3544.7413,624.9633 3544.5186,625.3984 3544.3015,625.8367 C3544.193,626.0558 3544.0858,626.2758 3543.98,626.4966 C3543.9271,626.6069 3543.8745,626.7175 3543.8223,626.8283 " fill="none" id="create_app-backto-odt_pkg" style="stroke:#181818;stroke-width:1.0;"/><polygon fill="#181818" points="3825.4075,98.11,3823.4013,107.7524,3826.4649,102.9969,3831.2204,106.0605,3825.4075,98.11" style="stroke:#181818;stroke-width:1.0;"/></g><!--reverse link create_app to pht_pkg--><g id="link_create_app_pht_pkg"><path codeLine="168" d="M3833.5675,102.87 C3880.3175,209.5 4012.6475,557.05 3839.8675,735 C3818.8875,756.61 3592.6175,724.46 3568.8675,743 C3563.7838,746.9675 3559.4666,751.677 3555.8043,756.8859 C3555.3465,757.537 3554.8989,758.1959 3554.4614,758.8622 " fill="none" id="create_app-backto-pht_pkg" style="stroke:#181818;stroke-width:1.0;"/><polygon fill="#181818" points="3831.5375,98.28,3831.5318,108.1289,3833.5655,102.8502,3838.8442,104.884,3831.5375,98.28" style="stroke:#181818;stroke-width:1.0;"/></g><!--SRC=[hLVRRkCs47ttLn1-Qb5aKVHvOI29aqsmiLt4JXTeiI1eSMopaKWkIIKm2lzxXxf45ukIN5Im8O7da3fpEEHGJcdY5DagvrH2k30GEQ7aPA9PzChsGAQHIX8bfuHPaZzI_Red_qmcXDGuqZecdPsIpv-VSGWczp7CPaWZUAdjtzX6FbXKE4Xi0Vhh5x9udDFRX-lbykw9VdkSRnxeruS_M_XllvQKTS5PD3XFgszqlRdUFAwMhR7EUIL-yxIw_Tg5hvQRn-NBow9NbMV-lju4EQT9_YUaxXRJubEabE52CWS1png-VN3FdCjrFCCE3CW8xWrBe0NU_KYPKqQm-1cinZbe4xwmcE6iHm5u3uxQeyKNruHySFBmJfFiLeMOkaCehY8gJ-b8X7MaD4pwngwfY9LwJVKb1kOz0ZPMJWKSQZKRbKfEiz5_-hc5ORA_WN7KCCeXmly-I76AxeiNd76y-JNvDRpR73166NfWaiT2xWUTQT83jkGa3ew9s9ufl67y6NwaODsTvxNGUQfZ4Q7qBl15QgCYi9PjOxYJJhXZ5ssftBrtkWkZ2Ni5QehCFHEdEADIERhBPYgB4qmdg-P4W95AWM7IR1SpJ4WNP7Fq6p0vSBbA1qQoc5emEDSTFRgdCL4Sui7PorY1IRlMUk7XLlCVB1QS-Iq-iDepaqjiOrW4MnJLHPhd2J4GYR8yOLg36OpcWnc8wDxuD9FHyGPDR67hTCkCOSTMyqBmMoLtOf-QBEOM_AJU- -0-BAfZT6TKGb7_MIPGltuJmQc36ApVscYZPtU7MBsFw53wdPMNKwrYA-woSettebPx2Yu3A5lzSzOuNSqtnEOrdoH2YaHOu4H8uWx2aZS1xzEC299d8pHUf0_vY_1U7GfGJ3C3KeTP4fhzKbL6gdHbshAsKUfg-YfFnYscKa2-bfe2ihR_GG0M_73sLsuoYGgmM0Wh_84hrA6sP9fTA6hG2hSSsoGN6Mi0js7QxDBAlwhc_2UQnNtMqDIURObvXrJpGGMdoVbJqo4xtXaxtf7-2FlHODZzmHWxDXRFx0_5Qy7zXswFD3f6CNGABkCrIYlBUe8QIx1qornq6CCxKZpwkzG6kGRyQigjl430g8Jh6-ujBuW3B8lkKqYmtlKvYsSTnJZLV4TJqylawbsEvc8byFewcRqfPa0huqRbM4uTJhASTva8Fx5Wx4WT1NkCb89wkPfBj8pRH7BkG7QFIlwXREuSwdH-2iDVxNlzocVSNmV1ESZlL-NHO0IZF4IquABa3y6JMWqCVAT5CREsj15PIDgbCYkvivcFeY4orLSpWgnFLOTAGnTOdaswm7y1]--></g></svg>