<?xml version="1.0" encoding="UTF-8" standalone="no"?><svg xmlns="http://www.w3.org/2000/svg" xmlns:xlink="http://www.w3.org/1999/xlink" contentStyleType="text/css" height="1091px" preserveAspectRatio="none" style="width:3042px;height:1091px;background:#FFFFFF;" version="1.1" viewBox="0 0 3042 1091" width="3042px" zoomAndPan="magnify"><defs/><g><!--cluster common_pkg--><g id="cluster_common_pkg"><path d="M20.0775,146 L88.0775,146 A3.75,3.75 0 0 1 90.5775,148.5 L97.5775,168.2969 L1983.0775,168.2969 A2.5,2.5 0 0 1 1985.5775,170.7969 L1985.5775,468.5 A2.5,2.5 0 0 1 1983.0775,471 L20.0775,471 A2.5,2.5 0 0 1 17.5775,468.5 L17.5775,148.5 A2.5,2.5 0 0 1 20.0775,146 " fill="none" style="stroke:#000000;stroke-width:1.5;"/><line style="stroke:#000000;stroke-width:1.5;" x1="17.5775" x2="97.5775" y1="168.2969" y2="168.2969"/><text fill="#000000" font-family="sans-serif" font-size="14" font-weight="bold" lengthAdjust="spacing" textLength="67" x="21.5775" y="160.9951">common</text></g><!--cluster constants--><g id="cluster_constants"><rect fill="none" height="177" rx="2.5" ry="2.5" style="stroke:#181818;stroke-width:1.0;" width="342" x="1025.5775" y="229.5"/><text fill="#000000" font-family="sans-serif" font-size="14" font-weight="bold" lengthAdjust="spacing" textLength="78" x="1157.5775" y="244.4951">constants</text></g><!--cluster api.coordinates--><g id="cluster_api.coordinates"><rect fill="none" height="144" rx="2.5" ry="2.5" style="stroke:#181818;stroke-width:1.0;" width="220" x="781.5775" y="246"/><text fill="#000000" font-family="sans-serif" font-size="14" font-weight="bold" lengthAdjust="spacing" textLength="122" x="830.5775" y="260.9951">api.coordinates</text></g><!--cluster auth--><g id="cluster_auth"><rect fill="none" height="96" rx="2.5" ry="2.5" style="stroke:#181818;stroke-width:1.0;" width="122" x="635.5775" y="270"/><text fill="#000000" font-family="sans-serif" font-size="14" font-weight="bold" lengthAdjust="spacing" textLength="35" x="679.0775" y="284.9951">auth</text></g><!--cluster coordinateslookup--><g id="cluster_coordinateslookup"><rect fill="none" height="177" rx="2.5" ry="2.5" style="stroke:#181818;stroke-width:1.0;" width="220" x="391.5775" y="229.5"/><text fill="#000000" font-family="sans-serif" font-size="14" font-weight="bold" lengthAdjust="spacing" textLength="147" x="428.0775" y="244.4951">coordinateslookup</text></g><!--cluster error_handling--><g id="cluster_error_handling"><rect fill="none" height="242" rx="2.5" ry="2.5" style="stroke:#181818;stroke-width:1.0;" width="310" x="57.5775" y="197"/><text fill="#000000" font-family="sans-serif" font-size="14" font-weight="bold" lengthAdjust="spacing" textLength="115" x="155.0775" y="211.9951">error_handling</text></g><!--cluster model--><g id="cluster_model"><rect fill="none" height="144" rx="2.5" ry="2.5" style="stroke:#181818;stroke-width:1.0;" width="234" x="1719.5775" y="246"/><text fill="#000000" font-family="sans-serif" font-size="14" font-weight="bold" lengthAdjust="spacing" textLength="48" x="1812.5775" y="260.9951">model</text></g><!--cluster osdmapper--><g id="cluster_osdmapper"><rect fill="none" height="210" rx="2.5" ry="2.5" style="stroke:#181818;stroke-width:1.0;" width="304" x="1391.5775" y="213"/><text fill="#000000" font-family="sans-serif" font-size="14" font-weight="bold" lengthAdjust="spacing" textLength="89" x="1499.0775" y="227.9951">osdmapper</text></g><!--cluster odt_pkg--><g id="cluster_odt_pkg"><path d="M880.0775,511 L907.0775,511 A3.75,3.75 0 0 1 909.5775,513.5 L916.5775,533.2969 L1194.0775,533.2969 A2.5,2.5 0 0 1 1196.5775,535.7969 L1196.5775,600.5 A2.5,2.5 0 0 1 1194.0775,603 L880.0775,603 A2.5,2.5 0 0 1 877.5775,600.5 L877.5775,513.5 A2.5,2.5 0 0 1 880.0775,511 " fill="none" style="stroke:#000000;stroke-width:1.5;"/><line style="stroke:#000000;stroke-width:1.5;" x1="877.5775" x2="916.5775" y1="533.2969" y2="533.2969"/><text fill="#000000" font-family="sans-serif" font-size="14" font-weight="bold" lengthAdjust="spacing" textLength="26" x="881.5775" y="525.9951">odt</text></g><!--cluster pht_pkg--><g id="cluster_pht_pkg"><path d="M880.0775,643 L907.0775,643 A3.75,3.75 0 0 1 909.5775,645.5 L916.5775,665.2969 L3033.0775,665.2969 A2.5,2.5 0 0 1 3035.5775,667.7969 L3035.5775,1081.5 A2.5,2.5 0 0 1 3033.0775,1084 L880.0775,1084 A2.5,2.5 0 0 1 877.5775,1081.5 L877.5775,645.5 A2.5,2.5 0 0 1 880.0775,643 " fill="none" style="stroke:#000000;stroke-width:1.5;"/><line style="stroke:#000000;stroke-width:1.5;" x1="877.5775" x2="916.5775" y1="665.2969" y2="665.2969"/><text fill="#000000" font-family="sans-serif" font-size="14" font-weight="bold" lengthAdjust="spacing" textLength="26" x="881.5775" y="657.9951">pht</text></g><!--cluster api--><g id="cluster_api"><rect fill="none" height="358" rx="2.5" ry="2.5" style="stroke:#181818;stroke-width:1.0;" width="1460" x="917.5775" y="694"/><text fill="#000000" font-family="sans-serif" font-size="14" font-weight="bold" lengthAdjust="spacing" textLength="23" x="1636.0775" y="708.9951">api</text></g><!--cluster panel_decision--><g id="cluster_panel_decision"><rect fill="none" height="144" rx="2.5" ry="2.5" style="stroke:#181818;stroke-width:1.0;" width="272" x="941.5775" y="810.5"/><text fill="#000000" font-family="sans-serif" font-size="14" font-weight="bold" lengthAdjust="spacing" textLength="116" x="1019.5775" y="825.4951">panel_decision</text></g><!--cluster panels--><g id="cluster_panels"><rect fill="none" height="128" rx="2.5" ry="2.5" style="stroke:#181818;stroke-width:1.0;" width="208" x="1503.5775" y="818.5"/><text fill="#000000" font-family="sans-serif" font-size="14" font-weight="bold" lengthAdjust="spacing" textLength="52" x="1581.5775" y="833.4951">panels</text></g><!--cluster prsls--><g id="cluster_prsls"><rect fill="none" height="291" rx="2.5" ry="2.5" style="stroke:#181818;stroke-width:1.0;" width="242" x="1237.5775" y="737"/><text fill="#000000" font-family="sans-serif" font-size="14" font-weight="bold" lengthAdjust="spacing" textLength="39" x="1339.0775" y="751.9951">prsls</text></g><!--cluster report--><g id="cluster_report"><rect fill="none" height="96" rx="2.5" ry="2.5" style="stroke:#181818;stroke-width:1.0;" width="166" x="1949.5775" y="834.5"/><text fill="#000000" font-family="sans-serif" font-size="14" font-weight="bold" lengthAdjust="spacing" textLength="50" x="2007.5775" y="849.4951">report</text></g><!--cluster reviewers--><g id="cluster_reviewers"><rect fill="none" height="96" rx="2.5" ry="2.5" style="stroke:#181818;stroke-width:1.0;" width="190" x="1735.5775" y="834.5"/><text fill="#000000" font-family="sans-serif" font-size="14" font-weight="bold" lengthAdjust="spacing" textLength="80" x="1790.5775" y="849.4951">reviewers</text></g><!--cluster reviews--><g id="cluster_reviews"><rect fill="none" height="144" rx="2.5" ry="2.5" style="stroke:#181818;stroke-width:1.0;" width="214" x="2139.5775" y="810.5"/><text fill="#000000" font-family="sans-serif" font-size="14" font-weight="bold" lengthAdjust="spacing" textLength="63" x="2215.0775" y="825.4951">reviews</text></g><!--cluster pht.utils--><g id="cluster_pht.utils"><rect fill="none" height="76" rx="2.5" ry="2.5" style="stroke:#181818;stroke-width:1.0;" width="282" x="2721.5775" y="844.5"/><text fill="#000000" font-family="sans-serif" font-size="14" font-weight="bold" lengthAdjust="spacing" textLength="64" x="2830.5775" y="859.4951">pht.utils</text></g><!--cluster pht.model--><g id="cluster_pht.model"><rect fill="none" height="76" rx="2.5" ry="2.5" style="stroke:#181818;stroke-width:1.0;" width="296" x="2401.5775" y="844.5"/><text fill="#000000" font-family="sans-serif" font-size="14" font-weight="bold" lengthAdjust="spacing" textLength="79" x="2510.0775" y="859.4951">pht.model</text></g><!--cluster app--><g id="cluster_app"><rect fill="none" height="107" rx="2.5" ry="2.5" style="stroke:#181818;stroke-width:1.0;" width="142" x="1956.5775" y="7"/><text fill="#000000" font-family="sans-serif" font-size="14" font-weight="bold" lengthAdjust="spacing" textLength="29" x="2013.0775" y="21.9951">app</text></g><g id="elem_constants_items"><rect fill="#F1F1F1" height="126.0781" style="stroke:#181818;stroke-width:0.5;" width="310" x="1041.5775" y="264.5"/><text fill="#000000" font-family="sans-serif" font-size="14" lengthAdjust="spacing" textLength="114" x="1139.5775" y="279.4951">constants_items</text><line style="stroke:#181818;stroke-width:0.5;" x1="1042.5775" x2="1350.5775" y1="284.7969" y2="284.7969"/><ellipse cx="1052.5775" cy="298.4453" fill="none" rx="3" ry="3" style="stroke:#038048;stroke-width:1.0;"/><text fill="#000000" font-family="sans-serif" font-size="14" lengthAdjust="spacing" textLength="187" x="1061.5775" y="301.792">MID_CHANNEL_WIDTH_KHZ</text><ellipse cx="1052.5775" cy="314.7422" fill="none" rx="3" ry="3" style="stroke:#038048;stroke-width:1.0;"/><text fill="#000000" font-family="sans-serif" font-size="14" lengthAdjust="spacing" textLength="224" x="1061.5775" y="318.0889">MID_20_CHANNELS_WIDTH_MHZ</text><ellipse cx="1052.5775" cy="331.0391" fill="none" rx="3" ry="3" style="stroke:#038048;stroke-width:1.0;"/><text fill="#000000" font-family="sans-serif" font-size="14" lengthAdjust="spacing" textLength="262" x="1061.5775" y="334.3857">LOW_STATION_CHANNEL_WIDTH_MHZ</text><ellipse cx="1052.5775" cy="347.3359" fill="none" rx="3" ry="3" style="stroke:#038048;stroke-width:1.0;"/><text fill="#000000" font-family="sans-serif" font-size="14" lengthAdjust="spacing" textLength="196" x="1061.5775" y="350.6826">LOW_CHANNEL_BLOCK_MHZ</text><ellipse cx="1052.5775" cy="363.6328" fill="none" rx="3" ry="3" style="stroke:#038048;stroke-width:1.0;"/><text fill="#000000" font-family="sans-serif" font-size="14" lengthAdjust="spacing" textLength="284" x="1061.5775" y="366.9795">LOW_CONTINUUM_CHANNEL_WIDTH_KHZ</text><ellipse cx="1052.5775" cy="379.9297" fill="none" rx="3" ry="3" style="stroke:#038048;stroke-width:1.0;"/><text fill="#000000" font-family="sans-serif" font-size="14" lengthAdjust="spacing" textLength="226" x="1061.5775" y="383.2764">LOW_PST_CHANNEL_WIDTH_KHZ</text></g><g id="elem_coordinates_items"><rect fill="#F1F1F1" height="93.4844" style="stroke:#181818;stroke-width:0.5;" width="188" x="797.5775" y="281"/><text fill="#000000" font-family="sans-serif" font-size="14" lengthAdjust="spacing" textLength="127" x="828.0775" y="295.9951">coordinates_items</text><line style="stroke:#181818;stroke-width:0.5;" x1="798.5775" x2="984.5775" y1="301.2969" y2="301.2969"/><ellipse cx="808.5775" cy="314.9453" fill="none" rx="3" ry="3" style="stroke:#038048;stroke-width:1.0;"/><text fill="#000000" font-family="sans-serif" font-size="14" lengthAdjust="spacing" textLength="115" x="817.5775" y="318.292">ReferenceFrame</text><ellipse cx="808.5775" cy="331.2422" fill="none" rx="3" ry="3" style="stroke:#038048;stroke-width:1.0;"/><text fill="#000000" font-family="sans-serif" font-size="14" lengthAdjust="spacing" textLength="139" x="817.5775" y="334.5889">EquatorialResponse</text><ellipse cx="808.5775" cy="347.5391" fill="none" rx="3" ry="3" style="stroke:#038048;stroke-width:1.0;"/><text fill="#000000" font-family="sans-serif" font-size="14" lengthAdjust="spacing" textLength="125" x="817.5775" y="350.8857">GalacticResponse</text><ellipse cx="808.5775" cy="363.8359" fill="none" rx="3" ry="3" style="stroke:#038048;stroke-width:1.0;"/><text fill="#000000" font-family="sans-serif" font-size="14" lengthAdjust="spacing" textLength="162" x="817.5775" y="367.1826">get_systemcoordinates</text></g><g id="elem_auth_items"><rect fill="#F1F1F1" height="44.5938" style="stroke:#181818;stroke-width:0.5;" width="90" x="651.5775" y="305"/><text fill="#000000" font-family="sans-serif" font-size="14" lengthAdjust="spacing" textLength="76" x="658.5775" y="319.9951">auth_items</text><line style="stroke:#181818;stroke-width:0.5;" x1="652.5775" x2="740.5775" y1="325.2969" y2="325.2969"/><ellipse cx="662.5775" cy="338.9453" fill="none" rx="3" ry="3" style="stroke:#038048;stroke-width:1.0;"/><text fill="#000000" font-family="sans-serif" font-size="14" lengthAdjust="spacing" textLength="44" x="671.5775" y="342.292">Scope</text></g><g id="elem_coordinateslookup_items"><rect fill="#F1F1F1" height="126.0781" style="stroke:#181818;stroke-width:0.5;" width="188" x="407.5775" y="264.5"/><text fill="#000000" font-family="sans-serif" font-size="14" lengthAdjust="spacing" textLength="174" x="414.5775" y="279.4951">coordinateslookup_items</text><line style="stroke:#181818;stroke-width:0.5;" x1="408.5775" x2="594.5775" y1="284.7969" y2="284.7969"/><ellipse cx="418.5775" cy="298.4453" fill="none" rx="3" ry="3" style="stroke:#038048;stroke-width:1.0;"/><text fill="#000000" font-family="sans-serif" font-size="14" lengthAdjust="spacing" textLength="68" x="427.5775" y="301.792">Equatorial</text><ellipse cx="418.5775" cy="314.7422" fill="none" rx="3" ry="3" style="stroke:#038048;stroke-width:1.0;"/><text fill="#000000" font-family="sans-serif" font-size="14" lengthAdjust="spacing" textLength="54" x="427.5775" y="318.0889">Galactic</text><ellipse cx="418.5775" cy="331.0391" fill="#84BE84" rx="3" ry="3" style="stroke:#038048;stroke-width:1.0;"/><text fill="#000000" font-family="sans-serif" font-size="14" lengthAdjust="spacing" textLength="98" x="427.5775" y="334.3857">round_coord()</text><ellipse cx="418.5775" cy="347.3359" fill="#84BE84" rx="3" ry="3" style="stroke:#038048;stroke-width:1.0;"/><text fill="#000000" font-family="sans-serif" font-size="14" lengthAdjust="spacing" textLength="149" x="427.5775" y="350.6826">convert_ra_dec_deg()</text><ellipse cx="418.5775" cy="363.6328" fill="#84BE84" rx="3" ry="3" style="stroke:#038048;stroke-width:1.0;"/><text fill="#000000" font-family="sans-serif" font-size="14" lengthAdjust="spacing" textLength="142" x="427.5775" y="366.9795">convert_to_galactic()</text><ellipse cx="418.5775" cy="379.9297" fill="#84BE84" rx="3" ry="3" style="stroke:#038048;stroke-width:1.0;"/><text fill="#000000" font-family="sans-serif" font-size="14" lengthAdjust="spacing" textLength="122" x="427.5775" y="383.2764">get_coordinates()</text></g><g id="elem_error_handling_items"><rect fill="#F1F1F1" height="191.2656" style="stroke:#181818;stroke-width:0.5;" width="278" x="73.5775" y="232"/><text fill="#000000" font-family="sans-serif" font-size="14" lengthAdjust="spacing" textLength="144" x="140.5775" y="246.9951">error_handling_items</text><line style="stroke:#181818;stroke-width:0.5;" x1="74.5775" x2="350.5775" y1="252.2969" y2="252.2969"/><ellipse cx="84.5775" cy="265.9453" fill="#84BE84" rx="3" ry="3" style="stroke:#038048;stroke-width:1.0;"/><text fill="#000000" font-family="sans-serif" font-size="14" lengthAdjust="spacing" textLength="95" x="93.5775" y="269.292">error_details()</text><ellipse cx="84.5775" cy="282.2422" fill="none" rx="3" ry="3" style="stroke:#038048;stroke-width:1.0;"/><text fill="#000000" font-family="sans-serif" font-size="14" lengthAdjust="spacing" textLength="119" x="93.5775" y="285.5889">BadRequestError</text><ellipse cx="84.5775" cy="298.5391" fill="none" rx="3" ry="3" style="stroke:#038048;stroke-width:1.0;"/><text fill="#000000" font-family="sans-serif" font-size="14" lengthAdjust="spacing" textLength="98" x="93.5775" y="301.8857">DuplicateError</text><ellipse cx="84.5775" cy="314.8359" fill="none" rx="3" ry="3" style="stroke:#038048;stroke-width:1.0;"/><text fill="#000000" font-family="sans-serif" font-size="14" lengthAdjust="spacing" textLength="175" x="93.5775" y="318.1826">UnprocessableEntityError</text><ellipse cx="84.5775" cy="331.1328" fill="none" rx="3" ry="3" style="stroke:#038048;stroke-width:1.0;"/><text fill="#000000" font-family="sans-serif" font-size="14" lengthAdjust="spacing" textLength="101" x="93.5775" y="334.4795">NotFoundError</text><ellipse cx="84.5775" cy="347.4297" fill="#84BE84" rx="3" ry="3" style="stroke:#038048;stroke-width:1.0;"/><text fill="#000000" font-family="sans-serif" font-size="14" lengthAdjust="spacing" textLength="128" x="93.5775" y="350.7764">_make_response()</text><ellipse cx="84.5775" cy="363.7266" fill="#84BE84" rx="3" ry="3" style="stroke:#038048;stroke-width:1.0;"/><text fill="#000000" font-family="sans-serif" font-size="14" lengthAdjust="spacing" textLength="172" x="93.5775" y="367.0732">oda_not_found_handler()</text><ellipse cx="84.5775" cy="380.0234" fill="#84BE84" rx="3" ry="3" style="stroke:#038048;stroke-width:1.0;"/><text fill="#000000" font-family="sans-serif" font-size="14" lengthAdjust="spacing" textLength="135" x="93.5775" y="383.3701">oda_error_handler()</text><ellipse cx="84.5775" cy="396.3203" fill="#84BE84" rx="3" ry="3" style="stroke:#038048;stroke-width:1.0;"/><text fill="#000000" font-family="sans-serif" font-size="14" lengthAdjust="spacing" textLength="226" x="93.5775" y="399.667">oda_unique_constraint_handler()</text><ellipse cx="84.5775" cy="412.6172" fill="#84BE84" rx="3" ry="3" style="stroke:#038048;stroke-width:1.0;"/><text fill="#000000" font-family="sans-serif" font-size="14" lengthAdjust="spacing" textLength="252" x="93.5775" y="415.9639">dangerous_internal_server_handler()</text></g><g id="elem_model_items"><rect fill="#F1F1F1" height="93.4844" style="stroke:#181818;stroke-width:0.5;" width="202" x="1735.5775" y="281"/><text fill="#000000" font-family="sans-serif" font-size="14" lengthAdjust="spacing" textLength="88" x="1792.5775" y="295.9951">model_items</text><line style="stroke:#181818;stroke-width:0.5;" x1="1736.5775" x2="1936.5775" y1="301.2969" y2="301.2969"/><ellipse cx="1746.5775" cy="314.9453" fill="none" rx="3" ry="3" style="stroke:#038048;stroke-width:1.0;"/><text fill="#000000" font-family="sans-serif" font-size="14" lengthAdjust="spacing" textLength="69" x="1755.5775" y="318.292">AppModel</text><ellipse cx="1746.5775" cy="331.2422" fill="none" rx="3" ry="3" style="stroke:#038048;stroke-width:1.0;"/><text fill="#000000" font-family="sans-serif" font-size="14" lengthAdjust="spacing" textLength="137" x="1755.5775" y="334.5889">ValidationResponse</text><ellipse cx="1746.5775" cy="347.5391" fill="none" rx="3" ry="3" style="stroke:#038048;stroke-width:1.0;"/><text fill="#000000" font-family="sans-serif" font-size="14" lengthAdjust="spacing" textLength="176" x="1755.5775" y="350.8857">ErrorResponseTraceback</text><ellipse cx="1746.5775" cy="363.8359" fill="none" rx="3" ry="3" style="stroke:#038048;stroke-width:1.0;"/><text fill="#000000" font-family="sans-serif" font-size="14" lengthAdjust="spacing" textLength="80" x="1755.5775" y="367.1826">ErrorDetails</text></g><g id="elem_osdmapper_items"><rect fill="#F1F1F1" height="158.6719" style="stroke:#181818;stroke-width:0.5;" width="271" x="1408.0775" y="248"/><text fill="#000000" font-family="sans-serif" font-size="14" lengthAdjust="spacing" textLength="124" x="1481.5775" y="262.9951">osdmapper_items</text><line style="stroke:#181818;stroke-width:0.5;" x1="1409.0775" x2="1678.0775" y1="268.2969" y2="268.2969"/><ellipse cx="1419.0775" cy="281.9453" fill="none" rx="3" ry="3" style="stroke:#038048;stroke-width:1.0;"/><text fill="#000000" font-family="sans-serif" font-size="14" lengthAdjust="spacing" textLength="109" x="1428.0775" y="285.292">FrequencyBand</text><ellipse cx="1419.0775" cy="298.2422" fill="none" rx="3" ry="3" style="stroke:#038048;stroke-width:1.0;"/><text fill="#000000" font-family="sans-serif" font-size="14" lengthAdjust="spacing" textLength="60" x="1428.0775" y="301.5889">Subarray</text><ellipse cx="1419.0775" cy="314.5391" fill="none" rx="3" ry="3" style="stroke:#038048;stroke-width:1.0;"/><text fill="#000000" font-family="sans-serif" font-size="14" lengthAdjust="spacing" textLength="116" x="1428.0775" y="317.8857">MidConfiguration</text><ellipse cx="1419.0775" cy="330.8359" fill="none" rx="3" ry="3" style="stroke:#038048;stroke-width:1.0;"/><text fill="#000000" font-family="sans-serif" font-size="14" lengthAdjust="spacing" textLength="119" x="1428.0775" y="334.1826">LowConfiguration</text><ellipse cx="1419.0775" cy="347.1328" fill="none" rx="3" ry="3" style="stroke:#038048;stroke-width:1.0;"/><text fill="#000000" font-family="sans-serif" font-size="14" lengthAdjust="spacing" textLength="92" x="1428.0775" y="350.4795">Configuration</text><ellipse cx="1419.0775" cy="363.4297" fill="#84BE84" rx="3" ry="3" style="stroke:#038048;stroke-width:1.0;"/><text fill="#000000" font-family="sans-serif" font-size="14" lengthAdjust="spacing" textLength="171" x="1428.0775" y="366.7764">configuration_from_osd()</text><ellipse cx="1419.0775" cy="379.7266" fill="#84BE84" rx="3" ry="3" style="stroke:#038048;stroke-width:1.0;"/><text fill="#000000" font-family="sans-serif" font-size="14" lengthAdjust="spacing" textLength="245" x="1428.0775" y="383.0732">_get_mid_telescope_configuration()</text><ellipse cx="1419.0775" cy="396.0234" fill="#84BE84" rx="3" ry="3" style="stroke:#038048;stroke-width:1.0;"/><text fill="#000000" font-family="sans-serif" font-size="14" lengthAdjust="spacing" textLength="243" x="1428.0775" y="399.3701">_get_low_telescope_configuration()</text></g><g id="elem_odt_note"><path d="M921.0775,554 L921.0775,579.1328 L1172.0775,579.1328 L1172.0775,564 L1162.0775,554 L921.0775,554 " fill="#FEFFDD" style="stroke:#181818;stroke-width:0.5;"/><path d="M1162.0775,554 L1162.0775,564 L1172.0775,564 L1162.0775,554 " fill="#FEFFDD" style="stroke:#181818;stroke-width:1.0;"/><text fill="#000000" font-family="sans-serif" font-size="13" lengthAdjust="spacing" textLength="230" x="927.0775" y="571.0669">"ODT section minimized in this view"</text></g><g id="elem_panel_decision_endpoints"><rect fill="#F1F1F1" height="93.4844" style="stroke:#181818;stroke-width:0.5;" width="240" x="957.5775" y="845.5"/><text fill="#000000" font-family="sans-serif" font-size="14" lengthAdjust="spacing" textLength="180" x="987.5775" y="860.4951">panel_decision_endpoints</text><line style="stroke:#181818;stroke-width:0.5;" x1="958.5775" x2="1196.5775" y1="865.7969" y2="865.7969"/><ellipse cx="968.5775" cy="879.4453" fill="#84BE84" rx="3" ry="3" style="stroke:#038048;stroke-width:1.0;"/><text fill="#000000" font-family="sans-serif" font-size="14" lengthAdjust="spacing" textLength="164" x="977.5775" y="882.792">create_panel_decision()</text><ellipse cx="968.5775" cy="895.7422" fill="#84BE84" rx="3" ry="3" style="stroke:#038048;stroke-width:1.0;"/><text fill="#000000" font-family="sans-serif" font-size="14" lengthAdjust="spacing" textLength="143" x="977.5775" y="899.0889">get_panel_decision()</text><ellipse cx="968.5775" cy="912.0391" fill="#84BE84" rx="3" ry="3" style="stroke:#038048;stroke-width:1.0;"/><text fill="#000000" font-family="sans-serif" font-size="14" lengthAdjust="spacing" textLength="214" x="977.5775" y="915.3857">get_panel_decisions_for_user()</text><ellipse cx="968.5775" cy="928.3359" fill="#84BE84" rx="3" ry="3" style="stroke:#038048;stroke-width:1.0;"/><text fill="#000000" font-family="sans-serif" font-size="14" lengthAdjust="spacing" textLength="169" x="977.5775" y="931.6826">update_panel_decision()</text></g><g id="elem_panels_endpoints"><rect fill="#F1F1F1" height="77.1875" style="stroke:#181818;stroke-width:0.5;" width="175" x="1520.0775" y="853.5"/><text fill="#000000" font-family="sans-serif" font-size="14" lengthAdjust="spacing" textLength="123" x="1546.0775" y="868.4951">panels_endpoints</text><line style="stroke:#181818;stroke-width:0.5;" x1="1521.0775" x2="1694.0775" y1="873.7969" y2="873.7969"/><ellipse cx="1531.0775" cy="887.4453" fill="#84BE84" rx="3" ry="3" style="stroke:#038048;stroke-width:1.0;"/><text fill="#000000" font-family="sans-serif" font-size="14" lengthAdjust="spacing" textLength="99" x="1540.0775" y="890.792">create_panel()</text><ellipse cx="1531.0775" cy="903.7422" fill="#84BE84" rx="3" ry="3" style="stroke:#038048;stroke-width:1.0;"/><text fill="#000000" font-family="sans-serif" font-size="14" lengthAdjust="spacing" textLength="78" x="1540.0775" y="907.0889">get_panel()</text><ellipse cx="1531.0775" cy="920.0391" fill="#84BE84" rx="3" ry="3" style="stroke:#038048;stroke-width:1.0;"/><text fill="#000000" font-family="sans-serif" font-size="14" lengthAdjust="spacing" textLength="149" x="1540.0775" y="923.3857">get_panels_for_user()</text></g><g id="elem_prsls_endpoints"><rect fill="#F1F1F1" height="240.1563" style="stroke:#181818;stroke-width:0.5;" width="210" x="1253.5775" y="772"/><text fill="#000000" font-family="sans-serif" font-size="14" lengthAdjust="spacing" textLength="110" x="1303.5775" y="786.9951">prsls_endpoints</text><line style="stroke:#181818;stroke-width:0.5;" x1="1254.5775" x2="1462.5775" y1="792.2969" y2="792.2969"/><ellipse cx="1264.5775" cy="805.9453" fill="#84BE84" rx="3" ry="3" style="stroke:#038048;stroke-width:1.0;"/><text fill="#000000" font-family="sans-serif" font-size="14" lengthAdjust="spacing" textLength="131" x="1273.5775" y="809.292">get_osd_by_cycle()</text><ellipse cx="1264.5775" cy="822.2422" fill="#84BE84" rx="3" ry="3" style="stroke:#038048;stroke-width:1.0;"/><text fill="#000000" font-family="sans-serif" font-size="14" lengthAdjust="spacing" textLength="121" x="1273.5775" y="825.5889">create_proposal()</text><ellipse cx="1264.5775" cy="838.5391" fill="#84BE84" rx="3" ry="3" style="stroke:#038048;stroke-width:1.0;"/><text fill="#000000" font-family="sans-serif" font-size="14" lengthAdjust="spacing" textLength="100" x="1273.5775" y="841.8857">get_proposal()</text><ellipse cx="1264.5775" cy="854.8359" fill="#84BE84" rx="3" ry="3" style="stroke:#038048;stroke-width:1.0;"/><text fill="#000000" font-family="sans-serif" font-size="14" lengthAdjust="spacing" textLength="154" x="1273.5775" y="858.1826">get_proposals_batch()</text><ellipse cx="1264.5775" cy="871.1328" fill="#84BE84" rx="3" ry="3" style="stroke:#038048;stroke-width:1.0;"/><text fill="#000000" font-family="sans-serif" font-size="14" lengthAdjust="spacing" textLength="181" x="1273.5775" y="874.4795">get_proposals_by_status()</text><ellipse cx="1264.5775" cy="887.4297" fill="#84BE84" rx="3" ry="3" style="stroke:#038048;stroke-width:1.0;"/><text fill="#000000" font-family="sans-serif" font-size="14" lengthAdjust="spacing" textLength="184" x="1273.5775" y="890.7764">get_reviews_for_proposal()</text><ellipse cx="1264.5775" cy="903.7266" fill="#84BE84" rx="3" ry="3" style="stroke:#038048;stroke-width:1.0;"/><text fill="#000000" font-family="sans-serif" font-size="14" lengthAdjust="spacing" textLength="171" x="1273.5775" y="907.0732">get_proposals_for_user()</text><ellipse cx="1264.5775" cy="920.0234" fill="#84BE84" rx="3" ry="3" style="stroke:#038048;stroke-width:1.0;"/><text fill="#000000" font-family="sans-serif" font-size="14" lengthAdjust="spacing" textLength="126" x="1273.5775" y="923.3701">update_proposal()</text><ellipse cx="1264.5775" cy="936.3203" fill="#84BE84" rx="3" ry="3" style="stroke:#038048;stroke-width:1.0;"/><text fill="#000000" font-family="sans-serif" font-size="14" lengthAdjust="spacing" textLength="129" x="1273.5775" y="939.667">validate_proposal()</text><ellipse cx="1264.5775" cy="952.6172" fill="#84BE84" rx="3" ry="3" style="stroke:#038048;stroke-width:1.0;"/><text fill="#000000" font-family="sans-serif" font-size="14" lengthAdjust="spacing" textLength="88" x="1273.5775" y="955.9639">send_email()</text><ellipse cx="1264.5775" cy="968.9141" fill="#84BE84" rx="3" ry="3" style="stroke:#038048;stroke-width:1.0;"/><text fill="#000000" font-family="sans-serif" font-size="14" lengthAdjust="spacing" textLength="161" x="1273.5775" y="972.2607">create_upload_pdf_url()</text><ellipse cx="1264.5775" cy="985.2109" fill="#84BE84" rx="3" ry="3" style="stroke:#038048;stroke-width:1.0;"/><text fill="#000000" font-family="sans-serif" font-size="14" lengthAdjust="spacing" textLength="181" x="1273.5775" y="988.5576">create_download_pdf_url()</text><ellipse cx="1264.5775" cy="1001.5078" fill="#84BE84" rx="3" ry="3" style="stroke:#038048;stroke-width:1.0;"/><text fill="#000000" font-family="sans-serif" font-size="14" lengthAdjust="spacing" textLength="158" x="1273.5775" y="1004.8545">create_delete_pdf_url()</text></g><g id="elem_report_endpoints"><rect fill="#F1F1F1" height="44.5938" style="stroke:#181818;stroke-width:0.5;" width="133" x="1966.0775" y="869.5"/><text fill="#000000" font-family="sans-serif" font-size="14" lengthAdjust="spacing" textLength="119" x="1973.0775" y="884.4951">report_endpoints</text><line style="stroke:#181818;stroke-width:0.5;" x1="1967.0775" x2="2098.0775" y1="889.7969" y2="889.7969"/><ellipse cx="1977.0775" cy="903.4453" fill="#84BE84" rx="3" ry="3" style="stroke:#038048;stroke-width:1.0;"/><text fill="#000000" font-family="sans-serif" font-size="14" lengthAdjust="spacing" textLength="82" x="1986.0775" y="906.792">get_report()</text></g><g id="elem_reviewers_endpoints"><rect fill="#F1F1F1" height="44.5938" style="stroke:#181818;stroke-width:0.5;" width="157" x="1752.0775" y="869.5"/><text fill="#000000" font-family="sans-serif" font-size="14" lengthAdjust="spacing" textLength="143" x="1759.0775" y="884.4951">reviewers_endpoints</text><line style="stroke:#181818;stroke-width:0.5;" x1="1753.0775" x2="1908.0775" y1="889.7969" y2="889.7969"/><ellipse cx="1763.0775" cy="903.4453" fill="#84BE84" rx="3" ry="3" style="stroke:#038048;stroke-width:1.0;"/><text fill="#000000" font-family="sans-serif" font-size="14" lengthAdjust="spacing" textLength="106" x="1772.0775" y="906.792">get_reviewers()</text></g><g id="elem_reviews_endpoints"><rect fill="#F1F1F1" height="93.4844" style="stroke:#181818;stroke-width:0.5;" width="181" x="2156.0775" y="845.5"/><text fill="#000000" font-family="sans-serif" font-size="14" lengthAdjust="spacing" textLength="129" x="2182.0775" y="860.4951">reviews_endpoints</text><line style="stroke:#181818;stroke-width:0.5;" x1="2157.0775" x2="2336.0775" y1="865.7969" y2="865.7969"/><ellipse cx="2167.0775" cy="879.4453" fill="#84BE84" rx="3" ry="3" style="stroke:#038048;stroke-width:1.0;"/><text fill="#000000" font-family="sans-serif" font-size="14" lengthAdjust="spacing" textLength="105" x="2176.0775" y="882.792">create_review()</text><ellipse cx="2167.0775" cy="895.7422" fill="#84BE84" rx="3" ry="3" style="stroke:#038048;stroke-width:1.0;"/><text fill="#000000" font-family="sans-serif" font-size="14" lengthAdjust="spacing" textLength="84" x="2176.0775" y="899.0889">get_review()</text><ellipse cx="2167.0775" cy="912.0391" fill="#84BE84" rx="3" ry="3" style="stroke:#038048;stroke-width:1.0;"/><text fill="#000000" font-family="sans-serif" font-size="14" lengthAdjust="spacing" textLength="155" x="2176.0775" y="915.3857">get_reviews_for_user()</text><ellipse cx="2167.0775" cy="928.3359" fill="#84BE84" rx="3" ry="3" style="stroke:#038048;stroke-width:1.0;"/><text fill="#000000" font-family="sans-serif" font-size="14" lengthAdjust="spacing" textLength="110" x="2176.0775" y="931.6826">update_review()</text></g><g id="elem_utils_note"><path d="M2737.5775,879.5 L2737.5775,904.6328 L2987.5775,904.6328 L2987.5775,889.5 L2977.5775,879.5 L2737.5775,879.5 " fill="#FEFFDD" style="stroke:#181818;stroke-width:0.5;"/><path d="M2977.5775,879.5 L2977.5775,889.5 L2987.5775,889.5 L2977.5775,879.5 " fill="#FEFFDD" style="stroke:#181818;stroke-width:1.0;"/><text fill="#000000" font-family="sans-serif" font-size="13" lengthAdjust="spacing" textLength="229" x="2743.5775" y="896.5669">"utils section minimized in this view"</text></g><g id="elem_model_note"><path d="M2417.5775,879.5 L2417.5775,904.6328 L2681.5775,904.6328 L2681.5775,889.5 L2671.5775,879.5 L2417.5775,879.5 " fill="#FEFFDD" style="stroke:#181818;stroke-width:0.5;"/><path d="M2671.5775,879.5 L2671.5775,889.5 L2681.5775,889.5 L2671.5775,879.5 " fill="#FEFFDD" style="stroke:#181818;stroke-width:1.0;"/><text fill="#000000" font-family="sans-serif" font-size="13" lengthAdjust="spacing" textLength="243" x="2423.5775" y="896.5669">"model section minimized in this view"</text></g><!--class create_app--><g id="elem_create_app"><rect codeLine="166" fill="#F1F1F1" height="56.2656" id="create_app" rx="2.5" ry="2.5" style="stroke:#181818;stroke-width:0.5;" width="109" x="1973.0775" y="42"/><ellipse cx="1988.0775" cy="62.1328" fill="#ADD1B2" rx="11" ry="11" style="stroke:#181818;stroke-width:1.0;"/><path d="M1991.0463,67.7734 Q1990.4681,68.0703 1989.8275,68.2109 Q1989.1869,68.3672 1988.4838,68.3672 Q1985.9838,68.3672 1984.6556,66.7266 Q1983.3431,65.0703 1983.3431,61.9453 Q1983.3431,58.8203 1984.6556,57.1641 Q1985.9838,55.5078 1988.4838,55.5078 Q1989.1869,55.5078 1989.8275,55.6641 Q1990.4838,55.8203 1991.0463,56.1172 L1991.0463,58.8359 Q1990.4213,58.2578 1989.8275,57.9922 Q1989.2338,57.7109 1988.6088,57.7109 Q1987.265,57.7109 1986.5775,58.7891 Q1985.89,59.8516 1985.89,61.9453 Q1985.89,64.0391 1986.5775,65.1172 Q1987.265,66.1797 1988.6088,66.1797 Q1989.2338,66.1797 1989.8275,65.9141 Q1990.4213,65.6328 1991.0463,65.0547 L1991.0463,67.7734 Z " fill="#000000"/><text fill="#000000" font-family="sans-serif" font-size="12" font-style="italic" lengthAdjust="spacing" textLength="65" x="2008.0775" y="58.1387">«function»</text><text fill="#000000" font-family="sans-serif" font-size="14" lengthAdjust="spacing" textLength="77" x="2002.0775" y="73.9639">create_app</text><line style="stroke:#181818;stroke-width:0.5;" x1="1974.0775" x2="2081.0775" y1="82.2656" y2="82.2656"/><line style="stroke:#181818;stroke-width:0.5;" x1="1974.0775" x2="2081.0775" y1="90.2656" y2="90.2656"/></g><!--link common_pkg to odt_pkg--><!--link common_pkg to odt_pkg--><!--link odt_pkg to pht_pkg--><!--link odt_pkg to pht_pkg--><!--reverse link create_app to common_pkg--><g id="link_create_app_common_pkg"><path codeLine="170" d="M1967.9275,70.67 C1646.3575,69.16 131.1575,65.51 57.5775,130 C24.8275,158.705 16.565,206.755 16.6188,248.1538 C16.6255,253.3286 16.7621,258.3995 16.9971,263.3157 C17.1147,265.7738 17.2568,268.1933 17.4195,270.5677 C17.4602,271.1613 17.5022,271.7521 17.5454,272.34 " fill="none" id="create_app-backto-common_pkg" style="stroke:#181818;stroke-width:1.0;"/><polygon fill="#181818" points="1973.0375,70.7,1964.049,66.6743,1968.0375,70.6857,1964.0261,74.6743,1973.0375,70.7" style="stroke:#181818;stroke-width:1.0;"/></g><!--reverse link create_app to odt_pkg--><g id="link_create_app_odt_pkg"><path codeLine="171" d="M2033.7575,103.26 C2046.9675,183.08 2068.0675,390.33 1953.5775,487 C1931.3175,505.8 927.6375,477.19 904.5775,495 C901.4675,497.4013 898.832,500.2547 896.6018,503.4156 C895.4867,504.996 894.4728,506.6533 893.5516,508.3694 C893.0911,509.2275 892.6536,510.1002 892.2383,510.9854 " fill="none" id="create_app-backto-odt_pkg" style="stroke:#181818;stroke-width:1.0;"/><polygon fill="#181818" points="2032.9075,98.19,2030.455,107.7286,2033.7364,103.1208,2038.3442,106.4023,2032.9075,98.19" style="stroke:#181818;stroke-width:1.0;"/></g><!--reverse link create_app to pht_pkg--><g id="link_create_app_pht_pkg"><path codeLine="172" d="M2039.6275,103.05 C2066.1775,179.8 2120.1275,375.99 2024.5775,487 C1901.8775,629.55 1375.8175,601.25 1188.5775,619 C1174.9075,620.3 952.1075,618.19 941.5775,627 C935.9194,631.7375 930.7455,636.8913 926.0177,642.3923 " fill="none" id="create_app-backto-pht_pkg" style="stroke:#181818;stroke-width:1.0;"/><polygon fill="#181818" points="2037.9175,98.17,2037.1285,107.9872,2039.5756,102.8871,2044.6758,105.3342,2037.9175,98.17" style="stroke:#181818;stroke-width:1.0;"/></g><!--SRC=[dLVRRkCs47ttLn1-Qb4aAFgyC934oIROs2uIfmkqM12qEBRPI2INf1AuHVwzGycoHOcwR0quTdWEEMU6Sv6TqiGfib7EgOnmOI1nGid9HBFabUs0J1ELPKfE2REa_4hrwuxyEvaGVDLOqZecdPsIJv-Uy10cTodCPaWanKjj_iPLSk9HuI2p9vYGNyZYOKvlxg-Mozj7-lLXlhwdN-x_RE2__LfHde-SHS1vN7sbp-khzSDgsJYhpQlmwyVLpPSOlbgk7vOlBujULPxv-_Ewa_CnAV-6yM9QN2PA6IuaSp0SjHEp5JUluGcsO40cS6TO1W5q-prdJXd1qYUm6gCVmfzPol36aoYu0qVjmQB1ce1-jtAtx_Bbv8qdHTruJfI6tlDhEbAbNdCzQAor8shv7ALeT895etB9QN7kJpy722Rt6nX73QCS4dplEWXEqTtnw0R3XxmckOR60mB6A4FtJF9KoDrWD49wD1GbXODZ8hKDTTUCFy7t7AoxzQm0c-Sw5GcARaClKXkLWBLiayAjTC8TsgIbSdS-ics4PkmLg3bcQ4EIuenAvUYsk9N2Cp0HJitpA9vBWOxHeZyP9gJhu7ACBM0AO25A1qQob5emUAiHVlpACiKX7RofWXMze2kj5nuC5lzWgU3Cj-ve9HT1hP2rOGbiK4wRCY-llRS6bUKPqnhCe0ydPjIFE-DJIIQ7QmnSs0Vo3JE67OB5XU0tIcx5BZU5dm7ugDwxmMuagIDqQrH6KNFZngcloKnmwY05wriK3VR5wAbw7q6luljH6xUAksBMukTnq7eEPZXKg_vxiJXTpTV4bWERP4AAJFm3d0X9t5vOyYRWVLeGGVBYXC2GtfU6yBDcg3wWkk_tV0YJcANOx8GL_Y6XQyCf9S8D59LfXOKKvaPnDGQmbz2G7uIwQfS_JB7OB0pDRQEsFJdNVC3gH-ts9h5esC6oA6aTleUUHwP3xthKjOzQERSa6pj6iMTr2lRMiMpeva2JGv8sEtJbZr5QMHQLFWnPkc4ksVSp3XIVBLrk8om3lXpAy8mo5qsHSuB4ZtWhkt0dRZ64539iiV4OuGXLZ5FDjpGt7HoktkK85ZOVhwF5wKi60rePDvWD9Qqt7KhAQBF-Ri3O4PQFp07ZHzOFsHzhVR1mIrfd3WuaPtVEjRQVVPgS_msxE3Rtozo9xXAl1aj1EeyM72x5ogZnKXimVJfwdtig7ULZJrr7iVB_TFXvL_lDUk5Bvw-zu1pajujgmevWLBEu0Hydvn0ygStKZjyhISgihV87MKZQvhBmU3RpNWGYStqn8yYwF6yuQuY1rOYFWVy1]--></g></svg>