<svg xmlns="http://www.w3.org/2000/svg" xmlns:xlink="http://www.w3.org/1999/xlink" contentStyleType="text/css" data-diagram-type="CLASS" height="1035px" preserveAspectRatio="none" style="width:1680px;height:1035px;background:#FFFFFF;" version="1.1" viewBox="0 0 1680 1035" width="1680px" zoomAndPan="magnify"><defs/><g><!--cluster common_pkg--><g class="cluster" data-entity="common_pkg" data-source-line="3" data-uid="ent0002" id="cluster_common_pkg"><path d="M8.5,146.27 L76.1777,146.27 A3.75,3.75 0 0 1 78.6777,148.77 L85.6777,168.5669 L1555.5,168.5669 A2.5,2.5 0 0 1 1558,171.0669 L1558,469.03 A2.5,2.5 0 0 1 1555.5,471.53 L8.5,471.53 A2.5,2.5 0 0 1 6,469.03 L6,148.77 A2.5,2.5 0 0 1 8.5,146.27" fill="none" style="stroke:#000000;stroke-width:1.5;"/><line style="stroke:#000000;stroke-width:1.5;" x1="6" x2="85.6777" y1="168.5669" y2="168.5669"/><text fill="#000000" font-family="sans-serif" font-size="14" font-weight="bold" lengthAdjust="spacing" textLength="66.6777" x="10" y="161.2651">common</text></g><!--cluster api--><g class="cluster" data-entity="api" data-source-line="5" data-uid="ent0003" id="cluster_api"><rect fill="none" height="107.26" rx="2.5" ry="2.5" style="stroke:#181818;stroke-width:1;" width="176" x="38" y="264.77"/><text fill="#000000" font-family="sans-serif" font-size="14" font-weight="bold" lengthAdjust="spacing" textLength="24.2676" x="113.8662" y="279.7651">api</text></g><!--cluster auth--><g class="cluster" data-entity="auth" data-source-line="9" data-uid="ent0005" id="cluster_auth"><rect fill="none" height="99" rx="2.5" ry="2.5" style="stroke:#181818;stroke-width:1;" width="106" x="238" y="268.9"/><text fill="#000000" font-family="sans-serif" font-size="14" font-weight="bold" lengthAdjust="spacing" textLength="36.0732" x="272.9634" y="283.8951">auth</text></g><!--cluster coordinateslookup--><g class="cluster" data-entity="coordinateslookup" data-source-line="13" data-uid="ent0007" id="cluster_coordinateslookup"><rect fill="none" height="177.08" rx="2.5" ry="2.5" style="stroke:#181818;stroke-width:1;" width="222" x="368" y="229.86"/><text fill="#000000" font-family="sans-serif" font-size="14" font-weight="bold" lengthAdjust="spacing" textLength="146.5283" x="405.7358" y="244.8551">coordinateslookup</text></g><!--cluster error_handling--><g class="cluster" data-entity="error_handling" data-source-line="24" data-uid="ent0009" id="cluster_error_handling"><rect fill="none" height="242.26" rx="2.5" ry="2.5" style="stroke:#181818;stroke-width:1;" width="316" x="614" y="197.27"/><text fill="#000000" font-family="sans-serif" font-size="14" font-weight="bold" lengthAdjust="spacing" textLength="115.8145" x="714.0928" y="212.2651">error_handling</text></g><!--cluster model--><g class="cluster" data-entity="model" data-source-line="39" data-uid="ent0011" id="cluster_model"><rect fill="none" height="144.48" rx="2.5" ry="2.5" style="stroke:#181818;stroke-width:1;" width="234" x="954" y="246.16"/><text fill="#000000" font-family="sans-serif" font-size="14" font-weight="bold" lengthAdjust="spacing" textLength="48.5215" x="1046.7393" y="261.1551">model</text></g><!--cluster osdmapper--><g class="cluster" data-entity="osdmapper" data-source-line="48" data-uid="ent0013" id="cluster_osdmapper"><rect fill="none" height="209.68" rx="2.5" ry="2.5" style="stroke:#181818;stroke-width:1;" width="306" x="1212" y="213.56"/><text fill="#000000" font-family="sans-serif" font-size="14" font-weight="bold" lengthAdjust="spacing" textLength="88.4502" x="1320.7749" y="228.5551">osdmapper</text></g><!--cluster odt_pkg--><g class="cluster" data-entity="odt_pkg" data-source-line="62" data-uid="ent0015" id="cluster_odt_pkg"><path d="M1181.5,511.53 L1208.832,511.53 A3.75,3.75 0 0 1 1211.332,514.03 L1218.332,533.8269 L1581.5,533.8269 A2.5,2.5 0 0 1 1584,536.3269 L1584,612.33 A2.5,2.5 0 0 1 1581.5,614.83 L1181.5,614.83 A2.5,2.5 0 0 1 1179,612.33 L1179,514.03 A2.5,2.5 0 0 1 1181.5,511.53" fill="none" style="stroke:#000000;stroke-width:1.5;"/><line style="stroke:#000000;stroke-width:1.5;" x1="1179" x2="1218.332" y1="533.8269" y2="533.8269"/><text fill="#000000" font-family="sans-serif" font-size="14" font-weight="bold" lengthAdjust="spacing" textLength="26.332" x="1183" y="526.5251">odt</text></g><!--cluster pht_pkg--><g class="cluster" data-entity="pht_pkg" data-source-line="71" data-uid="ent0018" id="cluster_pht_pkg"><path d="M228.5,654.83 L256.1807,654.83 A3.75,3.75 0 0 1 258.6807,657.33 L265.6807,677.1269 L1581.5,677.1269 A2.5,2.5 0 0 1 1584,679.6269 L1584,1025.86 A2.5,2.5 0 0 1 1581.5,1028.36 L228.5,1028.36 A2.5,2.5 0 0 1 226,1025.86 L226,657.33 A2.5,2.5 0 0 1 228.5,654.83" fill="none" style="stroke:#000000;stroke-width:1.5;"/><line style="stroke:#000000;stroke-width:1.5;" x1="226" x2="265.6807" y1="677.1269" y2="677.1269"/><text fill="#000000" font-family="sans-serif" font-size="14" font-weight="bold" lengthAdjust="spacing" textLength="26.6807" x="230" y="669.8251">pht</text></g><!--cluster api--><g class="cluster" data-entity="api" data-source-line="72" data-uid="ent0019" id="cluster_api"><rect fill="none" height="290.53" rx="2.5" ry="2.5" style="stroke:#181818;stroke-width:1;" width="1286" x="258" y="705.83"/><text fill="#000000" font-family="sans-serif" font-size="14" font-weight="bold" lengthAdjust="spacing" textLength="24.2676" x="888.8662" y="720.8251">api</text></g><!--cluster panel_reviews--><g class="cluster" data-entity="panel_reviews" data-source-line="73" data-uid="ent0020" id="cluster_panel_reviews"><rect fill="none" height="107.26" rx="2.5" ry="2.5" style="stroke:#181818;stroke-width:1;" width="186" x="282" y="748.83"/><text fill="#000000" font-family="sans-serif" font-size="14" font-weight="bold" lengthAdjust="spacing" textLength="111.8154" x="319.0923" y="763.8251">panel_reviews</text></g><!--cluster reviewers--><g class="cluster" data-entity="reviewers" data-source-line="76" data-uid="ent0022" id="cluster_reviewers"><rect fill="none" height="107.26" rx="2.5" ry="2.5" style="stroke:#181818;stroke-width:1;" width="132" x="492" y="748.83"/><text fill="#000000" font-family="sans-serif" font-size="14" font-weight="bold" lengthAdjust="spacing" textLength="77.4854" x="519.2573" y="763.8251">reviewers</text></g><!--cluster panel_decision--><g class="cluster" data-entity="panel_decision" data-source-line="79" data-uid="ent0024" id="cluster_panel_decision"><rect fill="none" height="107.26" rx="2.5" ry="2.5" style="stroke:#181818;stroke-width:1;" width="204" x="648" y="748.83"/><text fill="#000000" font-family="sans-serif" font-size="14" font-weight="bold" lengthAdjust="spacing" textLength="116.0605" x="691.9697" y="763.8251">panel_decision</text></g><!--cluster panels--><g class="cluster" data-entity="panels" data-source-line="82" data-uid="ent0026" id="cluster_panels"><rect fill="none" height="107.26" rx="2.5" ry="2.5" style="stroke:#181818;stroke-width:1;" width="180" x="876" y="748.83"/><text fill="#000000" font-family="sans-serif" font-size="14" font-weight="bold" lengthAdjust="spacing" textLength="52.0625" x="939.9688" y="763.8251">panels</text></g><!--cluster reports--><g class="cluster" data-entity="reports" data-source-line="85" data-uid="ent0028" id="cluster_reports"><rect fill="none" height="107.26" rx="2.5" ry="2.5" style="stroke:#181818;stroke-width:1;" width="138" x="1080" y="748.83"/><text fill="#000000" font-family="sans-serif" font-size="14" font-weight="bold" lengthAdjust="spacing" textLength="57.9688" x="1120.0156" y="763.8251">reports</text></g><!--cluster prsls--><g class="cluster" data-entity="prsls" data-source-line="88" data-uid="ent0030" id="cluster_prsls"><rect fill="none" height="223.53" rx="2.5" ry="2.5" style="stroke:#181818;stroke-width:1;" width="278" x="1242" y="748.83"/><text fill="#000000" font-family="sans-serif" font-size="14" font-weight="bold" lengthAdjust="spacing" textLength="38.3906" x="1361.8047" y="763.8251">prsls</text></g><!--cluster app--><g class="cluster" data-entity="app" data-source-line="101" data-uid="ent0038" id="cluster_app"><rect fill="none" height="107.27" rx="2.5" ry="2.5" style="stroke:#181818;stroke-width:1;" width="142" x="1532" y="7"/><text fill="#000000" font-family="sans-serif" font-size="14" font-weight="bold" lengthAdjust="spacing" textLength="29.4902" x="1588.2549" y="21.9951">app</text></g><!--class get_coordinates--><g class="entity" data-entity="get_coordinates" data-source-line="6" data-uid="ent0004" id="entity_get_coordinates"><rect fill="#F1F1F1" height="56.2656" rx="2.5" ry="2.5" style="stroke:#181818;stroke-width:0.5;" width="144.1982" x="53.9" y="299.77"/><ellipse cx="68.9" cy="319.9028" fill="#ADD1B2" rx="11" ry="11" style="stroke:#181818;stroke-width:1;"/><path d="M71.8688,325.5434 Q71.2906,325.8403 70.65,325.9809 Q70.0094,326.1372 69.3063,326.1372 Q66.8063,326.1372 65.4781,324.4966 Q64.1656,322.8403 64.1656,319.7153 Q64.1656,316.5903 65.4781,314.9341 Q66.8063,313.2778 69.3063,313.2778 Q70.0094,313.2778 70.65,313.4341 Q71.3063,313.5903 71.8688,313.8872 L71.8688,316.6059 Q71.2438,316.0278 70.65,315.7622 Q70.0563,315.4809 69.4313,315.4809 Q68.0875,315.4809 67.4,316.5591 Q66.7125,317.6216 66.7125,319.7153 Q66.7125,321.8091 67.4,322.8872 Q68.0875,323.9497 69.4313,323.9497 Q70.0563,323.9497 70.65,323.6841 Q71.2438,323.4028 71.8688,322.8247 L71.8688,325.5434 Z " fill="#000000"/><text fill="#000000" font-family="sans-serif" font-size="12" font-style="italic" lengthAdjust="spacing" textLength="67.8926" x="105.0528" y="315.9087">&#171;endpoint&#187;</text><text fill="#000000" font-family="sans-serif" font-size="14" lengthAdjust="spacing" textLength="112.1982" x="82.9" y="331.7339">get_coordinates</text><line style="stroke:#181818;stroke-width:0.5;" x1="54.9" x2="197.0982" y1="340.0356" y2="340.0356"/><line style="stroke:#181818;stroke-width:0.5;" x1="54.9" x2="197.0982" y1="348.0356" y2="348.0356"/></g><!--class Scope--><g class="entity" data-entity="Scope" data-source-line="10" data-uid="ent0006" id="entity_Scope"><rect fill="#F1F1F1" height="48" rx="2.5" ry="2.5" style="stroke:#181818;stroke-width:0.5;" width="74.6494" x="253.68" y="303.9"/><ellipse cx="268.68" cy="319.9" fill="#ADD1B2" rx="11" ry="11" style="stroke:#181818;stroke-width:1;"/><path d="M271.6488,325.5406 Q271.0706,325.8375 270.43,325.9781 Q269.7894,326.1344 269.0863,326.1344 Q266.5863,326.1344 265.2581,324.4937 Q263.9456,322.8375 263.9456,319.7125 Q263.9456,316.5875 265.2581,314.9312 Q266.5863,313.275 269.0863,313.275 Q269.7894,313.275 270.43,313.4312 Q271.0863,313.5875 271.6488,313.8844 L271.6488,316.6031 Q271.0238,316.025 270.43,315.7594 Q269.8363,315.4781 269.2113,315.4781 Q267.8675,315.4781 267.18,316.5562 Q266.4925,317.6187 266.4925,319.7125 Q266.4925,321.8062 267.18,322.8844 Q267.8675,323.9469 269.2113,323.9469 Q269.8363,323.9469 270.43,323.6812 Q271.0238,323.4 271.6488,322.8219 L271.6488,325.5406 Z " fill="#000000"/><text fill="#000000" font-family="sans-serif" font-size="14" lengthAdjust="spacing" textLength="42.6494" x="282.68" y="324.7467">Scope</text><line style="stroke:#181818;stroke-width:0.5;" x1="254.68" x2="327.3294" y1="335.9" y2="335.9"/><line style="stroke:#181818;stroke-width:0.5;" x1="254.68" x2="327.3294" y1="343.9" y2="343.9"/></g><g class="entity" data-entity="coordinateslookup_items" data-source-line="14" data-uid="ent0008" id="entity_coordinateslookup_items"><rect fill="#F1F1F1" height="126.0781" rx="2.5" ry="2.5" style="stroke:#181818;stroke-width:0.5;" width="189.0205" x="384.49" y="264.86"/><text fill="#000000" font-family="sans-serif" font-size="14" lengthAdjust="spacing" textLength="175.0205" x="391.49" y="279.8551">coordinateslookup_items</text><line style="stroke:#181818;stroke-width:0.5;" x1="385.49" x2="572.5105" y1="285.1569" y2="285.1569"/><ellipse cx="395.49" cy="298.8053" fill="none" rx="3" ry="3" style="stroke:#038048;stroke-width:1;"/><text fill="#000000" font-family="sans-serif" font-size="14" lengthAdjust="spacing" textLength="71.3535" x="404.49" y="302.152">Equatorial</text><ellipse cx="395.49" cy="315.1022" fill="none" rx="3" ry="3" style="stroke:#038048;stroke-width:1;"/><text fill="#000000" font-family="sans-serif" font-size="14" lengthAdjust="spacing" textLength="56.6699" x="404.49" y="318.4489">Galactic</text><ellipse cx="395.49" cy="331.3991" fill="#84BE84" rx="3" ry="3" style="stroke:#038048;stroke-width:1;"/><text fill="#000000" font-family="sans-serif" font-size="14" lengthAdjust="spacing" textLength="151.1221" x="404.49" y="334.7457">convert_ra_dec_deg()</text><ellipse cx="395.49" cy="347.6959" fill="#84BE84" rx="3" ry="3" style="stroke:#038048;stroke-width:1;"/><text fill="#000000" font-family="sans-serif" font-size="14" lengthAdjust="spacing" textLength="146.9658" x="404.49" y="351.0426">convert_to_galactic()</text><ellipse cx="395.49" cy="363.9928" fill="#84BE84" rx="3" ry="3" style="stroke:#038048;stroke-width:1;"/><text fill="#000000" font-family="sans-serif" font-size="14" lengthAdjust="spacing" textLength="123.1221" x="404.49" y="367.3395">get_coordinates()</text><ellipse cx="395.49" cy="380.2897" fill="#84BE84" rx="3" ry="3" style="stroke:#038048;stroke-width:1;"/><text fill="#000000" font-family="sans-serif" font-size="14" lengthAdjust="spacing" textLength="98.3486" x="404.49" y="383.6364">round_coord()</text></g><g class="entity" data-entity="error_handling_items" data-source-line="25" data-uid="ent0010" id="entity_error_handling_items"><rect fill="#F1F1F1" height="191.2656" rx="2.5" ry="2.5" style="stroke:#181818;stroke-width:0.5;" width="284.002" x="630" y="232.27"/><text fill="#000000" font-family="sans-serif" font-size="14" lengthAdjust="spacing" textLength="148.1211" x="697.9404" y="247.2651">error_handling_items</text><line style="stroke:#181818;stroke-width:0.5;" x1="631" x2="913.002" y1="252.5669" y2="252.5669"/><ellipse cx="641" cy="266.2153" fill="none" rx="3" ry="3" style="stroke:#038048;stroke-width:1;"/><text fill="#000000" font-family="sans-serif" font-size="14" lengthAdjust="spacing" textLength="119.2461" x="650" y="269.562">BadRequestError</text><ellipse cx="641" cy="282.5122" fill="none" rx="3" ry="3" style="stroke:#038048;stroke-width:1;"/><text fill="#000000" font-family="sans-serif" font-size="14" lengthAdjust="spacing" textLength="101.377" x="650" y="285.8589">DuplicateError</text><ellipse cx="641" cy="298.8091" fill="none" rx="3" ry="3" style="stroke:#038048;stroke-width:1;"/><text fill="#000000" font-family="sans-serif" font-size="14" lengthAdjust="spacing" textLength="102.457" x="650" y="302.1557">NotFoundError</text><ellipse cx="641" cy="315.1059" fill="none" rx="3" ry="3" style="stroke:#038048;stroke-width:1;"/><text fill="#000000" font-family="sans-serif" font-size="14" lengthAdjust="spacing" textLength="178.7461" x="650" y="318.4526">UnprocessableEntityError</text><ellipse cx="641" cy="331.4028" fill="#84BE84" rx="3" ry="3" style="stroke:#038048;stroke-width:1;"/><text fill="#000000" font-family="sans-serif" font-size="14" lengthAdjust="spacing" textLength="127.7568" x="650" y="334.7495">_make_response()</text><ellipse cx="641" cy="347.6997" fill="#84BE84" rx="3" ry="3" style="stroke:#038048;stroke-width:1;"/><text fill="#000000" font-family="sans-serif" font-size="14" lengthAdjust="spacing" textLength="258.002" x="650" y="351.0464">dangerous_internal_server_handler()</text><ellipse cx="641" cy="363.9966" fill="#84BE84" rx="3" ry="3" style="stroke:#038048;stroke-width:1;"/><text fill="#000000" font-family="sans-serif" font-size="14" lengthAdjust="spacing" textLength="99.0117" x="650" y="367.3432">error_details()</text><ellipse cx="641" cy="380.2934" fill="#84BE84" rx="3" ry="3" style="stroke:#038048;stroke-width:1;"/><text fill="#000000" font-family="sans-serif" font-size="14" lengthAdjust="spacing" textLength="138.8721" x="650" y="383.6401">oda_error_handler()</text><ellipse cx="641" cy="396.5903" fill="#84BE84" rx="3" ry="3" style="stroke:#038048;stroke-width:1;"/><text fill="#000000" font-family="sans-serif" font-size="14" lengthAdjust="spacing" textLength="174.4805" x="650" y="399.937">oda_not_found_handler()</text><ellipse cx="641" cy="412.8872" fill="#84BE84" rx="3" ry="3" style="stroke:#038048;stroke-width:1;"/><text fill="#000000" font-family="sans-serif" font-size="14" lengthAdjust="spacing" textLength="229.9404" x="650" y="416.2339">oda_unique_constraint_handler()</text></g><g class="entity" data-entity="model_items" data-source-line="40" data-uid="ent0012" id="entity_model_items"><rect fill="#F1F1F1" height="93.4844" rx="2.5" ry="2.5" style="stroke:#181818;stroke-width:0.5;" width="201.0137" x="970.49" y="281.16"/><text fill="#000000" font-family="sans-serif" font-size="14" lengthAdjust="spacing" textLength="89.5166" x="1026.2385" y="296.1551">model_items</text><line style="stroke:#181818;stroke-width:0.5;" x1="971.49" x2="1170.5037" y1="301.4569" y2="301.4569"/><ellipse cx="981.49" cy="315.1053" fill="none" rx="3" ry="3" style="stroke:#038048;stroke-width:1;"/><text fill="#000000" font-family="sans-serif" font-size="14" lengthAdjust="spacing" textLength="69.3848" x="990.49" y="318.452">AppModel</text><ellipse cx="981.49" cy="331.4022" fill="none" rx="3" ry="3" style="stroke:#038048;stroke-width:1;"/><text fill="#000000" font-family="sans-serif" font-size="14" lengthAdjust="spacing" textLength="83.2139" x="990.49" y="334.7489">ErrorDetails</text><ellipse cx="981.49" cy="347.6991" fill="none" rx="3" ry="3" style="stroke:#038048;stroke-width:1;"/><text fill="#000000" font-family="sans-serif" font-size="14" lengthAdjust="spacing" textLength="175.0137" x="990.49" y="351.0457">ErrorResponseTraceback</text><ellipse cx="981.49" cy="363.9959" fill="none" rx="3" ry="3" style="stroke:#038048;stroke-width:1;"/><text fill="#000000" font-family="sans-serif" font-size="14" lengthAdjust="spacing" textLength="138.0859" x="990.49" y="367.3426">ValidationResponse</text></g><g class="entity" data-entity="osdmapper_items" data-source-line="49" data-uid="ent0014" id="entity_osdmapper_items"><rect fill="#F1F1F1" height="158.6719" rx="2.5" ry="2.5" style="stroke:#181818;stroke-width:0.5;" width="274.8555" x="1227.57" y="248.56"/><text fill="#000000" font-family="sans-serif" font-size="14" lengthAdjust="spacing" textLength="125.0293" x="1302.4831" y="263.5551">osdmapper_items</text><line style="stroke:#181818;stroke-width:0.5;" x1="1228.57" x2="1501.4255" y1="268.8569" y2="268.8569"/><ellipse cx="1238.57" cy="282.5053" fill="none" rx="3" ry="3" style="stroke:#038048;stroke-width:1;"/><text fill="#000000" font-family="sans-serif" font-size="14" lengthAdjust="spacing" textLength="109.5938" x="1247.57" y="285.852">FrequencyBand</text><ellipse cx="1238.57" cy="298.8022" fill="none" rx="3" ry="3" style="stroke:#038048;stroke-width:1;"/><text fill="#000000" font-family="sans-serif" font-size="14" lengthAdjust="spacing" textLength="63.6016" x="1247.57" y="302.1489">Subarray</text><ellipse cx="1238.57" cy="315.0991" fill="none" rx="3" ry="3" style="stroke:#038048;stroke-width:1;"/><text fill="#000000" font-family="sans-serif" font-size="14" lengthAdjust="spacing" textLength="119.7998" x="1247.57" y="318.4457">MidConfiguration</text><ellipse cx="1238.57" cy="331.3959" fill="none" rx="3" ry="3" style="stroke:#038048;stroke-width:1;"/><text fill="#000000" font-family="sans-serif" font-size="14" lengthAdjust="spacing" textLength="122.7598" x="1247.57" y="334.7426">LowConfiguration</text><ellipse cx="1238.57" cy="347.6928" fill="none" rx="3" ry="3" style="stroke:#038048;stroke-width:1;"/><text fill="#000000" font-family="sans-serif" font-size="14" lengthAdjust="spacing" textLength="94.9443" x="1247.57" y="351.0395">Configuration</text><ellipse cx="1238.57" cy="363.9897" fill="#84BE84" rx="3" ry="3" style="stroke:#038048;stroke-width:1;"/><text fill="#000000" font-family="sans-serif" font-size="14" lengthAdjust="spacing" textLength="175.4238" x="1247.57" y="367.3364">configuration_from_osd()</text><ellipse cx="1238.57" cy="380.2866" fill="#84BE84" rx="3" ry="3" style="stroke:#038048;stroke-width:1;"/><text fill="#000000" font-family="sans-serif" font-size="14" lengthAdjust="spacing" textLength="248.8555" x="1247.57" y="383.6332">_get_mid_telescope_configuration()</text><ellipse cx="1238.57" cy="396.5834" fill="#84BE84" rx="3" ry="3" style="stroke:#038048;stroke-width:1;"/><text fill="#000000" font-family="sans-serif" font-size="14" lengthAdjust="spacing" textLength="246.3467" x="1247.57" y="399.9301">_get_low_telescope_configuration()</text></g><g class="entity" data-entity="odt_note" data-source-line="64" data-uid="ent0016" id="entity_odt_note"><path d="M1203.2,560.11 L1203.2,585.2428 L1464.8079,585.2428 L1464.8079,570.11 L1454.8079,560.11 L1203.2,560.11" fill="#FEFFDD" style="stroke:#181818;stroke-width:0.5;"/><path d="M1454.8079,560.11 L1454.8079,570.11 L1464.8079,570.11 L1454.8079,560.11" fill="#FEFFDD" style="stroke:#181818;stroke-width:1;"/><text fill="#000000" font-family="sans-serif" font-size="13" lengthAdjust="spacing" textLength="240.6079" x="1209.2" y="577.1769">"ODT section minimized in this view"</text></g><!--entity api--><g class="entity" data-entity="api" data-source-line="66" data-uid="ent0017" id="entity_api"><rect fill="#F1F1F1" height="36.2969" rx="2.5" ry="2.5" style="stroke:#181818;stroke-width:0.5;" width="41.3555" x="1499.32" y="554.53"/><text fill="#000000" font-family="sans-serif" font-size="14" lengthAdjust="spacing" textLength="21.3555" x="1509.32" y="577.5251">api</text></g><!--class panel_review_get--><g class="entity" data-entity="panel_review_get" data-source-line="74" data-uid="ent0021" id="entity_panel_review_get"><rect fill="#F1F1F1" height="56.2656" rx="2.5" ry="2.5" style="stroke:#181818;stroke-width:0.5;" width="154.4385" x="297.78" y="783.83"/><ellipse cx="312.78" cy="803.9628" fill="#ADD1B2" rx="11" ry="11" style="stroke:#181818;stroke-width:1;"/><path d="M315.7488,809.6034 Q315.1706,809.9003 314.53,810.0409 Q313.8894,810.1972 313.1863,810.1972 Q310.6863,810.1972 309.3581,808.5566 Q308.0456,806.9003 308.0456,803.7753 Q308.0456,800.6503 309.3581,798.9941 Q310.6863,797.3378 313.1863,797.3378 Q313.8894,797.3378 314.53,797.4941 Q315.1863,797.6503 315.7488,797.9472 L315.7488,800.6659 Q315.1238,800.0878 314.53,799.8222 Q313.9363,799.5409 313.3113,799.5409 Q311.9675,799.5409 311.28,800.6191 Q310.5925,801.6816 310.5925,803.7753 Q310.5925,805.8691 311.28,806.9472 Q311.9675,808.0097 313.3113,808.0097 Q313.9363,808.0097 314.53,807.7441 Q315.1238,807.4628 315.7488,806.8847 L315.7488,809.6034 Z " fill="#000000"/><text fill="#000000" font-family="sans-serif" font-size="12" font-style="italic" lengthAdjust="spacing" textLength="67.8926" x="354.0529" y="799.9687">&#171;endpoint&#187;</text><text fill="#000000" font-family="sans-serif" font-size="14" lengthAdjust="spacing" textLength="122.4385" x="326.78" y="815.7939">panel_review_get</text><line style="stroke:#181818;stroke-width:0.5;" x1="298.78" x2="451.2185" y1="824.0956" y2="824.0956"/><line style="stroke:#181818;stroke-width:0.5;" x1="298.78" x2="451.2185" y1="832.0956" y2="832.0956"/></g><!--class reviewers--><g class="entity" data-entity="reviewers" data-source-line="77" data-uid="ent0023" id="entity_reviewers"><rect fill="#F1F1F1" height="56.2656" rx="2.5" ry="2.5" style="stroke:#181818;stroke-width:0.5;" width="100.2705" x="507.86" y="783.83"/><ellipse cx="522.86" cy="803.9628" fill="#ADD1B2" rx="11" ry="11" style="stroke:#181818;stroke-width:1;"/><path d="M525.8288,809.6034 Q525.2506,809.9003 524.61,810.0409 Q523.9694,810.1972 523.2663,810.1972 Q520.7663,810.1972 519.4381,808.5566 Q518.1256,806.9003 518.1256,803.7753 Q518.1256,800.6503 519.4381,798.9941 Q520.7663,797.3378 523.2663,797.3378 Q523.9694,797.3378 524.61,797.4941 Q525.2663,797.6503 525.8288,797.9472 L525.8288,800.6659 Q525.2038,800.0878 524.61,799.8222 Q524.0163,799.5409 523.3913,799.5409 Q522.0475,799.5409 521.36,800.6191 Q520.6725,801.6816 520.6725,803.7753 Q520.6725,805.8691 521.36,806.9472 Q522.0475,808.0097 523.3913,808.0097 Q524.0163,808.0097 524.61,807.7441 Q525.2038,807.4628 525.8288,806.8847 L525.8288,809.6034 Z " fill="#000000"/><text fill="#000000" font-family="sans-serif" font-size="12" font-style="italic" lengthAdjust="spacing" textLength="67.8926" x="537.049" y="799.9687">&#171;endpoint&#187;</text><text fill="#000000" font-family="sans-serif" font-size="14" lengthAdjust="spacing" textLength="68.2705" x="536.86" y="815.7939">reviewers</text><line style="stroke:#181818;stroke-width:0.5;" x1="508.86" x2="607.1305" y1="824.0956" y2="824.0956"/><line style="stroke:#181818;stroke-width:0.5;" x1="508.86" x2="607.1305" y1="832.0956" y2="832.0956"/></g><!--class panel_decision_post--><g class="entity" data-entity="panel_decision_post" data-source-line="80" data-uid="ent0025" id="entity_panel_decision_post"><rect fill="#F1F1F1" height="56.2656" rx="2.5" ry="2.5" style="stroke:#181818;stroke-width:0.5;" width="172.7861" x="663.61" y="783.83"/><ellipse cx="678.61" cy="803.9628" fill="#ADD1B2" rx="11" ry="11" style="stroke:#181818;stroke-width:1;"/><path d="M681.5788,809.6034 Q681.0006,809.9003 680.36,810.0409 Q679.7194,810.1972 679.0163,810.1972 Q676.5163,810.1972 675.1881,808.5566 Q673.8756,806.9003 673.8756,803.7753 Q673.8756,800.6503 675.1881,798.9941 Q676.5163,797.3378 679.0163,797.3378 Q679.7194,797.3378 680.36,797.4941 Q681.0163,797.6503 681.5788,797.9472 L681.5788,800.6659 Q680.9538,800.0878 680.36,799.8222 Q679.7663,799.5409 679.1413,799.5409 Q677.7975,799.5409 677.11,800.6191 Q676.4225,801.6816 676.4225,803.7753 Q676.4225,805.8691 677.11,806.9472 Q677.7975,808.0097 679.1413,808.0097 Q679.7663,808.0097 680.36,807.7441 Q680.9538,807.4628 681.5788,806.8847 L681.5788,809.6034 Z " fill="#000000"/><text fill="#000000" font-family="sans-serif" font-size="12" font-style="italic" lengthAdjust="spacing" textLength="67.8926" x="729.0568" y="799.9687">&#171;endpoint&#187;</text><text fill="#000000" font-family="sans-serif" font-size="14" lengthAdjust="spacing" textLength="140.7861" x="692.61" y="815.7939">panel_decision_post</text><line style="stroke:#181818;stroke-width:0.5;" x1="664.61" x2="835.3961" y1="824.0956" y2="824.0956"/><line style="stroke:#181818;stroke-width:0.5;" x1="664.61" x2="835.3961" y1="832.0956" y2="832.0956"/></g><!--class panels_endpoint--><g class="entity" data-entity="panels_endpoint" data-source-line="83" data-uid="ent0027" id="entity_panels_endpoint"><rect fill="#F1F1F1" height="56.2656" rx="2.5" ry="2.5" style="stroke:#181818;stroke-width:0.5;" width="147.2129" x="892.39" y="783.83"/><ellipse cx="907.39" cy="803.9628" fill="#ADD1B2" rx="11" ry="11" style="stroke:#181818;stroke-width:1;"/><path d="M910.3588,809.6034 Q909.7806,809.9003 909.14,810.0409 Q908.4994,810.1972 907.7963,810.1972 Q905.2963,810.1972 903.9681,808.5566 Q902.6556,806.9003 902.6556,803.7753 Q902.6556,800.6503 903.9681,798.9941 Q905.2963,797.3378 907.7963,797.3378 Q908.4994,797.3378 909.14,797.4941 Q909.7963,797.6503 910.3588,797.9472 L910.3588,800.6659 Q909.7338,800.0878 909.14,799.8222 Q908.5463,799.5409 907.9213,799.5409 Q906.5775,799.5409 905.89,800.6191 Q905.2025,801.6816 905.2025,803.7753 Q905.2025,805.8691 905.89,806.9472 Q906.5775,808.0097 907.9213,808.0097 Q908.5463,808.0097 909.14,807.7441 Q909.7338,807.4628 910.3588,806.8847 L910.3588,809.6034 Z " fill="#000000"/><text fill="#000000" font-family="sans-serif" font-size="12" font-style="italic" lengthAdjust="spacing" textLength="67.8926" x="945.0502" y="799.9687">&#171;endpoint&#187;</text><text fill="#000000" font-family="sans-serif" font-size="14" lengthAdjust="spacing" textLength="115.2129" x="921.39" y="815.7939">panels_endpoint</text><line style="stroke:#181818;stroke-width:0.5;" x1="893.39" x2="1038.6029" y1="824.0956" y2="824.0956"/><line style="stroke:#181818;stroke-width:0.5;" x1="893.39" x2="1038.6029" y1="832.0956" y2="832.0956"/></g><!--class report_get--><g class="entity" data-entity="report_get" data-source-line="86" data-uid="ent0029" id="entity_report_get"><rect fill="#F1F1F1" height="56.2656" rx="2.5" ry="2.5" style="stroke:#181818;stroke-width:0.5;" width="105.0557" x="1096.47" y="783.83"/><ellipse cx="1111.47" cy="803.9628" fill="#ADD1B2" rx="11" ry="11" style="stroke:#181818;stroke-width:1;"/><path d="M1114.4388,809.6034 Q1113.8606,809.9003 1113.22,810.0409 Q1112.5794,810.1972 1111.8763,810.1972 Q1109.3763,810.1972 1108.0481,808.5566 Q1106.7356,806.9003 1106.7356,803.7753 Q1106.7356,800.6503 1108.0481,798.9941 Q1109.3763,797.3378 1111.8763,797.3378 Q1112.5794,797.3378 1113.22,797.4941 Q1113.8763,797.6503 1114.4388,797.9472 L1114.4388,800.6659 Q1113.8138,800.0878 1113.22,799.8222 Q1112.6263,799.5409 1112.0013,799.5409 Q1110.6575,799.5409 1109.97,800.6191 Q1109.2825,801.6816 1109.2825,803.7753 Q1109.2825,805.8691 1109.97,806.9472 Q1110.6575,808.0097 1112.0013,808.0097 Q1112.6263,808.0097 1113.22,807.7441 Q1113.8138,807.4628 1114.4388,806.8847 L1114.4388,809.6034 Z " fill="#000000"/><text fill="#000000" font-family="sans-serif" font-size="12" font-style="italic" lengthAdjust="spacing" textLength="67.8926" x="1128.0515" y="799.9687">&#171;endpoint&#187;</text><text fill="#000000" font-family="sans-serif" font-size="14" lengthAdjust="spacing" textLength="73.0557" x="1125.47" y="815.7939">report_get</text><line style="stroke:#181818;stroke-width:0.5;" x1="1097.47" x2="1200.5257" y1="824.0956" y2="824.0956"/><line style="stroke:#181818;stroke-width:0.5;" x1="1097.47" x2="1200.5257" y1="832.0956" y2="832.0956"/></g><!--class send_email--><g class="entity" data-entity="send_email" data-source-line="89" data-uid="ent0031" id="entity_send_email"><rect fill="#F1F1F1" height="56.2656" rx="2.5" ry="2.5" style="stroke:#181818;stroke-width:0.5;" width="111.2764" x="1258.36" y="783.83"/><ellipse cx="1273.36" cy="803.9628" fill="#ADD1B2" rx="11" ry="11" style="stroke:#181818;stroke-width:1;"/><path d="M1276.3288,809.6034 Q1275.7506,809.9003 1275.11,810.0409 Q1274.4694,810.1972 1273.7663,810.1972 Q1271.2663,810.1972 1269.9381,808.5566 Q1268.6256,806.9003 1268.6256,803.7753 Q1268.6256,800.6503 1269.9381,798.9941 Q1271.2663,797.3378 1273.7663,797.3378 Q1274.4694,797.3378 1275.11,797.4941 Q1275.7663,797.6503 1276.3288,797.9472 L1276.3288,800.6659 Q1275.7038,800.0878 1275.11,799.8222 Q1274.5163,799.5409 1273.8913,799.5409 Q1272.5475,799.5409 1271.86,800.6191 Q1271.1725,801.6816 1271.1725,803.7753 Q1271.1725,805.8691 1271.86,806.9472 Q1272.5475,808.0097 1273.8913,808.0097 Q1274.5163,808.0097 1275.11,807.7441 Q1275.7038,807.4628 1276.3288,806.8847 L1276.3288,809.6034 Z " fill="#000000"/><text fill="#000000" font-family="sans-serif" font-size="12" font-style="italic" lengthAdjust="spacing" textLength="67.8926" x="1293.0519" y="799.9687">&#171;endpoint&#187;</text><text fill="#000000" font-family="sans-serif" font-size="14" lengthAdjust="spacing" textLength="79.2764" x="1287.36" y="815.7939">send_email</text><line style="stroke:#181818;stroke-width:0.5;" x1="1259.36" x2="1368.6364" y1="824.0956" y2="824.0956"/><line style="stroke:#181818;stroke-width:0.5;" x1="1259.36" x2="1368.6364" y1="832.0956" y2="832.0956"/></g><!--class proposals--><g class="entity" data-entity="proposals" data-source-line="90" data-uid="ent0032" id="entity_proposals"><rect fill="#F1F1F1" height="56.2656" rx="2.5" ry="2.5" style="stroke:#181818;stroke-width:0.5;" width="99.7168" x="1404.14" y="783.83"/><ellipse cx="1419.14" cy="803.9628" fill="#ADD1B2" rx="11" ry="11" style="stroke:#181818;stroke-width:1;"/><path d="M1422.1088,809.6034 Q1421.5306,809.9003 1420.89,810.0409 Q1420.2494,810.1972 1419.5463,810.1972 Q1417.0463,810.1972 1415.7181,808.5566 Q1414.4056,806.9003 1414.4056,803.7753 Q1414.4056,800.6503 1415.7181,798.9941 Q1417.0463,797.3378 1419.5463,797.3378 Q1420.2494,797.3378 1420.89,797.4941 Q1421.5463,797.6503 1422.1088,797.9472 L1422.1088,800.6659 Q1421.4838,800.0878 1420.89,799.8222 Q1420.2963,799.5409 1419.6713,799.5409 Q1418.3275,799.5409 1417.64,800.6191 Q1416.9525,801.6816 1416.9525,803.7753 Q1416.9525,805.8691 1417.64,806.9472 Q1418.3275,808.0097 1419.6713,808.0097 Q1420.2963,808.0097 1420.89,807.7441 Q1421.4838,807.4628 1422.1088,806.8847 L1422.1088,809.6034 Z " fill="#000000"/><text fill="#000000" font-family="sans-serif" font-size="12" font-style="italic" lengthAdjust="spacing" textLength="67.8926" x="1433.0521" y="799.9687">&#171;endpoint&#187;</text><text fill="#000000" font-family="sans-serif" font-size="14" lengthAdjust="spacing" textLength="67.7168" x="1433.14" y="815.7939">proposals</text><line style="stroke:#181818;stroke-width:0.5;" x1="1405.14" x2="1502.8568" y1="824.0956" y2="824.0956"/><line style="stroke:#181818;stroke-width:0.5;" x1="1405.14" x2="1502.8568" y1="832.0956" y2="832.0956"/></g><!--class pdf--><g class="entity" data-entity="pdf" data-source-line="91" data-uid="ent0033" id="entity_pdf"><rect fill="#F1F1F1" height="56.2656" rx="2.5" ry="2.5" style="stroke:#181818;stroke-width:0.5;" width="95.8926" x="1266.05" y="900.09"/><ellipse cx="1281.05" cy="920.2228" fill="#ADD1B2" rx="11" ry="11" style="stroke:#181818;stroke-width:1;"/><path d="M1284.0188,925.8634 Q1283.4406,926.1603 1282.8,926.3009 Q1282.1594,926.4572 1281.4563,926.4572 Q1278.9563,926.4572 1277.6281,924.8166 Q1276.3156,923.1603 1276.3156,920.0353 Q1276.3156,916.9103 1277.6281,915.2541 Q1278.9563,913.5978 1281.4563,913.5978 Q1282.1594,913.5978 1282.8,913.7541 Q1283.4563,913.9103 1284.0188,914.2072 L1284.0188,916.9259 Q1283.3938,916.3478 1282.8,916.0822 Q1282.2063,915.8009 1281.5813,915.8009 Q1280.2375,915.8009 1279.55,916.8791 Q1278.8625,917.9416 1278.8625,920.0353 Q1278.8625,922.1291 1279.55,923.2072 Q1280.2375,924.2697 1281.5813,924.2697 Q1282.2063,924.2697 1282.8,924.0041 Q1283.3938,923.7228 1284.0188,923.1447 L1284.0188,925.8634 Z " fill="#000000"/><text fill="#000000" font-family="sans-serif" font-size="12" font-style="italic" lengthAdjust="spacing" textLength="67.8926" x="1293.05" y="916.2287">&#171;endpoint&#187;</text><text fill="#000000" font-family="sans-serif" font-size="14" lengthAdjust="spacing" textLength="22.7021" x="1315.6452" y="932.0539">pdf</text><line style="stroke:#181818;stroke-width:0.5;" x1="1267.05" x2="1360.9426" y1="940.3556" y2="940.3556"/><line style="stroke:#181818;stroke-width:0.5;" x1="1267.05" x2="1360.9426" y1="948.3556" y2="948.3556"/></g><!--class create_app--><g class="entity" data-entity="create_app" data-source-line="102" data-uid="ent0039" id="entity_create_app"><rect fill="#F1F1F1" height="56.2656" rx="2.5" ry="2.5" style="stroke:#181818;stroke-width:0.5;" width="110.1006" x="1547.95" y="42"/><ellipse cx="1562.95" cy="62.1328" fill="#ADD1B2" rx="11" ry="11" style="stroke:#181818;stroke-width:1;"/><path d="M1565.9188,67.7734 Q1565.3406,68.0703 1564.7,68.2109 Q1564.0594,68.3672 1563.3563,68.3672 Q1560.8563,68.3672 1559.5281,66.7266 Q1558.2156,65.0703 1558.2156,61.9453 Q1558.2156,58.8203 1559.5281,57.1641 Q1560.8563,55.5078 1563.3563,55.5078 Q1564.0594,55.5078 1564.7,55.6641 Q1565.3563,55.8203 1565.9188,56.1172 L1565.9188,58.8359 Q1565.2938,58.2578 1564.7,57.9922 Q1564.1063,57.7109 1563.4813,57.7109 Q1562.1375,57.7109 1561.45,58.7891 Q1560.7625,59.8516 1560.7625,61.9453 Q1560.7625,64.0391 1561.45,65.1172 Q1562.1375,66.1797 1563.4813,66.1797 Q1564.1063,66.1797 1564.7,65.9141 Q1565.2938,65.6328 1565.9188,65.0547 L1565.9188,67.7734 Z " fill="#000000"/><text fill="#000000" font-family="sans-serif" font-size="12" font-style="italic" lengthAdjust="spacing" textLength="63.7031" x="1584.1487" y="58.1387">&#171;function&#187;</text><text fill="#000000" font-family="sans-serif" font-size="14" lengthAdjust="spacing" textLength="78.1006" x="1576.95" y="73.9639">create_app</text><line style="stroke:#181818;stroke-width:0.5;" x1="1548.95" x2="1657.0506" y1="82.2656" y2="82.2656"/><line style="stroke:#181818;stroke-width:0.5;" x1="1548.95" x2="1657.0506" y1="90.2656" y2="90.2656"/></g><!--link common_pkg to odt_pkg--><!--link common_pkg to odt_pkg--><!--link odt_pkg to pht_pkg--><!--link odt_pkg to pht_pkg--><!--reverse link create_app to common_pkg--><g class="link" data-entity-1="create_app" data-entity-2="common_pkg" data-source-line="106" data-uid="lnk41" id="link_create_app_common_pkg"><path codeLine="106" d="M1586.57,103.979 C1582.1,113.779 1580.02,119.58 1577,130.27 C1571.0975,151.16 1566.465,173.6762 1562.8348,195.7533 C1561.0198,206.7918 1559.4553,217.7205 1558.1079,228.2812" fill="none" id="create_app-backto-common_pkg" style="stroke:#181818;stroke-width:1;"/><polygon fill="#181818" points="1589.06,98.52,1581.6858,105.0485,1586.985,103.0691,1588.9644,108.3684,1589.06,98.52" style="stroke:#181818;stroke-width:1;"/></g><!--reverse link create_app to odt_pkg--><g class="link" data-entity-1="create_app" data-entity-2="odt_pkg" data-source-line="107" data-uid="lnk43" id="link_create_app_odt_pkg"><path codeLine="107" d="M1601.1866,104.7513 C1598.3766,156.8063 1592.4,267.6125 1586.7638,372.1037 C1583.9456,424.3494 1581.2934,495.8153 1579.3264,532.2767" fill="none" id="create_app-backto-odt_pkg" style="stroke:#181818;stroke-width:1;"/><polygon fill="#181818" points="1601.51,98.76,1597.0307,107.5313,1601.2405,103.7527,1605.0191,107.9625,1601.51,98.76" style="stroke:#181818;stroke-width:1;"/></g><!--reverse link create_app to pht_pkg--><g class="link" data-entity-1="create_app" data-entity-2="pht_pkg" data-source-line="108" data-uid="lnk45" id="link_create_app_pht_pkg"><path codeLine="108" d="M1611.6878,104.4544 C1613.9878,114.3544 1614.86,119.82 1616,130.27 C1632.235,279.73 1622.5175,448.4225 1608.6013,580.4812 C1601.6431,646.5106 1593.6353,703.3816 1587.297,744.1108 C1586.5047,749.2019 1585.7385,754.0409 1585.0037,758.614 C1584.82,759.7572 1584.6383,760.8839 1584.4586,761.9937 C1584.3688,762.5486 1584.2794,763.0993 1584.1906,763.6458" fill="none" id="create_app-backto-pht_pkg" style="stroke:#181818;stroke-width:1;"/><polygon fill="#181818" points="1610.33,98.61,1608.4704,108.2817,1611.4615,103.4803,1616.2629,106.4713,1610.33,98.61" style="stroke:#181818;stroke-width:1;"/></g><!--SRC=[bLPXRziW4FsUNu7oPQscxXTKaTgrdIQjszHs-p9DYC35OS4S1Tmec_hVTzXnujXEx5gAOl7U7VSUS3YYOn7P76F4d2djGKQDTZ9nGgv41cmgCS_HJfa8h7hbRfMnVvC9esV74avFsUNb0uKBcncOpOZ2jeyq8WIMGUGIqIjjHOH0RB3AeRPnDYkfh-sSHLmE9NsKwA0tkZ6LGLmLxdWgdF-XSTQ9u3f27Xh4zBndjy-5YEYrC2tWap22x9EjOOds1NpaNd05adxPsVaHIaIURPDqE2t_EhZ7mggAqS1UUyq1xz7pfR3AQ9iDEdD8FsBBjL0Fy5n0YBU9ta9l2cUqfCBxmAyOxrBrVTWFwpnA247C3TpQgEEcZyPpiGBk8JYq0JhcAD86v53WjD_0Ms5u04-ULwh0To8gpGgYqAPhDYh16wxqn2U6nSWNvRASOXLMassqSZP4BwY-7dR_CkQem0okNiawicXNpjqdkBt5axIRIdiVzB3r-SaB2NCgfqNwAOnM8dMIcZcW18FAXNFW1zNic4SKtVcq2QtSN9E9BUonc0llnQOrVA_LHxGBdHM-hBa5Vy7rAVWK9fiONtZCETNVsGKydUrSAnx1G4WjZHz4zWSON8y8gFr-RVHqLB5iwFI_xUQ9GxiLwj7qNWvElzqyiL3T2YpNLkVwBoYcBOjB7TYBXlMq958pPxkeSVV2EtPsfLIQZrrz_ypgwo2m9NXWUi4sMB2riF6yHuDRLXhelw5XtCJx9CBIqV2GP8JZ_Frzqmn8Yz2znVQU7ynKXO0VDSkEF3fzLHTTBpheT5kFLL97S8SXlcssyNu5NgTzWrqEVHnfLgA-QJ6S3-FA3vIFGqvji3ztGwX7ib2OC4XKYrDrbfkyyQ5reN1jVosrKc1_NzGdTWIZFjijU7jSXk19uo0T-NAgv4WFTAbpOX5fKTYoKP0gKd5GPE4kPenO7_O1-nhwmFfSzu7_0G00]--></g></svg>