<svg xmlns="http://www.w3.org/2000/svg" xmlns:xlink="http://www.w3.org/1999/xlink" contentStyleType="text/css" data-diagram-type="CLASS" height="901px" preserveAspectRatio="none" style="width:1819px;height:901px;background:#FFFFFF;" version="1.1" viewBox="0 0 1819 901" width="1819px" zoomAndPan="magnify"><defs/><g><!--cluster pht_pkg--><g class="cluster" data-entity="pht_pkg" data-source-line="3" data-uid="ent0002" id="cluster_pht_pkg"><path d="M8.5,6 L36.1807,6 A3.75,3.75 0 0 1 38.6807,8.5 L45.6807,28.2969 L1809.5,28.2969 A2.5,2.5 0 0 1 1812,30.7969 L1812,892.44 A2.5,2.5 0 0 1 1809.5,894.94 L8.5,894.94 A2.5,2.5 0 0 1 6,892.44 L6,8.5 A2.5,2.5 0 0 1 8.5,6" fill="none" style="stroke:#000000;stroke-width:1.5;"/><line style="stroke:#000000;stroke-width:1.5;" x1="6" x2="45.6807" y1="28.2969" y2="28.2969"/><text fill="#000000" font-family="sans-serif" font-size="14" font-weight="bold" lengthAdjust="spacing" textLength="26.6807" x="10" y="20.9951">pht</text></g><!--cluster api--><g class="cluster" data-entity="api" data-source-line="5" data-uid="ent0003" id="cluster_api"><rect fill="none" height="372.67" rx="2.5" ry="2.5" style="stroke:#181818;stroke-width:1;" width="1150" x="186" y="49"/><text fill="#000000" font-family="sans-serif" font-size="14" font-weight="bold" lengthAdjust="spacing" textLength="24.2676" x="748.8662" y="63.9951">api</text></g><!--cluster prsls--><g class="cluster" data-entity="prsls" data-source-line="7" data-uid="ent0004" id="cluster_prsls"><rect fill="none" height="144.48" rx="2.5" ry="2.5" style="stroke:#181818;stroke-width:1;" width="785" x="210" y="253.19"/><text fill="#000000" font-family="sans-serif" font-size="14" font-weight="bold" lengthAdjust="spacing" textLength="38.3906" x="583.3047" y="268.1851">prsls</text></g><!--cluster panel_reviews--><g class="cluster" data-entity="panel_reviews" data-source-line="25" data-uid="ent0009" id="cluster_panel_reviews"><rect fill="none" height="107.27" rx="2.5" ry="2.5" style="stroke:#181818;stroke-width:1;" width="186" x="210" y="102.46"/><text fill="#000000" font-family="sans-serif" font-size="14" font-weight="bold" lengthAdjust="spacing" textLength="111.8154" x="247.0923" y="117.4551">panel_reviews</text></g><!--cluster reviewers--><g class="cluster" data-entity="reviewers" data-source-line="28" data-uid="ent0011" id="cluster_reviewers"><rect fill="none" height="107.27" rx="2.5" ry="2.5" style="stroke:#181818;stroke-width:1;" width="132" x="420" y="102.46"/><text fill="#000000" font-family="sans-serif" font-size="14" font-weight="bold" lengthAdjust="spacing" textLength="77.4854" x="447.2573" y="117.4551">reviewers</text></g><!--cluster panel_decision--><g class="cluster" data-entity="panel_decision" data-source-line="31" data-uid="ent0013" id="cluster_panel_decision"><rect fill="none" height="107.27" rx="2.5" ry="2.5" style="stroke:#181818;stroke-width:1;" width="204" x="576" y="102.46"/><text fill="#000000" font-family="sans-serif" font-size="14" font-weight="bold" lengthAdjust="spacing" textLength="116.0605" x="619.9697" y="117.4551">panel_decision</text></g><!--cluster panels--><g class="cluster" data-entity="panels" data-source-line="34" data-uid="ent0015" id="cluster_panels"><rect fill="none" height="128.19" rx="2.5" ry="2.5" style="stroke:#181818;stroke-width:1;" width="274" x="804" y="92"/><text fill="#000000" font-family="sans-serif" font-size="14" font-weight="bold" lengthAdjust="spacing" textLength="52.0625" x="914.9688" y="106.9951">panels</text></g><!--cluster reports--><g class="cluster" data-entity="reports" data-source-line="41" data-uid="ent0017" id="cluster_reports"><rect fill="none" height="123.57" rx="2.5" ry="2.5" style="stroke:#181818;stroke-width:1;" width="210" x="1102" y="94.31"/><text fill="#000000" font-family="sans-serif" font-size="14" font-weight="bold" lengthAdjust="spacing" textLength="57.9688" x="1178.0156" y="109.3051">reports</text></g><!--cluster utils--><g class="cluster" data-entity="utils" data-source-line="49" data-uid="ent0020" id="cluster_utils"><rect fill="none" height="400.27" rx="2.5" ry="2.5" style="stroke:#181818;stroke-width:1;" width="1758" x="30" y="470.67"/><text fill="#000000" font-family="sans-serif" font-size="14" font-weight="bold" lengthAdjust="spacing" textLength="34.5898" x="891.7051" y="485.6651">utils</text></g><!--cluster email_helper--><g class="cluster" data-entity="email_helper" data-source-line="50" data-uid="ent0021" id="cluster_email_helper"><rect fill="none" height="111.89" rx="2.5" ry="2.5" style="stroke:#181818;stroke-width:1;" width="208" x="54" y="554.42"/><text fill="#000000" font-family="sans-serif" font-size="14" font-weight="bold" lengthAdjust="spacing" textLength="100.8096" x="107.5952" y="569.4151">email_helper</text></g><!--cluster pht_handler--><g class="cluster" data-entity="pht_handler" data-source-line="56" data-uid="ent0023" id="cluster_pht_handler"><rect fill="none" height="290.21" rx="2.5" ry="2.5" style="stroke:#181818;stroke-width:1;" width="609" x="286" y="556.73"/><text fill="#000000" font-family="sans-serif" font-size="14" font-weight="bold" lengthAdjust="spacing" textLength="94.2813" x="543.3594" y="571.7251">pht_handler</text></g><!--cluster s3_bucket--><g class="cluster" data-entity="s3_bucket" data-source-line="64" data-uid="ent0027" id="cluster_s3_bucket"><rect fill="none" height="193.38" rx="2.5" ry="2.5" style="stroke:#181818;stroke-width:1;" width="320" x="919" y="513.67"/><text fill="#000000" font-family="sans-serif" font-size="14" font-weight="bold" lengthAdjust="spacing" textLength="78.8594" x="1039.5703" y="528.6651">s3_bucket</text></g><!--cluster validation--><g class="cluster" data-entity="validation" data-source-line="75" data-uid="ent0029" id="cluster_validation"><rect fill="none" height="107.26" rx="2.5" ry="2.5" style="stroke:#181818;stroke-width:1;" width="390" x="1263" y="556.73"/><text fill="#000000" font-family="sans-serif" font-size="14" font-weight="bold" lengthAdjust="spacing" textLength="78.7158" x="1418.6421" y="571.7251">validation</text></g><!--class send_email--><g class="entity" data-entity="send_email" data-source-line="8" data-uid="ent0005" id="entity_send_email"><rect fill="#F1F1F1" height="72.5625" rx="2.5" ry="2.5" style="stroke:#181818;stroke-width:0.5;" width="168.1602" x="225.92" y="298.65"/><ellipse cx="266.5177" cy="318.7828" fill="#ADD1B2" rx="11" ry="11" style="stroke:#181818;stroke-width:1;"/><path d="M269.4865,324.4234 Q268.9083,324.7203 268.2677,324.8609 Q267.6271,325.0172 266.924,325.0172 Q264.424,325.0172 263.0958,323.3766 Q261.7833,321.7203 261.7833,318.5953 Q261.7833,315.4703 263.0958,313.8141 Q264.424,312.1578 266.924,312.1578 Q267.6271,312.1578 268.2677,312.3141 Q268.924,312.4703 269.4865,312.7672 L269.4865,315.4859 Q268.8615,314.9078 268.2677,314.6422 Q267.674,314.3609 267.049,314.3609 Q265.7052,314.3609 265.0177,315.4391 Q264.3302,316.5016 264.3302,318.5953 Q264.3302,320.6891 265.0177,321.7672 Q265.7052,322.8297 267.049,322.8297 Q267.674,322.8297 268.2677,322.5641 Q268.8615,322.2828 269.4865,321.7047 L269.4865,324.4234 Z " fill="#000000"/><text fill="#000000" font-family="sans-serif" font-size="12" font-style="italic" lengthAdjust="spacing" textLength="67.8926" x="291.898" y="314.7887">&#171;endpoint&#187;</text><text fill="#000000" font-family="sans-serif" font-size="14" lengthAdjust="spacing" textLength="79.2764" x="286.2061" y="330.6139">send_email</text><line style="stroke:#181818;stroke-width:0.5;" x1="226.92" x2="393.0802" y1="338.9156" y2="338.9156"/><text fill="#000000" font-family="sans-serif" font-size="14" lengthAdjust="spacing" textLength="156.1602" x="231.92" y="355.9107">returns: EmailRequest</text><line style="stroke:#181818;stroke-width:0.5;" x1="226.92" x2="393.0802" y1="363.2125" y2="363.2125"/></g><!--class proposals--><g class="entity" data-entity="proposals" data-source-line="11" data-uid="ent0006" id="entity_proposals"><rect fill="#F1F1F1" height="56.2656" rx="2.5" ry="2.5" style="stroke:#181818;stroke-width:0.5;" width="99.7168" x="429.14" y="306.8"/><ellipse cx="444.14" cy="326.9328" fill="#ADD1B2" rx="11" ry="11" style="stroke:#181818;stroke-width:1;"/><path d="M447.1088,332.5734 Q446.5306,332.8703 445.89,333.0109 Q445.2494,333.1672 444.5463,333.1672 Q442.0463,333.1672 440.7181,331.5266 Q439.4056,329.8703 439.4056,326.7453 Q439.4056,323.6203 440.7181,321.9641 Q442.0463,320.3078 444.5463,320.3078 Q445.2494,320.3078 445.89,320.4641 Q446.5463,320.6203 447.1088,320.9172 L447.1088,323.6359 Q446.4838,323.0578 445.89,322.7922 Q445.2963,322.5109 444.6713,322.5109 Q443.3275,322.5109 442.64,323.5891 Q441.9525,324.6516 441.9525,326.7453 Q441.9525,328.8391 442.64,329.9172 Q443.3275,330.9797 444.6713,330.9797 Q445.2963,330.9797 445.89,330.7141 Q446.4838,330.4328 447.1088,329.8547 L447.1088,332.5734 Z " fill="#000000"/><text fill="#000000" font-family="sans-serif" font-size="12" font-style="italic" lengthAdjust="spacing" textLength="67.8926" x="458.0521" y="322.9387">&#171;endpoint&#187;</text><text fill="#000000" font-family="sans-serif" font-size="14" lengthAdjust="spacing" textLength="67.7168" x="458.14" y="338.7639">proposals</text><line style="stroke:#181818;stroke-width:0.5;" x1="430.14" x2="527.8568" y1="347.0656" y2="347.0656"/><line style="stroke:#181818;stroke-width:0.5;" x1="430.14" x2="527.8568" y1="355.0656" y2="355.0656"/></g><g class="entity" data-entity="proposals_api_endpoints" data-source-line="12" data-uid="ent0007" id="entity_proposals_api_endpoints"><rect fill="#F1F1F1" height="93.4844" rx="2.5" ry="2.5" style="stroke:#181818;stroke-width:0.5;" width="220.168" x="563.92" y="288.19"/><text fill="#000000" font-family="sans-serif" font-size="14" lengthAdjust="spacing" textLength="172.4434" x="587.7823" y="303.1851">proposals_api_endpoints</text><line style="stroke:#181818;stroke-width:0.5;" x1="564.92" x2="783.088" y1="308.4869" y2="308.4869"/><ellipse cx="574.92" cy="322.1353" fill="none" rx="3" ry="3" style="stroke:#038048;stroke-width:1;"/><text fill="#000000" font-family="sans-serif" font-size="14" lengthAdjust="spacing" textLength="136.083" x="583.92" y="325.482">GET /prsl/{user_id}</text><ellipse cx="574.92" cy="338.4322" fill="none" rx="3" ry="3" style="stroke:#038048;stroke-width:1;"/><text fill="#000000" font-family="sans-serif" font-size="14" lengthAdjust="spacing" textLength="165.9697" x="583.92" y="341.7789">GET /prsl/{proposal_id}</text><ellipse cx="574.92" cy="354.7291" fill="none" rx="3" ry="3" style="stroke:#038048;stroke-width:1;"/><text fill="#000000" font-family="sans-serif" font-size="14" lengthAdjust="spacing" textLength="121.3584" x="583.92" y="358.0757">POST /prsl/create</text><ellipse cx="574.92" cy="371.0259" fill="none" rx="3" ry="3" style="stroke:#038048;stroke-width:1;"/><text fill="#000000" font-family="sans-serif" font-size="14" lengthAdjust="spacing" textLength="194.168" x="583.92" y="374.3726">UPDATE /prsl/{proposal_id}</text></g><g class="entity" data-entity="pdf_api_endpoints" data-source-line="18" data-uid="ent0008" id="entity_pdf_api_endpoints"><rect fill="#F1F1F1" height="77.1875" rx="2.5" ry="2.5" style="stroke:#181818;stroke-width:0.5;" width="160.3604" x="818.82" y="296.34"/><text fill="#000000" font-family="sans-serif" font-size="14" lengthAdjust="spacing" textLength="127.4287" x="835.2858" y="311.3351">pdf_api_endpoints</text><line style="stroke:#181818;stroke-width:0.5;" x1="819.82" x2="978.1804" y1="316.6369" y2="316.6369"/><ellipse cx="829.82" cy="330.2853" fill="none" rx="3" ry="3" style="stroke:#038048;stroke-width:1;"/><text fill="#000000" font-family="sans-serif" font-size="14" lengthAdjust="spacing" textLength="121.167" x="838.82" y="333.632">POST /pdf/upload</text><ellipse cx="829.82" cy="346.5822" fill="none" rx="3" ry="3" style="stroke:#038048;stroke-width:1;"/><text fill="#000000" font-family="sans-serif" font-size="14" lengthAdjust="spacing" textLength="132.5283" x="838.82" y="349.9289">GET /pdf/download</text><ellipse cx="829.82" cy="362.8791" fill="none" rx="3" ry="3" style="stroke:#038048;stroke-width:1;"/><text fill="#000000" font-family="sans-serif" font-size="14" lengthAdjust="spacing" textLength="134.3604" x="838.82" y="366.2257">DELETE /pdf/delete</text></g><!--class panel_review_get--><g class="entity" data-entity="panel_review_get" data-source-line="26" data-uid="ent0010" id="entity_panel_review_get"><rect fill="#F1F1F1" height="56.2656" rx="2.5" ry="2.5" style="stroke:#181818;stroke-width:0.5;" width="154.4385" x="225.78" y="137.46"/><ellipse cx="240.78" cy="157.5928" fill="#ADD1B2" rx="11" ry="11" style="stroke:#181818;stroke-width:1;"/><path d="M243.7488,163.2334 Q243.1706,163.5303 242.53,163.6709 Q241.8894,163.8272 241.1863,163.8272 Q238.6863,163.8272 237.3581,162.1866 Q236.0456,160.5303 236.0456,157.4053 Q236.0456,154.2803 237.3581,152.6241 Q238.6863,150.9678 241.1863,150.9678 Q241.8894,150.9678 242.53,151.1241 Q243.1863,151.2803 243.7488,151.5772 L243.7488,154.2959 Q243.1238,153.7178 242.53,153.4522 Q241.9363,153.1709 241.3113,153.1709 Q239.9675,153.1709 239.28,154.2491 Q238.5925,155.3116 238.5925,157.4053 Q238.5925,159.4991 239.28,160.5772 Q239.9675,161.6397 241.3113,161.6397 Q241.9363,161.6397 242.53,161.3741 Q243.1238,161.0928 243.7488,160.5147 L243.7488,163.2334 Z " fill="#000000"/><text fill="#000000" font-family="sans-serif" font-size="12" font-style="italic" lengthAdjust="spacing" textLength="67.8926" x="282.0529" y="153.5987">&#171;endpoint&#187;</text><text fill="#000000" font-family="sans-serif" font-size="14" lengthAdjust="spacing" textLength="122.4385" x="254.78" y="169.4239">panel_review_get</text><line style="stroke:#181818;stroke-width:0.5;" x1="226.78" x2="379.2185" y1="177.7256" y2="177.7256"/><line style="stroke:#181818;stroke-width:0.5;" x1="226.78" x2="379.2185" y1="185.7256" y2="185.7256"/></g><!--class reviewers--><g class="entity" data-entity="reviewers" data-source-line="29" data-uid="ent0012" id="entity_reviewers"><rect fill="#F1F1F1" height="56.2656" rx="2.5" ry="2.5" style="stroke:#181818;stroke-width:0.5;" width="100.2705" x="435.86" y="137.46"/><ellipse cx="450.86" cy="157.5928" fill="#ADD1B2" rx="11" ry="11" style="stroke:#181818;stroke-width:1;"/><path d="M453.8288,163.2334 Q453.2506,163.5303 452.61,163.6709 Q451.9694,163.8272 451.2663,163.8272 Q448.7663,163.8272 447.4381,162.1866 Q446.1256,160.5303 446.1256,157.4053 Q446.1256,154.2803 447.4381,152.6241 Q448.7663,150.9678 451.2663,150.9678 Q451.9694,150.9678 452.61,151.1241 Q453.2663,151.2803 453.8288,151.5772 L453.8288,154.2959 Q453.2038,153.7178 452.61,153.4522 Q452.0163,153.1709 451.3913,153.1709 Q450.0475,153.1709 449.36,154.2491 Q448.6725,155.3116 448.6725,157.4053 Q448.6725,159.4991 449.36,160.5772 Q450.0475,161.6397 451.3913,161.6397 Q452.0163,161.6397 452.61,161.3741 Q453.2038,161.0928 453.8288,160.5147 L453.8288,163.2334 Z " fill="#000000"/><text fill="#000000" font-family="sans-serif" font-size="12" font-style="italic" lengthAdjust="spacing" textLength="67.8926" x="465.049" y="153.5987">&#171;endpoint&#187;</text><text fill="#000000" font-family="sans-serif" font-size="14" lengthAdjust="spacing" textLength="68.2705" x="464.86" y="169.4239">reviewers</text><line style="stroke:#181818;stroke-width:0.5;" x1="436.86" x2="535.1305" y1="177.7256" y2="177.7256"/><line style="stroke:#181818;stroke-width:0.5;" x1="436.86" x2="535.1305" y1="185.7256" y2="185.7256"/></g><!--class panel_decision_post--><g class="entity" data-entity="panel_decision_post" data-source-line="32" data-uid="ent0014" id="entity_panel_decision_post"><rect fill="#F1F1F1" height="56.2656" rx="2.5" ry="2.5" style="stroke:#181818;stroke-width:0.5;" width="172.7861" x="591.61" y="137.46"/><ellipse cx="606.61" cy="157.5928" fill="#ADD1B2" rx="11" ry="11" style="stroke:#181818;stroke-width:1;"/><path d="M609.5788,163.2334 Q609.0006,163.5303 608.36,163.6709 Q607.7194,163.8272 607.0163,163.8272 Q604.5163,163.8272 603.1881,162.1866 Q601.8756,160.5303 601.8756,157.4053 Q601.8756,154.2803 603.1881,152.6241 Q604.5163,150.9678 607.0163,150.9678 Q607.7194,150.9678 608.36,151.1241 Q609.0163,151.2803 609.5788,151.5772 L609.5788,154.2959 Q608.9538,153.7178 608.36,153.4522 Q607.7663,153.1709 607.1413,153.1709 Q605.7975,153.1709 605.11,154.2491 Q604.4225,155.3116 604.4225,157.4053 Q604.4225,159.4991 605.11,160.5772 Q605.7975,161.6397 607.1413,161.6397 Q607.7663,161.6397 608.36,161.3741 Q608.9538,161.0928 609.5788,160.5147 L609.5788,163.2334 Z " fill="#000000"/><text fill="#000000" font-family="sans-serif" font-size="12" font-style="italic" lengthAdjust="spacing" textLength="67.8926" x="657.0568" y="153.5987">&#171;endpoint&#187;</text><text fill="#000000" font-family="sans-serif" font-size="14" lengthAdjust="spacing" textLength="140.7861" x="620.61" y="169.4239">panel_decision_post</text><line style="stroke:#181818;stroke-width:0.5;" x1="592.61" x2="763.3961" y1="177.7256" y2="177.7256"/><line style="stroke:#181818;stroke-width:0.5;" x1="592.61" x2="763.3961" y1="185.7256" y2="185.7256"/></g><g class="entity" data-entity="panels_api_endpoints" data-source-line="35" data-uid="ent0016" id="entity_panels_api_endpoints"><rect fill="#F1F1F1" height="77.1875" rx="2.5" ry="2.5" style="stroke:#181818;stroke-width:0.5;" width="241.8174" x="820.09" y="127"/><text fill="#000000" font-family="sans-serif" font-size="14" lengthAdjust="spacing" textLength="150.8623" x="865.5675" y="141.9951">panels_api_endpoints</text><line style="stroke:#181818;stroke-width:0.5;" x1="821.09" x2="1060.9074" y1="147.2969" y2="147.2969"/><ellipse cx="831.09" cy="160.9453" fill="none" rx="3" ry="3" style="stroke:#038048;stroke-width:1;"/><text fill="#000000" font-family="sans-serif" font-size="14" lengthAdjust="spacing" textLength="83.5488" x="840.09" y="164.292">GET /panels</text><ellipse cx="831.09" cy="177.2422" fill="none" rx="3" ry="3" style="stroke:#038048;stroke-width:1;"/><text fill="#000000" font-family="sans-serif" font-size="14" lengthAdjust="spacing" textLength="118.8564" x="840.09" y="180.5889">GET /panels/{id}</text><ellipse cx="831.09" cy="193.5391" fill="none" rx="3" ry="3" style="stroke:#038048;stroke-width:1;"/><text fill="#000000" font-family="sans-serif" font-size="14" lengthAdjust="spacing" textLength="215.8174" x="840.09" y="196.8857">GET /panels/by_user/{user_id}</text></g><!--class report_get--><g class="entity" data-entity="report_get" data-source-line="42" data-uid="ent0018" id="entity_report_get"><rect fill="#F1F1F1" height="72.5625" rx="2.5" ry="2.5" style="stroke:#181818;stroke-width:0.5;" width="178.8379" x="1117.58" y="129.31"/><ellipse cx="1166.2211" cy="149.4428" fill="#ADD1B2" rx="11" ry="11" style="stroke:#181818;stroke-width:1;"/><path d="M1169.1899,155.0834 Q1168.6117,155.3803 1167.9711,155.5209 Q1167.3305,155.6772 1166.6274,155.6772 Q1164.1274,155.6772 1162.7992,154.0366 Q1161.4867,152.3803 1161.4867,149.2553 Q1161.4867,146.1303 1162.7992,144.4741 Q1164.1274,142.8178 1166.6274,142.8178 Q1167.3305,142.8178 1167.9711,142.9741 Q1168.6274,143.1303 1169.1899,143.4272 L1169.1899,146.1459 Q1168.5649,145.5678 1167.9711,145.3022 Q1167.3774,145.0209 1166.7524,145.0209 Q1165.4086,145.0209 1164.7211,146.0991 Q1164.0336,147.1616 1164.0336,149.2553 Q1164.0336,151.3491 1164.7211,152.4272 Q1165.4086,153.4897 1166.7524,153.4897 Q1167.3774,153.4897 1167.9711,153.2241 Q1168.5649,152.9428 1169.1899,152.3647 L1169.1899,155.0834 Z " fill="#000000"/><text fill="#000000" font-family="sans-serif" font-size="12" font-style="italic" lengthAdjust="spacing" textLength="67.8926" x="1189.3027" y="145.4487">&#171;endpoint&#187;</text><text fill="#000000" font-family="sans-serif" font-size="14" lengthAdjust="spacing" textLength="73.0557" x="1186.7211" y="161.2739">report_get</text><line style="stroke:#181818;stroke-width:0.5;" x1="1118.58" x2="1295.4179" y1="169.5756" y2="169.5756"/><text fill="#000000" font-family="sans-serif" font-size="14" lengthAdjust="spacing" textLength="166.8379" x="1123.58" y="186.5707">returns: ProposalReport</text><line style="stroke:#181818;stroke-width:0.5;" x1="1118.58" x2="1295.4179" y1="193.8725" y2="193.8725"/></g><!--class constants--><g class="entity" data-entity="constants" data-source-line="79" data-uid="ent0032" id="entity_constants"><rect fill="#F1F1F1" height="48" rx="2.5" ry="2.5" style="stroke:#181818;stroke-width:0.5;" width="100.1543" x="1671.92" y="595.86"/><ellipse cx="1686.92" cy="611.86" fill="#ADD1B2" rx="11" ry="11" style="stroke:#181818;stroke-width:1;"/><path d="M1689.8888,617.5006 Q1689.3106,617.7975 1688.67,617.9381 Q1688.0294,618.0944 1687.3263,618.0944 Q1684.8263,618.0944 1683.4981,616.4538 Q1682.1856,614.7975 1682.1856,611.6725 Q1682.1856,608.5475 1683.4981,606.8913 Q1684.8263,605.235 1687.3263,605.235 Q1688.0294,605.235 1688.67,605.3913 Q1689.3263,605.5475 1689.8888,605.8444 L1689.8888,608.5631 Q1689.2638,607.985 1688.67,607.7194 Q1688.0763,607.4381 1687.4513,607.4381 Q1686.1075,607.4381 1685.42,608.5163 Q1684.7325,609.5788 1684.7325,611.6725 Q1684.7325,613.7663 1685.42,614.8444 Q1686.1075,615.9069 1687.4513,615.9069 Q1688.0763,615.9069 1688.67,615.6413 Q1689.2638,615.36 1689.8888,614.7819 L1689.8888,617.5006 Z " fill="#000000"/><text fill="#000000" font-family="sans-serif" font-size="14" lengthAdjust="spacing" textLength="68.1543" x="1700.92" y="616.7067">constants</text><line style="stroke:#181818;stroke-width:0.5;" x1="1672.92" x2="1771.0743" y1="627.86" y2="627.86"/><line style="stroke:#181818;stroke-width:0.5;" x1="1672.92" x2="1771.0743" y1="635.86" y2="635.86"/></g><g class="entity" data-entity="email_helper_functions" data-source-line="51" data-uid="ent0022" id="entity_email_helper_functions"><rect fill="#F1F1F1" height="60.8906" rx="2.5" ry="2.5" style="stroke:#181818;stroke-width:0.5;" width="175.7246" x="70.14" y="589.42"/><text fill="#000000" font-family="sans-serif" font-size="14" lengthAdjust="spacing" textLength="161.7246" x="77.14" y="604.4151">email_helper_functions</text><line style="stroke:#181818;stroke-width:0.5;" x1="71.14" x2="244.8646" y1="609.7169" y2="609.7169"/><ellipse cx="81.14" cy="623.3653" fill="#84BE84" rx="3" ry="3" style="stroke:#038048;stroke-width:1;"/><text fill="#000000" font-family="sans-serif" font-size="14" lengthAdjust="spacing" textLength="103.0313" x="90.14" y="626.712">render_email()</text><ellipse cx="81.14" cy="639.6622" fill="#84BE84" rx="3" ry="3" style="stroke:#038048;stroke-width:1;"/><text fill="#000000" font-family="sans-serif" font-size="14" lengthAdjust="spacing" textLength="137.9287" x="90.14" y="643.0089">send_email_async()</text></g><!--class join_proposals_panels_reviews_decisions--><g class="entity" data-entity="join_proposals_panels_reviews_decisions" data-source-line="57" data-uid="ent0024" id="entity_join_proposals_panels_reviews_decisions"><rect fill="#F1F1F1" height="56.2656" rx="2.5" ry="2.5" style="stroke:#181818;stroke-width:0.5;" width="317.9746" x="561.01" y="591.73"/><ellipse cx="576.01" cy="611.8628" fill="#ADD1B2" rx="11" ry="11" style="stroke:#181818;stroke-width:1;"/><path d="M578.9788,617.5034 Q578.4006,617.8003 577.76,617.9409 Q577.1194,618.0972 576.4163,618.0972 Q573.9163,618.0972 572.5881,616.4566 Q571.2756,614.8003 571.2756,611.6753 Q571.2756,608.5503 572.5881,606.8941 Q573.9163,605.2378 576.4163,605.2378 Q577.1194,605.2378 577.76,605.3941 Q578.4163,605.5503 578.9788,605.8472 L578.9788,608.5659 Q578.3538,607.9878 577.76,607.7222 Q577.1663,607.4409 576.5413,607.4409 Q575.1975,607.4409 574.51,608.5191 Q573.8225,609.5816 573.8225,611.6753 Q573.8225,613.7691 574.51,614.8472 Q575.1975,615.9097 576.5413,615.9097 Q577.1663,615.9097 577.76,615.6441 Q578.3538,615.3628 578.9788,614.7847 L578.9788,617.5034 Z " fill="#000000"/><text fill="#000000" font-family="sans-serif" font-size="12" font-style="italic" lengthAdjust="spacing" textLength="63.7031" x="701.1457" y="607.8687">&#171;function&#187;</text><text fill="#000000" font-family="sans-serif" font-size="14" lengthAdjust="spacing" textLength="285.9746" x="590.01" y="623.6939">join_proposals_panels_reviews_decisions</text><line style="stroke:#181818;stroke-width:0.5;" x1="562.01" x2="877.9846" y1="631.9956" y2="631.9956"/><line style="stroke:#181818;stroke-width:0.5;" x1="562.01" x2="877.9846" y1="639.9956" y2="639.9956"/></g><g class="entity" data-entity="join_helpers" data-source-line="58" data-uid="ent0025" id="entity_join_helpers"><rect fill="#F1F1F1" height="60.8906" rx="2.5" ry="2.5" style="stroke:#181818;stroke-width:0.5;" width="197.8555" x="621.07" y="770.05"/><text fill="#000000" font-family="sans-serif" font-size="14" lengthAdjust="spacing" textLength="84.1436" x="677.926" y="785.0451">join_helpers</text><line style="stroke:#181818;stroke-width:0.5;" x1="622.07" x2="817.9255" y1="790.3469" y2="790.3469"/><ellipse cx="632.07" cy="803.9953" fill="#84BE84" rx="3" ry="3" style="stroke:#038048;stroke-width:1;"/><text fill="#000000" font-family="sans-serif" font-size="14" lengthAdjust="spacing" textLength="126.6221" x="641.07" y="807.342">_get_array_class()</text><ellipse cx="632.07" cy="820.2922" fill="#84BE84" rx="3" ry="3" style="stroke:#038048;stroke-width:1;"/><text fill="#000000" font-family="sans-serif" font-size="14" lengthAdjust="spacing" textLength="171.8555" x="641.07" y="823.6389">get_latest_entity_by_id()</text></g><!--class transform_update_proposal--><g class="entity" data-entity="transform_update_proposal" data-source-line="62" data-uid="ent0026" id="entity_transform_update_proposal"><rect fill="#F1F1F1" height="56.2656" rx="2.5" ry="2.5" style="stroke:#181818;stroke-width:0.5;" width="224.6299" x="301.69" y="591.73"/><ellipse cx="316.69" cy="611.8628" fill="#ADD1B2" rx="11" ry="11" style="stroke:#181818;stroke-width:1;"/><path d="M319.6588,617.5034 Q319.0806,617.8003 318.44,617.9409 Q317.7994,618.0972 317.0963,618.0972 Q314.5963,618.0972 313.2681,616.4566 Q311.9556,614.8003 311.9556,611.6753 Q311.9556,608.5503 313.2681,606.8941 Q314.5963,605.2378 317.0963,605.2378 Q317.7994,605.2378 318.44,605.3941 Q319.0963,605.5503 319.6588,605.8472 L319.6588,608.5659 Q319.0338,607.9878 318.44,607.7222 Q317.8463,607.4409 317.2213,607.4409 Q315.8775,607.4409 315.19,608.5191 Q314.5025,609.5816 314.5025,611.6753 Q314.5025,613.7691 315.19,614.8472 Q315.8775,615.9097 317.2213,615.9097 Q317.8463,615.9097 318.44,615.6441 Q319.0338,615.3628 319.6588,614.7847 L319.6588,617.5034 Z " fill="#000000"/><text fill="#000000" font-family="sans-serif" font-size="12" font-style="italic" lengthAdjust="spacing" textLength="63.7031" x="395.1534" y="607.8687">&#171;function&#187;</text><text fill="#000000" font-family="sans-serif" font-size="14" lengthAdjust="spacing" textLength="192.6299" x="330.69" y="623.6939">transform_update_proposal</text><line style="stroke:#181818;stroke-width:0.5;" x1="302.69" x2="525.3199" y1="631.9956" y2="631.9956"/><line style="stroke:#181818;stroke-width:0.5;" x1="302.69" x2="525.3199" y1="639.9956" y2="639.9956"/></g><g class="entity" data-entity="s3_bucket_functions" data-source-line="65" data-uid="ent0028" id="entity_s3_bucket_functions"><rect fill="#F1F1F1" height="142.375" rx="2.5" ry="2.5" style="stroke:#181818;stroke-width:0.5;" width="288.2881" x="934.86" y="548.67"/><text fill="#000000" font-family="sans-serif" font-size="14" lengthAdjust="spacing" textLength="142.3516" x="1007.8283" y="563.6651">s3_bucket_functions</text><line style="stroke:#181818;stroke-width:0.5;" x1="935.86" x2="1222.1481" y1="568.9669" y2="568.9669"/><ellipse cx="945.86" cy="582.6153" fill="#84BE84" rx="3" ry="3" style="stroke:#038048;stroke-width:1;"/><text fill="#000000" font-family="sans-serif" font-size="14" lengthAdjust="spacing" textLength="125.9043" x="954.86" y="585.962">S3Method (Enum)</text><ellipse cx="945.86" cy="598.9122" fill="none" rx="3" ry="3" style="stroke:#038048;stroke-width:1;"/><text fill="#000000" font-family="sans-serif" font-size="14" lengthAdjust="spacing" textLength="62.7129" x="954.86" y="602.2589">S3Config</text><ellipse cx="945.86" cy="615.2091" fill="#84BE84" rx="3" ry="3" style="stroke:#038048;stroke-width:1;"/><text fill="#000000" font-family="sans-serif" font-size="14" lengthAdjust="spacing" textLength="113.6885" x="954.86" y="618.5557">get_aws_client()</text><ellipse cx="945.86" cy="631.5059" fill="#84BE84" rx="3" ry="3" style="stroke:#038048;stroke-width:1;"/><text fill="#000000" font-family="sans-serif" font-size="14" lengthAdjust="spacing" textLength="176.5654" x="954.86" y="634.8526">generate_presigned_url()</text><ellipse cx="945.86" cy="647.8028" fill="#84BE84" rx="3" ry="3" style="stroke:#038048;stroke-width:1;"/><text fill="#000000" font-family="sans-serif" font-size="14" lengthAdjust="spacing" textLength="242.2725" x="954.86" y="651.1495">create_presigned_url_upload_pdf()</text><ellipse cx="945.86" cy="664.0997" fill="#84BE84" rx="3" ry="3" style="stroke:#038048;stroke-width:1;"/><text fill="#000000" font-family="sans-serif" font-size="14" lengthAdjust="spacing" textLength="262.2881" x="954.86" y="667.4464">create_presigned_url_download_pdf()</text><ellipse cx="945.86" cy="680.3966" fill="#84BE84" rx="3" ry="3" style="stroke:#038048;stroke-width:1;"/><text fill="#000000" font-family="sans-serif" font-size="14" lengthAdjust="spacing" textLength="238.6973" x="954.86" y="683.7432">create_presigned_url_delete_pdf()</text></g><!--class validate_duplicates--><g class="entity" data-entity="validate_duplicates" data-source-line="76" data-uid="ent0030" id="entity_validate_duplicates"><rect fill="#F1F1F1" height="56.2656" rx="2.5" ry="2.5" style="stroke:#181818;stroke-width:0.5;" width="167.3105" x="1469.34" y="591.73"/><ellipse cx="1484.34" cy="611.8628" fill="#ADD1B2" rx="11" ry="11" style="stroke:#181818;stroke-width:1;"/><path d="M1487.3088,617.5034 Q1486.7306,617.8003 1486.09,617.9409 Q1485.4494,618.0972 1484.7463,618.0972 Q1482.2463,618.0972 1480.9181,616.4566 Q1479.6056,614.8003 1479.6056,611.6753 Q1479.6056,608.5503 1480.9181,606.8941 Q1482.2463,605.2378 1484.7463,605.2378 Q1485.4494,605.2378 1486.09,605.3941 Q1486.7463,605.5503 1487.3088,605.8472 L1487.3088,608.5659 Q1486.6838,607.9878 1486.09,607.7222 Q1485.4963,607.4409 1484.8713,607.4409 Q1483.5275,607.4409 1482.84,608.5191 Q1482.1525,609.5816 1482.1525,611.6753 Q1482.1525,613.7691 1482.84,614.8472 Q1483.5275,615.9097 1484.8713,615.9097 Q1485.4963,615.9097 1486.09,615.6441 Q1486.6838,615.3628 1487.3088,614.7847 L1487.3088,617.5034 Z " fill="#000000"/><text fill="#000000" font-family="sans-serif" font-size="12" font-style="italic" lengthAdjust="spacing" textLength="63.7031" x="1534.1437" y="607.8687">&#171;function&#187;</text><text fill="#000000" font-family="sans-serif" font-size="14" lengthAdjust="spacing" textLength="135.3105" x="1498.34" y="623.6939">validate_duplicates</text><line style="stroke:#181818;stroke-width:0.5;" x1="1470.34" x2="1635.6505" y1="631.9956" y2="631.9956"/><line style="stroke:#181818;stroke-width:0.5;" x1="1470.34" x2="1635.6505" y1="639.9956" y2="639.9956"/></g><!--class validate_proposal--><g class="entity" data-entity="validate_proposal" data-source-line="77" data-uid="ent0031" id="entity_validate_proposal"><rect fill="#F1F1F1" height="56.2656" rx="2.5" ry="2.5" style="stroke:#181818;stroke-width:0.5;" width="155.6348" x="1279.18" y="591.73"/><ellipse cx="1294.18" cy="611.8628" fill="#ADD1B2" rx="11" ry="11" style="stroke:#181818;stroke-width:1;"/><path d="M1297.1488,617.5034 Q1296.5706,617.8003 1295.93,617.9409 Q1295.2894,618.0972 1294.5863,618.0972 Q1292.0863,618.0972 1290.7581,616.4566 Q1289.4456,614.8003 1289.4456,611.6753 Q1289.4456,608.5503 1290.7581,606.8941 Q1292.0863,605.2378 1294.5863,605.2378 Q1295.2894,605.2378 1295.93,605.3941 Q1296.5863,605.5503 1297.1488,605.8472 L1297.1488,608.5659 Q1296.5238,607.9878 1295.93,607.7222 Q1295.3363,607.4409 1294.7113,607.4409 Q1293.3675,607.4409 1292.68,608.5191 Q1291.9925,609.5816 1291.9925,611.6753 Q1291.9925,613.7691 1292.68,614.8472 Q1293.3675,615.9097 1294.7113,615.9097 Q1295.3363,615.9097 1295.93,615.6441 Q1296.5238,615.3628 1297.1488,614.7847 L1297.1488,617.5034 Z " fill="#000000"/><text fill="#000000" font-family="sans-serif" font-size="12" font-style="italic" lengthAdjust="spacing" textLength="63.7031" x="1338.1458" y="607.8687">&#171;function&#187;</text><text fill="#000000" font-family="sans-serif" font-size="14" lengthAdjust="spacing" textLength="123.6348" x="1308.18" y="623.6939">validate_proposal</text><line style="stroke:#181818;stroke-width:0.5;" x1="1280.18" x2="1433.8148" y1="631.9956" y2="631.9956"/><line style="stroke:#181818;stroke-width:0.5;" x1="1280.18" x2="1433.8148" y1="639.9956" y2="639.9956"/></g><!--link report_get to send_email--><!--link panel_review_get to email_helper_functions--><!--link proposals to validate_proposal--><g class="link" data-entity-1="proposals" data-entity-2="validate_proposal" data-source-line="86" data-uid="lnk34" id="link_proposals_validate_proposal"><path codeLine="86" d="M490.07,363.22 C500.75,385.54 519.25,415.64 546,429.67 C557.93,435.94 1017.56,436.76 1031,437.67 C1036.81,438.07 1233.95,459.77 1239,462.67 C1290.86,492.48 1324.554,549.7352 1342.194,585.9752" fill="none" id="proposals-to-validate_proposal" style="stroke:#181818;stroke-width:1;"/><polygon fill="#181818" points="1344.82,591.37,1344.4776,581.5271,1342.6317,586.8743,1337.2845,585.0284,1344.82,591.37" style="stroke:#181818;stroke-width:1;"/></g><!--link proposals to transform_update_proposal--><g class="link" data-entity-1="proposals" data-entity-2="transform_update_proposal" data-source-line="87" data-uid="lnk35" id="link_proposals_transform_update_proposal"><path codeLine="87" d="M472.71,363.32 C460.28,417.4 434.0625,531.5121 421.6425,585.6121" fill="none" id="proposals-to-transform_update_proposal" style="stroke:#181818;stroke-width:1;"/><polygon fill="#181818" points="420.3,591.46,426.2124,583.5832,421.4188,586.5868,418.4152,581.7932,420.3,591.46" style="stroke:#181818;stroke-width:1;"/></g><!--link pdf_api_endpoints to s3_bucket_functions--><g class="link" data-entity-1="pdf_api_endpoints" data-entity-2="s3_bucket_functions" data-source-line="88" data-uid="lnk36" id="link_pdf_api_endpoints_s3_bucket_functions"><path codeLine="88" d="M923.09,373.8 C951.4,418.29 995.7389,487.998 1030.9089,543.268" fill="none" id="pdf_api_endpoints-to-s3_bucket_functions" style="stroke:#181818;stroke-width:1;"/><polygon fill="#181818" points="1034.13,548.33,1032.673,538.5895,1031.4457,544.1116,1025.9236,542.8844,1034.13,548.33" style="stroke:#181818;stroke-width:1;"/><text fill="#000000" font-family="sans-serif" font-size="13" lengthAdjust="spacing" textLength="49.2578" x="973" y="450.7369">PDF file</text></g><!--link panels_api_endpoints to validate_duplicates--><g class="link" data-entity-1="panels_api_endpoints" data-entity-2="validate_duplicates" data-source-line="89" data-uid="lnk37" id="link_panels_api_endpoints_validate_duplicates"><path codeLine="89" d="M981.65,204.51 C995.44,217.39 1010.91,231.9 1025,245.19 C1111.55,326.83 1114.47,372.83 1219,429.67 C1260.76,452.39 1275.99,447.62 1323,454.67 C1351.4,458.94 1427.21,448.17 1452,462.67 C1501.19,491.46 1528.4821,549.1613 1541.9821,585.7313" fill="none" id="panels_api_endpoints-to-validate_duplicates" style="stroke:#181818;stroke-width:1;"/><polygon fill="#181818" points="1544.06,591.36,1544.6957,581.5317,1542.3284,586.6694,1537.1907,584.3022,1544.06,591.36" style="stroke:#181818;stroke-width:1;"/><text fill="#000000" font-family="sans-serif" font-size="13" lengthAdjust="spacing" textLength="68.5229" x="1220" y="339.4969">List[Panel]</text></g><!--link report_get to join_proposals_panels_reviews_decisions--><g class="link" data-entity-1="report_get" data-entity-2="join_proposals_panels_reviews_decisions" data-source-line="90" data-uid="lnk38" id="link_report_get_join_proposals_panels_reviews_decisions"><path codeLine="90" d="M1179.19,202.33 C1169.3,215.54 1158.31,230.81 1149,245.19 C1090.94,334.9 1121.28,397.5 1031,454.67 C1009.92,468.02 942.28,453.69 919,462.67 C846.48,490.67 783.2244,550.2529 748.5544,587.0529" fill="none" id="report_get-to-join_proposals_panels_reviews_decisions" style="stroke:#181818;stroke-width:1;"/><polygon fill="#181818" points="744.44,591.42,753.523,587.6122,747.8686,587.7807,747.7001,582.1264,744.44,591.42" style="stroke:#181818;stroke-width:1;"/></g><!--link send_email to email_helper_functions--><g class="link" data-entity-1="send_email" data-entity-2="email_helper_functions" data-source-line="91" data-uid="lnk39" id="link_send_email_email_helper_functions"><path codeLine="91" d="M290.9,371.48 C260.6,427.88 204.9098,531.5446 176.7398,583.9746" fill="none" id="send_email-to-email_helper_functions" style="stroke:#181818;stroke-width:1;"/><polygon fill="#181818" points="173.9,589.26,181.6833,583.2251,176.2665,584.8555,174.6361,579.4387,173.9,589.26" style="stroke:#181818;stroke-width:1;"/></g><!--link reviewers to constants--><g class="link" data-entity-1="reviewers" data-entity-2="constants" data-source-line="92" data-uid="lnk40" id="link_reviewers_constants"><path codeLine="92" d="M516.49,194.08 C532.89,207.05 554.19,221.19 576,228.19 C596.21,234.68 936.78,235.68 958,236.19 C1032.45,237.97 1221.54,224.24 1293,245.19 C1472.38,297.77 1529.51,322.35 1653,462.67 C1687.96,502.4 1706.164,556.8626 1714.924,589.7126" fill="none" id="reviewers-to-constants" style="stroke:#181818;stroke-width:1;"/><polygon fill="#181818" points="1716.47,595.51,1718.016,585.7832,1715.1817,590.6788,1710.2861,587.8445,1716.47,595.51" style="stroke:#181818;stroke-width:1;"/><text fill="#000000" font-family="sans-serif" font-size="13" lengthAdjust="spacing" textLength="125.5249" x="1622" y="339.4969">ReviewerConstants</text></g><!--link join_proposals_panels_reviews_decisions to join_helpers--><g class="link" data-entity-1="join_proposals_panels_reviews_decisions" data-entity-2="join_helpers" data-source-line="93" data-uid="lnk41" id="link_join_proposals_panels_reviews_decisions_join_helpers"><path codeLine="93" d="M720,648.38 C720,681.17 720,729.74 720,763.56" fill="none" id="join_proposals_panels_reviews_decisions-to-join_helpers" style="stroke:#181818;stroke-width:1;"/><polygon fill="#181818" points="720,769.56,724,760.56,720,764.56,716,760.56,720,769.56" style="stroke:#181818;stroke-width:1;"/><text fill="#000000" font-family="sans-serif" font-size="13" lengthAdjust="spacing" textLength="99.3726" x="721" y="736.1169">ProposalReport</text></g><!--SRC=[dLPDJ-Cm4BttLrXS5hJRzC0D8QGAocebLbG53Yk4B3TsMuDhUsq7LA7-zxMTxyP9pUQII7apdZSVRso414Q0fJ16R06cYgI62ZuQIPI-eJK19t9ZJW3ImBwXV5k3pz48sAVwZoGz0PUN2sk8-9gHgwiIqe99fPdk0a7ZIHdI6cZ2CIHRH9a5ssyfA3STh7iKCPdY-WBC77f1_cP4cnPg7_0lbP128wPRxbj0iNorGTP8Q3d24gi3aNm7FsUFOE8uJZupJHIaU3-CAftt8EVt3oKqLGGP4i0ypM-cZxEZ3lT1RdWLmQg80gyccMG2uLvA5e751-_1tCpkPZvG1oEC7B2f0zo76WTnmg0YxvHyH3LGqm2kYGdNUTyzAJSXAkgK2XpjFeyBavHgEs7nJ4eBQCjhldRQ4IPbBtXeT9DxzF3VoUTG_-UGvGwwIUcPb_rmeQHG9h9C3jffWo4rcHU3jF2cHwCgWaaQ9utTB3nlACQ4luo1bxwarhLHezKhJfcXG-MgSDu3t10cYOggRjC0hZBkzJrSNsL3j21lSNeM0DGS8D8xdXw01elcziS6SSoEnPqNxjKM2jOANFHe8GFLJBZfApc5HTpxoTc7IRkAGQGKsa5_Sf2ump2hmjhO4J7KxA1jNufx-TSyZ49ShuJQmanYww7Y58uya3Xz3fTP-aPCLBahz95QFvp_9cOZC3YTyMnx5aHS2xwYwvvq85k6b56RZfwCSQ9olaJJDISOPYhSLVc2QmDXld2WNHdnDkKA-gALtqW1cy5sVaUCsdf6Adc19X1RNZHrdTJVkGSciGsJcwMsu3OKevigymsCnsDmUx-ude6xwP_xfySByEG41sHkui5q_iiXFDQkWQIrSvFEGZtGDozTILDdah3eD8DP4EQpfpTKwX-5-WApapOpWhDTEnwleFNDRJo-Aawjov1q4XPXtX2bf7TI3_rqhawrlshwaj0SsjroSmjMb95sfeiKwrwt8PQDJhe0TrIRvxbpybAv3Ysc8F58gJr8G-EUNhkDQO8wlk86LNyrF5LzRDajYl_NhTx-Ro93QIWtHUSQCDh_0m00]--></g></svg>