<?xml version="1.0" encoding="UTF-8" standalone="no"?><svg xmlns="http://www.w3.org/2000/svg" xmlns:xlink="http://www.w3.org/1999/xlink" contentStyleType="text/css" height="807px" preserveAspectRatio="none" style="width:1793px;height:807px;background:#FFFFFF;" version="1.1" viewBox="0 0 1793 807" width="1793px" zoomAndPan="magnify"><defs/><g><text fill="#000000" font-family="sans-serif" font-size="14" font-weight="bold" lengthAdjust="spacing" textLength="150" x="814.5" y="22.9951">Detailed View: PHT</text><!--cluster pht_pkg--><g id="cluster_pht_pkg"><path d="M8.5,43.2969 L35.5,43.2969 A3.75,3.75 0 0 1 38,45.7969 L45,65.5938 L1783.5,65.5938 A2.5,2.5 0 0 1 1786,68.0938 L1786,797.7969 A2.5,2.5 0 0 1 1783.5,800.2969 L8.5,800.2969 A2.5,2.5 0 0 1 6,797.7969 L6,45.7969 A2.5,2.5 0 0 1 8.5,43.2969 " fill="none" style="stroke:#000000;stroke-width:1.5;"/><line style="stroke:#000000;stroke-width:1.5;" x1="6" x2="45" y1="65.5938" y2="65.5938"/><text fill="#000000" font-family="sans-serif" font-size="14" font-weight="bold" lengthAdjust="spacing" textLength="26" x="10" y="58.292">pht</text></g><!--cluster api--><g id="cluster_api"><rect fill="none" height="374" rx="2.5" ry="2.5" style="stroke:#181818;stroke-width:1.0;" width="1680" x="30" y="402.2969"/><text fill="#000000" font-family="sans-serif" font-size="14" font-weight="bold" lengthAdjust="spacing" textLength="23" x="858.5" y="417.292">api</text></g><!--cluster panel_decision--><g id="cluster_panel_decision"><rect fill="none" height="144" rx="2.5" ry="2.5" style="stroke:#181818;stroke-width:1.0;" width="306" x="54" y="526.7969"/><text fill="#000000" font-family="sans-serif" font-size="14" font-weight="bold" lengthAdjust="spacing" textLength="116" x="149" y="541.792">panel_decision</text></g><!--cluster panels_management--><g id="cluster_panels_management"><rect fill="none" height="128" rx="2.5" ry="2.5" style="stroke:#181818;stroke-width:1.0;" width="240" x="1178" y="534.7969"/><text fill="#000000" font-family="sans-serif" font-size="14" font-weight="bold" lengthAdjust="spacing" textLength="161" x="1217.5" y="549.792">panels_management</text></g><!--cluster prsls--><g id="cluster_prsls"><rect fill="none" height="307" rx="2.5" ry="2.5" style="stroke:#181818;stroke-width:1.0;" width="366" x="788" y="445.2969"/><text fill="#000000" font-family="sans-serif" font-size="14" font-weight="bold" lengthAdjust="spacing" textLength="39" x="951.5" y="460.292">prsls</text></g><!--cluster report--><g id="cluster_report"><rect fill="none" height="96" rx="2.5" ry="2.5" style="stroke:#181818;stroke-width:1.0;" width="166" x="598" y="550.7969"/><text fill="#000000" font-family="sans-serif" font-size="14" font-weight="bold" lengthAdjust="spacing" textLength="50" x="656" y="565.792">report</text></g><!--cluster reviewers--><g id="cluster_reviewers"><rect fill="none" height="96" rx="2.5" ry="2.5" style="stroke:#181818;stroke-width:1.0;" width="190" x="384" y="550.7969"/><text fill="#000000" font-family="sans-serif" font-size="14" font-weight="bold" lengthAdjust="spacing" textLength="80" x="439" y="565.792">reviewers</text></g><!--cluster reviews--><g id="cluster_reviews"><rect fill="none" height="144" rx="2.5" ry="2.5" style="stroke:#181818;stroke-width:1.0;" width="244" x="1442" y="526.7969"/><text fill="#000000" font-family="sans-serif" font-size="14" font-weight="bold" lengthAdjust="spacing" textLength="63" x="1532.5" y="541.792">reviews</text></g><!--cluster utils--><g id="cluster_utils"><rect fill="none" height="292" rx="2.5" ry="2.5" style="stroke:#181818;stroke-width:1.0;" width="1732" x="30" y="86.2969"/><text fill="#000000" font-family="sans-serif" font-size="14" font-weight="bold" lengthAdjust="spacing" textLength="33" x="879.5" y="101.292">utils</text></g><!--cluster email_helper--><g id="cluster_email_helper"><rect fill="none" height="112" rx="2.5" ry="2.5" style="stroke:#181818;stroke-width:1.0;" width="194" x="530" y="185.7969"/><text fill="#000000" font-family="sans-serif" font-size="14" font-weight="bold" lengthAdjust="spacing" textLength="99" x="577.5" y="200.792">email_helper</text></g><!--cluster pht_handler--><g id="cluster_pht_handler"><rect fill="none" height="144" rx="2.5" ry="2.5" style="stroke:#181818;stroke-width:1.0;" width="352" x="154" y="169.7969"/><text fill="#000000" font-family="sans-serif" font-size="14" font-weight="bold" lengthAdjust="spacing" textLength="93" x="283.5" y="184.792">pht_handler</text></g><!--cluster ms_graph--><g id="cluster_ms_graph"><rect fill="none" height="112" rx="2.5" ry="2.5" style="stroke:#181818;stroke-width:1.0;" width="194" x="1139" y="185.7969"/><text fill="#000000" font-family="sans-serif" font-size="14" font-weight="bold" lengthAdjust="spacing" textLength="76" x="1198" y="200.792">ms_graph</text></g><!--cluster s3_bucket--><g id="cluster_s3_bucket"><rect fill="none" height="209" rx="2.5" ry="2.5" style="stroke:#181818;stroke-width:1.0;" width="351" x="756" y="137.2969"/><text fill="#000000" font-family="sans-serif" font-size="14" font-weight="bold" lengthAdjust="spacing" textLength="80" x="891.5" y="152.292">s3_bucket</text></g><!--cluster validation--><g id="cluster_validation"><rect fill="none" height="107" rx="2.5" ry="2.5" style="stroke:#181818;stroke-width:1.0;" width="381" x="1357" y="188.2969"/><text fill="#000000" font-family="sans-serif" font-size="14" font-weight="bold" lengthAdjust="spacing" textLength="75" x="1510" y="203.292">validation</text></g><g id="elem_panel_decision_endpoints"><rect fill="#F1F1F1" height="93.4844" style="stroke:#181818;stroke-width:0.5;" width="273" x="70.5" y="561.7969"/><text fill="#000000" font-family="sans-serif" font-size="14" lengthAdjust="spacing" textLength="180" x="117" y="576.792">panel_decision_endpoints</text><line style="stroke:#181818;stroke-width:0.5;" x1="71.5" x2="342.5" y1="582.0938" y2="582.0938"/><ellipse cx="81.5" cy="595.7422" fill="none" rx="3" ry="3" style="stroke:#038048;stroke-width:1.0;"/><text fill="#000000" font-family="sans-serif" font-size="14" lengthAdjust="spacing" textLength="247" x="90.5" y="599.0889">GET /panel-decisions/{decision_id}</text><ellipse cx="81.5" cy="612.0391" fill="none" rx="3" ry="3" style="stroke:#038048;stroke-width:1.0;"/><text fill="#000000" font-family="sans-serif" font-size="14" lengthAdjust="spacing" textLength="244" x="90.5" y="615.3857">GET /panel-decisions/list/{user_id}</text><ellipse cx="81.5" cy="628.3359" fill="none" rx="3" ry="3" style="stroke:#038048;stroke-width:1.0;"/><text fill="#000000" font-family="sans-serif" font-size="14" lengthAdjust="spacing" textLength="161" x="90.5" y="631.6826">POST /panel-decisions/</text><ellipse cx="81.5" cy="644.6328" fill="none" rx="3" ry="3" style="stroke:#038048;stroke-width:1.0;"/><text fill="#000000" font-family="sans-serif" font-size="14" lengthAdjust="spacing" textLength="246" x="90.5" y="647.9795">PUT /panel-decisions/{decision_id}</text></g><g id="elem_panels_endpoints"><rect fill="#F1F1F1" height="77.1875" style="stroke:#181818;stroke-width:0.5;" width="207" x="1194.5" y="569.7969"/><text fill="#000000" font-family="sans-serif" font-size="14" lengthAdjust="spacing" textLength="123" x="1236.5" y="584.792">panels_endpoints</text><line style="stroke:#181818;stroke-width:0.5;" x1="1195.5" x2="1400.5" y1="590.0938" y2="590.0938"/><ellipse cx="1205.5" cy="603.7422" fill="none" rx="3" ry="3" style="stroke:#038048;stroke-width:1.0;"/><text fill="#000000" font-family="sans-serif" font-size="14" lengthAdjust="spacing" textLength="169" x="1214.5" y="607.0889">GET /panels//{panel_id}</text><ellipse cx="1205.5" cy="620.0391" fill="none" rx="3" ry="3" style="stroke:#038048;stroke-width:1.0;"/><text fill="#000000" font-family="sans-serif" font-size="14" lengthAdjust="spacing" textLength="181" x="1214.5" y="623.3857">GET /panels/list/{user_id}</text><ellipse cx="1205.5" cy="636.3359" fill="none" rx="3" ry="3" style="stroke:#038048;stroke-width:1.0;"/><text fill="#000000" font-family="sans-serif" font-size="14" lengthAdjust="spacing" textLength="98" x="1214.5" y="639.6826">POST /panels/</text></g><g id="elem_prsls_endpoints"><rect fill="#F1F1F1" height="256.4531" style="stroke:#181818;stroke-width:0.5;" width="333" x="804.5" y="480.2969"/><text fill="#000000" font-family="sans-serif" font-size="14" lengthAdjust="spacing" textLength="110" x="916" y="495.292">prsls_endpoints</text><line style="stroke:#181818;stroke-width:0.5;" x1="805.5" x2="1136.5" y1="500.5938" y2="500.5938"/><ellipse cx="815.5" cy="514.2422" fill="none" rx="3" ry="3" style="stroke:#038048;stroke-width:1.0;"/><text fill="#000000" font-family="sans-serif" font-size="14" lengthAdjust="spacing" textLength="173" x="824.5" y="517.5889">GET /prsls/{proposal_id}</text><ellipse cx="815.5" cy="530.5391" fill="none" rx="3" ry="3" style="stroke:#038048;stroke-width:1.0;"/><text fill="#000000" font-family="sans-serif" font-size="14" lengthAdjust="spacing" textLength="168" x="824.5" y="533.8857">GET /prsls/list/{user_id}</text><ellipse cx="815.5" cy="546.8359" fill="none" rx="3" ry="3" style="stroke:#038048;stroke-width:1.0;"/><text fill="#000000" font-family="sans-serif" font-size="14" lengthAdjust="spacing" textLength="160" x="824.5" y="550.1826">GET /prsls/osd/{cycle}</text><ellipse cx="815.5" cy="563.1328" fill="none" rx="3" ry="3" style="stroke:#038048;stroke-width:1.0;"/><text fill="#000000" font-family="sans-serif" font-size="14" lengthAdjust="spacing" textLength="195" x="824.5" y="566.4795">GET /prsls/reviews/{prsl_id}</text><ellipse cx="815.5" cy="579.4297" fill="none" rx="3" ry="3" style="stroke:#038048;stroke-width:1.0;"/><text fill="#000000" font-family="sans-serif" font-size="14" lengthAdjust="spacing" textLength="185" x="824.5" y="582.7764">GET /prsls/status/{status}</text><ellipse cx="815.5" cy="595.7266" fill="none" rx="3" ry="3" style="stroke:#038048;stroke-width:1.0;"/><text fill="#000000" font-family="sans-serif" font-size="14" lengthAdjust="spacing" textLength="124" x="824.5" y="599.0732">POST /prsls/batch</text><ellipse cx="815.5" cy="612.0234" fill="none" rx="3" ry="3" style="stroke:#038048;stroke-width:1.0;"/><text fill="#000000" font-family="sans-serif" font-size="14" lengthAdjust="spacing" textLength="129" x="824.5" y="615.3701">POST /prsls/create</text><ellipse cx="815.5" cy="628.3203" fill="none" rx="3" ry="3" style="stroke:#038048;stroke-width:1.0;"/><text fill="#000000" font-family="sans-serif" font-size="14" lengthAdjust="spacing" textLength="166" x="824.5" y="631.667">POST /prsls/send-email/</text><ellipse cx="815.5" cy="644.6172" fill="none" rx="3" ry="3" style="stroke:#038048;stroke-width:1.0;"/><text fill="#000000" font-family="sans-serif" font-size="14" lengthAdjust="spacing" textLength="284" x="824.5" y="647.9639">POST /prsls/signed-url/delete/{filename}</text><ellipse cx="815.5" cy="660.9141" fill="none" rx="3" ry="3" style="stroke:#038048;stroke-width:1.0;"/><text fill="#000000" font-family="sans-serif" font-size="14" lengthAdjust="spacing" textLength="307" x="824.5" y="664.2607">POST /prsls/signed-url/download/{filename}</text><ellipse cx="815.5" cy="677.2109" fill="none" rx="3" ry="3" style="stroke:#038048;stroke-width:1.0;"/><text fill="#000000" font-family="sans-serif" font-size="14" lengthAdjust="spacing" textLength="287" x="824.5" y="680.5576">POST /prsls/signed-url/upload/{filename}</text><ellipse cx="815.5" cy="693.5078" fill="none" rx="3" ry="3" style="stroke:#038048;stroke-width:1.0;"/><text fill="#000000" font-family="sans-serif" font-size="14" lengthAdjust="spacing" textLength="137" x="824.5" y="696.8545">POST /prsls/validate</text><ellipse cx="815.5" cy="709.8047" fill="none" rx="3" ry="3" style="stroke:#038048;stroke-width:1.0;"/><text fill="#000000" font-family="sans-serif" font-size="14" lengthAdjust="spacing" textLength="172" x="824.5" y="713.1514">PUT /prsls/{proposal_id}</text><ellipse cx="815.5" cy="726.1016" fill="none" rx="3" ry="3" style="stroke:#038048;stroke-width:1.0;"/><text fill="#000000" font-family="sans-serif" font-size="14" lengthAdjust="spacing" textLength="193" x="824.5" y="729.4482">GET /prsls/member/{email}</text></g><g id="elem_report_endpoints"><rect fill="#F1F1F1" height="44.5938" style="stroke:#181818;stroke-width:0.5;" width="133" x="614.5" y="585.7969"/><text fill="#000000" font-family="sans-serif" font-size="14" lengthAdjust="spacing" textLength="119" x="621.5" y="600.792">report_endpoints</text><line style="stroke:#181818;stroke-width:0.5;" x1="615.5" x2="746.5" y1="606.0938" y2="606.0938"/><ellipse cx="625.5" cy="619.7422" fill="none" rx="3" ry="3" style="stroke:#038048;stroke-width:1.0;"/><text fill="#000000" font-family="sans-serif" font-size="14" lengthAdjust="spacing" textLength="85" x="634.5" y="623.0889">GET /report/</text></g><g id="elem_reviewers_endpoints"><rect fill="#F1F1F1" height="44.5938" style="stroke:#181818;stroke-width:0.5;" width="157" x="400.5" y="585.7969"/><text fill="#000000" font-family="sans-serif" font-size="14" lengthAdjust="spacing" textLength="143" x="407.5" y="600.792">reviewers_endpoints</text><line style="stroke:#181818;stroke-width:0.5;" x1="401.5" x2="556.5" y1="606.0938" y2="606.0938"/><ellipse cx="411.5" cy="619.7422" fill="none" rx="3" ry="3" style="stroke:#038048;stroke-width:1.0;"/><text fill="#000000" font-family="sans-serif" font-size="14" lengthAdjust="spacing" textLength="104" x="420.5" y="623.0889">GET /reviewers</text></g><g id="elem_reviews_endpoints"><rect fill="#F1F1F1" height="93.4844" style="stroke:#181818;stroke-width:0.5;" width="213" x="1457.5" y="561.7969"/><text fill="#000000" font-family="sans-serif" font-size="14" lengthAdjust="spacing" textLength="129" x="1499.5" y="576.792">reviews_endpoints</text><line style="stroke:#181818;stroke-width:0.5;" x1="1458.5" x2="1669.5" y1="582.0938" y2="582.0938"/><ellipse cx="1468.5" cy="595.7422" fill="none" rx="3" ry="3" style="stroke:#038048;stroke-width:1.0;"/><text fill="#000000" font-family="sans-serif" font-size="14" lengthAdjust="spacing" textLength="176" x="1477.5" y="599.0889">GET /reviews/{review_id}</text><ellipse cx="1468.5" cy="612.0391" fill="none" rx="3" ry="3" style="stroke:#038048;stroke-width:1.0;"/><text fill="#000000" font-family="sans-serif" font-size="14" lengthAdjust="spacing" textLength="187" x="1477.5" y="615.3857">GET /reviews/list/{user_id}</text><ellipse cx="1468.5" cy="628.3359" fill="none" rx="3" ry="3" style="stroke:#038048;stroke-width:1.0;"/><text fill="#000000" font-family="sans-serif" font-size="14" lengthAdjust="spacing" textLength="99" x="1477.5" y="631.6826">POST /reviews</text><ellipse cx="1468.5" cy="644.6328" fill="none" rx="3" ry="3" style="stroke:#038048;stroke-width:1.0;"/><text fill="#000000" font-family="sans-serif" font-size="14" lengthAdjust="spacing" textLength="175" x="1477.5" y="647.9795">PUT /reviews/{review_id}</text></g><g id="elem_email_helper_items"><rect fill="#F1F1F1" height="60.8906" style="stroke:#181818;stroke-width:0.5;" width="161" x="546.5" y="220.7969"/><text fill="#000000" font-family="sans-serif" font-size="14" lengthAdjust="spacing" textLength="132" x="561" y="235.792">email_helper_items</text><line style="stroke:#181818;stroke-width:0.5;" x1="547.5" x2="706.5" y1="241.0938" y2="241.0938"/><ellipse cx="557.5" cy="254.7422" fill="#84BE84" rx="3" ry="3" style="stroke:#038048;stroke-width:1.0;"/><text fill="#000000" font-family="sans-serif" font-size="14" lengthAdjust="spacing" textLength="99" x="566.5" y="258.0889">render_email()</text><ellipse cx="557.5" cy="271.0391" fill="#84BE84" rx="3" ry="3" style="stroke:#038048;stroke-width:1.0;"/><text fill="#000000" font-family="sans-serif" font-size="14" lengthAdjust="spacing" textLength="135" x="566.5" y="274.3857">send_email_async()</text></g><g id="elem_pht_handler_items"><rect fill="#F1F1F1" height="93.4844" style="stroke:#181818;stroke-width:0.5;" width="320" x="170" y="204.7969"/><text fill="#000000" font-family="sans-serif" font-size="14" lengthAdjust="spacing" textLength="127" x="266.5" y="219.792">pht_handler_items</text><line style="stroke:#181818;stroke-width:0.5;" x1="171" x2="489" y1="225.0938" y2="225.0938"/><ellipse cx="181" cy="238.7422" fill="#84BE84" rx="3" ry="3" style="stroke:#038048;stroke-width:1.0;"/><text fill="#000000" font-family="sans-serif" font-size="14" lengthAdjust="spacing" textLength="122" x="190" y="242.0889">_get_array_class()</text><ellipse cx="181" cy="255.0391" fill="#84BE84" rx="3" ry="3" style="stroke:#038048;stroke-width:1.0;"/><text fill="#000000" font-family="sans-serif" font-size="14" lengthAdjust="spacing" textLength="165" x="190" y="258.3857">get_latest_entity_by_id()</text><ellipse cx="181" cy="271.3359" fill="#84BE84" rx="3" ry="3" style="stroke:#038048;stroke-width:1.0;"/><text fill="#000000" font-family="sans-serif" font-size="14" lengthAdjust="spacing" textLength="294" x="190" y="274.6826">join_proposals_panels_reviews_decisions()</text><ellipse cx="181" cy="287.6328" fill="#84BE84" rx="3" ry="3" style="stroke:#038048;stroke-width:1.0;"/><text fill="#000000" font-family="sans-serif" font-size="14" lengthAdjust="spacing" textLength="199" x="190" y="290.9795">transform_update_proposal()</text></g><g id="elem_ms_graph_items"><rect fill="#F1F1F1" height="60.8906" style="stroke:#181818;stroke-width:0.5;" width="162" x="1155" y="220.7969"/><text fill="#000000" font-family="sans-serif" font-size="14" lengthAdjust="spacing" textLength="113" x="1179.5" y="235.792">ms_graph_items</text><line style="stroke:#181818;stroke-width:0.5;" x1="1156" x2="1316" y1="241.0938" y2="241.0938"/><ellipse cx="1166" cy="254.7422" fill="#84BE84" rx="3" ry="3" style="stroke:#038048;stroke-width:1.0;"/><text fill="#000000" font-family="sans-serif" font-size="14" lengthAdjust="spacing" textLength="124" x="1175" y="258.0889">make_graph_call()</text><ellipse cx="1166" cy="271.0391" fill="#84BE84" rx="3" ry="3" style="stroke:#038048;stroke-width:1.0;"/><text fill="#000000" font-family="sans-serif" font-size="14" lengthAdjust="spacing" textLength="136" x="1175" y="274.3857">get_users_by_mail()</text></g><g id="elem_s3_bucket_items"><rect fill="#F1F1F1" height="142.375" style="stroke:#181818;stroke-width:0.5;" width="284" x="799" y="180.2969"/><text fill="#000000" font-family="sans-serif" font-size="14" lengthAdjust="spacing" textLength="117" x="882.5" y="195.292">s3_bucket_items</text><line style="stroke:#181818;stroke-width:0.5;" x1="800" x2="1082" y1="200.5938" y2="200.5938"/><ellipse cx="810" cy="214.2422" fill="#84BE84" rx="3" ry="3" style="stroke:#038048;stroke-width:1.0;"/><text fill="#000000" font-family="sans-serif" font-size="14" lengthAdjust="spacing" textLength="235" x="819" y="217.5889">create_presigned_url_delete_pdf()</text><ellipse cx="810" cy="230.5391" fill="#84BE84" rx="3" ry="3" style="stroke:#038048;stroke-width:1.0;"/><text fill="#000000" font-family="sans-serif" font-size="14" lengthAdjust="spacing" textLength="258" x="819" y="233.8857">create_presigned_url_download_pdf()</text><ellipse cx="810" cy="246.8359" fill="#84BE84" rx="3" ry="3" style="stroke:#038048;stroke-width:1.0;"/><text fill="#000000" font-family="sans-serif" font-size="14" lengthAdjust="spacing" textLength="238" x="819" y="250.1826">create_presigned_url_upload_pdf()</text><ellipse cx="810" cy="263.1328" fill="#84BE84" rx="3" ry="3" style="stroke:#038048;stroke-width:1.0;"/><text fill="#000000" font-family="sans-serif" font-size="14" lengthAdjust="spacing" textLength="111" x="819" y="266.4795">get_aws_client()</text><ellipse cx="810" cy="279.4297" fill="#84BE84" rx="3" ry="3" style="stroke:#038048;stroke-width:1.0;"/><text fill="#000000" font-family="sans-serif" font-size="14" lengthAdjust="spacing" textLength="174" x="819" y="282.7764">generate_presigned_url()</text><ellipse cx="810" cy="295.7266" fill="none" rx="3" ry="3" style="stroke:#038048;stroke-width:1.0;"/><text fill="#000000" font-family="sans-serif" font-size="14" lengthAdjust="spacing" textLength="62" x="819" y="299.0732">S3Config</text><ellipse cx="810" cy="312.0234" fill="#84BE84" rx="3" ry="3" style="stroke:#038048;stroke-width:1.0;"/><text fill="#000000" font-family="sans-serif" font-size="14" lengthAdjust="spacing" textLength="125" x="819" y="315.3701">S3Method (Enum)</text></g><!--class validate_duplicates--><g id="elem_validate_duplicates"><rect codeLine="100" fill="#F1F1F1" height="56.2656" id="validate_duplicates" rx="2.5" ry="2.5" style="stroke:#181818;stroke-width:0.5;" width="162" x="1560" y="223.2969"/><ellipse cx="1575" cy="243.4297" fill="#ADD1B2" rx="11" ry="11" style="stroke:#181818;stroke-width:1.0;"/><path d="M1577.9688,249.0703 Q1577.3906,249.3672 1576.75,249.5078 Q1576.1094,249.6641 1575.4063,249.6641 Q1572.9063,249.6641 1571.5781,248.0234 Q1570.2656,246.3672 1570.2656,243.2422 Q1570.2656,240.1172 1571.5781,238.4609 Q1572.9063,236.8047 1575.4063,236.8047 Q1576.1094,236.8047 1576.75,236.9609 Q1577.4063,237.1172 1577.9688,237.4141 L1577.9688,240.1328 Q1577.3438,239.5547 1576.75,239.2891 Q1576.1563,239.0078 1575.5313,239.0078 Q1574.1875,239.0078 1573.5,240.0859 Q1572.8125,241.1484 1572.8125,243.2422 Q1572.8125,245.3359 1573.5,246.4141 Q1574.1875,247.4766 1575.5313,247.4766 Q1576.1563,247.4766 1576.75,247.2109 Q1577.3438,246.9297 1577.9688,246.3516 L1577.9688,249.0703 Z " fill="#000000"/><text fill="#000000" font-family="sans-serif" font-size="12" font-style="italic" lengthAdjust="spacing" textLength="65" x="1621.5" y="239.4355">«function»</text><text fill="#000000" font-family="sans-serif" font-size="14" lengthAdjust="spacing" textLength="130" x="1589" y="255.2607">validate_duplicates</text><line style="stroke:#181818;stroke-width:0.5;" x1="1561" x2="1721" y1="263.5625" y2="263.5625"/><line style="stroke:#181818;stroke-width:0.5;" x1="1561" x2="1721" y1="271.5625" y2="271.5625"/></g><!--class validate_proposal--><g id="elem_validate_proposal"><rect codeLine="101" fill="#F1F1F1" height="56.2656" id="validate_proposal" rx="2.5" ry="2.5" style="stroke:#181818;stroke-width:0.5;" width="151" x="1373.5" y="223.2969"/><ellipse cx="1388.5" cy="243.4297" fill="#ADD1B2" rx="11" ry="11" style="stroke:#181818;stroke-width:1.0;"/><path d="M1391.4688,249.0703 Q1390.8906,249.3672 1390.25,249.5078 Q1389.6094,249.6641 1388.9063,249.6641 Q1386.4063,249.6641 1385.0781,248.0234 Q1383.7656,246.3672 1383.7656,243.2422 Q1383.7656,240.1172 1385.0781,238.4609 Q1386.4063,236.8047 1388.9063,236.8047 Q1389.6094,236.8047 1390.25,236.9609 Q1390.9063,237.1172 1391.4688,237.4141 L1391.4688,240.1328 Q1390.8438,239.5547 1390.25,239.2891 Q1389.6563,239.0078 1389.0313,239.0078 Q1387.6875,239.0078 1387,240.0859 Q1386.3125,241.1484 1386.3125,243.2422 Q1386.3125,245.3359 1387,246.4141 Q1387.6875,247.4766 1389.0313,247.4766 Q1389.6563,247.4766 1390.25,247.2109 Q1390.8438,246.9297 1391.4688,246.3516 L1391.4688,249.0703 Z " fill="#000000"/><text fill="#000000" font-family="sans-serif" font-size="12" font-style="italic" lengthAdjust="spacing" textLength="65" x="1429.5" y="239.4355">«function»</text><text fill="#000000" font-family="sans-serif" font-size="14" lengthAdjust="spacing" textLength="119" x="1402.5" y="255.2607">validate_proposal</text><line style="stroke:#181818;stroke-width:0.5;" x1="1374.5" x2="1523.5" y1="263.5625" y2="263.5625"/><line style="stroke:#181818;stroke-width:0.5;" x1="1374.5" x2="1523.5" y1="271.5625" y2="271.5625"/></g><!--entity constants--><g id="elem_constants"><rect fill="#F1F1F1" height="36.2969" rx="2.5" ry="2.5" style="stroke:#181818;stroke-width:0.5;" width="89" x="45.5" y="233.2969"/><text fill="#000000" font-family="sans-serif" font-size="14" lengthAdjust="spacing" textLength="69" x="55.5" y="256.292">constants</text></g><!--link validate_proposal to prsls_endpoints--><g id="link_validate_proposal_prsls_endpoints"><path codeLine="109" d="M1434.6,279.4469 C1415.94,311.4769 1380.14,363.2669 1333,386.2969 C1302.01,401.4369 1209.41,380.0569 1178,394.2969 C1136.93,412.9169 1099.77,443.6669 1068.63,476.0869 " fill="none" id="validate_proposal-to-prsls_endpoints" style="stroke:#181818;stroke-width:1.0;"/><polygon fill="#181818" points="1064.86,480.0469,1073.9642,476.29,1068.309,476.4269,1068.1722,470.7717,1064.86,480.0469" style="stroke:#181818;stroke-width:1.0;"/></g><!--link s3_bucket to prsls_endpoints--><g id="link_s3_bucket_prsls_endpoints"><path codeLine="110" d="M770.4674,346.4191 C770.5165,346.652 770.5659,346.8848 770.6156,347.1176 C770.7151,347.5832 770.8159,348.0487 770.918,348.5142 C771.3264,350.3758 771.7562,352.2356 772.2085,354.0905 C773.1131,357.8002 774.1074,361.4903 775.1999,365.1366 C777.3848,372.4292 779.9625,379.5469 783,386.2969 C797.19,417.8169 817.28,448.3269 839.09,476.0869 " fill="none" id="s3_bucket-to-prsls_endpoints" style="stroke:#181818;stroke-width:1.0;"/><polygon fill="#181818" points="842.32,480.1669,839.8467,470.6336,839.207,476.2542,833.5864,475.6144,842.32,480.1669" style="stroke:#181818;stroke-width:1.0;"/></g><!--link prsls_endpoints to email_helper_items--><g id="link_prsls_endpoints_email_helper_items"><path codeLine="111" d="M861.13,480.1869 C831.42,449.9069 798.02,419.1869 764,394.2969 C757.58,389.6069 754.33,391.1069 748,386.2969 C709.95,357.3669 674.29,315.3569 651.68,286.1069 " fill="none" id="prsls_endpoints-to-email_helper_items" style="stroke:#181818;stroke-width:1.0;"/><polygon fill="#181818" points="648.44,281.8869,650.7602,291.4585,651.4899,285.8489,657.0995,286.5786,648.44,281.8869" style="stroke:#181818;stroke-width:1.0;"/></g><!--link validate_duplicates to panels_endpoints--><g id="link_validate_duplicates_panels_endpoints"><path codeLine="112" d="M1629.54,279.4169 C1614.54,311.1569 1584.98,362.4169 1542,386.2969 C1503.03,407.9569 1480.51,371.8269 1442,394.2969 C1376.26,432.6469 1334.21,514.3969 1313.46,564.7269 " fill="none" id="validate_duplicates-to-panels_endpoints" style="stroke:#181818;stroke-width:1.0;"/><polygon fill="#181818" points="1311.52,569.4969,1318.62,562.6712,1313.4065,564.8664,1311.2113,559.6529,1311.52,569.4969" style="stroke:#181818;stroke-width:1.0;"/></g><!--link pht_handler_items to prsls_endpoints--><g id="link_pht_handler_items_prsls_endpoints"><path codeLine="113" d="M380.46,297.8369 C418.55,329.1069 473.72,368.1269 530,386.2969 C554.76,394.2869 740.21,383.7669 764,394.2969 C805.46,412.6569 842.85,443.5269 874.09,476.1569 " fill="none" id="pht_handler_items-to-prsls_endpoints" style="stroke:#181818;stroke-width:1.0;"/><polygon fill="#181818" points="877.87,480.1469,874.5963,470.858,874.436,476.5126,868.7815,476.3524,877.87,480.1469" style="stroke:#181818;stroke-width:1.0;"/></g><!--link pht_handler_items to report_endpoints--><g id="link_pht_handler_items_report_endpoints"><path codeLine="114" d="M384.65,297.9769 C423,327.6569 476.74,364.7069 530,386.2969 C548.42,393.7669 558.09,382.3869 574,394.2969 C636.52,441.0969 665.01,534.6569 675.67,580.5969 " fill="none" id="pht_handler_items-to-report_endpoints" style="stroke:#181818;stroke-width:1.0;"/><polygon fill="#181818" points="676.82,585.6869,678.7455,576.0281,675.7218,580.809,670.9409,577.7853,676.82,585.6869" style="stroke:#181818;stroke-width:1.0;"/></g><!--link constants to reviewers_endpoints--><g id="link_constants_reviewers_endpoints"><path codeLine="115" d="M92.49,269.5269 C97.81,299.2369 113.3,359.5069 154,386.2969 C173.13,398.8869 340.47,382.3269 360,394.2969 C428.64,436.3869 460.95,533.3969 473.04,580.5669 " fill="none" id="constants-to-reviewers_endpoints" style="stroke:#181818;stroke-width:1.0;"/><polygon fill="#181818" points="474.29,585.5169,475.9877,575.8154,473.0773,580.6662,468.2266,577.7557,474.29,585.5169" style="stroke:#181818;stroke-width:1.0;"/></g><!--link ms_graph_items to prsls_endpoints--><g id="link_ms_graph_items_prsls_endpoints"><path codeLine="116" d="M1213.86,281.9569 C1182.15,324.4369 1121.81,405.2669 1069.21,475.7269 " fill="none" id="ms_graph_items-to-prsls_endpoints" style="stroke:#181818;stroke-width:1.0;"/><polygon fill="#181818" points="1066.08,479.9269,1074.68,475.1269,1069.08,475.9269,1068.28,470.3269,1066.08,479.9269" style="stroke:#181818;stroke-width:1.0;"/></g><!--SRC=[dPSzRzim48Pt_GeYIrEqWePiHU6b3TgbQ92FhWGjdMt654cGL0B3o7_lYVg8BLCI5IsshEUbZY-FTxHJcZX5rievLPA26yWTLp9977S2o4zmZ0ieo3yEhz_8tU_79D4itxCja2kzSrU4MOAVLE-tv9Wa1A_-ETFyYdp_Vez3ChaLi5fro1cccGH12yYvnJTVAiZ9fTRF-8oSIoZ8GYikdJs7w-iB-NNxI38lI3k1pOwzbXTliIB1hSkEbGKpehhx-n2GXS2dHJ6ztxr_6_7Hqf99l2r1kdWhxRk5PDf3csN7nlqvuvRvDR0fSiR62XitovgCoPEQmnaQfPLbqvFqwEmSJrXbY-oO7t81Cw215znkFWuR4ODrp5L8DvyJHdjwpLo-cs5o0yp136JHpXHAh0_P7Cct4egqCY8hG823xBZ1gY9P2MyBfEfL2iMA3uahlKpwmWGlHZnu-aYYb52kmMH7RzZuzhvCSWDQcRYztA0HQTw0sQ8ewfG4OoC3QUceM5hs0mMWtIWBOegF25Ut-JArjXqQMUfQV2ofvbuyDELjq70hnwVgOS_v7AGx41fCb7Ud0ieTbE4sOT1R13nz_Ja0r2MZUKoPFSXy08KM_VIqGNTC5Y8ovXD-8cIw1KUPCUn0Sy6i3OPTCmABWQtt5XwC3dHzmCK9ii-OMxGh2vQsxRLBlhxR1xNEC6atofIqqdNnwSTPubDfwTOmlOiogOCd72hP7beePqAC6bGdlwsD2Qp-PC3sXgwhV0znDQwd9q9ksXUw1qq7eDW1QDDvg2usmIc4DMtBMQPgUisencSSva8kE6RJ22B1N0mSH1zkVYYvuTlWep_WTgeWrxUoAXUiIDlyPa_ZViUGhbNI0YVEytgVe6fJIVzFOhMQadG97XPCbVuSDn66vIRgNLSa-m4-aJHDoJq8FpUxuzf-nQBbAYE9EsYCMqbng26FNqQPfglXKTAJVLAE4eFVF7TPLSzVU-Ad7tPmKc_6lQXoWGZ813eyCtYqDxT5BhgvfmR5O_J5IVBs7m00]--></g></svg>