<svg xmlns="http://www.w3.org/2000/svg" xmlns:xlink="http://www.w3.org/1999/xlink" contentStyleType="text/css" data-diagram-type="CLASS" height="698px" preserveAspectRatio="none" style="width:1833px;height:698px;background:#FFFFFF;" version="1.1" viewBox="0 0 1833 698" width="1833px" zoomAndPan="magnify"><defs/><g><!--cluster pht_pkg--><g class="cluster" data-entity="pht_pkg" data-source-line="3" data-uid="ent0002" id="cluster_pht_pkg"><path d="M8.5,6 L36.1807,6 A3.75,3.75 0 0 1 38.6807,8.5 L45.6807,28.2969 L1823.5,28.2969 A2.5,2.5 0 0 1 1826,30.7969 L1826,689.14 A2.5,2.5 0 0 1 1823.5,691.64 L8.5,691.64 A2.5,2.5 0 0 1 6,689.14 L6,8.5 A2.5,2.5 0 0 1 8.5,6" fill="none" style="stroke:#000000;stroke-width:1.5;"/><line style="stroke:#000000;stroke-width:1.5;" x1="6" x2="45.6807" y1="28.2969" y2="28.2969"/><text fill="#000000" font-family="sans-serif" font-size="14" font-weight="bold" lengthAdjust="spacing" textLength="26.6807" x="10" y="20.9951">pht</text></g><!--cluster api--><g class="cluster" data-entity="api" data-source-line="5" data-uid="ent0003" id="cluster_api"><rect fill="none" height="309.26" rx="2.5" ry="2.5" style="stroke:#181818;stroke-width:1;" width="1772" x="30" y="49"/><text fill="#000000" font-family="sans-serif" font-size="14" font-weight="bold" lengthAdjust="spacing" textLength="24.2676" x="903.8662" y="63.9951">api</text></g><!--cluster panel_decision--><g class="cluster" data-entity="panel_decision" data-source-line="7" data-uid="ent0004" id="cluster_panel_decision"><rect fill="none" height="144.48" rx="2.5" ry="2.5" style="stroke:#181818;stroke-width:1;" width="304" x="54" y="140.89"/><text fill="#000000" font-family="sans-serif" font-size="14" font-weight="bold" lengthAdjust="spacing" textLength="116.0605" x="147.9697" y="155.8851">panel_decision</text></g><!--cluster panels--><g class="cluster" data-entity="panels" data-source-line="16" data-uid="ent0006" id="cluster_panels"><rect fill="none" height="144.48" rx="2.5" ry="2.5" style="stroke:#181818;stroke-width:1;" width="282" x="382" y="140.89"/><text fill="#000000" font-family="sans-serif" font-size="14" font-weight="bold" lengthAdjust="spacing" textLength="52.0625" x="496.9688" y="155.8851">panels</text></g><!--cluster prsls--><g class="cluster" data-entity="prsls" data-source-line="25" data-uid="ent0008" id="cluster_prsls"><rect fill="none" height="242.26" rx="2.5" ry="2.5" style="stroke:#181818;stroke-width:1;" width="368" x="688" y="92"/><text fill="#000000" font-family="sans-serif" font-size="14" font-weight="bold" lengthAdjust="spacing" textLength="38.3906" x="852.8047" y="106.9951">prsls</text></g><!--cluster report--><g class="cluster" data-entity="report" data-source-line="40" data-uid="ent0010" id="cluster_report"><rect fill="none" height="95.59" rx="2.5" ry="2.5" style="stroke:#181818;stroke-width:1;" width="212" x="1080" y="165.34"/><text fill="#000000" font-family="sans-serif" font-size="14" font-weight="bold" lengthAdjust="spacing" textLength="49.6357" x="1161.1821" y="180.3351">report</text></g><!--cluster reviewers--><g class="cluster" data-entity="reviewers" data-source-line="46" data-uid="ent0012" id="cluster_reviewers"><rect fill="none" height="95.59" rx="2.5" ry="2.5" style="stroke:#181818;stroke-width:1;" width="190" x="1316" y="165.34"/><text fill="#000000" font-family="sans-serif" font-size="14" font-weight="bold" lengthAdjust="spacing" textLength="77.4854" x="1372.2573" y="180.3351">reviewers</text></g><!--cluster reviews--><g class="cluster" data-entity="reviews" data-source-line="52" data-uid="ent0014" id="cluster_reviews"><rect fill="none" height="144.48" rx="2.5" ry="2.5" style="stroke:#181818;stroke-width:1;" width="248" x="1530" y="140.89"/><text fill="#000000" font-family="sans-serif" font-size="14" font-weight="bold" lengthAdjust="spacing" textLength="61.0859" x="1623.457" y="155.8851">reviews</text></g><!--cluster utils--><g class="cluster" data-entity="utils" data-source-line="62" data-uid="ent0016" id="cluster_utils"><rect fill="none" height="260.38" rx="2.5" ry="2.5" style="stroke:#181818;stroke-width:1;" width="1492" x="54" y="407.26"/><text fill="#000000" font-family="sans-serif" font-size="14" font-weight="bold" lengthAdjust="spacing" textLength="34.5898" x="782.7051" y="422.2551">utils</text></g><!--cluster email_helper--><g class="cluster" data-entity="email_helper" data-source-line="63" data-uid="ent0017" id="cluster_email_helper"><rect fill="none" height="111.89" rx="2.5" ry="2.5" style="stroke:#181818;stroke-width:1;" width="196" x="78" y="491.01"/><text fill="#000000" font-family="sans-serif" font-size="14" font-weight="bold" lengthAdjust="spacing" textLength="100.8096" x="125.5952" y="506.0051">email_helper</text></g><!--cluster pht_handler--><g class="cluster" data-entity="pht_handler" data-source-line="69" data-uid="ent0019" id="cluster_pht_handler"><rect fill="none" height="144.48" rx="2.5" ry="2.5" style="stroke:#181818;stroke-width:1;" width="354" x="1056" y="474.71"/><text fill="#000000" font-family="sans-serif" font-size="14" font-weight="bold" lengthAdjust="spacing" textLength="94.2813" x="1185.8594" y="489.7051">pht_handler</text></g><!--cluster s3_bucket--><g class="cluster" data-entity="s3_bucket" data-source-line="77" data-uid="ent0021" id="cluster_s3_bucket"><rect fill="none" height="193.38" rx="2.5" ry="2.5" style="stroke:#181818;stroke-width:1;" width="320" x="712" y="450.26"/><text fill="#000000" font-family="sans-serif" font-size="14" font-weight="bold" lengthAdjust="spacing" textLength="78.8594" x="832.5703" y="465.2551">s3_bucket</text></g><!--cluster validation--><g class="cluster" data-entity="validation" data-source-line="88" data-uid="ent0023" id="cluster_validation"><rect fill="none" height="107.27" rx="2.5" ry="2.5" style="stroke:#181818;stroke-width:1;" width="390" x="298" y="493.32"/><text fill="#000000" font-family="sans-serif" font-size="14" font-weight="bold" lengthAdjust="spacing" textLength="78.7158" x="453.6421" y="508.3151">validation</text></g><g class="entity" data-entity="panel_decision_endpoints" data-source-line="8" data-uid="ent0005" id="entity_panel_decision_endpoints"><rect fill="#F1F1F1" height="93.4844" rx="2.5" ry="2.5" style="stroke:#181818;stroke-width:0.5;" width="272.3262" x="69.84" y="175.89"/><text fill="#000000" font-family="sans-serif" font-size="14" lengthAdjust="spacing" textLength="179.9219" x="116.0421" y="190.8851">panel_decision_endpoints</text><line style="stroke:#181818;stroke-width:0.5;" x1="70.84" x2="341.1662" y1="196.1869" y2="196.1869"/><ellipse cx="80.84" cy="209.8353" fill="none" rx="3" ry="3" style="stroke:#038048;stroke-width:1;"/><text fill="#000000" font-family="sans-serif" font-size="14" lengthAdjust="spacing" textLength="154.9639" x="89.84" y="213.182">POST /panel-decisions</text><ellipse cx="80.84" cy="226.1322" fill="none" rx="3" ry="3" style="stroke:#038048;stroke-width:1;"/><text fill="#000000" font-family="sans-serif" font-size="14" lengthAdjust="spacing" textLength="246.3262" x="89.84" y="229.4789">GET /panel-decisions/{decision_id}</text><ellipse cx="80.84" cy="242.4291" fill="none" rx="3" ry="3" style="stroke:#038048;stroke-width:1;"/><text fill="#000000" font-family="sans-serif" font-size="14" lengthAdjust="spacing" textLength="244.4326" x="89.84" y="245.7757">GET /panel-decisions/list/{user_id}</text><ellipse cx="80.84" cy="258.7259" fill="none" rx="3" ry="3" style="stroke:#038048;stroke-width:1;"/><text fill="#000000" font-family="sans-serif" font-size="14" lengthAdjust="spacing" textLength="245.3213" x="89.84" y="262.0726">PUT /panel-decisions/{decision_id}</text></g><g class="entity" data-entity="panels_endpoints" data-source-line="17" data-uid="ent0007" id="entity_panels_endpoints"><rect fill="#F1F1F1" height="93.4844" rx="2.5" ry="2.5" style="stroke:#181818;stroke-width:0.5;" width="249.3164" x="398.34" y="175.89"/><text fill="#000000" font-family="sans-serif" font-size="14" lengthAdjust="spacing" textLength="122.5068" x="461.7448" y="190.8851">panels_endpoints</text><line style="stroke:#181818;stroke-width:0.5;" x1="399.34" x2="646.6564" y1="196.1869" y2="196.1869"/><ellipse cx="409.34" cy="209.8353" fill="none" rx="3" ry="3" style="stroke:#038048;stroke-width:1;"/><text fill="#000000" font-family="sans-serif" font-size="14" lengthAdjust="spacing" textLength="92.2031" x="418.34" y="213.182">POST /panels</text><ellipse cx="409.34" cy="226.1322" fill="none" rx="3" ry="3" style="stroke:#038048;stroke-width:1;"/><text fill="#000000" font-family="sans-serif" font-size="14" lengthAdjust="spacing" textLength="169.415" x="418.34" y="229.4789">GET /panels//{panel_id}</text><ellipse cx="409.34" cy="242.4291" fill="none" rx="3" ry="3" style="stroke:#038048;stroke-width:1;"/><text fill="#000000" font-family="sans-serif" font-size="14" lengthAdjust="spacing" textLength="223.3164" x="418.34" y="245.7757">GET /panels/reviews/{panel_id}</text><ellipse cx="409.34" cy="258.7259" fill="none" rx="3" ry="3" style="stroke:#038048;stroke-width:1;"/><text fill="#000000" font-family="sans-serif" font-size="14" lengthAdjust="spacing" textLength="181.6719" x="418.34" y="262.0726">GET /panels/list/{user_id}</text></g><g class="entity" data-entity="prsls_endpoints" data-source-line="26" data-uid="ent0009" id="entity_prsls_endpoints"><rect fill="#F1F1F1" height="191.2656" rx="2.5" ry="2.5" style="stroke:#181818;stroke-width:0.5;" width="335.8867" x="704.06" y="127"/><text fill="#000000" font-family="sans-serif" font-size="14" lengthAdjust="spacing" textLength="109.4912" x="817.2578" y="141.9951">prsls_endpoints</text><line style="stroke:#181818;stroke-width:0.5;" x1="705.06" x2="1038.9467" y1="147.2969" y2="147.2969"/><ellipse cx="715.06" cy="160.9453" fill="none" rx="3" ry="3" style="stroke:#038048;stroke-width:1;"/><text fill="#000000" font-family="sans-serif" font-size="14" lengthAdjust="spacing" textLength="158.71" x="724.06" y="164.292">GET /prsls/osd/{cycle}</text><ellipse cx="715.06" cy="177.2422" fill="none" rx="3" ry="3" style="stroke:#038048;stroke-width:1;"/><text fill="#000000" font-family="sans-serif" font-size="14" lengthAdjust="spacing" textLength="128.6523" x="724.06" y="180.5889">POST /prsls/create</text><ellipse cx="715.06" cy="193.5391" fill="none" rx="3" ry="3" style="stroke:#038048;stroke-width:1;"/><text fill="#000000" font-family="sans-serif" font-size="14" lengthAdjust="spacing" textLength="173.2637" x="724.06" y="196.8857">GET /prsls/{proposal_id}</text><ellipse cx="715.06" cy="209.8359" fill="none" rx="3" ry="3" style="stroke:#038048;stroke-width:1;"/><text fill="#000000" font-family="sans-serif" font-size="14" lengthAdjust="spacing" textLength="168.6563" x="724.06" y="213.1826">GET /prsls/list/{user_id}</text><ellipse cx="715.06" cy="226.1328" fill="none" rx="3" ry="3" style="stroke:#038048;stroke-width:1;"/><text fill="#000000" font-family="sans-serif" font-size="14" lengthAdjust="spacing" textLength="172.2588" x="724.06" y="229.4795">PUT /prsls/{proposal_id}</text><ellipse cx="715.06" cy="242.4297" fill="none" rx="3" ry="3" style="stroke:#038048;stroke-width:1;"/><text fill="#000000" font-family="sans-serif" font-size="14" lengthAdjust="spacing" textLength="140.1162" x="724.06" y="245.7764">POST /prsls/validate</text><ellipse cx="715.06" cy="258.7266" fill="none" rx="3" ry="3" style="stroke:#038048;stroke-width:1;"/><text fill="#000000" font-family="sans-serif" font-size="14" lengthAdjust="spacing" textLength="161.2324" x="724.06" y="262.0732">POST /prsls/send-email</text><ellipse cx="715.06" cy="275.0234" fill="none" rx="3" ry="3" style="stroke:#038048;stroke-width:1;"/><text fill="#000000" font-family="sans-serif" font-size="14" lengthAdjust="spacing" textLength="289.8711" x="724.06" y="278.3701">POST /prsls/signed-url/upload/{filename}</text><ellipse cx="715.06" cy="291.3203" fill="none" rx="3" ry="3" style="stroke:#038048;stroke-width:1;"/><text fill="#000000" font-family="sans-serif" font-size="14" lengthAdjust="spacing" textLength="309.8867" x="724.06" y="294.667">POST /prsls/signed-url/download/{filename}</text><ellipse cx="715.06" cy="307.6172" fill="none" rx="3" ry="3" style="stroke:#038048;stroke-width:1;"/><text fill="#000000" font-family="sans-serif" font-size="14" lengthAdjust="spacing" textLength="286.2959" x="724.06" y="310.9639">POST /prsls/signed-url/delete/{filename}</text></g><g class="entity" data-entity="report_endpoints" data-source-line="41" data-uid="ent0011" id="entity_report_endpoints"><rect fill="#F1F1F1" height="44.5938" rx="2.5" ry="2.5" style="stroke:#181818;stroke-width:0.5;" width="179.3232" x="1096.34" y="200.34"/><text fill="#000000" font-family="sans-serif" font-size="14" lengthAdjust="spacing" textLength="119.4375" x="1126.2829" y="215.3351">report_endpoints</text><line style="stroke:#181818;stroke-width:0.5;" x1="1097.34" x2="1274.6632" y1="220.6369" y2="220.6369"/><ellipse cx="1107.34" cy="234.2853" fill="none" rx="3" ry="3" style="stroke:#038048;stroke-width:1;"/><text fill="#000000" font-family="sans-serif" font-size="14" lengthAdjust="spacing" textLength="153.3232" x="1116.34" y="237.632">GET /report/{user_id}</text></g><g class="entity" data-entity="reviewers_endpoints" data-source-line="47" data-uid="ent0013" id="entity_reviewers_endpoints"><rect fill="#F1F1F1" height="44.5938" rx="2.5" ry="2.5" style="stroke:#181818;stroke-width:0.5;" width="158.6416" x="1331.68" y="200.34"/><text fill="#000000" font-family="sans-serif" font-size="14" lengthAdjust="spacing" textLength="144.6416" x="1338.68" y="215.3351">reviewers_endpoints</text><line style="stroke:#181818;stroke-width:0.5;" x1="1332.68" x2="1489.3216" y1="220.6369" y2="220.6369"/><ellipse cx="1342.68" cy="234.2853" fill="none" rx="3" ry="3" style="stroke:#038048;stroke-width:1;"/><text fill="#000000" font-family="sans-serif" font-size="14" lengthAdjust="spacing" textLength="105.6836" x="1351.68" y="237.632">GET /reviewers</text></g><g class="entity" data-entity="reviews_endpoints" data-source-line="53" data-uid="ent0015" id="entity_reviews_endpoints"><rect fill="#F1F1F1" height="93.4844" rx="2.5" ry="2.5" style="stroke:#181818;stroke-width:0.5;" width="215.4375" x="1546.28" y="175.89"/><text fill="#000000" font-family="sans-serif" font-size="14" lengthAdjust="spacing" textLength="130.2725" x="1588.8625" y="190.8851">reviews_endpoints</text><line style="stroke:#181818;stroke-width:0.5;" x1="1547.28" x2="1760.7175" y1="196.1869" y2="196.1869"/><ellipse cx="1557.28" cy="209.8353" fill="none" rx="3" ry="3" style="stroke:#038048;stroke-width:1;"/><text fill="#000000" font-family="sans-serif" font-size="14" lengthAdjust="spacing" textLength="99.9688" x="1566.28" y="213.182">POST /reviews</text><ellipse cx="1557.28" cy="226.1322" fill="none" rx="3" ry="3" style="stroke:#038048;stroke-width:1;"/><text fill="#000000" font-family="sans-serif" font-size="14" lengthAdjust="spacing" textLength="180.2295" x="1566.28" y="229.4789">GET /reviews/{review_id}</text><ellipse cx="1557.28" cy="242.4291" fill="none" rx="3" ry="3" style="stroke:#038048;stroke-width:1;"/><text fill="#000000" font-family="sans-serif" font-size="14" lengthAdjust="spacing" textLength="189.4375" x="1566.28" y="245.7757">GET /reviews/list/{user_id}</text><ellipse cx="1557.28" cy="258.7259" fill="none" rx="3" ry="3" style="stroke:#038048;stroke-width:1;"/><text fill="#000000" font-family="sans-serif" font-size="14" lengthAdjust="spacing" textLength="179.2246" x="1566.28" y="262.0726">PUT /reviews/{review_id}</text></g><!--class constants--><g class="entity" data-entity="constants" data-source-line="92" data-uid="ent0026" id="entity_constants"><rect fill="#F1F1F1" height="48" rx="2.5" ry="2.5" style="stroke:#181818;stroke-width:0.5;" width="100.1543" x="1429.92" y="532.45"/><ellipse cx="1444.92" cy="548.45" fill="#ADD1B2" rx="11" ry="11" style="stroke:#181818;stroke-width:1;"/><path d="M1447.8888,554.0906 Q1447.3106,554.3875 1446.67,554.5281 Q1446.0294,554.6844 1445.3263,554.6844 Q1442.8263,554.6844 1441.4981,553.0437 Q1440.1856,551.3875 1440.1856,548.2625 Q1440.1856,545.1375 1441.4981,543.4812 Q1442.8263,541.825 1445.3263,541.825 Q1446.0294,541.825 1446.67,541.9812 Q1447.3263,542.1375 1447.8888,542.4344 L1447.8888,545.1531 Q1447.2638,544.575 1446.67,544.3094 Q1446.0763,544.0281 1445.4513,544.0281 Q1444.1075,544.0281 1443.42,545.1062 Q1442.7325,546.1687 1442.7325,548.2625 Q1442.7325,550.3562 1443.42,551.4344 Q1444.1075,552.4969 1445.4513,552.4969 Q1446.0763,552.4969 1446.67,552.2312 Q1447.2638,551.95 1447.8888,551.3719 L1447.8888,554.0906 Z " fill="#000000"/><text fill="#000000" font-family="sans-serif" font-size="14" lengthAdjust="spacing" textLength="68.1543" x="1458.92" y="553.2967">constants</text><line style="stroke:#181818;stroke-width:0.5;" x1="1430.92" x2="1529.0743" y1="564.45" y2="564.45"/><line style="stroke:#181818;stroke-width:0.5;" x1="1430.92" x2="1529.0743" y1="572.45" y2="572.45"/></g><g class="entity" data-entity="email_helper_items" data-source-line="64" data-uid="ent0018" id="entity_email_helper_items"><rect fill="#F1F1F1" height="60.8906" rx="2.5" ry="2.5" style="stroke:#181818;stroke-width:0.5;" width="163.9287" x="94.04" y="526.01"/><text fill="#000000" font-family="sans-serif" font-size="14" lengthAdjust="spacing" textLength="136.165" x="107.9218" y="541.0051">email_helper_items</text><line style="stroke:#181818;stroke-width:0.5;" x1="95.04" x2="256.9687" y1="546.3069" y2="546.3069"/><ellipse cx="105.04" cy="559.9553" fill="#84BE84" rx="3" ry="3" style="stroke:#038048;stroke-width:1;"/><text fill="#000000" font-family="sans-serif" font-size="14" lengthAdjust="spacing" textLength="103.0313" x="114.04" y="563.302">render_email()</text><ellipse cx="105.04" cy="576.2522" fill="#84BE84" rx="3" ry="3" style="stroke:#038048;stroke-width:1;"/><text fill="#000000" font-family="sans-serif" font-size="14" lengthAdjust="spacing" textLength="137.9287" x="114.04" y="579.5989">send_email_async()</text></g><g class="entity" data-entity="pht_handler_items" data-source-line="70" data-uid="ent0020" id="entity_pht_handler_items"><rect fill="#F1F1F1" height="93.4844" rx="2.5" ry="2.5" style="stroke:#181818;stroke-width:0.5;" width="322.8984" x="1071.55" y="509.71"/><text fill="#000000" font-family="sans-serif" font-size="14" lengthAdjust="spacing" textLength="129.6436" x="1168.1774" y="524.7051">pht_handler_items</text><line style="stroke:#181818;stroke-width:0.5;" x1="1072.55" x2="1393.4484" y1="530.0069" y2="530.0069"/><ellipse cx="1082.55" cy="543.6553" fill="#84BE84" rx="3" ry="3" style="stroke:#038048;stroke-width:1;"/><text fill="#000000" font-family="sans-serif" font-size="14" lengthAdjust="spacing" textLength="203.5537" x="1091.55" y="547.002">transform_update_proposal()</text><ellipse cx="1082.55" cy="559.9522" fill="#84BE84" rx="3" ry="3" style="stroke:#038048;stroke-width:1;"/><text fill="#000000" font-family="sans-serif" font-size="14" lengthAdjust="spacing" textLength="171.8555" x="1091.55" y="563.2989">get_latest_entity_by_id()</text><ellipse cx="1082.55" cy="576.2491" fill="#84BE84" rx="3" ry="3" style="stroke:#038048;stroke-width:1;"/><text fill="#000000" font-family="sans-serif" font-size="14" lengthAdjust="spacing" textLength="126.6221" x="1091.55" y="579.5957">_get_array_class()</text><ellipse cx="1082.55" cy="592.5459" fill="#84BE84" rx="3" ry="3" style="stroke:#038048;stroke-width:1;"/><text fill="#000000" font-family="sans-serif" font-size="14" lengthAdjust="spacing" textLength="296.8984" x="1091.55" y="595.8926">join_proposals_panels_reviews_decisions()</text></g><g class="entity" data-entity="s3_bucket_functions" data-source-line="78" data-uid="ent0022" id="entity_s3_bucket_functions"><rect fill="#F1F1F1" height="142.375" rx="2.5" ry="2.5" style="stroke:#181818;stroke-width:0.5;" width="288.2881" x="727.86" y="485.26"/><text fill="#000000" font-family="sans-serif" font-size="14" lengthAdjust="spacing" textLength="142.3516" x="800.8283" y="500.2551">s3_bucket_functions</text><line style="stroke:#181818;stroke-width:0.5;" x1="728.86" x2="1015.1481" y1="505.5569" y2="505.5569"/><ellipse cx="738.86" cy="519.2053" fill="#84BE84" rx="3" ry="3" style="stroke:#038048;stroke-width:1;"/><text fill="#000000" font-family="sans-serif" font-size="14" lengthAdjust="spacing" textLength="125.9043" x="747.86" y="522.552">S3Method (Enum)</text><ellipse cx="738.86" cy="535.5022" fill="none" rx="3" ry="3" style="stroke:#038048;stroke-width:1;"/><text fill="#000000" font-family="sans-serif" font-size="14" lengthAdjust="spacing" textLength="62.7129" x="747.86" y="538.8489">S3Config</text><ellipse cx="738.86" cy="551.7991" fill="#84BE84" rx="3" ry="3" style="stroke:#038048;stroke-width:1;"/><text fill="#000000" font-family="sans-serif" font-size="14" lengthAdjust="spacing" textLength="113.6885" x="747.86" y="555.1457">get_aws_client()</text><ellipse cx="738.86" cy="568.0959" fill="#84BE84" rx="3" ry="3" style="stroke:#038048;stroke-width:1;"/><text fill="#000000" font-family="sans-serif" font-size="14" lengthAdjust="spacing" textLength="176.5654" x="747.86" y="571.4426">generate_presigned_url()</text><ellipse cx="738.86" cy="584.3928" fill="#84BE84" rx="3" ry="3" style="stroke:#038048;stroke-width:1;"/><text fill="#000000" font-family="sans-serif" font-size="14" lengthAdjust="spacing" textLength="242.2725" x="747.86" y="587.7395">create_presigned_url_upload_pdf()</text><ellipse cx="738.86" cy="600.6897" fill="#84BE84" rx="3" ry="3" style="stroke:#038048;stroke-width:1;"/><text fill="#000000" font-family="sans-serif" font-size="14" lengthAdjust="spacing" textLength="262.2881" x="747.86" y="604.0364">create_presigned_url_download_pdf()</text><ellipse cx="738.86" cy="616.9866" fill="#84BE84" rx="3" ry="3" style="stroke:#038048;stroke-width:1;"/><text fill="#000000" font-family="sans-serif" font-size="14" lengthAdjust="spacing" textLength="238.6973" x="747.86" y="620.3332">create_presigned_url_delete_pdf()</text></g><!--class validate_duplicates--><g class="entity" data-entity="validate_duplicates" data-source-line="89" data-uid="ent0024" id="entity_validate_duplicates"><rect fill="#F1F1F1" height="56.2656" rx="2.5" ry="2.5" style="stroke:#181818;stroke-width:0.5;" width="167.3105" x="314.34" y="528.32"/><ellipse cx="329.34" cy="548.4528" fill="#ADD1B2" rx="11" ry="11" style="stroke:#181818;stroke-width:1;"/><path d="M332.3088,554.0934 Q331.7306,554.3903 331.09,554.5309 Q330.4494,554.6872 329.7463,554.6872 Q327.2463,554.6872 325.9181,553.0466 Q324.6056,551.3903 324.6056,548.2653 Q324.6056,545.1403 325.9181,543.4841 Q327.2463,541.8278 329.7463,541.8278 Q330.4494,541.8278 331.09,541.9841 Q331.7463,542.1403 332.3088,542.4372 L332.3088,545.1559 Q331.6838,544.5778 331.09,544.3122 Q330.4963,544.0309 329.8713,544.0309 Q328.5275,544.0309 327.84,545.1091 Q327.1525,546.1716 327.1525,548.2653 Q327.1525,550.3591 327.84,551.4372 Q328.5275,552.4997 329.8713,552.4997 Q330.4963,552.4997 331.09,552.2341 Q331.6838,551.9528 332.3088,551.3747 L332.3088,554.0934 Z " fill="#000000"/><text fill="#000000" font-family="sans-serif" font-size="12" font-style="italic" lengthAdjust="spacing" textLength="63.7031" x="379.1437" y="544.4587">&#171;function&#187;</text><text fill="#000000" font-family="sans-serif" font-size="14" lengthAdjust="spacing" textLength="135.3105" x="343.34" y="560.2839">validate_duplicates</text><line style="stroke:#181818;stroke-width:0.5;" x1="315.34" x2="480.6505" y1="568.5856" y2="568.5856"/><line style="stroke:#181818;stroke-width:0.5;" x1="315.34" x2="480.6505" y1="576.5856" y2="576.5856"/></g><!--class validate_proposal--><g class="entity" data-entity="validate_proposal" data-source-line="90" data-uid="ent0025" id="entity_validate_proposal"><rect fill="#F1F1F1" height="56.2656" rx="2.5" ry="2.5" style="stroke:#181818;stroke-width:0.5;" width="155.6348" x="516.18" y="528.32"/><ellipse cx="531.18" cy="548.4528" fill="#ADD1B2" rx="11" ry="11" style="stroke:#181818;stroke-width:1;"/><path d="M534.1488,554.0934 Q533.5706,554.3903 532.93,554.5309 Q532.2894,554.6872 531.5863,554.6872 Q529.0863,554.6872 527.7581,553.0466 Q526.4456,551.3903 526.4456,548.2653 Q526.4456,545.1403 527.7581,543.4841 Q529.0863,541.8278 531.5863,541.8278 Q532.2894,541.8278 532.93,541.9841 Q533.5863,542.1403 534.1488,542.4372 L534.1488,545.1559 Q533.5238,544.5778 532.93,544.3122 Q532.3363,544.0309 531.7113,544.0309 Q530.3675,544.0309 529.68,545.1091 Q528.9925,546.1716 528.9925,548.2653 Q528.9925,550.3591 529.68,551.4372 Q530.3675,552.4997 531.7113,552.4997 Q532.3363,552.4997 532.93,552.2341 Q533.5238,551.9528 534.1488,551.3747 L534.1488,554.0934 Z " fill="#000000"/><text fill="#000000" font-family="sans-serif" font-size="12" font-style="italic" lengthAdjust="spacing" textLength="63.7031" x="575.1458" y="544.4587">&#171;function&#187;</text><text fill="#000000" font-family="sans-serif" font-size="14" lengthAdjust="spacing" textLength="123.6348" x="545.18" y="560.2839">validate_proposal</text><line style="stroke:#181818;stroke-width:0.5;" x1="517.18" x2="670.8148" y1="568.5856" y2="568.5856"/><line style="stroke:#181818;stroke-width:0.5;" x1="517.18" x2="670.8148" y1="576.5856" y2="576.5856"/></g><!--link prsls_endpoints to validate_proposal--><g class="link" data-entity-1="prsls_endpoints" data-entity-2="validate_proposal" data-source-line="96" data-uid="lnk27" id="link_prsls_endpoints_validate_proposal"><path codeLine="96" d="M782.77,318.39 C759.26,344.2 734.26,372.45 712,399.26 C675.64,443.06 639.8491,491.5431 617.0291,523.1931" fill="none" id="prsls_endpoints-to-validate_proposal" style="stroke:#181818;stroke-width:1;"/><polygon fill="#181818" points="613.52,528.06,622.0282,523.0991,616.4442,524.0043,615.539,518.4203,613.52,528.06" style="stroke:#181818;stroke-width:1;"/></g><!--link prsls_endpoints to pht_handler_items--><g class="link" data-entity-1="prsls_endpoints" data-entity-2="pht_handler_items" data-source-line="97" data-uid="lnk28" id="link_prsls_endpoints_pht_handler_items"><path codeLine="97" d="M975.45,318.72 C1043.58,381.34 1125.3223,456.4799 1178.6923,505.5299" fill="none" id="prsls_endpoints-to-pht_handler_items" style="stroke:#181818;stroke-width:1;"/><polygon fill="#181818" points="1183.11,509.59,1179.1902,500.5548,1179.4286,506.2066,1173.7768,506.445,1183.11,509.59" style="stroke:#181818;stroke-width:1;"/></g><!--link prsls_endpoints to s3_bucket_functions--><g class="link" data-entity-1="prsls_endpoints" data-entity-2="s3_bucket_functions" data-source-line="98" data-uid="lnk29" id="link_prsls_endpoints_s3_bucket_functions"><path codeLine="98" d="M872,318.72 C872,371.67 872,430.47 872,478.88" fill="none" id="prsls_endpoints-to-s3_bucket_functions" style="stroke:#181818;stroke-width:1;"/><polygon fill="#181818" points="872,484.88,876,475.88,872,479.88,868,475.88,872,484.88" style="stroke:#181818;stroke-width:1;"/><text fill="#000000" font-family="sans-serif" font-size="13" lengthAdjust="spacing" textLength="49.2578" x="873" y="387.3269">PDF file</text></g><!--link panels_endpoints to validate_duplicates--><g class="link" data-entity-1="panels_endpoints" data-entity-2="validate_duplicates" data-source-line="99" data-uid="lnk30" id="link_panels_endpoints_validate_duplicates"><path codeLine="99" d="M505.62,269.77 C479.19,339.93 431.8259,465.6755 410.4159,522.4855" fill="none" id="panels_endpoints-to-validate_duplicates" style="stroke:#181818;stroke-width:1;"/><polygon fill="#181818" points="408.3,528.1,415.2169,521.0889,410.0633,523.4212,407.7309,518.2676,408.3,528.1" style="stroke:#181818;stroke-width:1;"/><text fill="#000000" font-family="sans-serif" font-size="13" lengthAdjust="spacing" textLength="68.5229" x="467" y="387.3269">List[Panel]</text></g><!--link report_endpoints to pht_handler_items--><g class="link" data-entity-1="report_endpoints" data-entity-2="pht_handler_items" data-source-line="100" data-uid="lnk31" id="link_report_endpoints_pht_handler_items"><path codeLine="100" d="M1189.08,245.4 C1196.64,298.75 1215.3689,430.9692 1225.6389,503.5092" fill="none" id="report_endpoints-to-pht_handler_items" style="stroke:#181818;stroke-width:1;"/><polygon fill="#181818" points="1226.48,509.45,1229.1789,499.9781,1225.7791,504.4994,1221.2579,501.0996,1226.48,509.45" style="stroke:#181818;stroke-width:1;"/><text fill="#000000" font-family="sans-serif" font-size="13" lengthAdjust="spacing" textLength="99.3726" x="1210" y="387.3269">ProposalReport</text></g><!--link prsls_endpoints to email_helper_items--><g class="link" data-entity-1="prsls_endpoints" data-entity-2="email_helper_items" data-source-line="101" data-uid="lnk32" id="link_prsls_endpoints_email_helper_items"><path codeLine="101" d="M750.44,318.67 C723.15,336.62 693.5,353.68 664,366.26 C613.89,387.64 598.09,384.8 544,391.26 C516.85,394.51 322.38,386.88 298,399.26 C244.78,426.31 210.3178,483.0508 191.9178,520.2908" fill="none" id="prsls_endpoints-to-email_helper_items" style="stroke:#181818;stroke-width:1;"/><polygon fill="#181818" points="189.26,525.67,196.8329,519.3731,191.4749,521.1873,189.6606,515.8293,189.26,525.67" style="stroke:#181818;stroke-width:1;"/></g><!--link reviewers_endpoints to constants--><g class="link" data-entity-1="reviewers_endpoints" data-entity-2="constants" data-source-line="102" data-uid="lnk33" id="link_reviewers_endpoints_constants"><path codeLine="102" d="M1415.53,245.4 C1427.94,305.1 1461.2084,465.0957 1473.9584,526.4057" fill="none" id="reviewers_endpoints-to-constants" style="stroke:#181818;stroke-width:1;"/><polygon fill="#181818" points="1475.18,532.28,1477.2638,522.6541,1474.162,527.3847,1469.4314,524.2829,1475.18,532.28" style="stroke:#181818;stroke-width:1;"/><text fill="#000000" font-family="sans-serif" font-size="13" lengthAdjust="spacing" textLength="76.54" x="1446" y="387.3269">REVIEWERS</text></g><!--SRC=[dLPDZzem4BtpAwozT5SjoM5lgnMNbbQLMXL1FmvLPPba02_6jcndLn7YlzTnFZ1WWY4NWlBUUFmyyyP6I6G4cWjZn0RbL45cgE23WIJPcYm1tScLkKD48_kBvNg9jeC1ia_tdKXwXvwVfvP8-9B1QDH23c2IS60uXung6_-KWRn7p5_iDtH8mS1pAIWt-X1SFU_HvCVi9qeTOzWoT03tPNmAIxVT6ZJVnP8OrIRT5XhK6TRarrLBxV_jtyx8gEFbqtlPq0NT-kNIQRgj3-IIHZfLy4hXJSSJUhJqPGd8eNIi6XMoluRgZ2fSAdIURhCoOx0xBvf3PWg8WVveMwc459hqI-6WaLKL5TPFyvKmceSJzM7Q2ZI43Q7i4f0kEUJ3Gh6qa4mGAzU2Ck1aSr4nZvgBDtux6HWOE4Vjhni5KYWJLJWrDA9oQk1DPLmt32WTcL63ZaggmTxWDKqRNv6JZZ7f1jgViQtk-gMlPLfeNDDS2dmiokveq1M6zdbDXtFjWrV09AWexNm2fWOsOQjMLbiBSEZxXm2WQjxwCoQwvDaHA7Je_fJ7Ay9p5fcpX-z9sIZ2zKAe3IvavJwuTQnW_aimc5cKhhhDK5FYUMbFAOZ55PWeHKgSCQ9r4FHYAx5RKkDc8BQbsWtbQtJIZtXUP6k8yuuEZHS5TnUhi4wpn-zWLY97zsDUR1w2Y8-2B-ZoZ6p4xYTZrCfsHbaEgjOVQWV5ra63q7gU7G9nRV5OvejuJkljLxASgGSulQVIJBUB5qjNAgYTXJYt-w9PLN6MrPxGQDH7QQifJDYdLjCoU-0s5QDzGtc7XiCXcW9p2UiLbVg3RMvJA8vCAMqoWhEo0ZculLydRlObHrSOYnWXPqh9Vl_9IQRHGRoMJaxQEpfAL_99gFYVqEJJPrHDx7r0rvN9oMsrVtVUqJsXRzR__qwg0F-wiFKqJewdT-n-RQADVbCN8Nh_lfadfyxkvTSCvYGmphruNGdPVKx7lx-E_uodiy5Wzny0]--></g></svg>