<?xml version="1.0" encoding="UTF-8" standalone="no"?><svg xmlns="http://www.w3.org/2000/svg" xmlns:xlink="http://www.w3.org/1999/xlink" contentScriptType="application/ecmascript" contentStyleType="text/css" height="314px" preserveAspectRatio="none" style="width:735px;height:314px;" version="1.1" viewBox="0 0 735 314" width="735px" zoomAndPan="magnify"><defs><filter height="300%" id="fpz3ip70ahemg" width="300%" x="-1" y="-1"><feGaussianBlur result="blurOut" stdDeviation="2.0"/><feColorMatrix in="blurOut" result="blurOut2" type="matrix" values="0 0 0 0 0 0 0 0 0 0 0 0 0 0 0 0 0 0 .4 0"/><feOffset dx="4.0" dy="4.0" in="blurOut2" result="blurOut3"/><feBlend in="SourceGraphic" in2="blurOut3" mode="normal"/></filter></defs><g><text fill="#000000" font-family="sans-serif" font-size="18" lengthAdjust="spacingAndGlyphs" textLength="446" x="156" y="19.2419">Detailed View: common.osdmapper (Functions Only)</text><!--MD5=[15f9f4a5b8eeecf42964aba2e3ad9de6]
cluster osdmapper--><rect fill="#FFFFFF" filter="url(#fpz3ip70ahemg)" height="255" style="stroke: #000000; stroke-width: 1.5;" width="702" x="22" y="48.5158"/><text fill="#000000" font-family="sans-serif" font-size="14" font-weight="bold" lengthAdjust="spacingAndGlyphs" textLength="79" x="333.5" y="65.4818">osdmapper</text><!--MD5=[a69c291d9ec045cc7ec151f139e9a7c7]
class configuration_from_osd--><rect fill="#FEFECE" filter="url(#fpz3ip70ahemg)" height="73.6701" id="configuration_from_osd" style="stroke: #A80036; stroke-width: 1.5;" width="163" x="292.5" y="86.5158"/><ellipse cx="307.5" cy="107.86" fill="#ADD1B2" rx="11" ry="11" style="stroke: #A80036; stroke-width: 1.0;"/><path d="M310.4688,113.5006 Q309.8906,113.7975 309.25,113.9381 Q308.6094,114.0943 307.9063,114.0943 Q305.4063,114.0943 304.0781,112.4537 Q302.7656,110.7975 302.7656,107.6725 Q302.7656,104.5475 304.0781,102.8912 Q305.4063,101.235 307.9063,101.235 Q308.6094,101.235 309.25,101.3912 Q309.9063,101.5475 310.4688,101.8443 L310.4688,104.5631 Q309.8438,103.985 309.25,103.7193 Q308.6563,103.4381 308.0313,103.4381 Q306.6875,103.4381 306,104.5162 Q305.3125,105.5787 305.3125,107.6725 Q305.3125,109.7662 306,110.8443 Q306.6875,111.9068 308.0313,111.9068 Q308.6563,111.9068 309.25,111.6412 Q309.8438,111.36 310.4688,110.7818 L310.4688,113.5006 Z "/><text fill="#000000" font-family="sans-serif" font-size="12" font-style="italic" lengthAdjust="spacingAndGlyphs" textLength="56" x="359" y="104.3439">«function»</text><text fill="#000000" font-family="sans-serif" font-size="12" lengthAdjust="spacingAndGlyphs" textLength="131" x="321.5" y="120.6881">configuration_from_osd</text><line style="stroke: #A80036; stroke-width: 1.5;" x1="293.5" x2="454.5" y1="129.2041" y2="129.2041"/><text fill="#000000" font-family="sans-serif" font-size="11" lengthAdjust="spacingAndGlyphs" textLength="119" x="298.5" y="144.963">returns: Configuration</text><line style="stroke: #A80036; stroke-width: 1.5;" x1="293.5" x2="454.5" y1="152.186" y2="152.186"/><!--MD5=[cd43d0da5a08b52e568ef7221288953c]
class _get_mid_telescope_configuration--><rect fill="#FEFECE" filter="url(#fpz3ip70ahemg)" height="73.6701" id="_get_mid_telescope_configuration" style="stroke: #A80036; stroke-width: 1.5;" width="219" x="38.5" y="86.5158"/><ellipse cx="53.5" cy="107.86" fill="#ADD1B2" rx="11" ry="11" style="stroke: #A80036; stroke-width: 1.0;"/><path d="M56.4688,113.5006 Q55.8906,113.7975 55.25,113.9381 Q54.6094,114.0943 53.9063,114.0943 Q51.4063,114.0943 50.0781,112.4537 Q48.7656,110.7975 48.7656,107.6725 Q48.7656,104.5475 50.0781,102.8912 Q51.4063,101.235 53.9063,101.235 Q54.6094,101.235 55.25,101.3912 Q55.9063,101.5475 56.4688,101.8443 L56.4688,104.5631 Q55.8438,103.985 55.25,103.7193 Q54.6563,103.4381 54.0313,103.4381 Q52.6875,103.4381 52,104.5162 Q51.3125,105.5787 51.3125,107.6725 Q51.3125,109.7662 52,110.8443 Q52.6875,111.9068 54.0313,111.9068 Q54.6563,111.9068 55.25,111.6412 Q55.8438,111.36 56.4688,110.7818 L56.4688,113.5006 Z "/><text fill="#000000" font-family="sans-serif" font-size="12" font-style="italic" lengthAdjust="spacingAndGlyphs" textLength="56" x="133" y="104.3439">«function»</text><text fill="#000000" font-family="sans-serif" font-size="12" lengthAdjust="spacingAndGlyphs" textLength="187" x="67.5" y="120.6881">_get_mid_telescope_configuration</text><line style="stroke: #A80036; stroke-width: 1.5;" x1="39.5" x2="256.5" y1="129.2041" y2="129.2041"/><text fill="#000000" font-family="sans-serif" font-size="11" lengthAdjust="spacingAndGlyphs" textLength="139" x="44.5" y="144.963">returns: MidConfiguration</text><line style="stroke: #A80036; stroke-width: 1.5;" x1="39.5" x2="256.5" y1="152.186" y2="152.186"/><!--MD5=[27cf5c7a8f81adeeffe479252a5aaf43]
class _get_low_telescope_configuration--><rect fill="#FEFECE" filter="url(#fpz3ip70ahemg)" height="73.6701" id="_get_low_telescope_configuration" style="stroke: #A80036; stroke-width: 1.5;" width="217" x="490.5" y="86.5158"/><ellipse cx="505.5" cy="107.86" fill="#ADD1B2" rx="11" ry="11" style="stroke: #A80036; stroke-width: 1.0;"/><path d="M508.4688,113.5006 Q507.8906,113.7975 507.25,113.9381 Q506.6094,114.0943 505.9063,114.0943 Q503.4063,114.0943 502.0781,112.4537 Q500.7656,110.7975 500.7656,107.6725 Q500.7656,104.5475 502.0781,102.8912 Q503.4063,101.235 505.9063,101.235 Q506.6094,101.235 507.25,101.3912 Q507.9063,101.5475 508.4688,101.8443 L508.4688,104.5631 Q507.8438,103.985 507.25,103.7193 Q506.6563,103.4381 506.0313,103.4381 Q504.6875,103.4381 504,104.5162 Q503.3125,105.5787 503.3125,107.6725 Q503.3125,109.7662 504,110.8443 Q504.6875,111.9068 506.0313,111.9068 Q506.6563,111.9068 507.25,111.6412 Q507.8438,111.36 508.4688,110.7818 L508.4688,113.5006 Z "/><text fill="#000000" font-family="sans-serif" font-size="12" font-style="italic" lengthAdjust="spacingAndGlyphs" textLength="56" x="584" y="104.3439">«function»</text><text fill="#000000" font-family="sans-serif" font-size="12" lengthAdjust="spacingAndGlyphs" textLength="185" x="519.5" y="120.6881">_get_low_telescope_configuration</text><line style="stroke: #A80036; stroke-width: 1.5;" x1="491.5" x2="706.5" y1="129.2041" y2="129.2041"/><text fill="#000000" font-family="sans-serif" font-size="11" lengthAdjust="spacingAndGlyphs" textLength="141" x="496.5" y="144.963">returns: LowConfiguration</text><line style="stroke: #A80036; stroke-width: 1.5;" x1="491.5" x2="706.5" y1="152.186" y2="152.186"/><!--MD5=[9b7eb76f801c309757ef5968cb2349d9]
class Configuration--><rect fill="#FEFECE" filter="url(#fpz3ip70ahemg)" height="48" id="Configuration" style="stroke: #A80036; stroke-width: 1.5;" width="108" x="320" y="239.5158"/><ellipse cx="335" cy="255.5158" fill="#ADD1B2" rx="11" ry="11" style="stroke: #A80036; stroke-width: 1.0;"/><path d="M337.9688,261.1565 Q337.3906,261.4533 336.75,261.594 Q336.1094,261.7502 335.4063,261.7502 Q332.9063,261.7502 331.5781,260.1096 Q330.2656,258.4533 330.2656,255.3283 Q330.2656,252.2033 331.5781,250.5471 Q332.9063,248.8908 335.4063,248.8908 Q336.1094,248.8908 336.75,249.0471 Q337.4063,249.2033 337.9688,249.5002 L337.9688,252.219 Q337.3438,251.6408 336.75,251.3752 Q336.1563,251.094 335.5313,251.094 Q334.1875,251.094 333.5,252.1721 Q332.8125,253.2346 332.8125,255.3283 Q332.8125,257.4221 333.5,258.5002 Q334.1875,259.5627 335.5313,259.5627 Q336.1563,259.5627 336.75,259.2971 Q337.3438,259.0158 337.9688,258.4377 L337.9688,261.1565 Z "/><text fill="#000000" font-family="sans-serif" font-size="12" lengthAdjust="spacingAndGlyphs" textLength="76" x="349" y="260.1719">Configuration</text><line style="stroke: #A80036; stroke-width: 1.5;" x1="321" x2="427" y1="271.5158" y2="271.5158"/><line style="stroke: #A80036; stroke-width: 1.5;" x1="321" x2="427" y1="279.5158" y2="279.5158"/><!--MD5=[cbb02d7d9fbcf1d3c55e540bd084030b]
class MidConfiguration--><rect fill="#FEFECE" filter="url(#fpz3ip70ahemg)" height="48" id="MidConfiguration" style="stroke: #A80036; stroke-width: 1.5;" width="129" x="119.5" y="239.5158"/><ellipse cx="134.5" cy="255.5158" fill="#ADD1B2" rx="11" ry="11" style="stroke: #A80036; stroke-width: 1.0;"/><path d="M137.4688,261.1565 Q136.8906,261.4533 136.25,261.594 Q135.6094,261.7502 134.9063,261.7502 Q132.4063,261.7502 131.0781,260.1096 Q129.7656,258.4533 129.7656,255.3283 Q129.7656,252.2033 131.0781,250.5471 Q132.4063,248.8908 134.9063,248.8908 Q135.6094,248.8908 136.25,249.0471 Q136.9063,249.2033 137.4688,249.5002 L137.4688,252.219 Q136.8438,251.6408 136.25,251.3752 Q135.6563,251.094 135.0313,251.094 Q133.6875,251.094 133,252.1721 Q132.3125,253.2346 132.3125,255.3283 Q132.3125,257.4221 133,258.5002 Q133.6875,259.5627 135.0313,259.5627 Q135.6563,259.5627 136.25,259.2971 Q136.8438,259.0158 137.4688,258.4377 L137.4688,261.1565 Z "/><text fill="#000000" font-family="sans-serif" font-size="12" lengthAdjust="spacingAndGlyphs" textLength="97" x="148.5" y="260.1719">MidConfiguration</text><line style="stroke: #A80036; stroke-width: 1.5;" x1="120.5" x2="247.5" y1="271.5158" y2="271.5158"/><line style="stroke: #A80036; stroke-width: 1.5;" x1="120.5" x2="247.5" y1="279.5158" y2="279.5158"/><!--MD5=[54ec1a7a1de853ce9f24b134f0f3ca61]
class LowConfiguration--><rect fill="#FEFECE" filter="url(#fpz3ip70ahemg)" height="48" id="LowConfiguration" style="stroke: #A80036; stroke-width: 1.5;" width="130" x="498" y="239.5158"/><ellipse cx="513" cy="255.5158" fill="#ADD1B2" rx="11" ry="11" style="stroke: #A80036; stroke-width: 1.0;"/><path d="M515.9688,261.1565 Q515.3906,261.4533 514.75,261.594 Q514.1094,261.7502 513.4063,261.7502 Q510.9063,261.7502 509.5781,260.1096 Q508.2656,258.4533 508.2656,255.3283 Q508.2656,252.2033 509.5781,250.5471 Q510.9063,248.8908 513.4063,248.8908 Q514.1094,248.8908 514.75,249.0471 Q515.4063,249.2033 515.9688,249.5002 L515.9688,252.219 Q515.3438,251.6408 514.75,251.3752 Q514.1563,251.094 513.5313,251.094 Q512.1875,251.094 511.5,252.1721 Q510.8125,253.2346 510.8125,255.3283 Q510.8125,257.4221 511.5,258.5002 Q512.1875,259.5627 513.5313,259.5627 Q514.1563,259.5627 514.75,259.2971 Q515.3438,259.0158 515.9688,258.4377 L515.9688,261.1565 Z "/><text fill="#000000" font-family="sans-serif" font-size="12" lengthAdjust="spacingAndGlyphs" textLength="98" x="527" y="260.1719">LowConfiguration</text><line style="stroke: #A80036; stroke-width: 1.5;" x1="499" x2="627" y1="271.5158" y2="271.5158"/><line style="stroke: #A80036; stroke-width: 1.5;" x1="499" x2="627" y1="279.5158" y2="279.5158"/><!--MD5=[96122f8efb147a7516cb69154431060b]
link configuration_from_osd to Configuration--><path d="M374,160.7758 C374,183.7458 374,213.0158 374,234.2558 " fill="none" id="configuration_from_osd-&gt;Configuration" style="stroke: #A80036; stroke-width: 1.0; stroke-dasharray: 7.0,7.0;"/><polygon fill="#A80036" points="374,239.4758,378,230.4758,374,234.4758,370,230.4758,374,239.4758" style="stroke: #A80036; stroke-width: 1.0;"/><text fill="#000000" font-family="sans-serif" font-size="13" lengthAdjust="spacingAndGlyphs" textLength="44" x="375" y="205.4129">returns</text><!--MD5=[b37731269f18bbeb954e639888324232]
link configuration_from_osd to MidConfiguration--><path d="M324.08,160.7758 C291.38,184.5258 249.41,215.0058 219.97,236.3858 " fill="none" id="configuration_from_osd-&gt;MidConfiguration" style="stroke: #A80036; stroke-width: 1.0; stroke-dasharray: 7.0,7.0;"/><polygon fill="#A80036" points="215.72,239.4758,225.3504,237.4132,219.7624,236.5333,220.6424,230.9453,215.72,239.4758" style="stroke: #A80036; stroke-width: 1.0;"/><text fill="#000000" font-family="sans-serif" font-size="13" lengthAdjust="spacingAndGlyphs" textLength="25" x="280" y="205.4129">calls</text><!--MD5=[180376496d814c7e82941ef009716cb3]
link configuration_from_osd to LowConfiguration--><path d="M423.66,160.7758 C456.18,184.5258 497.93,215.0058 527.22,236.3858 " fill="none" id="configuration_from_osd-&gt;LowConfiguration" style="stroke: #A80036; stroke-width: 1.0; stroke-dasharray: 7.0,7.0;"/><polygon fill="#A80036" points="531.45,239.4758,526.5276,230.9453,527.4076,236.5333,521.8196,237.4132,531.45,239.4758" style="stroke: #A80036; stroke-width: 1.0;"/><text fill="#000000" font-family="sans-serif" font-size="13" lengthAdjust="spacingAndGlyphs" textLength="25" x="486" y="205.4129">calls</text><!--MD5=[418a38715a41449dba18ca6fc7f018ba]
link _get_mid_telescope_configuration to MidConfiguration--><path d="M157.46,160.7758 C163.48,183.8358 171.15,213.2658 176.7,234.5258 " fill="none" id="_get_mid_telescope_configuration-&gt;MidConfiguration" style="stroke: #A80036; stroke-width: 1.0; stroke-dasharray: 7.0,7.0;"/><polygon fill="#A80036" points="177.99,239.4758,179.6003,229.7595,176.7337,234.6362,171.857,231.7696,177.99,239.4758" style="stroke: #A80036; stroke-width: 1.0;"/><text fill="#000000" font-family="sans-serif" font-size="13" lengthAdjust="spacingAndGlyphs" textLength="44" x="171" y="205.4129">returns</text><!--MD5=[3eecd41a92ca43bd85f11510bd61b79f]
link _get_low_telescope_configuration to LowConfiguration--><path d="M589.54,160.7758 C583.52,183.8358 575.85,213.2658 570.3,234.5258 " fill="none" id="_get_low_telescope_configuration-&gt;LowConfiguration" style="stroke: #A80036; stroke-width: 1.0; stroke-dasharray: 7.0,7.0;"/><polygon fill="#A80036" points="569.01,239.4758,575.143,231.7696,570.2663,234.6362,567.3997,229.7595,569.01,239.4758" style="stroke: #A80036; stroke-width: 1.0;"/><text fill="#000000" font-family="sans-serif" font-size="13" lengthAdjust="spacingAndGlyphs" textLength="44" x="582" y="205.4129">returns</text><!--MD5=[9570f90ecc054171c144cb1feb0fd0c2]
@startuml
title Detailed View: common.osdmapper (Functions Only)

top to bottom direction

package "osdmapper" <<Rectangle>> {
    class configuration_from_osd <<function>> {
        returns: Configuration
    }
    class _get_mid_telescope_configuration <<function>> {
        returns: MidConfiguration
    }
    class _get_low_telescope_configuration <<function>> {
        returns: LowConfiguration
    }

    configuration_from_osd ..> Configuration : returns
    configuration_from_osd ..> MidConfiguration : calls
    configuration_from_osd ..> LowConfiguration : calls

    _get_mid_telescope_configuration ..> MidConfiguration : returns
    _get_low_telescope_configuration ..> LowConfiguration : returns
}

@enduml

PlantUML version 1.2020.02(Sun Mar 01 10:22:07 GMT 2020)
(GPL source distribution)
Java Runtime: OpenJDK Runtime Environment
JVM: OpenJDK 64-Bit Server VM
Java Version: 21.0.7+6-Ubuntu-0ubuntu124.04
Operating System: Linux
Default Encoding: UTF-8
Language: en
Country: US
--></g></svg>