<?xml version="1.0" encoding="UTF-8" standalone="no"?><svg xmlns="http://www.w3.org/2000/svg" xmlns:xlink="http://www.w3.org/1999/xlink" contentStyleType="text/css" height="759px" preserveAspectRatio="none" style="width:1741px;height:759px;background:#FFFFFF;" version="1.1" viewBox="0 0 1741 759" width="1741px" zoomAndPan="magnify"><defs/><g><text fill="#000000" font-family="sans-serif" font-size="14" font-weight="bold" lengthAdjust="spacing" textLength="150" x="788.5" y="22.9951">Detailed View: PHT</text><!--cluster pht_pkg--><g id="cluster_pht_pkg"><path d="M8.5,43.2969 L35.5,43.2969 A3.75,3.75 0 0 1 38,45.7969 L45,65.5938 L1731.5,65.5938 A2.5,2.5 0 0 1 1734,68.0938 L1734,749.7969 A2.5,2.5 0 0 1 1731.5,752.2969 L8.5,752.2969 A2.5,2.5 0 0 1 6,749.7969 L6,45.7969 A2.5,2.5 0 0 1 8.5,43.2969 " fill="none" style="stroke:#000000;stroke-width:1.5;"/><line style="stroke:#000000;stroke-width:1.5;" x1="6" x2="45" y1="65.5938" y2="65.5938"/><text fill="#000000" font-family="sans-serif" font-size="14" font-weight="bold" lengthAdjust="spacing" textLength="26" x="10" y="58.292">pht</text></g><!--cluster api--><g id="cluster_api"><rect fill="none" height="358" rx="2.5" ry="2.5" style="stroke:#181818;stroke-width:1.0;" width="1680" x="30" y="86.2969"/><text fill="#000000" font-family="sans-serif" font-size="14" font-weight="bold" lengthAdjust="spacing" textLength="23" x="858.5" y="101.292">api</text></g><!--cluster panel_decision--><g id="cluster_panel_decision"><rect fill="none" height="144" rx="2.5" ry="2.5" style="stroke:#181818;stroke-width:1.0;" width="306" x="54" y="202.7969"/><text fill="#000000" font-family="sans-serif" font-size="14" font-weight="bold" lengthAdjust="spacing" textLength="116" x="149" y="217.792">panel_decision</text></g><!--cluster panels_management--><g id="cluster_panels_management"><rect fill="none" height="128" rx="2.5" ry="2.5" style="stroke:#181818;stroke-width:1.0;" width="240" x="1178" y="210.7969"/><text fill="#000000" font-family="sans-serif" font-size="14" font-weight="bold" lengthAdjust="spacing" textLength="161" x="1217.5" y="225.792">panels_management</text></g><!--cluster prsls--><g id="cluster_prsls"><rect fill="none" height="291" rx="2.5" ry="2.5" style="stroke:#181818;stroke-width:1.0;" width="366" x="788" y="129.2969"/><text fill="#000000" font-family="sans-serif" font-size="14" font-weight="bold" lengthAdjust="spacing" textLength="39" x="951.5" y="144.292">prsls</text></g><!--cluster report--><g id="cluster_report"><rect fill="none" height="96" rx="2.5" ry="2.5" style="stroke:#181818;stroke-width:1.0;" width="166" x="598" y="226.7969"/><text fill="#000000" font-family="sans-serif" font-size="14" font-weight="bold" lengthAdjust="spacing" textLength="50" x="656" y="241.792">report</text></g><!--cluster reviewers--><g id="cluster_reviewers"><rect fill="none" height="96" rx="2.5" ry="2.5" style="stroke:#181818;stroke-width:1.0;" width="190" x="384" y="226.7969"/><text fill="#000000" font-family="sans-serif" font-size="14" font-weight="bold" lengthAdjust="spacing" textLength="80" x="439" y="241.792">reviewers</text></g><!--cluster reviews--><g id="cluster_reviews"><rect fill="none" height="144" rx="2.5" ry="2.5" style="stroke:#181818;stroke-width:1.0;" width="244" x="1442" y="202.7969"/><text fill="#000000" font-family="sans-serif" font-size="14" font-weight="bold" lengthAdjust="spacing" textLength="63" x="1532.5" y="217.792">reviews</text></g><!--cluster utils--><g id="cluster_utils"><rect fill="none" height="260" rx="2.5" ry="2.5" style="stroke:#181818;stroke-width:1.0;" width="1463" x="247" y="468.2969"/><text fill="#000000" font-family="sans-serif" font-size="14" font-weight="bold" lengthAdjust="spacing" textLength="33" x="962" y="483.292">utils</text></g><!--cluster email_helper--><g id="cluster_email_helper"><rect fill="none" height="112" rx="2.5" ry="2.5" style="stroke:#181818;stroke-width:1.0;" width="194" x="747" y="551.7969"/><text fill="#000000" font-family="sans-serif" font-size="14" font-weight="bold" lengthAdjust="spacing" textLength="99" x="794.5" y="566.792">email_helper</text></g><!--cluster pht_handler--><g id="cluster_pht_handler"><rect fill="none" height="144" rx="2.5" ry="2.5" style="stroke:#181818;stroke-width:1.0;" width="352" x="371" y="535.7969"/><text fill="#000000" font-family="sans-serif" font-size="14" font-weight="bold" lengthAdjust="spacing" textLength="93" x="500.5" y="550.792">pht_handler</text></g><!--cluster s3_bucket--><g id="cluster_s3_bucket"><rect fill="none" height="193" rx="2.5" ry="2.5" style="stroke:#181818;stroke-width:1.0;" width="316" x="1370" y="511.2969"/><text fill="#000000" font-family="sans-serif" font-size="14" font-weight="bold" lengthAdjust="spacing" textLength="80" x="1488" y="526.292">s3_bucket</text></g><!--cluster validation--><g id="cluster_validation"><rect fill="none" height="107" rx="2.5" ry="2.5" style="stroke:#181818;stroke-width:1.0;" width="381" x="965" y="554.2969"/><text fill="#000000" font-family="sans-serif" font-size="14" font-weight="bold" lengthAdjust="spacing" textLength="75" x="1118" y="569.292">validation</text></g><g id="elem_panel_decision_endpoints"><rect fill="#F1F1F1" height="93.4844" style="stroke:#181818;stroke-width:0.5;" width="273" x="70.5" y="237.7969"/><text fill="#000000" font-family="sans-serif" font-size="14" lengthAdjust="spacing" textLength="180" x="117" y="252.792">panel_decision_endpoints</text><line style="stroke:#181818;stroke-width:0.5;" x1="71.5" x2="342.5" y1="258.0938" y2="258.0938"/><ellipse cx="81.5" cy="271.7422" fill="none" rx="3" ry="3" style="stroke:#038048;stroke-width:1.0;"/><text fill="#000000" font-family="sans-serif" font-size="14" lengthAdjust="spacing" textLength="161" x="90.5" y="275.0889">POST /panel-decisions/</text><ellipse cx="81.5" cy="288.0391" fill="none" rx="3" ry="3" style="stroke:#038048;stroke-width:1.0;"/><text fill="#000000" font-family="sans-serif" font-size="14" lengthAdjust="spacing" textLength="247" x="90.5" y="291.3857">GET /panel-decisions/{decision_id}</text><ellipse cx="81.5" cy="304.3359" fill="none" rx="3" ry="3" style="stroke:#038048;stroke-width:1.0;"/><text fill="#000000" font-family="sans-serif" font-size="14" lengthAdjust="spacing" textLength="244" x="90.5" y="307.6826">GET /panel-decisions/list/{user_id}</text><ellipse cx="81.5" cy="320.6328" fill="none" rx="3" ry="3" style="stroke:#038048;stroke-width:1.0;"/><text fill="#000000" font-family="sans-serif" font-size="14" lengthAdjust="spacing" textLength="246" x="90.5" y="323.9795">PUT /panel-decisions/{decision_id}</text></g><g id="elem_panels_endpoints"><rect fill="#F1F1F1" height="77.1875" style="stroke:#181818;stroke-width:0.5;" width="207" x="1194.5" y="245.7969"/><text fill="#000000" font-family="sans-serif" font-size="14" lengthAdjust="spacing" textLength="123" x="1236.5" y="260.792">panels_endpoints</text><line style="stroke:#181818;stroke-width:0.5;" x1="1195.5" x2="1400.5" y1="266.0938" y2="266.0938"/><ellipse cx="1205.5" cy="279.7422" fill="none" rx="3" ry="3" style="stroke:#038048;stroke-width:1.0;"/><text fill="#000000" font-family="sans-serif" font-size="14" lengthAdjust="spacing" textLength="98" x="1214.5" y="283.0889">POST /panels/</text><ellipse cx="1205.5" cy="296.0391" fill="none" rx="3" ry="3" style="stroke:#038048;stroke-width:1.0;"/><text fill="#000000" font-family="sans-serif" font-size="14" lengthAdjust="spacing" textLength="169" x="1214.5" y="299.3857">GET /panels//{panel_id}</text><ellipse cx="1205.5" cy="312.3359" fill="none" rx="3" ry="3" style="stroke:#038048;stroke-width:1.0;"/><text fill="#000000" font-family="sans-serif" font-size="14" lengthAdjust="spacing" textLength="181" x="1214.5" y="315.6826">GET /panels/list/{user_id}</text></g><g id="elem_prsls_endpoints"><rect fill="#F1F1F1" height="240.1563" style="stroke:#181818;stroke-width:0.5;" width="333" x="804.5" y="164.2969"/><text fill="#000000" font-family="sans-serif" font-size="14" lengthAdjust="spacing" textLength="110" x="916" y="179.292">prsls_endpoints</text><line style="stroke:#181818;stroke-width:0.5;" x1="805.5" x2="1136.5" y1="184.5938" y2="184.5938"/><ellipse cx="815.5" cy="198.2422" fill="none" rx="3" ry="3" style="stroke:#038048;stroke-width:1.0;"/><text fill="#000000" font-family="sans-serif" font-size="14" lengthAdjust="spacing" textLength="129" x="824.5" y="201.5889">POST /prsls/create</text><ellipse cx="815.5" cy="214.5391" fill="none" rx="3" ry="3" style="stroke:#038048;stroke-width:1.0;"/><text fill="#000000" font-family="sans-serif" font-size="14" lengthAdjust="spacing" textLength="124" x="824.5" y="217.8857">POST /prsls/batch</text><ellipse cx="815.5" cy="230.8359" fill="none" rx="3" ry="3" style="stroke:#038048;stroke-width:1.0;"/><text fill="#000000" font-family="sans-serif" font-size="14" lengthAdjust="spacing" textLength="137" x="824.5" y="234.1826">POST /prsls/validate</text><ellipse cx="815.5" cy="247.1328" fill="none" rx="3" ry="3" style="stroke:#038048;stroke-width:1.0;"/><text fill="#000000" font-family="sans-serif" font-size="14" lengthAdjust="spacing" textLength="166" x="824.5" y="250.4795">POST /prsls/send-email/</text><ellipse cx="815.5" cy="263.4297" fill="none" rx="3" ry="3" style="stroke:#038048;stroke-width:1.0;"/><text fill="#000000" font-family="sans-serif" font-size="14" lengthAdjust="spacing" textLength="287" x="824.5" y="266.7764">POST /prsls/signed-url/upload/{filename}</text><ellipse cx="815.5" cy="279.7266" fill="none" rx="3" ry="3" style="stroke:#038048;stroke-width:1.0;"/><text fill="#000000" font-family="sans-serif" font-size="14" lengthAdjust="spacing" textLength="307" x="824.5" y="283.0732">POST /prsls/signed-url/download/{filename}</text><ellipse cx="815.5" cy="296.0234" fill="none" rx="3" ry="3" style="stroke:#038048;stroke-width:1.0;"/><text fill="#000000" font-family="sans-serif" font-size="14" lengthAdjust="spacing" textLength="284" x="824.5" y="299.3701">POST /prsls/signed-url/delete/{filename}</text><ellipse cx="815.5" cy="312.3203" fill="none" rx="3" ry="3" style="stroke:#038048;stroke-width:1.0;"/><text fill="#000000" font-family="sans-serif" font-size="14" lengthAdjust="spacing" textLength="160" x="824.5" y="315.667">GET /prsls/osd/{cycle}</text><ellipse cx="815.5" cy="328.6172" fill="none" rx="3" ry="3" style="stroke:#038048;stroke-width:1.0;"/><text fill="#000000" font-family="sans-serif" font-size="14" lengthAdjust="spacing" textLength="173" x="824.5" y="331.9639">GET /prsls/{proposal_id}</text><ellipse cx="815.5" cy="344.9141" fill="none" rx="3" ry="3" style="stroke:#038048;stroke-width:1.0;"/><text fill="#000000" font-family="sans-serif" font-size="14" lengthAdjust="spacing" textLength="185" x="824.5" y="348.2607">GET /prsls/status/{status}</text><ellipse cx="815.5" cy="361.2109" fill="none" rx="3" ry="3" style="stroke:#038048;stroke-width:1.0;"/><text fill="#000000" font-family="sans-serif" font-size="14" lengthAdjust="spacing" textLength="195" x="824.5" y="364.5576">GET /prsls/reviews/{prsl_id}</text><ellipse cx="815.5" cy="377.5078" fill="none" rx="3" ry="3" style="stroke:#038048;stroke-width:1.0;"/><text fill="#000000" font-family="sans-serif" font-size="14" lengthAdjust="spacing" textLength="168" x="824.5" y="380.8545">GET /prsls/list/{user_id}</text><ellipse cx="815.5" cy="393.8047" fill="none" rx="3" ry="3" style="stroke:#038048;stroke-width:1.0;"/><text fill="#000000" font-family="sans-serif" font-size="14" lengthAdjust="spacing" textLength="172" x="824.5" y="397.1514">PUT /prsls/{proposal_id}</text></g><g id="elem_report_endpoints"><rect fill="#F1F1F1" height="44.5938" style="stroke:#181818;stroke-width:0.5;" width="133" x="614.5" y="261.7969"/><text fill="#000000" font-family="sans-serif" font-size="14" lengthAdjust="spacing" textLength="119" x="621.5" y="276.792">report_endpoints</text><line style="stroke:#181818;stroke-width:0.5;" x1="615.5" x2="746.5" y1="282.0938" y2="282.0938"/><ellipse cx="625.5" cy="295.7422" fill="none" rx="3" ry="3" style="stroke:#038048;stroke-width:1.0;"/><text fill="#000000" font-family="sans-serif" font-size="14" lengthAdjust="spacing" textLength="85" x="634.5" y="299.0889">GET /report/</text></g><g id="elem_reviewers_endpoints"><rect fill="#F1F1F1" height="44.5938" style="stroke:#181818;stroke-width:0.5;" width="157" x="400.5" y="261.7969"/><text fill="#000000" font-family="sans-serif" font-size="14" lengthAdjust="spacing" textLength="143" x="407.5" y="276.792">reviewers_endpoints</text><line style="stroke:#181818;stroke-width:0.5;" x1="401.5" x2="556.5" y1="282.0938" y2="282.0938"/><ellipse cx="411.5" cy="295.7422" fill="none" rx="3" ry="3" style="stroke:#038048;stroke-width:1.0;"/><text fill="#000000" font-family="sans-serif" font-size="14" lengthAdjust="spacing" textLength="104" x="420.5" y="299.0889">GET /reviewers</text></g><g id="elem_reviews_endpoints"><rect fill="#F1F1F1" height="93.4844" style="stroke:#181818;stroke-width:0.5;" width="213" x="1457.5" y="237.7969"/><text fill="#000000" font-family="sans-serif" font-size="14" lengthAdjust="spacing" textLength="129" x="1499.5" y="252.792">reviews_endpoints</text><line style="stroke:#181818;stroke-width:0.5;" x1="1458.5" x2="1669.5" y1="258.0938" y2="258.0938"/><ellipse cx="1468.5" cy="271.7422" fill="none" rx="3" ry="3" style="stroke:#038048;stroke-width:1.0;"/><text fill="#000000" font-family="sans-serif" font-size="14" lengthAdjust="spacing" textLength="99" x="1477.5" y="275.0889">POST /reviews</text><ellipse cx="1468.5" cy="288.0391" fill="none" rx="3" ry="3" style="stroke:#038048;stroke-width:1.0;"/><text fill="#000000" font-family="sans-serif" font-size="14" lengthAdjust="spacing" textLength="176" x="1477.5" y="291.3857">GET /reviews/{review_id}</text><ellipse cx="1468.5" cy="304.3359" fill="none" rx="3" ry="3" style="stroke:#038048;stroke-width:1.0;"/><text fill="#000000" font-family="sans-serif" font-size="14" lengthAdjust="spacing" textLength="187" x="1477.5" y="307.6826">GET /reviews/list/{user_id}</text><ellipse cx="1468.5" cy="320.6328" fill="none" rx="3" ry="3" style="stroke:#038048;stroke-width:1.0;"/><text fill="#000000" font-family="sans-serif" font-size="14" lengthAdjust="spacing" textLength="175" x="1477.5" y="323.9795">PUT /reviews/{review_id}</text></g><g id="elem_email_helper_items"><rect fill="#F1F1F1" height="60.8906" style="stroke:#181818;stroke-width:0.5;" width="161" x="763.5" y="586.7969"/><text fill="#000000" font-family="sans-serif" font-size="14" lengthAdjust="spacing" textLength="132" x="778" y="601.792">email_helper_items</text><line style="stroke:#181818;stroke-width:0.5;" x1="764.5" x2="923.5" y1="607.0938" y2="607.0938"/><ellipse cx="774.5" cy="620.7422" fill="#84BE84" rx="3" ry="3" style="stroke:#038048;stroke-width:1.0;"/><text fill="#000000" font-family="sans-serif" font-size="14" lengthAdjust="spacing" textLength="99" x="783.5" y="624.0889">render_email()</text><ellipse cx="774.5" cy="637.0391" fill="#84BE84" rx="3" ry="3" style="stroke:#038048;stroke-width:1.0;"/><text fill="#000000" font-family="sans-serif" font-size="14" lengthAdjust="spacing" textLength="135" x="783.5" y="640.3857">send_email_async()</text></g><g id="elem_pht_handler_items"><rect fill="#F1F1F1" height="93.4844" style="stroke:#181818;stroke-width:0.5;" width="320" x="387" y="570.7969"/><text fill="#000000" font-family="sans-serif" font-size="14" lengthAdjust="spacing" textLength="127" x="483.5" y="585.792">pht_handler_items</text><line style="stroke:#181818;stroke-width:0.5;" x1="388" x2="706" y1="591.0938" y2="591.0938"/><ellipse cx="398" cy="604.7422" fill="#84BE84" rx="3" ry="3" style="stroke:#038048;stroke-width:1.0;"/><text fill="#000000" font-family="sans-serif" font-size="14" lengthAdjust="spacing" textLength="199" x="407" y="608.0889">transform_update_proposal()</text><ellipse cx="398" cy="621.0391" fill="#84BE84" rx="3" ry="3" style="stroke:#038048;stroke-width:1.0;"/><text fill="#000000" font-family="sans-serif" font-size="14" lengthAdjust="spacing" textLength="165" x="407" y="624.3857">get_latest_entity_by_id()</text><ellipse cx="398" cy="637.3359" fill="#84BE84" rx="3" ry="3" style="stroke:#038048;stroke-width:1.0;"/><text fill="#000000" font-family="sans-serif" font-size="14" lengthAdjust="spacing" textLength="122" x="407" y="640.6826">_get_array_class()</text><ellipse cx="398" cy="653.6328" fill="#84BE84" rx="3" ry="3" style="stroke:#038048;stroke-width:1.0;"/><text fill="#000000" font-family="sans-serif" font-size="14" lengthAdjust="spacing" textLength="294" x="407" y="656.9795">join_proposals_panels_reviews_decisions()</text></g><g id="elem_s3_bucket_functions"><rect fill="#F1F1F1" height="142.375" style="stroke:#181818;stroke-width:0.5;" width="284" x="1386" y="546.2969"/><text fill="#000000" font-family="sans-serif" font-size="14" lengthAdjust="spacing" textLength="143" x="1456.5" y="561.292">s3_bucket_functions</text><line style="stroke:#181818;stroke-width:0.5;" x1="1387" x2="1669" y1="566.5938" y2="566.5938"/><ellipse cx="1397" cy="580.2422" fill="#84BE84" rx="3" ry="3" style="stroke:#038048;stroke-width:1.0;"/><text fill="#000000" font-family="sans-serif" font-size="14" lengthAdjust="spacing" textLength="125" x="1406" y="583.5889">S3Method (Enum)</text><ellipse cx="1397" cy="596.5391" fill="none" rx="3" ry="3" style="stroke:#038048;stroke-width:1.0;"/><text fill="#000000" font-family="sans-serif" font-size="14" lengthAdjust="spacing" textLength="62" x="1406" y="599.8857">S3Config</text><ellipse cx="1397" cy="612.8359" fill="#84BE84" rx="3" ry="3" style="stroke:#038048;stroke-width:1.0;"/><text fill="#000000" font-family="sans-serif" font-size="14" lengthAdjust="spacing" textLength="111" x="1406" y="616.1826">get_aws_client()</text><ellipse cx="1397" cy="629.1328" fill="#84BE84" rx="3" ry="3" style="stroke:#038048;stroke-width:1.0;"/><text fill="#000000" font-family="sans-serif" font-size="14" lengthAdjust="spacing" textLength="174" x="1406" y="632.4795">generate_presigned_url()</text><ellipse cx="1397" cy="645.4297" fill="#84BE84" rx="3" ry="3" style="stroke:#038048;stroke-width:1.0;"/><text fill="#000000" font-family="sans-serif" font-size="14" lengthAdjust="spacing" textLength="238" x="1406" y="648.7764">create_presigned_url_upload_pdf()</text><ellipse cx="1397" cy="661.7266" fill="#84BE84" rx="3" ry="3" style="stroke:#038048;stroke-width:1.0;"/><text fill="#000000" font-family="sans-serif" font-size="14" lengthAdjust="spacing" textLength="258" x="1406" y="665.0732">create_presigned_url_download_pdf()</text><ellipse cx="1397" cy="678.0234" fill="#84BE84" rx="3" ry="3" style="stroke:#038048;stroke-width:1.0;"/><text fill="#000000" font-family="sans-serif" font-size="14" lengthAdjust="spacing" textLength="235" x="1406" y="681.3701">create_presigned_url_delete_pdf()</text></g><!--class validate_duplicates--><g id="elem_validate_duplicates"><rect codeLine="93" fill="#F1F1F1" height="56.2656" id="validate_duplicates" rx="2.5" ry="2.5" style="stroke:#181818;stroke-width:0.5;" width="162" x="1168" y="589.2969"/><ellipse cx="1183" cy="609.4297" fill="#ADD1B2" rx="11" ry="11" style="stroke:#181818;stroke-width:1.0;"/><path d="M1185.9688,615.0703 Q1185.3906,615.3672 1184.75,615.5078 Q1184.1094,615.6641 1183.4063,615.6641 Q1180.9063,615.6641 1179.5781,614.0234 Q1178.2656,612.3672 1178.2656,609.2422 Q1178.2656,606.1172 1179.5781,604.4609 Q1180.9063,602.8047 1183.4063,602.8047 Q1184.1094,602.8047 1184.75,602.9609 Q1185.4063,603.1172 1185.9688,603.4141 L1185.9688,606.1328 Q1185.3438,605.5547 1184.75,605.2891 Q1184.1563,605.0078 1183.5313,605.0078 Q1182.1875,605.0078 1181.5,606.0859 Q1180.8125,607.1484 1180.8125,609.2422 Q1180.8125,611.3359 1181.5,612.4141 Q1182.1875,613.4766 1183.5313,613.4766 Q1184.1563,613.4766 1184.75,613.2109 Q1185.3438,612.9297 1185.9688,612.3516 L1185.9688,615.0703 Z " fill="#000000"/><text fill="#000000" font-family="sans-serif" font-size="12" font-style="italic" lengthAdjust="spacing" textLength="65" x="1229.5" y="605.4355">«function»</text><text fill="#000000" font-family="sans-serif" font-size="14" lengthAdjust="spacing" textLength="130" x="1197" y="621.2607">validate_duplicates</text><line style="stroke:#181818;stroke-width:0.5;" x1="1169" x2="1329" y1="629.5625" y2="629.5625"/><line style="stroke:#181818;stroke-width:0.5;" x1="1169" x2="1329" y1="637.5625" y2="637.5625"/></g><!--class validate_proposal--><g id="elem_validate_proposal"><rect codeLine="94" fill="#F1F1F1" height="56.2656" id="validate_proposal" rx="2.5" ry="2.5" style="stroke:#181818;stroke-width:0.5;" width="151" x="981.5" y="589.2969"/><ellipse cx="996.5" cy="609.4297" fill="#ADD1B2" rx="11" ry="11" style="stroke:#181818;stroke-width:1.0;"/><path d="M999.4688,615.0703 Q998.8906,615.3672 998.25,615.5078 Q997.6094,615.6641 996.9063,615.6641 Q994.4063,615.6641 993.0781,614.0234 Q991.7656,612.3672 991.7656,609.2422 Q991.7656,606.1172 993.0781,604.4609 Q994.4063,602.8047 996.9063,602.8047 Q997.6094,602.8047 998.25,602.9609 Q998.9063,603.1172 999.4688,603.4141 L999.4688,606.1328 Q998.8438,605.5547 998.25,605.2891 Q997.6563,605.0078 997.0313,605.0078 Q995.6875,605.0078 995,606.0859 Q994.3125,607.1484 994.3125,609.2422 Q994.3125,611.3359 995,612.4141 Q995.6875,613.4766 997.0313,613.4766 Q997.6563,613.4766 998.25,613.2109 Q998.8438,612.9297 999.4688,612.3516 L999.4688,615.0703 Z " fill="#000000"/><text fill="#000000" font-family="sans-serif" font-size="12" font-style="italic" lengthAdjust="spacing" textLength="65" x="1037.5" y="605.4355">«function»</text><text fill="#000000" font-family="sans-serif" font-size="14" lengthAdjust="spacing" textLength="119" x="1010.5" y="621.2607">validate_proposal</text><line style="stroke:#181818;stroke-width:0.5;" x1="982.5" x2="1131.5" y1="629.5625" y2="629.5625"/><line style="stroke:#181818;stroke-width:0.5;" x1="982.5" x2="1131.5" y1="637.5625" y2="637.5625"/></g><!--entity constants--><g id="elem_constants"><rect fill="#F1F1F1" height="36.2969" rx="2.5" ry="2.5" style="stroke:#181818;stroke-width:0.5;" width="89" x="262.5" y="599.2969"/><text fill="#000000" font-family="sans-serif" font-size="14" lengthAdjust="spacing" textLength="69" x="272.5" y="622.292">constants</text></g><!--link prsls_endpoints to validate_proposal--><g id="link_prsls_endpoints_validate_proposal"><path codeLine="102" d="M1001.93,404.3269 C1018.59,468.4469 1037.87,542.6869 1048.63,584.0969 " fill="none" id="prsls_endpoints-to-validate_proposal" style="stroke:#181818;stroke-width:1.0;"/><polygon fill="#181818" points="1049.9,588.9869,1051.5103,579.2706,1048.6437,584.1473,1043.767,581.2806,1049.9,588.9869" style="stroke:#181818;stroke-width:1.0;"/></g><!--link prsls_endpoints to email_helper_items--><g id="link_prsls_endpoints_email_helper_items"><path codeLine="103" d="M925.33,404.3269 C901.16,467.3269 873.24,540.0969 857.2,581.9069 " fill="none" id="prsls_endpoints-to-email_helper_items" style="stroke:#181818;stroke-width:1.0;"/><polygon fill="#181818" points="855.4,586.5969,862.3685,579.637,857.1978,581.9313,854.9035,576.7605,855.4,586.5969" style="stroke:#181818;stroke-width:1.0;"/></g><!--link prsls_endpoints to pht_handler_items--><g id="link_prsls_endpoints_pht_handler_items"><path codeLine="104" d="M832.65,404.3069 C810.34,421.3169 786.99,437.9069 764,452.2969 C756.92,456.7269 754.11,455.9269 747,460.2969 C695.6,491.8869 641.93,534.3469 603.15,566.9969 " fill="none" id="prsls_endpoints-to-pht_handler_items" style="stroke:#181818;stroke-width:1.0;"/><polygon fill="#181818" points="598.97,570.5269,608.4289,567.7828,602.7923,567.3036,603.2716,561.667,598.97,570.5269" style="stroke:#181818;stroke-width:1.0;"/></g><!--link prsls_endpoints to s3_bucket_functions--><g id="link_prsls_endpoints_s3_bucket_functions"><path codeLine="105" d="M1093.32,404.3169 C1119.45,423.6269 1148.22,440.9769 1178,452.2969 C1212.94,465.5769 1311.26,446.4969 1346,460.2969 C1390.41,477.9369 1431.6,511.1369 1463.52,542.3969 " fill="none" id="prsls_endpoints-to-s3_bucket_functions" style="stroke:#181818;stroke-width:1.0;"/><polygon fill="#181818" points="1467.37,546.1969,1463.7788,537.0261,1463.8131,542.6828,1458.1564,542.7171,1467.37,546.1969" style="stroke:#181818;stroke-width:1.0;"/></g><!--link panels_endpoints to validate_duplicates--><g id="link_panels_endpoints_validate_duplicates"><path codeLine="106" d="M1292.43,322.9469 C1282.72,388.5369 1262.86,522.6469 1253.76,584.1569 " fill="none" id="panels_endpoints-to-validate_duplicates" style="stroke:#181818;stroke-width:1.0;"/><polygon fill="#181818" points="1253.02,589.1769,1258.3132,580.8713,1253.7631,584.2324,1250.402,579.6823,1253.02,589.1769" style="stroke:#181818;stroke-width:1.0;"/></g><!--link report_endpoints to pht_handler_items--><g id="link_report_endpoints_pht_handler_items"><path codeLine="107" d="M672.21,307.0169 C651.1,359.1569 597.11,492.5269 567.38,565.9469 " fill="none" id="report_endpoints-to-pht_handler_items" style="stroke:#181818;stroke-width:1.0;"/><polygon fill="#181818" points="565.46,570.6969,572.5346,563.8449,567.3292,566.0594,565.1147,560.8541,565.46,570.6969" style="stroke:#181818;stroke-width:1.0;"/></g><!--link reviewers_endpoints to constants--><g id="link_reviewers_endpoints_constants"><path codeLine="108" d="M463.99,306.9969 C441.94,339.4269 400.25,402.8769 371,460.2969 C347.51,506.4069 325.95,563.2169 314.85,593.9669 " fill="none" id="reviewers_endpoints-to-constants" style="stroke:#181818;stroke-width:1.0;"/><polygon fill="#181818" points="313.03,599.0369,319.8527,591.934,314.7307,594.335,312.3297,589.2129,313.03,599.0369" style="stroke:#181818;stroke-width:1.0;"/></g><!--SRC=[dPOxRzim4CTtVGeYInEqXePiHU2b2Tgbg96aNGbQEjkCAP8WgGI2uU_UaoZ9BqgYeyKF_Ouy_kz5fpHnYYoLSweWEJUGEQvaaZZk1917S8mBoCa_3X_VoUBNQv9ebctP6iYDthWRmYp1JwgtQx9B4e9F_vvfVaCU7fvnIIRN0kRp3Zd1D9CWQ0uPjxZpfGKvUjJo3T-HKnCACjUAIsTFuVhvIXP_Nbv9sbZCEWkR1i2VJm5krs_2ytsiaU3MfRlIWXcmMlozQgl3hyEt0HqjBPZ4dmL85o-bFKX89ZISaCwcwSv7PqglKPaYJsoii76dhCceFAd1D3F074n0I-QopGJppWJFfvUowDaC2YorT8haQmdvh3GYBRLGB4ztAonGoGhOnvlcwaD-tXW4E1WtzM5kB9N5RR8g4rFWJXkbbMNZgUEzSSoLQE4_9s03xzYyclLjnDgHnJlXyd42NoQk0QrCN7rwT3nr6-yzc5xbHIqC61lfI4j7-TAodoZgDbnN-1HLs2qwxZ56r7yPIvCEZKkKgONFHTcV3T7IyR4UrtDDzw0R41fCb7R71fGxACAjtw2s23JqxLq0g7kNVqsPhMHs1eM2Vdo3e1icSn7fyn4_uh8pJDgLCWKjTTryQLUbGV_NuAX0ojP5XhUUYYuhZ5AGfJNCZ64LpGIpDWYzOIRsMrhQ3jWkLVjvVurEzfukosmBSIsZf-cgbCrrBgpJo_rlS1kLazidMHPtGUA7aYk-7f2DuNaomL6s0MKb6Ay_-Fb1SNu4KJzmJq7g1npL-IhUffjiLrer8orWCngLThXFNbgRL27TLO3cU2wUrHc7Lbs4vlCnaowRmWPZtJJ3uADRRgI5T7sdN-0BcSrcv1b4SpQxuTf-mpxWIYE9gpJwhQIeQiYtgjEx5Vu_l_HyaBniGuFeHVKFae4AQBlgsMNtnDT3O1huVFAE-12OZGtTg-_5JVR_0G00]--></g></svg>