<?xml version="1.0" encoding="UTF-8" standalone="no"?><svg xmlns="http://www.w3.org/2000/svg" xmlns:xlink="http://www.w3.org/1999/xlink" contentStyleType="text/css" height="1091px" preserveAspectRatio="none" style="width:3047px;height:1091px;background:#FFFFFF;" version="1.1" viewBox="0 0 3047 1091" width="3047px" zoomAndPan="magnify"><defs/><g><!--cluster common_pkg--><g id="cluster_common_pkg"><path d="M20.0825,146 L88.0825,146 A3.75,3.75 0 0 1 90.5825,148.5 L97.5825,168.2969 L1993.0825,168.2969 A2.5,2.5 0 0 1 1995.5825,170.7969 L1995.5825,468.5 A2.5,2.5 0 0 1 1993.0825,471 L20.0825,471 A2.5,2.5 0 0 1 17.5825,468.5 L17.5825,148.5 A2.5,2.5 0 0 1 20.0825,146 " fill="none" style="stroke:#000000;stroke-width:1.5;"/><line style="stroke:#000000;stroke-width:1.5;" x1="17.5825" x2="97.5825" y1="168.2969" y2="168.2969"/><text fill="#000000" font-family="sans-serif" font-size="14" font-weight="bold" lengthAdjust="spacing" textLength="67" x="21.5825" y="160.9951">common</text></g><!--cluster constants--><g id="cluster_constants"><rect fill="none" height="177" rx="2.5" ry="2.5" style="stroke:#181818;stroke-width:1.0;" width="342" x="1035.5825" y="229.5"/><text fill="#000000" font-family="sans-serif" font-size="14" font-weight="bold" lengthAdjust="spacing" textLength="78" x="1167.5825" y="244.4951">constants</text></g><!--cluster api.coordinates--><g id="cluster_api.coordinates"><rect fill="none" height="144" rx="2.5" ry="2.5" style="stroke:#181818;stroke-width:1.0;" width="230" x="781.5825" y="246"/><text fill="#000000" font-family="sans-serif" font-size="14" font-weight="bold" lengthAdjust="spacing" textLength="122" x="835.5825" y="260.9951">api.coordinates</text></g><!--cluster auth--><g id="cluster_auth"><rect fill="none" height="96" rx="2.5" ry="2.5" style="stroke:#181818;stroke-width:1.0;" width="122" x="635.5825" y="270"/><text fill="#000000" font-family="sans-serif" font-size="14" font-weight="bold" lengthAdjust="spacing" textLength="35" x="679.0825" y="284.9951">auth</text></g><!--cluster coordinateslookup--><g id="cluster_coordinateslookup"><rect fill="none" height="177" rx="2.5" ry="2.5" style="stroke:#181818;stroke-width:1.0;" width="220" x="391.5825" y="229.5"/><text fill="#000000" font-family="sans-serif" font-size="14" font-weight="bold" lengthAdjust="spacing" textLength="147" x="428.0825" y="244.4951">coordinateslookup</text></g><!--cluster error_handling--><g id="cluster_error_handling"><rect fill="none" height="242" rx="2.5" ry="2.5" style="stroke:#181818;stroke-width:1.0;" width="310" x="57.5825" y="197"/><text fill="#000000" font-family="sans-serif" font-size="14" font-weight="bold" lengthAdjust="spacing" textLength="115" x="155.0825" y="211.9951">error_handling</text></g><!--cluster model--><g id="cluster_model"><rect fill="none" height="144" rx="2.5" ry="2.5" style="stroke:#181818;stroke-width:1.0;" width="234" x="1729.5825" y="246"/><text fill="#000000" font-family="sans-serif" font-size="14" font-weight="bold" lengthAdjust="spacing" textLength="48" x="1822.5825" y="260.9951">model</text></g><!--cluster osdmapper--><g id="cluster_osdmapper"><rect fill="none" height="210" rx="2.5" ry="2.5" style="stroke:#181818;stroke-width:1.0;" width="304" x="1401.5825" y="213"/><text fill="#000000" font-family="sans-serif" font-size="14" font-weight="bold" lengthAdjust="spacing" textLength="89" x="1509.0825" y="227.9951">osdmapper</text></g><!--cluster odt_pkg--><g id="cluster_odt_pkg"><path d="M885.0825,511 L912.0825,511 A3.75,3.75 0 0 1 914.5825,513.5 L921.5825,533.2969 L1199.0825,533.2969 A2.5,2.5 0 0 1 1201.5825,535.7969 L1201.5825,600.5 A2.5,2.5 0 0 1 1199.0825,603 L885.0825,603 A2.5,2.5 0 0 1 882.5825,600.5 L882.5825,513.5 A2.5,2.5 0 0 1 885.0825,511 " fill="none" style="stroke:#000000;stroke-width:1.5;"/><line style="stroke:#000000;stroke-width:1.5;" x1="882.5825" x2="921.5825" y1="533.2969" y2="533.2969"/><text fill="#000000" font-family="sans-serif" font-size="14" font-weight="bold" lengthAdjust="spacing" textLength="26" x="886.5825" y="525.9951">odt</text></g><!--cluster pht_pkg--><g id="cluster_pht_pkg"><path d="M885.0825,643 L912.0825,643 A3.75,3.75 0 0 1 914.5825,645.5 L921.5825,665.2969 L3038.0825,665.2969 A2.5,2.5 0 0 1 3040.5825,667.7969 L3040.5825,1081.5 A2.5,2.5 0 0 1 3038.0825,1084 L885.0825,1084 A2.5,2.5 0 0 1 882.5825,1081.5 L882.5825,645.5 A2.5,2.5 0 0 1 885.0825,643 " fill="none" style="stroke:#000000;stroke-width:1.5;"/><line style="stroke:#000000;stroke-width:1.5;" x1="882.5825" x2="921.5825" y1="665.2969" y2="665.2969"/><text fill="#000000" font-family="sans-serif" font-size="14" font-weight="bold" lengthAdjust="spacing" textLength="26" x="886.5825" y="657.9951">pht</text></g><!--cluster api--><g id="cluster_api"><rect fill="none" height="358" rx="2.5" ry="2.5" style="stroke:#181818;stroke-width:1.0;" width="1460" x="922.5825" y="694"/><text fill="#000000" font-family="sans-serif" font-size="14" font-weight="bold" lengthAdjust="spacing" textLength="23" x="1641.0825" y="708.9951">api</text></g><!--cluster panel_decision--><g id="cluster_panel_decision"><rect fill="none" height="144" rx="2.5" ry="2.5" style="stroke:#181818;stroke-width:1.0;" width="272" x="946.5825" y="810.5"/><text fill="#000000" font-family="sans-serif" font-size="14" font-weight="bold" lengthAdjust="spacing" textLength="116" x="1024.5825" y="825.4951">panel_decision</text></g><!--cluster panels--><g id="cluster_panels"><rect fill="none" height="128" rx="2.5" ry="2.5" style="stroke:#181818;stroke-width:1.0;" width="208" x="1508.5825" y="818.5"/><text fill="#000000" font-family="sans-serif" font-size="14" font-weight="bold" lengthAdjust="spacing" textLength="52" x="1586.5825" y="833.4951">panels</text></g><!--cluster prsls--><g id="cluster_prsls"><rect fill="none" height="291" rx="2.5" ry="2.5" style="stroke:#181818;stroke-width:1.0;" width="242" x="1242.5825" y="737"/><text fill="#000000" font-family="sans-serif" font-size="14" font-weight="bold" lengthAdjust="spacing" textLength="39" x="1344.0825" y="751.9951">prsls</text></g><!--cluster report--><g id="cluster_report"><rect fill="none" height="96" rx="2.5" ry="2.5" style="stroke:#181818;stroke-width:1.0;" width="166" x="1954.5825" y="834.5"/><text fill="#000000" font-family="sans-serif" font-size="14" font-weight="bold" lengthAdjust="spacing" textLength="50" x="2012.5825" y="849.4951">report</text></g><!--cluster reviewers--><g id="cluster_reviewers"><rect fill="none" height="96" rx="2.5" ry="2.5" style="stroke:#181818;stroke-width:1.0;" width="190" x="1740.5825" y="834.5"/><text fill="#000000" font-family="sans-serif" font-size="14" font-weight="bold" lengthAdjust="spacing" textLength="80" x="1795.5825" y="849.4951">reviewers</text></g><!--cluster reviews--><g id="cluster_reviews"><rect fill="none" height="144" rx="2.5" ry="2.5" style="stroke:#181818;stroke-width:1.0;" width="214" x="2144.5825" y="810.5"/><text fill="#000000" font-family="sans-serif" font-size="14" font-weight="bold" lengthAdjust="spacing" textLength="63" x="2220.0825" y="825.4951">reviews</text></g><!--cluster pht.utils--><g id="cluster_pht.utils"><rect fill="none" height="76" rx="2.5" ry="2.5" style="stroke:#181818;stroke-width:1.0;" width="282" x="2726.5825" y="844.5"/><text fill="#000000" font-family="sans-serif" font-size="14" font-weight="bold" lengthAdjust="spacing" textLength="64" x="2835.5825" y="859.4951">pht.utils</text></g><!--cluster pht.model--><g id="cluster_pht.model"><rect fill="none" height="76" rx="2.5" ry="2.5" style="stroke:#181818;stroke-width:1.0;" width="296" x="2406.5825" y="844.5"/><text fill="#000000" font-family="sans-serif" font-size="14" font-weight="bold" lengthAdjust="spacing" textLength="79" x="2515.0825" y="859.4951">pht.model</text></g><!--cluster app--><g id="cluster_app"><rect fill="none" height="107" rx="2.5" ry="2.5" style="stroke:#181818;stroke-width:1.0;" width="142" x="1966.5825" y="7"/><text fill="#000000" font-family="sans-serif" font-size="14" font-weight="bold" lengthAdjust="spacing" textLength="29" x="2023.0825" y="21.9951">app</text></g><g id="elem_constants_items"><rect fill="#F1F1F1" height="126.0781" style="stroke:#181818;stroke-width:0.5;" width="310" x="1051.5825" y="264.5"/><text fill="#000000" font-family="sans-serif" font-size="14" lengthAdjust="spacing" textLength="114" x="1149.5825" y="279.4951">constants_items</text><line style="stroke:#181818;stroke-width:0.5;" x1="1052.5825" x2="1360.5825" y1="284.7969" y2="284.7969"/><ellipse cx="1062.5825" cy="298.4453" fill="none" rx="3" ry="3" style="stroke:#038048;stroke-width:1.0;"/><text fill="#000000" font-family="sans-serif" font-size="14" lengthAdjust="spacing" textLength="187" x="1071.5825" y="301.792">MID_CHANNEL_WIDTH_KHZ</text><ellipse cx="1062.5825" cy="314.7422" fill="none" rx="3" ry="3" style="stroke:#038048;stroke-width:1.0;"/><text fill="#000000" font-family="sans-serif" font-size="14" lengthAdjust="spacing" textLength="224" x="1071.5825" y="318.0889">MID_20_CHANNELS_WIDTH_MHZ</text><ellipse cx="1062.5825" cy="331.0391" fill="none" rx="3" ry="3" style="stroke:#038048;stroke-width:1.0;"/><text fill="#000000" font-family="sans-serif" font-size="14" lengthAdjust="spacing" textLength="262" x="1071.5825" y="334.3857">LOW_STATION_CHANNEL_WIDTH_MHZ</text><ellipse cx="1062.5825" cy="347.3359" fill="none" rx="3" ry="3" style="stroke:#038048;stroke-width:1.0;"/><text fill="#000000" font-family="sans-serif" font-size="14" lengthAdjust="spacing" textLength="196" x="1071.5825" y="350.6826">LOW_CHANNEL_BLOCK_MHZ</text><ellipse cx="1062.5825" cy="363.6328" fill="none" rx="3" ry="3" style="stroke:#038048;stroke-width:1.0;"/><text fill="#000000" font-family="sans-serif" font-size="14" lengthAdjust="spacing" textLength="284" x="1071.5825" y="366.9795">LOW_CONTINUUM_CHANNEL_WIDTH_KHZ</text><ellipse cx="1062.5825" cy="379.9297" fill="none" rx="3" ry="3" style="stroke:#038048;stroke-width:1.0;"/><text fill="#000000" font-family="sans-serif" font-size="14" lengthAdjust="spacing" textLength="226" x="1071.5825" y="383.2764">LOW_PST_CHANNEL_WIDTH_KHZ</text></g><g id="elem_coordinates_items"><rect fill="#F1F1F1" height="93.4844" style="stroke:#181818;stroke-width:0.5;" width="198" x="797.5825" y="281"/><text fill="#000000" font-family="sans-serif" font-size="14" lengthAdjust="spacing" textLength="127" x="833.0825" y="295.9951">coordinates_items</text><line style="stroke:#181818;stroke-width:0.5;" x1="798.5825" x2="994.5825" y1="301.2969" y2="301.2969"/><ellipse cx="808.5825" cy="314.9453" fill="none" rx="3" ry="3" style="stroke:#038048;stroke-width:1.0;"/><text fill="#000000" font-family="sans-serif" font-size="14" lengthAdjust="spacing" textLength="115" x="817.5825" y="318.292">ReferenceFrame</text><ellipse cx="808.5825" cy="331.2422" fill="none" rx="3" ry="3" style="stroke:#038048;stroke-width:1.0;"/><text fill="#000000" font-family="sans-serif" font-size="14" lengthAdjust="spacing" textLength="139" x="817.5825" y="334.5889">EquatorialResponse</text><ellipse cx="808.5825" cy="347.5391" fill="none" rx="3" ry="3" style="stroke:#038048;stroke-width:1.0;"/><text fill="#000000" font-family="sans-serif" font-size="14" lengthAdjust="spacing" textLength="125" x="817.5825" y="350.8857">GalacticResponse</text><ellipse cx="808.5825" cy="363.8359" fill="#84BE84" rx="3" ry="3" style="stroke:#038048;stroke-width:1.0;"/><text fill="#000000" font-family="sans-serif" font-size="14" lengthAdjust="spacing" textLength="172" x="817.5825" y="367.1826">get_systemcoordinates()</text></g><g id="elem_auth_items"><rect fill="#F1F1F1" height="44.5938" style="stroke:#181818;stroke-width:0.5;" width="90" x="651.5825" y="305"/><text fill="#000000" font-family="sans-serif" font-size="14" lengthAdjust="spacing" textLength="76" x="658.5825" y="319.9951">auth_items</text><line style="stroke:#181818;stroke-width:0.5;" x1="652.5825" x2="740.5825" y1="325.2969" y2="325.2969"/><ellipse cx="662.5825" cy="338.9453" fill="none" rx="3" ry="3" style="stroke:#038048;stroke-width:1.0;"/><text fill="#000000" font-family="sans-serif" font-size="14" lengthAdjust="spacing" textLength="44" x="671.5825" y="342.292">Scope</text></g><g id="elem_coordinateslookup_items"><rect fill="#F1F1F1" height="126.0781" style="stroke:#181818;stroke-width:0.5;" width="188" x="407.5825" y="264.5"/><text fill="#000000" font-family="sans-serif" font-size="14" lengthAdjust="spacing" textLength="174" x="414.5825" y="279.4951">coordinateslookup_items</text><line style="stroke:#181818;stroke-width:0.5;" x1="408.5825" x2="594.5825" y1="284.7969" y2="284.7969"/><ellipse cx="418.5825" cy="298.4453" fill="none" rx="3" ry="3" style="stroke:#038048;stroke-width:1.0;"/><text fill="#000000" font-family="sans-serif" font-size="14" lengthAdjust="spacing" textLength="68" x="427.5825" y="301.792">Equatorial</text><ellipse cx="418.5825" cy="314.7422" fill="none" rx="3" ry="3" style="stroke:#038048;stroke-width:1.0;"/><text fill="#000000" font-family="sans-serif" font-size="14" lengthAdjust="spacing" textLength="54" x="427.5825" y="318.0889">Galactic</text><ellipse cx="418.5825" cy="331.0391" fill="#84BE84" rx="3" ry="3" style="stroke:#038048;stroke-width:1.0;"/><text fill="#000000" font-family="sans-serif" font-size="14" lengthAdjust="spacing" textLength="98" x="427.5825" y="334.3857">round_coord()</text><ellipse cx="418.5825" cy="347.3359" fill="#84BE84" rx="3" ry="3" style="stroke:#038048;stroke-width:1.0;"/><text fill="#000000" font-family="sans-serif" font-size="14" lengthAdjust="spacing" textLength="149" x="427.5825" y="350.6826">convert_ra_dec_deg()</text><ellipse cx="418.5825" cy="363.6328" fill="#84BE84" rx="3" ry="3" style="stroke:#038048;stroke-width:1.0;"/><text fill="#000000" font-family="sans-serif" font-size="14" lengthAdjust="spacing" textLength="142" x="427.5825" y="366.9795">convert_to_galactic()</text><ellipse cx="418.5825" cy="379.9297" fill="#84BE84" rx="3" ry="3" style="stroke:#038048;stroke-width:1.0;"/><text fill="#000000" font-family="sans-serif" font-size="14" lengthAdjust="spacing" textLength="122" x="427.5825" y="383.2764">get_coordinates()</text></g><g id="elem_error_handling_items"><rect fill="#F1F1F1" height="191.2656" style="stroke:#181818;stroke-width:0.5;" width="278" x="73.5825" y="232"/><text fill="#000000" font-family="sans-serif" font-size="14" lengthAdjust="spacing" textLength="144" x="140.5825" y="246.9951">error_handling_items</text><line style="stroke:#181818;stroke-width:0.5;" x1="74.5825" x2="350.5825" y1="252.2969" y2="252.2969"/><ellipse cx="84.5825" cy="265.9453" fill="#84BE84" rx="3" ry="3" style="stroke:#038048;stroke-width:1.0;"/><text fill="#000000" font-family="sans-serif" font-size="14" lengthAdjust="spacing" textLength="95" x="93.5825" y="269.292">error_details()</text><ellipse cx="84.5825" cy="282.2422" fill="none" rx="3" ry="3" style="stroke:#038048;stroke-width:1.0;"/><text fill="#000000" font-family="sans-serif" font-size="14" lengthAdjust="spacing" textLength="119" x="93.5825" y="285.5889">BadRequestError</text><ellipse cx="84.5825" cy="298.5391" fill="none" rx="3" ry="3" style="stroke:#038048;stroke-width:1.0;"/><text fill="#000000" font-family="sans-serif" font-size="14" lengthAdjust="spacing" textLength="98" x="93.5825" y="301.8857">DuplicateError</text><ellipse cx="84.5825" cy="314.8359" fill="none" rx="3" ry="3" style="stroke:#038048;stroke-width:1.0;"/><text fill="#000000" font-family="sans-serif" font-size="14" lengthAdjust="spacing" textLength="175" x="93.5825" y="318.1826">UnprocessableEntityError</text><ellipse cx="84.5825" cy="331.1328" fill="none" rx="3" ry="3" style="stroke:#038048;stroke-width:1.0;"/><text fill="#000000" font-family="sans-serif" font-size="14" lengthAdjust="spacing" textLength="101" x="93.5825" y="334.4795">NotFoundError</text><ellipse cx="84.5825" cy="347.4297" fill="#84BE84" rx="3" ry="3" style="stroke:#038048;stroke-width:1.0;"/><text fill="#000000" font-family="sans-serif" font-size="14" lengthAdjust="spacing" textLength="128" x="93.5825" y="350.7764">_make_response()</text><ellipse cx="84.5825" cy="363.7266" fill="#84BE84" rx="3" ry="3" style="stroke:#038048;stroke-width:1.0;"/><text fill="#000000" font-family="sans-serif" font-size="14" lengthAdjust="spacing" textLength="172" x="93.5825" y="367.0732">oda_not_found_handler()</text><ellipse cx="84.5825" cy="380.0234" fill="#84BE84" rx="3" ry="3" style="stroke:#038048;stroke-width:1.0;"/><text fill="#000000" font-family="sans-serif" font-size="14" lengthAdjust="spacing" textLength="135" x="93.5825" y="383.3701">oda_error_handler()</text><ellipse cx="84.5825" cy="396.3203" fill="#84BE84" rx="3" ry="3" style="stroke:#038048;stroke-width:1.0;"/><text fill="#000000" font-family="sans-serif" font-size="14" lengthAdjust="spacing" textLength="226" x="93.5825" y="399.667">oda_unique_constraint_handler()</text><ellipse cx="84.5825" cy="412.6172" fill="#84BE84" rx="3" ry="3" style="stroke:#038048;stroke-width:1.0;"/><text fill="#000000" font-family="sans-serif" font-size="14" lengthAdjust="spacing" textLength="252" x="93.5825" y="415.9639">dangerous_internal_server_handler()</text></g><g id="elem_model_items"><rect fill="#F1F1F1" height="93.4844" style="stroke:#181818;stroke-width:0.5;" width="202" x="1745.5825" y="281"/><text fill="#000000" font-family="sans-serif" font-size="14" lengthAdjust="spacing" textLength="88" x="1802.5825" y="295.9951">model_items</text><line style="stroke:#181818;stroke-width:0.5;" x1="1746.5825" x2="1946.5825" y1="301.2969" y2="301.2969"/><ellipse cx="1756.5825" cy="314.9453" fill="none" rx="3" ry="3" style="stroke:#038048;stroke-width:1.0;"/><text fill="#000000" font-family="sans-serif" font-size="14" lengthAdjust="spacing" textLength="69" x="1765.5825" y="318.292">AppModel</text><ellipse cx="1756.5825" cy="331.2422" fill="none" rx="3" ry="3" style="stroke:#038048;stroke-width:1.0;"/><text fill="#000000" font-family="sans-serif" font-size="14" lengthAdjust="spacing" textLength="137" x="1765.5825" y="334.5889">ValidationResponse</text><ellipse cx="1756.5825" cy="347.5391" fill="none" rx="3" ry="3" style="stroke:#038048;stroke-width:1.0;"/><text fill="#000000" font-family="sans-serif" font-size="14" lengthAdjust="spacing" textLength="176" x="1765.5825" y="350.8857">ErrorResponseTraceback</text><ellipse cx="1756.5825" cy="363.8359" fill="none" rx="3" ry="3" style="stroke:#038048;stroke-width:1.0;"/><text fill="#000000" font-family="sans-serif" font-size="14" lengthAdjust="spacing" textLength="80" x="1765.5825" y="367.1826">ErrorDetails</text></g><g id="elem_osdmapper_items"><rect fill="#F1F1F1" height="158.6719" style="stroke:#181818;stroke-width:0.5;" width="271" x="1418.0825" y="248"/><text fill="#000000" font-family="sans-serif" font-size="14" lengthAdjust="spacing" textLength="124" x="1491.5825" y="262.9951">osdmapper_items</text><line style="stroke:#181818;stroke-width:0.5;" x1="1419.0825" x2="1688.0825" y1="268.2969" y2="268.2969"/><ellipse cx="1429.0825" cy="281.9453" fill="none" rx="3" ry="3" style="stroke:#038048;stroke-width:1.0;"/><text fill="#000000" font-family="sans-serif" font-size="14" lengthAdjust="spacing" textLength="109" x="1438.0825" y="285.292">FrequencyBand</text><ellipse cx="1429.0825" cy="298.2422" fill="none" rx="3" ry="3" style="stroke:#038048;stroke-width:1.0;"/><text fill="#000000" font-family="sans-serif" font-size="14" lengthAdjust="spacing" textLength="60" x="1438.0825" y="301.5889">Subarray</text><ellipse cx="1429.0825" cy="314.5391" fill="none" rx="3" ry="3" style="stroke:#038048;stroke-width:1.0;"/><text fill="#000000" font-family="sans-serif" font-size="14" lengthAdjust="spacing" textLength="116" x="1438.0825" y="317.8857">MidConfiguration</text><ellipse cx="1429.0825" cy="330.8359" fill="none" rx="3" ry="3" style="stroke:#038048;stroke-width:1.0;"/><text fill="#000000" font-family="sans-serif" font-size="14" lengthAdjust="spacing" textLength="119" x="1438.0825" y="334.1826">LowConfiguration</text><ellipse cx="1429.0825" cy="347.1328" fill="none" rx="3" ry="3" style="stroke:#038048;stroke-width:1.0;"/><text fill="#000000" font-family="sans-serif" font-size="14" lengthAdjust="spacing" textLength="92" x="1438.0825" y="350.4795">Configuration</text><ellipse cx="1429.0825" cy="363.4297" fill="#84BE84" rx="3" ry="3" style="stroke:#038048;stroke-width:1.0;"/><text fill="#000000" font-family="sans-serif" font-size="14" lengthAdjust="spacing" textLength="171" x="1438.0825" y="366.7764">configuration_from_osd()</text><ellipse cx="1429.0825" cy="379.7266" fill="#84BE84" rx="3" ry="3" style="stroke:#038048;stroke-width:1.0;"/><text fill="#000000" font-family="sans-serif" font-size="14" lengthAdjust="spacing" textLength="245" x="1438.0825" y="383.0732">_get_mid_telescope_configuration()</text><ellipse cx="1429.0825" cy="396.0234" fill="#84BE84" rx="3" ry="3" style="stroke:#038048;stroke-width:1.0;"/><text fill="#000000" font-family="sans-serif" font-size="14" lengthAdjust="spacing" textLength="243" x="1438.0825" y="399.3701">_get_low_telescope_configuration()</text></g><g id="elem_odt_note"><path d="M926.0825,554 L926.0825,579.1328 L1177.0825,579.1328 L1177.0825,564 L1167.0825,554 L926.0825,554 " fill="#FEFFDD" style="stroke:#181818;stroke-width:0.5;"/><path d="M1167.0825,554 L1167.0825,564 L1177.0825,564 L1167.0825,554 " fill="#FEFFDD" style="stroke:#181818;stroke-width:1.0;"/><text fill="#000000" font-family="sans-serif" font-size="13" lengthAdjust="spacing" textLength="230" x="932.0825" y="571.0669">"ODT section minimized in this view"</text></g><g id="elem_panel_decision_endpoints"><rect fill="#F1F1F1" height="93.4844" style="stroke:#181818;stroke-width:0.5;" width="240" x="962.5825" y="845.5"/><text fill="#000000" font-family="sans-serif" font-size="14" lengthAdjust="spacing" textLength="180" x="992.5825" y="860.4951">panel_decision_endpoints</text><line style="stroke:#181818;stroke-width:0.5;" x1="963.5825" x2="1201.5825" y1="865.7969" y2="865.7969"/><ellipse cx="973.5825" cy="879.4453" fill="#84BE84" rx="3" ry="3" style="stroke:#038048;stroke-width:1.0;"/><text fill="#000000" font-family="sans-serif" font-size="14" lengthAdjust="spacing" textLength="164" x="982.5825" y="882.792">create_panel_decision()</text><ellipse cx="973.5825" cy="895.7422" fill="#84BE84" rx="3" ry="3" style="stroke:#038048;stroke-width:1.0;"/><text fill="#000000" font-family="sans-serif" font-size="14" lengthAdjust="spacing" textLength="143" x="982.5825" y="899.0889">get_panel_decision()</text><ellipse cx="973.5825" cy="912.0391" fill="#84BE84" rx="3" ry="3" style="stroke:#038048;stroke-width:1.0;"/><text fill="#000000" font-family="sans-serif" font-size="14" lengthAdjust="spacing" textLength="214" x="982.5825" y="915.3857">get_panel_decisions_for_user()</text><ellipse cx="973.5825" cy="928.3359" fill="#84BE84" rx="3" ry="3" style="stroke:#038048;stroke-width:1.0;"/><text fill="#000000" font-family="sans-serif" font-size="14" lengthAdjust="spacing" textLength="169" x="982.5825" y="931.6826">update_panel_decision()</text></g><g id="elem_panels_endpoints"><rect fill="#F1F1F1" height="77.1875" style="stroke:#181818;stroke-width:0.5;" width="175" x="1525.0825" y="853.5"/><text fill="#000000" font-family="sans-serif" font-size="14" lengthAdjust="spacing" textLength="123" x="1551.0825" y="868.4951">panels_endpoints</text><line style="stroke:#181818;stroke-width:0.5;" x1="1526.0825" x2="1699.0825" y1="873.7969" y2="873.7969"/><ellipse cx="1536.0825" cy="887.4453" fill="#84BE84" rx="3" ry="3" style="stroke:#038048;stroke-width:1.0;"/><text fill="#000000" font-family="sans-serif" font-size="14" lengthAdjust="spacing" textLength="99" x="1545.0825" y="890.792">create_panel()</text><ellipse cx="1536.0825" cy="903.7422" fill="#84BE84" rx="3" ry="3" style="stroke:#038048;stroke-width:1.0;"/><text fill="#000000" font-family="sans-serif" font-size="14" lengthAdjust="spacing" textLength="78" x="1545.0825" y="907.0889">get_panel()</text><ellipse cx="1536.0825" cy="920.0391" fill="#84BE84" rx="3" ry="3" style="stroke:#038048;stroke-width:1.0;"/><text fill="#000000" font-family="sans-serif" font-size="14" lengthAdjust="spacing" textLength="149" x="1545.0825" y="923.3857">get_panels_for_user()</text></g><g id="elem_prsls_endpoints"><rect fill="#F1F1F1" height="240.1563" style="stroke:#181818;stroke-width:0.5;" width="210" x="1258.5825" y="772"/><text fill="#000000" font-family="sans-serif" font-size="14" lengthAdjust="spacing" textLength="110" x="1308.5825" y="786.9951">prsls_endpoints</text><line style="stroke:#181818;stroke-width:0.5;" x1="1259.5825" x2="1467.5825" y1="792.2969" y2="792.2969"/><ellipse cx="1269.5825" cy="805.9453" fill="#84BE84" rx="3" ry="3" style="stroke:#038048;stroke-width:1.0;"/><text fill="#000000" font-family="sans-serif" font-size="14" lengthAdjust="spacing" textLength="131" x="1278.5825" y="809.292">get_osd_by_cycle()</text><ellipse cx="1269.5825" cy="822.2422" fill="#84BE84" rx="3" ry="3" style="stroke:#038048;stroke-width:1.0;"/><text fill="#000000" font-family="sans-serif" font-size="14" lengthAdjust="spacing" textLength="121" x="1278.5825" y="825.5889">create_proposal()</text><ellipse cx="1269.5825" cy="838.5391" fill="#84BE84" rx="3" ry="3" style="stroke:#038048;stroke-width:1.0;"/><text fill="#000000" font-family="sans-serif" font-size="14" lengthAdjust="spacing" textLength="100" x="1278.5825" y="841.8857">get_proposal()</text><ellipse cx="1269.5825" cy="854.8359" fill="#84BE84" rx="3" ry="3" style="stroke:#038048;stroke-width:1.0;"/><text fill="#000000" font-family="sans-serif" font-size="14" lengthAdjust="spacing" textLength="154" x="1278.5825" y="858.1826">get_proposals_batch()</text><ellipse cx="1269.5825" cy="871.1328" fill="#84BE84" rx="3" ry="3" style="stroke:#038048;stroke-width:1.0;"/><text fill="#000000" font-family="sans-serif" font-size="14" lengthAdjust="spacing" textLength="181" x="1278.5825" y="874.4795">get_proposals_by_status()</text><ellipse cx="1269.5825" cy="887.4297" fill="#84BE84" rx="3" ry="3" style="stroke:#038048;stroke-width:1.0;"/><text fill="#000000" font-family="sans-serif" font-size="14" lengthAdjust="spacing" textLength="184" x="1278.5825" y="890.7764">get_reviews_for_proposal()</text><ellipse cx="1269.5825" cy="903.7266" fill="#84BE84" rx="3" ry="3" style="stroke:#038048;stroke-width:1.0;"/><text fill="#000000" font-family="sans-serif" font-size="14" lengthAdjust="spacing" textLength="171" x="1278.5825" y="907.0732">get_proposals_for_user()</text><ellipse cx="1269.5825" cy="920.0234" fill="#84BE84" rx="3" ry="3" style="stroke:#038048;stroke-width:1.0;"/><text fill="#000000" font-family="sans-serif" font-size="14" lengthAdjust="spacing" textLength="126" x="1278.5825" y="923.3701">update_proposal()</text><ellipse cx="1269.5825" cy="936.3203" fill="#84BE84" rx="3" ry="3" style="stroke:#038048;stroke-width:1.0;"/><text fill="#000000" font-family="sans-serif" font-size="14" lengthAdjust="spacing" textLength="129" x="1278.5825" y="939.667">validate_proposal()</text><ellipse cx="1269.5825" cy="952.6172" fill="#84BE84" rx="3" ry="3" style="stroke:#038048;stroke-width:1.0;"/><text fill="#000000" font-family="sans-serif" font-size="14" lengthAdjust="spacing" textLength="88" x="1278.5825" y="955.9639">send_email()</text><ellipse cx="1269.5825" cy="968.9141" fill="#84BE84" rx="3" ry="3" style="stroke:#038048;stroke-width:1.0;"/><text fill="#000000" font-family="sans-serif" font-size="14" lengthAdjust="spacing" textLength="161" x="1278.5825" y="972.2607">create_upload_pdf_url()</text><ellipse cx="1269.5825" cy="985.2109" fill="#84BE84" rx="3" ry="3" style="stroke:#038048;stroke-width:1.0;"/><text fill="#000000" font-family="sans-serif" font-size="14" lengthAdjust="spacing" textLength="181" x="1278.5825" y="988.5576">create_download_pdf_url()</text><ellipse cx="1269.5825" cy="1001.5078" fill="#84BE84" rx="3" ry="3" style="stroke:#038048;stroke-width:1.0;"/><text fill="#000000" font-family="sans-serif" font-size="14" lengthAdjust="spacing" textLength="158" x="1278.5825" y="1004.8545">create_delete_pdf_url()</text></g><g id="elem_report_endpoints"><rect fill="#F1F1F1" height="44.5938" style="stroke:#181818;stroke-width:0.5;" width="133" x="1971.0825" y="869.5"/><text fill="#000000" font-family="sans-serif" font-size="14" lengthAdjust="spacing" textLength="119" x="1978.0825" y="884.4951">report_endpoints</text><line style="stroke:#181818;stroke-width:0.5;" x1="1972.0825" x2="2103.0825" y1="889.7969" y2="889.7969"/><ellipse cx="1982.0825" cy="903.4453" fill="#84BE84" rx="3" ry="3" style="stroke:#038048;stroke-width:1.0;"/><text fill="#000000" font-family="sans-serif" font-size="14" lengthAdjust="spacing" textLength="82" x="1991.0825" y="906.792">get_report()</text></g><g id="elem_reviewers_endpoints"><rect fill="#F1F1F1" height="44.5938" style="stroke:#181818;stroke-width:0.5;" width="157" x="1757.0825" y="869.5"/><text fill="#000000" font-family="sans-serif" font-size="14" lengthAdjust="spacing" textLength="143" x="1764.0825" y="884.4951">reviewers_endpoints</text><line style="stroke:#181818;stroke-width:0.5;" x1="1758.0825" x2="1913.0825" y1="889.7969" y2="889.7969"/><ellipse cx="1768.0825" cy="903.4453" fill="#84BE84" rx="3" ry="3" style="stroke:#038048;stroke-width:1.0;"/><text fill="#000000" font-family="sans-serif" font-size="14" lengthAdjust="spacing" textLength="106" x="1777.0825" y="906.792">get_reviewers()</text></g><g id="elem_reviews_endpoints"><rect fill="#F1F1F1" height="93.4844" style="stroke:#181818;stroke-width:0.5;" width="181" x="2161.0825" y="845.5"/><text fill="#000000" font-family="sans-serif" font-size="14" lengthAdjust="spacing" textLength="129" x="2187.0825" y="860.4951">reviews_endpoints</text><line style="stroke:#181818;stroke-width:0.5;" x1="2162.0825" x2="2341.0825" y1="865.7969" y2="865.7969"/><ellipse cx="2172.0825" cy="879.4453" fill="#84BE84" rx="3" ry="3" style="stroke:#038048;stroke-width:1.0;"/><text fill="#000000" font-family="sans-serif" font-size="14" lengthAdjust="spacing" textLength="105" x="2181.0825" y="882.792">create_review()</text><ellipse cx="2172.0825" cy="895.7422" fill="#84BE84" rx="3" ry="3" style="stroke:#038048;stroke-width:1.0;"/><text fill="#000000" font-family="sans-serif" font-size="14" lengthAdjust="spacing" textLength="84" x="2181.0825" y="899.0889">get_review()</text><ellipse cx="2172.0825" cy="912.0391" fill="#84BE84" rx="3" ry="3" style="stroke:#038048;stroke-width:1.0;"/><text fill="#000000" font-family="sans-serif" font-size="14" lengthAdjust="spacing" textLength="155" x="2181.0825" y="915.3857">get_reviews_for_user()</text><ellipse cx="2172.0825" cy="928.3359" fill="#84BE84" rx="3" ry="3" style="stroke:#038048;stroke-width:1.0;"/><text fill="#000000" font-family="sans-serif" font-size="14" lengthAdjust="spacing" textLength="110" x="2181.0825" y="931.6826">update_review()</text></g><g id="elem_utils_note"><path d="M2742.5825,879.5 L2742.5825,904.6328 L2992.5825,904.6328 L2992.5825,889.5 L2982.5825,879.5 L2742.5825,879.5 " fill="#FEFFDD" style="stroke:#181818;stroke-width:0.5;"/><path d="M2982.5825,879.5 L2982.5825,889.5 L2992.5825,889.5 L2982.5825,879.5 " fill="#FEFFDD" style="stroke:#181818;stroke-width:1.0;"/><text fill="#000000" font-family="sans-serif" font-size="13" lengthAdjust="spacing" textLength="229" x="2748.5825" y="896.5669">"utils section minimized in this view"</text></g><g id="elem_model_note"><path d="M2422.5825,879.5 L2422.5825,904.6328 L2686.5825,904.6328 L2686.5825,889.5 L2676.5825,879.5 L2422.5825,879.5 " fill="#FEFFDD" style="stroke:#181818;stroke-width:0.5;"/><path d="M2676.5825,879.5 L2676.5825,889.5 L2686.5825,889.5 L2676.5825,879.5 " fill="#FEFFDD" style="stroke:#181818;stroke-width:1.0;"/><text fill="#000000" font-family="sans-serif" font-size="13" lengthAdjust="spacing" textLength="243" x="2428.5825" y="896.5669">"model section minimized in this view"</text></g><!--class create_app--><g id="elem_create_app"><rect codeLine="166" fill="#F1F1F1" height="56.2656" id="create_app" rx="2.5" ry="2.5" style="stroke:#181818;stroke-width:0.5;" width="109" x="1983.0825" y="42"/><ellipse cx="1998.0825" cy="62.1328" fill="#ADD1B2" rx="11" ry="11" style="stroke:#181818;stroke-width:1.0;"/><path d="M2001.0513,67.7734 Q2000.4731,68.0703 1999.8325,68.2109 Q1999.1919,68.3672 1998.4888,68.3672 Q1995.9888,68.3672 1994.6606,66.7266 Q1993.3481,65.0703 1993.3481,61.9453 Q1993.3481,58.8203 1994.6606,57.1641 Q1995.9888,55.5078 1998.4888,55.5078 Q1999.1919,55.5078 1999.8325,55.6641 Q2000.4888,55.8203 2001.0513,56.1172 L2001.0513,58.8359 Q2000.4263,58.2578 1999.8325,57.9922 Q1999.2388,57.7109 1998.6138,57.7109 Q1997.27,57.7109 1996.5825,58.7891 Q1995.895,59.8516 1995.895,61.9453 Q1995.895,64.0391 1996.5825,65.1172 Q1997.27,66.1797 1998.6138,66.1797 Q1999.2388,66.1797 1999.8325,65.9141 Q2000.4263,65.6328 2001.0513,65.0547 L2001.0513,67.7734 Z " fill="#000000"/><text fill="#000000" font-family="sans-serif" font-size="12" font-style="italic" lengthAdjust="spacing" textLength="65" x="2018.0825" y="58.1387">«function»</text><text fill="#000000" font-family="sans-serif" font-size="14" lengthAdjust="spacing" textLength="77" x="2012.0825" y="73.9639">create_app</text><line style="stroke:#181818;stroke-width:0.5;" x1="1984.0825" x2="2091.0825" y1="82.2656" y2="82.2656"/><line style="stroke:#181818;stroke-width:0.5;" x1="1984.0825" x2="2091.0825" y1="90.2656" y2="90.2656"/></g><!--link common_pkg to odt_pkg--><!--link common_pkg to odt_pkg--><!--link odt_pkg to pht_pkg--><!--link odt_pkg to pht_pkg--><!--reverse link create_app to common_pkg--><g id="link_create_app_common_pkg"><path codeLine="170" d="M1977.8925,70.66 C1655.2625,69.1 131.5625,65.17 57.5825,130 C24.8275,158.705 16.565,206.755 16.62,248.1538 C16.6269,253.3286 16.7637,258.3995 16.9989,263.3157 C17.1165,265.7738 17.2587,268.1933 17.4216,270.5677 C17.4623,271.1613 17.5043,271.7521 17.5475,272.34 " fill="none" id="create_app-backto-common_pkg" style="stroke:#181818;stroke-width:1.0;"/><polygon fill="#181818" points="1983.0125,70.69,1974.0355,66.6386,1978.0126,70.6614,1973.9898,74.6385,1983.0125,70.69" style="stroke:#181818;stroke-width:1.0;"/></g><!--reverse link create_app to odt_pkg--><g id="link_create_app_odt_pkg"><path codeLine="171" d="M2043.7625,103.26 C2056.9725,183.08 2078.0725,390.34 1963.5825,487 C1941.2125,505.89 932.7525,477.11 909.5825,495 C906.4725,497.4013 903.837,500.2547 901.6068,503.4156 C900.4917,504.996 899.4778,506.6533 898.5566,508.3694 C898.0961,509.2275 897.6586,510.1002 897.2433,510.9854 " fill="none" id="create_app-backto-odt_pkg" style="stroke:#181818;stroke-width:1.0;"/><polygon fill="#181818" points="2042.9125,98.19,2040.46,107.7286,2043.7414,103.1208,2048.3492,106.4023,2042.9125,98.19" style="stroke:#181818;stroke-width:1.0;"/></g><!--reverse link create_app to pht_pkg--><g id="link_create_app_pht_pkg"><path codeLine="172" d="M2049.6325,103.06 C2076.2025,179.82 2130.1825,376.03 2034.5825,487 C1911.1025,630.32 1381.9225,601.24 1193.5825,619 C1179.9125,620.29 957.1125,618.19 946.5825,627 C940.9244,631.7375 935.7505,636.8913 931.0227,642.3923 " fill="none" id="create_app-backto-pht_pkg" style="stroke:#181818;stroke-width:1.0;"/><polygon fill="#181818" points="2047.9225,98.17,2047.0977,107.9843,2049.5634,102.8931,2054.6546,105.3588,2047.9225,98.17" style="stroke:#181818;stroke-width:1.0;"/></g><!--SRC=[dPTRRo8t583V-HKMJwsgH5MVLqX9I3RH1gWIqfLQhImpFe2R6TjhUnBHAl-znpCCZ6SyboqIWVXyzhduN0QdD76AR9HpAYDS64YSK78oqInvPJiWqqHbcP9JmYmflrBzkYF_JYO4NpLAMiUairFowTCJ7iBaBeNP345IlDJcRrmb9uuA1vazYGdvXImUvlJc_cgvl7saNn_cwtlwvVxFXlotNola-SWi0kPnzPK-hw_M3wjbuwmsLycl7rStNsBorNBzi7nvMVHQvSdVdzUTpCUa_1l6YsbncIXbk93CmN3KJcGhRjw69zY20Pd0dM4P1ABRxpbpoWYMFe7L6FrG_9cb36yyYGftuAWzM5HOC-2dd_iTozs-ovkJFnwAElASA0szvzSiIPLwpVMWijQEgEPpdABn2HQDoYMdnRcdQ9GIJEytC8uQHZaa-Dvr04xHtV7e1k637WjtLq3066NedacU2haRZ4Q8HqDH8XmS4wbjM7VD-1Dypy6wMqy5idckKv6WqMtHYzH69M0jswHmAvrmXpQqLExEHxOjeHbx1MgEETemIN56fN9qMznAuHcO25FpF2hFfK37QD6X31FITR0SOmkO0bYAqe6HBAKM3DvgX8zVMQOuf8CtLL3H2xhIUk65mU8VB1MS-UOThUKYg9LaRLW26pIdZSpBQ- -jGMLvnhG6C-Z3YOpwSMTyAidaS8s12_j0lc76i4Emk13yHicjsEMcy3CGFghtRc6t9AbBwDQeZABDZHkdlYOpmQc35AnlKJJO5yDJzJu2h-BxKHkuYhjYskBdSTHw1ZCSgbN_lLYShkPhOikHJJ8XHIR-0Kw496ulB7aJy3ujG92yE25GfFUb8loiAQgFgExxFH_296OfDZjXXNzCwDfmIebm0qNBjC922dEZk1e3s4jeo0UXhjhb3oCMcuMXkMtKjeTppGUqVjHkRnABXXqiYnBhy3tqF38TUjUZhdtKohbbih5ZBFPKfy5UEvODtHneSaZIPeUk_35AAykYfW-BBDqmb-pxYGF5fqkNsmXbm9T36PvHwg8fSawG-15lPHVkb5iC8OKCMsmyHZX25UDKyotDJGV3rRiSGM7pyNQqcBvaCA2LSOFPK6AzwL0YezNwkm5ZHsW-aWFAZzGFwH-hVR1mIwmp1mUIipldMjlFFatE_uPT79lxPUv4TubNWwM0pgC5XqknCcgyr0PCdnszppsL7ULZJzsEOkN_sU7dNUrNwuKldR_sWdEGtowg2Jk2g6PnGtoSd4FYIMscTlnUIL9cRPK_I26qpMNXyMpclGYCpFN5Z21rUTvmjY4ch4PyJFWV]--></g></svg>