<?xml version="1.0" encoding="UTF-8" standalone="no"?><svg xmlns="http://www.w3.org/2000/svg" xmlns:xlink="http://www.w3.org/1999/xlink" contentStyleType="text/css" height="1128px" preserveAspectRatio="none" style="width:3047px;height:1128px;background:#FFFFFF;" version="1.1" viewBox="0 0 3047 1128" width="3047px" zoomAndPan="magnify"><defs/><g><text fill="#000000" font-family="sans-serif" font-size="14" font-weight="bold" lengthAdjust="spacing" textLength="321" x="1356.2913" y="22.9951">High Level Module View of OSO Services</text><!--cluster common_pkg--><g id="cluster_common_pkg"><path d="M20.0825,183.2969 L88.0825,183.2969 A3.75,3.75 0 0 1 90.5825,185.7969 L97.5825,205.5938 L1993.0825,205.5938 A2.5,2.5 0 0 1 1995.5825,208.0938 L1995.5825,505.7969 A2.5,2.5 0 0 1 1993.0825,508.2969 L20.0825,508.2969 A2.5,2.5 0 0 1 17.5825,505.7969 L17.5825,185.7969 A2.5,2.5 0 0 1 20.0825,183.2969 " fill="none" style="stroke:#000000;stroke-width:1.5;"/><line style="stroke:#000000;stroke-width:1.5;" x1="17.5825" x2="97.5825" y1="205.5938" y2="205.5938"/><text fill="#000000" font-family="sans-serif" font-size="14" font-weight="bold" lengthAdjust="spacing" textLength="67" x="21.5825" y="198.292">common</text></g><!--cluster constants--><g id="cluster_constants"><rect fill="none" height="177" rx="2.5" ry="2.5" style="stroke:#181818;stroke-width:1.0;" width="342" x="1035.5825" y="266.7969"/><text fill="#000000" font-family="sans-serif" font-size="14" font-weight="bold" lengthAdjust="spacing" textLength="78" x="1167.5825" y="281.792">constants</text></g><!--cluster api.coordinates--><g id="cluster_api.coordinates"><rect fill="none" height="144" rx="2.5" ry="2.5" style="stroke:#181818;stroke-width:1.0;" width="230" x="781.5825" y="283.2969"/><text fill="#000000" font-family="sans-serif" font-size="14" font-weight="bold" lengthAdjust="spacing" textLength="122" x="835.5825" y="298.292">api.coordinates</text></g><!--cluster auth--><g id="cluster_auth"><rect fill="none" height="96" rx="2.5" ry="2.5" style="stroke:#181818;stroke-width:1.0;" width="122" x="635.5825" y="307.2969"/><text fill="#000000" font-family="sans-serif" font-size="14" font-weight="bold" lengthAdjust="spacing" textLength="35" x="679.0825" y="322.292">auth</text></g><!--cluster coordinateslookup--><g id="cluster_coordinateslookup"><rect fill="none" height="177" rx="2.5" ry="2.5" style="stroke:#181818;stroke-width:1.0;" width="220" x="391.5825" y="266.7969"/><text fill="#000000" font-family="sans-serif" font-size="14" font-weight="bold" lengthAdjust="spacing" textLength="147" x="428.0825" y="281.792">coordinateslookup</text></g><!--cluster error_handling--><g id="cluster_error_handling"><rect fill="none" height="242" rx="2.5" ry="2.5" style="stroke:#181818;stroke-width:1.0;" width="310" x="57.5825" y="234.2969"/><text fill="#000000" font-family="sans-serif" font-size="14" font-weight="bold" lengthAdjust="spacing" textLength="115" x="155.0825" y="249.292">error_handling</text></g><!--cluster model--><g id="cluster_model"><rect fill="none" height="144" rx="2.5" ry="2.5" style="stroke:#181818;stroke-width:1.0;" width="234" x="1729.5825" y="283.2969"/><text fill="#000000" font-family="sans-serif" font-size="14" font-weight="bold" lengthAdjust="spacing" textLength="48" x="1822.5825" y="298.292">model</text></g><!--cluster osdmapper--><g id="cluster_osdmapper"><rect fill="none" height="210" rx="2.5" ry="2.5" style="stroke:#181818;stroke-width:1.0;" width="304" x="1401.5825" y="250.2969"/><text fill="#000000" font-family="sans-serif" font-size="14" font-weight="bold" lengthAdjust="spacing" textLength="89" x="1509.0825" y="265.292">osdmapper</text></g><!--cluster odt_pkg--><g id="cluster_odt_pkg"><path d="M885.0825,548.2969 L912.0825,548.2969 A3.75,3.75 0 0 1 914.5825,550.7969 L921.5825,570.5938 L1199.0825,570.5938 A2.5,2.5 0 0 1 1201.5825,573.0938 L1201.5825,637.7969 A2.5,2.5 0 0 1 1199.0825,640.2969 L885.0825,640.2969 A2.5,2.5 0 0 1 882.5825,637.7969 L882.5825,550.7969 A2.5,2.5 0 0 1 885.0825,548.2969 " fill="none" style="stroke:#000000;stroke-width:1.5;"/><line style="stroke:#000000;stroke-width:1.5;" x1="882.5825" x2="921.5825" y1="570.5938" y2="570.5938"/><text fill="#000000" font-family="sans-serif" font-size="14" font-weight="bold" lengthAdjust="spacing" textLength="26" x="886.5825" y="563.292">odt</text></g><!--cluster pht_pkg--><g id="cluster_pht_pkg"><path d="M885.0825,680.2969 L912.0825,680.2969 A3.75,3.75 0 0 1 914.5825,682.7969 L921.5825,702.5938 L3038.0825,702.5938 A2.5,2.5 0 0 1 3040.5825,705.0938 L3040.5825,1118.7969 A2.5,2.5 0 0 1 3038.0825,1121.2969 L885.0825,1121.2969 A2.5,2.5 0 0 1 882.5825,1118.7969 L882.5825,682.7969 A2.5,2.5 0 0 1 885.0825,680.2969 " fill="none" style="stroke:#000000;stroke-width:1.5;"/><line style="stroke:#000000;stroke-width:1.5;" x1="882.5825" x2="921.5825" y1="702.5938" y2="702.5938"/><text fill="#000000" font-family="sans-serif" font-size="14" font-weight="bold" lengthAdjust="spacing" textLength="26" x="886.5825" y="695.292">pht</text></g><!--cluster api--><g id="cluster_api"><rect fill="none" height="358" rx="2.5" ry="2.5" style="stroke:#181818;stroke-width:1.0;" width="1460" x="922.5825" y="731.2969"/><text fill="#000000" font-family="sans-serif" font-size="14" font-weight="bold" lengthAdjust="spacing" textLength="23" x="1641.0825" y="746.292">api</text></g><!--cluster panel_decision--><g id="cluster_panel_decision"><rect fill="none" height="144" rx="2.5" ry="2.5" style="stroke:#181818;stroke-width:1.0;" width="272" x="946.5825" y="847.7969"/><text fill="#000000" font-family="sans-serif" font-size="14" font-weight="bold" lengthAdjust="spacing" textLength="116" x="1024.5825" y="862.792">panel_decision</text></g><!--cluster panels--><g id="cluster_panels"><rect fill="none" height="128" rx="2.5" ry="2.5" style="stroke:#181818;stroke-width:1.0;" width="208" x="1508.5825" y="855.7969"/><text fill="#000000" font-family="sans-serif" font-size="14" font-weight="bold" lengthAdjust="spacing" textLength="52" x="1586.5825" y="870.792">panels</text></g><!--cluster prsls--><g id="cluster_prsls"><rect fill="none" height="291" rx="2.5" ry="2.5" style="stroke:#181818;stroke-width:1.0;" width="242" x="1242.5825" y="774.2969"/><text fill="#000000" font-family="sans-serif" font-size="14" font-weight="bold" lengthAdjust="spacing" textLength="39" x="1344.0825" y="789.292">prsls</text></g><!--cluster report--><g id="cluster_report"><rect fill="none" height="96" rx="2.5" ry="2.5" style="stroke:#181818;stroke-width:1.0;" width="166" x="1954.5825" y="871.7969"/><text fill="#000000" font-family="sans-serif" font-size="14" font-weight="bold" lengthAdjust="spacing" textLength="50" x="2012.5825" y="886.792">report</text></g><!--cluster reviewers--><g id="cluster_reviewers"><rect fill="none" height="96" rx="2.5" ry="2.5" style="stroke:#181818;stroke-width:1.0;" width="190" x="1740.5825" y="871.7969"/><text fill="#000000" font-family="sans-serif" font-size="14" font-weight="bold" lengthAdjust="spacing" textLength="80" x="1795.5825" y="886.792">reviewers</text></g><!--cluster reviews--><g id="cluster_reviews"><rect fill="none" height="144" rx="2.5" ry="2.5" style="stroke:#181818;stroke-width:1.0;" width="214" x="2144.5825" y="847.7969"/><text fill="#000000" font-family="sans-serif" font-size="14" font-weight="bold" lengthAdjust="spacing" textLength="63" x="2220.0825" y="862.792">reviews</text></g><!--cluster pht.utils--><g id="cluster_pht.utils"><rect fill="none" height="76" rx="2.5" ry="2.5" style="stroke:#181818;stroke-width:1.0;" width="282" x="2726.5825" y="881.7969"/><text fill="#000000" font-family="sans-serif" font-size="14" font-weight="bold" lengthAdjust="spacing" textLength="64" x="2835.5825" y="896.792">pht.utils</text></g><!--cluster pht.model--><g id="cluster_pht.model"><rect fill="none" height="76" rx="2.5" ry="2.5" style="stroke:#181818;stroke-width:1.0;" width="296" x="2406.5825" y="881.7969"/><text fill="#000000" font-family="sans-serif" font-size="14" font-weight="bold" lengthAdjust="spacing" textLength="79" x="2515.0825" y="896.792">pht.model</text></g><!--cluster app--><g id="cluster_app"><rect fill="none" height="107" rx="2.5" ry="2.5" style="stroke:#181818;stroke-width:1.0;" width="142" x="1966.5825" y="44.2969"/><text fill="#000000" font-family="sans-serif" font-size="14" font-weight="bold" lengthAdjust="spacing" textLength="29" x="2023.0825" y="59.292">app</text></g><g id="elem_constants_items"><rect fill="#F1F1F1" height="126.0781" style="stroke:#181818;stroke-width:0.5;" width="310" x="1051.5825" y="301.7969"/><text fill="#000000" font-family="sans-serif" font-size="14" lengthAdjust="spacing" textLength="114" x="1149.5825" y="316.792">constants_items</text><line style="stroke:#181818;stroke-width:0.5;" x1="1052.5825" x2="1360.5825" y1="322.0938" y2="322.0938"/><ellipse cx="1062.5825" cy="335.7422" fill="none" rx="3" ry="3" style="stroke:#038048;stroke-width:1.0;"/><text fill="#000000" font-family="sans-serif" font-size="14" lengthAdjust="spacing" textLength="187" x="1071.5825" y="339.0889">MID_CHANNEL_WIDTH_KHZ</text><ellipse cx="1062.5825" cy="352.0391" fill="none" rx="3" ry="3" style="stroke:#038048;stroke-width:1.0;"/><text fill="#000000" font-family="sans-serif" font-size="14" lengthAdjust="spacing" textLength="224" x="1071.5825" y="355.3857">MID_20_CHANNELS_WIDTH_MHZ</text><ellipse cx="1062.5825" cy="368.3359" fill="none" rx="3" ry="3" style="stroke:#038048;stroke-width:1.0;"/><text fill="#000000" font-family="sans-serif" font-size="14" lengthAdjust="spacing" textLength="262" x="1071.5825" y="371.6826">LOW_STATION_CHANNEL_WIDTH_MHZ</text><ellipse cx="1062.5825" cy="384.6328" fill="none" rx="3" ry="3" style="stroke:#038048;stroke-width:1.0;"/><text fill="#000000" font-family="sans-serif" font-size="14" lengthAdjust="spacing" textLength="196" x="1071.5825" y="387.9795">LOW_CHANNEL_BLOCK_MHZ</text><ellipse cx="1062.5825" cy="400.9297" fill="none" rx="3" ry="3" style="stroke:#038048;stroke-width:1.0;"/><text fill="#000000" font-family="sans-serif" font-size="14" lengthAdjust="spacing" textLength="284" x="1071.5825" y="404.2764">LOW_CONTINUUM_CHANNEL_WIDTH_KHZ</text><ellipse cx="1062.5825" cy="417.2266" fill="none" rx="3" ry="3" style="stroke:#038048;stroke-width:1.0;"/><text fill="#000000" font-family="sans-serif" font-size="14" lengthAdjust="spacing" textLength="226" x="1071.5825" y="420.5732">LOW_PST_CHANNEL_WIDTH_KHZ</text></g><g id="elem_coordinates_items"><rect fill="#F1F1F1" height="93.4844" style="stroke:#181818;stroke-width:0.5;" width="198" x="797.5825" y="318.2969"/><text fill="#000000" font-family="sans-serif" font-size="14" lengthAdjust="spacing" textLength="127" x="833.0825" y="333.292">coordinates_items</text><line style="stroke:#181818;stroke-width:0.5;" x1="798.5825" x2="994.5825" y1="338.5938" y2="338.5938"/><ellipse cx="808.5825" cy="352.2422" fill="none" rx="3" ry="3" style="stroke:#038048;stroke-width:1.0;"/><text fill="#000000" font-family="sans-serif" font-size="14" lengthAdjust="spacing" textLength="115" x="817.5825" y="355.5889">ReferenceFrame</text><ellipse cx="808.5825" cy="368.5391" fill="none" rx="3" ry="3" style="stroke:#038048;stroke-width:1.0;"/><text fill="#000000" font-family="sans-serif" font-size="14" lengthAdjust="spacing" textLength="139" x="817.5825" y="371.8857">EquatorialResponse</text><ellipse cx="808.5825" cy="384.8359" fill="none" rx="3" ry="3" style="stroke:#038048;stroke-width:1.0;"/><text fill="#000000" font-family="sans-serif" font-size="14" lengthAdjust="spacing" textLength="125" x="817.5825" y="388.1826">GalacticResponse</text><ellipse cx="808.5825" cy="401.1328" fill="#84BE84" rx="3" ry="3" style="stroke:#038048;stroke-width:1.0;"/><text fill="#000000" font-family="sans-serif" font-size="14" lengthAdjust="spacing" textLength="172" x="817.5825" y="404.4795">get_systemcoordinates()</text></g><g id="elem_auth_items"><rect fill="#F1F1F1" height="44.5938" style="stroke:#181818;stroke-width:0.5;" width="90" x="651.5825" y="342.2969"/><text fill="#000000" font-family="sans-serif" font-size="14" lengthAdjust="spacing" textLength="76" x="658.5825" y="357.292">auth_items</text><line style="stroke:#181818;stroke-width:0.5;" x1="652.5825" x2="740.5825" y1="362.5938" y2="362.5938"/><ellipse cx="662.5825" cy="376.2422" fill="none" rx="3" ry="3" style="stroke:#038048;stroke-width:1.0;"/><text fill="#000000" font-family="sans-serif" font-size="14" lengthAdjust="spacing" textLength="44" x="671.5825" y="379.5889">Scope</text></g><g id="elem_coordinateslookup_items"><rect fill="#F1F1F1" height="126.0781" style="stroke:#181818;stroke-width:0.5;" width="188" x="407.5825" y="301.7969"/><text fill="#000000" font-family="sans-serif" font-size="14" lengthAdjust="spacing" textLength="174" x="414.5825" y="316.792">coordinateslookup_items</text><line style="stroke:#181818;stroke-width:0.5;" x1="408.5825" x2="594.5825" y1="322.0938" y2="322.0938"/><ellipse cx="418.5825" cy="335.7422" fill="none" rx="3" ry="3" style="stroke:#038048;stroke-width:1.0;"/><text fill="#000000" font-family="sans-serif" font-size="14" lengthAdjust="spacing" textLength="68" x="427.5825" y="339.0889">Equatorial</text><ellipse cx="418.5825" cy="352.0391" fill="none" rx="3" ry="3" style="stroke:#038048;stroke-width:1.0;"/><text fill="#000000" font-family="sans-serif" font-size="14" lengthAdjust="spacing" textLength="54" x="427.5825" y="355.3857">Galactic</text><ellipse cx="418.5825" cy="368.3359" fill="#84BE84" rx="3" ry="3" style="stroke:#038048;stroke-width:1.0;"/><text fill="#000000" font-family="sans-serif" font-size="14" lengthAdjust="spacing" textLength="98" x="427.5825" y="371.6826">round_coord()</text><ellipse cx="418.5825" cy="384.6328" fill="#84BE84" rx="3" ry="3" style="stroke:#038048;stroke-width:1.0;"/><text fill="#000000" font-family="sans-serif" font-size="14" lengthAdjust="spacing" textLength="149" x="427.5825" y="387.9795">convert_ra_dec_deg()</text><ellipse cx="418.5825" cy="400.9297" fill="#84BE84" rx="3" ry="3" style="stroke:#038048;stroke-width:1.0;"/><text fill="#000000" font-family="sans-serif" font-size="14" lengthAdjust="spacing" textLength="142" x="427.5825" y="404.2764">convert_to_galactic()</text><ellipse cx="418.5825" cy="417.2266" fill="#84BE84" rx="3" ry="3" style="stroke:#038048;stroke-width:1.0;"/><text fill="#000000" font-family="sans-serif" font-size="14" lengthAdjust="spacing" textLength="122" x="427.5825" y="420.5732">get_coordinates()</text></g><g id="elem_error_handling_items"><rect fill="#F1F1F1" height="191.2656" style="stroke:#181818;stroke-width:0.5;" width="278" x="73.5825" y="269.2969"/><text fill="#000000" font-family="sans-serif" font-size="14" lengthAdjust="spacing" textLength="144" x="140.5825" y="284.292">error_handling_items</text><line style="stroke:#181818;stroke-width:0.5;" x1="74.5825" x2="350.5825" y1="289.5938" y2="289.5938"/><ellipse cx="84.5825" cy="303.2422" fill="#84BE84" rx="3" ry="3" style="stroke:#038048;stroke-width:1.0;"/><text fill="#000000" font-family="sans-serif" font-size="14" lengthAdjust="spacing" textLength="95" x="93.5825" y="306.5889">error_details()</text><ellipse cx="84.5825" cy="319.5391" fill="none" rx="3" ry="3" style="stroke:#038048;stroke-width:1.0;"/><text fill="#000000" font-family="sans-serif" font-size="14" lengthAdjust="spacing" textLength="119" x="93.5825" y="322.8857">BadRequestError</text><ellipse cx="84.5825" cy="335.8359" fill="none" rx="3" ry="3" style="stroke:#038048;stroke-width:1.0;"/><text fill="#000000" font-family="sans-serif" font-size="14" lengthAdjust="spacing" textLength="98" x="93.5825" y="339.1826">DuplicateError</text><ellipse cx="84.5825" cy="352.1328" fill="none" rx="3" ry="3" style="stroke:#038048;stroke-width:1.0;"/><text fill="#000000" font-family="sans-serif" font-size="14" lengthAdjust="spacing" textLength="175" x="93.5825" y="355.4795">UnprocessableEntityError</text><ellipse cx="84.5825" cy="368.4297" fill="none" rx="3" ry="3" style="stroke:#038048;stroke-width:1.0;"/><text fill="#000000" font-family="sans-serif" font-size="14" lengthAdjust="spacing" textLength="101" x="93.5825" y="371.7764">NotFoundError</text><ellipse cx="84.5825" cy="384.7266" fill="#84BE84" rx="3" ry="3" style="stroke:#038048;stroke-width:1.0;"/><text fill="#000000" font-family="sans-serif" font-size="14" lengthAdjust="spacing" textLength="128" x="93.5825" y="388.0732">_make_response()</text><ellipse cx="84.5825" cy="401.0234" fill="#84BE84" rx="3" ry="3" style="stroke:#038048;stroke-width:1.0;"/><text fill="#000000" font-family="sans-serif" font-size="14" lengthAdjust="spacing" textLength="172" x="93.5825" y="404.3701">oda_not_found_handler()</text><ellipse cx="84.5825" cy="417.3203" fill="#84BE84" rx="3" ry="3" style="stroke:#038048;stroke-width:1.0;"/><text fill="#000000" font-family="sans-serif" font-size="14" lengthAdjust="spacing" textLength="135" x="93.5825" y="420.667">oda_error_handler()</text><ellipse cx="84.5825" cy="433.6172" fill="#84BE84" rx="3" ry="3" style="stroke:#038048;stroke-width:1.0;"/><text fill="#000000" font-family="sans-serif" font-size="14" lengthAdjust="spacing" textLength="226" x="93.5825" y="436.9639">oda_unique_constraint_handler()</text><ellipse cx="84.5825" cy="449.9141" fill="#84BE84" rx="3" ry="3" style="stroke:#038048;stroke-width:1.0;"/><text fill="#000000" font-family="sans-serif" font-size="14" lengthAdjust="spacing" textLength="252" x="93.5825" y="453.2607">dangerous_internal_server_handler()</text></g><g id="elem_model_items"><rect fill="#F1F1F1" height="93.4844" style="stroke:#181818;stroke-width:0.5;" width="202" x="1745.5825" y="318.2969"/><text fill="#000000" font-family="sans-serif" font-size="14" lengthAdjust="spacing" textLength="88" x="1802.5825" y="333.292">model_items</text><line style="stroke:#181818;stroke-width:0.5;" x1="1746.5825" x2="1946.5825" y1="338.5938" y2="338.5938"/><ellipse cx="1756.5825" cy="352.2422" fill="none" rx="3" ry="3" style="stroke:#038048;stroke-width:1.0;"/><text fill="#000000" font-family="sans-serif" font-size="14" lengthAdjust="spacing" textLength="69" x="1765.5825" y="355.5889">AppModel</text><ellipse cx="1756.5825" cy="368.5391" fill="none" rx="3" ry="3" style="stroke:#038048;stroke-width:1.0;"/><text fill="#000000" font-family="sans-serif" font-size="14" lengthAdjust="spacing" textLength="137" x="1765.5825" y="371.8857">ValidationResponse</text><ellipse cx="1756.5825" cy="384.8359" fill="none" rx="3" ry="3" style="stroke:#038048;stroke-width:1.0;"/><text fill="#000000" font-family="sans-serif" font-size="14" lengthAdjust="spacing" textLength="176" x="1765.5825" y="388.1826">ErrorResponseTraceback</text><ellipse cx="1756.5825" cy="401.1328" fill="none" rx="3" ry="3" style="stroke:#038048;stroke-width:1.0;"/><text fill="#000000" font-family="sans-serif" font-size="14" lengthAdjust="spacing" textLength="80" x="1765.5825" y="404.4795">ErrorDetails</text></g><g id="elem_osdmapper_items"><rect fill="#F1F1F1" height="158.6719" style="stroke:#181818;stroke-width:0.5;" width="271" x="1418.0825" y="285.2969"/><text fill="#000000" font-family="sans-serif" font-size="14" lengthAdjust="spacing" textLength="124" x="1491.5825" y="300.292">osdmapper_items</text><line style="stroke:#181818;stroke-width:0.5;" x1="1419.0825" x2="1688.0825" y1="305.5938" y2="305.5938"/><ellipse cx="1429.0825" cy="319.2422" fill="none" rx="3" ry="3" style="stroke:#038048;stroke-width:1.0;"/><text fill="#000000" font-family="sans-serif" font-size="14" lengthAdjust="spacing" textLength="109" x="1438.0825" y="322.5889">FrequencyBand</text><ellipse cx="1429.0825" cy="335.5391" fill="none" rx="3" ry="3" style="stroke:#038048;stroke-width:1.0;"/><text fill="#000000" font-family="sans-serif" font-size="14" lengthAdjust="spacing" textLength="60" x="1438.0825" y="338.8857">Subarray</text><ellipse cx="1429.0825" cy="351.8359" fill="none" rx="3" ry="3" style="stroke:#038048;stroke-width:1.0;"/><text fill="#000000" font-family="sans-serif" font-size="14" lengthAdjust="spacing" textLength="116" x="1438.0825" y="355.1826">MidConfiguration</text><ellipse cx="1429.0825" cy="368.1328" fill="none" rx="3" ry="3" style="stroke:#038048;stroke-width:1.0;"/><text fill="#000000" font-family="sans-serif" font-size="14" lengthAdjust="spacing" textLength="119" x="1438.0825" y="371.4795">LowConfiguration</text><ellipse cx="1429.0825" cy="384.4297" fill="none" rx="3" ry="3" style="stroke:#038048;stroke-width:1.0;"/><text fill="#000000" font-family="sans-serif" font-size="14" lengthAdjust="spacing" textLength="92" x="1438.0825" y="387.7764">Configuration</text><ellipse cx="1429.0825" cy="400.7266" fill="#84BE84" rx="3" ry="3" style="stroke:#038048;stroke-width:1.0;"/><text fill="#000000" font-family="sans-serif" font-size="14" lengthAdjust="spacing" textLength="171" x="1438.0825" y="404.0732">configuration_from_osd()</text><ellipse cx="1429.0825" cy="417.0234" fill="#84BE84" rx="3" ry="3" style="stroke:#038048;stroke-width:1.0;"/><text fill="#000000" font-family="sans-serif" font-size="14" lengthAdjust="spacing" textLength="245" x="1438.0825" y="420.3701">_get_mid_telescope_configuration()</text><ellipse cx="1429.0825" cy="433.3203" fill="#84BE84" rx="3" ry="3" style="stroke:#038048;stroke-width:1.0;"/><text fill="#000000" font-family="sans-serif" font-size="14" lengthAdjust="spacing" textLength="243" x="1438.0825" y="436.667">_get_low_telescope_configuration()</text></g><g id="elem_odt_note"><path d="M926.0825,591.2969 L926.0825,616.4297 L1177.0825,616.4297 L1177.0825,601.2969 L1167.0825,591.2969 L926.0825,591.2969 " fill="#FEFFDD" style="stroke:#181818;stroke-width:0.5;"/><path d="M1167.0825,591.2969 L1167.0825,601.2969 L1177.0825,601.2969 L1167.0825,591.2969 " fill="#FEFFDD" style="stroke:#181818;stroke-width:1.0;"/><text fill="#000000" font-family="sans-serif" font-size="13" lengthAdjust="spacing" textLength="230" x="932.0825" y="608.3638">"ODT section minimized in this view"</text></g><g id="elem_panel_decision_endpoints"><rect fill="#F1F1F1" height="93.4844" style="stroke:#181818;stroke-width:0.5;" width="240" x="962.5825" y="882.7969"/><text fill="#000000" font-family="sans-serif" font-size="14" lengthAdjust="spacing" textLength="180" x="992.5825" y="897.792">panel_decision_endpoints</text><line style="stroke:#181818;stroke-width:0.5;" x1="963.5825" x2="1201.5825" y1="903.0938" y2="903.0938"/><ellipse cx="973.5825" cy="916.7422" fill="#84BE84" rx="3" ry="3" style="stroke:#038048;stroke-width:1.0;"/><text fill="#000000" font-family="sans-serif" font-size="14" lengthAdjust="spacing" textLength="164" x="982.5825" y="920.0889">create_panel_decision()</text><ellipse cx="973.5825" cy="933.0391" fill="#84BE84" rx="3" ry="3" style="stroke:#038048;stroke-width:1.0;"/><text fill="#000000" font-family="sans-serif" font-size="14" lengthAdjust="spacing" textLength="143" x="982.5825" y="936.3857">get_panel_decision()</text><ellipse cx="973.5825" cy="949.3359" fill="#84BE84" rx="3" ry="3" style="stroke:#038048;stroke-width:1.0;"/><text fill="#000000" font-family="sans-serif" font-size="14" lengthAdjust="spacing" textLength="214" x="982.5825" y="952.6826">get_panel_decisions_for_user()</text><ellipse cx="973.5825" cy="965.6328" fill="#84BE84" rx="3" ry="3" style="stroke:#038048;stroke-width:1.0;"/><text fill="#000000" font-family="sans-serif" font-size="14" lengthAdjust="spacing" textLength="169" x="982.5825" y="968.9795">update_panel_decision()</text></g><g id="elem_panels_endpoints"><rect fill="#F1F1F1" height="77.1875" style="stroke:#181818;stroke-width:0.5;" width="175" x="1525.0825" y="890.7969"/><text fill="#000000" font-family="sans-serif" font-size="14" lengthAdjust="spacing" textLength="123" x="1551.0825" y="905.792">panels_endpoints</text><line style="stroke:#181818;stroke-width:0.5;" x1="1526.0825" x2="1699.0825" y1="911.0938" y2="911.0938"/><ellipse cx="1536.0825" cy="924.7422" fill="#84BE84" rx="3" ry="3" style="stroke:#038048;stroke-width:1.0;"/><text fill="#000000" font-family="sans-serif" font-size="14" lengthAdjust="spacing" textLength="99" x="1545.0825" y="928.0889">create_panel()</text><ellipse cx="1536.0825" cy="941.0391" fill="#84BE84" rx="3" ry="3" style="stroke:#038048;stroke-width:1.0;"/><text fill="#000000" font-family="sans-serif" font-size="14" lengthAdjust="spacing" textLength="78" x="1545.0825" y="944.3857">get_panel()</text><ellipse cx="1536.0825" cy="957.3359" fill="#84BE84" rx="3" ry="3" style="stroke:#038048;stroke-width:1.0;"/><text fill="#000000" font-family="sans-serif" font-size="14" lengthAdjust="spacing" textLength="149" x="1545.0825" y="960.6826">get_panels_for_user()</text></g><g id="elem_prsls_endpoints"><rect fill="#F1F1F1" height="240.1563" style="stroke:#181818;stroke-width:0.5;" width="210" x="1258.5825" y="809.2969"/><text fill="#000000" font-family="sans-serif" font-size="14" lengthAdjust="spacing" textLength="110" x="1308.5825" y="824.292">prsls_endpoints</text><line style="stroke:#181818;stroke-width:0.5;" x1="1259.5825" x2="1467.5825" y1="829.5938" y2="829.5938"/><ellipse cx="1269.5825" cy="843.2422" fill="#84BE84" rx="3" ry="3" style="stroke:#038048;stroke-width:1.0;"/><text fill="#000000" font-family="sans-serif" font-size="14" lengthAdjust="spacing" textLength="131" x="1278.5825" y="846.5889">get_osd_by_cycle()</text><ellipse cx="1269.5825" cy="859.5391" fill="#84BE84" rx="3" ry="3" style="stroke:#038048;stroke-width:1.0;"/><text fill="#000000" font-family="sans-serif" font-size="14" lengthAdjust="spacing" textLength="121" x="1278.5825" y="862.8857">create_proposal()</text><ellipse cx="1269.5825" cy="875.8359" fill="#84BE84" rx="3" ry="3" style="stroke:#038048;stroke-width:1.0;"/><text fill="#000000" font-family="sans-serif" font-size="14" lengthAdjust="spacing" textLength="100" x="1278.5825" y="879.1826">get_proposal()</text><ellipse cx="1269.5825" cy="892.1328" fill="#84BE84" rx="3" ry="3" style="stroke:#038048;stroke-width:1.0;"/><text fill="#000000" font-family="sans-serif" font-size="14" lengthAdjust="spacing" textLength="154" x="1278.5825" y="895.4795">get_proposals_batch()</text><ellipse cx="1269.5825" cy="908.4297" fill="#84BE84" rx="3" ry="3" style="stroke:#038048;stroke-width:1.0;"/><text fill="#000000" font-family="sans-serif" font-size="14" lengthAdjust="spacing" textLength="181" x="1278.5825" y="911.7764">get_proposals_by_status()</text><ellipse cx="1269.5825" cy="924.7266" fill="#84BE84" rx="3" ry="3" style="stroke:#038048;stroke-width:1.0;"/><text fill="#000000" font-family="sans-serif" font-size="14" lengthAdjust="spacing" textLength="184" x="1278.5825" y="928.0732">get_reviews_for_proposal()</text><ellipse cx="1269.5825" cy="941.0234" fill="#84BE84" rx="3" ry="3" style="stroke:#038048;stroke-width:1.0;"/><text fill="#000000" font-family="sans-serif" font-size="14" lengthAdjust="spacing" textLength="171" x="1278.5825" y="944.3701">get_proposals_for_user()</text><ellipse cx="1269.5825" cy="957.3203" fill="#84BE84" rx="3" ry="3" style="stroke:#038048;stroke-width:1.0;"/><text fill="#000000" font-family="sans-serif" font-size="14" lengthAdjust="spacing" textLength="126" x="1278.5825" y="960.667">update_proposal()</text><ellipse cx="1269.5825" cy="973.6172" fill="#84BE84" rx="3" ry="3" style="stroke:#038048;stroke-width:1.0;"/><text fill="#000000" font-family="sans-serif" font-size="14" lengthAdjust="spacing" textLength="129" x="1278.5825" y="976.9639">validate_proposal()</text><ellipse cx="1269.5825" cy="989.9141" fill="#84BE84" rx="3" ry="3" style="stroke:#038048;stroke-width:1.0;"/><text fill="#000000" font-family="sans-serif" font-size="14" lengthAdjust="spacing" textLength="88" x="1278.5825" y="993.2607">send_email()</text><ellipse cx="1269.5825" cy="1006.2109" fill="#84BE84" rx="3" ry="3" style="stroke:#038048;stroke-width:1.0;"/><text fill="#000000" font-family="sans-serif" font-size="14" lengthAdjust="spacing" textLength="161" x="1278.5825" y="1009.5576">create_upload_pdf_url()</text><ellipse cx="1269.5825" cy="1022.5078" fill="#84BE84" rx="3" ry="3" style="stroke:#038048;stroke-width:1.0;"/><text fill="#000000" font-family="sans-serif" font-size="14" lengthAdjust="spacing" textLength="181" x="1278.5825" y="1025.8545">create_download_pdf_url()</text><ellipse cx="1269.5825" cy="1038.8047" fill="#84BE84" rx="3" ry="3" style="stroke:#038048;stroke-width:1.0;"/><text fill="#000000" font-family="sans-serif" font-size="14" lengthAdjust="spacing" textLength="158" x="1278.5825" y="1042.1514">create_delete_pdf_url()</text></g><g id="elem_report_endpoints"><rect fill="#F1F1F1" height="44.5938" style="stroke:#181818;stroke-width:0.5;" width="133" x="1971.0825" y="906.7969"/><text fill="#000000" font-family="sans-serif" font-size="14" lengthAdjust="spacing" textLength="119" x="1978.0825" y="921.792">report_endpoints</text><line style="stroke:#181818;stroke-width:0.5;" x1="1972.0825" x2="2103.0825" y1="927.0938" y2="927.0938"/><ellipse cx="1982.0825" cy="940.7422" fill="#84BE84" rx="3" ry="3" style="stroke:#038048;stroke-width:1.0;"/><text fill="#000000" font-family="sans-serif" font-size="14" lengthAdjust="spacing" textLength="82" x="1991.0825" y="944.0889">get_report()</text></g><g id="elem_reviewers_endpoints"><rect fill="#F1F1F1" height="44.5938" style="stroke:#181818;stroke-width:0.5;" width="157" x="1757.0825" y="906.7969"/><text fill="#000000" font-family="sans-serif" font-size="14" lengthAdjust="spacing" textLength="143" x="1764.0825" y="921.792">reviewers_endpoints</text><line style="stroke:#181818;stroke-width:0.5;" x1="1758.0825" x2="1913.0825" y1="927.0938" y2="927.0938"/><ellipse cx="1768.0825" cy="940.7422" fill="#84BE84" rx="3" ry="3" style="stroke:#038048;stroke-width:1.0;"/><text fill="#000000" font-family="sans-serif" font-size="14" lengthAdjust="spacing" textLength="106" x="1777.0825" y="944.0889">get_reviewers()</text></g><g id="elem_reviews_endpoints"><rect fill="#F1F1F1" height="93.4844" style="stroke:#181818;stroke-width:0.5;" width="181" x="2161.0825" y="882.7969"/><text fill="#000000" font-family="sans-serif" font-size="14" lengthAdjust="spacing" textLength="129" x="2187.0825" y="897.792">reviews_endpoints</text><line style="stroke:#181818;stroke-width:0.5;" x1="2162.0825" x2="2341.0825" y1="903.0938" y2="903.0938"/><ellipse cx="2172.0825" cy="916.7422" fill="#84BE84" rx="3" ry="3" style="stroke:#038048;stroke-width:1.0;"/><text fill="#000000" font-family="sans-serif" font-size="14" lengthAdjust="spacing" textLength="105" x="2181.0825" y="920.0889">create_review()</text><ellipse cx="2172.0825" cy="933.0391" fill="#84BE84" rx="3" ry="3" style="stroke:#038048;stroke-width:1.0;"/><text fill="#000000" font-family="sans-serif" font-size="14" lengthAdjust="spacing" textLength="84" x="2181.0825" y="936.3857">get_review()</text><ellipse cx="2172.0825" cy="949.3359" fill="#84BE84" rx="3" ry="3" style="stroke:#038048;stroke-width:1.0;"/><text fill="#000000" font-family="sans-serif" font-size="14" lengthAdjust="spacing" textLength="155" x="2181.0825" y="952.6826">get_reviews_for_user()</text><ellipse cx="2172.0825" cy="965.6328" fill="#84BE84" rx="3" ry="3" style="stroke:#038048;stroke-width:1.0;"/><text fill="#000000" font-family="sans-serif" font-size="14" lengthAdjust="spacing" textLength="110" x="2181.0825" y="968.9795">update_review()</text></g><g id="elem_utils_note"><path d="M2742.5825,916.7969 L2742.5825,941.9297 L2992.5825,941.9297 L2992.5825,926.7969 L2982.5825,916.7969 L2742.5825,916.7969 " fill="#FEFFDD" style="stroke:#181818;stroke-width:0.5;"/><path d="M2982.5825,916.7969 L2982.5825,926.7969 L2992.5825,926.7969 L2982.5825,916.7969 " fill="#FEFFDD" style="stroke:#181818;stroke-width:1.0;"/><text fill="#000000" font-family="sans-serif" font-size="13" lengthAdjust="spacing" textLength="229" x="2748.5825" y="933.8638">"utils section minimized in this view"</text></g><g id="elem_model_note"><path d="M2422.5825,916.7969 L2422.5825,941.9297 L2686.5825,941.9297 L2686.5825,926.7969 L2676.5825,916.7969 L2422.5825,916.7969 " fill="#FEFFDD" style="stroke:#181818;stroke-width:0.5;"/><path d="M2676.5825,916.7969 L2676.5825,926.7969 L2686.5825,926.7969 L2676.5825,916.7969 " fill="#FEFFDD" style="stroke:#181818;stroke-width:1.0;"/><text fill="#000000" font-family="sans-serif" font-size="13" lengthAdjust="spacing" textLength="243" x="2428.5825" y="933.8638">"model section minimized in this view"</text></g><!--class create_app--><g id="elem_create_app"><rect codeLine="168" fill="#F1F1F1" height="56.2656" id="create_app" rx="2.5" ry="2.5" style="stroke:#181818;stroke-width:0.5;" width="109" x="1983.0825" y="79.2969"/><ellipse cx="1998.0825" cy="99.4297" fill="#ADD1B2" rx="11" ry="11" style="stroke:#181818;stroke-width:1.0;"/><path d="M2001.0513,105.0703 Q2000.4731,105.3672 1999.8325,105.5078 Q1999.1919,105.6641 1998.4888,105.6641 Q1995.9888,105.6641 1994.6606,104.0234 Q1993.3481,102.3672 1993.3481,99.2422 Q1993.3481,96.1172 1994.6606,94.4609 Q1995.9888,92.8047 1998.4888,92.8047 Q1999.1919,92.8047 1999.8325,92.9609 Q2000.4888,93.1172 2001.0513,93.4141 L2001.0513,96.1328 Q2000.4263,95.5547 1999.8325,95.2891 Q1999.2388,95.0078 1998.6138,95.0078 Q1997.27,95.0078 1996.5825,96.0859 Q1995.895,97.1484 1995.895,99.2422 Q1995.895,101.3359 1996.5825,102.4141 Q1997.27,103.4766 1998.6138,103.4766 Q1999.2388,103.4766 1999.8325,103.2109 Q2000.4263,102.9297 2001.0513,102.3516 L2001.0513,105.0703 Z " fill="#000000"/><text fill="#000000" font-family="sans-serif" font-size="12" font-style="italic" lengthAdjust="spacing" textLength="65" x="2018.0825" y="95.4355">«function»</text><text fill="#000000" font-family="sans-serif" font-size="14" lengthAdjust="spacing" textLength="77" x="2012.0825" y="111.2607">create_app</text><line style="stroke:#181818;stroke-width:0.5;" x1="1984.0825" x2="2091.0825" y1="119.5625" y2="119.5625"/><line style="stroke:#181818;stroke-width:0.5;" x1="1984.0825" x2="2091.0825" y1="127.5625" y2="127.5625"/></g><!--link common_pkg to odt_pkg--><!--link common_pkg to odt_pkg--><!--link odt_pkg to pht_pkg--><!--link odt_pkg to pht_pkg--><!--reverse link create_app to common_pkg--><g id="link_create_app_common_pkg"><path codeLine="172" d="M1977.8925,107.9569 C1655.2625,106.3969 131.5625,102.4669 57.5825,167.2969 C24.8275,196.0019 16.565,244.0519 16.62,285.4506 C16.6269,290.6255 16.7637,295.6964 16.9989,300.6126 C17.1165,303.0707 17.2587,305.4901 17.4216,307.8646 C17.4623,308.4582 17.5043,309.049 17.5475,309.6368 " fill="none" id="create_app-backto-common_pkg" style="stroke:#181818;stroke-width:1.0;"/><polygon fill="#181818" points="1983.0125,107.9869,1974.0355,103.9355,1978.0126,107.9583,1973.9898,111.9354,1983.0125,107.9869" style="stroke:#181818;stroke-width:1.0;"/></g><!--reverse link create_app to odt_pkg--><g id="link_create_app_odt_pkg"><path codeLine="173" d="M2043.7625,140.5569 C2056.9725,220.3769 2078.0725,427.6369 1963.5825,524.2969 C1941.2125,543.1869 932.7525,514.4069 909.5825,532.2969 C906.4725,534.6981 903.837,537.5516 901.6068,540.7125 C900.4917,542.2929 899.4778,543.9502 898.5566,545.6663 C898.0961,546.5244 897.6586,547.3971 897.2433,548.2823 " fill="none" id="create_app-backto-odt_pkg" style="stroke:#181818;stroke-width:1.0;"/><polygon fill="#181818" points="2042.9125,135.4869,2040.46,145.0255,2043.7414,140.4177,2048.3492,143.6992,2042.9125,135.4869" style="stroke:#181818;stroke-width:1.0;"/></g><!--reverse link create_app to pht_pkg--><g id="link_create_app_pht_pkg"><path codeLine="174" d="M2049.6325,140.3569 C2076.2025,217.1169 2130.1825,413.3269 2034.5825,524.2969 C1911.1025,667.6169 1381.9225,638.5369 1193.5825,656.2969 C1179.9125,657.5869 957.1125,655.4869 946.5825,664.2969 C940.9244,669.0344 935.7505,674.1882 931.0227,679.6892 " fill="none" id="create_app-backto-pht_pkg" style="stroke:#181818;stroke-width:1.0;"/><polygon fill="#181818" points="2047.9225,135.4669,2047.0977,145.2811,2049.5634,140.1899,2054.6546,142.6556,2047.9225,135.4669" style="stroke:#181818;stroke-width:1.0;"/></g><!--SRC=[dLVRRkCs47tNLn1vQb4aAFgyC934IHEiBqNix08j2e8MnpORYUIIb0EtoB_lKB9iqQ8aRmquTdWEEJE7Sv6TqiGfibBEgPnmOI1rGiaaSS9bG9x4Paici8ECJ1KlSEMBW7UYrcI-c9C5c9r8mIQ9PkaRsm2vIbMUAtb5c2NLLwhVDkI_927uQh2aTKmwUqK-VNf1aqnkCXYDa4ZAbrhzWwlaoAF2GMwFC26_aEdpcDu_tSvc3nFwzNcyVAAVd_uymt_xjQOi3fnfm9dClzB5ydRvF9-TdTNcrVZTP7x_EORFPyldsUlhjDShp_nZiUpaV2JLtr0lfiLDgfJXGZ87mweTcItTl0yli0O3CeL7mt88e8Tl1NFA29QzWDMeVWZ_pZA6-P56mGquQlSM3JOS-Edd_i0Aj-sAvXYF9qK3MQHAG-_v3KyofTuAFMYijIDg-QHJL9zWqQX2SbgUUrIZGZ2zTs0SDOnoIF6zwI0uHJU7eyyONlIOt5s2W37Aq2sJF1DoCwX6I8zAKL4uE2OoU-RT7UClyAq0wnuyAy36XSv4YawteLUfZSA-OjagWmU9hMZV9isKU_JAjX6QipUWvf2ZPoufpgXKZgxBMoaZ0nFXD2AFueKK61WjEvHXGheEBaTj0LC0Ir4wC99br6BRXDZPyIlB5OTiyAPALlI2RhMUUZ1O_C8omPblzT5QBaMjaQLXAQpGdJPbN5rxRmqgotEcDPZ168xCQ1oFngUIJFTtA5pO1ueLCuRjWyMfuFTAhiMcC6MS0JXHxzrWDv8s4ResAgVeyzcDKr-JkU3KGGRMjoWQx8lHC_L-0RtMzwCnS1LtvRJ5pyEezHpCSAXN_VToyMe-NX9R3NYI2oboyIzm8YHnMs793YVxLKa4oSiJ0aDwMnd2puQXveZglj_J8KnYbcAp4rRunuIk3SUK23TGz4mhBAGmDyghCO2zX8RyGEgwNVumnMApCBImPxNjoONc0rO_6hUNnDImWsLHqJfY3oEFJ8VUzMXe7uroRhbix2KUUrQdmzuwbWrTxMcwJxFp3bt7OvHMbaLT7uOiNJ6NRliPUufFbwwm4PO1NmwLF1UPYwR8AK7YH-ogBjo9MvIGGeujDguHZb35EDLyJGlJmU7gNLx0mkRZ_MXn-fB1W5R63MP3HUjDXufoiLb_Ds3i1POFp07Z1zOFsR_K-c3XLhJE71n8pkwSQsq_nPIS_WsxE3RtcyA9xXAl1qj9EeqM72xboaNZfJ5W-lpeVUwf_QWUUvf-b2l_pmy_xng_MgzzwVor5Po3_Fkwdh0NCEfPV0OV9kSGd3HcQiVlbJHZrjRvWomahGjPHZmQ-IW29mjzFIB8kZbjEFaG0-iH7mE_0m00]--></g></svg>