<?xml version="1.0" encoding="UTF-8" standalone="no"?><svg xmlns="http://www.w3.org/2000/svg" xmlns:xlink="http://www.w3.org/1999/xlink" contentStyleType="text/css" height="586px" preserveAspectRatio="none" style="width:4451px;height:586px;background:#FFFFFF;" version="1.1" viewBox="0 0 4451 586" width="4451px" zoomAndPan="magnify"><defs/><g><!--cluster pht_pkg--><g id="cluster_pht_pkg"><path d="M8.5,154 L35.5,154 A3.75,3.75 0 0 1 38,156.5 L45,176.2969 L3366.5,176.2969 A2.5,2.5 0 0 1 3369,178.7969 L3369,576.5 A2.5,2.5 0 0 1 3366.5,579 L8.5,579 A2.5,2.5 0 0 1 6,576.5 L6,156.5 A2.5,2.5 0 0 1 8.5,154 " fill="none" style="stroke:#000000;stroke-width:1.5;"/><line style="stroke:#000000;stroke-width:1.5;" x1="6" x2="45" y1="176.2969" y2="176.2969"/><text fill="#000000" font-family="sans-serif" font-size="14" font-weight="bold" lengthAdjust="spacing" textLength="26" x="10" y="168.9951">pht</text></g><!--cluster api--><g id="cluster_api"><rect fill="none" height="358" rx="2.5" ry="2.5" style="stroke:#181818;stroke-width:1.0;" width="1680" x="30" y="197"/><text fill="#000000" font-family="sans-serif" font-size="14" font-weight="bold" lengthAdjust="spacing" textLength="23" x="858.5" y="211.9951">api</text></g><!--cluster prsls--><g id="cluster_prsls"><rect fill="none" height="291" rx="2.5" ry="2.5" style="stroke:#181818;stroke-width:1.0;" width="366" x="54" y="240"/><text fill="#000000" font-family="sans-serif" font-size="14" font-weight="bold" lengthAdjust="spacing" textLength="39" x="217.5" y="254.9951">prsls</text></g><!--cluster panel_decision--><g id="cluster_panel_decision"><rect fill="none" height="144" rx="2.5" ry="2.5" style="stroke:#181818;stroke-width:1.0;" width="306" x="1112" y="313.5"/><text fill="#000000" font-family="sans-serif" font-size="14" font-weight="bold" lengthAdjust="spacing" textLength="116" x="1207" y="328.4951">panel_decision</text></g><!--cluster panels_management--><g id="cluster_panels_management"><rect fill="none" height="128" rx="2.5" ry="2.5" style="stroke:#181818;stroke-width:1.0;" width="240" x="848" y="321.5"/><text fill="#000000" font-family="sans-serif" font-size="14" font-weight="bold" lengthAdjust="spacing" textLength="161" x="887.5" y="336.4951">panels_management</text></g><!--cluster report--><g id="cluster_report"><rect fill="none" height="96" rx="2.5" ry="2.5" style="stroke:#181818;stroke-width:1.0;" width="166" x="658" y="337.5"/><text fill="#000000" font-family="sans-serif" font-size="14" font-weight="bold" lengthAdjust="spacing" textLength="50" x="716" y="352.4951">report</text></g><!--cluster reviewers--><g id="cluster_reviewers"><rect fill="none" height="96" rx="2.5" ry="2.5" style="stroke:#181818;stroke-width:1.0;" width="190" x="444" y="337.5"/><text fill="#000000" font-family="sans-serif" font-size="14" font-weight="bold" lengthAdjust="spacing" textLength="80" x="499" y="352.4951">reviewers</text></g><!--cluster reviews--><g id="cluster_reviews"><rect fill="none" height="144" rx="2.5" ry="2.5" style="stroke:#181818;stroke-width:1.0;" width="244" x="1442" y="313.5"/><text fill="#000000" font-family="sans-serif" font-size="14" font-weight="bold" lengthAdjust="spacing" textLength="63" x="1532.5" y="328.4951">reviews</text></g><!--cluster utils--><g id="cluster_utils"><rect fill="none" height="260" rx="2.5" ry="2.5" style="stroke:#181818;stroke-width:1.0;" width="1611" x="1734" y="246"/><text fill="#000000" font-family="sans-serif" font-size="14" font-weight="bold" lengthAdjust="spacing" textLength="33" x="2523" y="260.9951">utils</text></g><!--cluster email_helper--><g id="cluster_email_helper"><rect fill="none" height="112" rx="2.5" ry="2.5" style="stroke:#181818;stroke-width:1.0;" width="194" x="2006" y="329.5"/><text fill="#000000" font-family="sans-serif" font-size="14" font-weight="bold" lengthAdjust="spacing" textLength="99" x="2053.5" y="344.4951">email_helper</text></g><!--cluster pht_handler--><g id="cluster_pht_handler"><rect fill="none" height="144" rx="2.5" ry="2.5" style="stroke:#181818;stroke-width:1.0;" width="352" x="2969" y="313.5"/><text fill="#000000" font-family="sans-serif" font-size="14" font-weight="bold" lengthAdjust="spacing" textLength="93" x="3098.5" y="328.4951">pht_handler</text></g><!--cluster s3_bucket--><g id="cluster_s3_bucket"><rect fill="none" height="193" rx="2.5" ry="2.5" style="stroke:#181818;stroke-width:1.0;" width="316" x="2629" y="289"/><text fill="#000000" font-family="sans-serif" font-size="14" font-weight="bold" lengthAdjust="spacing" textLength="80" x="2747" y="303.9951">s3_bucket</text></g><!--cluster validation--><g id="cluster_validation"><rect fill="none" height="107" rx="2.5" ry="2.5" style="stroke:#181818;stroke-width:1.0;" width="381" x="2224" y="332"/><text fill="#000000" font-family="sans-serif" font-size="14" font-weight="bold" lengthAdjust="spacing" textLength="75" x="2377" y="346.9951">validation</text></g><!--cluster api.prsls--><g id="cluster_api.prsls"><path d="M3928.5,6 L3996.5,6 A3.75,3.75 0 0 1 3999,8.5 L4006,28.2969 L4097.5,28.2969 A2.5,2.5 0 0 1 4100,30.7969 L4100,102.5 A2.5,2.5 0 0 1 4097.5,105 L3928.5,105 A2.5,2.5 0 0 1 3926,102.5 L3926,8.5 A2.5,2.5 0 0 1 3928.5,6 " fill="none" style="stroke:#000000;stroke-width:1.5;"/><line style="stroke:#000000;stroke-width:1.5;" x1="3926" x2="4006" y1="28.2969" y2="28.2969"/><text fill="#000000" font-family="sans-serif" font-size="14" font-weight="bold" lengthAdjust="spacing" textLength="67" x="3930" y="20.9951">api.prsls</text></g><!--cluster utils.validation--><g id="cluster_utils.validation"><path d="M3395.5,336 L3509.5,336 A3.75,3.75 0 0 1 3512,338.5 L3519,358.2969 L3771.5,358.2969 A2.5,2.5 0 0 1 3774,360.7969 L3774,432.5 A2.5,2.5 0 0 1 3771.5,435 L3395.5,435 A2.5,2.5 0 0 1 3393,432.5 L3393,338.5 A2.5,2.5 0 0 1 3395.5,336 " fill="none" style="stroke:#000000;stroke-width:1.5;"/><line style="stroke:#000000;stroke-width:1.5;" x1="3393" x2="3519" y1="358.2969" y2="358.2969"/><text fill="#000000" font-family="sans-serif" font-size="14" font-weight="bold" lengthAdjust="spacing" textLength="113" x="3397" y="350.9951">utils.validation</text></g><!--cluster utils.pht_handler--><g id="cluster_utils.pht_handler"><path d="M4252.5,336 L4384.5,336 A3.75,3.75 0 0 1 4387,338.5 L4394,358.2969 L4437.5,358.2969 A2.5,2.5 0 0 1 4440,360.7969 L4440,432.5 A2.5,2.5 0 0 1 4437.5,435 L4252.5,435 A2.5,2.5 0 0 1 4250,432.5 L4250,338.5 A2.5,2.5 0 0 1 4252.5,336 " fill="none" style="stroke:#000000;stroke-width:1.5;"/><line style="stroke:#000000;stroke-width:1.5;" x1="4250" x2="4394" y1="358.2969" y2="358.2969"/><text fill="#000000" font-family="sans-serif" font-size="14" font-weight="bold" lengthAdjust="spacing" textLength="131" x="4254" y="350.9951">utils.pht_handler</text></g><!--cluster utils.s3_bucket--><g id="cluster_utils.s3_bucket"><path d="M3800.5,336 L3919.5,336 A3.75,3.75 0 0 1 3922,338.5 L3929,358.2969 L4003.5,358.2969 A2.5,2.5 0 0 1 4006,360.7969 L4006,432.5 A2.5,2.5 0 0 1 4003.5,435 L3800.5,435 A2.5,2.5 0 0 1 3798,432.5 L3798,338.5 A2.5,2.5 0 0 1 3800.5,336 " fill="none" style="stroke:#000000;stroke-width:1.5;"/><line style="stroke:#000000;stroke-width:1.5;" x1="3798" x2="3929" y1="358.2969" y2="358.2969"/><text fill="#000000" font-family="sans-serif" font-size="14" font-weight="bold" lengthAdjust="spacing" textLength="118" x="3802" y="350.9951">utils.s3_bucket</text></g><!--cluster api.panels--><g id="cluster_api.panels"><path d="M3398.5,6 L3479.5,6 A3.75,3.75 0 0 1 3482,8.5 L3489,28.2969 L3581.5,28.2969 A2.5,2.5 0 0 1 3584,30.7969 L3584,102.5 A2.5,2.5 0 0 1 3581.5,105 L3398.5,105 A2.5,2.5 0 0 1 3396,102.5 L3396,8.5 A2.5,2.5 0 0 1 3398.5,6 " fill="none" style="stroke:#000000;stroke-width:1.5;"/><line style="stroke:#000000;stroke-width:1.5;" x1="3396" x2="3489" y1="28.2969" y2="28.2969"/><text fill="#000000" font-family="sans-serif" font-size="14" font-weight="bold" lengthAdjust="spacing" textLength="80" x="3400" y="20.9951">api.panels</text></g><!--cluster api.report--><g id="cluster_api.report"><path d="M4255.5,6 L4334.5,6 A3.75,3.75 0 0 1 4337,8.5 L4344,28.2969 L4434.5,28.2969 A2.5,2.5 0 0 1 4437,30.7969 L4437,102.5 A2.5,2.5 0 0 1 4434.5,105 L4255.5,105 A2.5,2.5 0 0 1 4253,102.5 L4253,8.5 A2.5,2.5 0 0 1 4255.5,6 " fill="none" style="stroke:#000000;stroke-width:1.5;"/><line style="stroke:#000000;stroke-width:1.5;" x1="4253" x2="4344" y1="28.2969" y2="28.2969"/><text fill="#000000" font-family="sans-serif" font-size="14" font-weight="bold" lengthAdjust="spacing" textLength="78" x="4257" y="20.9951">api.report</text></g><!--cluster utils.email_helper--><g id="cluster_utils.email_helper"><path d="M4032.5,336 L4170.5,336 A3.75,3.75 0 0 1 4173,338.5 L4180,358.2969 L4223.5,358.2969 A2.5,2.5 0 0 1 4226,360.7969 L4226,432.5 A2.5,2.5 0 0 1 4223.5,435 L4032.5,435 A2.5,2.5 0 0 1 4030,432.5 L4030,338.5 A2.5,2.5 0 0 1 4032.5,336 " fill="none" style="stroke:#000000;stroke-width:1.5;"/><line style="stroke:#000000;stroke-width:1.5;" x1="4030" x2="4180" y1="358.2969" y2="358.2969"/><text fill="#000000" font-family="sans-serif" font-size="14" font-weight="bold" lengthAdjust="spacing" textLength="137" x="4034" y="350.9951">utils.email_helper</text></g><!--cluster api.reviewers--><g id="cluster_api.reviewers"><path d="M1699.5,6 L1808.5,6 A3.75,3.75 0 0 1 1811,8.5 L1818,28.2969 L1902.5,28.2969 A2.5,2.5 0 0 1 1905,30.7969 L1905,102.5 A2.5,2.5 0 0 1 1902.5,105 L1699.5,105 A2.5,2.5 0 0 1 1697,102.5 L1697,8.5 A2.5,2.5 0 0 1 1699.5,6 " fill="none" style="stroke:#000000;stroke-width:1.5;"/><line style="stroke:#000000;stroke-width:1.5;" x1="1697" x2="1818" y1="28.2969" y2="28.2969"/><text fill="#000000" font-family="sans-serif" font-size="14" font-weight="bold" lengthAdjust="spacing" textLength="108" x="1701" y="20.9951">api.reviewers</text></g><g id="elem_prsls_endpoints"><rect fill="#F1F1F1" height="240.1563" style="stroke:#181818;stroke-width:0.5;" width="333" x="70.5" y="275"/><text fill="#000000" font-family="sans-serif" font-size="14" lengthAdjust="spacing" textLength="110" x="182" y="289.9951">prsls_endpoints</text><line style="stroke:#181818;stroke-width:0.5;" x1="71.5" x2="402.5" y1="295.2969" y2="295.2969"/><ellipse cx="81.5" cy="308.9453" fill="none" rx="3" ry="3" style="stroke:#038048;stroke-width:1.0;"/><text fill="#000000" font-family="sans-serif" font-size="14" lengthAdjust="spacing" textLength="129" x="90.5" y="312.292">POST /prsls/create</text><ellipse cx="81.5" cy="325.2422" fill="none" rx="3" ry="3" style="stroke:#038048;stroke-width:1.0;"/><text fill="#000000" font-family="sans-serif" font-size="14" lengthAdjust="spacing" textLength="124" x="90.5" y="328.5889">POST /prsls/batch</text><ellipse cx="81.5" cy="341.5391" fill="none" rx="3" ry="3" style="stroke:#038048;stroke-width:1.0;"/><text fill="#000000" font-family="sans-serif" font-size="14" lengthAdjust="spacing" textLength="137" x="90.5" y="344.8857">POST /prsls/validate</text><ellipse cx="81.5" cy="357.8359" fill="none" rx="3" ry="3" style="stroke:#038048;stroke-width:1.0;"/><text fill="#000000" font-family="sans-serif" font-size="14" lengthAdjust="spacing" textLength="166" x="90.5" y="361.1826">POST /prsls/send-email/</text><ellipse cx="81.5" cy="374.1328" fill="none" rx="3" ry="3" style="stroke:#038048;stroke-width:1.0;"/><text fill="#000000" font-family="sans-serif" font-size="14" lengthAdjust="spacing" textLength="287" x="90.5" y="377.4795">POST /prsls/signed-url/upload/{filename}</text><ellipse cx="81.5" cy="390.4297" fill="none" rx="3" ry="3" style="stroke:#038048;stroke-width:1.0;"/><text fill="#000000" font-family="sans-serif" font-size="14" lengthAdjust="spacing" textLength="307" x="90.5" y="393.7764">POST /prsls/signed-url/download/{filename}</text><ellipse cx="81.5" cy="406.7266" fill="none" rx="3" ry="3" style="stroke:#038048;stroke-width:1.0;"/><text fill="#000000" font-family="sans-serif" font-size="14" lengthAdjust="spacing" textLength="284" x="90.5" y="410.0732">POST /prsls/signed-url/delete/{filename}</text><ellipse cx="81.5" cy="423.0234" fill="none" rx="3" ry="3" style="stroke:#038048;stroke-width:1.0;"/><text fill="#000000" font-family="sans-serif" font-size="14" lengthAdjust="spacing" textLength="160" x="90.5" y="426.3701">GET /prsls/osd/{cycle}</text><ellipse cx="81.5" cy="439.3203" fill="none" rx="3" ry="3" style="stroke:#038048;stroke-width:1.0;"/><text fill="#000000" font-family="sans-serif" font-size="14" lengthAdjust="spacing" textLength="173" x="90.5" y="442.667">GET /prsls/{proposal_id}</text><ellipse cx="81.5" cy="455.6172" fill="none" rx="3" ry="3" style="stroke:#038048;stroke-width:1.0;"/><text fill="#000000" font-family="sans-serif" font-size="14" lengthAdjust="spacing" textLength="185" x="90.5" y="458.9639">GET /prsls/status/{status}</text><ellipse cx="81.5" cy="471.9141" fill="none" rx="3" ry="3" style="stroke:#038048;stroke-width:1.0;"/><text fill="#000000" font-family="sans-serif" font-size="14" lengthAdjust="spacing" textLength="195" x="90.5" y="475.2607">GET /prsls/reviews/{prsl_id}</text><ellipse cx="81.5" cy="488.2109" fill="none" rx="3" ry="3" style="stroke:#038048;stroke-width:1.0;"/><text fill="#000000" font-family="sans-serif" font-size="14" lengthAdjust="spacing" textLength="168" x="90.5" y="491.5576">GET /prsls/list/{user_id}</text><ellipse cx="81.5" cy="504.5078" fill="none" rx="3" ry="3" style="stroke:#038048;stroke-width:1.0;"/><text fill="#000000" font-family="sans-serif" font-size="14" lengthAdjust="spacing" textLength="172" x="90.5" y="507.8545">PUT /prsls/{proposal_id}</text></g><g id="elem_panel_decision_endpoints"><rect fill="#F1F1F1" height="93.4844" style="stroke:#181818;stroke-width:0.5;" width="273" x="1128.5" y="348.5"/><text fill="#000000" font-family="sans-serif" font-size="14" lengthAdjust="spacing" textLength="180" x="1175" y="363.4951">panel_decision_endpoints</text><line style="stroke:#181818;stroke-width:0.5;" x1="1129.5" x2="1400.5" y1="368.7969" y2="368.7969"/><ellipse cx="1139.5" cy="382.4453" fill="none" rx="3" ry="3" style="stroke:#038048;stroke-width:1.0;"/><text fill="#000000" font-family="sans-serif" font-size="14" lengthAdjust="spacing" textLength="161" x="1148.5" y="385.792">POST /panel-decisions/</text><ellipse cx="1139.5" cy="398.7422" fill="none" rx="3" ry="3" style="stroke:#038048;stroke-width:1.0;"/><text fill="#000000" font-family="sans-serif" font-size="14" lengthAdjust="spacing" textLength="247" x="1148.5" y="402.0889">GET /panel-decisions/{decision_id}</text><ellipse cx="1139.5" cy="415.0391" fill="none" rx="3" ry="3" style="stroke:#038048;stroke-width:1.0;"/><text fill="#000000" font-family="sans-serif" font-size="14" lengthAdjust="spacing" textLength="244" x="1148.5" y="418.3857">GET /panel-decisions/list/{user_id}</text><ellipse cx="1139.5" cy="431.3359" fill="none" rx="3" ry="3" style="stroke:#038048;stroke-width:1.0;"/><text fill="#000000" font-family="sans-serif" font-size="14" lengthAdjust="spacing" textLength="246" x="1148.5" y="434.6826">PUT /panel-decisions/{decision_id}</text></g><g id="elem_panels_endpoints"><rect fill="#F1F1F1" height="77.1875" style="stroke:#181818;stroke-width:0.5;" width="207" x="864.5" y="356.5"/><text fill="#000000" font-family="sans-serif" font-size="14" lengthAdjust="spacing" textLength="123" x="906.5" y="371.4951">panels_endpoints</text><line style="stroke:#181818;stroke-width:0.5;" x1="865.5" x2="1070.5" y1="376.7969" y2="376.7969"/><ellipse cx="875.5" cy="390.4453" fill="none" rx="3" ry="3" style="stroke:#038048;stroke-width:1.0;"/><text fill="#000000" font-family="sans-serif" font-size="14" lengthAdjust="spacing" textLength="98" x="884.5" y="393.792">POST /panels/</text><ellipse cx="875.5" cy="406.7422" fill="none" rx="3" ry="3" style="stroke:#038048;stroke-width:1.0;"/><text fill="#000000" font-family="sans-serif" font-size="14" lengthAdjust="spacing" textLength="169" x="884.5" y="410.0889">GET /panels//{panel_id}</text><ellipse cx="875.5" cy="423.0391" fill="none" rx="3" ry="3" style="stroke:#038048;stroke-width:1.0;"/><text fill="#000000" font-family="sans-serif" font-size="14" lengthAdjust="spacing" textLength="181" x="884.5" y="426.3857">GET /panels/list/{user_id}</text></g><g id="elem_report_endpoints"><rect fill="#F1F1F1" height="44.5938" style="stroke:#181818;stroke-width:0.5;" width="133" x="674.5" y="372.5"/><text fill="#000000" font-family="sans-serif" font-size="14" lengthAdjust="spacing" textLength="119" x="681.5" y="387.4951">report_endpoints</text><line style="stroke:#181818;stroke-width:0.5;" x1="675.5" x2="806.5" y1="392.7969" y2="392.7969"/><ellipse cx="685.5" cy="406.4453" fill="none" rx="3" ry="3" style="stroke:#038048;stroke-width:1.0;"/><text fill="#000000" font-family="sans-serif" font-size="14" lengthAdjust="spacing" textLength="85" x="694.5" y="409.792">GET /report/</text></g><g id="elem_reviewers_endpoints"><rect fill="#F1F1F1" height="44.5938" style="stroke:#181818;stroke-width:0.5;" width="157" x="460.5" y="372.5"/><text fill="#000000" font-family="sans-serif" font-size="14" lengthAdjust="spacing" textLength="143" x="467.5" y="387.4951">reviewers_endpoints</text><line style="stroke:#181818;stroke-width:0.5;" x1="461.5" x2="616.5" y1="392.7969" y2="392.7969"/><ellipse cx="471.5" cy="406.4453" fill="none" rx="3" ry="3" style="stroke:#038048;stroke-width:1.0;"/><text fill="#000000" font-family="sans-serif" font-size="14" lengthAdjust="spacing" textLength="104" x="480.5" y="409.792">GET /reviewers</text></g><g id="elem_reviews_endpoints"><rect fill="#F1F1F1" height="93.4844" style="stroke:#181818;stroke-width:0.5;" width="213" x="1457.5" y="348.5"/><text fill="#000000" font-family="sans-serif" font-size="14" lengthAdjust="spacing" textLength="129" x="1499.5" y="363.4951">reviews_endpoints</text><line style="stroke:#181818;stroke-width:0.5;" x1="1458.5" x2="1669.5" y1="368.7969" y2="368.7969"/><ellipse cx="1468.5" cy="382.4453" fill="none" rx="3" ry="3" style="stroke:#038048;stroke-width:1.0;"/><text fill="#000000" font-family="sans-serif" font-size="14" lengthAdjust="spacing" textLength="99" x="1477.5" y="385.792">POST /reviews</text><ellipse cx="1468.5" cy="398.7422" fill="none" rx="3" ry="3" style="stroke:#038048;stroke-width:1.0;"/><text fill="#000000" font-family="sans-serif" font-size="14" lengthAdjust="spacing" textLength="176" x="1477.5" y="402.0889">GET /reviews/{review_id}</text><ellipse cx="1468.5" cy="415.0391" fill="none" rx="3" ry="3" style="stroke:#038048;stroke-width:1.0;"/><text fill="#000000" font-family="sans-serif" font-size="14" lengthAdjust="spacing" textLength="187" x="1477.5" y="418.3857">GET /reviews/list/{user_id}</text><ellipse cx="1468.5" cy="431.3359" fill="none" rx="3" ry="3" style="stroke:#038048;stroke-width:1.0;"/><text fill="#000000" font-family="sans-serif" font-size="14" lengthAdjust="spacing" textLength="175" x="1477.5" y="434.6826">PUT /reviews/{review_id}</text></g><!--class constants--><g id="elem_constants"><rect codeLine="94" fill="#F1F1F1" height="48" id="constants" rx="2.5" ry="2.5" style="stroke:#181818;stroke-width:0.5;" width="101" x="1886.5" y="371"/><ellipse cx="1901.5" cy="387" fill="#ADD1B2" rx="11" ry="11" style="stroke:#181818;stroke-width:1.0;"/><path d="M1904.4688,392.6406 Q1903.8906,392.9375 1903.25,393.0781 Q1902.6094,393.2344 1901.9063,393.2344 Q1899.4063,393.2344 1898.0781,391.5938 Q1896.7656,389.9375 1896.7656,386.8125 Q1896.7656,383.6875 1898.0781,382.0313 Q1899.4063,380.375 1901.9063,380.375 Q1902.6094,380.375 1903.25,380.5313 Q1903.9063,380.6875 1904.4688,380.9844 L1904.4688,383.7031 Q1903.8438,383.125 1903.25,382.8594 Q1902.6563,382.5781 1902.0313,382.5781 Q1900.6875,382.5781 1900,383.6563 Q1899.3125,384.7188 1899.3125,386.8125 Q1899.3125,388.9063 1900,389.9844 Q1900.6875,391.0469 1902.0313,391.0469 Q1902.6563,391.0469 1903.25,390.7813 Q1903.8438,390.5 1904.4688,389.9219 L1904.4688,392.6406 Z " fill="#000000"/><text fill="#000000" font-family="sans-serif" font-size="14" lengthAdjust="spacing" textLength="69" x="1915.5" y="391.8467">constants</text><line style="stroke:#181818;stroke-width:0.5;" x1="1887.5" x2="1986.5" y1="403" y2="403"/><line style="stroke:#181818;stroke-width:0.5;" x1="1887.5" x2="1986.5" y1="411" y2="411"/></g><!--class utils.constants--><g id="elem_utils.constants"><rect fill="#F1F1F1" height="48" id="utils.constants" rx="2.5" ry="2.5" style="stroke:#181818;stroke-width:0.5;" width="101" x="1750.5" y="371"/><ellipse cx="1765.5" cy="387" fill="#ADD1B2" rx="11" ry="11" style="stroke:#181818;stroke-width:1.0;"/><path d="M1768.4688,392.6406 Q1767.8906,392.9375 1767.25,393.0781 Q1766.6094,393.2344 1765.9063,393.2344 Q1763.4063,393.2344 1762.0781,391.5938 Q1760.7656,389.9375 1760.7656,386.8125 Q1760.7656,383.6875 1762.0781,382.0313 Q1763.4063,380.375 1765.9063,380.375 Q1766.6094,380.375 1767.25,380.5313 Q1767.9063,380.6875 1768.4688,380.9844 L1768.4688,383.7031 Q1767.8438,383.125 1767.25,382.8594 Q1766.6563,382.5781 1766.0313,382.5781 Q1764.6875,382.5781 1764,383.6563 Q1763.3125,384.7188 1763.3125,386.8125 Q1763.3125,388.9063 1764,389.9844 Q1764.6875,391.0469 1766.0313,391.0469 Q1766.6563,391.0469 1767.25,390.7813 Q1767.8438,390.5 1768.4688,389.9219 L1768.4688,392.6406 Z " fill="#000000"/><text fill="#000000" font-family="sans-serif" font-size="14" lengthAdjust="spacing" textLength="69" x="1779.5" y="391.8467">constants</text><line style="stroke:#181818;stroke-width:0.5;" x1="1751.5" x2="1850.5" y1="403" y2="403"/><line style="stroke:#181818;stroke-width:0.5;" x1="1751.5" x2="1850.5" y1="411" y2="411"/></g><g id="elem_email_helper_items"><rect fill="#F1F1F1" height="60.8906" style="stroke:#181818;stroke-width:0.5;" width="161" x="2022.5" y="364.5"/><text fill="#000000" font-family="sans-serif" font-size="14" lengthAdjust="spacing" textLength="132" x="2037" y="379.4951">email_helper_items</text><line style="stroke:#181818;stroke-width:0.5;" x1="2023.5" x2="2182.5" y1="384.7969" y2="384.7969"/><ellipse cx="2033.5" cy="398.4453" fill="#84BE84" rx="3" ry="3" style="stroke:#038048;stroke-width:1.0;"/><text fill="#000000" font-family="sans-serif" font-size="14" lengthAdjust="spacing" textLength="99" x="2042.5" y="401.792">render_email()</text><ellipse cx="2033.5" cy="414.7422" fill="#84BE84" rx="3" ry="3" style="stroke:#038048;stroke-width:1.0;"/><text fill="#000000" font-family="sans-serif" font-size="14" lengthAdjust="spacing" textLength="135" x="2042.5" y="418.0889">send_email_async()</text></g><g id="elem_pht_handler_items"><rect fill="#F1F1F1" height="93.4844" style="stroke:#181818;stroke-width:0.5;" width="320" x="2985" y="348.5"/><text fill="#000000" font-family="sans-serif" font-size="14" lengthAdjust="spacing" textLength="127" x="3081.5" y="363.4951">pht_handler_items</text><line style="stroke:#181818;stroke-width:0.5;" x1="2986" x2="3304" y1="368.7969" y2="368.7969"/><ellipse cx="2996" cy="382.4453" fill="#84BE84" rx="3" ry="3" style="stroke:#038048;stroke-width:1.0;"/><text fill="#000000" font-family="sans-serif" font-size="14" lengthAdjust="spacing" textLength="199" x="3005" y="385.792">transform_update_proposal()</text><ellipse cx="2996" cy="398.7422" fill="#84BE84" rx="3" ry="3" style="stroke:#038048;stroke-width:1.0;"/><text fill="#000000" font-family="sans-serif" font-size="14" lengthAdjust="spacing" textLength="165" x="3005" y="402.0889">get_latest_entity_by_id()</text><ellipse cx="2996" cy="415.0391" fill="#84BE84" rx="3" ry="3" style="stroke:#038048;stroke-width:1.0;"/><text fill="#000000" font-family="sans-serif" font-size="14" lengthAdjust="spacing" textLength="122" x="3005" y="418.3857">_get_array_class()</text><ellipse cx="2996" cy="431.3359" fill="#84BE84" rx="3" ry="3" style="stroke:#038048;stroke-width:1.0;"/><text fill="#000000" font-family="sans-serif" font-size="14" lengthAdjust="spacing" textLength="294" x="3005" y="434.6826">join_proposals_panels_reviews_decisions()</text></g><g id="elem_s3_bucket_functions"><rect fill="#F1F1F1" height="142.375" style="stroke:#181818;stroke-width:0.5;" width="284" x="2645" y="324"/><text fill="#000000" font-family="sans-serif" font-size="14" lengthAdjust="spacing" textLength="143" x="2715.5" y="338.9951">s3_bucket_functions</text><line style="stroke:#181818;stroke-width:0.5;" x1="2646" x2="2928" y1="344.2969" y2="344.2969"/><ellipse cx="2656" cy="357.9453" fill="#84BE84" rx="3" ry="3" style="stroke:#038048;stroke-width:1.0;"/><text fill="#000000" font-family="sans-serif" font-size="14" lengthAdjust="spacing" textLength="125" x="2665" y="361.292">S3Method (Enum)</text><ellipse cx="2656" cy="374.2422" fill="none" rx="3" ry="3" style="stroke:#038048;stroke-width:1.0;"/><text fill="#000000" font-family="sans-serif" font-size="14" lengthAdjust="spacing" textLength="62" x="2665" y="377.5889">S3Config</text><ellipse cx="2656" cy="390.5391" fill="#84BE84" rx="3" ry="3" style="stroke:#038048;stroke-width:1.0;"/><text fill="#000000" font-family="sans-serif" font-size="14" lengthAdjust="spacing" textLength="111" x="2665" y="393.8857">get_aws_client()</text><ellipse cx="2656" cy="406.8359" fill="#84BE84" rx="3" ry="3" style="stroke:#038048;stroke-width:1.0;"/><text fill="#000000" font-family="sans-serif" font-size="14" lengthAdjust="spacing" textLength="174" x="2665" y="410.1826">generate_presigned_url()</text><ellipse cx="2656" cy="423.1328" fill="#84BE84" rx="3" ry="3" style="stroke:#038048;stroke-width:1.0;"/><text fill="#000000" font-family="sans-serif" font-size="14" lengthAdjust="spacing" textLength="238" x="2665" y="426.4795">create_presigned_url_upload_pdf()</text><ellipse cx="2656" cy="439.4297" fill="#84BE84" rx="3" ry="3" style="stroke:#038048;stroke-width:1.0;"/><text fill="#000000" font-family="sans-serif" font-size="14" lengthAdjust="spacing" textLength="258" x="2665" y="442.7764">create_presigned_url_download_pdf()</text><ellipse cx="2656" cy="455.7266" fill="#84BE84" rx="3" ry="3" style="stroke:#038048;stroke-width:1.0;"/><text fill="#000000" font-family="sans-serif" font-size="14" lengthAdjust="spacing" textLength="235" x="2665" y="459.0732">create_presigned_url_delete_pdf()</text></g><!--class validate_duplicates--><g id="elem_validate_duplicates"><rect codeLine="91" fill="#F1F1F1" height="56.2656" id="validate_duplicates" rx="2.5" ry="2.5" style="stroke:#181818;stroke-width:0.5;" width="162" x="2427" y="367"/><ellipse cx="2442" cy="387.1328" fill="#ADD1B2" rx="11" ry="11" style="stroke:#181818;stroke-width:1.0;"/><path d="M2444.9688,392.7734 Q2444.3906,393.0703 2443.75,393.2109 Q2443.1094,393.3672 2442.4063,393.3672 Q2439.9063,393.3672 2438.5781,391.7266 Q2437.2656,390.0703 2437.2656,386.9453 Q2437.2656,383.8203 2438.5781,382.1641 Q2439.9063,380.5078 2442.4063,380.5078 Q2443.1094,380.5078 2443.75,380.6641 Q2444.4063,380.8203 2444.9688,381.1172 L2444.9688,383.8359 Q2444.3438,383.2578 2443.75,382.9922 Q2443.1563,382.7109 2442.5313,382.7109 Q2441.1875,382.7109 2440.5,383.7891 Q2439.8125,384.8516 2439.8125,386.9453 Q2439.8125,389.0391 2440.5,390.1172 Q2441.1875,391.1797 2442.5313,391.1797 Q2443.1563,391.1797 2443.75,390.9141 Q2444.3438,390.6328 2444.9688,390.0547 L2444.9688,392.7734 Z " fill="#000000"/><text fill="#000000" font-family="sans-serif" font-size="12" font-style="italic" lengthAdjust="spacing" textLength="65" x="2488.5" y="383.1387">«function»</text><text fill="#000000" font-family="sans-serif" font-size="14" lengthAdjust="spacing" textLength="130" x="2456" y="398.9639">validate_duplicates</text><line style="stroke:#181818;stroke-width:0.5;" x1="2428" x2="2588" y1="407.2656" y2="407.2656"/><line style="stroke:#181818;stroke-width:0.5;" x1="2428" x2="2588" y1="415.2656" y2="415.2656"/></g><!--class validate_proposal--><g id="elem_validate_proposal"><rect codeLine="92" fill="#F1F1F1" height="56.2656" id="validate_proposal" rx="2.5" ry="2.5" style="stroke:#181818;stroke-width:0.5;" width="151" x="2240.5" y="367"/><ellipse cx="2255.5" cy="387.1328" fill="#ADD1B2" rx="11" ry="11" style="stroke:#181818;stroke-width:1.0;"/><path d="M2258.4688,392.7734 Q2257.8906,393.0703 2257.25,393.2109 Q2256.6094,393.3672 2255.9063,393.3672 Q2253.4063,393.3672 2252.0781,391.7266 Q2250.7656,390.0703 2250.7656,386.9453 Q2250.7656,383.8203 2252.0781,382.1641 Q2253.4063,380.5078 2255.9063,380.5078 Q2256.6094,380.5078 2257.25,380.6641 Q2257.9063,380.8203 2258.4688,381.1172 L2258.4688,383.8359 Q2257.8438,383.2578 2257.25,382.9922 Q2256.6563,382.7109 2256.0313,382.7109 Q2254.6875,382.7109 2254,383.7891 Q2253.3125,384.8516 2253.3125,386.9453 Q2253.3125,389.0391 2254,390.1172 Q2254.6875,391.1797 2256.0313,391.1797 Q2256.6563,391.1797 2257.25,390.9141 Q2257.8438,390.6328 2258.4688,390.0547 L2258.4688,392.7734 Z " fill="#000000"/><text fill="#000000" font-family="sans-serif" font-size="12" font-style="italic" lengthAdjust="spacing" textLength="65" x="2296.5" y="383.1387">«function»</text><text fill="#000000" font-family="sans-serif" font-size="14" lengthAdjust="spacing" textLength="119" x="2269.5" y="398.9639">validate_proposal</text><line style="stroke:#181818;stroke-width:0.5;" x1="2241.5" x2="2390.5" y1="407.2656" y2="407.2656"/><line style="stroke:#181818;stroke-width:0.5;" x1="2241.5" x2="2390.5" y1="415.2656" y2="415.2656"/></g><!--class api.prsls.prsls_endpoints--><g id="elem_api.prsls.prsls_endpoints"><rect fill="#F1F1F1" height="48" id="api.prsls.prsls_endpoints" rx="2.5" ry="2.5" style="stroke:#181818;stroke-width:0.5;" width="142" x="3942" y="41"/><ellipse cx="3957" cy="57" fill="#ADD1B2" rx="11" ry="11" style="stroke:#181818;stroke-width:1.0;"/><path d="M3959.9688,62.6406 Q3959.3906,62.9375 3958.75,63.0781 Q3958.1094,63.2344 3957.4063,63.2344 Q3954.9063,63.2344 3953.5781,61.5938 Q3952.2656,59.9375 3952.2656,56.8125 Q3952.2656,53.6875 3953.5781,52.0313 Q3954.9063,50.375 3957.4063,50.375 Q3958.1094,50.375 3958.75,50.5313 Q3959.4063,50.6875 3959.9688,50.9844 L3959.9688,53.7031 Q3959.3438,53.125 3958.75,52.8594 Q3958.1563,52.5781 3957.5313,52.5781 Q3956.1875,52.5781 3955.5,53.6563 Q3954.8125,54.7188 3954.8125,56.8125 Q3954.8125,58.9063 3955.5,59.9844 Q3956.1875,61.0469 3957.5313,61.0469 Q3958.1563,61.0469 3958.75,60.7813 Q3959.3438,60.5 3959.9688,59.9219 L3959.9688,62.6406 Z " fill="#000000"/><text fill="#000000" font-family="sans-serif" font-size="14" lengthAdjust="spacing" textLength="110" x="3971" y="61.8467">prsls_endpoints</text><line style="stroke:#181818;stroke-width:0.5;" x1="3943" x2="4083" y1="73" y2="73"/><line style="stroke:#181818;stroke-width:0.5;" x1="3943" x2="4083" y1="81" y2="81"/></g><!--class utils.validation.validate_proposal--><g id="elem_utils.validation.validate_proposal"><rect fill="#F1F1F1" height="48" id="utils.validation.validate_proposal" rx="2.5" ry="2.5" style="stroke:#181818;stroke-width:0.5;" width="151" x="3606.5" y="371"/><ellipse cx="3621.5" cy="387" fill="#ADD1B2" rx="11" ry="11" style="stroke:#181818;stroke-width:1.0;"/><path d="M3624.4688,392.6406 Q3623.8906,392.9375 3623.25,393.0781 Q3622.6094,393.2344 3621.9063,393.2344 Q3619.4063,393.2344 3618.0781,391.5938 Q3616.7656,389.9375 3616.7656,386.8125 Q3616.7656,383.6875 3618.0781,382.0313 Q3619.4063,380.375 3621.9063,380.375 Q3622.6094,380.375 3623.25,380.5313 Q3623.9063,380.6875 3624.4688,380.9844 L3624.4688,383.7031 Q3623.8438,383.125 3623.25,382.8594 Q3622.6563,382.5781 3622.0313,382.5781 Q3620.6875,382.5781 3620,383.6563 Q3619.3125,384.7188 3619.3125,386.8125 Q3619.3125,388.9063 3620,389.9844 Q3620.6875,391.0469 3622.0313,391.0469 Q3622.6563,391.0469 3623.25,390.7813 Q3623.8438,390.5 3624.4688,389.9219 L3624.4688,392.6406 Z " fill="#000000"/><text fill="#000000" font-family="sans-serif" font-size="14" lengthAdjust="spacing" textLength="119" x="3635.5" y="391.8467">validate_proposal</text><line style="stroke:#181818;stroke-width:0.5;" x1="3607.5" x2="3756.5" y1="403" y2="403"/><line style="stroke:#181818;stroke-width:0.5;" x1="3607.5" x2="3756.5" y1="411" y2="411"/></g><!--class utils.validation.validate_duplicates--><g id="elem_utils.validation.validate_duplicates"><rect fill="#F1F1F1" height="48" id="utils.validation.validate_duplicates" rx="2.5" ry="2.5" style="stroke:#181818;stroke-width:0.5;" width="162" x="3409" y="371"/><ellipse cx="3424" cy="387" fill="#ADD1B2" rx="11" ry="11" style="stroke:#181818;stroke-width:1.0;"/><path d="M3426.9688,392.6406 Q3426.3906,392.9375 3425.75,393.0781 Q3425.1094,393.2344 3424.4063,393.2344 Q3421.9063,393.2344 3420.5781,391.5938 Q3419.2656,389.9375 3419.2656,386.8125 Q3419.2656,383.6875 3420.5781,382.0313 Q3421.9063,380.375 3424.4063,380.375 Q3425.1094,380.375 3425.75,380.5313 Q3426.4063,380.6875 3426.9688,380.9844 L3426.9688,383.7031 Q3426.3438,383.125 3425.75,382.8594 Q3425.1563,382.5781 3424.5313,382.5781 Q3423.1875,382.5781 3422.5,383.6563 Q3421.8125,384.7188 3421.8125,386.8125 Q3421.8125,388.9063 3422.5,389.9844 Q3423.1875,391.0469 3424.5313,391.0469 Q3425.1563,391.0469 3425.75,390.7813 Q3426.3438,390.5 3426.9688,389.9219 L3426.9688,392.6406 Z " fill="#000000"/><text fill="#000000" font-family="sans-serif" font-size="14" lengthAdjust="spacing" textLength="130" x="3438" y="391.8467">validate_duplicates</text><line style="stroke:#181818;stroke-width:0.5;" x1="3410" x2="3570" y1="403" y2="403"/><line style="stroke:#181818;stroke-width:0.5;" x1="3410" x2="3570" y1="411" y2="411"/></g><!--class utils.pht_handler.pht_handler_items--><g id="elem_utils.pht_handler.pht_handler_items"><rect fill="#F1F1F1" height="48" id="utils.pht_handler.pht_handler_items" rx="2.5" ry="2.5" style="stroke:#181818;stroke-width:0.5;" width="159" x="4265.5" y="371"/><ellipse cx="4280.5" cy="387" fill="#ADD1B2" rx="11" ry="11" style="stroke:#181818;stroke-width:1.0;"/><path d="M4283.4688,392.6406 Q4282.8906,392.9375 4282.25,393.0781 Q4281.6094,393.2344 4280.9063,393.2344 Q4278.4063,393.2344 4277.0781,391.5938 Q4275.7656,389.9375 4275.7656,386.8125 Q4275.7656,383.6875 4277.0781,382.0313 Q4278.4063,380.375 4280.9063,380.375 Q4281.6094,380.375 4282.25,380.5313 Q4282.9063,380.6875 4283.4688,380.9844 L4283.4688,383.7031 Q4282.8438,383.125 4282.25,382.8594 Q4281.6563,382.5781 4281.0313,382.5781 Q4279.6875,382.5781 4279,383.6563 Q4278.3125,384.7188 4278.3125,386.8125 Q4278.3125,388.9063 4279,389.9844 Q4279.6875,391.0469 4281.0313,391.0469 Q4281.6563,391.0469 4282.25,390.7813 Q4282.8438,390.5 4283.4688,389.9219 L4283.4688,392.6406 Z " fill="#000000"/><text fill="#000000" font-family="sans-serif" font-size="14" lengthAdjust="spacing" textLength="127" x="4294.5" y="391.8467">pht_handler_items</text><line style="stroke:#181818;stroke-width:0.5;" x1="4266.5" x2="4423.5" y1="403" y2="403"/><line style="stroke:#181818;stroke-width:0.5;" x1="4266.5" x2="4423.5" y1="411" y2="411"/></g><!--class utils.s3_bucket.s3_bucket_functions--><g id="elem_utils.s3_bucket.s3_bucket_functions"><rect fill="#F1F1F1" height="48" id="utils.s3_bucket.s3_bucket_functions" rx="2.5" ry="2.5" style="stroke:#181818;stroke-width:0.5;" width="175" x="3814.5" y="371"/><ellipse cx="3829.5" cy="387" fill="#ADD1B2" rx="11" ry="11" style="stroke:#181818;stroke-width:1.0;"/><path d="M3832.4688,392.6406 Q3831.8906,392.9375 3831.25,393.0781 Q3830.6094,393.2344 3829.9063,393.2344 Q3827.4063,393.2344 3826.0781,391.5938 Q3824.7656,389.9375 3824.7656,386.8125 Q3824.7656,383.6875 3826.0781,382.0313 Q3827.4063,380.375 3829.9063,380.375 Q3830.6094,380.375 3831.25,380.5313 Q3831.9063,380.6875 3832.4688,380.9844 L3832.4688,383.7031 Q3831.8438,383.125 3831.25,382.8594 Q3830.6563,382.5781 3830.0313,382.5781 Q3828.6875,382.5781 3828,383.6563 Q3827.3125,384.7188 3827.3125,386.8125 Q3827.3125,388.9063 3828,389.9844 Q3828.6875,391.0469 3830.0313,391.0469 Q3830.6563,391.0469 3831.25,390.7813 Q3831.8438,390.5 3832.4688,389.9219 L3832.4688,392.6406 Z " fill="#000000"/><text fill="#000000" font-family="sans-serif" font-size="14" lengthAdjust="spacing" textLength="143" x="3843.5" y="391.8467">s3_bucket_functions</text><line style="stroke:#181818;stroke-width:0.5;" x1="3815.5" x2="3988.5" y1="403" y2="403"/><line style="stroke:#181818;stroke-width:0.5;" x1="3815.5" x2="3988.5" y1="411" y2="411"/></g><!--class api.panels.panels_endpoints--><g id="elem_api.panels.panels_endpoints"><rect fill="#F1F1F1" height="48" id="api.panels.panels_endpoints" rx="2.5" ry="2.5" style="stroke:#181818;stroke-width:0.5;" width="155" x="3412.5" y="41"/><ellipse cx="3427.5" cy="57" fill="#ADD1B2" rx="11" ry="11" style="stroke:#181818;stroke-width:1.0;"/><path d="M3430.4688,62.6406 Q3429.8906,62.9375 3429.25,63.0781 Q3428.6094,63.2344 3427.9063,63.2344 Q3425.4063,63.2344 3424.0781,61.5938 Q3422.7656,59.9375 3422.7656,56.8125 Q3422.7656,53.6875 3424.0781,52.0313 Q3425.4063,50.375 3427.9063,50.375 Q3428.6094,50.375 3429.25,50.5313 Q3429.9063,50.6875 3430.4688,50.9844 L3430.4688,53.7031 Q3429.8438,53.125 3429.25,52.8594 Q3428.6563,52.5781 3428.0313,52.5781 Q3426.6875,52.5781 3426,53.6563 Q3425.3125,54.7188 3425.3125,56.8125 Q3425.3125,58.9063 3426,59.9844 Q3426.6875,61.0469 3428.0313,61.0469 Q3428.6563,61.0469 3429.25,60.7813 Q3429.8438,60.5 3430.4688,59.9219 L3430.4688,62.6406 Z " fill="#000000"/><text fill="#000000" font-family="sans-serif" font-size="14" lengthAdjust="spacing" textLength="123" x="3441.5" y="61.8467">panels_endpoints</text><line style="stroke:#181818;stroke-width:0.5;" x1="3413.5" x2="3566.5" y1="73" y2="73"/><line style="stroke:#181818;stroke-width:0.5;" x1="3413.5" x2="3566.5" y1="81" y2="81"/></g><!--class api.report.report_endpoints--><g id="elem_api.report.report_endpoints"><rect fill="#F1F1F1" height="48" id="api.report.report_endpoints" rx="2.5" ry="2.5" style="stroke:#181818;stroke-width:0.5;" width="151" x="4269.5" y="41"/><ellipse cx="4284.5" cy="57" fill="#ADD1B2" rx="11" ry="11" style="stroke:#181818;stroke-width:1.0;"/><path d="M4287.4688,62.6406 Q4286.8906,62.9375 4286.25,63.0781 Q4285.6094,63.2344 4284.9063,63.2344 Q4282.4063,63.2344 4281.0781,61.5938 Q4279.7656,59.9375 4279.7656,56.8125 Q4279.7656,53.6875 4281.0781,52.0313 Q4282.4063,50.375 4284.9063,50.375 Q4285.6094,50.375 4286.25,50.5313 Q4286.9063,50.6875 4287.4688,50.9844 L4287.4688,53.7031 Q4286.8438,53.125 4286.25,52.8594 Q4285.6563,52.5781 4285.0313,52.5781 Q4283.6875,52.5781 4283,53.6563 Q4282.3125,54.7188 4282.3125,56.8125 Q4282.3125,58.9063 4283,59.9844 Q4283.6875,61.0469 4285.0313,61.0469 Q4285.6563,61.0469 4286.25,60.7813 Q4286.8438,60.5 4287.4688,59.9219 L4287.4688,62.6406 Z " fill="#000000"/><text fill="#000000" font-family="sans-serif" font-size="14" lengthAdjust="spacing" textLength="119" x="4298.5" y="61.8467">report_endpoints</text><line style="stroke:#181818;stroke-width:0.5;" x1="4270.5" x2="4419.5" y1="73" y2="73"/><line style="stroke:#181818;stroke-width:0.5;" x1="4270.5" x2="4419.5" y1="81" y2="81"/></g><!--class utils.email_helper.email_helper_items--><g id="elem_utils.email_helper.email_helper_items"><rect fill="#F1F1F1" height="48" id="utils.email_helper.email_helper_items" rx="2.5" ry="2.5" style="stroke:#181818;stroke-width:0.5;" width="164" x="4046" y="371"/><ellipse cx="4061" cy="387" fill="#ADD1B2" rx="11" ry="11" style="stroke:#181818;stroke-width:1.0;"/><path d="M4063.9688,392.6406 Q4063.3906,392.9375 4062.75,393.0781 Q4062.1094,393.2344 4061.4063,393.2344 Q4058.9063,393.2344 4057.5781,391.5938 Q4056.2656,389.9375 4056.2656,386.8125 Q4056.2656,383.6875 4057.5781,382.0313 Q4058.9063,380.375 4061.4063,380.375 Q4062.1094,380.375 4062.75,380.5313 Q4063.4063,380.6875 4063.9688,380.9844 L4063.9688,383.7031 Q4063.3438,383.125 4062.75,382.8594 Q4062.1563,382.5781 4061.5313,382.5781 Q4060.1875,382.5781 4059.5,383.6563 Q4058.8125,384.7188 4058.8125,386.8125 Q4058.8125,388.9063 4059.5,389.9844 Q4060.1875,391.0469 4061.5313,391.0469 Q4062.1563,391.0469 4062.75,390.7813 Q4063.3438,390.5 4063.9688,389.9219 L4063.9688,392.6406 Z " fill="#000000"/><text fill="#000000" font-family="sans-serif" font-size="14" lengthAdjust="spacing" textLength="132" x="4075" y="391.8467">email_helper_items</text><line style="stroke:#181818;stroke-width:0.5;" x1="4047" x2="4209" y1="403" y2="403"/><line style="stroke:#181818;stroke-width:0.5;" x1="4047" x2="4209" y1="411" y2="411"/></g><!--class api.reviewers.reviewers_endpoints--><g id="elem_api.reviewers.reviewers_endpoints"><rect fill="#F1F1F1" height="48" id="api.reviewers.reviewers_endpoints" rx="2.5" ry="2.5" style="stroke:#181818;stroke-width:0.5;" width="175" x="1713.5" y="41"/><ellipse cx="1728.5" cy="57" fill="#ADD1B2" rx="11" ry="11" style="stroke:#181818;stroke-width:1.0;"/><path d="M1731.4688,62.6406 Q1730.8906,62.9375 1730.25,63.0781 Q1729.6094,63.2344 1728.9063,63.2344 Q1726.4063,63.2344 1725.0781,61.5938 Q1723.7656,59.9375 1723.7656,56.8125 Q1723.7656,53.6875 1725.0781,52.0313 Q1726.4063,50.375 1728.9063,50.375 Q1729.6094,50.375 1730.25,50.5313 Q1730.9063,50.6875 1731.4688,50.9844 L1731.4688,53.7031 Q1730.8438,53.125 1730.25,52.8594 Q1729.6563,52.5781 1729.0313,52.5781 Q1727.6875,52.5781 1727,53.6563 Q1726.3125,54.7188 1726.3125,56.8125 Q1726.3125,58.9063 1727,59.9844 Q1727.6875,61.0469 1729.0313,61.0469 Q1729.6563,61.0469 1730.25,60.7813 Q1730.8438,60.5 1731.4688,59.9219 L1731.4688,62.6406 Z " fill="#000000"/><text fill="#000000" font-family="sans-serif" font-size="14" lengthAdjust="spacing" textLength="143" x="1742.5" y="61.8467">reviewers_endpoints</text><line style="stroke:#181818;stroke-width:0.5;" x1="1714.5" x2="1887.5" y1="73" y2="73"/><line style="stroke:#181818;stroke-width:0.5;" x1="1714.5" x2="1887.5" y1="81" y2="81"/></g><!--link api.prsls.prsls_endpoints to utils.validation.validate_proposal--><g id="link_api.prsls.prsls_endpoints_utils.validation.validate_proposal"><path codeLine="98" d="M3941.82,78.06 C3896.01,89 3837.82,109.29 3798,146 C3731.44,207.36 3699.71,314.69 3687.83,365.62 " fill="none" id="api.prsls.prsls_endpoints-to-utils.validation.validate_proposal" style="stroke:#181818;stroke-width:1.0;"/><polygon fill="#181818" points="3686.67,370.67,3692.5711,362.7848,3687.7818,365.7952,3684.7714,361.0059,3686.67,370.67" style="stroke:#181818;stroke-width:1.0;"/></g><!--link api.prsls.prsls_endpoints to utils.pht_handler.pht_handler_items--><g id="link_api.prsls.prsls_endpoints_utils.pht_handler.pht_handler_items"><path codeLine="99" d="M4084.16,78.53 C4129.37,89.64 4186.6,109.92 4226,146 C4293.08,207.42 4326.22,314.72 4338.79,365.63 " fill="none" id="api.prsls.prsls_endpoints-to-utils.pht_handler.pht_handler_items" style="stroke:#181818;stroke-width:1.0;"/><polygon fill="#181818" points="4340.01,370.68,4341.7884,360.993,4338.8377,365.8194,4334.0114,362.8687,4340.01,370.68" style="stroke:#181818;stroke-width:1.0;"/></g><!--link api.prsls.prsls_endpoints to utils.s3_bucket.s3_bucket_functions--><g id="link_api.prsls.prsls_endpoints_utils.s3_bucket.s3_bucket_functions"><path codeLine="100" d="M3995,89.09 C3988.28,98.57 3981.07,109.9 3976,121 C3937.24,205.86 3915.26,315.11 3906.49,365.82 " fill="none" id="api.prsls.prsls_endpoints-to-utils.s3_bucket.s3_bucket_functions" style="stroke:#181818;stroke-width:1.0;"/><polygon fill="#181818" points="3905.64,370.84,3911.0999,362.6431,3906.4828,365.9115,3903.2143,361.2945,3905.64,370.84" style="stroke:#181818;stroke-width:1.0;"/><text fill="#000000" font-family="sans-serif" font-size="13" lengthAdjust="spacing" textLength="47" x="3977" y="134.0669">PDF file</text></g><!--link api.panels.panels_endpoints to utils.validation.validate_duplicates--><g id="link_api.panels.panels_endpoints_utils.validation.validate_duplicates"><path codeLine="101" d="M3490,89.06 C3490,147.64 3490,302.01 3490,365.8 " fill="none" id="api.panels.panels_endpoints-to-utils.validation.validate_duplicates" style="stroke:#181818;stroke-width:1.0;"/><polygon fill="#181818" points="3490,370.96,3494,361.96,3490,365.96,3486,361.96,3490,370.96" style="stroke:#181818;stroke-width:1.0;"/><text fill="#000000" font-family="sans-serif" font-size="13" lengthAdjust="spacing" textLength="67" x="3491" y="134.0669">List[Panel]</text></g><!--link api.report.report_endpoints to utils.pht_handler.pht_handler_items--><g id="link_api.report.report_endpoints_utils.pht_handler.pht_handler_items"><path codeLine="102" d="M4345,89.06 C4345,147.64 4345,302.01 4345,365.8 " fill="none" id="api.report.report_endpoints-to-utils.pht_handler.pht_handler_items" style="stroke:#181818;stroke-width:1.0;"/><polygon fill="#181818" points="4345,370.96,4349,361.96,4345,365.96,4341,361.96,4345,370.96" style="stroke:#181818;stroke-width:1.0;"/><text fill="#000000" font-family="sans-serif" font-size="13" lengthAdjust="spacing" textLength="97" x="4346" y="134.0669">ProposalReport</text></g><!--link api.prsls.prsls_endpoints to utils.email_helper.email_helper_items--><g id="link_api.prsls.prsls_endpoints_utils.email_helper.email_helper_items"><path codeLine="103" d="M4021.09,89.06 C4041.67,147.76 4095.97,302.63 4118.25,366.18 " fill="none" id="api.prsls.prsls_endpoints-to-utils.email_helper.email_helper_items" style="stroke:#181818;stroke-width:1.0;"/><polygon fill="#181818" points="4119.92,370.96,4120.709,361.1428,4118.2619,366.2429,4113.1617,363.7958,4119.92,370.96" style="stroke:#181818;stroke-width:1.0;"/></g><!--link api.reviewers.reviewers_endpoints to utils.constants--><g id="link_api.reviewers.reviewers_endpoints_utils.constants"><path codeLine="104" d="M1801,89.06 C1801,147.64 1801,302.01 1801,365.8 " fill="none" id="api.reviewers.reviewers_endpoints-to-utils.constants" style="stroke:#181818;stroke-width:1.0;"/><polygon fill="#181818" points="1801,370.96,1805,361.96,1801,365.96,1797,361.96,1801,370.96" style="stroke:#181818;stroke-width:1.0;"/><text fill="#000000" font-family="sans-serif" font-size="13" lengthAdjust="spacing" textLength="72" x="1802" y="134.0669">REVIEWERS</text></g><!--SRC=[dPPBZzem483l_0fhBzrLItBOssh5fQLLfLP5R1-7gh9CCe0NnxPiPrS8yTyxSHu428dP721HlfdCZEVbb2PEaOLoJcKavGOInvKSZJHBDcm5v4QltGrXbk0_rPiLsOr61A_cFTFyXZm-pb6GoPM0oGIHWl0_HwWsLjXkkBxKuXdV4KzIaAbMN3fxp1JNUpBxyVIJn1wC4mFCmG2qO2vP3p0lJF1qM9L5oyQGCIxY8PAl9AJZt8WurqAnDDujkG39CjY7YwRgLRvT60Guw1VzCcqabSNF9Dj4384xRPHMbWdAqm7KEkPob2Z_1s03BnnUlNuRe5jmw-9TRi5SO6U_0am-FEr77OdB90YQGi8j5aTO1X-91ALo8J6k9MnyqUqJRjTyf2zM9qA1KGl-L3j-zTs5E5gQCOcF6KWN7ifMDo03CHm8dOqn3_pf3CMhDqpz6MD0AnFcNedsPuYtgGJZgwmeIWcC3JIaeeDigTWtP45Lu5VO53GAAhJVOipXygRly6iqh4Y659y6PNyoG7F7-wPYm_bvGzSWD9YWsBK5A7UGTLUEmTWYuEdRkmwWc7RbQyhiLYOdKDUXjxS7kcOo5O4sj_WUavrXqYwLoMYkYt5DwxxUQVyA71L8sQB877TRkjZYANMoj82PCMnB4y6ixOIUCHERJrfQzQSwLPjsUKsSx3rTvCa6mbf6GzDbBlt2rXsdf_lluDOg9RTJcMTtdSH79PTyTI5i3Fr91CUmNOYi15F67ygDW-B6qOcMAzenICkLYEfq6IvJxq9NIlabg4EczrIgTN1mvljK8VNoI5FqYoT5ng5KVKAJIPz8dKtT0WVJIh443nnDSRRTKDwHyNXCvY2ymNRDjVs0nUro8udRQZH6IR4j88_ZtXxvhIWwMRQHc13VbAA3_z6PfS5AMYKTdPLti9OcvQEkv7yWiq-VIR7X7XJwgepEbeT-xrf7zq2-OV__EoiK_6lKbaCuEXtQeVwYeLNyvbv3iF_jPXwTT_QMVTLWZZh6UKjVaqBevtpw- -lqptJ-D1hj_mC0]--></g></svg>