<?xml version="1.0" encoding="UTF-8" standalone="no"?><svg xmlns="http://www.w3.org/2000/svg" xmlns:xlink="http://www.w3.org/1999/xlink" contentStyleType="text/css" height="791px" preserveAspectRatio="none" style="width:1741px;height:791px;background:#FFFFFF;" version="1.1" viewBox="0 0 1741 791" width="1741px" zoomAndPan="magnify"><defs/><g><text fill="#000000" font-family="sans-serif" font-size="14" font-weight="bold" lengthAdjust="spacing" textLength="150" x="788.5" y="22.9951">Detailed View: PHT</text><!--cluster pht_pkg--><g id="cluster_pht_pkg"><path d="M8.5,43.2969 L35.5,43.2969 A3.75,3.75 0 0 1 38,45.7969 L45,65.5938 L1731.5,65.5938 A2.5,2.5 0 0 1 1734,68.0938 L1734,781.7969 A2.5,2.5 0 0 1 1731.5,784.2969 L8.5,784.2969 A2.5,2.5 0 0 1 6,781.7969 L6,45.7969 A2.5,2.5 0 0 1 8.5,43.2969 " fill="none" style="stroke:#000000;stroke-width:1.5;"/><line style="stroke:#000000;stroke-width:1.5;" x1="6" x2="45" y1="65.5938" y2="65.5938"/><text fill="#000000" font-family="sans-serif" font-size="14" font-weight="bold" lengthAdjust="spacing" textLength="26" x="10" y="58.292">pht</text></g><!--cluster api--><g id="cluster_api"><rect fill="none" height="358" rx="2.5" ry="2.5" style="stroke:#181818;stroke-width:1.0;" width="1680" x="30" y="402.2969"/><text fill="#000000" font-family="sans-serif" font-size="14" font-weight="bold" lengthAdjust="spacing" textLength="23" x="858.5" y="417.292">api</text></g><!--cluster panel_decision--><g id="cluster_panel_decision"><rect fill="none" height="144" rx="2.5" ry="2.5" style="stroke:#181818;stroke-width:1.0;" width="306" x="54" y="518.7969"/><text fill="#000000" font-family="sans-serif" font-size="14" font-weight="bold" lengthAdjust="spacing" textLength="116" x="149" y="533.792">panel_decision</text></g><!--cluster panels_management--><g id="cluster_panels_management"><rect fill="none" height="128" rx="2.5" ry="2.5" style="stroke:#181818;stroke-width:1.0;" width="240" x="1178" y="526.7969"/><text fill="#000000" font-family="sans-serif" font-size="14" font-weight="bold" lengthAdjust="spacing" textLength="161" x="1217.5" y="541.792">panels_management</text></g><!--cluster prsls--><g id="cluster_prsls"><rect fill="none" height="291" rx="2.5" ry="2.5" style="stroke:#181818;stroke-width:1.0;" width="366" x="788" y="445.2969"/><text fill="#000000" font-family="sans-serif" font-size="14" font-weight="bold" lengthAdjust="spacing" textLength="39" x="951.5" y="460.292">prsls</text></g><!--cluster report--><g id="cluster_report"><rect fill="none" height="96" rx="2.5" ry="2.5" style="stroke:#181818;stroke-width:1.0;" width="166" x="598" y="542.7969"/><text fill="#000000" font-family="sans-serif" font-size="14" font-weight="bold" lengthAdjust="spacing" textLength="50" x="656" y="557.792">report</text></g><!--cluster reviewers--><g id="cluster_reviewers"><rect fill="none" height="96" rx="2.5" ry="2.5" style="stroke:#181818;stroke-width:1.0;" width="190" x="384" y="542.7969"/><text fill="#000000" font-family="sans-serif" font-size="14" font-weight="bold" lengthAdjust="spacing" textLength="80" x="439" y="557.792">reviewers</text></g><!--cluster reviews--><g id="cluster_reviews"><rect fill="none" height="144" rx="2.5" ry="2.5" style="stroke:#181818;stroke-width:1.0;" width="244" x="1442" y="518.7969"/><text fill="#000000" font-family="sans-serif" font-size="14" font-weight="bold" lengthAdjust="spacing" textLength="63" x="1532.5" y="533.792">reviews</text></g><!--cluster utils--><g id="cluster_utils"><rect fill="none" height="292" rx="2.5" ry="2.5" style="stroke:#181818;stroke-width:1.0;" width="1514" x="196" y="86.2969"/><text fill="#000000" font-family="sans-serif" font-size="14" font-weight="bold" lengthAdjust="spacing" textLength="33" x="936.5" y="101.292">utils</text></g><!--cluster email_helper--><g id="cluster_email_helper"><rect fill="none" height="112" rx="2.5" ry="2.5" style="stroke:#181818;stroke-width:1.0;" width="194" x="696" y="185.7969"/><text fill="#000000" font-family="sans-serif" font-size="14" font-weight="bold" lengthAdjust="spacing" textLength="99" x="743.5" y="200.792">email_helper</text></g><!--cluster pht_handler--><g id="cluster_pht_handler"><rect fill="none" height="144" rx="2.5" ry="2.5" style="stroke:#181818;stroke-width:1.0;" width="352" x="320" y="169.7969"/><text fill="#000000" font-family="sans-serif" font-size="14" font-weight="bold" lengthAdjust="spacing" textLength="93" x="449.5" y="184.792">pht_handler</text></g><!--cluster s3_bucket--><g id="cluster_s3_bucket"><rect fill="none" height="209" rx="2.5" ry="2.5" style="stroke:#181818;stroke-width:1.0;" width="351" x="922" y="137.2969"/><text fill="#000000" font-family="sans-serif" font-size="14" font-weight="bold" lengthAdjust="spacing" textLength="80" x="1057.5" y="152.292">s3_bucket</text></g><!--cluster validation--><g id="cluster_validation"><rect fill="none" height="107" rx="2.5" ry="2.5" style="stroke:#181818;stroke-width:1.0;" width="381" x="1305" y="188.2969"/><text fill="#000000" font-family="sans-serif" font-size="14" font-weight="bold" lengthAdjust="spacing" textLength="75" x="1458" y="203.292">validation</text></g><g id="elem_panel_decision_endpoints"><rect fill="#F1F1F1" height="93.4844" style="stroke:#181818;stroke-width:0.5;" width="273" x="70.5" y="553.7969"/><text fill="#000000" font-family="sans-serif" font-size="14" lengthAdjust="spacing" textLength="180" x="117" y="568.792">panel_decision_endpoints</text><line style="stroke:#181818;stroke-width:0.5;" x1="71.5" x2="342.5" y1="574.0938" y2="574.0938"/><ellipse cx="81.5" cy="587.7422" fill="none" rx="3" ry="3" style="stroke:#038048;stroke-width:1.0;"/><text fill="#000000" font-family="sans-serif" font-size="14" lengthAdjust="spacing" textLength="247" x="90.5" y="591.0889">GET /panel-decisions/{decision_id}</text><ellipse cx="81.5" cy="604.0391" fill="none" rx="3" ry="3" style="stroke:#038048;stroke-width:1.0;"/><text fill="#000000" font-family="sans-serif" font-size="14" lengthAdjust="spacing" textLength="244" x="90.5" y="607.3857">GET /panel-decisions/list/{user_id}</text><ellipse cx="81.5" cy="620.3359" fill="none" rx="3" ry="3" style="stroke:#038048;stroke-width:1.0;"/><text fill="#000000" font-family="sans-serif" font-size="14" lengthAdjust="spacing" textLength="161" x="90.5" y="623.6826">POST /panel-decisions/</text><ellipse cx="81.5" cy="636.6328" fill="none" rx="3" ry="3" style="stroke:#038048;stroke-width:1.0;"/><text fill="#000000" font-family="sans-serif" font-size="14" lengthAdjust="spacing" textLength="246" x="90.5" y="639.9795">PUT /panel-decisions/{decision_id}</text></g><g id="elem_panels_endpoints"><rect fill="#F1F1F1" height="77.1875" style="stroke:#181818;stroke-width:0.5;" width="207" x="1194.5" y="561.7969"/><text fill="#000000" font-family="sans-serif" font-size="14" lengthAdjust="spacing" textLength="123" x="1236.5" y="576.792">panels_endpoints</text><line style="stroke:#181818;stroke-width:0.5;" x1="1195.5" x2="1400.5" y1="582.0938" y2="582.0938"/><ellipse cx="1205.5" cy="595.7422" fill="none" rx="3" ry="3" style="stroke:#038048;stroke-width:1.0;"/><text fill="#000000" font-family="sans-serif" font-size="14" lengthAdjust="spacing" textLength="169" x="1214.5" y="599.0889">GET /panels//{panel_id}</text><ellipse cx="1205.5" cy="612.0391" fill="none" rx="3" ry="3" style="stroke:#038048;stroke-width:1.0;"/><text fill="#000000" font-family="sans-serif" font-size="14" lengthAdjust="spacing" textLength="181" x="1214.5" y="615.3857">GET /panels/list/{user_id}</text><ellipse cx="1205.5" cy="628.3359" fill="none" rx="3" ry="3" style="stroke:#038048;stroke-width:1.0;"/><text fill="#000000" font-family="sans-serif" font-size="14" lengthAdjust="spacing" textLength="98" x="1214.5" y="631.6826">POST /panels/</text></g><g id="elem_prsls_endpoints"><rect fill="#F1F1F1" height="240.1563" style="stroke:#181818;stroke-width:0.5;" width="333" x="804.5" y="480.2969"/><text fill="#000000" font-family="sans-serif" font-size="14" lengthAdjust="spacing" textLength="110" x="916" y="495.292">prsls_endpoints</text><line style="stroke:#181818;stroke-width:0.5;" x1="805.5" x2="1136.5" y1="500.5938" y2="500.5938"/><ellipse cx="815.5" cy="514.2422" fill="none" rx="3" ry="3" style="stroke:#038048;stroke-width:1.0;"/><text fill="#000000" font-family="sans-serif" font-size="14" lengthAdjust="spacing" textLength="173" x="824.5" y="517.5889">GET /prsls/{proposal_id}</text><ellipse cx="815.5" cy="530.5391" fill="none" rx="3" ry="3" style="stroke:#038048;stroke-width:1.0;"/><text fill="#000000" font-family="sans-serif" font-size="14" lengthAdjust="spacing" textLength="168" x="824.5" y="533.8857">GET /prsls/list/{user_id}</text><ellipse cx="815.5" cy="546.8359" fill="none" rx="3" ry="3" style="stroke:#038048;stroke-width:1.0;"/><text fill="#000000" font-family="sans-serif" font-size="14" lengthAdjust="spacing" textLength="160" x="824.5" y="550.1826">GET /prsls/osd/{cycle}</text><ellipse cx="815.5" cy="563.1328" fill="none" rx="3" ry="3" style="stroke:#038048;stroke-width:1.0;"/><text fill="#000000" font-family="sans-serif" font-size="14" lengthAdjust="spacing" textLength="195" x="824.5" y="566.4795">GET /prsls/reviews/{prsl_id}</text><ellipse cx="815.5" cy="579.4297" fill="none" rx="3" ry="3" style="stroke:#038048;stroke-width:1.0;"/><text fill="#000000" font-family="sans-serif" font-size="14" lengthAdjust="spacing" textLength="185" x="824.5" y="582.7764">GET /prsls/status/{status}</text><ellipse cx="815.5" cy="595.7266" fill="none" rx="3" ry="3" style="stroke:#038048;stroke-width:1.0;"/><text fill="#000000" font-family="sans-serif" font-size="14" lengthAdjust="spacing" textLength="124" x="824.5" y="599.0732">POST /prsls/batch</text><ellipse cx="815.5" cy="612.0234" fill="none" rx="3" ry="3" style="stroke:#038048;stroke-width:1.0;"/><text fill="#000000" font-family="sans-serif" font-size="14" lengthAdjust="spacing" textLength="129" x="824.5" y="615.3701">POST /prsls/create</text><ellipse cx="815.5" cy="628.3203" fill="none" rx="3" ry="3" style="stroke:#038048;stroke-width:1.0;"/><text fill="#000000" font-family="sans-serif" font-size="14" lengthAdjust="spacing" textLength="166" x="824.5" y="631.667">POST /prsls/send-email/</text><ellipse cx="815.5" cy="644.6172" fill="none" rx="3" ry="3" style="stroke:#038048;stroke-width:1.0;"/><text fill="#000000" font-family="sans-serif" font-size="14" lengthAdjust="spacing" textLength="284" x="824.5" y="647.9639">POST /prsls/signed-url/delete/{filename}</text><ellipse cx="815.5" cy="660.9141" fill="none" rx="3" ry="3" style="stroke:#038048;stroke-width:1.0;"/><text fill="#000000" font-family="sans-serif" font-size="14" lengthAdjust="spacing" textLength="307" x="824.5" y="664.2607">POST /prsls/signed-url/download/{filename}</text><ellipse cx="815.5" cy="677.2109" fill="none" rx="3" ry="3" style="stroke:#038048;stroke-width:1.0;"/><text fill="#000000" font-family="sans-serif" font-size="14" lengthAdjust="spacing" textLength="287" x="824.5" y="680.5576">POST /prsls/signed-url/upload/{filename}</text><ellipse cx="815.5" cy="693.5078" fill="none" rx="3" ry="3" style="stroke:#038048;stroke-width:1.0;"/><text fill="#000000" font-family="sans-serif" font-size="14" lengthAdjust="spacing" textLength="137" x="824.5" y="696.8545">POST /prsls/validate</text><ellipse cx="815.5" cy="709.8047" fill="none" rx="3" ry="3" style="stroke:#038048;stroke-width:1.0;"/><text fill="#000000" font-family="sans-serif" font-size="14" lengthAdjust="spacing" textLength="172" x="824.5" y="713.1514">PUT /prsls/{proposal_id}</text></g><g id="elem_report_endpoints"><rect fill="#F1F1F1" height="44.5938" style="stroke:#181818;stroke-width:0.5;" width="133" x="614.5" y="577.7969"/><text fill="#000000" font-family="sans-serif" font-size="14" lengthAdjust="spacing" textLength="119" x="621.5" y="592.792">report_endpoints</text><line style="stroke:#181818;stroke-width:0.5;" x1="615.5" x2="746.5" y1="598.0938" y2="598.0938"/><ellipse cx="625.5" cy="611.7422" fill="none" rx="3" ry="3" style="stroke:#038048;stroke-width:1.0;"/><text fill="#000000" font-family="sans-serif" font-size="14" lengthAdjust="spacing" textLength="85" x="634.5" y="615.0889">GET /report/</text></g><g id="elem_reviewers_endpoints"><rect fill="#F1F1F1" height="44.5938" style="stroke:#181818;stroke-width:0.5;" width="157" x="400.5" y="577.7969"/><text fill="#000000" font-family="sans-serif" font-size="14" lengthAdjust="spacing" textLength="143" x="407.5" y="592.792">reviewers_endpoints</text><line style="stroke:#181818;stroke-width:0.5;" x1="401.5" x2="556.5" y1="598.0938" y2="598.0938"/><ellipse cx="411.5" cy="611.7422" fill="none" rx="3" ry="3" style="stroke:#038048;stroke-width:1.0;"/><text fill="#000000" font-family="sans-serif" font-size="14" lengthAdjust="spacing" textLength="104" x="420.5" y="615.0889">GET /reviewers</text></g><g id="elem_reviews_endpoints"><rect fill="#F1F1F1" height="93.4844" style="stroke:#181818;stroke-width:0.5;" width="213" x="1457.5" y="553.7969"/><text fill="#000000" font-family="sans-serif" font-size="14" lengthAdjust="spacing" textLength="129" x="1499.5" y="568.792">reviews_endpoints</text><line style="stroke:#181818;stroke-width:0.5;" x1="1458.5" x2="1669.5" y1="574.0938" y2="574.0938"/><ellipse cx="1468.5" cy="587.7422" fill="none" rx="3" ry="3" style="stroke:#038048;stroke-width:1.0;"/><text fill="#000000" font-family="sans-serif" font-size="14" lengthAdjust="spacing" textLength="176" x="1477.5" y="591.0889">GET /reviews/{review_id}</text><ellipse cx="1468.5" cy="604.0391" fill="none" rx="3" ry="3" style="stroke:#038048;stroke-width:1.0;"/><text fill="#000000" font-family="sans-serif" font-size="14" lengthAdjust="spacing" textLength="187" x="1477.5" y="607.3857">GET /reviews/list/{user_id}</text><ellipse cx="1468.5" cy="620.3359" fill="none" rx="3" ry="3" style="stroke:#038048;stroke-width:1.0;"/><text fill="#000000" font-family="sans-serif" font-size="14" lengthAdjust="spacing" textLength="99" x="1477.5" y="623.6826">POST /reviews</text><ellipse cx="1468.5" cy="636.6328" fill="none" rx="3" ry="3" style="stroke:#038048;stroke-width:1.0;"/><text fill="#000000" font-family="sans-serif" font-size="14" lengthAdjust="spacing" textLength="175" x="1477.5" y="639.9795">PUT /reviews/{review_id}</text></g><g id="elem_email_helper_items"><rect fill="#F1F1F1" height="60.8906" style="stroke:#181818;stroke-width:0.5;" width="161" x="712.5" y="220.7969"/><text fill="#000000" font-family="sans-serif" font-size="14" lengthAdjust="spacing" textLength="132" x="727" y="235.792">email_helper_items</text><line style="stroke:#181818;stroke-width:0.5;" x1="713.5" x2="872.5" y1="241.0938" y2="241.0938"/><ellipse cx="723.5" cy="254.7422" fill="#84BE84" rx="3" ry="3" style="stroke:#038048;stroke-width:1.0;"/><text fill="#000000" font-family="sans-serif" font-size="14" lengthAdjust="spacing" textLength="99" x="732.5" y="258.0889">render_email()</text><ellipse cx="723.5" cy="271.0391" fill="#84BE84" rx="3" ry="3" style="stroke:#038048;stroke-width:1.0;"/><text fill="#000000" font-family="sans-serif" font-size="14" lengthAdjust="spacing" textLength="135" x="732.5" y="274.3857">send_email_async()</text></g><g id="elem_pht_handler_items"><rect fill="#F1F1F1" height="93.4844" style="stroke:#181818;stroke-width:0.5;" width="320" x="336" y="204.7969"/><text fill="#000000" font-family="sans-serif" font-size="14" lengthAdjust="spacing" textLength="127" x="432.5" y="219.792">pht_handler_items</text><line style="stroke:#181818;stroke-width:0.5;" x1="337" x2="655" y1="225.0938" y2="225.0938"/><ellipse cx="347" cy="238.7422" fill="#84BE84" rx="3" ry="3" style="stroke:#038048;stroke-width:1.0;"/><text fill="#000000" font-family="sans-serif" font-size="14" lengthAdjust="spacing" textLength="122" x="356" y="242.0889">_get_array_class()</text><ellipse cx="347" cy="255.0391" fill="#84BE84" rx="3" ry="3" style="stroke:#038048;stroke-width:1.0;"/><text fill="#000000" font-family="sans-serif" font-size="14" lengthAdjust="spacing" textLength="165" x="356" y="258.3857">get_latest_entity_by_id()</text><ellipse cx="347" cy="271.3359" fill="#84BE84" rx="3" ry="3" style="stroke:#038048;stroke-width:1.0;"/><text fill="#000000" font-family="sans-serif" font-size="14" lengthAdjust="spacing" textLength="294" x="356" y="274.6826">join_proposals_panels_reviews_decisions()</text><ellipse cx="347" cy="287.6328" fill="#84BE84" rx="3" ry="3" style="stroke:#038048;stroke-width:1.0;"/><text fill="#000000" font-family="sans-serif" font-size="14" lengthAdjust="spacing" textLength="199" x="356" y="290.9795">transform_update_proposal()</text></g><g id="elem_s3_bucket_items"><rect fill="#F1F1F1" height="142.375" style="stroke:#181818;stroke-width:0.5;" width="284" x="965" y="180.2969"/><text fill="#000000" font-family="sans-serif" font-size="14" lengthAdjust="spacing" textLength="117" x="1048.5" y="195.292">s3_bucket_items</text><line style="stroke:#181818;stroke-width:0.5;" x1="966" x2="1248" y1="200.5938" y2="200.5938"/><ellipse cx="976" cy="214.2422" fill="#84BE84" rx="3" ry="3" style="stroke:#038048;stroke-width:1.0;"/><text fill="#000000" font-family="sans-serif" font-size="14" lengthAdjust="spacing" textLength="235" x="985" y="217.5889">create_presigned_url_delete_pdf()</text><ellipse cx="976" cy="230.5391" fill="#84BE84" rx="3" ry="3" style="stroke:#038048;stroke-width:1.0;"/><text fill="#000000" font-family="sans-serif" font-size="14" lengthAdjust="spacing" textLength="258" x="985" y="233.8857">create_presigned_url_download_pdf()</text><ellipse cx="976" cy="246.8359" fill="#84BE84" rx="3" ry="3" style="stroke:#038048;stroke-width:1.0;"/><text fill="#000000" font-family="sans-serif" font-size="14" lengthAdjust="spacing" textLength="238" x="985" y="250.1826">create_presigned_url_upload_pdf()</text><ellipse cx="976" cy="263.1328" fill="#84BE84" rx="3" ry="3" style="stroke:#038048;stroke-width:1.0;"/><text fill="#000000" font-family="sans-serif" font-size="14" lengthAdjust="spacing" textLength="111" x="985" y="266.4795">get_aws_client()</text><ellipse cx="976" cy="279.4297" fill="#84BE84" rx="3" ry="3" style="stroke:#038048;stroke-width:1.0;"/><text fill="#000000" font-family="sans-serif" font-size="14" lengthAdjust="spacing" textLength="174" x="985" y="282.7764">generate_presigned_url()</text><ellipse cx="976" cy="295.7266" fill="none" rx="3" ry="3" style="stroke:#038048;stroke-width:1.0;"/><text fill="#000000" font-family="sans-serif" font-size="14" lengthAdjust="spacing" textLength="62" x="985" y="299.0732">S3Config</text><ellipse cx="976" cy="312.0234" fill="#84BE84" rx="3" ry="3" style="stroke:#038048;stroke-width:1.0;"/><text fill="#000000" font-family="sans-serif" font-size="14" lengthAdjust="spacing" textLength="125" x="985" y="315.3701">S3Method (Enum)</text></g><!--class validate_duplicates--><g id="elem_validate_duplicates"><rect codeLine="93" fill="#F1F1F1" height="56.2656" id="validate_duplicates" rx="2.5" ry="2.5" style="stroke:#181818;stroke-width:0.5;" width="162" x="1508" y="223.2969"/><ellipse cx="1523" cy="243.4297" fill="#ADD1B2" rx="11" ry="11" style="stroke:#181818;stroke-width:1.0;"/><path d="M1525.9688,249.0703 Q1525.3906,249.3672 1524.75,249.5078 Q1524.1094,249.6641 1523.4063,249.6641 Q1520.9063,249.6641 1519.5781,248.0234 Q1518.2656,246.3672 1518.2656,243.2422 Q1518.2656,240.1172 1519.5781,238.4609 Q1520.9063,236.8047 1523.4063,236.8047 Q1524.1094,236.8047 1524.75,236.9609 Q1525.4063,237.1172 1525.9688,237.4141 L1525.9688,240.1328 Q1525.3438,239.5547 1524.75,239.2891 Q1524.1563,239.0078 1523.5313,239.0078 Q1522.1875,239.0078 1521.5,240.0859 Q1520.8125,241.1484 1520.8125,243.2422 Q1520.8125,245.3359 1521.5,246.4141 Q1522.1875,247.4766 1523.5313,247.4766 Q1524.1563,247.4766 1524.75,247.2109 Q1525.3438,246.9297 1525.9688,246.3516 L1525.9688,249.0703 Z " fill="#000000"/><text fill="#000000" font-family="sans-serif" font-size="12" font-style="italic" lengthAdjust="spacing" textLength="65" x="1569.5" y="239.4355">«function»</text><text fill="#000000" font-family="sans-serif" font-size="14" lengthAdjust="spacing" textLength="130" x="1537" y="255.2607">validate_duplicates</text><line style="stroke:#181818;stroke-width:0.5;" x1="1509" x2="1669" y1="263.5625" y2="263.5625"/><line style="stroke:#181818;stroke-width:0.5;" x1="1509" x2="1669" y1="271.5625" y2="271.5625"/></g><!--class validate_proposal--><g id="elem_validate_proposal"><rect codeLine="94" fill="#F1F1F1" height="56.2656" id="validate_proposal" rx="2.5" ry="2.5" style="stroke:#181818;stroke-width:0.5;" width="151" x="1321.5" y="223.2969"/><ellipse cx="1336.5" cy="243.4297" fill="#ADD1B2" rx="11" ry="11" style="stroke:#181818;stroke-width:1.0;"/><path d="M1339.4688,249.0703 Q1338.8906,249.3672 1338.25,249.5078 Q1337.6094,249.6641 1336.9063,249.6641 Q1334.4063,249.6641 1333.0781,248.0234 Q1331.7656,246.3672 1331.7656,243.2422 Q1331.7656,240.1172 1333.0781,238.4609 Q1334.4063,236.8047 1336.9063,236.8047 Q1337.6094,236.8047 1338.25,236.9609 Q1338.9063,237.1172 1339.4688,237.4141 L1339.4688,240.1328 Q1338.8438,239.5547 1338.25,239.2891 Q1337.6563,239.0078 1337.0313,239.0078 Q1335.6875,239.0078 1335,240.0859 Q1334.3125,241.1484 1334.3125,243.2422 Q1334.3125,245.3359 1335,246.4141 Q1335.6875,247.4766 1337.0313,247.4766 Q1337.6563,247.4766 1338.25,247.2109 Q1338.8438,246.9297 1339.4688,246.3516 L1339.4688,249.0703 Z " fill="#000000"/><text fill="#000000" font-family="sans-serif" font-size="12" font-style="italic" lengthAdjust="spacing" textLength="65" x="1377.5" y="239.4355">«function»</text><text fill="#000000" font-family="sans-serif" font-size="14" lengthAdjust="spacing" textLength="119" x="1350.5" y="255.2607">validate_proposal</text><line style="stroke:#181818;stroke-width:0.5;" x1="1322.5" x2="1471.5" y1="263.5625" y2="263.5625"/><line style="stroke:#181818;stroke-width:0.5;" x1="1322.5" x2="1471.5" y1="271.5625" y2="271.5625"/></g><!--entity constants--><g id="elem_constants"><rect fill="#F1F1F1" height="36.2969" rx="2.5" ry="2.5" style="stroke:#181818;stroke-width:0.5;" width="89" x="211.5" y="233.2969"/><text fill="#000000" font-family="sans-serif" font-size="14" lengthAdjust="spacing" textLength="69" x="221.5" y="256.292">constants</text></g><!--link validate_proposal to prsls_endpoints--><g id="link_validate_proposal_prsls_endpoints"><path codeLine="102" d="M1379.3,279.4569 C1356.92,311.2369 1315.17,362.5369 1265,386.2969 C1229.91,402.9169 1213.2,377.8969 1178,394.2969 C1136.92,413.4469 1099.24,444.2969 1067.61,476.3269 " fill="none" id="validate_proposal-to-prsls_endpoints" style="stroke:#181818;stroke-width:1.0;"/><polygon fill="#181818" points="1063.78,480.2369,1072.929,476.5904,1067.2725,476.6588,1067.2041,471.0024,1063.78,480.2369" style="stroke:#181818;stroke-width:1.0;"/></g><!--link s3_bucket to prsls_endpoints--><g id="link_s3_bucket_prsls_endpoints"><path codeLine="103" d="M941.1507,346.6555 C941.2354,347.3729 941.3205,348.0925 941.4058,348.8144 C941.5764,350.2583 941.748,351.711 941.9207,353.1722 C942.266,356.0944 942.6152,359.0502 942.9679,362.0353 C944.3787,373.9755 945.8448,386.3837 947.3336,398.9852 C950.3113,424.1881 953.38,450.1644 956.28,474.7169 " fill="none" id="s3_bucket-to-prsls_endpoints" style="stroke:#181818;stroke-width:1.0;"/><polygon fill="#181818" points="956.9,479.9669,959.8163,470.5597,956.3133,475.0014,951.8716,471.4984,956.9,479.9669" style="stroke:#181818;stroke-width:1.0;"/></g><!--link prsls_endpoints to email_helper_items--><g id="link_prsls_endpoints_email_helper_items"><path codeLine="104" d="M909.84,480.0769 C874.82,411.7969 833.39,331.0369 810.47,286.3569 " fill="none" id="prsls_endpoints-to-email_helper_items" style="stroke:#181818;stroke-width:1.0;"/><polygon fill="#181818" points="808.18,281.8869,808.7026,291.7219,810.4503,286.3417,815.8304,288.0894,808.18,281.8869" style="stroke:#181818;stroke-width:1.0;"/></g><!--link validate_duplicates to panels_endpoints--><g id="link_validate_duplicates_panels_endpoints"><path codeLine="105" d="M1576.91,279.3569 C1561.47,310.5369 1531.68,360.7569 1490,386.2969 C1471.56,397.5969 1460.3,382.7769 1442,394.2969 C1380.26,433.1569 1337.6,509.1069 1315.53,556.8569 " fill="none" id="validate_duplicates-to-panels_endpoints" style="stroke:#181818;stroke-width:1.0;"/><polygon fill="#181818" points="1313.33,561.6769,1320.7204,555.1667,1315.4162,557.1329,1313.45,551.8287,1313.33,561.6769" style="stroke:#181818;stroke-width:1.0;"/></g><!--link pht_handler_items to prsls_endpoints--><g id="link_pht_handler_items_prsls_endpoints"><path codeLine="106" d="M548.99,298.0669 C587.22,328.3969 641.5,366.1769 696,386.2969 C724.55,396.8369 736.58,381.0969 764,394.2969 C804.5,413.8069 841.84,444.4769 873.32,476.2169 " fill="none" id="pht_handler_items-to-prsls_endpoints" style="stroke:#181818;stroke-width:1.0;"/><polygon fill="#181818" points="877.13,480.0869,873.6687,470.8663,873.6231,476.5229,867.9664,476.4773,877.13,480.0869" style="stroke:#181818;stroke-width:1.0;"/></g><!--link pht_handler_items to report_endpoints--><g id="link_pht_handler_items_report_endpoints"><path codeLine="107" d="M521.36,297.8869 C536.74,325.6669 556.67,361.9369 574,394.2969 C608.24,458.2369 647.44,534.0169 667.55,573.0969 " fill="none" id="pht_handler_items-to-report_endpoints" style="stroke:#181818;stroke-width:1.0;"/><polygon fill="#181818" points="669.9,577.6769,669.3396,567.844,667.6126,573.2308,662.2258,571.5038,669.9,577.6769" style="stroke:#181818;stroke-width:1.0;"/></g><!--link constants to reviewers_endpoints--><g id="link_constants_reviewers_endpoints"><path codeLine="108" d="M259.05,269.3369 C265.16,298.2169 281.75,356.5269 320,386.2969 C334.31,397.4269 345.26,383.7469 360,394.2969 C422.68,439.1469 457.34,528.0869 471.43,572.6069 " fill="none" id="constants-to-reviewers_endpoints" style="stroke:#181818;stroke-width:1.0;"/><polygon fill="#181818" points="472.97,577.5569,474.1135,567.7746,471.4835,572.783,466.4752,570.153,472.97,577.5569" style="stroke:#181818;stroke-width:1.0;"/></g><!--SRC=[dPP9Rzim48Nl_XL4BatH2ZhaLXI-j45xAHfawPMWfR7DX289aaeW6Fxl7L5BPArKTF6Yxr73f-4ZdTB4AR9JpgcCfDn0uhYIcutZJW3v2Ovn0Idvn-7j6xdx_RZPQ9Qyi0EGAtrqLuHPWfzKlnp8QRCXUBNtcUPNvFltUnoIoOE0xRP1BZ3D90YQGi8jFdce89rBxPxn7hcKK92fLbmwUmcNrnVow_QHn5uGDG8RdrejJy-X8i6jYq-v1JEXkllxC28R0vzMrVJ-w_tRX8-MPapYpmoa2xVIlbj8vZsqSNogt5yoRfrVFPi2Psoii66pBCcGFYavdA5HMbasFqcFBiwnmogRngUaI0GiW0PUSRdvEcn03TOnboDTVSuOxUaTSybnWKaCC0SBa4Kx8yWm7-8baXyaf55kH9o200VnQO-f8ba6vnLIzIQ5Okc7nBbU9trbWgSJ7Zm5D4gtWOUDQq0h4xO-ApIWTIimNbL5sMPWR60XDHrKIyr-O57NpR-Yfl2Ay8rLN-OMLOC6nbUDJpNAqeFxffnxcsZk-5p6jPnVYFG8GeC9yguheDn1DXxz1hr5mDFNdqU0CWQgsvJPGYOzQEobTqyGzCXaAW9hxl0p9TC3ECgCOGLD1BDsjEoI4RZ0RRcsyB1Jq5s1BsUKVSRUeirIjxJUCflcQtVmKQqpJDgzCXdDTHaexJXhVB8tT9SdBn0M6Iqzur6Ly5WCL259CIHf5SvKf_lHgOnhwbHUfwhYU5BZNo1QcmYEBsS2aM060u-Y3pS_bDppm-YjF-2EAYNNjpBFLhoHUdzOFB3w1YJDRa9Jd3XFohP3rJwN_h2ztSv9cduP5ymbQO8zYMMvcVXeCgSTu1E9eeZSW_1piqUkxLVC09SRILoXiMubHL527XzM6KNR_cdBasrJJXAz_pmt3AdBntRyzCFs3hFLk8FG6Ac0pA3zBTYZhRarCjWSAqytv_y0]--></g></svg>