<?xml version="1.0" encoding="UTF-8" standalone="no"?><svg xmlns="http://www.w3.org/2000/svg" xmlns:xlink="http://www.w3.org/1999/xlink" contentStyleType="text/css" height="175px" preserveAspectRatio="none" style="width:890px;height:175px;background:#FFFFFF;" version="1.1" viewBox="0 0 890 175" width="890px" zoomAndPan="magnify"><defs/><g><text fill="#000000" font-family="sans-serif" font-size="14" font-weight="bold" lengthAdjust="spacing" textLength="216" x="330" y="22.9951">Detailed View: OSD Mapper</text><!--cluster osdmapper--><g id="cluster_osdmapper"><rect fill="none" height="125" rx="2.5" ry="2.5" style="stroke:#181818;stroke-width:1.0;" width="877" x="7" y="44.2969"/><text fill="#000000" font-family="sans-serif" font-size="14" font-weight="bold" lengthAdjust="spacing" textLength="89" x="401" y="59.292">osdmapper</text></g><!--class configuration_from_osd--><g id="elem_configuration_from_osd"><rect codeLine="8" fill="#F1F1F1" height="72.5625" id="configuration_from_osd" rx="2.5" ry="2.5" style="stroke:#181818;stroke-width:0.5;" width="193" x="23" y="79.7969"/><ellipse cx="38" cy="99.9297" fill="#ADD1B2" rx="11" ry="11" style="stroke:#181818;stroke-width:1.0;"/><path d="M40.9688,105.5703 Q40.3906,105.8672 39.75,106.0078 Q39.1094,106.1641 38.4063,106.1641 Q35.9063,106.1641 34.5781,104.5234 Q33.2656,102.8672 33.2656,99.7422 Q33.2656,96.6172 34.5781,94.9609 Q35.9063,93.3047 38.4063,93.3047 Q39.1094,93.3047 39.75,93.4609 Q40.4063,93.6172 40.9688,93.9141 L40.9688,96.6328 Q40.3438,96.0547 39.75,95.7891 Q39.1563,95.5078 38.5313,95.5078 Q37.1875,95.5078 36.5,96.5859 Q35.8125,97.6484 35.8125,99.7422 Q35.8125,101.8359 36.5,102.9141 Q37.1875,103.9766 38.5313,103.9766 Q39.1563,103.9766 39.75,103.7109 Q40.3438,103.4297 40.9688,102.8516 L40.9688,105.5703 Z " fill="#000000"/><text fill="#000000" font-family="sans-serif" font-size="12" font-style="italic" lengthAdjust="spacing" textLength="65" x="100" y="95.9355">«function»</text><text fill="#000000" font-family="sans-serif" font-size="14" lengthAdjust="spacing" textLength="161" x="52" y="111.7607">configuration_from_osd</text><line style="stroke:#181818;stroke-width:0.5;" x1="24" x2="215" y1="120.0625" y2="120.0625"/><text fill="#000000" font-family="sans-serif" font-size="14" lengthAdjust="spacing" textLength="151" x="29" y="137.0576">returns: Configuration</text><line style="stroke:#181818;stroke-width:0.5;" x1="24" x2="215" y1="144.3594" y2="144.3594"/></g><!--class _get_low_telescope_configuration--><g id="elem__get_low_telescope_configuration"><rect codeLine="11" fill="#F1F1F1" height="72.5625" id="_get_low_telescope_configuration" rx="2.5" ry="2.5" style="stroke:#181818;stroke-width:0.5;" width="265" x="603" y="79.7969"/><ellipse cx="618" cy="99.9297" fill="#ADD1B2" rx="11" ry="11" style="stroke:#181818;stroke-width:1.0;"/><path d="M620.9688,105.5703 Q620.3906,105.8672 619.75,106.0078 Q619.1094,106.1641 618.4063,106.1641 Q615.9063,106.1641 614.5781,104.5234 Q613.2656,102.8672 613.2656,99.7422 Q613.2656,96.6172 614.5781,94.9609 Q615.9063,93.3047 618.4063,93.3047 Q619.1094,93.3047 619.75,93.4609 Q620.4063,93.6172 620.9688,93.9141 L620.9688,96.6328 Q620.3438,96.0547 619.75,95.7891 Q619.1563,95.5078 618.5313,95.5078 Q617.1875,95.5078 616.5,96.5859 Q615.8125,97.6484 615.8125,99.7422 Q615.8125,101.8359 616.5,102.9141 Q617.1875,103.9766 618.5313,103.9766 Q619.1563,103.9766 619.75,103.7109 Q620.3438,103.4297 620.9688,102.8516 L620.9688,105.5703 Z " fill="#000000"/><text fill="#000000" font-family="sans-serif" font-size="12" font-style="italic" lengthAdjust="spacing" textLength="65" x="716" y="95.9355">«function»</text><text fill="#000000" font-family="sans-serif" font-size="14" lengthAdjust="spacing" textLength="233" x="632" y="111.7607">_get_low_telescope_configuration</text><line style="stroke:#181818;stroke-width:0.5;" x1="604" x2="867" y1="120.0625" y2="120.0625"/><text fill="#000000" font-family="sans-serif" font-size="14" lengthAdjust="spacing" textLength="178" x="609" y="137.0576">returns: LowConfiguration</text><line style="stroke:#181818;stroke-width:0.5;" x1="604" x2="867" y1="144.3594" y2="144.3594"/></g><!--class _get_mid_telescope_configuration--><g id="elem__get_mid_telescope_configuration"><rect codeLine="14" fill="#F1F1F1" height="72.5625" id="_get_mid_telescope_configuration" rx="2.5" ry="2.5" style="stroke:#181818;stroke-width:0.5;" width="267" x="276" y="79.7969"/><ellipse cx="291" cy="99.9297" fill="#ADD1B2" rx="11" ry="11" style="stroke:#181818;stroke-width:1.0;"/><path d="M293.9688,105.5703 Q293.3906,105.8672 292.75,106.0078 Q292.1094,106.1641 291.4063,106.1641 Q288.9063,106.1641 287.5781,104.5234 Q286.2656,102.8672 286.2656,99.7422 Q286.2656,96.6172 287.5781,94.9609 Q288.9063,93.3047 291.4063,93.3047 Q292.1094,93.3047 292.75,93.4609 Q293.4063,93.6172 293.9688,93.9141 L293.9688,96.6328 Q293.3438,96.0547 292.75,95.7891 Q292.1563,95.5078 291.5313,95.5078 Q290.1875,95.5078 289.5,96.5859 Q288.8125,97.6484 288.8125,99.7422 Q288.8125,101.8359 289.5,102.9141 Q290.1875,103.9766 291.5313,103.9766 Q292.1563,103.9766 292.75,103.7109 Q293.3438,103.4297 293.9688,102.8516 L293.9688,105.5703 Z " fill="#000000"/><text fill="#000000" font-family="sans-serif" font-size="12" font-style="italic" lengthAdjust="spacing" textLength="65" x="390" y="95.9355">«function»</text><text fill="#000000" font-family="sans-serif" font-size="14" lengthAdjust="spacing" textLength="235" x="305" y="111.7607">_get_mid_telescope_configuration</text><line style="stroke:#181818;stroke-width:0.5;" x1="277" x2="542" y1="120.0625" y2="120.0625"/><text fill="#000000" font-family="sans-serif" font-size="14" lengthAdjust="spacing" textLength="175" x="282" y="137.0576">returns: MidConfiguration</text><line style="stroke:#181818;stroke-width:0.5;" x1="277" x2="542" y1="144.3594" y2="144.3594"/></g><!--link configuration_from_osd to _get_mid_telescope_configuration--><!--link _get_mid_telescope_configuration to _get_low_telescope_configuration--><!--SRC=[fP1D2y8m38Rl-HN1ktz0P1SzAeA25v5Isgm6ktQq6Jl8_hjpU9Zu2UQQFEyJNc7nX4iIpPuixfdQ6MvsIrphkgO4uAaKb8Y9tKdGSY8Z70D0hSrPEy99pBOQZYSuds_xjGxEKr7W1N0OutNEQ68esJL9tt1LfbYfdkoHiWb3v8X0J2HD2dc6Yp5sNtSFmSgHA1zR9UGfcrYJUd2zKumagzZ-wAdO_k5PittjwG3WJK7JmucjfN2S5bzVWAy_FgLzA0xW2W00]--></g></svg>