<?xml version="1.0" encoding="UTF-8" standalone="no"?><svg xmlns="http://www.w3.org/2000/svg" xmlns:xlink="http://www.w3.org/1999/xlink" contentScriptType="application/ecmascript" contentStyleType="text/css" height="511px" preserveAspectRatio="none" style="width:3913px;height:511px;" version="1.1" viewBox="0 0 3913 511" width="3913px" zoomAndPan="magnify"><defs><filter height="300%" id="fab7yzt6xcybc" width="300%" x="-1" y="-1"><feGaussianBlur result="blurOut" stdDeviation="2.0"/><feColorMatrix in="blurOut" result="blurOut2" type="matrix" values="0 0 0 0 0 0 0 0 0 0 0 0 0 0 0 0 0 0 .4 0"/><feOffset dx="4.0" dy="4.0" in="blurOut2" result="blurOut3"/><feBlend in="SourceGraphic" in2="blurOut3" mode="normal"/></filter></defs><g><!--MD5=[f86338f81ae59385f2db08b45a13f5c7]
cluster pht_pkg--><polygon fill="#FFFFFF" filter="url(#fab7yzt6xcybc)" points="30,172,62,172,69,194.2969,2878,194.2969,2878,499,30,499,30,172" style="stroke: #000000; stroke-width: 1.5;"/><line style="stroke: #000000; stroke-width: 1.5;" x1="30" x2="69" y1="194.2969" y2="194.2969"/><text fill="#000000" font-family="sans-serif" font-size="14" font-weight="bold" lengthAdjust="spacingAndGlyphs" textLength="26" x="34" y="186.9951">pht</text><!--MD5=[7442f3b126ee602ae02566c1a49e158a]
cluster api--><rect fill="#FFFFFF" filter="url(#fab7yzt6xcybc)" height="260" style="stroke: #000000; stroke-width: 1.5;" width="1394" x="1460" y="215"/><text fill="#000000" font-family="sans-serif" font-size="14" font-weight="bold" lengthAdjust="spacingAndGlyphs" textLength="23" x="2145.5" y="229.9951">api</text><!--MD5=[7eb099b782c8c53c0a0fd0154e2a3c5a]
cluster panel_decision--><rect fill="#FFFFFF" filter="url(#fab7yzt6xcybc)" height="124" style="stroke: #000000; stroke-width: 1.5;" width="224" x="2606" y="292.5"/><text fill="#000000" font-family="sans-serif" font-size="14" font-weight="bold" lengthAdjust="spacingAndGlyphs" textLength="116" x="2660" y="307.4951">panel_decision</text><!--MD5=[77d861399a1123fef45ea9cd206da0a1]
cluster panels--><rect fill="#FFFFFF" filter="url(#fab7yzt6xcybc)" height="124" style="stroke: #000000; stroke-width: 1.5;" width="208" x="2374" y="292.5"/><text fill="#000000" font-family="sans-serif" font-size="14" font-weight="bold" lengthAdjust="spacingAndGlyphs" textLength="52" x="2452" y="307.4951">panels</text><!--MD5=[b11840e146ebf954aaa581ac45816cc4]
cluster prsls--><rect fill="#FFFFFF" filter="url(#fab7yzt6xcybc)" height="193" style="stroke: #000000; stroke-width: 1.5;" width="270" x="2080" y="258"/><text fill="#000000" font-family="sans-serif" font-size="14" font-weight="bold" lengthAdjust="spacingAndGlyphs" textLength="39" x="2195.5" y="272.9951">prsls</text><!--MD5=[3eae4776c3b9c1cd85205e10c2ca709f]
cluster report--><rect fill="#FFFFFF" filter="url(#fab7yzt6xcybc)" height="89" style="stroke: #000000; stroke-width: 1.5;" width="164" x="1892" y="310"/><text fill="#000000" font-family="sans-serif" font-size="14" font-weight="bold" lengthAdjust="spacingAndGlyphs" textLength="50" x="1949" y="324.9951">report</text><!--MD5=[71aeb2b5971fb9e5060a231607016407]
cluster reviewers--><rect fill="#FFFFFF" filter="url(#fab7yzt6xcybc)" height="89" style="stroke: #000000; stroke-width: 1.5;" width="174" x="1694" y="310"/><text fill="#000000" font-family="sans-serif" font-size="14" font-weight="bold" lengthAdjust="spacingAndGlyphs" textLength="80" x="1741" y="324.9951">reviewers</text><!--MD5=[fa8832521f54743195a6d9a660bce38d]
cluster reviews--><rect fill="#FFFFFF" filter="url(#fab7yzt6xcybc)" height="124" style="stroke: #000000; stroke-width: 1.5;" width="186" x="1484" y="292.5"/><text fill="#000000" font-family="sans-serif" font-size="14" font-weight="bold" lengthAdjust="spacingAndGlyphs" textLength="63" x="1545.5" y="307.4951">reviews</text><!--MD5=[c52f45833d539af9e29a9d34b8b7302b]
cluster utils--><rect fill="#FFFFFF" filter="url(#fab7yzt6xcybc)" height="225" style="stroke: #000000; stroke-width: 1.5;" width="1382" x="54" y="232.5"/><text fill="#000000" font-family="sans-serif" font-size="14" font-weight="bold" lengthAdjust="spacingAndGlyphs" textLength="33" x="728.5" y="247.4951">utils</text><!--MD5=[66ff1e50822f94ecb24b24ee51989664]
cluster email_helper--><rect fill="#FFFFFF" filter="url(#fab7yzt6xcybc)" height="100" style="stroke: #000000; stroke-width: 1.5;" width="166" x="1246" y="304.5"/><text fill="#000000" font-family="sans-serif" font-size="14" font-weight="bold" lengthAdjust="spacingAndGlyphs" textLength="99" x="1279.5" y="319.4951">email_helper</text><!--MD5=[4bd9b7eb0bd4dd22bfbe4e3db14eb6e7]
cluster pht_handler--><rect fill="#FFFFFF" filter="url(#fab7yzt6xcybc)" height="124" style="stroke: #000000; stroke-width: 1.5;" width="260" x="962" y="292.5"/><text fill="#000000" font-family="sans-serif" font-size="14" font-weight="bold" lengthAdjust="spacingAndGlyphs" textLength="93" x="1045.5" y="307.4951">pht_handler</text><!--MD5=[07eb855af04de9f1fb91d4a0f31695ec]
cluster s3_bucket--><rect fill="#FFFFFF" filter="url(#fab7yzt6xcybc)" height="158" style="stroke: #000000; stroke-width: 1.5;" width="238" x="700" y="275.5"/><text fill="#000000" font-family="sans-serif" font-size="14" font-weight="bold" lengthAdjust="spacingAndGlyphs" textLength="80" x="779" y="290.4951">s3_bucket</text><!--MD5=[7d5f1d1e2dbd347e8e6787ff42fd6706]
cluster validation--><rect fill="#FFFFFF" filter="url(#fab7yzt6xcybc)" height="105" style="stroke: #000000; stroke-width: 1.5;" width="361" x="315" y="302"/><text fill="#000000" font-family="sans-serif" font-size="14" font-weight="bold" lengthAdjust="spacingAndGlyphs" textLength="75" x="458" y="316.9951">validation</text><!--MD5=[786266d16c7b64eac38222b2afe9b20b]
cluster api.prsls--><polygon fill="#FFFFFF" filter="url(#fab7yzt6xcybc)" points="3407,24,3480,24,3487,46.2969,3571,46.2969,3571,123,3407,123,3407,24" style="stroke: #000000; stroke-width: 1.5;"/><line style="stroke: #000000; stroke-width: 1.5;" x1="3407" x2="3487" y1="46.2969" y2="46.2969"/><text fill="#000000" font-family="sans-serif" font-size="14" font-weight="bold" lengthAdjust="spacingAndGlyphs" textLength="67" x="3411" y="38.9951">api.prsls</text><!--MD5=[3d95b1865d7dbc5e1557a9869adcb776]
cluster utils.validation--><polygon fill="#FFFFFF" filter="url(#fab7yzt6xcybc)" points="2902,305,3021,305,3028,327.2969,3263,327.2969,3263,404,2902,404,2902,305" style="stroke: #000000; stroke-width: 1.5;"/><line style="stroke: #000000; stroke-width: 1.5;" x1="2902" x2="3028" y1="327.2969" y2="327.2969"/><text fill="#000000" font-family="sans-serif" font-size="14" font-weight="bold" lengthAdjust="spacingAndGlyphs" textLength="113" x="2906" y="319.9951">utils.validation</text><!--MD5=[22e8a9a3b9b2bc8bdb3ca627cfcf269d]
cluster utils.pht_handler--><polygon fill="#FFFFFF" filter="url(#fab7yzt6xcybc)" points="3711,305,3848,305,3855,327.2969,3891,327.2969,3891,404,3711,404,3711,305" style="stroke: #000000; stroke-width: 1.5;"/><line style="stroke: #000000; stroke-width: 1.5;" x1="3711" x2="3855" y1="327.2969" y2="327.2969"/><text fill="#000000" font-family="sans-serif" font-size="14" font-weight="bold" lengthAdjust="spacingAndGlyphs" textLength="131" x="3715" y="319.9951">utils.pht_handler</text><!--MD5=[439cc69c862ba6cb2df179bba49deab3]
cluster utils.s3_bucket--><polygon fill="#FFFFFF" filter="url(#fab7yzt6xcybc)" points="3287,305,3411,305,3418,327.2969,3479,327.2969,3479,404,3287,404,3287,305" style="stroke: #000000; stroke-width: 1.5;"/><line style="stroke: #000000; stroke-width: 1.5;" x1="3287" x2="3418" y1="327.2969" y2="327.2969"/><text fill="#000000" font-family="sans-serif" font-size="14" font-weight="bold" lengthAdjust="spacingAndGlyphs" textLength="118" x="3291" y="319.9951">utils.s3_bucket</text><!--MD5=[e6880085e6ec02bbf4bb4e9459a63ed3]
cluster api.panels--><polygon fill="#FFFFFF" filter="url(#fab7yzt6xcybc)" points="2906,24,2992,24,2999,46.2969,3082,46.2969,3082,123,2906,123,2906,24" style="stroke: #000000; stroke-width: 1.5;"/><line style="stroke: #000000; stroke-width: 1.5;" x1="2906" x2="2999" y1="46.2969" y2="46.2969"/><text fill="#000000" font-family="sans-serif" font-size="14" font-weight="bold" lengthAdjust="spacingAndGlyphs" textLength="80" x="2910" y="38.9951">api.panels</text><!--MD5=[a2f6d596450a6a77d4f7c4ca3949ff0c]
cluster api.report--><polygon fill="#FFFFFF" filter="url(#fab7yzt6xcybc)" points="3715,24,3799,24,3806,46.2969,3887,46.2969,3887,123,3715,123,3715,24" style="stroke: #000000; stroke-width: 1.5;"/><line style="stroke: #000000; stroke-width: 1.5;" x1="3715" x2="3806" y1="46.2969" y2="46.2969"/><text fill="#000000" font-family="sans-serif" font-size="14" font-weight="bold" lengthAdjust="spacingAndGlyphs" textLength="78" x="3719" y="38.9951">api.report</text><!--MD5=[30b2f10ad2dff478c735684d4661bf86]
cluster utils.email_helper--><polygon fill="#FFFFFF" filter="url(#fab7yzt6xcybc)" points="3503,305,3646,305,3653,327.2969,3687,327.2969,3687,404,3503,404,3503,305" style="stroke: #000000; stroke-width: 1.5;"/><line style="stroke: #000000; stroke-width: 1.5;" x1="3503" x2="3653" y1="327.2969" y2="327.2969"/><text fill="#000000" font-family="sans-serif" font-size="14" font-weight="bold" lengthAdjust="spacingAndGlyphs" textLength="137" x="3507" y="319.9951">utils.email_helper</text><!--MD5=[08f37e8040c068efc9b35658b8e5f0ae]
cluster api.reviewers--><polygon fill="#FFFFFF" filter="url(#fab7yzt6xcybc)" points="22,24,136,24,143,46.2969,214,46.2969,214,123,22,123,22,24" style="stroke: #000000; stroke-width: 1.5;"/><line style="stroke: #000000; stroke-width: 1.5;" x1="22" x2="143" y1="46.2969" y2="46.2969"/><text fill="#000000" font-family="sans-serif" font-size="14" font-weight="bold" lengthAdjust="spacingAndGlyphs" textLength="108" x="26" y="38.9951">api.reviewers</text><rect fill="#FEFECE" filter="url(#fab7yzt6xcybc)" height="72.5313" style="stroke: #A80036; stroke-width: 1.5;" width="191" x="2622.5" y="327.5"/><text fill="#000000" font-family="sans-serif" font-size="12" lengthAdjust="spacingAndGlyphs" textLength="162" x="2637" y="340.6387">panel_decision_endpoints</text><line style="stroke: #A80036; stroke-width: 1.5;" x1="2623.5" x2="2812.5" y1="345.4688" y2="345.4688"/><ellipse cx="2633.5" cy="356.4688" fill="none" rx="3" ry="3" style="stroke: #038048; stroke-width: 1.0;"/><text fill="#000000" font-family="sans-serif" font-size="10" lengthAdjust="spacingAndGlyphs" textLength="106" x="2642.5" y="358.751">POST /panel-decisions</text><ellipse cx="2633.5" cy="368.1094" fill="none" rx="3" ry="3" style="stroke: #038048; stroke-width: 1.0;"/><text fill="#000000" font-family="sans-serif" font-size="10" lengthAdjust="spacingAndGlyphs" textLength="165" x="2642.5" y="370.3916">GET /panel-decisions/{decision_id}</text><ellipse cx="2633.5" cy="379.75" fill="none" rx="3" ry="3" style="stroke: #038048; stroke-width: 1.0;"/><text fill="#000000" font-family="sans-serif" font-size="10" lengthAdjust="spacingAndGlyphs" textLength="164" x="2642.5" y="382.0322">GET /panel-decisions/list/{user_id}</text><ellipse cx="2633.5" cy="391.3906" fill="none" rx="3" ry="3" style="stroke: #038048; stroke-width: 1.0;"/><text fill="#000000" font-family="sans-serif" font-size="10" lengthAdjust="spacingAndGlyphs" textLength="165" x="2642.5" y="393.6729">PUT /panel-decisions/{decision_id}</text><rect fill="#FEFECE" filter="url(#fab7yzt6xcybc)" height="72.5313" style="stroke: #A80036; stroke-width: 1.5;" width="177" x="2389.5" y="327.5"/><text fill="#000000" font-family="sans-serif" font-size="12" lengthAdjust="spacingAndGlyphs" textLength="111" x="2422.5" y="340.6387">panels_endpoints</text><line style="stroke: #A80036; stroke-width: 1.5;" x1="2390.5" x2="2565.5" y1="345.4688" y2="345.4688"/><ellipse cx="2400.5" cy="356.4688" fill="none" rx="3" ry="3" style="stroke: #038048; stroke-width: 1.0;"/><text fill="#000000" font-family="sans-serif" font-size="10" lengthAdjust="spacingAndGlyphs" textLength="64" x="2409.5" y="358.751">POST /panels</text><ellipse cx="2400.5" cy="368.1094" fill="none" rx="3" ry="3" style="stroke: #038048; stroke-width: 1.0;"/><text fill="#000000" font-family="sans-serif" font-size="10" lengthAdjust="spacingAndGlyphs" textLength="114" x="2409.5" y="370.3916">GET /panels//{panel_id}</text><ellipse cx="2400.5" cy="379.75" fill="none" rx="3" ry="3" style="stroke: #038048; stroke-width: 1.0;"/><text fill="#000000" font-family="sans-serif" font-size="10" lengthAdjust="spacingAndGlyphs" textLength="151" x="2409.5" y="382.0322">GET /panels/reviews/{panel_id}</text><ellipse cx="2400.5" cy="391.3906" fill="none" rx="3" ry="3" style="stroke: #038048; stroke-width: 1.0;"/><text fill="#000000" font-family="sans-serif" font-size="10" lengthAdjust="spacingAndGlyphs" textLength="122" x="2409.5" y="393.6729">GET /panels/list/{user_id}</text><rect fill="#FEFECE" filter="url(#fab7yzt6xcybc)" height="142.375" style="stroke: #A80036; stroke-width: 1.5;" width="237" x="2096.5" y="293"/><text fill="#000000" font-family="sans-serif" font-size="12" lengthAdjust="spacingAndGlyphs" textLength="99" x="2165.5" y="306.1387">prsls_endpoints</text><line style="stroke: #A80036; stroke-width: 1.5;" x1="2097.5" x2="2332.5" y1="310.9688" y2="310.9688"/><ellipse cx="2107.5" cy="321.9688" fill="none" rx="3" ry="3" style="stroke: #038048; stroke-width: 1.0;"/><text fill="#000000" font-family="sans-serif" font-size="10" lengthAdjust="spacingAndGlyphs" textLength="107" x="2116.5" y="324.251">GET /prsls/osd/{cycle}</text><ellipse cx="2107.5" cy="333.6094" fill="none" rx="3" ry="3" style="stroke: #038048; stroke-width: 1.0;"/><text fill="#000000" font-family="sans-serif" font-size="10" lengthAdjust="spacingAndGlyphs" textLength="89" x="2116.5" y="335.8916">POST /prsls/create</text><ellipse cx="2107.5" cy="345.25" fill="none" rx="3" ry="3" style="stroke: #038048; stroke-width: 1.0;"/><text fill="#000000" font-family="sans-serif" font-size="10" lengthAdjust="spacingAndGlyphs" textLength="117" x="2116.5" y="347.5322">GET /prsls/{proposal_id}</text><ellipse cx="2107.5" cy="356.8906" fill="none" rx="3" ry="3" style="stroke: #038048; stroke-width: 1.0;"/><text fill="#000000" font-family="sans-serif" font-size="10" lengthAdjust="spacingAndGlyphs" textLength="113" x="2116.5" y="359.1729">GET /prsls/list/{user_id}</text><ellipse cx="2107.5" cy="368.5313" fill="none" rx="3" ry="3" style="stroke: #038048; stroke-width: 1.0;"/><text fill="#000000" font-family="sans-serif" font-size="10" lengthAdjust="spacingAndGlyphs" textLength="117" x="2116.5" y="370.8135">PUT /prsls/{proposal_id}</text><ellipse cx="2107.5" cy="380.1719" fill="none" rx="3" ry="3" style="stroke: #038048; stroke-width: 1.0;"/><text fill="#000000" font-family="sans-serif" font-size="10" lengthAdjust="spacingAndGlyphs" textLength="96" x="2116.5" y="382.4541">POST /prsls/validate</text><ellipse cx="2107.5" cy="391.8125" fill="none" rx="3" ry="3" style="stroke: #038048; stroke-width: 1.0;"/><text fill="#000000" font-family="sans-serif" font-size="10" lengthAdjust="spacingAndGlyphs" textLength="111" x="2116.5" y="394.0947">POST /prsls/send-email</text><ellipse cx="2107.5" cy="403.4531" fill="none" rx="3" ry="3" style="stroke: #038048; stroke-width: 1.0;"/><text fill="#000000" font-family="sans-serif" font-size="10" lengthAdjust="spacingAndGlyphs" textLength="197" x="2116.5" y="405.7354">POST /prsls/signed-url/upload/{filename}</text><ellipse cx="2107.5" cy="415.0938" fill="none" rx="3" ry="3" style="stroke: #038048; stroke-width: 1.0;"/><text fill="#000000" font-family="sans-serif" font-size="10" lengthAdjust="spacingAndGlyphs" textLength="211" x="2116.5" y="417.376">POST /prsls/signed-url/download/{filename}</text><ellipse cx="2107.5" cy="426.7344" fill="none" rx="3" ry="3" style="stroke: #038048; stroke-width: 1.0;"/><text fill="#000000" font-family="sans-serif" font-size="10" lengthAdjust="spacingAndGlyphs" textLength="195" x="2116.5" y="429.0166">POST /prsls/signed-url/delete/{filename}</text><rect fill="#FEFECE" filter="url(#fab7yzt6xcybc)" height="37.6094" style="stroke: #A80036; stroke-width: 1.5;" width="131" x="1908.5" y="345"/><text fill="#000000" font-family="sans-serif" font-size="12" lengthAdjust="spacingAndGlyphs" textLength="108" x="1920" y="358.1387">report_endpoints</text><line style="stroke: #A80036; stroke-width: 1.5;" x1="1909.5" x2="2038.5" y1="362.9688" y2="362.9688"/><ellipse cx="1919.5" cy="373.9688" fill="none" rx="3" ry="3" style="stroke: #038048; stroke-width: 1.0;"/><text fill="#000000" font-family="sans-serif" font-size="10" lengthAdjust="spacingAndGlyphs" textLength="105" x="1928.5" y="376.251">GET /report/{user_id}</text><rect fill="#FEFECE" filter="url(#fab7yzt6xcybc)" height="37.6094" style="stroke: #A80036; stroke-width: 1.5;" width="142" x="1710" y="345"/><text fill="#000000" font-family="sans-serif" font-size="12" lengthAdjust="spacingAndGlyphs" textLength="128" x="1717" y="358.1387">reviewers_endpoints</text><line style="stroke: #A80036; stroke-width: 1.5;" x1="1711" x2="1851" y1="362.9688" y2="362.9688"/><ellipse cx="1721" cy="373.9688" fill="none" rx="3" ry="3" style="stroke: #038048; stroke-width: 1.0;"/><text fill="#000000" font-family="sans-serif" font-size="10" lengthAdjust="spacingAndGlyphs" textLength="73" x="1730" y="376.251">GET /reviewers</text><rect fill="#FEFECE" filter="url(#fab7yzt6xcybc)" height="72.5313" style="stroke: #A80036; stroke-width: 1.5;" width="154" x="1500" y="327.5"/><text fill="#000000" font-family="sans-serif" font-size="12" lengthAdjust="spacingAndGlyphs" textLength="115" x="1519.5" y="340.6387">reviews_endpoints</text><line style="stroke: #A80036; stroke-width: 1.5;" x1="1501" x2="1653" y1="345.4688" y2="345.4688"/><ellipse cx="1511" cy="356.4688" fill="none" rx="3" ry="3" style="stroke: #038048; stroke-width: 1.0;"/><text fill="#000000" font-family="sans-serif" font-size="10" lengthAdjust="spacingAndGlyphs" textLength="70" x="1520" y="358.751">POST /reviews</text><ellipse cx="1511" cy="368.1094" fill="none" rx="3" ry="3" style="stroke: #038048; stroke-width: 1.0;"/><text fill="#000000" font-family="sans-serif" font-size="10" lengthAdjust="spacingAndGlyphs" textLength="123" x="1520" y="370.3916">GET /reviews/{review_id}</text><ellipse cx="1511" cy="379.75" fill="none" rx="3" ry="3" style="stroke: #038048; stroke-width: 1.0;"/><text fill="#000000" font-family="sans-serif" font-size="10" lengthAdjust="spacingAndGlyphs" textLength="128" x="1520" y="382.0322">GET /reviews/list/{user_id}</text><ellipse cx="1511" cy="391.3906" fill="none" rx="3" ry="3" style="stroke: #038048; stroke-width: 1.0;"/><text fill="#000000" font-family="sans-serif" font-size="10" lengthAdjust="spacingAndGlyphs" textLength="123" x="1520" y="393.6729">PUT /reviews/{review_id}</text><!--MD5=[3a06755c3dfac87ead78df8d477775dd]
class constants--><rect fill="#FEFECE" filter="url(#fab7yzt6xcybc)" height="48" id="constants" style="stroke: #A80036; stroke-width: 1.5;" width="95" x="200.5" y="340"/><ellipse cx="215.5" cy="356" fill="#ADD1B2" rx="11" ry="11" style="stroke: #A80036; stroke-width: 1.0;"/><path d="M218.4688,361.6406 Q217.8906,361.9375 217.25,362.0781 Q216.6094,362.2344 215.9063,362.2344 Q213.4063,362.2344 212.0781,360.5938 Q210.7656,358.9375 210.7656,355.8125 Q210.7656,352.6875 212.0781,351.0313 Q213.4063,349.375 215.9063,349.375 Q216.6094,349.375 217.25,349.5313 Q217.9063,349.6875 218.4688,349.9844 L218.4688,352.7031 Q217.8438,352.125 217.25,351.8594 Q216.6563,351.5781 216.0313,351.5781 Q214.6875,351.5781 214,352.6563 Q213.3125,353.7188 213.3125,355.8125 Q213.3125,357.9063 214,358.9844 Q214.6875,360.0469 216.0313,360.0469 Q216.6563,360.0469 217.25,359.7813 Q217.8438,359.5 218.4688,358.9219 L218.4688,361.6406 Z "/><text fill="#000000" font-family="sans-serif" font-size="12" lengthAdjust="spacingAndGlyphs" textLength="63" x="229.5" y="360.1543">constants</text><line style="stroke: #A80036; stroke-width: 1.5;" x1="201.5" x2="294.5" y1="372" y2="372"/><line style="stroke: #A80036; stroke-width: 1.5;" x1="201.5" x2="294.5" y1="380" y2="380"/><!--MD5=[cc4c0d7fe6dade57121b7d9ac0b809ee]
class utils.constants--><rect fill="#FEFECE" filter="url(#fab7yzt6xcybc)" height="48" id="utils.constants" style="stroke: #A80036; stroke-width: 1.5;" width="95" x="70.5" y="340"/><ellipse cx="85.5" cy="356" fill="#ADD1B2" rx="11" ry="11" style="stroke: #A80036; stroke-width: 1.0;"/><path d="M88.4688,361.6406 Q87.8906,361.9375 87.25,362.0781 Q86.6094,362.2344 85.9063,362.2344 Q83.4063,362.2344 82.0781,360.5938 Q80.7656,358.9375 80.7656,355.8125 Q80.7656,352.6875 82.0781,351.0313 Q83.4063,349.375 85.9063,349.375 Q86.6094,349.375 87.25,349.5313 Q87.9063,349.6875 88.4688,349.9844 L88.4688,352.7031 Q87.8438,352.125 87.25,351.8594 Q86.6563,351.5781 86.0313,351.5781 Q84.6875,351.5781 84,352.6563 Q83.3125,353.7188 83.3125,355.8125 Q83.3125,357.9063 84,358.9844 Q84.6875,360.0469 86.0313,360.0469 Q86.6563,360.0469 87.25,359.7813 Q87.8438,359.5 88.4688,358.9219 L88.4688,361.6406 Z "/><text fill="#000000" font-family="sans-serif" font-size="12" lengthAdjust="spacingAndGlyphs" textLength="63" x="99.5" y="360.1543">constants</text><line style="stroke: #A80036; stroke-width: 1.5;" x1="71.5" x2="164.5" y1="372" y2="372"/><line style="stroke: #A80036; stroke-width: 1.5;" x1="71.5" x2="164.5" y1="380" y2="380"/><rect fill="#FEFECE" filter="url(#fab7yzt6xcybc)" height="49.25" style="stroke: #A80036; stroke-width: 1.5;" width="133" x="1262.5" y="339.5"/><text fill="#000000" font-family="sans-serif" font-size="12" lengthAdjust="spacingAndGlyphs" textLength="119" x="1269.5" y="352.6387">email_helper_items</text><line style="stroke: #A80036; stroke-width: 1.5;" x1="1263.5" x2="1394.5" y1="357.4688" y2="357.4688"/><ellipse cx="1273.5" cy="368.4688" fill="none" rx="3" ry="3" style="stroke: #038048; stroke-width: 1.0;"/><text fill="#000000" font-family="sans-serif" font-size="10" lengthAdjust="spacingAndGlyphs" textLength="71" x="1282.5" y="370.751">render_email()</text><ellipse cx="1273.5" cy="380.1094" fill="none" rx="3" ry="3" style="stroke: #038048; stroke-width: 1.0;"/><text fill="#000000" font-family="sans-serif" font-size="10" lengthAdjust="spacingAndGlyphs" textLength="95" x="1282.5" y="382.3916">send_email_async()</text><rect fill="#FEFECE" filter="url(#fab7yzt6xcybc)" height="72.5313" style="stroke: #A80036; stroke-width: 1.5;" width="227" x="978.5" y="327.5"/><text fill="#000000" font-family="sans-serif" font-size="12" lengthAdjust="spacingAndGlyphs" textLength="115" x="1034.5" y="340.6387">pht_handler_items</text><line style="stroke: #A80036; stroke-width: 1.5;" x1="979.5" x2="1204.5" y1="345.4688" y2="345.4688"/><ellipse cx="989.5" cy="356.4688" fill="none" rx="3" ry="3" style="stroke: #038048; stroke-width: 1.0;"/><text fill="#000000" font-family="sans-serif" font-size="10" lengthAdjust="spacingAndGlyphs" textLength="142" x="998.5" y="358.751">transform_update_proposal()</text><ellipse cx="989.5" cy="368.1094" fill="none" rx="3" ry="3" style="stroke: #038048; stroke-width: 1.0;"/><text fill="#000000" font-family="sans-serif" font-size="10" lengthAdjust="spacingAndGlyphs" textLength="119" x="998.5" y="370.3916">get_latest_entity_by_id()</text><ellipse cx="989.5" cy="379.75" fill="none" rx="3" ry="3" style="stroke: #038048; stroke-width: 1.0;"/><text fill="#000000" font-family="sans-serif" font-size="10" lengthAdjust="spacingAndGlyphs" textLength="88" x="998.5" y="382.0322">_get_array_class()</text><ellipse cx="989.5" cy="391.3906" fill="none" rx="3" ry="3" style="stroke: #038048; stroke-width: 1.0;"/><text fill="#000000" font-family="sans-serif" font-size="10" lengthAdjust="spacingAndGlyphs" textLength="201" x="998.5" y="393.6729">join_proposals_panels_reviews_decisions()</text><rect fill="#FEFECE" filter="url(#fab7yzt6xcybc)" height="107.4531" style="stroke: #A80036; stroke-width: 1.5;" width="206" x="716" y="310.5"/><text fill="#000000" font-family="sans-serif" font-size="12" lengthAdjust="spacingAndGlyphs" textLength="128" x="755" y="323.6387">s3_bucket_functions</text><line style="stroke: #A80036; stroke-width: 1.5;" x1="717" x2="921" y1="328.4688" y2="328.4688"/><ellipse cx="727" cy="339.4688" fill="none" rx="3" ry="3" style="stroke: #038048; stroke-width: 1.0;"/><text fill="#000000" font-family="sans-serif" font-size="10" lengthAdjust="spacingAndGlyphs" textLength="90" x="736" y="341.751">S3Method (Enum)</text><ellipse cx="727" cy="351.1094" fill="none" rx="3" ry="3" style="stroke: #038048; stroke-width: 1.0;"/><text fill="#000000" font-family="sans-serif" font-size="10" lengthAdjust="spacingAndGlyphs" textLength="45" x="736" y="353.3916">S3Config</text><ellipse cx="727" cy="362.75" fill="none" rx="3" ry="3" style="stroke: #038048; stroke-width: 1.0;"/><text fill="#000000" font-family="sans-serif" font-size="10" lengthAdjust="spacingAndGlyphs" textLength="78" x="736" y="365.0322">get_aws_client()</text><ellipse cx="727" cy="374.3906" fill="none" rx="3" ry="3" style="stroke: #038048; stroke-width: 1.0;"/><text fill="#000000" font-family="sans-serif" font-size="10" lengthAdjust="spacingAndGlyphs" textLength="121" x="736" y="376.6729">generate_presigned_url()</text><ellipse cx="727" cy="386.0313" fill="none" rx="3" ry="3" style="stroke: #038048; stroke-width: 1.0;"/><text fill="#000000" font-family="sans-serif" font-size="10" lengthAdjust="spacingAndGlyphs" textLength="166" x="736" y="388.3135">create_presigned_url_upload_pdf()</text><ellipse cx="727" cy="397.6719" fill="none" rx="3" ry="3" style="stroke: #038048; stroke-width: 1.0;"/><text fill="#000000" font-family="sans-serif" font-size="10" lengthAdjust="spacingAndGlyphs" textLength="180" x="736" y="399.9541">create_presigned_url_download_pdf()</text><ellipse cx="727" cy="409.3125" fill="none" rx="3" ry="3" style="stroke: #038048; stroke-width: 1.0;"/><text fill="#000000" font-family="sans-serif" font-size="10" lengthAdjust="spacingAndGlyphs" textLength="164" x="736" y="411.5947">create_presigned_url_delete_pdf()</text><!--MD5=[30ec9d10a31c09487c7565d2d75e441b]
class validate_duplicates--><rect fill="#FEFECE" filter="url(#fab7yzt6xcybc)" height="53.9375" id="validate_duplicates" style="stroke: #A80036; stroke-width: 1.5;" width="152" x="508" y="337"/><ellipse cx="523" cy="355.9688" fill="#ADD1B2" rx="11" ry="11" style="stroke: #A80036; stroke-width: 1.0;"/><path d="M525.9688,361.6094 Q525.3906,361.9063 524.75,362.0469 Q524.1094,362.2031 523.4063,362.2031 Q520.9063,362.2031 519.5781,360.5625 Q518.2656,358.9063 518.2656,355.7813 Q518.2656,352.6563 519.5781,351 Q520.9063,349.3438 523.4063,349.3438 Q524.1094,349.3438 524.75,349.5 Q525.4063,349.6563 525.9688,349.9531 L525.9688,352.6719 Q525.3438,352.0938 524.75,351.8281 Q524.1563,351.5469 523.5313,351.5469 Q522.1875,351.5469 521.5,352.625 Q520.8125,353.6875 520.8125,355.7813 Q520.8125,357.875 521.5,358.9531 Q522.1875,360.0156 523.5313,360.0156 Q524.1563,360.0156 524.75,359.75 Q525.3438,359.4688 525.9688,358.8906 L525.9688,361.6094 Z "/><text fill="#000000" font-family="sans-serif" font-size="12" font-style="italic" lengthAdjust="spacingAndGlyphs" textLength="65" x="564.5" y="353.1387">«function»</text><text fill="#000000" font-family="sans-serif" font-size="12" lengthAdjust="spacingAndGlyphs" textLength="120" x="537" y="367.1074">validate_duplicates</text><line style="stroke: #A80036; stroke-width: 1.5;" x1="509" x2="659" y1="374.9375" y2="374.9375"/><line style="stroke: #A80036; stroke-width: 1.5;" x1="509" x2="659" y1="382.9375" y2="382.9375"/><!--MD5=[1d961f11ad3f84a1432027514cd53657]
class validate_proposal--><rect fill="#FEFECE" filter="url(#fab7yzt6xcybc)" height="53.9375" id="validate_proposal" style="stroke: #A80036; stroke-width: 1.5;" width="142" x="331" y="337"/><ellipse cx="346" cy="355.9688" fill="#ADD1B2" rx="11" ry="11" style="stroke: #A80036; stroke-width: 1.0;"/><path d="M348.9688,361.6094 Q348.3906,361.9063 347.75,362.0469 Q347.1094,362.2031 346.4063,362.2031 Q343.9063,362.2031 342.5781,360.5625 Q341.2656,358.9063 341.2656,355.7813 Q341.2656,352.6563 342.5781,351 Q343.9063,349.3438 346.4063,349.3438 Q347.1094,349.3438 347.75,349.5 Q348.4063,349.6563 348.9688,349.9531 L348.9688,352.6719 Q348.3438,352.0938 347.75,351.8281 Q347.1563,351.5469 346.5313,351.5469 Q345.1875,351.5469 344.5,352.625 Q343.8125,353.6875 343.8125,355.7813 Q343.8125,357.875 344.5,358.9531 Q345.1875,360.0156 346.5313,360.0156 Q347.1563,360.0156 347.75,359.75 Q348.3438,359.4688 348.9688,358.8906 L348.9688,361.6094 Z "/><text fill="#000000" font-family="sans-serif" font-size="12" font-style="italic" lengthAdjust="spacingAndGlyphs" textLength="65" x="382.5" y="353.1387">«function»</text><text fill="#000000" font-family="sans-serif" font-size="12" lengthAdjust="spacingAndGlyphs" textLength="110" x="360" y="367.1074">validate_proposal</text><line style="stroke: #A80036; stroke-width: 1.5;" x1="332" x2="472" y1="374.9375" y2="374.9375"/><line style="stroke: #A80036; stroke-width: 1.5;" x1="332" x2="472" y1="382.9375" y2="382.9375"/><!--MD5=[748a8fa83ca240433ae1301e8a39d159]
class api.prsls.prsls_endpoints--><rect fill="#FEFECE" filter="url(#fab7yzt6xcybc)" height="48" id="api.prsls.prsls_endpoints" style="stroke: #A80036; stroke-width: 1.5;" width="131" x="3423.5" y="59"/><ellipse cx="3438.5" cy="75" fill="#ADD1B2" rx="11" ry="11" style="stroke: #A80036; stroke-width: 1.0;"/><path d="M3441.4688,80.6406 Q3440.8906,80.9375 3440.25,81.0781 Q3439.6094,81.2344 3438.9063,81.2344 Q3436.4063,81.2344 3435.0781,79.5938 Q3433.7656,77.9375 3433.7656,74.8125 Q3433.7656,71.6875 3435.0781,70.0313 Q3436.4063,68.375 3438.9063,68.375 Q3439.6094,68.375 3440.25,68.5313 Q3440.9063,68.6875 3441.4688,68.9844 L3441.4688,71.7031 Q3440.8438,71.125 3440.25,70.8594 Q3439.6563,70.5781 3439.0313,70.5781 Q3437.6875,70.5781 3437,71.6563 Q3436.3125,72.7188 3436.3125,74.8125 Q3436.3125,76.9063 3437,77.9844 Q3437.6875,79.0469 3439.0313,79.0469 Q3439.6563,79.0469 3440.25,78.7813 Q3440.8438,78.5 3441.4688,77.9219 L3441.4688,80.6406 Z "/><text fill="#000000" font-family="sans-serif" font-size="12" lengthAdjust="spacingAndGlyphs" textLength="99" x="3452.5" y="79.1543">prsls_endpoints</text><line style="stroke: #A80036; stroke-width: 1.5;" x1="3424.5" x2="3553.5" y1="91" y2="91"/><line style="stroke: #A80036; stroke-width: 1.5;" x1="3424.5" x2="3553.5" y1="99" y2="99"/><!--MD5=[c142687ef9f09efca070baf2606a0d63]
class utils.validation.validate_proposal--><rect fill="#FEFECE" filter="url(#fab7yzt6xcybc)" height="48" id="utils.validation.validate_proposal" style="stroke: #A80036; stroke-width: 1.5;" width="142" x="3105" y="340"/><ellipse cx="3120" cy="356" fill="#ADD1B2" rx="11" ry="11" style="stroke: #A80036; stroke-width: 1.0;"/><path d="M3122.9688,361.6406 Q3122.3906,361.9375 3121.75,362.0781 Q3121.1094,362.2344 3120.4063,362.2344 Q3117.9063,362.2344 3116.5781,360.5938 Q3115.2656,358.9375 3115.2656,355.8125 Q3115.2656,352.6875 3116.5781,351.0313 Q3117.9063,349.375 3120.4063,349.375 Q3121.1094,349.375 3121.75,349.5313 Q3122.4063,349.6875 3122.9688,349.9844 L3122.9688,352.7031 Q3122.3438,352.125 3121.75,351.8594 Q3121.1563,351.5781 3120.5313,351.5781 Q3119.1875,351.5781 3118.5,352.6563 Q3117.8125,353.7188 3117.8125,355.8125 Q3117.8125,357.9063 3118.5,358.9844 Q3119.1875,360.0469 3120.5313,360.0469 Q3121.1563,360.0469 3121.75,359.7813 Q3122.3438,359.5 3122.9688,358.9219 L3122.9688,361.6406 Z "/><text fill="#000000" font-family="sans-serif" font-size="12" lengthAdjust="spacingAndGlyphs" textLength="110" x="3134" y="360.1543">validate_proposal</text><line style="stroke: #A80036; stroke-width: 1.5;" x1="3106" x2="3246" y1="372" y2="372"/><line style="stroke: #A80036; stroke-width: 1.5;" x1="3106" x2="3246" y1="380" y2="380"/><!--MD5=[36b860c67643ae998dba590e14d6700f]
class utils.validation.validate_duplicates--><rect fill="#FEFECE" filter="url(#fab7yzt6xcybc)" height="48" id="utils.validation.validate_duplicates" style="stroke: #A80036; stroke-width: 1.5;" width="152" x="2918" y="340"/><ellipse cx="2933" cy="356" fill="#ADD1B2" rx="11" ry="11" style="stroke: #A80036; stroke-width: 1.0;"/><path d="M2935.9688,361.6406 Q2935.3906,361.9375 2934.75,362.0781 Q2934.1094,362.2344 2933.4063,362.2344 Q2930.9063,362.2344 2929.5781,360.5938 Q2928.2656,358.9375 2928.2656,355.8125 Q2928.2656,352.6875 2929.5781,351.0313 Q2930.9063,349.375 2933.4063,349.375 Q2934.1094,349.375 2934.75,349.5313 Q2935.4063,349.6875 2935.9688,349.9844 L2935.9688,352.7031 Q2935.3438,352.125 2934.75,351.8594 Q2934.1563,351.5781 2933.5313,351.5781 Q2932.1875,351.5781 2931.5,352.6563 Q2930.8125,353.7188 2930.8125,355.8125 Q2930.8125,357.9063 2931.5,358.9844 Q2932.1875,360.0469 2933.5313,360.0469 Q2934.1563,360.0469 2934.75,359.7813 Q2935.3438,359.5 2935.9688,358.9219 L2935.9688,361.6406 Z "/><text fill="#000000" font-family="sans-serif" font-size="12" lengthAdjust="spacingAndGlyphs" textLength="120" x="2947" y="360.1543">validate_duplicates</text><line style="stroke: #A80036; stroke-width: 1.5;" x1="2919" x2="3069" y1="372" y2="372"/><line style="stroke: #A80036; stroke-width: 1.5;" x1="2919" x2="3069" y1="380" y2="380"/><!--MD5=[c183436dddeb92aa7212cb8c73aac247]
class utils.pht_handler.pht_handler_items--><rect fill="#FEFECE" filter="url(#fab7yzt6xcybc)" height="48" id="utils.pht_handler.pht_handler_items" style="stroke: #A80036; stroke-width: 1.5;" width="147" x="3727.5" y="340"/><ellipse cx="3742.5" cy="356" fill="#ADD1B2" rx="11" ry="11" style="stroke: #A80036; stroke-width: 1.0;"/><path d="M3745.4688,361.6406 Q3744.8906,361.9375 3744.25,362.0781 Q3743.6094,362.2344 3742.9063,362.2344 Q3740.4063,362.2344 3739.0781,360.5938 Q3737.7656,358.9375 3737.7656,355.8125 Q3737.7656,352.6875 3739.0781,351.0313 Q3740.4063,349.375 3742.9063,349.375 Q3743.6094,349.375 3744.25,349.5313 Q3744.9063,349.6875 3745.4688,349.9844 L3745.4688,352.7031 Q3744.8438,352.125 3744.25,351.8594 Q3743.6563,351.5781 3743.0313,351.5781 Q3741.6875,351.5781 3741,352.6563 Q3740.3125,353.7188 3740.3125,355.8125 Q3740.3125,357.9063 3741,358.9844 Q3741.6875,360.0469 3743.0313,360.0469 Q3743.6563,360.0469 3744.25,359.7813 Q3744.8438,359.5 3745.4688,358.9219 L3745.4688,361.6406 Z "/><text fill="#000000" font-family="sans-serif" font-size="12" lengthAdjust="spacingAndGlyphs" textLength="115" x="3756.5" y="360.1543">pht_handler_items</text><line style="stroke: #A80036; stroke-width: 1.5;" x1="3728.5" x2="3873.5" y1="372" y2="372"/><line style="stroke: #A80036; stroke-width: 1.5;" x1="3728.5" x2="3873.5" y1="380" y2="380"/><!--MD5=[702e30e98eedf18b5be97c5441030f78]
class utils.s3_bucket.s3_bucket_functions--><rect fill="#FEFECE" filter="url(#fab7yzt6xcybc)" height="48" id="utils.s3_bucket.s3_bucket_functions" style="stroke: #A80036; stroke-width: 1.5;" width="160" x="3303" y="340"/><ellipse cx="3318" cy="356" fill="#ADD1B2" rx="11" ry="11" style="stroke: #A80036; stroke-width: 1.0;"/><path d="M3320.9688,361.6406 Q3320.3906,361.9375 3319.75,362.0781 Q3319.1094,362.2344 3318.4063,362.2344 Q3315.9063,362.2344 3314.5781,360.5938 Q3313.2656,358.9375 3313.2656,355.8125 Q3313.2656,352.6875 3314.5781,351.0313 Q3315.9063,349.375 3318.4063,349.375 Q3319.1094,349.375 3319.75,349.5313 Q3320.4063,349.6875 3320.9688,349.9844 L3320.9688,352.7031 Q3320.3438,352.125 3319.75,351.8594 Q3319.1563,351.5781 3318.5313,351.5781 Q3317.1875,351.5781 3316.5,352.6563 Q3315.8125,353.7188 3315.8125,355.8125 Q3315.8125,357.9063 3316.5,358.9844 Q3317.1875,360.0469 3318.5313,360.0469 Q3319.1563,360.0469 3319.75,359.7813 Q3320.3438,359.5 3320.9688,358.9219 L3320.9688,361.6406 Z "/><text fill="#000000" font-family="sans-serif" font-size="12" lengthAdjust="spacingAndGlyphs" textLength="128" x="3332" y="360.1543">s3_bucket_functions</text><line style="stroke: #A80036; stroke-width: 1.5;" x1="3304" x2="3462" y1="372" y2="372"/><line style="stroke: #A80036; stroke-width: 1.5;" x1="3304" x2="3462" y1="380" y2="380"/><!--MD5=[398fd72a2e275020d41baa267700dbb8]
class api.panels.panels_endpoints--><rect fill="#FEFECE" filter="url(#fab7yzt6xcybc)" height="48" id="api.panels.panels_endpoints" style="stroke: #A80036; stroke-width: 1.5;" width="143" x="2922.5" y="59"/><ellipse cx="2937.5" cy="75" fill="#ADD1B2" rx="11" ry="11" style="stroke: #A80036; stroke-width: 1.0;"/><path d="M2940.4688,80.6406 Q2939.8906,80.9375 2939.25,81.0781 Q2938.6094,81.2344 2937.9063,81.2344 Q2935.4063,81.2344 2934.0781,79.5938 Q2932.7656,77.9375 2932.7656,74.8125 Q2932.7656,71.6875 2934.0781,70.0313 Q2935.4063,68.375 2937.9063,68.375 Q2938.6094,68.375 2939.25,68.5313 Q2939.9063,68.6875 2940.4688,68.9844 L2940.4688,71.7031 Q2939.8438,71.125 2939.25,70.8594 Q2938.6563,70.5781 2938.0313,70.5781 Q2936.6875,70.5781 2936,71.6563 Q2935.3125,72.7188 2935.3125,74.8125 Q2935.3125,76.9063 2936,77.9844 Q2936.6875,79.0469 2938.0313,79.0469 Q2938.6563,79.0469 2939.25,78.7813 Q2939.8438,78.5 2940.4688,77.9219 L2940.4688,80.6406 Z "/><text fill="#000000" font-family="sans-serif" font-size="12" lengthAdjust="spacingAndGlyphs" textLength="111" x="2951.5" y="79.1543">panels_endpoints</text><line style="stroke: #A80036; stroke-width: 1.5;" x1="2923.5" x2="3064.5" y1="91" y2="91"/><line style="stroke: #A80036; stroke-width: 1.5;" x1="2923.5" x2="3064.5" y1="99" y2="99"/><!--MD5=[9708dea261b9ec5054b81a5a03c4bef6]
class api.report.report_endpoints--><rect fill="#FEFECE" filter="url(#fab7yzt6xcybc)" height="48" id="api.report.report_endpoints" style="stroke: #A80036; stroke-width: 1.5;" width="140" x="3731" y="59"/><ellipse cx="3746" cy="75" fill="#ADD1B2" rx="11" ry="11" style="stroke: #A80036; stroke-width: 1.0;"/><path d="M3748.9688,80.6406 Q3748.3906,80.9375 3747.75,81.0781 Q3747.1094,81.2344 3746.4063,81.2344 Q3743.9063,81.2344 3742.5781,79.5938 Q3741.2656,77.9375 3741.2656,74.8125 Q3741.2656,71.6875 3742.5781,70.0313 Q3743.9063,68.375 3746.4063,68.375 Q3747.1094,68.375 3747.75,68.5313 Q3748.4063,68.6875 3748.9688,68.9844 L3748.9688,71.7031 Q3748.3438,71.125 3747.75,70.8594 Q3747.1563,70.5781 3746.5313,70.5781 Q3745.1875,70.5781 3744.5,71.6563 Q3743.8125,72.7188 3743.8125,74.8125 Q3743.8125,76.9063 3744.5,77.9844 Q3745.1875,79.0469 3746.5313,79.0469 Q3747.1563,79.0469 3747.75,78.7813 Q3748.3438,78.5 3748.9688,77.9219 L3748.9688,80.6406 Z "/><text fill="#000000" font-family="sans-serif" font-size="12" lengthAdjust="spacingAndGlyphs" textLength="108" x="3760" y="79.1543">report_endpoints</text><line style="stroke: #A80036; stroke-width: 1.5;" x1="3732" x2="3870" y1="91" y2="91"/><line style="stroke: #A80036; stroke-width: 1.5;" x1="3732" x2="3870" y1="99" y2="99"/><!--MD5=[b1183aee2057d2127fea21d2755f639d]
class utils.email_helper.email_helper_items--><rect fill="#FEFECE" filter="url(#fab7yzt6xcybc)" height="48" id="utils.email_helper.email_helper_items" style="stroke: #A80036; stroke-width: 1.5;" width="151" x="3519.5" y="340"/><ellipse cx="3534.5" cy="356" fill="#ADD1B2" rx="11" ry="11" style="stroke: #A80036; stroke-width: 1.0;"/><path d="M3537.4688,361.6406 Q3536.8906,361.9375 3536.25,362.0781 Q3535.6094,362.2344 3534.9063,362.2344 Q3532.4063,362.2344 3531.0781,360.5938 Q3529.7656,358.9375 3529.7656,355.8125 Q3529.7656,352.6875 3531.0781,351.0313 Q3532.4063,349.375 3534.9063,349.375 Q3535.6094,349.375 3536.25,349.5313 Q3536.9063,349.6875 3537.4688,349.9844 L3537.4688,352.7031 Q3536.8438,352.125 3536.25,351.8594 Q3535.6563,351.5781 3535.0313,351.5781 Q3533.6875,351.5781 3533,352.6563 Q3532.3125,353.7188 3532.3125,355.8125 Q3532.3125,357.9063 3533,358.9844 Q3533.6875,360.0469 3535.0313,360.0469 Q3535.6563,360.0469 3536.25,359.7813 Q3536.8438,359.5 3537.4688,358.9219 L3537.4688,361.6406 Z "/><text fill="#000000" font-family="sans-serif" font-size="12" lengthAdjust="spacingAndGlyphs" textLength="119" x="3548.5" y="360.1543">email_helper_items</text><line style="stroke: #A80036; stroke-width: 1.5;" x1="3520.5" x2="3669.5" y1="372" y2="372"/><line style="stroke: #A80036; stroke-width: 1.5;" x1="3520.5" x2="3669.5" y1="380" y2="380"/><!--MD5=[a48f9308c3b02413a090ced7a7039f74]
class api.reviewers.reviewers_endpoints--><rect fill="#FEFECE" filter="url(#fab7yzt6xcybc)" height="48" id="api.reviewers.reviewers_endpoints" style="stroke: #A80036; stroke-width: 1.5;" width="160" x="38" y="59"/><ellipse cx="53" cy="75" fill="#ADD1B2" rx="11" ry="11" style="stroke: #A80036; stroke-width: 1.0;"/><path d="M55.9688,80.6406 Q55.3906,80.9375 54.75,81.0781 Q54.1094,81.2344 53.4063,81.2344 Q50.9063,81.2344 49.5781,79.5938 Q48.2656,77.9375 48.2656,74.8125 Q48.2656,71.6875 49.5781,70.0313 Q50.9063,68.375 53.4063,68.375 Q54.1094,68.375 54.75,68.5313 Q55.4063,68.6875 55.9688,68.9844 L55.9688,71.7031 Q55.3438,71.125 54.75,70.8594 Q54.1563,70.5781 53.5313,70.5781 Q52.1875,70.5781 51.5,71.6563 Q50.8125,72.7188 50.8125,74.8125 Q50.8125,76.9063 51.5,77.9844 Q52.1875,79.0469 53.5313,79.0469 Q54.1563,79.0469 54.75,78.7813 Q55.3438,78.5 55.9688,77.9219 L55.9688,80.6406 Z "/><text fill="#000000" font-family="sans-serif" font-size="12" lengthAdjust="spacingAndGlyphs" textLength="128" x="67" y="79.1543">reviewers_endpoints</text><line style="stroke: #A80036; stroke-width: 1.5;" x1="39" x2="197" y1="91" y2="91"/><line style="stroke: #A80036; stroke-width: 1.5;" x1="39" x2="197" y1="99" y2="99"/><!--MD5=[1d94c72caee943e45cd4fa0a48bfb6a0]
link api.prsls.prsls_endpoints to utils.validation.validate_proposal--><path d="M3423.36,97.84 C3380.58,109.58 3325.72,130.07 3287,164 C3232.71,211.57 3199.42,292.43 3184.78,334.95 " fill="none" id="api.prsls.prsls_endpoints-&gt;utils.validation.validate_proposal" style="stroke: #A80036; stroke-width: 1.0;"/><polygon fill="#A80036" points="3183.17,339.69,3189.8436,332.4469,3184.7726,334.9538,3182.2657,329.8827,3183.17,339.69" style="stroke: #A80036; stroke-width: 1.0;"/><!--MD5=[427ac9cacfe5959c2afb98bc5dbb8fb9]
link api.prsls.prsls_endpoints to utils.pht_handler.pht_handler_items--><path d="M3554.61,98.67 C3596.28,110.65 3649.28,131.1 3687,164 C3741.75,211.76 3776.37,292.53 3791.74,335 " fill="none" id="api.prsls.prsls_endpoints-&gt;utils.pht_handler.pht_handler_items" style="stroke: #A80036; stroke-width: 1.0;"/><polygon fill="#A80036" points="3793.43,339.73,3794.1662,329.9087,3791.7465,335.0219,3786.6333,332.6023,3793.43,339.73" style="stroke: #A80036; stroke-width: 1.0;"/><!--MD5=[532ab04a386b05d804ab5769cf5a04f4]
link api.prsls.prsls_endpoints to utils.s3_bucket.s3_bucket_functions--><path d="M3470.12,107.03 C3463.06,116.5 3455.44,127.85 3450,139 C3417.52,205.61 3397.29,291.15 3388.36,334.73 " fill="none" id="api.prsls.prsls_endpoints-&gt;utils.s3_bucket.s3_bucket_functions" style="stroke: #A80036; stroke-width: 1.0;"/><polygon fill="#A80036" points="3387.32,339.83,3393.0164,331.7956,3388.3061,334.9282,3385.1735,330.2179,3387.32,339.83" style="stroke: #A80036; stroke-width: 1.0;"/><text fill="#000000" font-family="sans-serif" font-size="13" lengthAdjust="spacingAndGlyphs" textLength="47" x="3451" y="152.0669">PDF file</text><!--MD5=[d6a9345d7e0cb51b6c517d343bce4647]
link api.panels.panels_endpoints to utils.validation.validate_duplicates--><path d="M2994,107.31 C2994,158.31 2994,279.65 2994,334.83 " fill="none" id="api.panels.panels_endpoints-&gt;utils.validation.validate_duplicates" style="stroke: #A80036; stroke-width: 1.0;"/><polygon fill="#A80036" points="2994,339.96,2998,330.96,2994,334.96,2990,330.96,2994,339.96" style="stroke: #A80036; stroke-width: 1.0;"/><text fill="#000000" font-family="sans-serif" font-size="13" lengthAdjust="spacingAndGlyphs" textLength="67" x="2995" y="152.0669">List[Panel]</text><!--MD5=[70a81701b308b062a50975a8bee5ba2b]
link api.report.report_endpoints to utils.pht_handler.pht_handler_items--><path d="M3801,107.31 C3801,158.31 3801,279.65 3801,334.83 " fill="none" id="api.report.report_endpoints-&gt;utils.pht_handler.pht_handler_items" style="stroke: #A80036; stroke-width: 1.0;"/><polygon fill="#A80036" points="3801,339.96,3805,330.96,3801,334.96,3797,330.96,3801,339.96" style="stroke: #A80036; stroke-width: 1.0;"/><text fill="#000000" font-family="sans-serif" font-size="13" lengthAdjust="spacingAndGlyphs" textLength="97" x="3802" y="152.0669">ProposalReport</text><!--MD5=[95647352a04d0041a9f97a6d04eef069]
link api.prsls.prsls_endpoints to utils.email_helper.email_helper_items--><path d="M3497.86,107.31 C3517.27,158.41 3563.52,280.14 3584.42,335.16 " fill="none" id="api.prsls.prsls_endpoints-&gt;utils.email_helper.email_helper_items" style="stroke: #A80036; stroke-width: 1.0;"/><polygon fill="#A80036" points="3586.24,339.96,3586.789,330.1265,3584.4672,335.2848,3579.3088,332.963,3586.24,339.96" style="stroke: #A80036; stroke-width: 1.0;"/><!--MD5=[8192d8c83f269f7b6a2760e035d6b73d]
link api.reviewers.reviewers_endpoints to utils.constants--><path d="M118,107.31 C118,158.31 118,279.65 118,334.83 " fill="none" id="api.reviewers.reviewers_endpoints-&gt;utils.constants" style="stroke: #A80036; stroke-width: 1.0;"/><polygon fill="#A80036" points="118,339.96,122,330.96,118,334.96,114,330.96,118,339.96" style="stroke: #A80036; stroke-width: 1.0;"/><text fill="#000000" font-family="sans-serif" font-size="13" lengthAdjust="spacingAndGlyphs" textLength="72" x="119" y="152.0669">REVIEWERS</text><!--MD5=[393fc0fa1b8de3d3ad45c18b86745843]
@startuml
top to bottom direction

package "pht" as pht_pkg {

    package "api" <<Rectangle>> {

        package "panel_decision" <<Rectangle>> {
            object panel_decision_endpoints{
                + POST /panel-decisions
                + GET /panel-decisions/{decision_id}
                + GET /panel-decisions/list/{user_id}
                + PUT /panel-decisions/{decision_id}
            }
        }
        
        package "panels" <<Rectangle>> {
            object panels_endpoints {
                + POST /panels
                + GET /panels//{panel_id}
                + GET /panels/reviews/{panel_id}
                + GET /panels/list/{user_id}
            }
        }

        package "prsls" <<Rectangle>> {
            object prsls_endpoints{
                + GET /prsls/osd/{cycle}
                + POST /prsls/create
                + GET /prsls/{proposal_id}
                + GET /prsls/list/{user_id}
                + PUT /prsls/{proposal_id}
                + POST /prsls/validate
                + POST /prsls/send-email
                + POST /prsls/signed-url/upload/{filename}
                + POST /prsls/signed-url/download/{filename}
                + POST /prsls/signed-url/delete/{filename}
            }
        }

        package "report" <<Rectangle>> {
            object report_endpoints{
                + GET /report/{user_id}
            }
        }

        package "reviewers" <<Rectangle>> {
            object reviewers_endpoints{
                + GET /reviewers
            }
        }
        
        package "reviews" <<Rectangle>> {
            object reviews_endpoints{
                + POST /reviews
                + GET /reviews/{review_id}
                + GET /reviews/list/{user_id}
                + PUT /reviews/{review_id}
            }
        }
    }

    package "utils" <<Rectangle>> {
        package "email_helper" <<Rectangle>> {
            object email_helper_items {
                + render_email()
                + send_email_async()
            }
        }
        package "pht_handler" <<Rectangle>> {
            object pht_handler_items {
                + transform_update_proposal()
                + get_latest_entity_by_id()
                + _get_array_class()
                + join_proposals_panels_reviews_decisions()
            }
        }
        package "s3_bucket" <<Rectangle>> {
            object s3_bucket_functions {
                + S3Method (Enum)
                + S3Config
                + get_aws_client()
                + generate_presigned_url()
                + create_presigned_url_upload_pdf()
                + create_presigned_url_download_pdf()
                + create_presigned_url_delete_pdf()
            }
        }
        package "validation" <<Rectangle>> {
            class validate_duplicates <<function>>
            class validate_proposal <<function>>
        }
        class constants
    }

    api.prsls.prsls_endpoints - -> utils.validation.validate_proposal
    api.prsls.prsls_endpoints - -> utils.pht_handler.pht_handler_items
    api.prsls.prsls_endpoints - -> utils.s3_bucket.s3_bucket_functions : PDF file
    api.panels.panels_endpoints - -> utils.validation.validate_duplicates : List[Panel]
    api.report.report_endpoints - -> utils.pht_handler.pht_handler_items: ProposalReport
    api.prsls.prsls_endpoints - -> utils.email_helper.email_helper_items
    api.reviewers.reviewers_endpoints - -> utils.constants : REVIEWERS

}
@enduml

PlantUML version 1.2020.02(Sun Mar 01 10:22:07 GMT 2020)
(GPL source distribution)
Java Runtime: OpenJDK Runtime Environment
JVM: OpenJDK 64-Bit Server VM
Java Version: 11.0.28+6-post-Ubuntu-1ubuntu122.04.1
Operating System: Linux
Default Encoding: UTF-8
Language: en
Country: null
--></g></svg>