<svg xmlns="http://www.w3.org/2000/svg" xmlns:xlink="http://www.w3.org/1999/xlink" contentStyleType="text/css" data-diagram-type="CLASS" height="298px" preserveAspectRatio="none" style="width:849px;height:298px;background:#FFFFFF;" version="1.1" viewBox="0 0 849 298" width="849px" zoomAndPan="magnify"><title>Detailed View: common.osdmapper</title><defs/><g><g class="title" data-source-line="1"><text fill="#000000" font-family="sans-serif" font-size="14" font-weight="bold" lengthAdjust="spacing" textLength="280.2256" x="277.3872" y="22.9951">Detailed View: common.osdmapper</text></g><!--cluster osdmapper--><g class="cluster" data-entity="osdmapper" data-source-line="5" data-uid="ent0002" id="cluster_osdmapper"><rect fill="none" height="248.56" rx="2.5" ry="2.5" style="stroke:#181818;stroke-width:1;" width="836" x="7" y="44.2969"/><text fill="#000000" font-family="sans-serif" font-size="14" font-weight="bold" lengthAdjust="spacing" textLength="88.4502" x="380.7749" y="59.292">osdmapper</text></g><!--class configuration_from_osd--><g class="entity" data-entity="configuration_from_osd" data-source-line="6" data-uid="ent0003" id="entity_configuration_from_osd"><rect fill="#F1F1F1" height="72.5625" rx="2.5" ry="2.5" style="stroke:#181818;stroke-width:0.5;" width="196.5" x="325.75" y="79.2969"/><ellipse cx="340.75" cy="99.4297" fill="#ADD1B2" rx="11" ry="11" style="stroke:#181818;stroke-width:1;"/><path d="M343.7188,105.0703 Q343.1406,105.3672 342.5,105.5078 Q341.8594,105.6641 341.1563,105.6641 Q338.6563,105.6641 337.3281,104.0234 Q336.0156,102.3672 336.0156,99.2422 Q336.0156,96.1172 337.3281,94.4609 Q338.6563,92.8047 341.1563,92.8047 Q341.8594,92.8047 342.5,92.9609 Q343.1563,93.1172 343.7188,93.4141 L343.7188,96.1328 Q343.0938,95.5547 342.5,95.2891 Q341.9063,95.0078 341.2813,95.0078 Q339.9375,95.0078 339.25,96.0859 Q338.5625,97.1484 338.5625,99.2422 Q338.5625,101.3359 339.25,102.4141 Q339.9375,103.4766 341.2813,103.4766 Q341.9063,103.4766 342.5,103.2109 Q343.0938,102.9297 343.7188,102.3516 L343.7188,105.0703 Z " fill="#000000"/><text fill="#000000" font-family="sans-serif" font-size="12" font-style="italic" lengthAdjust="spacing" textLength="63.7031" x="405.1484" y="95.4355">&#171;function&#187;</text><text fill="#000000" font-family="sans-serif" font-size="14" lengthAdjust="spacing" textLength="164.5" x="354.75" y="111.2607">configuration_from_osd</text><line style="stroke:#181818;stroke-width:0.5;" x1="326.75" x2="521.25" y1="119.5625" y2="119.5625"/><text fill="#000000" font-family="sans-serif" font-size="14" lengthAdjust="spacing" textLength="154.7656" x="331.75" y="136.5576">returns: Configuration</text><line style="stroke:#181818;stroke-width:0.5;" x1="326.75" x2="521.25" y1="143.8594" y2="143.8594"/></g><!--class _get_mid_telescope_configuration--><g class="entity" data-entity="_get_mid_telescope_configuration" data-source-line="9" data-uid="ent0004" id="entity__get_mid_telescope_configuration"><rect fill="#F1F1F1" height="72.5625" rx="2.5" ry="2.5" style="stroke:#181818;stroke-width:0.5;" width="269.9316" x="557.03" y="79.2969"/><ellipse cx="572.03" cy="99.4297" fill="#ADD1B2" rx="11" ry="11" style="stroke:#181818;stroke-width:1;"/><path d="M574.9988,105.0703 Q574.4206,105.3672 573.78,105.5078 Q573.1394,105.6641 572.4363,105.6641 Q569.9363,105.6641 568.6081,104.0234 Q567.2956,102.3672 567.2956,99.2422 Q567.2956,96.1172 568.6081,94.4609 Q569.9363,92.8047 572.4363,92.8047 Q573.1394,92.8047 573.78,92.9609 Q574.4363,93.1172 574.9988,93.4141 L574.9988,96.1328 Q574.3738,95.5547 573.78,95.2891 Q573.1863,95.0078 572.5613,95.0078 Q571.2175,95.0078 570.53,96.0859 Q569.8425,97.1484 569.8425,99.2422 Q569.8425,101.3359 570.53,102.4141 Q571.2175,103.4766 572.5613,103.4766 Q573.1863,103.4766 573.78,103.2109 Q574.3738,102.9297 574.9988,102.3516 L574.9988,105.0703 Z " fill="#000000"/><text fill="#000000" font-family="sans-serif" font-size="12" font-style="italic" lengthAdjust="spacing" textLength="63.7031" x="673.1443" y="95.4355">&#171;function&#187;</text><text fill="#000000" font-family="sans-serif" font-size="14" lengthAdjust="spacing" textLength="237.9316" x="586.03" y="111.2607">_get_mid_telescope_configuration</text><line style="stroke:#181818;stroke-width:0.5;" x1="558.03" x2="825.9616" y1="119.5625" y2="119.5625"/><text fill="#000000" font-family="sans-serif" font-size="14" lengthAdjust="spacing" textLength="179.6211" x="563.03" y="136.5576">returns: MidConfiguration</text><line style="stroke:#181818;stroke-width:0.5;" x1="558.03" x2="825.9616" y1="143.8594" y2="143.8594"/></g><!--class _get_low_telescope_configuration--><g class="entity" data-entity="_get_low_telescope_configuration" data-source-line="12" data-uid="ent0005" id="entity__get_low_telescope_configuration"><rect fill="#F1F1F1" height="72.5625" rx="2.5" ry="2.5" style="stroke:#181818;stroke-width:0.5;" width="267.4229" x="23.29" y="79.2969"/><ellipse cx="38.29" cy="99.4297" fill="#ADD1B2" rx="11" ry="11" style="stroke:#181818;stroke-width:1;"/><path d="M41.2588,105.0703 Q40.6806,105.3672 40.04,105.5078 Q39.3994,105.6641 38.6963,105.6641 Q36.1963,105.6641 34.8681,104.0234 Q33.5556,102.3672 33.5556,99.2422 Q33.5556,96.1172 34.8681,94.4609 Q36.1963,92.8047 38.6963,92.8047 Q39.3994,92.8047 40.04,92.9609 Q40.6963,93.1172 41.2588,93.4141 L41.2588,96.1328 Q40.6338,95.5547 40.04,95.2891 Q39.4463,95.0078 38.8213,95.0078 Q37.4775,95.0078 36.79,96.0859 Q36.1025,97.1484 36.1025,99.2422 Q36.1025,101.3359 36.79,102.4141 Q37.4775,103.4766 38.8213,103.4766 Q39.4463,103.4766 40.04,103.2109 Q40.6338,102.9297 41.2588,102.3516 L41.2588,105.0703 Z " fill="#000000"/><text fill="#000000" font-family="sans-serif" font-size="12" font-style="italic" lengthAdjust="spacing" textLength="63.7031" x="138.1499" y="95.4355">&#171;function&#187;</text><text fill="#000000" font-family="sans-serif" font-size="14" lengthAdjust="spacing" textLength="235.4229" x="52.29" y="111.2607">_get_low_telescope_configuration</text><line style="stroke:#181818;stroke-width:0.5;" x1="24.29" x2="289.7129" y1="119.5625" y2="119.5625"/><text fill="#000000" font-family="sans-serif" font-size="14" lengthAdjust="spacing" textLength="182.5811" x="29.29" y="136.5576">returns: LowConfiguration</text><line style="stroke:#181818;stroke-width:0.5;" x1="24.29" x2="289.7129" y1="143.8594" y2="143.8594"/></g><!--class Configuration--><g class="entity" data-entity="Configuration" data-source-line="16" data-uid="ent0006" id="entity_Configuration"><rect fill="#F1F1F1" height="48" rx="2.5" ry="2.5" style="stroke:#181818;stroke-width:0.5;" width="126.9443" x="360.53" y="228.8569"/><ellipse cx="375.53" cy="244.8569" fill="#ADD1B2" rx="11" ry="11" style="stroke:#181818;stroke-width:1;"/><path d="M378.4988,250.4975 Q377.9206,250.7944 377.28,250.935 Q376.6394,251.0913 375.9363,251.0913 Q373.4363,251.0913 372.1081,249.4506 Q370.7956,247.7944 370.7956,244.6694 Q370.7956,241.5444 372.1081,239.8881 Q373.4363,238.2319 375.9363,238.2319 Q376.6394,238.2319 377.28,238.3881 Q377.9363,238.5444 378.4988,238.8413 L378.4988,241.56 Q377.8738,240.9819 377.28,240.7163 Q376.6863,240.435 376.0613,240.435 Q374.7175,240.435 374.03,241.5131 Q373.3425,242.5756 373.3425,244.6694 Q373.3425,246.7631 374.03,247.8413 Q374.7175,248.9038 376.0613,248.9038 Q376.6863,248.9038 377.28,248.6381 Q377.8738,248.3569 378.4988,247.7788 L378.4988,250.4975 Z " fill="#000000"/><text fill="#000000" font-family="sans-serif" font-size="14" lengthAdjust="spacing" textLength="94.9443" x="389.53" y="249.7036">Configuration</text><line style="stroke:#181818;stroke-width:0.5;" x1="361.53" x2="486.4743" y1="260.8569" y2="260.8569"/><line style="stroke:#181818;stroke-width:0.5;" x1="361.53" x2="486.4743" y1="268.8569" y2="268.8569"/></g><!--class MidConfiguration--><g class="entity" data-entity="MidConfiguration" data-source-line="17" data-uid="ent0008" id="entity_MidConfiguration"><rect fill="#F1F1F1" height="48" rx="2.5" ry="2.5" style="stroke:#181818;stroke-width:0.5;" width="151.7998" x="569.1" y="228.8569"/><ellipse cx="584.1" cy="244.8569" fill="#ADD1B2" rx="11" ry="11" style="stroke:#181818;stroke-width:1;"/><path d="M587.0688,250.4975 Q586.4906,250.7944 585.85,250.935 Q585.2094,251.0913 584.5063,251.0913 Q582.0063,251.0913 580.6781,249.4506 Q579.3656,247.7944 579.3656,244.6694 Q579.3656,241.5444 580.6781,239.8881 Q582.0063,238.2319 584.5063,238.2319 Q585.2094,238.2319 585.85,238.3881 Q586.5063,238.5444 587.0688,238.8413 L587.0688,241.56 Q586.4438,240.9819 585.85,240.7163 Q585.2563,240.435 584.6313,240.435 Q583.2875,240.435 582.6,241.5131 Q581.9125,242.5756 581.9125,244.6694 Q581.9125,246.7631 582.6,247.8413 Q583.2875,248.9038 584.6313,248.9038 Q585.2563,248.9038 585.85,248.6381 Q586.4438,248.3569 587.0688,247.7788 L587.0688,250.4975 Z " fill="#000000"/><text fill="#000000" font-family="sans-serif" font-size="14" lengthAdjust="spacing" textLength="119.7998" x="598.1" y="249.7036">MidConfiguration</text><line style="stroke:#181818;stroke-width:0.5;" x1="570.1" x2="719.8998" y1="260.8569" y2="260.8569"/><line style="stroke:#181818;stroke-width:0.5;" x1="570.1" x2="719.8998" y1="268.8569" y2="268.8569"/></g><!--class LowConfiguration--><g class="entity" data-entity="LowConfiguration" data-source-line="18" data-uid="ent0010" id="entity_LowConfiguration"><rect fill="#F1F1F1" height="48" rx="2.5" ry="2.5" style="stroke:#181818;stroke-width:0.5;" width="154.7598" x="125.62" y="228.8569"/><ellipse cx="140.62" cy="244.8569" fill="#ADD1B2" rx="11" ry="11" style="stroke:#181818;stroke-width:1;"/><path d="M143.5888,250.4975 Q143.0106,250.7944 142.37,250.935 Q141.7294,251.0913 141.0263,251.0913 Q138.5263,251.0913 137.1981,249.4506 Q135.8856,247.7944 135.8856,244.6694 Q135.8856,241.5444 137.1981,239.8881 Q138.5263,238.2319 141.0263,238.2319 Q141.7294,238.2319 142.37,238.3881 Q143.0263,238.5444 143.5888,238.8413 L143.5888,241.56 Q142.9638,240.9819 142.37,240.7163 Q141.7763,240.435 141.1513,240.435 Q139.8075,240.435 139.12,241.5131 Q138.4325,242.5756 138.4325,244.6694 Q138.4325,246.7631 139.12,247.8413 Q139.8075,248.9038 141.1513,248.9038 Q141.7763,248.9038 142.37,248.6381 Q142.9638,248.3569 143.5888,247.7788 L143.5888,250.4975 Z " fill="#000000"/><text fill="#000000" font-family="sans-serif" font-size="14" lengthAdjust="spacing" textLength="122.7598" x="154.62" y="249.7036">LowConfiguration</text><line style="stroke:#181818;stroke-width:0.5;" x1="126.62" x2="279.3798" y1="260.8569" y2="260.8569"/><line style="stroke:#181818;stroke-width:0.5;" x1="126.62" x2="279.3798" y1="268.8569" y2="268.8569"/></g><!--link configuration_from_osd to Configuration--><g class="link" data-entity-1="configuration_from_osd" data-entity-2="Configuration" data-source-line="16" data-uid="lnk7" id="link_configuration_from_osd_Configuration"><path codeLine="16" d="M424,152.1169 C424,176.2269 424,201.4269 424,222.4569" fill="none" id="configuration_from_osd-to-Configuration" style="stroke:#181818;stroke-width:1;stroke-dasharray:7,7;"/><polygon fill="#181818" points="424,228.4569,428,219.4569,424,223.4569,420,219.4569,424,228.4569" style="stroke:#181818;stroke-width:1;"/><text fill="#000000" font-family="sans-serif" font-size="13" lengthAdjust="spacing" textLength="47.0361" x="425" y="194.9238">returns</text></g><!--link configuration_from_osd to MidConfiguration--><g class="link" data-entity-1="configuration_from_osd" data-entity-2="MidConfiguration" data-source-line="17" data-uid="lnk9" id="link_configuration_from_osd_MidConfiguration"><path codeLine="17" d="M482.35,152.2969 C521.74,176.4069 567.4828,204.4041 601.7528,225.3841" fill="none" id="configuration_from_osd-to-MidConfiguration" style="stroke:#181818;stroke-width:1;stroke-dasharray:7,7;"/><polygon fill="#181818" points="606.87,228.5169,601.2827,220.4063,602.6057,225.9063,597.1057,227.2292,606.87,228.5169" style="stroke:#181818;stroke-width:1;"/><text fill="#000000" font-family="sans-serif" font-size="13" lengthAdjust="spacing" textLength="29.1104" x="555" y="194.9238">calls</text></g><!--link configuration_from_osd to LowConfiguration--><g class="link" data-entity-1="configuration_from_osd" data-entity-2="LowConfiguration" data-source-line="18" data-uid="lnk11" id="link_configuration_from_osd_LowConfiguration"><path codeLine="18" d="M365.65,152.2969 C326.26,176.4069 280.5172,204.4041 246.2472,225.3841" fill="none" id="configuration_from_osd-to-LowConfiguration" style="stroke:#181818;stroke-width:1;stroke-dasharray:7,7;"/><polygon fill="#181818" points="241.13,228.5169,250.8943,227.2292,245.3943,225.9063,246.7173,220.4063,241.13,228.5169" style="stroke:#181818;stroke-width:1;"/><text fill="#000000" font-family="sans-serif" font-size="13" lengthAdjust="spacing" textLength="29.1104" x="314" y="194.9238">calls</text></g><!--link _get_mid_telescope_configuration to MidConfiguration--><g class="link" data-entity-1="_get_mid_telescope_configuration" data-entity-2="MidConfiguration" data-source-line="20" data-uid="lnk12" id="link__get_mid_telescope_configuration_MidConfiguration"><path codeLine="20" d="M679.65,152.1169 C671.27,176.2269 662.41,201.7595 655.1,222.7895" fill="none" id="_get_mid_telescope_configuration-to-MidConfiguration" style="stroke:#181818;stroke-width:1;stroke-dasharray:7,7;"/><polygon fill="#181818" points="653.13,228.4569,659.8632,221.2691,654.7716,223.7341,652.3067,218.6425,653.13,228.4569" style="stroke:#181818;stroke-width:1;"/><text fill="#000000" font-family="sans-serif" font-size="13" lengthAdjust="spacing" textLength="47.0361" x="669" y="194.9238">returns</text></g><!--link _get_low_telescope_configuration to LowConfiguration--><g class="link" data-entity-1="_get_low_telescope_configuration" data-entity-2="LowConfiguration" data-source-line="21" data-uid="lnk13" id="link__get_low_telescope_configuration_LowConfiguration"><path codeLine="21" d="M169.09,152.1169 C177.28,176.2269 185.9586,201.7462 193.1086,222.7762" fill="none" id="_get_low_telescope_configuration-to-LowConfiguration" style="stroke:#181818;stroke-width:1;stroke-dasharray:7,7;"/><polygon fill="#181818" points="195.04,228.4569,195.93,218.6483,193.4305,223.723,188.3558,221.2235,195.04,228.4569" style="stroke:#181818;stroke-width:1;"/><text fill="#000000" font-family="sans-serif" font-size="13" lengthAdjust="spacing" textLength="47.0361" x="185" y="194.9238">returns</text></g><!--SRC=[dP0nRiCm34LtdOB80Nm08_3IZEdIeQkWIBGXL185YOQ78dUFui267IHGKQxa-__pisM7S49Mrg61RujJ2vgyfz1GDbx5Y4a8fWXCS25cyc1iGisMWX1HwHyr81pMumCSZrzbhSBWiElWLq0PxLJEHJZqTXYJkiEoJ-HbuGhGZs4MNE_lav37578B7rjiNbyted90bjuQoUWmQueeTpvL-Kzh_k3WQFgtmvccLmuFYzUTD4st_nlQHQ-6FVzJIAsSgtBFALTk1girlx7UXguM-IR6ed6z0G00]--></g></svg>