<?xml version="1.0" encoding="UTF-8" standalone="no"?><svg xmlns="http://www.w3.org/2000/svg" xmlns:xlink="http://www.w3.org/1999/xlink" contentStyleType="text/css" height="832px" preserveAspectRatio="none" style="width:4781px;height:832px;background:#FFFFFF;" version="1.1" viewBox="0 0 4781 832" width="4781px" zoomAndPan="magnify"><defs/><g><!--cluster pht_pkg--><g id="cluster_pht_pkg"><path d="M8.5,154 L35.5,154 A3.75,3.75 0 0 1 38,156.5 L45,176.2969 L3238.5,176.2969 A2.5,2.5 0 0 1 3241,178.7969 L3241,823 A2.5,2.5 0 0 1 3238.5,825.5 L8.5,825.5 A2.5,2.5 0 0 1 6,823 L6,156.5 A2.5,2.5 0 0 1 8.5,154 " fill="none" style="stroke:#000000;stroke-width:1.5;"/><line style="stroke:#000000;stroke-width:1.5;" x1="6" x2="45" y1="176.2969" y2="176.2969"/><text fill="#000000" font-family="sans-serif" font-size="14" font-weight="bold" lengthAdjust="spacing" textLength="26" x="10" y="168.9951">pht</text></g><!--cluster api--><g id="cluster_api"><rect fill="none" height="580" rx="2.5" ry="2.5" style="stroke:#181818;stroke-width:1.0;" width="1319" x="30" y="221.5"/><text fill="#000000" font-family="sans-serif" font-size="14" font-weight="bold" lengthAdjust="spacing" textLength="23" x="678" y="236.4951">api</text></g><!--cluster prsls--><g id="cluster_prsls"><rect fill="none" height="295.5" rx="2.5" ry="2.5" style="stroke:#181818;stroke-width:1.0;" width="478" x="819" y="482"/><text fill="#000000" font-family="sans-serif" font-size="14" font-weight="bold" lengthAdjust="spacing" textLength="39" x="1038.5" y="496.9951">prsls</text></g><!--cluster panel_decision--><g id="cluster_panel_decision"><rect fill="none" height="144" rx="2.5" ry="2.5" style="stroke:#181818;stroke-width:1.0;" width="284" x="54" y="264.5"/><text fill="#000000" font-family="sans-serif" font-size="14" font-weight="bold" lengthAdjust="spacing" textLength="116" x="138" y="279.4951">panel_decision</text></g><!--cluster panels--><g id="cluster_panels"><rect fill="none" height="128" rx="2.5" ry="2.5" style="stroke:#181818;stroke-width:1.0;" width="274" x="524" y="272.5"/><text fill="#000000" font-family="sans-serif" font-size="14" font-weight="bold" lengthAdjust="spacing" textLength="52" x="635" y="287.4951">panels</text></g><!--cluster reviews--><g id="cluster_reviews"><rect fill="none" height="107" rx="2.5" ry="2.5" style="stroke:#181818;stroke-width:1.0;" width="138" x="362" y="283"/><text fill="#000000" font-family="sans-serif" font-size="14" font-weight="bold" lengthAdjust="spacing" textLength="63" x="399.5" y="297.9951">reviews</text></g><!--cluster reviewers--><g id="cluster_reviewers"><rect fill="none" height="107" rx="2.5" ry="2.5" style="stroke:#181818;stroke-width:1.0;" width="130" x="1195" y="283"/><text fill="#000000" font-family="sans-serif" font-size="14" font-weight="bold" lengthAdjust="spacing" textLength="80" x="1220" y="297.9951">reviewers</text></g><!--cluster reports--><g id="cluster_reports"><rect fill="none" height="124" rx="2.5" ry="2.5" style="stroke:#181818;stroke-width:1.0;" width="349" x="822" y="274.5"/><text fill="#000000" font-family="sans-serif" font-size="14" font-weight="bold" lengthAdjust="spacing" textLength="59" x="967" y="289.4951">reports</text></g><!--cluster utils--><g id="cluster_utils"><rect fill="none" height="424.5" rx="2.5" ry="2.5" style="stroke:#181818;stroke-width:1.0;" width="1844" x="1373" y="197"/><text fill="#000000" font-family="sans-serif" font-size="14" font-weight="bold" lengthAdjust="spacing" textLength="33" x="2278.5" y="211.9951">utils</text></g><!--cluster email_helper--><g id="cluster_email_helper"><rect fill="none" height="112" rx="2.5" ry="2.5" style="stroke:#181818;stroke-width:1.0;" width="204" x="2989" y="280.5"/><text fill="#000000" font-family="sans-serif" font-size="14" font-weight="bold" lengthAdjust="spacing" textLength="99" x="3041.5" y="295.4951">email_helper</text></g><!--cluster pht_handler--><g id="cluster_pht_handler"><rect fill="none" height="317" rx="2.5" ry="2.5" style="stroke:#181818;stroke-width:1.0;" width="575" x="2390" y="280.5"/><text fill="#000000" font-family="sans-serif" font-size="14" font-weight="bold" lengthAdjust="spacing" textLength="93" x="2631" y="295.4951">pht_handler</text></g><!--cluster s3_bucket--><g id="cluster_s3_bucket"><rect fill="none" height="193" rx="2.5" ry="2.5" style="stroke:#181818;stroke-width:1.0;" width="316" x="2050" y="240"/><text fill="#000000" font-family="sans-serif" font-size="14" font-weight="bold" lengthAdjust="spacing" textLength="80" x="2168" y="254.9951">s3_bucket</text></g><!--cluster validation--><g id="cluster_validation"><rect fill="none" height="107" rx="2.5" ry="2.5" style="stroke:#181818;stroke-width:1.0;" width="381" x="1645" y="283"/><text fill="#000000" font-family="sans-serif" font-size="14" font-weight="bold" lengthAdjust="spacing" textLength="75" x="1798" y="297.9951">validation</text></g><!--cluster api.panel_reviews--><g id="cluster_api.panel_reviews"><path d="M3272.5,6 L3414.5,6 A3.75,3.75 0 0 1 3417,8.5 L3424,28.2969 L3451.5,28.2969 A2.5,2.5 0 0 1 3454,30.7969 L3454,102.5 A2.5,2.5 0 0 1 3451.5,105 L3272.5,105 A2.5,2.5 0 0 1 3270,102.5 L3270,8.5 A2.5,2.5 0 0 1 3272.5,6 " fill="none" style="stroke:#000000;stroke-width:1.5;"/><line style="stroke:#000000;stroke-width:1.5;" x1="3270" x2="3424" y1="28.2969" y2="28.2969"/><text fill="#000000" font-family="sans-serif" font-size="14" font-weight="bold" lengthAdjust="spacing" textLength="141" x="3274" y="20.9951">api.panel_reviews</text></g><!--cluster utils.email_helper--><g id="cluster_utils.email_helper"><path d="M3267.5,287 L3405.5,287 A3.75,3.75 0 0 1 3408,289.5 L3415,309.2969 L3484.5,309.2969 A2.5,2.5 0 0 1 3487,311.7969 L3487,383.5 A2.5,2.5 0 0 1 3484.5,386 L3267.5,386 A2.5,2.5 0 0 1 3265,383.5 L3265,289.5 A2.5,2.5 0 0 1 3267.5,287 " fill="none" style="stroke:#000000;stroke-width:1.5;"/><line style="stroke:#000000;stroke-width:1.5;" x1="3265" x2="3415" y1="309.2969" y2="309.2969"/><text fill="#000000" font-family="sans-serif" font-size="14" font-weight="bold" lengthAdjust="spacing" textLength="137" x="3269" y="301.9951">utils.email_helper</text></g><!--cluster api.prsls--><g id="cluster_api.prsls"><path d="M3480.5,6 L3548.5,6 A3.75,3.75 0 0 1 3551,8.5 L3558,28.2969 L3945.5,28.2969 A2.5,2.5 0 0 1 3948,30.7969 L3948,102.5 A2.5,2.5 0 0 1 3945.5,105 L3480.5,105 A2.5,2.5 0 0 1 3478,102.5 L3478,8.5 A2.5,2.5 0 0 1 3480.5,6 " fill="none" style="stroke:#000000;stroke-width:1.5;"/><line style="stroke:#000000;stroke-width:1.5;" x1="3478" x2="3558" y1="28.2969" y2="28.2969"/><text fill="#000000" font-family="sans-serif" font-size="14" font-weight="bold" lengthAdjust="spacing" textLength="67" x="3482" y="20.9951">api.prsls</text></g><!--cluster utils.validation--><g id="cluster_utils.validation"><path d="M4385.5,287 L4499.5,287 A3.75,3.75 0 0 1 4502,289.5 L4509,309.2969 L4761.5,309.2969 A2.5,2.5 0 0 1 4764,311.7969 L4764,383.5 A2.5,2.5 0 0 1 4761.5,386 L4385.5,386 A2.5,2.5 0 0 1 4383,383.5 L4383,289.5 A2.5,2.5 0 0 1 4385.5,287 " fill="none" style="stroke:#000000;stroke-width:1.5;"/><line style="stroke:#000000;stroke-width:1.5;" x1="4383" x2="4509" y1="309.2969" y2="309.2969"/><text fill="#000000" font-family="sans-serif" font-size="14" font-weight="bold" lengthAdjust="spacing" textLength="113" x="4387" y="301.9951">utils.validation</text></g><!--cluster utils.pht_handler--><g id="cluster_utils.pht_handler"><path d="M3758.5,287 L3890.5,287 A3.75,3.75 0 0 1 3893,289.5 L3900,309.2969 L4356.5,309.2969 A2.5,2.5 0 0 1 4359,311.7969 L4359,591 A2.5,2.5 0 0 1 4356.5,593.5 L3758.5,593.5 A2.5,2.5 0 0 1 3756,591 L3756,289.5 A2.5,2.5 0 0 1 3758.5,287 " fill="none" style="stroke:#000000;stroke-width:1.5;"/><line style="stroke:#000000;stroke-width:1.5;" x1="3756" x2="3900" y1="309.2969" y2="309.2969"/><text fill="#000000" font-family="sans-serif" font-size="14" font-weight="bold" lengthAdjust="spacing" textLength="131" x="3760" y="301.9951">utils.pht_handler</text></g><!--cluster utils.s3_bucket--><g id="cluster_utils.s3_bucket"><path d="M3526.5,287 L3645.5,287 A3.75,3.75 0 0 1 3648,289.5 L3655,309.2969 L3729.5,309.2969 A2.5,2.5 0 0 1 3732,311.7969 L3732,383.5 A2.5,2.5 0 0 1 3729.5,386 L3526.5,386 A2.5,2.5 0 0 1 3524,383.5 L3524,289.5 A2.5,2.5 0 0 1 3526.5,287 " fill="none" style="stroke:#000000;stroke-width:1.5;"/><line style="stroke:#000000;stroke-width:1.5;" x1="3524" x2="3655" y1="309.2969" y2="309.2969"/><text fill="#000000" font-family="sans-serif" font-size="14" font-weight="bold" lengthAdjust="spacing" textLength="118" x="3528" y="301.9951">utils.s3_bucket</text></g><!--cluster api.panels--><g id="cluster_api.panels"><path d="M4562.5,6 L4643.5,6 A3.75,3.75 0 0 1 4646,8.5 L4653,28.2969 L4771.5,28.2969 A2.5,2.5 0 0 1 4774,30.7969 L4774,102.5 A2.5,2.5 0 0 1 4771.5,105 L4562.5,105 A2.5,2.5 0 0 1 4560,102.5 L4560,8.5 A2.5,2.5 0 0 1 4562.5,6 " fill="none" style="stroke:#000000;stroke-width:1.5;"/><line style="stroke:#000000;stroke-width:1.5;" x1="4560" x2="4653" y1="28.2969" y2="28.2969"/><text fill="#000000" font-family="sans-serif" font-size="14" font-weight="bold" lengthAdjust="spacing" textLength="80" x="4564" y="20.9951">api.panels</text></g><!--cluster api.reports--><g id="cluster_api.reports"><path d="M4119.5,6 L4207.5,6 A3.75,3.75 0 0 1 4210,8.5 L4217,28.2969 L4250.5,28.2969 A2.5,2.5 0 0 1 4253,30.7969 L4253,102.5 A2.5,2.5 0 0 1 4250.5,105 L4119.5,105 A2.5,2.5 0 0 1 4117,102.5 L4117,8.5 A2.5,2.5 0 0 1 4119.5,6 " fill="none" style="stroke:#000000;stroke-width:1.5;"/><line style="stroke:#000000;stroke-width:1.5;" x1="4117" x2="4217" y1="28.2969" y2="28.2969"/><text fill="#000000" font-family="sans-serif" font-size="14" font-weight="bold" lengthAdjust="spacing" textLength="87" x="4121" y="20.9951">api.reports</text></g><!--cluster api.reviewers--><g id="cluster_api.reviewers"><path d="M1377.5,6 L1486.5,6 A3.75,3.75 0 0 1 1489,8.5 L1496,28.2969 L1502.5,28.2969 A2.5,2.5 0 0 1 1505,30.7969 L1505,102.5 A2.5,2.5 0 0 1 1502.5,105 L1377.5,105 A2.5,2.5 0 0 1 1375,102.5 L1375,8.5 A2.5,2.5 0 0 1 1377.5,6 " fill="none" style="stroke:#000000;stroke-width:1.5;"/><line style="stroke:#000000;stroke-width:1.5;" x1="1375" x2="1496" y1="28.2969" y2="28.2969"/><text fill="#000000" font-family="sans-serif" font-size="14" font-weight="bold" lengthAdjust="spacing" textLength="108" x="1379" y="20.9951">api.reviewers</text></g><!--class send_email--><g id="elem_send_email"><rect codeLine="8" fill="#F1F1F1" height="72.5625" id="send_email" rx="2.5" ry="2.5" style="stroke:#181818;stroke-width:0.5;" width="166" x="980" y="517"/><ellipse cx="1020.2" cy="537.1328" fill="#ADD1B2" rx="11" ry="11" style="stroke:#181818;stroke-width:1.0;"/><path d="M1023.1688,542.7734 Q1022.5906,543.0703 1021.95,543.2109 Q1021.3094,543.3672 1020.6063,543.3672 Q1018.1063,543.3672 1016.7781,541.7266 Q1015.4656,540.0703 1015.4656,536.9453 Q1015.4656,533.8203 1016.7781,532.1641 Q1018.1063,530.5078 1020.6063,530.5078 Q1021.3094,530.5078 1021.95,530.6641 Q1022.6063,530.8203 1023.1688,531.1172 L1023.1688,533.8359 Q1022.5438,533.2578 1021.95,532.9922 Q1021.3563,532.7109 1020.7313,532.7109 Q1019.3875,532.7109 1018.7,533.7891 Q1018.0125,534.8516 1018.0125,536.9453 Q1018.0125,539.0391 1018.7,540.1172 Q1019.3875,541.1797 1020.7313,541.1797 Q1021.3563,541.1797 1021.95,540.9141 Q1022.5438,540.6328 1023.1688,540.0547 L1023.1688,542.7734 Z " fill="#000000"/><text fill="#000000" font-family="sans-serif" font-size="12" font-style="italic" lengthAdjust="spacing" textLength="70" x="1043.8" y="533.1387">«endpoint»</text><text fill="#000000" font-family="sans-serif" font-size="14" lengthAdjust="spacing" textLength="78" x="1039.8" y="548.9639">send_email</text><line style="stroke:#181818;stroke-width:0.5;" x1="981" x2="1145" y1="557.2656" y2="557.2656"/><text fill="#000000" font-family="sans-serif" font-size="14" lengthAdjust="spacing" textLength="154" x="986" y="574.2607">returns: EmailRequest</text><line style="stroke:#181818;stroke-width:0.5;" x1="981" x2="1145" y1="581.5625" y2="581.5625"/></g><!--class proposals--><g id="elem_proposals"><rect codeLine="11" fill="#F1F1F1" height="56.2656" id="proposals" rx="2.5" ry="2.5" style="stroke:#181818;stroke-width:0.5;" width="100" x="1181" y="525.5"/><ellipse cx="1196" cy="545.6328" fill="#ADD1B2" rx="11" ry="11" style="stroke:#181818;stroke-width:1.0;"/><path d="M1198.9688,551.2734 Q1198.3906,551.5703 1197.75,551.7109 Q1197.1094,551.8672 1196.4063,551.8672 Q1193.9063,551.8672 1192.5781,550.2266 Q1191.2656,548.5703 1191.2656,545.4453 Q1191.2656,542.3203 1192.5781,540.6641 Q1193.9063,539.0078 1196.4063,539.0078 Q1197.1094,539.0078 1197.75,539.1641 Q1198.4063,539.3203 1198.9688,539.6172 L1198.9688,542.3359 Q1198.3438,541.7578 1197.75,541.4922 Q1197.1563,541.2109 1196.5313,541.2109 Q1195.1875,541.2109 1194.5,542.2891 Q1193.8125,543.3516 1193.8125,545.4453 Q1193.8125,547.5391 1194.5,548.6172 Q1195.1875,549.6797 1196.5313,549.6797 Q1197.1563,549.6797 1197.75,549.4141 Q1198.3438,549.1328 1198.9688,548.5547 L1198.9688,551.2734 Z " fill="#000000"/><text fill="#000000" font-family="sans-serif" font-size="12" font-style="italic" lengthAdjust="spacing" textLength="70" x="1209" y="541.6387">«endpoint»</text><text fill="#000000" font-family="sans-serif" font-size="14" lengthAdjust="spacing" textLength="68" x="1210" y="557.4639">proposals</text><line style="stroke:#181818;stroke-width:0.5;" x1="1182" x2="1280" y1="565.7656" y2="565.7656"/><line style="stroke:#181818;stroke-width:0.5;" x1="1182" x2="1280" y1="573.7656" y2="573.7656"/></g><g id="elem_proposals_api_endpoints"><rect fill="#F1F1F1" height="93.4844" style="stroke:#181818;stroke-width:0.5;" width="219" x="866.5" y="668.5"/><text fill="#000000" font-family="sans-serif" font-size="14" lengthAdjust="spacing" textLength="172" x="890" y="683.4951">proposals_api_endpoints</text><line style="stroke:#181818;stroke-width:0.5;" x1="867.5" x2="1084.5" y1="688.7969" y2="688.7969"/><ellipse cx="877.5" cy="702.4453" fill="none" rx="3" ry="3" style="stroke:#038048;stroke-width:1.0;"/><text fill="#000000" font-family="sans-serif" font-size="14" lengthAdjust="spacing" textLength="136" x="886.5" y="705.792">GET /prsl/{user_id}</text><ellipse cx="877.5" cy="718.7422" fill="none" rx="3" ry="3" style="stroke:#038048;stroke-width:1.0;"/><text fill="#000000" font-family="sans-serif" font-size="14" lengthAdjust="spacing" textLength="165" x="886.5" y="722.0889">GET /prsl/{proposal_id}</text><ellipse cx="877.5" cy="735.0391" fill="none" rx="3" ry="3" style="stroke:#038048;stroke-width:1.0;"/><text fill="#000000" font-family="sans-serif" font-size="14" lengthAdjust="spacing" textLength="121" x="886.5" y="738.3857">POST /prsl/create</text><ellipse cx="877.5" cy="751.3359" fill="none" rx="3" ry="3" style="stroke:#038048;stroke-width:1.0;"/><text fill="#000000" font-family="sans-serif" font-size="14" lengthAdjust="spacing" textLength="193" x="886.5" y="754.6826">UPDATE /prsl/{proposal_id}</text></g><g id="elem_pdf_api_endpoints"><rect fill="#F1F1F1" height="77.1875" style="stroke:#181818;stroke-width:0.5;" width="160" x="1121" y="676.5"/><text fill="#000000" font-family="sans-serif" font-size="14" lengthAdjust="spacing" textLength="126" x="1138" y="691.4951">pdf_api_endpoints</text><line style="stroke:#181818;stroke-width:0.5;" x1="1122" x2="1280" y1="696.7969" y2="696.7969"/><ellipse cx="1132" cy="710.4453" fill="none" rx="3" ry="3" style="stroke:#038048;stroke-width:1.0;"/><text fill="#000000" font-family="sans-serif" font-size="14" lengthAdjust="spacing" textLength="121" x="1141" y="713.792">POST /pdf/upload</text><ellipse cx="1132" cy="726.7422" fill="none" rx="3" ry="3" style="stroke:#038048;stroke-width:1.0;"/><text fill="#000000" font-family="sans-serif" font-size="14" lengthAdjust="spacing" textLength="132" x="1141" y="730.0889">GET /pdf/download</text><ellipse cx="1132" cy="743.0391" fill="none" rx="3" ry="3" style="stroke:#038048;stroke-width:1.0;"/><text fill="#000000" font-family="sans-serif" font-size="14" lengthAdjust="spacing" textLength="134" x="1141" y="746.3857">DELETE /pdf/delete</text></g><!--class prsls.send_email--><g id="elem_prsls.send_email"><rect fill="#F1F1F1" height="48" id="prsls.send_email" rx="2.5" ry="2.5" style="stroke:#181818;stroke-width:0.5;" width="110" x="835" y="529.5"/><ellipse cx="850" cy="545.5" fill="#ADD1B2" rx="11" ry="11" style="stroke:#181818;stroke-width:1.0;"/><path d="M852.9688,551.1406 Q852.3906,551.4375 851.75,551.5781 Q851.1094,551.7344 850.4063,551.7344 Q847.9063,551.7344 846.5781,550.0938 Q845.2656,548.4375 845.2656,545.3125 Q845.2656,542.1875 846.5781,540.5313 Q847.9063,538.875 850.4063,538.875 Q851.1094,538.875 851.75,539.0313 Q852.4063,539.1875 852.9688,539.4844 L852.9688,542.2031 Q852.3438,541.625 851.75,541.3594 Q851.1563,541.0781 850.5313,541.0781 Q849.1875,541.0781 848.5,542.1563 Q847.8125,543.2188 847.8125,545.3125 Q847.8125,547.4063 848.5,548.4844 Q849.1875,549.5469 850.5313,549.5469 Q851.1563,549.5469 851.75,549.2813 Q852.3438,549 852.9688,548.4219 L852.9688,551.1406 Z " fill="#000000"/><text fill="#000000" font-family="sans-serif" font-size="14" lengthAdjust="spacing" textLength="78" x="864" y="550.3467">send_email</text><line style="stroke:#181818;stroke-width:0.5;" x1="836" x2="944" y1="561.5" y2="561.5"/><line style="stroke:#181818;stroke-width:0.5;" x1="836" x2="944" y1="569.5" y2="569.5"/></g><g id="elem_panel_decision_api_endpoints"><rect fill="#F1F1F1" height="93.4844" style="stroke:#181818;stroke-width:0.5;" width="251" x="70.5" y="299.5"/><text fill="#000000" font-family="sans-serif" font-size="14" lengthAdjust="spacing" textLength="207" x="92.5" y="314.4951">panel_decision_api_endpoints</text><line style="stroke:#181818;stroke-width:0.5;" x1="71.5" x2="320.5" y1="319.7969" y2="319.7969"/><ellipse cx="81.5" cy="333.4453" fill="none" rx="3" ry="3" style="stroke:#038048;stroke-width:1.0;"/><text fill="#000000" font-family="sans-serif" font-size="14" lengthAdjust="spacing" textLength="225" x="90.5" y="336.792">panel_decision_post «endpoint»</text><ellipse cx="81.5" cy="349.7422" fill="none" rx="3" ry="3" style="stroke:#038048;stroke-width:1.0;"/><text fill="#000000" font-family="sans-serif" font-size="14" lengthAdjust="spacing" textLength="217" x="90.5" y="353.0889">panel_decision_get «endpoint»</text><ellipse cx="81.5" cy="366.0391" fill="none" rx="3" ry="3" style="stroke:#038048;stroke-width:1.0;"/><text fill="#000000" font-family="sans-serif" font-size="14" lengthAdjust="spacing" textLength="225" x="90.5" y="369.3857">panel_decisions_get «endpoint»</text><ellipse cx="81.5" cy="382.3359" fill="none" rx="3" ry="3" style="stroke:#038048;stroke-width:1.0;"/><text fill="#000000" font-family="sans-serif" font-size="14" lengthAdjust="spacing" textLength="217" x="90.5" y="385.6826">panel_decision_put «endpoint»</text></g><g id="elem_panels_api_endpoints"><rect fill="#F1F1F1" height="77.1875" style="stroke:#181818;stroke-width:0.5;" width="242" x="540" y="307.5"/><text fill="#000000" font-family="sans-serif" font-size="14" lengthAdjust="spacing" textLength="150" x="586" y="322.4951">panels_api_endpoints</text><line style="stroke:#181818;stroke-width:0.5;" x1="541" x2="781" y1="327.7969" y2="327.7969"/><ellipse cx="551" cy="341.4453" fill="none" rx="3" ry="3" style="stroke:#038048;stroke-width:1.0;"/><text fill="#000000" font-family="sans-serif" font-size="14" lengthAdjust="spacing" textLength="84" x="560" y="344.792">GET /panels</text><ellipse cx="551" cy="357.7422" fill="none" rx="3" ry="3" style="stroke:#038048;stroke-width:1.0;"/><text fill="#000000" font-family="sans-serif" font-size="14" lengthAdjust="spacing" textLength="119" x="560" y="361.0889">GET /panels/{id}</text><ellipse cx="551" cy="374.0391" fill="none" rx="3" ry="3" style="stroke:#038048;stroke-width:1.0;"/><text fill="#000000" font-family="sans-serif" font-size="14" lengthAdjust="spacing" textLength="216" x="560" y="377.3857">GET /panels/by_user/{user_id}</text></g><!--class review_get--><g id="elem_review_get"><rect codeLine="41" fill="#F1F1F1" height="56.2656" id="review_get" rx="2.5" ry="2.5" style="stroke:#181818;stroke-width:0.5;" width="106" x="378" y="318"/><ellipse cx="393" cy="338.1328" fill="#ADD1B2" rx="11" ry="11" style="stroke:#181818;stroke-width:1.0;"/><path d="M395.9688,343.7734 Q395.3906,344.0703 394.75,344.2109 Q394.1094,344.3672 393.4063,344.3672 Q390.9063,344.3672 389.5781,342.7266 Q388.2656,341.0703 388.2656,337.9453 Q388.2656,334.8203 389.5781,333.1641 Q390.9063,331.5078 393.4063,331.5078 Q394.1094,331.5078 394.75,331.6641 Q395.4063,331.8203 395.9688,332.1172 L395.9688,334.8359 Q395.3438,334.2578 394.75,333.9922 Q394.1563,333.7109 393.5313,333.7109 Q392.1875,333.7109 391.5,334.7891 Q390.8125,335.8516 390.8125,337.9453 Q390.8125,340.0391 391.5,341.1172 Q392.1875,342.1797 393.5313,342.1797 Q394.1563,342.1797 394.75,341.9141 Q395.3438,341.6328 395.9688,341.0547 L395.9688,343.7734 Z " fill="#000000"/><text fill="#000000" font-family="sans-serif" font-size="12" font-style="italic" lengthAdjust="spacing" textLength="70" x="409" y="334.1387">«endpoint»</text><text fill="#000000" font-family="sans-serif" font-size="14" lengthAdjust="spacing" textLength="74" x="407" y="349.9639">review_get</text><line style="stroke:#181818;stroke-width:0.5;" x1="379" x2="483" y1="358.2656" y2="358.2656"/><line style="stroke:#181818;stroke-width:0.5;" x1="379" x2="483" y1="366.2656" y2="366.2656"/></g><!--class reviewers--><g id="elem_reviewers"><rect codeLine="44" fill="#F1F1F1" height="56.2656" id="reviewers" rx="2.5" ry="2.5" style="stroke:#181818;stroke-width:0.5;" width="98" x="1211" y="318"/><ellipse cx="1226" cy="338.1328" fill="#ADD1B2" rx="11" ry="11" style="stroke:#181818;stroke-width:1.0;"/><path d="M1228.9688,343.7734 Q1228.3906,344.0703 1227.75,344.2109 Q1227.1094,344.3672 1226.4063,344.3672 Q1223.9063,344.3672 1222.5781,342.7266 Q1221.2656,341.0703 1221.2656,337.9453 Q1221.2656,334.8203 1222.5781,333.1641 Q1223.9063,331.5078 1226.4063,331.5078 Q1227.1094,331.5078 1227.75,331.6641 Q1228.4063,331.8203 1228.9688,332.1172 L1228.9688,334.8359 Q1228.3438,334.2578 1227.75,333.9922 Q1227.1563,333.7109 1226.5313,333.7109 Q1225.1875,333.7109 1224.5,334.7891 Q1223.8125,335.8516 1223.8125,337.9453 Q1223.8125,340.0391 1224.5,341.1172 Q1225.1875,342.1797 1226.5313,342.1797 Q1227.1563,342.1797 1227.75,341.9141 Q1228.3438,341.6328 1228.9688,341.0547 L1228.9688,343.7734 Z " fill="#000000"/><text fill="#000000" font-family="sans-serif" font-size="12" font-style="italic" lengthAdjust="spacing" textLength="70" x="1238" y="334.1387">«endpoint»</text><text fill="#000000" font-family="sans-serif" font-size="14" lengthAdjust="spacing" textLength="66" x="1240" y="349.9639">reviewers</text><line style="stroke:#181818;stroke-width:0.5;" x1="1212" x2="1308" y1="358.2656" y2="358.2656"/><line style="stroke:#181818;stroke-width:0.5;" x1="1212" x2="1308" y1="366.2656" y2="366.2656"/></g><!--class report_get--><g id="elem_report_get"><rect codeLine="47" fill="#F1F1F1" height="72.5625" id="report_get" rx="2.5" ry="2.5" style="stroke:#181818;stroke-width:0.5;" width="178" x="977" y="309.5"/><ellipse cx="1025.75" cy="329.6328" fill="#ADD1B2" rx="11" ry="11" style="stroke:#181818;stroke-width:1.0;"/><path d="M1028.7188,335.2734 Q1028.1406,335.5703 1027.5,335.7109 Q1026.8594,335.8672 1026.1563,335.8672 Q1023.6563,335.8672 1022.3281,334.2266 Q1021.0156,332.5703 1021.0156,329.4453 Q1021.0156,326.3203 1022.3281,324.6641 Q1023.6563,323.0078 1026.1563,323.0078 Q1026.8594,323.0078 1027.5,323.1641 Q1028.1563,323.3203 1028.7188,323.6172 L1028.7188,326.3359 Q1028.0938,325.7578 1027.5,325.4922 Q1026.9063,325.2109 1026.2813,325.2109 Q1024.9375,325.2109 1024.25,326.2891 Q1023.5625,327.3516 1023.5625,329.4453 Q1023.5625,331.5391 1024.25,332.6172 Q1024.9375,333.6797 1026.2813,333.6797 Q1026.9063,333.6797 1027.5,333.4141 Q1028.0938,333.1328 1028.7188,332.5547 L1028.7188,335.2734 Z " fill="#000000"/><text fill="#000000" font-family="sans-serif" font-size="12" font-style="italic" lengthAdjust="spacing" textLength="70" x="1047.25" y="325.6387">«endpoint»</text><text fill="#000000" font-family="sans-serif" font-size="14" lengthAdjust="spacing" textLength="72" x="1046.25" y="341.4639">report_get</text><line style="stroke:#181818;stroke-width:0.5;" x1="978" x2="1154" y1="349.7656" y2="349.7656"/><text fill="#000000" font-family="sans-serif" font-size="14" lengthAdjust="spacing" textLength="166" x="983" y="366.7607">returns: ProposalReport</text><line style="stroke:#181818;stroke-width:0.5;" x1="978" x2="1154" y1="374.0625" y2="374.0625"/></g><!--class reports.report_get--><g id="elem_reports.report_get"><rect fill="#F1F1F1" height="48" id="reports.report_get" rx="2.5" ry="2.5" style="stroke:#181818;stroke-width:0.5;" width="104" x="838" y="322"/><ellipse cx="853" cy="338" fill="#ADD1B2" rx="11" ry="11" style="stroke:#181818;stroke-width:1.0;"/><path d="M855.9688,343.6406 Q855.3906,343.9375 854.75,344.0781 Q854.1094,344.2344 853.4063,344.2344 Q850.9063,344.2344 849.5781,342.5938 Q848.2656,340.9375 848.2656,337.8125 Q848.2656,334.6875 849.5781,333.0313 Q850.9063,331.375 853.4063,331.375 Q854.1094,331.375 854.75,331.5313 Q855.4063,331.6875 855.9688,331.9844 L855.9688,334.7031 Q855.3438,334.125 854.75,333.8594 Q854.1563,333.5781 853.5313,333.5781 Q852.1875,333.5781 851.5,334.6563 Q850.8125,335.7188 850.8125,337.8125 Q850.8125,339.9063 851.5,340.9844 Q852.1875,342.0469 853.5313,342.0469 Q854.1563,342.0469 854.75,341.7813 Q855.3438,341.5 855.9688,340.9219 L855.9688,343.6406 Z " fill="#000000"/><text fill="#000000" font-family="sans-serif" font-size="14" lengthAdjust="spacing" textLength="72" x="867" y="342.8467">report_get</text><line style="stroke:#181818;stroke-width:0.5;" x1="839" x2="941" y1="354" y2="354"/><line style="stroke:#181818;stroke-width:0.5;" x1="839" x2="941" y1="362" y2="362"/></g><!--class constants--><g id="elem_constants"><rect codeLine="84" fill="#F1F1F1" height="48" id="constants" rx="2.5" ry="2.5" style="stroke:#181818;stroke-width:0.5;" width="101" x="1525.5" y="322"/><ellipse cx="1540.5" cy="338" fill="#ADD1B2" rx="11" ry="11" style="stroke:#181818;stroke-width:1.0;"/><path d="M1543.4688,343.6406 Q1542.8906,343.9375 1542.25,344.0781 Q1541.6094,344.2344 1540.9063,344.2344 Q1538.4063,344.2344 1537.0781,342.5938 Q1535.7656,340.9375 1535.7656,337.8125 Q1535.7656,334.6875 1537.0781,333.0313 Q1538.4063,331.375 1540.9063,331.375 Q1541.6094,331.375 1542.25,331.5313 Q1542.9063,331.6875 1543.4688,331.9844 L1543.4688,334.7031 Q1542.8438,334.125 1542.25,333.8594 Q1541.6563,333.5781 1541.0313,333.5781 Q1539.6875,333.5781 1539,334.6563 Q1538.3125,335.7188 1538.3125,337.8125 Q1538.3125,339.9063 1539,340.9844 Q1539.6875,342.0469 1541.0313,342.0469 Q1541.6563,342.0469 1542.25,341.7813 Q1542.8438,341.5 1543.4688,340.9219 L1543.4688,343.6406 Z " fill="#000000"/><text fill="#000000" font-family="sans-serif" font-size="14" lengthAdjust="spacing" textLength="69" x="1554.5" y="342.8467">constants</text><line style="stroke:#181818;stroke-width:0.5;" x1="1526.5" x2="1625.5" y1="354" y2="354"/><line style="stroke:#181818;stroke-width:0.5;" x1="1526.5" x2="1625.5" y1="362" y2="362"/></g><!--class utils.constants--><g id="elem_utils.constants"><rect fill="#F1F1F1" height="48" id="utils.constants" rx="2.5" ry="2.5" style="stroke:#181818;stroke-width:0.5;" width="101" x="1389.5" y="322"/><ellipse cx="1404.5" cy="338" fill="#ADD1B2" rx="11" ry="11" style="stroke:#181818;stroke-width:1.0;"/><path d="M1407.4688,343.6406 Q1406.8906,343.9375 1406.25,344.0781 Q1405.6094,344.2344 1404.9063,344.2344 Q1402.4063,344.2344 1401.0781,342.5938 Q1399.7656,340.9375 1399.7656,337.8125 Q1399.7656,334.6875 1401.0781,333.0313 Q1402.4063,331.375 1404.9063,331.375 Q1405.6094,331.375 1406.25,331.5313 Q1406.9063,331.6875 1407.4688,331.9844 L1407.4688,334.7031 Q1406.8438,334.125 1406.25,333.8594 Q1405.6563,333.5781 1405.0313,333.5781 Q1403.6875,333.5781 1403,334.6563 Q1402.3125,335.7188 1402.3125,337.8125 Q1402.3125,339.9063 1403,340.9844 Q1403.6875,342.0469 1405.0313,342.0469 Q1405.6563,342.0469 1406.25,341.7813 Q1406.8438,341.5 1407.4688,340.9219 L1407.4688,343.6406 Z " fill="#000000"/><text fill="#000000" font-family="sans-serif" font-size="14" lengthAdjust="spacing" textLength="69" x="1418.5" y="342.8467">constants</text><line style="stroke:#181818;stroke-width:0.5;" x1="1390.5" x2="1489.5" y1="354" y2="354"/><line style="stroke:#181818;stroke-width:0.5;" x1="1390.5" x2="1489.5" y1="362" y2="362"/></g><g id="elem_email_helper_functions"><rect fill="#F1F1F1" height="60.8906" style="stroke:#181818;stroke-width:0.5;" width="172" x="3005" y="315.5"/><text fill="#000000" font-family="sans-serif" font-size="14" lengthAdjust="spacing" textLength="158" x="3012" y="330.4951">email_helper_functions</text><line style="stroke:#181818;stroke-width:0.5;" x1="3006" x2="3176" y1="335.7969" y2="335.7969"/><ellipse cx="3016" cy="349.4453" fill="#84BE84" rx="3" ry="3" style="stroke:#038048;stroke-width:1.0;"/><text fill="#000000" font-family="sans-serif" font-size="14" lengthAdjust="spacing" textLength="99" x="3025" y="352.792">render_email()</text><ellipse cx="3016" cy="365.7422" fill="#84BE84" rx="3" ry="3" style="stroke:#038048;stroke-width:1.0;"/><text fill="#000000" font-family="sans-serif" font-size="14" lengthAdjust="spacing" textLength="135" x="3025" y="369.0889">send_email_async()</text></g><!--class join_proposals_panels_reviews_decisions--><g id="elem_join_proposals_panels_reviews_decisions"><rect codeLine="62" fill="#F1F1F1" height="56.2656" id="join_proposals_panels_reviews_decisions" rx="2.5" ry="2.5" style="stroke:#181818;stroke-width:0.5;" width="316" x="2406" y="318"/><ellipse cx="2421" cy="338.1328" fill="#ADD1B2" rx="11" ry="11" style="stroke:#181818;stroke-width:1.0;"/><path d="M2423.9688,343.7734 Q2423.3906,344.0703 2422.75,344.2109 Q2422.1094,344.3672 2421.4063,344.3672 Q2418.9063,344.3672 2417.5781,342.7266 Q2416.2656,341.0703 2416.2656,337.9453 Q2416.2656,334.8203 2417.5781,333.1641 Q2418.9063,331.5078 2421.4063,331.5078 Q2422.1094,331.5078 2422.75,331.6641 Q2423.4063,331.8203 2423.9688,332.1172 L2423.9688,334.8359 Q2423.3438,334.2578 2422.75,333.9922 Q2422.1563,333.7109 2421.5313,333.7109 Q2420.1875,333.7109 2419.5,334.7891 Q2418.8125,335.8516 2418.8125,337.9453 Q2418.8125,340.0391 2419.5,341.1172 Q2420.1875,342.1797 2421.5313,342.1797 Q2422.1563,342.1797 2422.75,341.9141 Q2423.3438,341.6328 2423.9688,341.0547 L2423.9688,343.7734 Z " fill="#000000"/><text fill="#000000" font-family="sans-serif" font-size="12" font-style="italic" lengthAdjust="spacing" textLength="65" x="2544.5" y="334.1387">«function»</text><text fill="#000000" font-family="sans-serif" font-size="14" lengthAdjust="spacing" textLength="284" x="2435" y="349.9639">join_proposals_panels_reviews_decisions</text><line style="stroke:#181818;stroke-width:0.5;" x1="2407" x2="2721" y1="358.2656" y2="358.2656"/><line style="stroke:#181818;stroke-width:0.5;" x1="2407" x2="2721" y1="366.2656" y2="366.2656"/></g><g id="elem_join_helpers"><rect fill="#F1F1F1" height="60.8906" style="stroke:#181818;stroke-width:0.5;" width="191" x="2757.5" y="315.5"/><text fill="#000000" font-family="sans-serif" font-size="14" lengthAdjust="spacing" textLength="83" x="2811.5" y="330.4951">join_helpers</text><line style="stroke:#181818;stroke-width:0.5;" x1="2758.5" x2="2947.5" y1="335.7969" y2="335.7969"/><ellipse cx="2768.5" cy="349.4453" fill="#84BE84" rx="3" ry="3" style="stroke:#038048;stroke-width:1.0;"/><text fill="#000000" font-family="sans-serif" font-size="14" lengthAdjust="spacing" textLength="122" x="2777.5" y="352.792">_get_array_class()</text><ellipse cx="2768.5" cy="365.7422" fill="#84BE84" rx="3" ry="3" style="stroke:#038048;stroke-width:1.0;"/><text fill="#000000" font-family="sans-serif" font-size="14" lengthAdjust="spacing" textLength="165" x="2777.5" y="369.0889">get_latest_entity_by_id()</text></g><!--class transform_update_proposal--><g id="elem_transform_update_proposal"><rect codeLine="67" fill="#F1F1F1" height="56.2656" id="transform_update_proposal" rx="2.5" ry="2.5" style="stroke:#181818;stroke-width:0.5;" width="221" x="2453.5" y="525.5"/><ellipse cx="2468.5" cy="545.6328" fill="#ADD1B2" rx="11" ry="11" style="stroke:#181818;stroke-width:1.0;"/><path d="M2471.4688,551.2734 Q2470.8906,551.5703 2470.25,551.7109 Q2469.6094,551.8672 2468.9063,551.8672 Q2466.4063,551.8672 2465.0781,550.2266 Q2463.7656,548.5703 2463.7656,545.4453 Q2463.7656,542.3203 2465.0781,540.6641 Q2466.4063,539.0078 2468.9063,539.0078 Q2469.6094,539.0078 2470.25,539.1641 Q2470.9063,539.3203 2471.4688,539.6172 L2471.4688,542.3359 Q2470.8438,541.7578 2470.25,541.4922 Q2469.6563,541.2109 2469.0313,541.2109 Q2467.6875,541.2109 2467,542.2891 Q2466.3125,543.3516 2466.3125,545.4453 Q2466.3125,547.5391 2467,548.6172 Q2467.6875,549.6797 2469.0313,549.6797 Q2469.6563,549.6797 2470.25,549.4141 Q2470.8438,549.1328 2471.4688,548.5547 L2471.4688,551.2734 Z " fill="#000000"/><text fill="#000000" font-family="sans-serif" font-size="12" font-style="italic" lengthAdjust="spacing" textLength="65" x="2544.5" y="541.6387">«function»</text><text fill="#000000" font-family="sans-serif" font-size="14" lengthAdjust="spacing" textLength="189" x="2482.5" y="557.4639">transform_update_proposal</text><line style="stroke:#181818;stroke-width:0.5;" x1="2454.5" x2="2673.5" y1="565.7656" y2="565.7656"/><line style="stroke:#181818;stroke-width:0.5;" x1="2454.5" x2="2673.5" y1="573.7656" y2="573.7656"/></g><g id="elem_s3_bucket_functions"><rect fill="#F1F1F1" height="142.375" style="stroke:#181818;stroke-width:0.5;" width="284" x="2066" y="275"/><text fill="#000000" font-family="sans-serif" font-size="14" lengthAdjust="spacing" textLength="143" x="2136.5" y="289.9951">s3_bucket_functions</text><line style="stroke:#181818;stroke-width:0.5;" x1="2067" x2="2349" y1="295.2969" y2="295.2969"/><ellipse cx="2077" cy="308.9453" fill="#84BE84" rx="3" ry="3" style="stroke:#038048;stroke-width:1.0;"/><text fill="#000000" font-family="sans-serif" font-size="14" lengthAdjust="spacing" textLength="125" x="2086" y="312.292">S3Method (Enum)</text><ellipse cx="2077" cy="325.2422" fill="none" rx="3" ry="3" style="stroke:#038048;stroke-width:1.0;"/><text fill="#000000" font-family="sans-serif" font-size="14" lengthAdjust="spacing" textLength="62" x="2086" y="328.5889">S3Config</text><ellipse cx="2077" cy="341.5391" fill="#84BE84" rx="3" ry="3" style="stroke:#038048;stroke-width:1.0;"/><text fill="#000000" font-family="sans-serif" font-size="14" lengthAdjust="spacing" textLength="111" x="2086" y="344.8857">get_aws_client()</text><ellipse cx="2077" cy="357.8359" fill="#84BE84" rx="3" ry="3" style="stroke:#038048;stroke-width:1.0;"/><text fill="#000000" font-family="sans-serif" font-size="14" lengthAdjust="spacing" textLength="174" x="2086" y="361.1826">generate_presigned_url()</text><ellipse cx="2077" cy="374.1328" fill="#84BE84" rx="3" ry="3" style="stroke:#038048;stroke-width:1.0;"/><text fill="#000000" font-family="sans-serif" font-size="14" lengthAdjust="spacing" textLength="238" x="2086" y="377.4795">create_presigned_url_upload_pdf()</text><ellipse cx="2077" cy="390.4297" fill="#84BE84" rx="3" ry="3" style="stroke:#038048;stroke-width:1.0;"/><text fill="#000000" font-family="sans-serif" font-size="14" lengthAdjust="spacing" textLength="258" x="2086" y="393.7764">create_presigned_url_download_pdf()</text><ellipse cx="2077" cy="406.7266" fill="#84BE84" rx="3" ry="3" style="stroke:#038048;stroke-width:1.0;"/><text fill="#000000" font-family="sans-serif" font-size="14" lengthAdjust="spacing" textLength="235" x="2086" y="410.0732">create_presigned_url_delete_pdf()</text></g><!--class validate_duplicates--><g id="elem_validate_duplicates"><rect codeLine="81" fill="#F1F1F1" height="56.2656" id="validate_duplicates" rx="2.5" ry="2.5" style="stroke:#181818;stroke-width:0.5;" width="162" x="1848" y="318"/><ellipse cx="1863" cy="338.1328" fill="#ADD1B2" rx="11" ry="11" style="stroke:#181818;stroke-width:1.0;"/><path d="M1865.9688,343.7734 Q1865.3906,344.0703 1864.75,344.2109 Q1864.1094,344.3672 1863.4063,344.3672 Q1860.9063,344.3672 1859.5781,342.7266 Q1858.2656,341.0703 1858.2656,337.9453 Q1858.2656,334.8203 1859.5781,333.1641 Q1860.9063,331.5078 1863.4063,331.5078 Q1864.1094,331.5078 1864.75,331.6641 Q1865.4063,331.8203 1865.9688,332.1172 L1865.9688,334.8359 Q1865.3438,334.2578 1864.75,333.9922 Q1864.1563,333.7109 1863.5313,333.7109 Q1862.1875,333.7109 1861.5,334.7891 Q1860.8125,335.8516 1860.8125,337.9453 Q1860.8125,340.0391 1861.5,341.1172 Q1862.1875,342.1797 1863.5313,342.1797 Q1864.1563,342.1797 1864.75,341.9141 Q1865.3438,341.6328 1865.9688,341.0547 L1865.9688,343.7734 Z " fill="#000000"/><text fill="#000000" font-family="sans-serif" font-size="12" font-style="italic" lengthAdjust="spacing" textLength="65" x="1909.5" y="334.1387">«function»</text><text fill="#000000" font-family="sans-serif" font-size="14" lengthAdjust="spacing" textLength="130" x="1877" y="349.9639">validate_duplicates</text><line style="stroke:#181818;stroke-width:0.5;" x1="1849" x2="2009" y1="358.2656" y2="358.2656"/><line style="stroke:#181818;stroke-width:0.5;" x1="1849" x2="2009" y1="366.2656" y2="366.2656"/></g><!--class validate_proposal--><g id="elem_validate_proposal"><rect codeLine="82" fill="#F1F1F1" height="56.2656" id="validate_proposal" rx="2.5" ry="2.5" style="stroke:#181818;stroke-width:0.5;" width="151" x="1661.5" y="318"/><ellipse cx="1676.5" cy="338.1328" fill="#ADD1B2" rx="11" ry="11" style="stroke:#181818;stroke-width:1.0;"/><path d="M1679.4688,343.7734 Q1678.8906,344.0703 1678.25,344.2109 Q1677.6094,344.3672 1676.9063,344.3672 Q1674.4063,344.3672 1673.0781,342.7266 Q1671.7656,341.0703 1671.7656,337.9453 Q1671.7656,334.8203 1673.0781,333.1641 Q1674.4063,331.5078 1676.9063,331.5078 Q1677.6094,331.5078 1678.25,331.6641 Q1678.9063,331.8203 1679.4688,332.1172 L1679.4688,334.8359 Q1678.8438,334.2578 1678.25,333.9922 Q1677.6563,333.7109 1677.0313,333.7109 Q1675.6875,333.7109 1675,334.7891 Q1674.3125,335.8516 1674.3125,337.9453 Q1674.3125,340.0391 1675,341.1172 Q1675.6875,342.1797 1677.0313,342.1797 Q1677.6563,342.1797 1678.25,341.9141 Q1678.8438,341.6328 1679.4688,341.0547 L1679.4688,343.7734 Z " fill="#000000"/><text fill="#000000" font-family="sans-serif" font-size="12" font-style="italic" lengthAdjust="spacing" textLength="65" x="1717.5" y="334.1387">«function»</text><text fill="#000000" font-family="sans-serif" font-size="14" lengthAdjust="spacing" textLength="119" x="1690.5" y="349.9639">validate_proposal</text><line style="stroke:#181818;stroke-width:0.5;" x1="1662.5" x2="1811.5" y1="358.2656" y2="358.2656"/><line style="stroke:#181818;stroke-width:0.5;" x1="1662.5" x2="1811.5" y1="366.2656" y2="366.2656"/></g><!--class api.panel_reviews.panel_review_get--><g id="elem_api.panel_reviews.panel_review_get"><rect fill="#F1F1F1" height="48" id="api.panel_reviews.panel_review_get" rx="2.5" ry="2.5" style="stroke:#181818;stroke-width:0.5;" width="151" x="3286.5" y="41"/><ellipse cx="3301.5" cy="57" fill="#ADD1B2" rx="11" ry="11" style="stroke:#181818;stroke-width:1.0;"/><path d="M3304.4688,62.6406 Q3303.8906,62.9375 3303.25,63.0781 Q3302.6094,63.2344 3301.9063,63.2344 Q3299.4063,63.2344 3298.0781,61.5938 Q3296.7656,59.9375 3296.7656,56.8125 Q3296.7656,53.6875 3298.0781,52.0313 Q3299.4063,50.375 3301.9063,50.375 Q3302.6094,50.375 3303.25,50.5313 Q3303.9063,50.6875 3304.4688,50.9844 L3304.4688,53.7031 Q3303.8438,53.125 3303.25,52.8594 Q3302.6563,52.5781 3302.0313,52.5781 Q3300.6875,52.5781 3300,53.6563 Q3299.3125,54.7188 3299.3125,56.8125 Q3299.3125,58.9063 3300,59.9844 Q3300.6875,61.0469 3302.0313,61.0469 Q3302.6563,61.0469 3303.25,60.7813 Q3303.8438,60.5 3304.4688,59.9219 L3304.4688,62.6406 Z " fill="#000000"/><text fill="#000000" font-family="sans-serif" font-size="14" lengthAdjust="spacing" textLength="119" x="3315.5" y="61.8467">panel_review_get</text><line style="stroke:#181818;stroke-width:0.5;" x1="3287.5" x2="3436.5" y1="73" y2="73"/><line style="stroke:#181818;stroke-width:0.5;" x1="3287.5" x2="3436.5" y1="81" y2="81"/></g><!--class utils.email_helper.email_helper_functions--><g id="elem_utils.email_helper.email_helper_functions"><rect fill="#F1F1F1" height="48" id="utils.email_helper.email_helper_functions" rx="2.5" ry="2.5" style="stroke:#181818;stroke-width:0.5;" width="190" x="3281" y="322"/><ellipse cx="3296" cy="338" fill="#ADD1B2" rx="11" ry="11" style="stroke:#181818;stroke-width:1.0;"/><path d="M3298.9688,343.6406 Q3298.3906,343.9375 3297.75,344.0781 Q3297.1094,344.2344 3296.4063,344.2344 Q3293.9063,344.2344 3292.5781,342.5938 Q3291.2656,340.9375 3291.2656,337.8125 Q3291.2656,334.6875 3292.5781,333.0313 Q3293.9063,331.375 3296.4063,331.375 Q3297.1094,331.375 3297.75,331.5313 Q3298.4063,331.6875 3298.9688,331.9844 L3298.9688,334.7031 Q3298.3438,334.125 3297.75,333.8594 Q3297.1563,333.5781 3296.5313,333.5781 Q3295.1875,333.5781 3294.5,334.6563 Q3293.8125,335.7188 3293.8125,337.8125 Q3293.8125,339.9063 3294.5,340.9844 Q3295.1875,342.0469 3296.5313,342.0469 Q3297.1563,342.0469 3297.75,341.7813 Q3298.3438,341.5 3298.9688,340.9219 L3298.9688,343.6406 Z " fill="#000000"/><text fill="#000000" font-family="sans-serif" font-size="14" lengthAdjust="spacing" textLength="158" x="3310" y="342.8467">email_helper_functions</text><line style="stroke:#181818;stroke-width:0.5;" x1="3282" x2="3470" y1="354" y2="354"/><line style="stroke:#181818;stroke-width:0.5;" x1="3282" x2="3470" y1="362" y2="362"/></g><!--class api.prsls.proposals--><g id="elem_api.prsls.proposals"><rect fill="#F1F1F1" height="48" id="api.prsls.proposals" rx="2.5" ry="2.5" style="stroke:#181818;stroke-width:0.5;" width="100" x="3832" y="41"/><ellipse cx="3847" cy="57" fill="#ADD1B2" rx="11" ry="11" style="stroke:#181818;stroke-width:1.0;"/><path d="M3849.9688,62.6406 Q3849.3906,62.9375 3848.75,63.0781 Q3848.1094,63.2344 3847.4063,63.2344 Q3844.9063,63.2344 3843.5781,61.5938 Q3842.2656,59.9375 3842.2656,56.8125 Q3842.2656,53.6875 3843.5781,52.0313 Q3844.9063,50.375 3847.4063,50.375 Q3848.1094,50.375 3848.75,50.5313 Q3849.4063,50.6875 3849.9688,50.9844 L3849.9688,53.7031 Q3849.3438,53.125 3848.75,52.8594 Q3848.1563,52.5781 3847.5313,52.5781 Q3846.1875,52.5781 3845.5,53.6563 Q3844.8125,54.7188 3844.8125,56.8125 Q3844.8125,58.9063 3845.5,59.9844 Q3846.1875,61.0469 3847.5313,61.0469 Q3848.1563,61.0469 3848.75,60.7813 Q3849.3438,60.5 3849.9688,59.9219 L3849.9688,62.6406 Z " fill="#000000"/><text fill="#000000" font-family="sans-serif" font-size="14" lengthAdjust="spacing" textLength="68" x="3861" y="61.8467">proposals</text><line style="stroke:#181818;stroke-width:0.5;" x1="3833" x2="3931" y1="73" y2="73"/><line style="stroke:#181818;stroke-width:0.5;" x1="3833" x2="3931" y1="81" y2="81"/></g><!--class api.prsls.pdf_api_endpoints--><g id="elem_api.prsls.pdf_api_endpoints"><rect fill="#F1F1F1" height="48" id="api.prsls.pdf_api_endpoints" rx="2.5" ry="2.5" style="stroke:#181818;stroke-width:0.5;" width="158" x="3639" y="41"/><ellipse cx="3654" cy="57" fill="#ADD1B2" rx="11" ry="11" style="stroke:#181818;stroke-width:1.0;"/><path d="M3656.9688,62.6406 Q3656.3906,62.9375 3655.75,63.0781 Q3655.1094,63.2344 3654.4063,63.2344 Q3651.9063,63.2344 3650.5781,61.5938 Q3649.2656,59.9375 3649.2656,56.8125 Q3649.2656,53.6875 3650.5781,52.0313 Q3651.9063,50.375 3654.4063,50.375 Q3655.1094,50.375 3655.75,50.5313 Q3656.4063,50.6875 3656.9688,50.9844 L3656.9688,53.7031 Q3656.3438,53.125 3655.75,52.8594 Q3655.1563,52.5781 3654.5313,52.5781 Q3653.1875,52.5781 3652.5,53.6563 Q3651.8125,54.7188 3651.8125,56.8125 Q3651.8125,58.9063 3652.5,59.9844 Q3653.1875,61.0469 3654.5313,61.0469 Q3655.1563,61.0469 3655.75,60.7813 Q3656.3438,60.5 3656.9688,59.9219 L3656.9688,62.6406 Z " fill="#000000"/><text fill="#000000" font-family="sans-serif" font-size="14" lengthAdjust="spacing" textLength="126" x="3668" y="61.8467">pdf_api_endpoints</text><line style="stroke:#181818;stroke-width:0.5;" x1="3640" x2="3796" y1="73" y2="73"/><line style="stroke:#181818;stroke-width:0.5;" x1="3640" x2="3796" y1="81" y2="81"/></g><!--class api.prsls.send_email--><g id="elem_api.prsls.send_email"><rect fill="#F1F1F1" height="48" id="api.prsls.send_email" rx="2.5" ry="2.5" style="stroke:#181818;stroke-width:0.5;" width="110" x="3494" y="41"/><ellipse cx="3509" cy="57" fill="#ADD1B2" rx="11" ry="11" style="stroke:#181818;stroke-width:1.0;"/><path d="M3511.9688,62.6406 Q3511.3906,62.9375 3510.75,63.0781 Q3510.1094,63.2344 3509.4063,63.2344 Q3506.9063,63.2344 3505.5781,61.5938 Q3504.2656,59.9375 3504.2656,56.8125 Q3504.2656,53.6875 3505.5781,52.0313 Q3506.9063,50.375 3509.4063,50.375 Q3510.1094,50.375 3510.75,50.5313 Q3511.4063,50.6875 3511.9688,50.9844 L3511.9688,53.7031 Q3511.3438,53.125 3510.75,52.8594 Q3510.1563,52.5781 3509.5313,52.5781 Q3508.1875,52.5781 3507.5,53.6563 Q3506.8125,54.7188 3506.8125,56.8125 Q3506.8125,58.9063 3507.5,59.9844 Q3508.1875,61.0469 3509.5313,61.0469 Q3510.1563,61.0469 3510.75,60.7813 Q3511.3438,60.5 3511.9688,59.9219 L3511.9688,62.6406 Z " fill="#000000"/><text fill="#000000" font-family="sans-serif" font-size="14" lengthAdjust="spacing" textLength="78" x="3523" y="61.8467">send_email</text><line style="stroke:#181818;stroke-width:0.5;" x1="3495" x2="3603" y1="73" y2="73"/><line style="stroke:#181818;stroke-width:0.5;" x1="3495" x2="3603" y1="81" y2="81"/></g><!--class utils.validation.validate_proposal--><g id="elem_utils.validation.validate_proposal"><rect fill="#F1F1F1" height="48" id="utils.validation.validate_proposal" rx="2.5" ry="2.5" style="stroke:#181818;stroke-width:0.5;" width="151" x="4399.5" y="322"/><ellipse cx="4414.5" cy="338" fill="#ADD1B2" rx="11" ry="11" style="stroke:#181818;stroke-width:1.0;"/><path d="M4417.4688,343.6406 Q4416.8906,343.9375 4416.25,344.0781 Q4415.6094,344.2344 4414.9063,344.2344 Q4412.4063,344.2344 4411.0781,342.5938 Q4409.7656,340.9375 4409.7656,337.8125 Q4409.7656,334.6875 4411.0781,333.0313 Q4412.4063,331.375 4414.9063,331.375 Q4415.6094,331.375 4416.25,331.5313 Q4416.9063,331.6875 4417.4688,331.9844 L4417.4688,334.7031 Q4416.8438,334.125 4416.25,333.8594 Q4415.6563,333.5781 4415.0313,333.5781 Q4413.6875,333.5781 4413,334.6563 Q4412.3125,335.7188 4412.3125,337.8125 Q4412.3125,339.9063 4413,340.9844 Q4413.6875,342.0469 4415.0313,342.0469 Q4415.6563,342.0469 4416.25,341.7813 Q4416.8438,341.5 4417.4688,340.9219 L4417.4688,343.6406 Z " fill="#000000"/><text fill="#000000" font-family="sans-serif" font-size="14" lengthAdjust="spacing" textLength="119" x="4428.5" y="342.8467">validate_proposal</text><line style="stroke:#181818;stroke-width:0.5;" x1="4400.5" x2="4549.5" y1="354" y2="354"/><line style="stroke:#181818;stroke-width:0.5;" x1="4400.5" x2="4549.5" y1="362" y2="362"/></g><!--class utils.validation.validate_duplicates--><g id="elem_utils.validation.validate_duplicates"><rect fill="#F1F1F1" height="48" id="utils.validation.validate_duplicates" rx="2.5" ry="2.5" style="stroke:#181818;stroke-width:0.5;" width="162" x="4586" y="322"/><ellipse cx="4601" cy="338" fill="#ADD1B2" rx="11" ry="11" style="stroke:#181818;stroke-width:1.0;"/><path d="M4603.9688,343.6406 Q4603.3906,343.9375 4602.75,344.0781 Q4602.1094,344.2344 4601.4063,344.2344 Q4598.9063,344.2344 4597.5781,342.5938 Q4596.2656,340.9375 4596.2656,337.8125 Q4596.2656,334.6875 4597.5781,333.0313 Q4598.9063,331.375 4601.4063,331.375 Q4602.1094,331.375 4602.75,331.5313 Q4603.4063,331.6875 4603.9688,331.9844 L4603.9688,334.7031 Q4603.3438,334.125 4602.75,333.8594 Q4602.1563,333.5781 4601.5313,333.5781 Q4600.1875,333.5781 4599.5,334.6563 Q4598.8125,335.7188 4598.8125,337.8125 Q4598.8125,339.9063 4599.5,340.9844 Q4600.1875,342.0469 4601.5313,342.0469 Q4602.1563,342.0469 4602.75,341.7813 Q4603.3438,341.5 4603.9688,340.9219 L4603.9688,343.6406 Z " fill="#000000"/><text fill="#000000" font-family="sans-serif" font-size="14" lengthAdjust="spacing" textLength="130" x="4615" y="342.8467">validate_duplicates</text><line style="stroke:#181818;stroke-width:0.5;" x1="4587" x2="4747" y1="354" y2="354"/><line style="stroke:#181818;stroke-width:0.5;" x1="4587" x2="4747" y1="362" y2="362"/></g><!--class utils.pht_handler.transform_update_proposal--><g id="elem_utils.pht_handler.transform_update_proposal"><rect fill="#F1F1F1" height="48" id="utils.pht_handler.transform_update_proposal" rx="2.5" ry="2.5" style="stroke:#181818;stroke-width:0.5;" width="221" x="3771.5" y="322"/><ellipse cx="3786.5" cy="338" fill="#ADD1B2" rx="11" ry="11" style="stroke:#181818;stroke-width:1.0;"/><path d="M3789.4688,343.6406 Q3788.8906,343.9375 3788.25,344.0781 Q3787.6094,344.2344 3786.9063,344.2344 Q3784.4063,344.2344 3783.0781,342.5938 Q3781.7656,340.9375 3781.7656,337.8125 Q3781.7656,334.6875 3783.0781,333.0313 Q3784.4063,331.375 3786.9063,331.375 Q3787.6094,331.375 3788.25,331.5313 Q3788.9063,331.6875 3789.4688,331.9844 L3789.4688,334.7031 Q3788.8438,334.125 3788.25,333.8594 Q3787.6563,333.5781 3787.0313,333.5781 Q3785.6875,333.5781 3785,334.6563 Q3784.3125,335.7188 3784.3125,337.8125 Q3784.3125,339.9063 3785,340.9844 Q3785.6875,342.0469 3787.0313,342.0469 Q3787.6563,342.0469 3788.25,341.7813 Q3788.8438,341.5 3789.4688,340.9219 L3789.4688,343.6406 Z " fill="#000000"/><text fill="#000000" font-family="sans-serif" font-size="14" lengthAdjust="spacing" textLength="189" x="3800.5" y="342.8467">transform_update_proposal</text><line style="stroke:#181818;stroke-width:0.5;" x1="3772.5" x2="3991.5" y1="354" y2="354"/><line style="stroke:#181818;stroke-width:0.5;" x1="3772.5" x2="3991.5" y1="362" y2="362"/></g><!--class utils.pht_handler.join_proposals_panels_reviews_decisions--><g id="elem_utils.pht_handler.join_proposals_panels_reviews_decisions"><rect fill="#F1F1F1" height="48" id="utils.pht_handler.join_proposals_panels_reviews_decisions" rx="2.5" ry="2.5" style="stroke:#181818;stroke-width:0.5;" width="316" x="4027" y="322"/><ellipse cx="4042" cy="338" fill="#ADD1B2" rx="11" ry="11" style="stroke:#181818;stroke-width:1.0;"/><path d="M4044.9688,343.6406 Q4044.3906,343.9375 4043.75,344.0781 Q4043.1094,344.2344 4042.4063,344.2344 Q4039.9063,344.2344 4038.5781,342.5938 Q4037.2656,340.9375 4037.2656,337.8125 Q4037.2656,334.6875 4038.5781,333.0313 Q4039.9063,331.375 4042.4063,331.375 Q4043.1094,331.375 4043.75,331.5313 Q4044.4063,331.6875 4044.9688,331.9844 L4044.9688,334.7031 Q4044.3438,334.125 4043.75,333.8594 Q4043.1563,333.5781 4042.5313,333.5781 Q4041.1875,333.5781 4040.5,334.6563 Q4039.8125,335.7188 4039.8125,337.8125 Q4039.8125,339.9063 4040.5,340.9844 Q4041.1875,342.0469 4042.5313,342.0469 Q4043.1563,342.0469 4043.75,341.7813 Q4044.3438,341.5 4044.9688,340.9219 L4044.9688,343.6406 Z " fill="#000000"/><text fill="#000000" font-family="sans-serif" font-size="14" lengthAdjust="spacing" textLength="284" x="4056" y="342.8467">join_proposals_panels_reviews_decisions</text><line style="stroke:#181818;stroke-width:0.5;" x1="4028" x2="4342" y1="354" y2="354"/><line style="stroke:#181818;stroke-width:0.5;" x1="4028" x2="4342" y1="362" y2="362"/></g><!--class utils.pht_handler.join_helpers--><g id="elem_utils.pht_handler.join_helpers"><rect fill="#F1F1F1" height="48" id="utils.pht_handler.join_helpers" rx="2.5" ry="2.5" style="stroke:#181818;stroke-width:0.5;" width="115" x="4127.5" y="529.5"/><ellipse cx="4142.5" cy="545.5" fill="#ADD1B2" rx="11" ry="11" style="stroke:#181818;stroke-width:1.0;"/><path d="M4145.4688,551.1406 Q4144.8906,551.4375 4144.25,551.5781 Q4143.6094,551.7344 4142.9063,551.7344 Q4140.4063,551.7344 4139.0781,550.0938 Q4137.7656,548.4375 4137.7656,545.3125 Q4137.7656,542.1875 4139.0781,540.5313 Q4140.4063,538.875 4142.9063,538.875 Q4143.6094,538.875 4144.25,539.0313 Q4144.9063,539.1875 4145.4688,539.4844 L4145.4688,542.2031 Q4144.8438,541.625 4144.25,541.3594 Q4143.6563,541.0781 4143.0313,541.0781 Q4141.6875,541.0781 4141,542.1563 Q4140.3125,543.2188 4140.3125,545.3125 Q4140.3125,547.4063 4141,548.4844 Q4141.6875,549.5469 4143.0313,549.5469 Q4143.6563,549.5469 4144.25,549.2813 Q4144.8438,549 4145.4688,548.4219 L4145.4688,551.1406 Z " fill="#000000"/><text fill="#000000" font-family="sans-serif" font-size="14" lengthAdjust="spacing" textLength="83" x="4156.5" y="550.3467">join_helpers</text><line style="stroke:#181818;stroke-width:0.5;" x1="4128.5" x2="4241.5" y1="561.5" y2="561.5"/><line style="stroke:#181818;stroke-width:0.5;" x1="4128.5" x2="4241.5" y1="569.5" y2="569.5"/></g><!--class utils.s3_bucket.s3_bucket_functions--><g id="elem_utils.s3_bucket.s3_bucket_functions"><rect fill="#F1F1F1" height="48" id="utils.s3_bucket.s3_bucket_functions" rx="2.5" ry="2.5" style="stroke:#181818;stroke-width:0.5;" width="175" x="3540.5" y="322"/><ellipse cx="3555.5" cy="338" fill="#ADD1B2" rx="11" ry="11" style="stroke:#181818;stroke-width:1.0;"/><path d="M3558.4688,343.6406 Q3557.8906,343.9375 3557.25,344.0781 Q3556.6094,344.2344 3555.9063,344.2344 Q3553.4063,344.2344 3552.0781,342.5938 Q3550.7656,340.9375 3550.7656,337.8125 Q3550.7656,334.6875 3552.0781,333.0313 Q3553.4063,331.375 3555.9063,331.375 Q3556.6094,331.375 3557.25,331.5313 Q3557.9063,331.6875 3558.4688,331.9844 L3558.4688,334.7031 Q3557.8438,334.125 3557.25,333.8594 Q3556.6563,333.5781 3556.0313,333.5781 Q3554.6875,333.5781 3554,334.6563 Q3553.3125,335.7188 3553.3125,337.8125 Q3553.3125,339.9063 3554,340.9844 Q3554.6875,342.0469 3556.0313,342.0469 Q3556.6563,342.0469 3557.25,341.7813 Q3557.8438,341.5 3558.4688,340.9219 L3558.4688,343.6406 Z " fill="#000000"/><text fill="#000000" font-family="sans-serif" font-size="14" lengthAdjust="spacing" textLength="143" x="3569.5" y="342.8467">s3_bucket_functions</text><line style="stroke:#181818;stroke-width:0.5;" x1="3541.5" x2="3714.5" y1="354" y2="354"/><line style="stroke:#181818;stroke-width:0.5;" x1="3541.5" x2="3714.5" y1="362" y2="362"/></g><!--class api.panels.panels_api_endpoints--><g id="elem_api.panels.panels_api_endpoints"><rect fill="#F1F1F1" height="48" id="api.panels.panels_api_endpoints" rx="2.5" ry="2.5" style="stroke:#181818;stroke-width:0.5;" width="182" x="4576" y="41"/><ellipse cx="4591" cy="57" fill="#ADD1B2" rx="11" ry="11" style="stroke:#181818;stroke-width:1.0;"/><path d="M4593.9688,62.6406 Q4593.3906,62.9375 4592.75,63.0781 Q4592.1094,63.2344 4591.4063,63.2344 Q4588.9063,63.2344 4587.5781,61.5938 Q4586.2656,59.9375 4586.2656,56.8125 Q4586.2656,53.6875 4587.5781,52.0313 Q4588.9063,50.375 4591.4063,50.375 Q4592.1094,50.375 4592.75,50.5313 Q4593.4063,50.6875 4593.9688,50.9844 L4593.9688,53.7031 Q4593.3438,53.125 4592.75,52.8594 Q4592.1563,52.5781 4591.5313,52.5781 Q4590.1875,52.5781 4589.5,53.6563 Q4588.8125,54.7188 4588.8125,56.8125 Q4588.8125,58.9063 4589.5,59.9844 Q4590.1875,61.0469 4591.5313,61.0469 Q4592.1563,61.0469 4592.75,60.7813 Q4593.3438,60.5 4593.9688,59.9219 L4593.9688,62.6406 Z " fill="#000000"/><text fill="#000000" font-family="sans-serif" font-size="14" lengthAdjust="spacing" textLength="150" x="4605" y="61.8467">panels_api_endpoints</text><line style="stroke:#181818;stroke-width:0.5;" x1="4577" x2="4757" y1="73" y2="73"/><line style="stroke:#181818;stroke-width:0.5;" x1="4577" x2="4757" y1="81" y2="81"/></g><!--class api.reports.report_get--><g id="elem_api.reports.report_get"><rect fill="#F1F1F1" height="48" id="api.reports.report_get" rx="2.5" ry="2.5" style="stroke:#181818;stroke-width:0.5;" width="104" x="4133" y="41"/><ellipse cx="4148" cy="57" fill="#ADD1B2" rx="11" ry="11" style="stroke:#181818;stroke-width:1.0;"/><path d="M4150.9688,62.6406 Q4150.3906,62.9375 4149.75,63.0781 Q4149.1094,63.2344 4148.4063,63.2344 Q4145.9063,63.2344 4144.5781,61.5938 Q4143.2656,59.9375 4143.2656,56.8125 Q4143.2656,53.6875 4144.5781,52.0313 Q4145.9063,50.375 4148.4063,50.375 Q4149.1094,50.375 4149.75,50.5313 Q4150.4063,50.6875 4150.9688,50.9844 L4150.9688,53.7031 Q4150.3438,53.125 4149.75,52.8594 Q4149.1563,52.5781 4148.5313,52.5781 Q4147.1875,52.5781 4146.5,53.6563 Q4145.8125,54.7188 4145.8125,56.8125 Q4145.8125,58.9063 4146.5,59.9844 Q4147.1875,61.0469 4148.5313,61.0469 Q4149.1563,61.0469 4149.75,60.7813 Q4150.3438,60.5 4150.9688,59.9219 L4150.9688,62.6406 Z " fill="#000000"/><text fill="#000000" font-family="sans-serif" font-size="14" lengthAdjust="spacing" textLength="72" x="4162" y="61.8467">report_get</text><line style="stroke:#181818;stroke-width:0.5;" x1="4134" x2="4236" y1="73" y2="73"/><line style="stroke:#181818;stroke-width:0.5;" x1="4134" x2="4236" y1="81" y2="81"/></g><!--class api.reviewers.reviewers--><g id="elem_api.reviewers.reviewers"><rect fill="#F1F1F1" height="48" id="api.reviewers.reviewers" rx="2.5" ry="2.5" style="stroke:#181818;stroke-width:0.5;" width="98" x="1391" y="41"/><ellipse cx="1406" cy="57" fill="#ADD1B2" rx="11" ry="11" style="stroke:#181818;stroke-width:1.0;"/><path d="M1408.9688,62.6406 Q1408.3906,62.9375 1407.75,63.0781 Q1407.1094,63.2344 1406.4063,63.2344 Q1403.9063,63.2344 1402.5781,61.5938 Q1401.2656,59.9375 1401.2656,56.8125 Q1401.2656,53.6875 1402.5781,52.0313 Q1403.9063,50.375 1406.4063,50.375 Q1407.1094,50.375 1407.75,50.5313 Q1408.4063,50.6875 1408.9688,50.9844 L1408.9688,53.7031 Q1408.3438,53.125 1407.75,52.8594 Q1407.1563,52.5781 1406.5313,52.5781 Q1405.1875,52.5781 1404.5,53.6563 Q1403.8125,54.7188 1403.8125,56.8125 Q1403.8125,58.9063 1404.5,59.9844 Q1405.1875,61.0469 1406.5313,61.0469 Q1407.1563,61.0469 1407.75,60.7813 Q1408.3438,60.5 1408.9688,59.9219 L1408.9688,62.6406 Z " fill="#000000"/><text fill="#000000" font-family="sans-serif" font-size="14" lengthAdjust="spacing" textLength="66" x="1420" y="61.8467">reviewers</text><line style="stroke:#181818;stroke-width:0.5;" x1="1392" x2="1488" y1="73" y2="73"/><line style="stroke:#181818;stroke-width:0.5;" x1="1392" x2="1488" y1="81" y2="81"/></g><!--link reports.report_get to prsls.send_email--><!--link api.panel_reviews.panel_review_get to utils.email_helper.email_helper_functions--><!--link api.prsls.proposals to utils.validation.validate_proposal--><g id="link_api.prsls.proposals_utils.validation.validate_proposal"><path codeLine="91" d="M3932.26,76.99 C3979.73,87.15 4052.99,102.25 4117,113 C4224.05,130.99 4268.76,85.67 4359,146 C4420.46,187.09 4453.65,272.62 4467.35,316.97 " fill="none" id="api.prsls.proposals-to-utils.validation.validate_proposal" style="stroke:#181818;stroke-width:1.0;"/><polygon fill="#181818" points="4468.84,321.91,4470.0451,312.1351,4467.3836,317.1268,4462.392,314.4653,4468.84,321.91" style="stroke:#181818;stroke-width:1.0;"/></g><!--link api.prsls.proposals to utils.pht_handler.transform_update_proposal--><g id="link_api.prsls.proposals_utils.pht_handler.transform_update_proposal"><path codeLine="92" d="M3882,89.31 C3882,140.31 3882,261.65 3882,316.83 " fill="none" id="api.prsls.proposals-to-utils.pht_handler.transform_update_proposal" style="stroke:#181818;stroke-width:1.0;"/><polygon fill="#181818" points="3882,321.96,3886,312.96,3882,316.96,3878,312.96,3882,321.96" style="stroke:#181818;stroke-width:1.0;"/></g><!--link api.prsls.pdf_api_endpoints to utils.s3_bucket.s3_bucket_functions--><g id="link_api.prsls.pdf_api_endpoints_utils.s3_bucket.s3_bucket_functions"><path codeLine="93" d="M3710.48,89.31 C3694,140.41 3654.73,262.14 3636.98,317.16 " fill="none" id="api.prsls.pdf_api_endpoints-to-utils.s3_bucket.s3_bucket_functions" style="stroke:#181818;stroke-width:1.0;"/><polygon fill="#181818" points="3635.43,321.96,3641.9915,314.6151,3636.9596,317.1997,3634.375,312.1678,3635.43,321.96" style="stroke:#181818;stroke-width:1.0;"/><text fill="#000000" font-family="sans-serif" font-size="13" lengthAdjust="spacing" textLength="47" x="3699" y="134.0669">PDF file</text></g><!--link api.panels.panels_api_endpoints to utils.validation.validate_duplicates--><g id="link_api.panels.panels_api_endpoints_utils.validation.validate_duplicates"><path codeLine="94" d="M4667,89.31 C4667,140.31 4667,261.65 4667,316.83 " fill="none" id="api.panels.panels_api_endpoints-to-utils.validation.validate_duplicates" style="stroke:#181818;stroke-width:1.0;"/><polygon fill="#181818" points="4667,321.96,4671,312.96,4667,316.96,4663,312.96,4667,321.96" style="stroke:#181818;stroke-width:1.0;"/><text fill="#000000" font-family="sans-serif" font-size="13" lengthAdjust="spacing" textLength="67" x="4668" y="134.0669">List[Panel]</text></g><!--link api.reports.report_get to utils.pht_handler.join_proposals_panels_reviews_decisions--><g id="link_api.reports.report_get_utils.pht_handler.join_proposals_panels_reviews_decisions"><path codeLine="95" d="M4185,89.31 C4185,140.31 4185,261.65 4185,316.83 " fill="none" id="api.reports.report_get-to-utils.pht_handler.join_proposals_panels_reviews_decisions" style="stroke:#181818;stroke-width:1.0;"/><polygon fill="#181818" points="4185,321.96,4189,312.96,4185,316.96,4181,312.96,4185,321.96" style="stroke:#181818;stroke-width:1.0;"/></g><!--link api.prsls.send_email to utils.email_helper.email_helper_functions--><g id="link_api.prsls.send_email_utils.email_helper.email_helper_functions"><path codeLine="96" d="M3534.55,89.31 C3502.79,140.52 3427.07,262.63 3393.06,317.49 " fill="none" id="api.prsls.send_email-to-utils.email_helper.email_helper_functions" style="stroke:#181818;stroke-width:1.0;"/><polygon fill="#181818" points="3390.29,321.96,3398.4436,316.4357,3392.9336,317.716,3391.6532,312.2059,3390.29,321.96" style="stroke:#181818;stroke-width:1.0;"/></g><!--link api.reviewers.reviewers to utils.constants--><g id="link_api.reviewers.reviewers_utils.constants"><path codeLine="97" d="M1440,89.31 C1440,140.31 1440,261.65 1440,316.83 " fill="none" id="api.reviewers.reviewers-to-utils.constants" style="stroke:#181818;stroke-width:1.0;"/><polygon fill="#181818" points="1440,321.96,1444,312.96,1440,316.96,1436,312.96,1440,321.96" style="stroke:#181818;stroke-width:1.0;"/><text fill="#000000" font-family="sans-serif" font-size="13" lengthAdjust="spacing" textLength="121" x="1441" y="134.0669">ReviewerConstants</text></g><!--link utils.pht_handler.join_proposals_panels_reviews_decisions to utils.pht_handler.join_helpers--><g id="link_utils.pht_handler.join_proposals_panels_reviews_decisions_utils.pht_handler.join_helpers"><path codeLine="98" d="M4185,370.17 C4185,408.12 4185,483.39 4185,524.35 " fill="none" id="utils.pht_handler.join_proposals_panels_reviews_decisions-to-utils.pht_handler.join_helpers" style="stroke:#181818;stroke-width:1.0;"/><polygon fill="#181818" points="4185,529.41,4189,520.41,4185,524.41,4181,520.41,4185,529.41" style="stroke:#181818;stroke-width:1.0;"/><text fill="#000000" font-family="sans-serif" font-size="13" lengthAdjust="spacing" textLength="97" x="4186" y="462.0669">ProposalReport</text></g><!--SRC=[dLTDJ-Cm4BttLrXS5hJRzC0DhP0GXDLAhAWA75O8MMxijWRNzjeEg4BzxplETredJScbhVBcPTxupKpgb4PEeRboJgqHvOObZYiv6ccIl94bGoTwvKuGiGW-iNvRei_H2C5LtIUQdw2VFsSGIEHIiClB4jA2QME5tGUYnfK8OYsoJ5BCreGB0CDthRXqUrX_6UPI8-q5YZrwnlwbpBeMQXlWrqPfPOcmBVeMKCrV8SaQYK4ZBh4saCbtz2j-H1ElSVAPMcOmfzj-L4dUWPpUFvJGn33YM03pDBsvUemF4cw3skXYWAeY2xgOf5eeGZib0OAg3zc1kOdluYnH3sE2xQYf4zo6Z4Ca4vYoX5imPh-3Id6ja8CwVOex8L19r-sFZg0bEph6VYK8wxGdfbdDS37jy28Ejtw6xhyx-UphYXmots3VFnrTrAlDi7VEFWRDc1pQNVjETcQEu0Vm4VHQ6JUGt4FtakyRaDDYDiooq8CbBPA96ayQ-_P-Nd5AcNmPesoQH_Me7ZMwjzAKEjxdjGgNCU0L4vgPGTPi1k15AhEL5JQdWHG1b4MSdWK0jGPCx4OcEw3-ReALk2AIYaDvvmVt2WU5wwLID5XXstea05EfARoNCfvSVLYqFp5CZ24Rd3qvADnZ12mMww2_7NSR3Bt7QQV-MeSpHDg5CckSQWeCbQPmve72sNCyJvCtvWOTTuK-SDOFvt-OMocAJcEPhi-2Y6ib5tpPKGu2nv083kNeg9Xa9jVBB5zAHd5gmgxATtORYFCTYc4B3eyfj-gHKTcI3SJqslcT20xdUN3BvYueq0nJqCKJxwHkv-w433LC7fR0WKCgpZQdp3Sq7e_HxVtiEaPtLt_ldnulq9CVE2Zr7O-kfhyz8iF23elo5LeqM-jNQBvbeojgpfaeF7IQoSoOoAfdLrpR7yNqHMwZeJ9AYaqxdso2rY-Zu_5byTJw6AAzWWq8RmobgBDJTtdstWPhlghxeb0VmcwvkKKBBbYxqaM9RITjI6N3IHVeZbltFFKaBnLrQ345XGySjJjbQFprg6c7cA3EhzZxzRS6K-LZK3Shxb-tlFrb8NrbA3V5tcl0QFiV]--></g></svg>