<?xml version="1.0" encoding="UTF-8" standalone="no"?><svg xmlns="http://www.w3.org/2000/svg" xmlns:xlink="http://www.w3.org/1999/xlink" contentScriptType="application/ecmascript" contentStyleType="text/css" height="730px" preserveAspectRatio="none" style="width:2930px;height:730px;" version="1.1" viewBox="0 0 2930 730" width="2930px" zoomAndPan="magnify"><defs><filter height="300%" id="f1mayi487klpx0" width="300%" x="-1" y="-1"><feGaussianBlur result="blurOut" stdDeviation="2.0"/><feColorMatrix in="blurOut" result="blurOut2" type="matrix" values="0 0 0 0 0 0 0 0 0 0 0 0 0 0 0 0 0 0 .4 0"/><feOffset dx="4.0" dy="4.0" in="blurOut2" result="blurOut3"/><feBlend in="SourceGraphic" in2="blurOut3" mode="normal"/></filter></defs><g><!--MD5=[0ef7b0a853b052414e8ddbdfff61592c]
cluster common_pkg--><polygon fill="#FFFFFF" filter="url(#f1mayi487klpx0)" points="30,169.5,98,169.5,105,194.5679,2427,194.5679,2427,636,30,636,30,169.5" style="stroke: #000000; stroke-width: 1.5;"/><line style="stroke: #000000; stroke-width: 1.5;" x1="30" x2="105" y1="194.5679" y2="194.5679"/><text fill="#000000" font-family="sans-serif" font-size="14" font-weight="bold" lengthAdjust="spacingAndGlyphs" textLength="62" x="34" y="186.4659">common</text><!--MD5=[7442f3b126ee602ae02566c1a49e158a]
cluster api--><rect fill="#FFFFFF" filter="url(#f1mayi487klpx0)" height="373.5" style="stroke: #000000; stroke-width: 1.5;" width="1285" x="1102" y="230.5"/><text fill="#000000" font-family="sans-serif" font-size="14" font-weight="bold" lengthAdjust="spacingAndGlyphs" textLength="21" x="1734" y="247.4659">api</text><!--MD5=[aec4dfbc242988abf3a771a1bac9015d]
cluster panel_reviews--><rect fill="#FFFFFF" filter="url(#f1mayi487klpx0)" height="113" style="stroke: #000000; stroke-width: 1.5;" width="160" x="2203" y="276.5"/><text fill="#000000" font-family="sans-serif" font-size="14" font-weight="bold" lengthAdjust="spacingAndGlyphs" textLength="97" x="2234.5" y="293.4659">panel_reviews</text><!--MD5=[71aeb2b5971fb9e5060a231607016407]
cluster reviewers--><rect fill="#FFFFFF" filter="url(#f1mayi487klpx0)" height="113" style="stroke: #000000; stroke-width: 1.5;" width="120" x="2059" y="276.5"/><text fill="#000000" font-family="sans-serif" font-size="14" font-weight="bold" lengthAdjust="spacingAndGlyphs" textLength="67" x="2085.5" y="293.4659">reviewers</text><!--MD5=[7eb099b782c8c53c0a0fd0154e2a3c5a]
cluster panel_decision--><rect fill="#FFFFFF" filter="url(#f1mayi487klpx0)" height="113" style="stroke: #000000; stroke-width: 1.5;" width="176" x="1859" y="276.5"/><text fill="#000000" font-family="sans-serif" font-size="14" font-weight="bold" lengthAdjust="spacingAndGlyphs" textLength="101" x="1896.5" y="293.4659">panel_decision</text><!--MD5=[77d861399a1123fef45ea9cd206da0a1]
cluster panels--><rect fill="#FFFFFF" filter="url(#f1mayi487klpx0)" height="113" style="stroke: #000000; stroke-width: 1.5;" width="156" x="1679" y="276.5"/><text fill="#000000" font-family="sans-serif" font-size="14" font-weight="bold" lengthAdjust="spacingAndGlyphs" textLength="45" x="1734.5" y="293.4659">panels</text><!--MD5=[fca9b9c658b7e385df7266c6ae83d93c]
cluster reports--><rect fill="#FFFFFF" filter="url(#f1mayi487klpx0)" height="113" style="stroke: #000000; stroke-width: 1.5;" width="122" x="1533" y="276.5"/><text fill="#000000" font-family="sans-serif" font-size="14" font-weight="bold" lengthAdjust="spacingAndGlyphs" textLength="51" x="1568.5" y="293.4659">reports</text><!--MD5=[b11840e146ebf954aaa581ac45816cc4]
cluster prsls--><rect fill="#FFFFFF" filter="url(#f1mayi487klpx0)" height="303.5" style="stroke: #000000; stroke-width: 1.5;" width="251" x="1258" y="276.5"/><text fill="#000000" font-family="sans-serif" font-size="14" font-weight="bold" lengthAdjust="spacingAndGlyphs" textLength="33" x="1367" y="293.4659">prsls</text><!--MD5=[0c4a738b3201a23a254af68352446157]
cluster auth--><rect fill="#FFFFFF" filter="url(#f1mayi487klpx0)" height="102" style="stroke: #000000; stroke-width: 1.5;" width="98" x="980" y="282"/><text fill="#000000" font-family="sans-serif" font-size="14" font-weight="bold" lengthAdjust="spacingAndGlyphs" textLength="32" x="1013" y="298.9659">auth</text><!--MD5=[5aa9cef263bdf778c4b520c348877591]
cluster coordinateslookup--><rect fill="#FFFFFF" filter="url(#f1mayi487klpx0)" height="164" style="stroke: #000000; stroke-width: 1.5;" width="186" x="770" y="251"/><text fill="#000000" font-family="sans-serif" font-size="14" font-weight="bold" lengthAdjust="spacingAndGlyphs" textLength="131" x="797.5" y="267.9659">coordinateslookup</text><!--MD5=[ce41d11b8a3445ed9a487bc607c317c8]
cluster error_handling--><rect fill="#FFFFFF" filter="url(#f1mayi487klpx0)" height="219" style="stroke: #000000; stroke-width: 1.5;" width="232" x="514" y="223.5"/><text fill="#000000" font-family="sans-serif" font-size="14" font-weight="bold" lengthAdjust="spacingAndGlyphs" textLength="102" x="579" y="240.4659">error_handling</text><!--MD5=[5d4cd377749310b66bf14896f5cd8d9b]
cluster model--><rect fill="#FFFFFF" filter="url(#f1mayi487klpx0)" height="137" style="stroke: #000000; stroke-width: 1.5;" width="178" x="312" y="264.5"/><text fill="#000000" font-family="sans-serif" font-size="14" font-weight="bold" lengthAdjust="spacingAndGlyphs" textLength="44" x="379" y="281.4659">model</text><!--MD5=[15f9f4a5b8eeecf42964aba2e3ad9de6]
cluster osdmapper--><rect fill="#FFFFFF" filter="url(#f1mayi487klpx0)" height="191" style="stroke: #000000; stroke-width: 1.5;" width="226" x="62" y="237.5"/><text fill="#000000" font-family="sans-serif" font-size="14" font-weight="bold" lengthAdjust="spacingAndGlyphs" textLength="79" x="135.5" y="254.4659">osdmapper</text><!--MD5=[a6850b172e40c6d8806fe7a4d7d1c54c]
cluster odt_pkg--><polygon fill="#FFFFFF" filter="url(#f1mayi487klpx0)" points="2467,474.5,2497,474.5,2504,499.5679,2772,499.5679,2772,572.5,2467,572.5,2467,474.5" style="stroke: #000000; stroke-width: 1.5;"/><line style="stroke: #000000; stroke-width: 1.5;" x1="2467" x2="2504" y1="499.5679" y2="499.5679"/><text fill="#000000" font-family="sans-serif" font-size="14" font-weight="bold" lengthAdjust="spacingAndGlyphs" textLength="24" x="2471" y="491.4659">odt</text><!--MD5=[d5ac3844f66b12d9e08170e47495e096]
cluster app--><rect fill="#FFFFFF" filter="url(#f1mayi487klpx0)" height="113" style="stroke: #000000; stroke-width: 1.5;" width="255" x="2283" y="24.5"/><text fill="#000000" font-family="sans-serif" font-size="14" font-weight="bold" lengthAdjust="spacingAndGlyphs" textLength="26" x="2397.5" y="41.4659">app</text><!--MD5=[64467fbad954f4becbea8c2844aa2b4b]
class get_coordinates--><rect fill="#FEFECE" filter="url(#f1mayi487klpx0)" height="58.6882" id="get_coordinates" style="stroke: #A80036; stroke-width: 1.5;" width="121" x="1118.5" y="314.5"/><ellipse cx="1133.5" cy="335.8441" fill="#ADD1B2" rx="11" ry="11" style="stroke: #A80036; stroke-width: 1.0;"/><path d="M1136.4688,341.4847 Q1135.8906,341.7816 1135.25,341.9222 Q1134.6094,342.0785 1133.9063,342.0785 Q1131.4063,342.0785 1130.0781,340.4379 Q1128.7656,338.7816 1128.7656,335.6566 Q1128.7656,332.5316 1130.0781,330.8754 Q1131.4063,329.2191 1133.9063,329.2191 Q1134.6094,329.2191 1135.25,329.3754 Q1135.9063,329.5316 1136.4688,329.8285 L1136.4688,332.5472 Q1135.8438,331.9691 1135.25,331.7035 Q1134.6563,331.4222 1134.0313,331.4222 Q1132.6875,331.4222 1132,332.5004 Q1131.3125,333.5629 1131.3125,335.6566 Q1131.3125,337.7504 1132,338.8285 Q1132.6875,339.891 1134.0313,339.891 Q1134.6563,339.891 1135.25,339.6254 Q1135.8438,339.3441 1136.4688,338.766 L1136.4688,341.4847 Z "/><text fill="#000000" font-family="sans-serif" font-size="12" font-style="italic" lengthAdjust="spacingAndGlyphs" textLength="60" x="1162" y="332.3281">«endpoint»</text><text fill="#000000" font-family="sans-serif" font-size="12" lengthAdjust="spacingAndGlyphs" textLength="89" x="1147.5" y="348.6722">get_coordinates</text><line style="stroke: #A80036; stroke-width: 1.5;" x1="1119.5" x2="1238.5" y1="357.1882" y2="357.1882"/><line style="stroke: #A80036; stroke-width: 1.5;" x1="1119.5" x2="1238.5" y1="365.1882" y2="365.1882"/><!--MD5=[f30e3a266a0087168e41db5488358f59]
class panel_review_get--><rect fill="#FEFECE" filter="url(#f1mayi487klpx0)" height="58.6882" id="panel_review_get" style="stroke: #A80036; stroke-width: 1.5;" width="128" x="2219" y="314.5"/><ellipse cx="2234" cy="335.8441" fill="#ADD1B2" rx="11" ry="11" style="stroke: #A80036; stroke-width: 1.0;"/><path d="M2236.9688,341.4847 Q2236.3906,341.7816 2235.75,341.9222 Q2235.1094,342.0785 2234.4063,342.0785 Q2231.9063,342.0785 2230.5781,340.4379 Q2229.2656,338.7816 2229.2656,335.6566 Q2229.2656,332.5316 2230.5781,330.8754 Q2231.9063,329.2191 2234.4063,329.2191 Q2235.1094,329.2191 2235.75,329.3754 Q2236.4063,329.5316 2236.9688,329.8285 L2236.9688,332.5472 Q2236.3438,331.9691 2235.75,331.7035 Q2235.1563,331.4222 2234.5313,331.4222 Q2233.1875,331.4222 2232.5,332.5004 Q2231.8125,333.5629 2231.8125,335.6566 Q2231.8125,337.7504 2232.5,338.8285 Q2233.1875,339.891 2234.5313,339.891 Q2235.1563,339.891 2235.75,339.6254 Q2236.3438,339.3441 2236.9688,338.766 L2236.9688,341.4847 Z "/><text fill="#000000" font-family="sans-serif" font-size="12" font-style="italic" lengthAdjust="spacingAndGlyphs" textLength="60" x="2266" y="332.3281">«endpoint»</text><text fill="#000000" font-family="sans-serif" font-size="12" lengthAdjust="spacingAndGlyphs" textLength="96" x="2248" y="348.6722">panel_review_get</text><line style="stroke: #A80036; stroke-width: 1.5;" x1="2220" x2="2346" y1="357.1882" y2="357.1882"/><line style="stroke: #A80036; stroke-width: 1.5;" x1="2220" x2="2346" y1="365.1882" y2="365.1882"/><!--MD5=[857edbceb91ca681401630858a50ce10]
class reviewers--><rect fill="#FEFECE" filter="url(#f1mayi487klpx0)" height="58.6882" id="reviewers" style="stroke: #A80036; stroke-width: 1.5;" width="88" x="2075" y="314.5"/><ellipse cx="2090" cy="335.8441" fill="#ADD1B2" rx="11" ry="11" style="stroke: #A80036; stroke-width: 1.0;"/><path d="M2092.9688,341.4847 Q2092.3906,341.7816 2091.75,341.9222 Q2091.1094,342.0785 2090.4063,342.0785 Q2087.9063,342.0785 2086.5781,340.4379 Q2085.2656,338.7816 2085.2656,335.6566 Q2085.2656,332.5316 2086.5781,330.8754 Q2087.9063,329.2191 2090.4063,329.2191 Q2091.1094,329.2191 2091.75,329.3754 Q2092.4063,329.5316 2092.9688,329.8285 L2092.9688,332.5472 Q2092.3438,331.9691 2091.75,331.7035 Q2091.1563,331.4222 2090.5313,331.4222 Q2089.1875,331.4222 2088.5,332.5004 Q2087.8125,333.5629 2087.8125,335.6566 Q2087.8125,337.7504 2088.5,338.8285 Q2089.1875,339.891 2090.5313,339.891 Q2091.1563,339.891 2091.75,339.6254 Q2092.3438,339.3441 2092.9688,338.766 L2092.9688,341.4847 Z "/><text fill="#000000" font-family="sans-serif" font-size="12" font-style="italic" lengthAdjust="spacingAndGlyphs" textLength="60" x="2102" y="332.3281">«endpoint»</text><text fill="#000000" font-family="sans-serif" font-size="12" lengthAdjust="spacingAndGlyphs" textLength="55" x="2104.5" y="348.6722">reviewers</text><line style="stroke: #A80036; stroke-width: 1.5;" x1="2076" x2="2162" y1="357.1882" y2="357.1882"/><line style="stroke: #A80036; stroke-width: 1.5;" x1="2076" x2="2162" y1="365.1882" y2="365.1882"/><!--MD5=[01de8f7335d382dfe0b018d7c542da94]
class panel_decision_post--><rect fill="#FEFECE" filter="url(#f1mayi487klpx0)" height="58.6882" id="panel_decision_post" style="stroke: #A80036; stroke-width: 1.5;" width="143" x="1875.5" y="314.5"/><ellipse cx="1890.5" cy="335.8441" fill="#ADD1B2" rx="11" ry="11" style="stroke: #A80036; stroke-width: 1.0;"/><path d="M1893.4688,341.4847 Q1892.8906,341.7816 1892.25,341.9222 Q1891.6094,342.0785 1890.9063,342.0785 Q1888.4063,342.0785 1887.0781,340.4379 Q1885.7656,338.7816 1885.7656,335.6566 Q1885.7656,332.5316 1887.0781,330.8754 Q1888.4063,329.2191 1890.9063,329.2191 Q1891.6094,329.2191 1892.25,329.3754 Q1892.9063,329.5316 1893.4688,329.8285 L1893.4688,332.5472 Q1892.8438,331.9691 1892.25,331.7035 Q1891.6563,331.4222 1891.0313,331.4222 Q1889.6875,331.4222 1889,332.5004 Q1888.3125,333.5629 1888.3125,335.6566 Q1888.3125,337.7504 1889,338.8285 Q1889.6875,339.891 1891.0313,339.891 Q1891.6563,339.891 1892.25,339.6254 Q1892.8438,339.3441 1893.4688,338.766 L1893.4688,341.4847 Z "/><text fill="#000000" font-family="sans-serif" font-size="12" font-style="italic" lengthAdjust="spacingAndGlyphs" textLength="60" x="1930" y="332.3281">«endpoint»</text><text fill="#000000" font-family="sans-serif" font-size="12" lengthAdjust="spacingAndGlyphs" textLength="111" x="1904.5" y="348.6722">panel_decision_post</text><line style="stroke: #A80036; stroke-width: 1.5;" x1="1876.5" x2="2017.5" y1="357.1882" y2="357.1882"/><line style="stroke: #A80036; stroke-width: 1.5;" x1="1876.5" x2="2017.5" y1="365.1882" y2="365.1882"/><!--MD5=[5e6ad827dfc2abf5119664c1181e7697]
class panels_endpoint--><rect fill="#FEFECE" filter="url(#f1mayi487klpx0)" height="58.6882" id="panels_endpoint" style="stroke: #A80036; stroke-width: 1.5;" width="123" x="1695.5" y="314.5"/><ellipse cx="1710.5" cy="335.8441" fill="#ADD1B2" rx="11" ry="11" style="stroke: #A80036; stroke-width: 1.0;"/><path d="M1713.4688,341.4847 Q1712.8906,341.7816 1712.25,341.9222 Q1711.6094,342.0785 1710.9063,342.0785 Q1708.4063,342.0785 1707.0781,340.4379 Q1705.7656,338.7816 1705.7656,335.6566 Q1705.7656,332.5316 1707.0781,330.8754 Q1708.4063,329.2191 1710.9063,329.2191 Q1711.6094,329.2191 1712.25,329.3754 Q1712.9063,329.5316 1713.4688,329.8285 L1713.4688,332.5472 Q1712.8438,331.9691 1712.25,331.7035 Q1711.6563,331.4222 1711.0313,331.4222 Q1709.6875,331.4222 1709,332.5004 Q1708.3125,333.5629 1708.3125,335.6566 Q1708.3125,337.7504 1709,338.8285 Q1709.6875,339.891 1711.0313,339.891 Q1711.6563,339.891 1712.25,339.6254 Q1712.8438,339.3441 1713.4688,338.766 L1713.4688,341.4847 Z "/><text fill="#000000" font-family="sans-serif" font-size="12" font-style="italic" lengthAdjust="spacingAndGlyphs" textLength="60" x="1740" y="332.3281">«endpoint»</text><text fill="#000000" font-family="sans-serif" font-size="12" lengthAdjust="spacingAndGlyphs" textLength="91" x="1724.5" y="348.6722">panels_endpoint</text><line style="stroke: #A80036; stroke-width: 1.5;" x1="1696.5" x2="1817.5" y1="357.1882" y2="357.1882"/><line style="stroke: #A80036; stroke-width: 1.5;" x1="1696.5" x2="1817.5" y1="365.1882" y2="365.1882"/><!--MD5=[18cfa444159ff0b0969054e5bc4da272]
class report_get--><rect fill="#FEFECE" filter="url(#f1mayi487klpx0)" height="58.6882" id="report_get" style="stroke: #A80036; stroke-width: 1.5;" width="90" x="1549" y="314.5"/><ellipse cx="1564" cy="335.8441" fill="#ADD1B2" rx="11" ry="11" style="stroke: #A80036; stroke-width: 1.0;"/><path d="M1566.9688,341.4847 Q1566.3906,341.7816 1565.75,341.9222 Q1565.1094,342.0785 1564.4063,342.0785 Q1561.9063,342.0785 1560.5781,340.4379 Q1559.2656,338.7816 1559.2656,335.6566 Q1559.2656,332.5316 1560.5781,330.8754 Q1561.9063,329.2191 1564.4063,329.2191 Q1565.1094,329.2191 1565.75,329.3754 Q1566.4063,329.5316 1566.9688,329.8285 L1566.9688,332.5472 Q1566.3438,331.9691 1565.75,331.7035 Q1565.1563,331.4222 1564.5313,331.4222 Q1563.1875,331.4222 1562.5,332.5004 Q1561.8125,333.5629 1561.8125,335.6566 Q1561.8125,337.7504 1562.5,338.8285 Q1563.1875,339.891 1564.5313,339.891 Q1565.1563,339.891 1565.75,339.6254 Q1566.3438,339.3441 1566.9688,338.766 L1566.9688,341.4847 Z "/><text fill="#000000" font-family="sans-serif" font-size="12" font-style="italic" lengthAdjust="spacingAndGlyphs" textLength="60" x="1577" y="332.3281">«endpoint»</text><text fill="#000000" font-family="sans-serif" font-size="12" lengthAdjust="spacingAndGlyphs" textLength="58" x="1578" y="348.6722">report_get</text><line style="stroke: #A80036; stroke-width: 1.5;" x1="1550" x2="1638" y1="357.1882" y2="357.1882"/><line style="stroke: #A80036; stroke-width: 1.5;" x1="1550" x2="1638" y1="365.1882" y2="365.1882"/><!--MD5=[7f4d221c7999c665fbcf3b3d89086240]
class send_email--><rect fill="#FEFECE" filter="url(#f1mayi487klpx0)" height="58.6882" id="send_email" style="stroke: #A80036; stroke-width: 1.5;" width="95" x="1274.5" y="314.5"/><ellipse cx="1289.5" cy="335.8441" fill="#ADD1B2" rx="11" ry="11" style="stroke: #A80036; stroke-width: 1.0;"/><path d="M1292.4688,341.4847 Q1291.8906,341.7816 1291.25,341.9222 Q1290.6094,342.0785 1289.9063,342.0785 Q1287.4063,342.0785 1286.0781,340.4379 Q1284.7656,338.7816 1284.7656,335.6566 Q1284.7656,332.5316 1286.0781,330.8754 Q1287.4063,329.2191 1289.9063,329.2191 Q1290.6094,329.2191 1291.25,329.3754 Q1291.9063,329.5316 1292.4688,329.8285 L1292.4688,332.5472 Q1291.8438,331.9691 1291.25,331.7035 Q1290.6563,331.4222 1290.0313,331.4222 Q1288.6875,331.4222 1288,332.5004 Q1287.3125,333.5629 1287.3125,335.6566 Q1287.3125,337.7504 1288,338.8285 Q1288.6875,339.891 1290.0313,339.891 Q1290.6563,339.891 1291.25,339.6254 Q1291.8438,339.3441 1292.4688,338.766 L1292.4688,341.4847 Z "/><text fill="#000000" font-family="sans-serif" font-size="12" font-style="italic" lengthAdjust="spacingAndGlyphs" textLength="60" x="1305" y="332.3281">«endpoint»</text><text fill="#000000" font-family="sans-serif" font-size="12" lengthAdjust="spacingAndGlyphs" textLength="63" x="1303.5" y="348.6722">send_email</text><line style="stroke: #A80036; stroke-width: 1.5;" x1="1275.5" x2="1368.5" y1="357.1882" y2="357.1882"/><line style="stroke: #A80036; stroke-width: 1.5;" x1="1275.5" x2="1368.5" y1="365.1882" y2="365.1882"/><!--MD5=[6433afa9da5f1a291fb04733b722f1eb]
class proposals--><rect fill="#FEFECE" filter="url(#f1mayi487klpx0)" height="58.6882" id="proposals" style="stroke: #A80036; stroke-width: 1.5;" width="88" x="1405" y="314.5"/><ellipse cx="1420" cy="335.8441" fill="#ADD1B2" rx="11" ry="11" style="stroke: #A80036; stroke-width: 1.0;"/><path d="M1422.9688,341.4847 Q1422.3906,341.7816 1421.75,341.9222 Q1421.1094,342.0785 1420.4063,342.0785 Q1417.9063,342.0785 1416.5781,340.4379 Q1415.2656,338.7816 1415.2656,335.6566 Q1415.2656,332.5316 1416.5781,330.8754 Q1417.9063,329.2191 1420.4063,329.2191 Q1421.1094,329.2191 1421.75,329.3754 Q1422.4063,329.5316 1422.9688,329.8285 L1422.9688,332.5472 Q1422.3438,331.9691 1421.75,331.7035 Q1421.1563,331.4222 1420.5313,331.4222 Q1419.1875,331.4222 1418.5,332.5004 Q1417.8125,333.5629 1417.8125,335.6566 Q1417.8125,337.7504 1418.5,338.8285 Q1419.1875,339.891 1420.5313,339.891 Q1421.1563,339.891 1421.75,339.6254 Q1422.3438,339.3441 1422.9688,338.766 L1422.9688,341.4847 Z "/><text fill="#000000" font-family="sans-serif" font-size="12" font-style="italic" lengthAdjust="spacingAndGlyphs" textLength="60" x="1432" y="332.3281">«endpoint»</text><text fill="#000000" font-family="sans-serif" font-size="12" lengthAdjust="spacingAndGlyphs" textLength="55" x="1434.5" y="348.6722">proposals</text><line style="stroke: #A80036; stroke-width: 1.5;" x1="1406" x2="1492" y1="357.1882" y2="357.1882"/><line style="stroke: #A80036; stroke-width: 1.5;" x1="1406" x2="1492" y1="365.1882" y2="365.1882"/><!--MD5=[6476ab1074e051515cd3a862876787ba]
class pdf--><rect fill="#FEFECE" filter="url(#f1mayi487klpx0)" height="58.6882" id="pdf" style="stroke: #A80036; stroke-width: 1.5;" width="88" x="1278" y="505"/><ellipse cx="1293" cy="526.3441" fill="#ADD1B2" rx="11" ry="11" style="stroke: #A80036; stroke-width: 1.0;"/><path d="M1295.9688,531.9847 Q1295.3906,532.2816 1294.75,532.4222 Q1294.1094,532.5785 1293.4063,532.5785 Q1290.9063,532.5785 1289.5781,530.9379 Q1288.2656,529.2816 1288.2656,526.1566 Q1288.2656,523.0316 1289.5781,521.3754 Q1290.9063,519.7191 1293.4063,519.7191 Q1294.1094,519.7191 1294.75,519.8754 Q1295.4063,520.0316 1295.9688,520.3285 L1295.9688,523.0472 Q1295.3438,522.4691 1294.75,522.2035 Q1294.1563,521.9222 1293.5313,521.9222 Q1292.1875,521.9222 1291.5,523.0004 Q1290.8125,524.0629 1290.8125,526.1566 Q1290.8125,528.2504 1291.5,529.3285 Q1292.1875,530.391 1293.5313,530.391 Q1294.1563,530.391 1294.75,530.1254 Q1295.3438,529.8441 1295.9688,529.266 L1295.9688,531.9847 Z "/><text fill="#000000" font-family="sans-serif" font-size="12" font-style="italic" lengthAdjust="spacingAndGlyphs" textLength="60" x="1305" y="522.8281">«endpoint»</text><text fill="#000000" font-family="sans-serif" font-size="12" lengthAdjust="spacingAndGlyphs" textLength="18" x="1326" y="539.1722">pdf</text><line style="stroke: #A80036; stroke-width: 1.5;" x1="1279" x2="1365" y1="547.6882" y2="547.6882"/><line style="stroke: #A80036; stroke-width: 1.5;" x1="1279" x2="1365" y1="555.6882" y2="555.6882"/><!--MD5=[bece8b4c4229b3549b4a8159d27930ed]
class Scope--><rect fill="#FEFECE" filter="url(#f1mayi487klpx0)" height="48" id="Scope" style="stroke: #A80036; stroke-width: 1.5;" width="66" x="996" y="320"/><ellipse cx="1011" cy="336" fill="#ADD1B2" rx="11" ry="11" style="stroke: #A80036; stroke-width: 1.0;"/><path d="M1013.9688,341.6406 Q1013.3906,341.9375 1012.75,342.0781 Q1012.1094,342.2344 1011.4063,342.2344 Q1008.9063,342.2344 1007.5781,340.5938 Q1006.2656,338.9375 1006.2656,335.8125 Q1006.2656,332.6875 1007.5781,331.0313 Q1008.9063,329.375 1011.4063,329.375 Q1012.1094,329.375 1012.75,329.5313 Q1013.4063,329.6875 1013.9688,329.9844 L1013.9688,332.7031 Q1013.3438,332.125 1012.75,331.8594 Q1012.1563,331.5781 1011.5313,331.5781 Q1010.1875,331.5781 1009.5,332.6563 Q1008.8125,333.7188 1008.8125,335.8125 Q1008.8125,337.9063 1009.5,338.9844 Q1010.1875,340.0469 1011.5313,340.0469 Q1012.1563,340.0469 1012.75,339.7813 Q1013.3438,339.5 1013.9688,338.9219 L1013.9688,341.6406 Z "/><text fill="#000000" font-family="sans-serif" font-size="12" lengthAdjust="spacingAndGlyphs" textLength="34" x="1025" y="340.656">Scope</text><line style="stroke: #A80036; stroke-width: 1.5;" x1="997" x2="1061" y1="352" y2="352"/><line style="stroke: #A80036; stroke-width: 1.5;" x1="997" x2="1061" y1="360" y2="360"/><rect fill="#FEFECE" filter="url(#f1mayi487klpx0)" height="110.064" style="stroke: #A80036; stroke-width: 1.5;" width="153" x="786.5" y="289"/><text fill="#000000" font-family="sans-serif" font-size="12" lengthAdjust="spacingAndGlyphs" textLength="139" x="793.5" y="303.8281">coordinateslookup_items</text><line style="stroke: #A80036; stroke-width: 1.5;" x1="787.5" x2="938.5" y1="309.3441" y2="309.3441"/><ellipse cx="797.5" cy="320.3441" fill="none" rx="3" ry="3" style="stroke: #038048; stroke-width: 1.0;"/><text fill="#000000" font-family="sans-serif" font-size="10" lengthAdjust="spacingAndGlyphs" textLength="50" x="806.5" y="324.0341">Equatorial</text><ellipse cx="797.5" cy="333.9641" fill="none" rx="3" ry="3" style="stroke: #038048; stroke-width: 1.0;"/><text fill="#000000" font-family="sans-serif" font-size="10" lengthAdjust="spacingAndGlyphs" textLength="39" x="806.5" y="337.6541">Galactic</text><ellipse cx="797.5" cy="347.5841" fill="none" rx="3" ry="3" style="stroke: #038048; stroke-width: 1.0;"/><text fill="#000000" font-family="sans-serif" font-size="10" lengthAdjust="spacingAndGlyphs" textLength="99" x="806.5" y="351.2741">convert_ra_dec_deg()</text><ellipse cx="797.5" cy="361.2041" fill="none" rx="3" ry="3" style="stroke: #038048; stroke-width: 1.0;"/><text fill="#000000" font-family="sans-serif" font-size="10" lengthAdjust="spacingAndGlyphs" textLength="98" x="806.5" y="364.8941">convert_to_galactic()</text><ellipse cx="797.5" cy="374.8241" fill="none" rx="3" ry="3" style="stroke: #038048; stroke-width: 1.0;"/><text fill="#000000" font-family="sans-serif" font-size="10" lengthAdjust="spacingAndGlyphs" textLength="83" x="806.5" y="378.5141">get_coordinates()</text><ellipse cx="797.5" cy="388.4441" fill="none" rx="3" ry="3" style="stroke: #038048; stroke-width: 1.0;"/><text fill="#000000" font-family="sans-serif" font-size="10" lengthAdjust="spacingAndGlyphs" textLength="65" x="806.5" y="392.134">round_coord()</text><rect fill="#FEFECE" filter="url(#f1mayi487klpx0)" height="164.544" style="stroke: #A80036; stroke-width: 1.5;" width="200" x="530" y="261.5"/><text fill="#000000" font-family="sans-serif" font-size="12" lengthAdjust="spacingAndGlyphs" textLength="118" x="571" y="276.3281">error_handling_items</text><line style="stroke: #A80036; stroke-width: 1.5;" x1="531" x2="729" y1="281.8441" y2="281.8441"/><ellipse cx="541" cy="292.8441" fill="none" rx="3" ry="3" style="stroke: #038048; stroke-width: 1.0;"/><text fill="#000000" font-family="sans-serif" font-size="10" lengthAdjust="spacingAndGlyphs" textLength="82" x="550" y="296.5341">BadRequestError</text><ellipse cx="541" cy="306.4641" fill="none" rx="3" ry="3" style="stroke: #038048; stroke-width: 1.0;"/><text fill="#000000" font-family="sans-serif" font-size="10" lengthAdjust="spacingAndGlyphs" textLength="70" x="550" y="310.1541">DuplicateError</text><ellipse cx="541" cy="320.0841" fill="none" rx="3" ry="3" style="stroke: #038048; stroke-width: 1.0;"/><text fill="#000000" font-family="sans-serif" font-size="10" lengthAdjust="spacingAndGlyphs" textLength="71" x="550" y="323.7741">NotFoundError</text><ellipse cx="541" cy="333.7041" fill="none" rx="3" ry="3" style="stroke: #038048; stroke-width: 1.0;"/><text fill="#000000" font-family="sans-serif" font-size="10" lengthAdjust="spacingAndGlyphs" textLength="123" x="550" y="337.3941">UnprocessableEntityError</text><ellipse cx="541" cy="347.3241" fill="none" rx="3" ry="3" style="stroke: #038048; stroke-width: 1.0;"/><text fill="#000000" font-family="sans-serif" font-size="10" lengthAdjust="spacingAndGlyphs" textLength="84" x="550" y="351.0141">_make_response()</text><ellipse cx="541" cy="360.9441" fill="none" rx="3" ry="3" style="stroke: #038048; stroke-width: 1.0;"/><text fill="#000000" font-family="sans-serif" font-size="10" lengthAdjust="spacingAndGlyphs" textLength="174" x="550" y="364.634">dangerous_internal_server_handler()</text><ellipse cx="541" cy="374.564" fill="none" rx="3" ry="3" style="stroke: #038048; stroke-width: 1.0;"/><text fill="#000000" font-family="sans-serif" font-size="10" lengthAdjust="spacingAndGlyphs" textLength="67" x="550" y="378.254">error_details()</text><ellipse cx="541" cy="388.184" fill="none" rx="3" ry="3" style="stroke: #038048; stroke-width: 1.0;"/><text fill="#000000" font-family="sans-serif" font-size="10" lengthAdjust="spacingAndGlyphs" textLength="93" x="550" y="391.874">oda_error_handler()</text><ellipse cx="541" cy="401.804" fill="none" rx="3" ry="3" style="stroke: #038048; stroke-width: 1.0;"/><text fill="#000000" font-family="sans-serif" font-size="10" lengthAdjust="spacingAndGlyphs" textLength="116" x="550" y="405.494">oda_not_found_handler()</text><ellipse cx="541" cy="415.424" fill="none" rx="3" ry="3" style="stroke: #038048; stroke-width: 1.0;"/><text fill="#000000" font-family="sans-serif" font-size="10" lengthAdjust="spacingAndGlyphs" textLength="155" x="550" y="419.114">oda_unique_constraint_handler()</text><rect fill="#FEFECE" filter="url(#f1mayi487klpx0)" height="82.8241" style="stroke: #A80036; stroke-width: 1.5;" width="145" x="328.5" y="302.5"/><text fill="#000000" font-family="sans-serif" font-size="12" lengthAdjust="spacingAndGlyphs" textLength="71" x="365.5" y="317.3281">model_items</text><line style="stroke: #A80036; stroke-width: 1.5;" x1="329.5" x2="472.5" y1="322.8441" y2="322.8441"/><ellipse cx="339.5" cy="333.8441" fill="none" rx="3" ry="3" style="stroke: #038048; stroke-width: 1.0;"/><text fill="#000000" font-family="sans-serif" font-size="10" lengthAdjust="spacingAndGlyphs" textLength="48" x="348.5" y="337.5341">AppModel</text><ellipse cx="339.5" cy="347.4641" fill="none" rx="3" ry="3" style="stroke: #038048; stroke-width: 1.0;"/><text fill="#000000" font-family="sans-serif" font-size="10" lengthAdjust="spacingAndGlyphs" textLength="58" x="348.5" y="351.1541">ErrorDetails</text><ellipse cx="339.5" cy="361.0841" fill="none" rx="3" ry="3" style="stroke: #038048; stroke-width: 1.0;"/><text fill="#000000" font-family="sans-serif" font-size="10" lengthAdjust="spacingAndGlyphs" textLength="119" x="348.5" y="364.7741">ErrorResponseTraceback</text><ellipse cx="339.5" cy="374.7041" fill="none" rx="3" ry="3" style="stroke: #038048; stroke-width: 1.0;"/><text fill="#000000" font-family="sans-serif" font-size="10" lengthAdjust="spacingAndGlyphs" textLength="95" x="348.5" y="378.3941">ValidationResponse</text><rect fill="#FEFECE" filter="url(#f1mayi487klpx0)" height="137.304" style="stroke: #A80036; stroke-width: 1.5;" width="193" x="78.5" y="275.5"/><text fill="#000000" font-family="sans-serif" font-size="12" lengthAdjust="spacingAndGlyphs" textLength="100" x="125" y="290.3281">osdmapper_items</text><line style="stroke: #A80036; stroke-width: 1.5;" x1="79.5" x2="270.5" y1="295.8441" y2="295.8441"/><ellipse cx="89.5" cy="306.8441" fill="none" rx="3" ry="3" style="stroke: #038048; stroke-width: 1.0;"/><text fill="#000000" font-family="sans-serif" font-size="10" lengthAdjust="spacingAndGlyphs" textLength="74" x="98.5" y="310.5341">FrequencyBand</text><ellipse cx="89.5" cy="320.4641" fill="none" rx="3" ry="3" style="stroke: #038048; stroke-width: 1.0;"/><text fill="#000000" font-family="sans-serif" font-size="10" lengthAdjust="spacingAndGlyphs" textLength="42" x="98.5" y="324.1541">Subarray</text><ellipse cx="89.5" cy="334.0841" fill="none" rx="3" ry="3" style="stroke: #038048; stroke-width: 1.0;"/><text fill="#000000" font-family="sans-serif" font-size="10" lengthAdjust="spacingAndGlyphs" textLength="83" x="98.5" y="337.7741">MidConfiguration</text><ellipse cx="89.5" cy="347.7041" fill="none" rx="3" ry="3" style="stroke: #038048; stroke-width: 1.0;"/><text fill="#000000" font-family="sans-serif" font-size="10" lengthAdjust="spacingAndGlyphs" textLength="84" x="98.5" y="351.3941">LowConfiguration</text><ellipse cx="89.5" cy="361.3241" fill="none" rx="3" ry="3" style="stroke: #038048; stroke-width: 1.0;"/><text fill="#000000" font-family="sans-serif" font-size="10" lengthAdjust="spacingAndGlyphs" textLength="65" x="98.5" y="365.0141">Configuration</text><ellipse cx="89.5" cy="374.9441" fill="none" rx="3" ry="3" style="stroke: #038048; stroke-width: 1.0;"/><text fill="#000000" font-family="sans-serif" font-size="10" lengthAdjust="spacingAndGlyphs" textLength="117" x="98.5" y="378.634">configuration_from_osd()</text><ellipse cx="89.5" cy="388.564" fill="none" rx="3" ry="3" style="stroke: #038048; stroke-width: 1.0;"/><text fill="#000000" font-family="sans-serif" font-size="10" lengthAdjust="spacingAndGlyphs" textLength="167" x="98.5" y="392.254">_get_mid_telescope_configuration()</text><ellipse cx="89.5" cy="402.184" fill="none" rx="3" ry="3" style="stroke: #038048; stroke-width: 1.0;"/><text fill="#000000" font-family="sans-serif" font-size="10" lengthAdjust="spacingAndGlyphs" textLength="166" x="98.5" y="405.874">_get_low_telescope_configuration()</text><path d="M2510.5,520.5 L2510.5,548.206 L2747.5,548.206 L2747.5,530.5 L2737.5,520.5 L2510.5,520.5 " fill="#FBFB77" filter="url(#f1mayi487klpx0)" style="stroke: #A80036; stroke-width: 1.0;"/><path d="M2737.5,520.5 L2737.5,530.5 L2747.5,530.5 L2737.5,520.5 " fill="#FBFB77" style="stroke: #A80036; stroke-width: 1.0;"/><text fill="#000000" font-family="sans-serif" font-size="13" lengthAdjust="spacingAndGlyphs" textLength="216" x="2516.5" y="539.397">"ODT section minimized in this view"</text><polygon fill="#FFFFFF" filter="url(#f1mayi487klpx0)" points="2453,660,2483,660,2490,685.0679,2497,685.0679,2497,718.1358,2453,718.1358,2453,660" style="stroke: #000000; stroke-width: 1.5;"/><line style="stroke: #000000; stroke-width: 1.5;" x1="2453" x2="2490" y1="685.0679" y2="685.0679"/><text fill="#000000" font-family="sans-serif" font-size="14" font-weight="bold" lengthAdjust="spacingAndGlyphs" textLength="24" x="2457" y="676.9659">pht</text><!--MD5=[ca6a82bc40cebf8d03f527c80d8d0ada]
class create_app--><rect fill="#FEFECE" filter="url(#f1mayi487klpx0)" height="58.6882" id="create_app" style="stroke: #A80036; stroke-width: 1.5;" width="94" x="2299" y="62.5"/><ellipse cx="2314" cy="83.8441" fill="#ADD1B2" rx="11" ry="11" style="stroke: #A80036; stroke-width: 1.0;"/><path d="M2316.9688,89.4847 Q2316.3906,89.7816 2315.75,89.9222 Q2315.1094,90.0785 2314.4063,90.0785 Q2311.9063,90.0785 2310.5781,88.4379 Q2309.2656,86.7816 2309.2656,83.6566 Q2309.2656,80.5316 2310.5781,78.8754 Q2311.9063,77.2191 2314.4063,77.2191 Q2315.1094,77.2191 2315.75,77.3754 Q2316.4063,77.5316 2316.9688,77.8285 L2316.9688,80.5472 Q2316.3438,79.9691 2315.75,79.7035 Q2315.1563,79.4222 2314.5313,79.4222 Q2313.1875,79.4222 2312.5,80.5004 Q2311.8125,81.5629 2311.8125,83.6566 Q2311.8125,85.7504 2312.5,86.8285 Q2313.1875,87.891 2314.5313,87.891 Q2315.1563,87.891 2315.75,87.6254 Q2316.3438,87.3441 2316.9688,86.766 L2316.9688,89.4847 Z "/><text fill="#000000" font-family="sans-serif" font-size="12" font-style="italic" lengthAdjust="spacingAndGlyphs" textLength="56" x="2331" y="80.3281">«function»</text><text fill="#000000" font-family="sans-serif" font-size="12" lengthAdjust="spacingAndGlyphs" textLength="62" x="2328" y="96.6722">create_app</text><line style="stroke: #A80036; stroke-width: 1.5;" x1="2300" x2="2392" y1="105.1882" y2="105.1882"/><line style="stroke: #A80036; stroke-width: 1.5;" x1="2300" x2="2392" y1="113.1882" y2="113.1882"/><!--MD5=[b1db2370d9508e97779578185ae1ba2a]
class app.create_app--><rect fill="#FEFECE" filter="url(#f1mayi487klpx0)" height="48" id="app.create_app" style="stroke: #A80036; stroke-width: 1.5;" width="94" x="2428" y="68"/><ellipse cx="2443" cy="84" fill="#ADD1B2" rx="11" ry="11" style="stroke: #A80036; stroke-width: 1.0;"/><path d="M2445.9688,89.6406 Q2445.3906,89.9375 2444.75,90.0781 Q2444.1094,90.2344 2443.4063,90.2344 Q2440.9063,90.2344 2439.5781,88.5938 Q2438.2656,86.9375 2438.2656,83.8125 Q2438.2656,80.6875 2439.5781,79.0313 Q2440.9063,77.375 2443.4063,77.375 Q2444.1094,77.375 2444.75,77.5313 Q2445.4063,77.6875 2445.9688,77.9844 L2445.9688,80.7031 Q2445.3438,80.125 2444.75,79.8594 Q2444.1563,79.5781 2443.5313,79.5781 Q2442.1875,79.5781 2441.5,80.6563 Q2440.8125,81.7188 2440.8125,83.8125 Q2440.8125,85.9063 2441.5,86.9844 Q2442.1875,88.0469 2443.5313,88.0469 Q2444.1563,88.0469 2444.75,87.7813 Q2445.3438,87.5 2445.9688,86.9219 L2445.9688,89.6406 Z "/><text fill="#000000" font-family="sans-serif" font-size="12" lengthAdjust="spacingAndGlyphs" textLength="62" x="2457" y="88.656">create_app</text><line style="stroke: #A80036; stroke-width: 1.5;" x1="2429" x2="2521" y1="100" y2="100"/><line style="stroke: #A80036; stroke-width: 1.5;" x1="2429" x2="2521" y1="108" y2="108"/><!--MD5=[98af0685578bd26d31dc95e97d3e65d0]
link common_pkg to odt_pkg--><!--MD5=[98af0685578bd26d31dc95e97d3e65d0]
link common_pkg to odt_pkg--><!--MD5=[f89c4b971605eba6d21df88b6a906589]
link odt_pkg to pht_pkg--><!--MD5=[f89c4b971605eba6d21df88b6a906589]
link odt_pkg to pht_pkg--><!--MD5=[e7d3306de4ce405e9d7b167982da962a]
reverse link app.create_app to common_pkg--><path d="M2461.3,120.88 C2456.81,130.96 2452.17,142.55 2449,153.5 C2443.1725,173.66 2438.3963,195.3737 2434.5067,216.6556 C2432.562,227.2966 2430.8389,237.8295 2429.3169,248.0063 C2428.5559,253.0947 2427.8452,258.0941 2427.1822,262.9734 C2427.1408,263.2783 2427.0995,263.5828 2427.0584,263.8868 " fill="none" id="app.create_app&lt;-common_pkg" style="stroke: #A80036; stroke-width: 1.0;"/><polygon fill="#A80036" points="2463.48,116.06,2456.1143,122.5981,2461.411,120.6118,2463.3972,125.9085,2463.48,116.06" style="stroke: #A80036; stroke-width: 1.0;"/><!--MD5=[7e52a38f3b572c277841126e4738df4a]
reverse link app.create_app to odt_pkg--><path d="M2475,121.31 C2475,169.58 2475,271.3775 2475,361.725 C2475,384.3119 2475,406.1831 2475,426.3235 C2475,436.3937 2475,446.0311 2475,455.1089 C2475,459.6478 2475,464.0468 2475,468.2901 C2475,469.3509 2475,470.4019 2475,471.443 C2475,471.9636 2475,472.4816 2475,472.9971 " fill="none" id="app.create_app&lt;-odt_pkg" style="stroke: #A80036; stroke-width: 1.0;"/><polygon fill="#A80036" points="2475,116.06,2471,125.06,2475,121.06,2479,125.06,2475,116.06" style="stroke: #A80036; stroke-width: 1.0;"/><!--MD5=[0fd6bc7719254d4e45dac1565cd2d712]
reverse link app.create_app to pht_pkg--><path d="M2508.65,119.35 C2613.54,204.51 2918.59,476.96 2764,652 C2746.34,671.99 2561.46,683.48 2497.01,686.91 " fill="none" id="app.create_app&lt;-pht_pkg" style="stroke: #A80036; stroke-width: 1.0;"/><polygon fill="#A80036" points="2504.7,116.16,2509.1821,124.9299,2508.5876,119.3043,2514.2131,118.7098,2504.7,116.16" style="stroke: #A80036; stroke-width: 1.0;"/><!--MD5=[017bd080f8ae382e9157b6fb89467a7e]
link send_email to proposals--><!--MD5=[acad6e77a42b4a3dc2fe7cb60c8f5a4a]
link send_email to pdf--><!--MD5=[f3fd975cbbc0badcf028087c7aab75f3]
@startuml
top to bottom direction

package "common" as common_pkg {

    package "api" <<Rectangle>> {
        class get_coordinates <<endpoint>>
    }

    package "auth" <<Rectangle>> {
        class Scope
    }

    package "coordinateslookup" <<Rectangle>> {
        object coordinateslookup_items {
            + Equatorial
            + Galactic
            + convert_ra_dec_deg()
            + convert_to_galactic()
            + get_coordinates()
            + round_coord()
        }
    }

    package "error_handling" <<Rectangle>> {
        object error_handling_items {
            + BadRequestError
            + DuplicateError
            + NotFoundError
            + UnprocessableEntityError
            + _make_response()
            + dangerous_internal_server_handler()
            + error_details()
            + oda_error_handler()
            + oda_not_found_handler()
            + oda_unique_constraint_handler()
        }
    }

    package "model" <<Rectangle>> {
        object model_items {
            + AppModel
            + ErrorDetails
            + ErrorResponseTraceback
            + ValidationResponse
        }
    }

    package "osdmapper" <<Rectangle>> {
        object osdmapper_items {
            + FrequencyBand
            + Subarray
            + MidConfiguration
            + LowConfiguration
            + Configuration
            + configuration_from_osd()
            + _get_mid_telescope_configuration()
            + _get_low_telescope_configuration()
        }
    }
}

package "odt" as odt_pkg {
    note as odt_note
    "ODT section minimized in this view"
    end note
    package "api" <<Rectangle>> {
    }
}

package "pht" as pht_pkg {
    package "api" <<Rectangle>> {
        package "panel_reviews" <<Rectangle>> {
            class panel_review_get <<endpoint>>
        }
        package "reviewers" <<Rectangle>> {
            class reviewers <<endpoint>>
        }
        package "panel_decision" <<Rectangle>> {
            class panel_decision_post <<endpoint>>
        }
        package "panels" <<Rectangle>> {
            class panels_endpoint <<endpoint>>
        }
        package "reports" <<Rectangle>> {
            class report_get <<endpoint>>
        }
        package "prsls" <<Rectangle>> {
            class send_email <<endpoint>>
            class proposals <<endpoint>>
            class pdf <<endpoint>>
        }
    }
}

common_pkg -down[hidden]- odt_pkg
common_pkg -down[hidden]- odt_pkg
odt_pkg -down[hidden]- pht_pkg
odt_pkg -down[hidden]- pht_pkg

package "app" <<Rectangle>> {
    class create_app <<function>>
}


common_pkg -up-> app.create_app
odt_pkg -up-> app.create_app
pht_pkg -up-> app.create_app

@enduml

PlantUML version 1.2020.02(Sun Mar 01 10:22:07 GMT 2020)
(GPL source distribution)
Java Runtime: OpenJDK Runtime Environment
JVM: OpenJDK 64-Bit Server VM
Java Version: 21.0.7+6-Ubuntu-0ubuntu124.04
Operating System: Linux
Default Encoding: UTF-8
Language: en
Country: US
--></g></svg>