<?xml version="1.0" encoding="UTF-8" standalone="no"?><svg xmlns="http://www.w3.org/2000/svg" xmlns:xlink="http://www.w3.org/1999/xlink" contentStyleType="text/css" height="299px" preserveAspectRatio="none" style="width:841px;height:299px;background:#FFFFFF;" version="1.1" viewBox="0 0 841 299" width="841px" zoomAndPan="magnify"><defs/><g><text fill="#000000" font-family="sans-serif" font-size="14" font-weight="bold" lengthAdjust="spacing" textLength="280" x="273.5" y="22.9951">Detailed View: common.osdmapper</text><!--cluster osdmapper--><g id="cluster_osdmapper"><rect fill="none" height="249" rx="2.5" ry="2.5" style="stroke:#181818;stroke-width:1.0;" width="828" x="7" y="44.2969"/><text fill="#000000" font-family="sans-serif" font-size="14" font-weight="bold" lengthAdjust="spacing" textLength="89" x="376.5" y="59.292">osdmapper</text></g><!--class configuration_from_osd--><g id="elem_configuration_from_osd"><rect codeLine="6" fill="#F1F1F1" height="72.5625" id="configuration_from_osd" rx="2.5" ry="2.5" style="stroke:#181818;stroke-width:0.5;" width="193" x="325.5" y="79.2969"/><ellipse cx="340.5" cy="99.4297" fill="#ADD1B2" rx="11" ry="11" style="stroke:#181818;stroke-width:1.0;"/><path d="M343.4688,105.0703 Q342.8906,105.3672 342.25,105.5078 Q341.6094,105.6641 340.9063,105.6641 Q338.4063,105.6641 337.0781,104.0234 Q335.7656,102.3672 335.7656,99.2422 Q335.7656,96.1172 337.0781,94.4609 Q338.4063,92.8047 340.9063,92.8047 Q341.6094,92.8047 342.25,92.9609 Q342.9063,93.1172 343.4688,93.4141 L343.4688,96.1328 Q342.8438,95.5547 342.25,95.2891 Q341.6563,95.0078 341.0313,95.0078 Q339.6875,95.0078 339,96.0859 Q338.3125,97.1484 338.3125,99.2422 Q338.3125,101.3359 339,102.4141 Q339.6875,103.4766 341.0313,103.4766 Q341.6563,103.4766 342.25,103.2109 Q342.8438,102.9297 343.4688,102.3516 L343.4688,105.0703 Z " fill="#000000"/><text fill="#000000" font-family="sans-serif" font-size="12" font-style="italic" lengthAdjust="spacing" textLength="65" x="402.5" y="95.4355">«function»</text><text fill="#000000" font-family="sans-serif" font-size="14" lengthAdjust="spacing" textLength="161" x="354.5" y="111.2607">configuration_from_osd</text><line style="stroke:#181818;stroke-width:0.5;" x1="326.5" x2="517.5" y1="119.5625" y2="119.5625"/><text fill="#000000" font-family="sans-serif" font-size="14" lengthAdjust="spacing" textLength="151" x="331.5" y="136.5576">returns: Configuration</text><line style="stroke:#181818;stroke-width:0.5;" x1="326.5" x2="517.5" y1="143.8594" y2="143.8594"/></g><!--class _get_mid_telescope_configuration--><g id="elem__get_mid_telescope_configuration"><rect codeLine="9" fill="#F1F1F1" height="72.5625" id="_get_mid_telescope_configuration" rx="2.5" ry="2.5" style="stroke:#181818;stroke-width:0.5;" width="267" x="23.5" y="79.2969"/><ellipse cx="38.5" cy="99.4297" fill="#ADD1B2" rx="11" ry="11" style="stroke:#181818;stroke-width:1.0;"/><path d="M41.4688,105.0703 Q40.8906,105.3672 40.25,105.5078 Q39.6094,105.6641 38.9063,105.6641 Q36.4063,105.6641 35.0781,104.0234 Q33.7656,102.3672 33.7656,99.2422 Q33.7656,96.1172 35.0781,94.4609 Q36.4063,92.8047 38.9063,92.8047 Q39.6094,92.8047 40.25,92.9609 Q40.9063,93.1172 41.4688,93.4141 L41.4688,96.1328 Q40.8438,95.5547 40.25,95.2891 Q39.6563,95.0078 39.0313,95.0078 Q37.6875,95.0078 37,96.0859 Q36.3125,97.1484 36.3125,99.2422 Q36.3125,101.3359 37,102.4141 Q37.6875,103.4766 39.0313,103.4766 Q39.6563,103.4766 40.25,103.2109 Q40.8438,102.9297 41.4688,102.3516 L41.4688,105.0703 Z " fill="#000000"/><text fill="#000000" font-family="sans-serif" font-size="12" font-style="italic" lengthAdjust="spacing" textLength="65" x="137.5" y="95.4355">«function»</text><text fill="#000000" font-family="sans-serif" font-size="14" lengthAdjust="spacing" textLength="235" x="52.5" y="111.2607">_get_mid_telescope_configuration</text><line style="stroke:#181818;stroke-width:0.5;" x1="24.5" x2="289.5" y1="119.5625" y2="119.5625"/><text fill="#000000" font-family="sans-serif" font-size="14" lengthAdjust="spacing" textLength="175" x="29.5" y="136.5576">returns: MidConfiguration</text><line style="stroke:#181818;stroke-width:0.5;" x1="24.5" x2="289.5" y1="143.8594" y2="143.8594"/></g><!--class _get_low_telescope_configuration--><g id="elem__get_low_telescope_configuration"><rect codeLine="12" fill="#F1F1F1" height="72.5625" id="_get_low_telescope_configuration" rx="2.5" ry="2.5" style="stroke:#181818;stroke-width:0.5;" width="265" x="553.5" y="79.2969"/><ellipse cx="568.5" cy="99.4297" fill="#ADD1B2" rx="11" ry="11" style="stroke:#181818;stroke-width:1.0;"/><path d="M571.4688,105.0703 Q570.8906,105.3672 570.25,105.5078 Q569.6094,105.6641 568.9063,105.6641 Q566.4063,105.6641 565.0781,104.0234 Q563.7656,102.3672 563.7656,99.2422 Q563.7656,96.1172 565.0781,94.4609 Q566.4063,92.8047 568.9063,92.8047 Q569.6094,92.8047 570.25,92.9609 Q570.9063,93.1172 571.4688,93.4141 L571.4688,96.1328 Q570.8438,95.5547 570.25,95.2891 Q569.6563,95.0078 569.0313,95.0078 Q567.6875,95.0078 567,96.0859 Q566.3125,97.1484 566.3125,99.2422 Q566.3125,101.3359 567,102.4141 Q567.6875,103.4766 569.0313,103.4766 Q569.6563,103.4766 570.25,103.2109 Q570.8438,102.9297 571.4688,102.3516 L571.4688,105.0703 Z " fill="#000000"/><text fill="#000000" font-family="sans-serif" font-size="12" font-style="italic" lengthAdjust="spacing" textLength="65" x="666.5" y="95.4355">«function»</text><text fill="#000000" font-family="sans-serif" font-size="14" lengthAdjust="spacing" textLength="233" x="582.5" y="111.2607">_get_low_telescope_configuration</text><line style="stroke:#181818;stroke-width:0.5;" x1="554.5" x2="817.5" y1="119.5625" y2="119.5625"/><text fill="#000000" font-family="sans-serif" font-size="14" lengthAdjust="spacing" textLength="178" x="559.5" y="136.5576">returns: LowConfiguration</text><line style="stroke:#181818;stroke-width:0.5;" x1="554.5" x2="817.5" y1="143.8594" y2="143.8594"/></g><!--class Configuration--><g id="elem_Configuration"><rect fill="#F1F1F1" height="48" id="Configuration" rx="2.5" ry="2.5" style="stroke:#181818;stroke-width:0.5;" width="124" x="360" y="229.2969"/><ellipse cx="375" cy="245.2969" fill="#ADD1B2" rx="11" ry="11" style="stroke:#181818;stroke-width:1.0;"/><path d="M377.9688,250.9375 Q377.3906,251.2344 376.75,251.375 Q376.1094,251.5313 375.4063,251.5313 Q372.9063,251.5313 371.5781,249.8906 Q370.2656,248.2344 370.2656,245.1094 Q370.2656,241.9844 371.5781,240.3281 Q372.9063,238.6719 375.4063,238.6719 Q376.1094,238.6719 376.75,238.8281 Q377.4063,238.9844 377.9688,239.2813 L377.9688,242 Q377.3438,241.4219 376.75,241.1563 Q376.1563,240.875 375.5313,240.875 Q374.1875,240.875 373.5,241.9531 Q372.8125,243.0156 372.8125,245.1094 Q372.8125,247.2031 373.5,248.2813 Q374.1875,249.3438 375.5313,249.3438 Q376.1563,249.3438 376.75,249.0781 Q377.3438,248.7969 377.9688,248.2188 L377.9688,250.9375 Z " fill="#000000"/><text fill="#000000" font-family="sans-serif" font-size="14" lengthAdjust="spacing" textLength="92" x="389" y="250.1436">Configuration</text><line style="stroke:#181818;stroke-width:0.5;" x1="361" x2="483" y1="261.2969" y2="261.2969"/><line style="stroke:#181818;stroke-width:0.5;" x1="361" x2="483" y1="269.2969" y2="269.2969"/></g><!--class MidConfiguration--><g id="elem_MidConfiguration"><rect fill="#F1F1F1" height="48" id="MidConfiguration" rx="2.5" ry="2.5" style="stroke:#181818;stroke-width:0.5;" width="148" x="130" y="229.2969"/><ellipse cx="145" cy="245.2969" fill="#ADD1B2" rx="11" ry="11" style="stroke:#181818;stroke-width:1.0;"/><path d="M147.9688,250.9375 Q147.3906,251.2344 146.75,251.375 Q146.1094,251.5313 145.4063,251.5313 Q142.9063,251.5313 141.5781,249.8906 Q140.2656,248.2344 140.2656,245.1094 Q140.2656,241.9844 141.5781,240.3281 Q142.9063,238.6719 145.4063,238.6719 Q146.1094,238.6719 146.75,238.8281 Q147.4063,238.9844 147.9688,239.2813 L147.9688,242 Q147.3438,241.4219 146.75,241.1563 Q146.1563,240.875 145.5313,240.875 Q144.1875,240.875 143.5,241.9531 Q142.8125,243.0156 142.8125,245.1094 Q142.8125,247.2031 143.5,248.2813 Q144.1875,249.3438 145.5313,249.3438 Q146.1563,249.3438 146.75,249.0781 Q147.3438,248.7969 147.9688,248.2188 L147.9688,250.9375 Z " fill="#000000"/><text fill="#000000" font-family="sans-serif" font-size="14" lengthAdjust="spacing" textLength="116" x="159" y="250.1436">MidConfiguration</text><line style="stroke:#181818;stroke-width:0.5;" x1="131" x2="277" y1="261.2969" y2="261.2969"/><line style="stroke:#181818;stroke-width:0.5;" x1="131" x2="277" y1="269.2969" y2="269.2969"/></g><!--class LowConfiguration--><g id="elem_LowConfiguration"><rect fill="#F1F1F1" height="48" id="LowConfiguration" rx="2.5" ry="2.5" style="stroke:#181818;stroke-width:0.5;" width="151" x="564.5" y="229.2969"/><ellipse cx="579.5" cy="245.2969" fill="#ADD1B2" rx="11" ry="11" style="stroke:#181818;stroke-width:1.0;"/><path d="M582.4688,250.9375 Q581.8906,251.2344 581.25,251.375 Q580.6094,251.5313 579.9063,251.5313 Q577.4063,251.5313 576.0781,249.8906 Q574.7656,248.2344 574.7656,245.1094 Q574.7656,241.9844 576.0781,240.3281 Q577.4063,238.6719 579.9063,238.6719 Q580.6094,238.6719 581.25,238.8281 Q581.9063,238.9844 582.4688,239.2813 L582.4688,242 Q581.8438,241.4219 581.25,241.1563 Q580.6563,240.875 580.0313,240.875 Q578.6875,240.875 578,241.9531 Q577.3125,243.0156 577.3125,245.1094 Q577.3125,247.2031 578,248.2813 Q578.6875,249.3438 580.0313,249.3438 Q580.6563,249.3438 581.25,249.0781 Q581.8438,248.7969 582.4688,248.2188 L582.4688,250.9375 Z " fill="#000000"/><text fill="#000000" font-family="sans-serif" font-size="14" lengthAdjust="spacing" textLength="119" x="593.5" y="250.1436">LowConfiguration</text><line style="stroke:#181818;stroke-width:0.5;" x1="565.5" x2="714.5" y1="261.2969" y2="261.2969"/><line style="stroke:#181818;stroke-width:0.5;" x1="565.5" x2="714.5" y1="269.2969" y2="269.2969"/></g><!--link configuration_from_osd to Configuration--><g id="link_configuration_from_osd_Configuration"><path codeLine="16" d="M422,152.3969 C422,174.8069 422,203.3269 422,224.1469 " fill="none" id="configuration_from_osd-to-Configuration" style="stroke:#181818;stroke-width:1.0;stroke-dasharray:7.0,7.0;"/><polygon fill="#181818" points="422,229.2669,426,220.2669,422,224.2669,418,220.2669,422,229.2669" style="stroke:#181818;stroke-width:1.0;"/><text fill="#000000" font-family="sans-serif" font-size="13" lengthAdjust="spacing" textLength="46" x="423" y="195.3638">returns</text></g><!--link configuration_from_osd to MidConfiguration--><g id="link_configuration_from_osd_MidConfiguration"><path codeLine="17" d="M364.72,152.3969 C327.3,175.6569 279.28,205.5069 245.51,226.4969 " fill="none" id="configuration_from_osd-to-MidConfiguration" style="stroke:#181818;stroke-width:1.0;stroke-dasharray:7.0,7.0;"/><polygon fill="#181818" points="241.05,229.2669,250.8041,227.9037,245.294,226.6233,246.5743,221.1132,241.05,229.2669" style="stroke:#181818;stroke-width:1.0;"/><text fill="#000000" font-family="sans-serif" font-size="13" lengthAdjust="spacing" textLength="28" x="314" y="195.3638">calls</text></g><!--link configuration_from_osd to LowConfiguration--><g id="link_configuration_from_osd_LowConfiguration"><path codeLine="18" d="M479.28,152.3969 C516.7,175.6569 564.72,205.5069 598.49,226.4969 " fill="none" id="configuration_from_osd-to-LowConfiguration" style="stroke:#181818;stroke-width:1.0;stroke-dasharray:7.0,7.0;"/><polygon fill="#181818" points="602.95,229.2669,597.4257,221.1132,598.706,226.6233,593.1959,227.9037,602.95,229.2669" style="stroke:#181818;stroke-width:1.0;"/><text fill="#000000" font-family="sans-serif" font-size="13" lengthAdjust="spacing" textLength="28" x="551" y="195.3638">calls</text></g><!--link _get_mid_telescope_configuration to MidConfiguration--><g id="link__get_mid_telescope_configuration_MidConfiguration"><path codeLine="20" d="M169.35,152.3969 C177.15,174.8969 187.1,203.5669 194.33,224.4169 " fill="none" id="_get_mid_telescope_configuration-to-MidConfiguration" style="stroke:#181818;stroke-width:1.0;stroke-dasharray:7.0,7.0;"/><polygon fill="#181818" points="196.01,229.2669,196.8348,219.4526,194.3691,224.5438,189.2779,222.0781,196.01,229.2669" style="stroke:#181818;stroke-width:1.0;"/><text fill="#000000" font-family="sans-serif" font-size="13" lengthAdjust="spacing" textLength="46" x="186" y="195.3638">returns</text></g><!--link _get_low_telescope_configuration to LowConfiguration--><g id="link__get_low_telescope_configuration_LowConfiguration"><path codeLine="21" d="M673.91,152.3969 C666.27,174.8969 656.54,203.5669 649.47,224.4169 " fill="none" id="_get_low_telescope_configuration-to-LowConfiguration" style="stroke:#181818;stroke-width:1.0;stroke-dasharray:7.0,7.0;"/><polygon fill="#181818" points="647.82,229.2669,654.5132,222.0419,649.4354,224.535,646.9422,219.4572,647.82,229.2669" style="stroke:#181818;stroke-width:1.0;"/><text fill="#000000" font-family="sans-serif" font-size="13" lengthAdjust="spacing" textLength="46" x="664" y="195.3638">returns</text></g><!--SRC=[dP0nRiCm34LtdOB80Nm08_3IZEsI8QkWIBGXL185YOQ7e7UFuYA67SHGKQxa-__pisM7S49Mrg61YyMf1KtUKsWe6wzYn2G4KmGck18pUJ0seMPBGOYezBSQ40xByG6EntDPgp0ux3gu2IYZdSgv28VU3cDI3rZsYRmiN07wCSo2o_rZ4lAOGcxXOutDwv-Lg1oGfRT6CZhCcYBAZKzL_ikQFpWuclxjy4dJEuTVY_UTD4st_HlQfruDU_sda5evL-LUKoxS35Phth5UXwuMkHFZgL4gkmC0]--></g></svg>