<?xml version="1.0" encoding="UTF-8" standalone="no"?><svg xmlns="http://www.w3.org/2000/svg" xmlns:xlink="http://www.w3.org/1999/xlink" contentStyleType="text/css" height="1028px" preserveAspectRatio="none" style="width:5718px;height:1028px;background:#FFFFFF;" version="1.1" viewBox="0 0 5718 1028" width="5718px" zoomAndPan="magnify"><defs/><g><!--cluster common_pkg--><g id="cluster_common_pkg"><path d="M8.5,146 L76.5,146 A3.75,3.75 0 0 1 79,148.5 L86,168.2969 L2099.5,168.2969 A2.5,2.5 0 0 1 2102,170.7969 L2102,851 A2.5,2.5 0 0 1 2099.5,853.5 L8.5,853.5 A2.5,2.5 0 0 1 6,851 L6,148.5 A2.5,2.5 0 0 1 8.5,146 " fill="none" style="stroke:#000000;stroke-width:1.5;"/><line style="stroke:#000000;stroke-width:1.5;" x1="6" x2="86" y1="168.2969" y2="168.2969"/><text fill="#000000" font-family="sans-serif" font-size="14" font-weight="bold" lengthAdjust="spacing" textLength="67" x="10" y="160.9951">common</text></g><!--cluster api.coordinates--><g id="cluster_api.coordinates"><rect fill="none" height="512" rx="2.5" ry="2.5" style="stroke:#181818;stroke-width:1.0;" width="419" x="270" y="309.5"/><text fill="#000000" font-family="sans-serif" font-size="14" font-weight="bold" lengthAdjust="spacing" textLength="122" x="418.5" y="324.4951">api.coordinates</text></g><!--cluster auth--><g id="cluster_auth"><rect fill="none" height="99" rx="2.5" ry="2.5" style="stroke:#181818;stroke-width:1.0;" width="108" x="138" y="309.5"/><text fill="#000000" font-family="sans-serif" font-size="14" font-weight="bold" lengthAdjust="spacing" textLength="35" x="174.5" y="324.4951">auth</text></g><!--cluster coordinateslookup--><g id="cluster_coordinateslookup"><rect fill="none" height="177" rx="2.5" ry="2.5" style="stroke:#181818;stroke-width:1.0;" width="220" x="1047" y="270.5"/><text fill="#000000" font-family="sans-serif" font-size="14" font-weight="bold" lengthAdjust="spacing" textLength="147" x="1083.5" y="285.4951">coordinateslookup</text></g><!--cluster error_handling--><g id="cluster_error_handling"><rect fill="none" height="242" rx="2.5" ry="2.5" style="stroke:#181818;stroke-width:1.0;" width="310" x="713" y="238"/><text fill="#000000" font-family="sans-serif" font-size="14" font-weight="bold" lengthAdjust="spacing" textLength="115" x="810.5" y="252.9951">error_handling</text></g><!--cluster model--><g id="cluster_model"><rect fill="none" height="324" rx="2.5" ry="2.5" style="stroke:#181818;stroke-width:1.0;" width="443" x="1291" y="197"/><text fill="#000000" font-family="sans-serif" font-size="14" font-weight="bold" lengthAdjust="spacing" textLength="48" x="1488.5" y="211.9951">model</text></g><!--cluster osdmapper--><g id="cluster_osdmapper"><rect fill="none" height="210" rx="2.5" ry="2.5" style="stroke:#181818;stroke-width:1.0;" width="304" x="1758" y="254"/><text fill="#000000" font-family="sans-serif" font-size="14" font-weight="bold" lengthAdjust="spacing" textLength="89" x="1865.5" y="268.9951">osdmapper</text></g><!--cluster odt_pkg--><g id="cluster_odt_pkg"><path d="M2144.5,553 L2171.5,553 A3.75,3.75 0 0 1 2174,555.5 L2181,575.2969 L5608.5,575.2969 A2.5,2.5 0 0 1 5611,577.7969 L5611,942.5 A2.5,2.5 0 0 1 5608.5,945 L2144.5,945 A2.5,2.5 0 0 1 2142,942.5 L2142,555.5 A2.5,2.5 0 0 1 2144.5,553 " fill="none" style="stroke:#000000;stroke-width:1.5;"/><line style="stroke:#000000;stroke-width:1.5;" x1="2142" x2="2181" y1="575.2969" y2="575.2969"/><text fill="#000000" font-family="sans-serif" font-size="14" font-weight="bold" lengthAdjust="spacing" textLength="26" x="2146" y="567.9951">odt</text></g><!--cluster api--><g id="cluster_api"><rect fill="none" height="309" rx="2.5" ry="2.5" style="stroke:#181818;stroke-width:1.0;" width="1814" x="2609" y="604"/><text fill="#000000" font-family="sans-serif" font-size="14" font-weight="bold" lengthAdjust="spacing" textLength="23" x="3504.5" y="618.9951">api</text></g><!--cluster panel_decision--><g id="cluster_panel_decision"><rect fill="none" height="144" rx="2.5" ry="2.5" style="stroke:#181818;stroke-width:1.0;" width="342" x="2633" y="696"/><text fill="#000000" font-family="sans-serif" font-size="14" font-weight="bold" lengthAdjust="spacing" textLength="116" x="2746" y="710.9951">panel_decision</text></g><!--cluster panels--><g id="cluster_panels"><rect fill="none" height="144" rx="2.5" ry="2.5" style="stroke:#181818;stroke-width:1.0;" width="290" x="3333" y="696"/><text fill="#000000" font-family="sans-serif" font-size="14" font-weight="bold" lengthAdjust="spacing" textLength="52" x="3452" y="710.9951">panels</text></g><!--cluster prsls--><g id="cluster_prsls"><rect fill="none" height="242" rx="2.5" ry="2.5" style="stroke:#181818;stroke-width:1.0;" width="310" x="2999" y="647"/><text fill="#000000" font-family="sans-serif" font-size="14" font-weight="bold" lengthAdjust="spacing" textLength="39" x="3134.5" y="661.9951">prsls</text></g><!--cluster report--><g id="cluster_report"><rect fill="none" height="96" rx="2.5" ry="2.5" style="stroke:#181818;stroke-width:1.0;" width="210" x="4189" y="720"/><text fill="#000000" font-family="sans-serif" font-size="14" font-weight="bold" lengthAdjust="spacing" textLength="50" x="4269" y="734.9951">report</text></g><!--cluster reviewers--><g id="cluster_reviewers"><rect fill="none" height="96" rx="2.5" ry="2.5" style="stroke:#181818;stroke-width:1.0;" width="210" x="3955" y="720"/><text fill="#000000" font-family="sans-serif" font-size="14" font-weight="bold" lengthAdjust="spacing" textLength="80" x="4020" y="734.9951">reviewers</text></g><!--cluster reviews--><g id="cluster_reviews"><rect fill="none" height="144" rx="2.5" ry="2.5" style="stroke:#181818;stroke-width:1.0;" width="284" x="3647" y="696"/><text fill="#000000" font-family="sans-serif" font-size="14" font-weight="bold" lengthAdjust="spacing" textLength="63" x="3757.5" y="710.9951">reviews</text></g><!--cluster utils.email_helper--><g id="cluster_utils.email_helper"><rect fill="none" height="112" rx="2.5" ry="2.5" style="stroke:#181818;stroke-width:1.0;" width="194" x="4447" y="712"/><text fill="#000000" font-family="sans-serif" font-size="14" font-weight="bold" lengthAdjust="spacing" textLength="137" x="4475.5" y="726.9951">utils.email_helper</text></g><!--cluster utils.pht_handler--><g id="cluster_utils.pht_handler"><rect fill="none" height="144" rx="2.5" ry="2.5" style="stroke:#181818;stroke-width:1.0;" width="352" x="5227" y="696"/><text fill="#000000" font-family="sans-serif" font-size="14" font-weight="bold" lengthAdjust="spacing" textLength="131" x="5337.5" y="710.9951">utils.pht_handler</text></g><!--cluster utils.s3_bucket--><g id="cluster_utils.s3_bucket"><rect fill="none" height="193" rx="2.5" ry="2.5" style="stroke:#181818;stroke-width:1.0;" width="316" x="4887" y="671.5"/><text fill="#000000" font-family="sans-serif" font-size="14" font-weight="bold" lengthAdjust="spacing" textLength="118" x="4986" y="686.4951">utils.s3_bucket</text></g><!--cluster utils.validation--><g id="cluster_utils.validation"><rect fill="none" height="112" rx="2.5" ry="2.5" style="stroke:#181818;stroke-width:1.0;" width="198" x="4665" y="712"/><text fill="#000000" font-family="sans-serif" font-size="14" font-weight="bold" lengthAdjust="spacing" textLength="113" x="4707.5" y="726.9951">utils.validation</text></g><!--cluster app--><g id="cluster_app"><rect fill="none" height="107" rx="2.5" ry="2.5" style="stroke:#181818;stroke-width:1.0;" width="142" x="2079" y="7"/><text fill="#000000" font-family="sans-serif" font-size="14" font-weight="bold" lengthAdjust="spacing" textLength="29" x="2135.5" y="21.9951">app</text></g><!--class ReferenceFrame--><g id="elem_ReferenceFrame"><rect codeLine="6" fill="#F1F1F1" height="48" id="ReferenceFrame" rx="2.5" ry="2.5" style="stroke:#181818;stroke-width:0.5;" width="147" x="291.5" y="344.5"/><ellipse cx="306.5" cy="360.5" fill="#ADD1B2" rx="11" ry="11" style="stroke:#181818;stroke-width:1.0;"/><path d="M309.4688,366.1406 Q308.8906,366.4375 308.25,366.5781 Q307.6094,366.7344 306.9063,366.7344 Q304.4063,366.7344 303.0781,365.0938 Q301.7656,363.4375 301.7656,360.3125 Q301.7656,357.1875 303.0781,355.5313 Q304.4063,353.875 306.9063,353.875 Q307.6094,353.875 308.25,354.0313 Q308.9063,354.1875 309.4688,354.4844 L309.4688,357.2031 Q308.8438,356.625 308.25,356.3594 Q307.6563,356.0781 307.0313,356.0781 Q305.6875,356.0781 305,357.1563 Q304.3125,358.2188 304.3125,360.3125 Q304.3125,362.4063 305,363.4844 Q305.6875,364.5469 307.0313,364.5469 Q307.6563,364.5469 308.25,364.2813 Q308.8438,364 309.4688,363.4219 L309.4688,366.1406 Z " fill="#000000"/><text fill="#000000" font-family="sans-serif" font-size="14" lengthAdjust="spacing" textLength="115" x="320.5" y="365.3467">ReferenceFrame</text><line style="stroke:#181818;stroke-width:0.5;" x1="292.5" x2="437.5" y1="376.5" y2="376.5"/><line style="stroke:#181818;stroke-width:0.5;" x1="292.5" x2="437.5" y1="384.5" y2="384.5"/></g><!--class EquatorialResponse--><g id="elem_EquatorialResponse"><rect codeLine="7" fill="#F1F1F1" height="48" id="EquatorialResponse" rx="2.5" ry="2.5" style="stroke:#181818;stroke-width:0.5;" width="171" x="473.5" y="344.5"/><ellipse cx="488.5" cy="360.5" fill="#ADD1B2" rx="11" ry="11" style="stroke:#181818;stroke-width:1.0;"/><path d="M491.4688,366.1406 Q490.8906,366.4375 490.25,366.5781 Q489.6094,366.7344 488.9063,366.7344 Q486.4063,366.7344 485.0781,365.0938 Q483.7656,363.4375 483.7656,360.3125 Q483.7656,357.1875 485.0781,355.5313 Q486.4063,353.875 488.9063,353.875 Q489.6094,353.875 490.25,354.0313 Q490.9063,354.1875 491.4688,354.4844 L491.4688,357.2031 Q490.8438,356.625 490.25,356.3594 Q489.6563,356.0781 489.0313,356.0781 Q487.6875,356.0781 487,357.1563 Q486.3125,358.2188 486.3125,360.3125 Q486.3125,362.4063 487,363.4844 Q487.6875,364.5469 489.0313,364.5469 Q489.6563,364.5469 490.25,364.2813 Q490.8438,364 491.4688,363.4219 L491.4688,366.1406 Z " fill="#000000"/><text fill="#000000" font-family="sans-serif" font-size="14" lengthAdjust="spacing" textLength="139" x="502.5" y="365.3467">EquatorialResponse</text><line style="stroke:#181818;stroke-width:0.5;" x1="474.5" x2="643.5" y1="376.5" y2="376.5"/><line style="stroke:#181818;stroke-width:0.5;" x1="474.5" x2="643.5" y1="384.5" y2="384.5"/></g><!--class GalacticResponse--><g id="elem_GalacticResponse"><rect codeLine="8" fill="#F1F1F1" height="48" id="GalacticResponse" rx="2.5" ry="2.5" style="stroke:#181818;stroke-width:0.5;" width="157" x="286.5" y="753.5"/><ellipse cx="301.5" cy="769.5" fill="#ADD1B2" rx="11" ry="11" style="stroke:#181818;stroke-width:1.0;"/><path d="M304.4688,775.1406 Q303.8906,775.4375 303.25,775.5781 Q302.6094,775.7344 301.9063,775.7344 Q299.4063,775.7344 298.0781,774.0938 Q296.7656,772.4375 296.7656,769.3125 Q296.7656,766.1875 298.0781,764.5313 Q299.4063,762.875 301.9063,762.875 Q302.6094,762.875 303.25,763.0313 Q303.9063,763.1875 304.4688,763.4844 L304.4688,766.2031 Q303.8438,765.625 303.25,765.3594 Q302.6563,765.0781 302.0313,765.0781 Q300.6875,765.0781 300,766.1563 Q299.3125,767.2188 299.3125,769.3125 Q299.3125,771.4063 300,772.4844 Q300.6875,773.5469 302.0313,773.5469 Q302.6563,773.5469 303.25,773.2813 Q303.8438,773 304.4688,772.4219 L304.4688,775.1406 Z " fill="#000000"/><text fill="#000000" font-family="sans-serif" font-size="14" lengthAdjust="spacing" textLength="125" x="315.5" y="774.3467">GalacticResponse</text><line style="stroke:#181818;stroke-width:0.5;" x1="287.5" x2="442.5" y1="785.5" y2="785.5"/><line style="stroke:#181818;stroke-width:0.5;" x1="287.5" x2="442.5" y1="793.5" y2="793.5"/></g><!--class get_systemcoordinates--><g id="elem_get_systemcoordinates"><rect codeLine="9" fill="#F1F1F1" height="56.2656" id="get_systemcoordinates" rx="2.5" ry="2.5" style="stroke:#181818;stroke-width:0.5;" width="194" x="479" y="749.5"/><ellipse cx="494" cy="769.6328" fill="#ADD1B2" rx="11" ry="11" style="stroke:#181818;stroke-width:1.0;"/><path d="M496.9688,775.2734 Q496.3906,775.5703 495.75,775.7109 Q495.1094,775.8672 494.4063,775.8672 Q491.9063,775.8672 490.5781,774.2266 Q489.2656,772.5703 489.2656,769.4453 Q489.2656,766.3203 490.5781,764.6641 Q491.9063,763.0078 494.4063,763.0078 Q495.1094,763.0078 495.75,763.1641 Q496.4063,763.3203 496.9688,763.6172 L496.9688,766.3359 Q496.3438,765.7578 495.75,765.4922 Q495.1563,765.2109 494.5313,765.2109 Q493.1875,765.2109 492.5,766.2891 Q491.8125,767.3516 491.8125,769.4453 Q491.8125,771.5391 492.5,772.6172 Q493.1875,773.6797 494.5313,773.6797 Q495.1563,773.6797 495.75,773.4141 Q496.3438,773.1328 496.9688,772.5547 L496.9688,775.2734 Z " fill="#000000"/><text fill="#000000" font-family="sans-serif" font-size="12" font-style="italic" lengthAdjust="spacing" textLength="70" x="554" y="765.6387">«endpoint»</text><text fill="#000000" font-family="sans-serif" font-size="14" lengthAdjust="spacing" textLength="162" x="508" y="781.4639">get_systemcoordinates</text><line style="stroke:#181818;stroke-width:0.5;" x1="480" x2="672" y1="789.7656" y2="789.7656"/><line style="stroke:#181818;stroke-width:0.5;" x1="480" x2="672" y1="797.7656" y2="797.7656"/></g><!--class Scope--><g id="elem_Scope"><rect codeLine="13" fill="#F1F1F1" height="48" id="Scope" rx="2.5" ry="2.5" style="stroke:#181818;stroke-width:0.5;" width="76" x="154" y="344.5"/><ellipse cx="169" cy="360.5" fill="#ADD1B2" rx="11" ry="11" style="stroke:#181818;stroke-width:1.0;"/><path d="M171.9688,366.1406 Q171.3906,366.4375 170.75,366.5781 Q170.1094,366.7344 169.4063,366.7344 Q166.9063,366.7344 165.5781,365.0938 Q164.2656,363.4375 164.2656,360.3125 Q164.2656,357.1875 165.5781,355.5313 Q166.9063,353.875 169.4063,353.875 Q170.1094,353.875 170.75,354.0313 Q171.4063,354.1875 171.9688,354.4844 L171.9688,357.2031 Q171.3438,356.625 170.75,356.3594 Q170.1563,356.0781 169.5313,356.0781 Q168.1875,356.0781 167.5,357.1563 Q166.8125,358.2188 166.8125,360.3125 Q166.8125,362.4063 167.5,363.4844 Q168.1875,364.5469 169.5313,364.5469 Q170.1563,364.5469 170.75,364.2813 Q171.3438,364 171.9688,363.4219 L171.9688,366.1406 Z " fill="#000000"/><text fill="#000000" font-family="sans-serif" font-size="14" lengthAdjust="spacing" textLength="44" x="183" y="365.3467">Scope</text><line style="stroke:#181818;stroke-width:0.5;" x1="155" x2="229" y1="376.5" y2="376.5"/><line style="stroke:#181818;stroke-width:0.5;" x1="155" x2="229" y1="384.5" y2="384.5"/></g><!--entity constants--><g id="elem_constants"><rect fill="#F1F1F1" height="36.2969" rx="2.5" ry="2.5" style="stroke:#181818;stroke-width:0.5;" width="89" x="29.5" y="350.5"/><text fill="#000000" font-family="sans-serif" font-size="14" lengthAdjust="spacing" textLength="69" x="39.5" y="373.4951">constants</text></g><g id="elem_coordinateslookup_items"><rect fill="#F1F1F1" height="126.0781" style="stroke:#181818;stroke-width:0.5;" width="188" x="1063" y="305.5"/><text fill="#000000" font-family="sans-serif" font-size="14" lengthAdjust="spacing" textLength="174" x="1070" y="320.4951">coordinateslookup_items</text><line style="stroke:#181818;stroke-width:0.5;" x1="1064" x2="1250" y1="325.7969" y2="325.7969"/><ellipse cx="1074" cy="339.4453" fill="none" rx="3" ry="3" style="stroke:#038048;stroke-width:1.0;"/><text fill="#000000" font-family="sans-serif" font-size="14" lengthAdjust="spacing" textLength="68" x="1083" y="342.792">Equatorial</text><ellipse cx="1074" cy="355.7422" fill="none" rx="3" ry="3" style="stroke:#038048;stroke-width:1.0;"/><text fill="#000000" font-family="sans-serif" font-size="14" lengthAdjust="spacing" textLength="54" x="1083" y="359.0889">Galactic</text><ellipse cx="1074" cy="372.0391" fill="#84BE84" rx="3" ry="3" style="stroke:#038048;stroke-width:1.0;"/><text fill="#000000" font-family="sans-serif" font-size="14" lengthAdjust="spacing" textLength="98" x="1083" y="375.3857">round_coord()</text><ellipse cx="1074" cy="388.3359" fill="#84BE84" rx="3" ry="3" style="stroke:#038048;stroke-width:1.0;"/><text fill="#000000" font-family="sans-serif" font-size="14" lengthAdjust="spacing" textLength="149" x="1083" y="391.6826">convert_ra_dec_deg()</text><ellipse cx="1074" cy="404.6328" fill="#84BE84" rx="3" ry="3" style="stroke:#038048;stroke-width:1.0;"/><text fill="#000000" font-family="sans-serif" font-size="14" lengthAdjust="spacing" textLength="142" x="1083" y="407.9795">convert_to_galactic()</text><ellipse cx="1074" cy="420.9297" fill="none" rx="3" ry="3" style="stroke:#038048;stroke-width:1.0;"/><text fill="#000000" font-family="sans-serif" font-size="14" lengthAdjust="spacing" textLength="112" x="1083" y="424.2764">get_coordinates</text></g><g id="elem_error_handling_items"><rect fill="#F1F1F1" height="191.2656" style="stroke:#181818;stroke-width:0.5;" width="278" x="729" y="273"/><text fill="#000000" font-family="sans-serif" font-size="14" lengthAdjust="spacing" textLength="144" x="796" y="287.9951">error_handling_items</text><line style="stroke:#181818;stroke-width:0.5;" x1="730" x2="1006" y1="293.2969" y2="293.2969"/><ellipse cx="740" cy="306.9453" fill="#84BE84" rx="3" ry="3" style="stroke:#038048;stroke-width:1.0;"/><text fill="#000000" font-family="sans-serif" font-size="14" lengthAdjust="spacing" textLength="95" x="749" y="310.292">error_details()</text><ellipse cx="740" cy="323.2422" fill="none" rx="3" ry="3" style="stroke:#038048;stroke-width:1.0;"/><text fill="#000000" font-family="sans-serif" font-size="14" lengthAdjust="spacing" textLength="119" x="749" y="326.5889">BadRequestError</text><ellipse cx="740" cy="339.5391" fill="none" rx="3" ry="3" style="stroke:#038048;stroke-width:1.0;"/><text fill="#000000" font-family="sans-serif" font-size="14" lengthAdjust="spacing" textLength="98" x="749" y="342.8857">DuplicateError</text><ellipse cx="740" cy="355.8359" fill="none" rx="3" ry="3" style="stroke:#038048;stroke-width:1.0;"/><text fill="#000000" font-family="sans-serif" font-size="14" lengthAdjust="spacing" textLength="175" x="749" y="359.1826">UnprocessableEntityError</text><ellipse cx="740" cy="372.1328" fill="none" rx="3" ry="3" style="stroke:#038048;stroke-width:1.0;"/><text fill="#000000" font-family="sans-serif" font-size="14" lengthAdjust="spacing" textLength="101" x="749" y="375.4795">NotFoundError</text><ellipse cx="740" cy="388.4297" fill="#84BE84" rx="3" ry="3" style="stroke:#038048;stroke-width:1.0;"/><text fill="#000000" font-family="sans-serif" font-size="14" lengthAdjust="spacing" textLength="128" x="749" y="391.7764">_make_response()</text><ellipse cx="740" cy="404.7266" fill="#84BE84" rx="3" ry="3" style="stroke:#038048;stroke-width:1.0;"/><text fill="#000000" font-family="sans-serif" font-size="14" lengthAdjust="spacing" textLength="172" x="749" y="408.0732">oda_not_found_handler()</text><ellipse cx="740" cy="421.0234" fill="#84BE84" rx="3" ry="3" style="stroke:#038048;stroke-width:1.0;"/><text fill="#000000" font-family="sans-serif" font-size="14" lengthAdjust="spacing" textLength="135" x="749" y="424.3701">oda_error_handler()</text><ellipse cx="740" cy="437.3203" fill="#84BE84" rx="3" ry="3" style="stroke:#038048;stroke-width:1.0;"/><text fill="#000000" font-family="sans-serif" font-size="14" lengthAdjust="spacing" textLength="226" x="749" y="440.667">oda_unique_constraint_handler()</text><ellipse cx="740" cy="453.6172" fill="#84BE84" rx="3" ry="3" style="stroke:#038048;stroke-width:1.0;"/><text fill="#000000" font-family="sans-serif" font-size="14" lengthAdjust="spacing" textLength="252" x="749" y="456.9639">dangerous_internal_server_handler()</text></g><g id="elem_model_items"><rect fill="#F1F1F1" height="93.4844" style="stroke:#181818;stroke-width:0.5;" width="202" x="1516" y="322"/><text fill="#000000" font-family="sans-serif" font-size="14" lengthAdjust="spacing" textLength="88" x="1573" y="336.9951">model_items</text><line style="stroke:#181818;stroke-width:0.5;" x1="1517" x2="1717" y1="342.2969" y2="342.2969"/><ellipse cx="1527" cy="355.9453" fill="none" rx="3" ry="3" style="stroke:#038048;stroke-width:1.0;"/><text fill="#000000" font-family="sans-serif" font-size="14" lengthAdjust="spacing" textLength="69" x="1536" y="359.292">AppModel</text><ellipse cx="1527" cy="372.2422" fill="none" rx="3" ry="3" style="stroke:#038048;stroke-width:1.0;"/><text fill="#000000" font-family="sans-serif" font-size="14" lengthAdjust="spacing" textLength="137" x="1536" y="375.5889">ValidationResponse</text><ellipse cx="1527" cy="388.5391" fill="none" rx="3" ry="3" style="stroke:#038048;stroke-width:1.0;"/><text fill="#000000" font-family="sans-serif" font-size="14" lengthAdjust="spacing" textLength="176" x="1536" y="391.8857">ErrorResponseTraceback</text><ellipse cx="1527" cy="404.8359" fill="none" rx="3" ry="3" style="stroke:#038048;stroke-width:1.0;"/><text fill="#000000" font-family="sans-serif" font-size="14" lengthAdjust="spacing" textLength="80" x="1536" y="408.1826">ErrorDetails</text></g><g id="elem_models"><rect fill="#F1F1F1" height="272.75" style="stroke:#181818;stroke-width:0.5;" width="173" x="1307.5" y="232"/><text fill="#000000" font-family="sans-serif" font-size="14" lengthAdjust="spacing" textLength="51" x="1368.5" y="246.9951">models</text><line style="stroke:#181818;stroke-width:0.5;" x1="1308.5" x2="1479.5" y1="252.2969" y2="252.2969"/><text fill="#000000" font-family="sans-serif" font-size="14" lengthAdjust="spacing" textLength="105" x="1313.5" y="269.292">EmailRequest()</text><text fill="#000000" font-family="sans-serif" font-size="14" lengthAdjust="spacing" textLength="124" x="1313.5" y="285.5889">CycleInformation()</text><text fill="#000000" font-family="sans-serif" font-size="14" lengthAdjust="spacing" textLength="99" x="1313.5" y="301.8857">CyclePolicies()</text><text fill="#000000" font-family="sans-serif" font-size="14" lengthAdjust="spacing" textLength="161" x="1313.5" y="318.1826">TelescopeCapabilities()</text><text fill="#000000" font-family="sans-serif" font-size="14" lengthAdjust="spacing" textLength="132" x="1313.5" y="334.4795">ObservatoryPolicy()</text><text fill="#000000" font-family="sans-serif" font-size="14" lengthAdjust="spacing" textLength="147" x="1313.5" y="350.7764">ReceiverInformation()</text><text fill="#000000" font-family="sans-serif" font-size="14" lengthAdjust="spacing" textLength="149" x="1313.5" y="367.0732">BasicCapabilitiesMid()</text><text fill="#000000" font-family="sans-serif" font-size="14" lengthAdjust="spacing" textLength="70" x="1313.5" y="383.3701">AA2_MID()</text><text fill="#000000" font-family="sans-serif" font-size="14" lengthAdjust="spacing" textLength="34" x="1313.5" y="399.667">Mid()</text><text fill="#000000" font-family="sans-serif" font-size="14" lengthAdjust="spacing" textLength="152" x="1313.5" y="415.9639">BasicCapabilitiesLow()</text><text fill="#000000" font-family="sans-serif" font-size="14" lengthAdjust="spacing" textLength="75" x="1313.5" y="432.2607">AA2_LOW()</text><text fill="#000000" font-family="sans-serif" font-size="14" lengthAdjust="spacing" textLength="37" x="1313.5" y="448.5576">Low()</text><text fill="#000000" font-family="sans-serif" font-size="14" lengthAdjust="spacing" textLength="88" x="1313.5" y="464.8545">Capabilities()</text><text fill="#000000" font-family="sans-serif" font-size="14" lengthAdjust="spacing" textLength="112" x="1313.5" y="481.1514">OsdDataModel()</text><text fill="#000000" font-family="sans-serif" font-size="14" lengthAdjust="spacing" textLength="117" x="1313.5" y="497.4482">ProposalReport()</text></g><g id="elem_osdmapper_items"><rect fill="#F1F1F1" height="158.6719" style="stroke:#181818;stroke-width:0.5;" width="271" x="1774.5" y="289"/><text fill="#000000" font-family="sans-serif" font-size="14" lengthAdjust="spacing" textLength="124" x="1848" y="303.9951">osdmapper_items</text><line style="stroke:#181818;stroke-width:0.5;" x1="1775.5" x2="2044.5" y1="309.2969" y2="309.2969"/><ellipse cx="1785.5" cy="322.9453" fill="none" rx="3" ry="3" style="stroke:#038048;stroke-width:1.0;"/><text fill="#000000" font-family="sans-serif" font-size="14" lengthAdjust="spacing" textLength="109" x="1794.5" y="326.292">FrequencyBand</text><ellipse cx="1785.5" cy="339.2422" fill="none" rx="3" ry="3" style="stroke:#038048;stroke-width:1.0;"/><text fill="#000000" font-family="sans-serif" font-size="14" lengthAdjust="spacing" textLength="60" x="1794.5" y="342.5889">Subarray</text><ellipse cx="1785.5" cy="355.5391" fill="none" rx="3" ry="3" style="stroke:#038048;stroke-width:1.0;"/><text fill="#000000" font-family="sans-serif" font-size="14" lengthAdjust="spacing" textLength="116" x="1794.5" y="358.8857">MidConfiguration</text><ellipse cx="1785.5" cy="371.8359" fill="none" rx="3" ry="3" style="stroke:#038048;stroke-width:1.0;"/><text fill="#000000" font-family="sans-serif" font-size="14" lengthAdjust="spacing" textLength="119" x="1794.5" y="375.1826">LowConfiguration</text><ellipse cx="1785.5" cy="388.1328" fill="none" rx="3" ry="3" style="stroke:#038048;stroke-width:1.0;"/><text fill="#000000" font-family="sans-serif" font-size="14" lengthAdjust="spacing" textLength="92" x="1794.5" y="391.4795">Configuration</text><ellipse cx="1785.5" cy="404.4297" fill="#84BE84" rx="3" ry="3" style="stroke:#038048;stroke-width:1.0;"/><text fill="#000000" font-family="sans-serif" font-size="14" lengthAdjust="spacing" textLength="171" x="1794.5" y="407.7764">configuration_from_osd()</text><ellipse cx="1785.5" cy="420.7266" fill="#84BE84" rx="3" ry="3" style="stroke:#038048;stroke-width:1.0;"/><text fill="#000000" font-family="sans-serif" font-size="14" lengthAdjust="spacing" textLength="245" x="1794.5" y="424.0732">_get_mid_telescope_configuration()</text><ellipse cx="1785.5" cy="437.0234" fill="#84BE84" rx="3" ry="3" style="stroke:#038048;stroke-width:1.0;"/><text fill="#000000" font-family="sans-serif" font-size="14" lengthAdjust="spacing" textLength="243" x="1794.5" y="440.3701">_get_low_telescope_configuration()</text></g><g id="elem_odt_note"><path d="M2341.5,765 L2341.5,790.1328 L2592.5,790.1328 L2592.5,775 L2582.5,765 L2341.5,765 " fill="#FEFFDD" style="stroke:#181818;stroke-width:0.5;"/><path d="M2582.5,765 L2582.5,775 L2592.5,775 L2582.5,765 " fill="#FEFFDD" style="stroke:#181818;stroke-width:1.0;"/><text fill="#000000" font-family="sans-serif" font-size="13" lengthAdjust="spacing" textLength="230" x="2347.5" y="782.0669">"ODT section minimized in this view"</text></g><g id="elem_panel_decision_endpoints"><rect fill="#F1F1F1" height="93.4844" style="stroke:#181818;stroke-width:0.5;" width="310" x="2649" y="731"/><text fill="#000000" font-family="sans-serif" font-size="14" lengthAdjust="spacing" textLength="180" x="2714" y="745.9951">panel_decision_endpoints</text><line style="stroke:#181818;stroke-width:0.5;" x1="2650" x2="2958" y1="751.2969" y2="751.2969"/><ellipse cx="2660" cy="764.9453" fill="none" rx="3" ry="3" style="stroke:#038048;stroke-width:1.0;"/><text fill="#000000" font-family="sans-serif" font-size="14" lengthAdjust="spacing" textLength="234" x="2669" y="768.292">create_panel_decision«endpoint»</text><ellipse cx="2660" cy="781.2422" fill="none" rx="3" ry="3" style="stroke:#038048;stroke-width:1.0;"/><text fill="#000000" font-family="sans-serif" font-size="14" lengthAdjust="spacing" textLength="213" x="2669" y="784.5889">get_panel_decision«endpoint»</text><ellipse cx="2660" cy="797.5391" fill="none" rx="3" ry="3" style="stroke:#038048;stroke-width:1.0;"/><text fill="#000000" font-family="sans-serif" font-size="14" lengthAdjust="spacing" textLength="284" x="2669" y="800.8857">get_panel_decisions_for_user«endpoint»</text><ellipse cx="2660" cy="813.8359" fill="none" rx="3" ry="3" style="stroke:#038048;stroke-width:1.0;"/><text fill="#000000" font-family="sans-serif" font-size="14" lengthAdjust="spacing" textLength="239" x="2669" y="817.1826">update_panel_decision«endpoint»</text></g><g id="elem_panels_endpoints"><rect fill="#F1F1F1" height="93.4844" style="stroke:#181818;stroke-width:0.5;" width="258" x="3349" y="731"/><text fill="#000000" font-family="sans-serif" font-size="14" lengthAdjust="spacing" textLength="123" x="3416.5" y="745.9951">panels_endpoints</text><line style="stroke:#181818;stroke-width:0.5;" x1="3350" x2="3606" y1="751.2969" y2="751.2969"/><ellipse cx="3360" cy="764.9453" fill="none" rx="3" ry="3" style="stroke:#038048;stroke-width:1.0;"/><text fill="#000000" font-family="sans-serif" font-size="14" lengthAdjust="spacing" textLength="169" x="3369" y="768.292">create_panel«endpoint»</text><ellipse cx="3360" cy="781.2422" fill="none" rx="3" ry="3" style="stroke:#038048;stroke-width:1.0;"/><text fill="#000000" font-family="sans-serif" font-size="14" lengthAdjust="spacing" textLength="148" x="3369" y="784.5889">get_panel«endpoint»</text><ellipse cx="3360" cy="797.5391" fill="none" rx="3" ry="3" style="stroke:#038048;stroke-width:1.0;"/><text fill="#000000" font-family="sans-serif" font-size="14" lengthAdjust="spacing" textLength="232" x="3369" y="800.8857">get_reviews_for_panel«endpoint»</text><ellipse cx="3360" cy="813.8359" fill="none" rx="3" ry="3" style="stroke:#038048;stroke-width:1.0;"/><text fill="#000000" font-family="sans-serif" font-size="14" lengthAdjust="spacing" textLength="219" x="3369" y="817.1826">get_panels_for_user«endpoint»</text></g><g id="elem_prsls_endpoints"><rect fill="#F1F1F1" height="191.2656" style="stroke:#181818;stroke-width:0.5;" width="277" x="3015.5" y="682"/><text fill="#000000" font-family="sans-serif" font-size="14" lengthAdjust="spacing" textLength="110" x="3099" y="696.9951">prsls_endpoints</text><line style="stroke:#181818;stroke-width:0.5;" x1="3016.5" x2="3291.5" y1="702.2969" y2="702.2969"/><ellipse cx="3026.5" cy="715.9453" fill="none" rx="3" ry="3" style="stroke:#038048;stroke-width:1.0;"/><text fill="#000000" font-family="sans-serif" font-size="14" lengthAdjust="spacing" textLength="201" x="3035.5" y="719.292">get_osd_by_cycle«endpoint»</text><ellipse cx="3026.5" cy="732.2422" fill="none" rx="3" ry="3" style="stroke:#038048;stroke-width:1.0;"/><text fill="#000000" font-family="sans-serif" font-size="14" lengthAdjust="spacing" textLength="191" x="3035.5" y="735.5889">create_proposal«endpoint»</text><ellipse cx="3026.5" cy="748.5391" fill="none" rx="3" ry="3" style="stroke:#038048;stroke-width:1.0;"/><text fill="#000000" font-family="sans-serif" font-size="14" lengthAdjust="spacing" textLength="170" x="3035.5" y="751.8857">get_proposal«endpoint»</text><ellipse cx="3026.5" cy="764.8359" fill="none" rx="3" ry="3" style="stroke:#038048;stroke-width:1.0;"/><text fill="#000000" font-family="sans-serif" font-size="14" lengthAdjust="spacing" textLength="241" x="3035.5" y="768.1826">get_proposals_for_user«endpoint»</text><ellipse cx="3026.5" cy="781.1328" fill="none" rx="3" ry="3" style="stroke:#038048;stroke-width:1.0;"/><text fill="#000000" font-family="sans-serif" font-size="14" lengthAdjust="spacing" textLength="196" x="3035.5" y="784.4795">update_proposal«endpoint»</text><ellipse cx="3026.5" cy="797.4297" fill="none" rx="3" ry="3" style="stroke:#038048;stroke-width:1.0;"/><text fill="#000000" font-family="sans-serif" font-size="14" lengthAdjust="spacing" textLength="199" x="3035.5" y="800.7764">validate_proposal«endpoint»</text><ellipse cx="3026.5" cy="813.7266" fill="none" rx="3" ry="3" style="stroke:#038048;stroke-width:1.0;"/><text fill="#000000" font-family="sans-serif" font-size="14" lengthAdjust="spacing" textLength="158" x="3035.5" y="817.0732">send_email«endpoint»</text><ellipse cx="3026.5" cy="830.0234" fill="none" rx="3" ry="3" style="stroke:#038048;stroke-width:1.0;"/><text fill="#000000" font-family="sans-serif" font-size="14" lengthAdjust="spacing" textLength="231" x="3035.5" y="833.3701">create_upload_pdf_url«endpoint»</text><ellipse cx="3026.5" cy="846.3203" fill="none" rx="3" ry="3" style="stroke:#038048;stroke-width:1.0;"/><text fill="#000000" font-family="sans-serif" font-size="14" lengthAdjust="spacing" textLength="251" x="3035.5" y="849.667">create_download_pdf_url«endpoint»</text><ellipse cx="3026.5" cy="862.6172" fill="none" rx="3" ry="3" style="stroke:#038048;stroke-width:1.0;"/><text fill="#000000" font-family="sans-serif" font-size="14" lengthAdjust="spacing" textLength="228" x="3035.5" y="865.9639">create_delete_pdf_url«endpoint»</text></g><g id="elem_report_endpoints"><rect fill="#F1F1F1" height="44.5938" style="stroke:#181818;stroke-width:0.5;" width="178" x="4205" y="755"/><text fill="#000000" font-family="sans-serif" font-size="14" lengthAdjust="spacing" textLength="119" x="4234.5" y="769.9951">report_endpoints</text><line style="stroke:#181818;stroke-width:0.5;" x1="4206" x2="4382" y1="775.2969" y2="775.2969"/><ellipse cx="4216" cy="788.9453" fill="none" rx="3" ry="3" style="stroke:#038048;stroke-width:1.0;"/><text fill="#000000" font-family="sans-serif" font-size="14" lengthAdjust="spacing" textLength="152" x="4225" y="792.292">get_report«endpoint»</text></g><g id="elem_reviewers_endpoints"><rect fill="#F1F1F1" height="44.5938" style="stroke:#181818;stroke-width:0.5;" width="178" x="3971" y="755"/><text fill="#000000" font-family="sans-serif" font-size="14" lengthAdjust="spacing" textLength="143" x="3988.5" y="769.9951">reviewers_endpoints</text><line style="stroke:#181818;stroke-width:0.5;" x1="3972" x2="4148" y1="775.2969" y2="775.2969"/><ellipse cx="3982" cy="788.9453" fill="none" rx="3" ry="3" style="stroke:#038048;stroke-width:1.0;"/><text fill="#000000" font-family="sans-serif" font-size="14" lengthAdjust="spacing" textLength="152" x="3991" y="792.292">get_report«endpoint»</text></g><g id="elem_reviews_endpoints"><rect fill="#F1F1F1" height="93.4844" style="stroke:#181818;stroke-width:0.5;" width="251" x="3663.5" y="731"/><text fill="#000000" font-family="sans-serif" font-size="14" lengthAdjust="spacing" textLength="129" x="3724.5" y="745.9951">reviews_endpoints</text><line style="stroke:#181818;stroke-width:0.5;" x1="3664.5" x2="3913.5" y1="751.2969" y2="751.2969"/><ellipse cx="3674.5" cy="764.9453" fill="none" rx="3" ry="3" style="stroke:#038048;stroke-width:1.0;"/><text fill="#000000" font-family="sans-serif" font-size="14" lengthAdjust="spacing" textLength="175" x="3683.5" y="768.292">create_review«endpoint»</text><ellipse cx="3674.5" cy="781.2422" fill="none" rx="3" ry="3" style="stroke:#038048;stroke-width:1.0;"/><text fill="#000000" font-family="sans-serif" font-size="14" lengthAdjust="spacing" textLength="154" x="3683.5" y="784.5889">get_review«endpoint»</text><ellipse cx="3674.5" cy="797.5391" fill="none" rx="3" ry="3" style="stroke:#038048;stroke-width:1.0;"/><text fill="#000000" font-family="sans-serif" font-size="14" lengthAdjust="spacing" textLength="225" x="3683.5" y="800.8857">get_reviews_for_user«endpoint»</text><ellipse cx="3674.5" cy="813.8359" fill="none" rx="3" ry="3" style="stroke:#038048;stroke-width:1.0;"/><text fill="#000000" font-family="sans-serif" font-size="14" lengthAdjust="spacing" textLength="180" x="3683.5" y="817.1826">update_review«endpoint»</text></g><!--entity utils.constants--><g id="elem_utils.constants"><rect fill="#F1F1F1" height="36.2969" rx="2.5" ry="2.5" style="stroke:#181818;stroke-width:0.5;" width="121" x="2185.5" y="759.5"/><text fill="#000000" font-family="sans-serif" font-size="14" lengthAdjust="spacing" textLength="101" x="2195.5" y="782.4951">utils.constants</text></g><g id="elem_email_helper_items"><rect fill="#F1F1F1" height="60.8906" style="stroke:#181818;stroke-width:0.5;" width="161" x="4463.5" y="747"/><text fill="#000000" font-family="sans-serif" font-size="14" lengthAdjust="spacing" textLength="132" x="4478" y="761.9951">email_helper_items</text><line style="stroke:#181818;stroke-width:0.5;" x1="4464.5" x2="4623.5" y1="767.2969" y2="767.2969"/><ellipse cx="4474.5" cy="780.9453" fill="#84BE84" rx="3" ry="3" style="stroke:#038048;stroke-width:1.0;"/><text fill="#000000" font-family="sans-serif" font-size="14" lengthAdjust="spacing" textLength="99" x="4483.5" y="784.292">render_email()</text><ellipse cx="4474.5" cy="797.2422" fill="#84BE84" rx="3" ry="3" style="stroke:#038048;stroke-width:1.0;"/><text fill="#000000" font-family="sans-serif" font-size="14" lengthAdjust="spacing" textLength="135" x="4483.5" y="800.5889">send_email_async()</text></g><g id="elem_pht_handler_items"><rect fill="#F1F1F1" height="93.4844" style="stroke:#181818;stroke-width:0.5;" width="320" x="5243" y="731"/><text fill="#000000" font-family="sans-serif" font-size="14" lengthAdjust="spacing" textLength="127" x="5339.5" y="745.9951">pht_handler_items</text><line style="stroke:#181818;stroke-width:0.5;" x1="5244" x2="5562" y1="751.2969" y2="751.2969"/><ellipse cx="5254" cy="764.9453" fill="#84BE84" rx="3" ry="3" style="stroke:#038048;stroke-width:1.0;"/><text fill="#000000" font-family="sans-serif" font-size="14" lengthAdjust="spacing" textLength="199" x="5263" y="768.292">transform_update_proposal()</text><ellipse cx="5254" cy="781.2422" fill="#84BE84" rx="3" ry="3" style="stroke:#038048;stroke-width:1.0;"/><text fill="#000000" font-family="sans-serif" font-size="14" lengthAdjust="spacing" textLength="165" x="5263" y="784.5889">get_latest_entity_by_id()</text><ellipse cx="5254" cy="797.5391" fill="#84BE84" rx="3" ry="3" style="stroke:#038048;stroke-width:1.0;"/><text fill="#000000" font-family="sans-serif" font-size="14" lengthAdjust="spacing" textLength="122" x="5263" y="800.8857">_get_array_class()</text><ellipse cx="5254" cy="813.8359" fill="#84BE84" rx="3" ry="3" style="stroke:#038048;stroke-width:1.0;"/><text fill="#000000" font-family="sans-serif" font-size="14" lengthAdjust="spacing" textLength="294" x="5263" y="817.1826">join_proposals_panels_reviews_decisions()</text></g><g id="elem_s3_bucket_items"><rect fill="#F1F1F1" height="142.375" style="stroke:#181818;stroke-width:0.5;" width="284" x="4903" y="706.5"/><text fill="#000000" font-family="sans-serif" font-size="14" lengthAdjust="spacing" textLength="117" x="4986.5" y="721.4951">s3_bucket_items</text><line style="stroke:#181818;stroke-width:0.5;" x1="4904" x2="5186" y1="726.7969" y2="726.7969"/><text fill="#000000" font-family="sans-serif" font-size="14" lengthAdjust="spacing" textLength="71" x="4923" y="743.792">S3Method</text><text fill="#000000" font-family="sans-serif" font-size="14" lengthAdjust="spacing" textLength="62" x="4923" y="760.0889">S3Config</text><ellipse cx="4914" cy="773.0391" fill="#84BE84" rx="3" ry="3" style="stroke:#038048;stroke-width:1.0;"/><text fill="#000000" font-family="sans-serif" font-size="14" lengthAdjust="spacing" textLength="111" x="4923" y="776.3857">get_aws_client()</text><ellipse cx="4914" cy="789.3359" fill="#84BE84" rx="3" ry="3" style="stroke:#038048;stroke-width:1.0;"/><text fill="#000000" font-family="sans-serif" font-size="14" lengthAdjust="spacing" textLength="174" x="4923" y="792.6826">generate_presigned_url()</text><ellipse cx="4914" cy="805.6328" fill="#84BE84" rx="3" ry="3" style="stroke:#038048;stroke-width:1.0;"/><text fill="#000000" font-family="sans-serif" font-size="14" lengthAdjust="spacing" textLength="238" x="4923" y="808.9795">create_presigned_url_upload_pdf()</text><ellipse cx="4914" cy="821.9297" fill="#84BE84" rx="3" ry="3" style="stroke:#038048;stroke-width:1.0;"/><text fill="#000000" font-family="sans-serif" font-size="14" lengthAdjust="spacing" textLength="258" x="4923" y="825.2764">create_presigned_url_download_pdf()</text><ellipse cx="4914" cy="838.2266" fill="#84BE84" rx="3" ry="3" style="stroke:#038048;stroke-width:1.0;"/><text fill="#000000" font-family="sans-serif" font-size="14" lengthAdjust="spacing" textLength="235" x="4923" y="841.5732">create_presigned_url_delete_pdf()</text></g><g id="elem_validation_items"><rect fill="#F1F1F1" height="60.8906" style="stroke:#181818;stroke-width:0.5;" width="166" x="4681" y="747"/><text fill="#000000" font-family="sans-serif" font-size="14" lengthAdjust="spacing" textLength="109" x="4709.5" y="761.9951">validation_items</text><line style="stroke:#181818;stroke-width:0.5;" x1="4682" x2="4846" y1="767.2969" y2="767.2969"/><ellipse cx="4692" cy="780.9453" fill="#84BE84" rx="3" ry="3" style="stroke:#038048;stroke-width:1.0;"/><text fill="#000000" font-family="sans-serif" font-size="14" lengthAdjust="spacing" textLength="129" x="4701" y="784.292">validate_proposal()</text><ellipse cx="4692" cy="797.2422" fill="#84BE84" rx="3" ry="3" style="stroke:#038048;stroke-width:1.0;"/><text fill="#000000" font-family="sans-serif" font-size="14" lengthAdjust="spacing" textLength="140" x="4701" y="800.5889">validate_duplicates()</text></g><path d="M2131,969 L2155,969 A3.75,3.75 0 0 1 2157.5,971.5 L2164.5,991.2969 L2169,991.2969 A2.5,2.5 0 0 1 2171.5,993.7969 L2171.5,1019.0938 A2.5,2.5 0 0 1 2169,1021.5938 L2131,1021.5938 A2.5,2.5 0 0 1 2128.5,1019.0938 L2128.5,971.5 A2.5,2.5 0 0 1 2131,969 " fill="#F1F1F1" style="stroke:#181818;stroke-width:0.5;"/><line style="stroke:#181818;stroke-width:0.5;" x1="2128.5" x2="2164.5" y1="991.2969" y2="991.2969"/><text fill="#000000" font-family="sans-serif" font-size="14" lengthAdjust="spacing" textLength="23" x="2132.5" y="983.9951">pht</text><!--class create_app--><g id="elem_create_app"><rect codeLine="192" fill="#F1F1F1" height="56.2656" id="create_app" rx="2.5" ry="2.5" style="stroke:#181818;stroke-width:0.5;" width="109" x="2095.5" y="42"/><ellipse cx="2110.5" cy="62.1328" fill="#ADD1B2" rx="11" ry="11" style="stroke:#181818;stroke-width:1.0;"/><path d="M2113.4688,67.7734 Q2112.8906,68.0703 2112.25,68.2109 Q2111.6094,68.3672 2110.9063,68.3672 Q2108.4063,68.3672 2107.0781,66.7266 Q2105.7656,65.0703 2105.7656,61.9453 Q2105.7656,58.8203 2107.0781,57.1641 Q2108.4063,55.5078 2110.9063,55.5078 Q2111.6094,55.5078 2112.25,55.6641 Q2112.9063,55.8203 2113.4688,56.1172 L2113.4688,58.8359 Q2112.8438,58.2578 2112.25,57.9922 Q2111.6563,57.7109 2111.0313,57.7109 Q2109.6875,57.7109 2109,58.7891 Q2108.3125,59.8516 2108.3125,61.9453 Q2108.3125,64.0391 2109,65.1172 Q2109.6875,66.1797 2111.0313,66.1797 Q2111.6563,66.1797 2112.25,65.9141 Q2112.8438,65.6328 2113.4688,65.0547 L2113.4688,67.7734 Z " fill="#000000"/><text fill="#000000" font-family="sans-serif" font-size="12" font-style="italic" lengthAdjust="spacing" textLength="65" x="2130.5" y="58.1387">«function»</text><text fill="#000000" font-family="sans-serif" font-size="14" lengthAdjust="spacing" textLength="77" x="2124.5" y="73.9639">create_app</text><line style="stroke:#181818;stroke-width:0.5;" x1="2096.5" x2="2203.5" y1="82.2656" y2="82.2656"/><line style="stroke:#181818;stroke-width:0.5;" x1="2096.5" x2="2203.5" y1="90.2656" y2="90.2656"/></g><!--link common_pkg to odt_pkg--><!--link common_pkg to odt_pkg--><!--link odt_pkg to pht_pkg--><!--link odt_pkg to pht_pkg--><!--reverse link create_app to common_pkg--><g id="link_create_app_common_pkg"><path codeLine="196" d="M2134.01,102.73 C2130.21,111.39 2126.52,120.9 2124,130 C2117.0075,155.2325 2111.64,182.4294 2107.5211,209.0956 C2105.4616,222.4287 2103.7143,235.6292 2102.2321,248.3852 C2102.1858,248.7838 2102.1397,249.182 2102.0939,249.5797 " fill="none" id="create_app-backto-common_pkg" style="stroke:#181818;stroke-width:1.0;"/><polygon fill="#181818" points="2136.13,98.01,2128.7813,104.5672,2134.0728,102.5672,2136.0729,107.8587,2136.13,98.01" style="stroke:#181818;stroke-width:1.0;"/></g><!--reverse link create_app to odt_pkg--><g id="link_create_app_odt_pkg"><path codeLine="197" d="M2150,103.32 C2150,171.92 2150,338.105 2150,488.1825 C2150,506.9422 2150,525.4502 2150,543.4845 C2150,545.7388 2150,547.9856 2150,550.2247 " fill="none" id="create_app-backto-odt_pkg" style="stroke:#181818;stroke-width:1.0;"/><polygon fill="#181818" points="2150,98.22,2146,107.22,2150,103.22,2154,107.22,2150,98.22" style="stroke:#181818;stroke-width:1.0;"/></g><!--reverse link create_app to pht_pkg--><g id="link_create_app_pht_pkg"><path codeLine="198" d="M2209.62,74.46 C2646.76,100.41 5346.63,270.92 5579,537 C5702.95,678.94 5711.6,827.1 5579,961 C5547.06,993.26 2460.94,994.46 2171.69,994.5 " fill="none" id="create_app-backto-pht_pkg" style="stroke:#181818;stroke-width:1.0;"/><polygon fill="#181818" points="2204.58,74.16,2213.3235,78.6933,2209.571,74.4603,2213.804,70.7078,2204.58,74.16" style="stroke:#181818;stroke-width:1.0;"/></g><!--SRC=[lLXBR-Cs4BxxLn2vT1T5SkXU0mD9d1G1rasGfDr3KH0qERQvaKWjIILmY_pt3lMAJ54MdG8rODZWV4FDV9m7HquNn6coqixfd0XfW3kfrMnMCFxCDa1EkCvphKu8iwJ-Iuld3VbdDYFuwL2ia6TSQoEaOWxi2Ja_Vy2jcDfaC9yZd3GVdZ5hoGEimO3YS6DO3e7m-aV9d3QIPGzW2wri2FYLPGpDv2FY3JXgTzP1thFe_1oKABHKRZwly6-X1wNRJfdzo7K1KMsETg2Q6_5y2EyCoxH-Beln9-lLTrmd0mqgqK7R0_hFppto0a5BMh1iTAa4hNR_z3cGeLClO1mrZ0hW-DsCGfocc-O10um_ZvxvdVGjIWqOemtTCYKogJQJlEp3HqYfGG8SavaTs7V9n0FyAC6wQuyBf8koo2H7msF2trLXD0ThsIg3Q-MasyLWlsbtutcEoMZEde6Q9fG7ncd1gDAEhgjpglm44qNrc1X1b4gYcxIALSCm5KRH0la630rB4GL6iOnQC7ZI4OtuCUPQG3PvUXLgvD0kYcBfnS7o7ooJWlaYDKZ_9WCy3wtioJ0EApGg1bhK0J7XYROYPqK1PjAR3ZdYqOtnOQRuxX9936IFvOePmtR1ybAAAwtMSbEQokT0_5M_7X8Val6-ZAwDpYdQFuW4whCtbu8woC3w-aVtDECAcNvDK6ZvVkkr6orSrMlmjsaq7eCP0Esg_ryjdjmjdeYj6nR9fPAv_1i4aOguhRJaHSBhIGN4oaywhNxB6Z_HdyYd2o7yyyZ5_IrfUuSbM-nRHAx9JfVa5Gl-vuWFnRRs0NzxFgGz-7qJfZ0riEvAAtt_7LFenT- -2ksCtWStnsy0QnhTLnaqoM4X_uyA5WkPeIKMamdLiX17sFSs6_xRPzAcCsZJcKlrFm5dm0TipSzHUoTGUfWUOrFPySZ3v7Yhi8pGrOxo7SzWmecMIwCBRLcIoyT3Zuwvj4Uyr8qe6MzHIY77ZfD62juxD1Eq46jQcaGTeL_L1xImKdi_9dGEHf61GXkN54OrT3gEQjn7pV7P1COcMjIW_m-ZZZ4fhHJLsEGQSsGnIa-SYUtV9YvQfSFBsDcHarIjLAKLtKAMSathWqTkQZYR2XHMoC4DvpsHARCxnICtceY9_ZBGN9udBUnXHmp4-xkoU3ev3OfMTFhA_DpbCyuFABusov6BNdK5fTMmEm1ynoFjrTIczxIHqZNuD3Ri5xeg-JEuIIuwP9I9nozBS5ijWiNwuXjXWg6fF9F8H8Ge1QQc4gpSA12-6WudthPbzK2zMfs6xzVfH8skHgSH_DADIPCClqD7WctGwGOcTmZHJiknEFZuY1ZQTEsphndQ0sEk_BNZLldSY0qebVXUev4ImXX_QYUMArQmbSoa6sBkLduGzgzOTjKkkq2Ele34GNdSWajc9Uy_OJd8nekBN-ZoTX6i3d63hN0UZ6przUvRi3h47NBPYWLph1h60z5z4n0FLLUCZtQzjuQdFkx_t4eXGFrrsivu2OXs6Wp4pO0r9PxrHg-HDstr-xqcyn25e7Mfgj4IkvWFtRwHPN4w9uWwUrTujo4cR2V1cF1V]--></g></svg>