<?xml version="1.0" encoding="UTF-8" standalone="no"?><svg xmlns="http://www.w3.org/2000/svg" xmlns:xlink="http://www.w3.org/1999/xlink" contentStyleType="text/css" height="1068px" preserveAspectRatio="none" style="width:3599px;height:1068px;background:#FFFFFF;" version="1.1" viewBox="0 0 3599 1068" width="3599px" zoomAndPan="magnify"><defs/><g><!--cluster common_pkg--><g id="cluster_common_pkg"><path d="M102.03,146 L170.03,146 A3.75,3.75 0 0 1 172.53,148.5 L179.53,168.2969 L2086.03,168.2969 A2.5,2.5 0 0 1 2088.53,170.7969 L2088.53,550.5 A2.5,2.5 0 0 1 2086.03,553 L102.03,553 A2.5,2.5 0 0 1 99.53,550.5 L99.53,148.5 A2.5,2.5 0 0 1 102.03,146 " fill="none" style="stroke:#000000;stroke-width:1.5;"/><line style="stroke:#000000;stroke-width:1.5;" x1="99.53" x2="179.53" y1="168.2969" y2="168.2969"/><text fill="#000000" font-family="sans-serif" font-size="14" font-weight="bold" lengthAdjust="spacing" textLength="67" x="103.53" y="160.9951">common</text></g><!--cluster api.coordinates--><g id="cluster_api.coordinates"><rect fill="none" height="144" rx="2.5" ry="2.5" style="stroke:#181818;stroke-width:1.0;" width="300" x="961.53" y="287"/><text fill="#000000" font-family="sans-serif" font-size="14" font-weight="bold" lengthAdjust="spacing" textLength="122" x="1050.53" y="301.9951">api.coordinates</text></g><!--cluster auth--><g id="cluster_auth"><rect fill="none" height="99" rx="2.5" ry="2.5" style="stroke:#181818;stroke-width:1.0;" width="108" x="829.53" y="309.5"/><text fill="#000000" font-family="sans-serif" font-size="14" font-weight="bold" lengthAdjust="spacing" textLength="35" x="866.03" y="324.4951">auth</text></g><!--cluster coordinateslookup--><g id="cluster_coordinateslookup"><rect fill="none" height="177" rx="2.5" ry="2.5" style="stroke:#181818;stroke-width:1.0;" width="220" x="585.53" y="270.5"/><text fill="#000000" font-family="sans-serif" font-size="14" font-weight="bold" lengthAdjust="spacing" textLength="147" x="622.03" y="285.4951">coordinateslookup</text></g><!--cluster error_handling--><g id="cluster_error_handling"><rect fill="none" height="242" rx="2.5" ry="2.5" style="stroke:#181818;stroke-width:1.0;" width="310" x="251.53" y="238"/><text fill="#000000" font-family="sans-serif" font-size="14" font-weight="bold" lengthAdjust="spacing" textLength="115" x="349.03" y="252.9951">error_handling</text></g><!--cluster model--><g id="cluster_model"><rect fill="none" height="324" rx="2.5" ry="2.5" style="stroke:#181818;stroke-width:1.0;" width="443" x="1285.53" y="197"/><text fill="#000000" font-family="sans-serif" font-size="14" font-weight="bold" lengthAdjust="spacing" textLength="48" x="1483.03" y="211.9951">model</text></g><!--cluster osdmapper--><g id="cluster_osdmapper"><rect fill="none" height="210" rx="2.5" ry="2.5" style="stroke:#181818;stroke-width:1.0;" width="304" x="1752.53" y="254"/><text fill="#000000" font-family="sans-serif" font-size="14" font-weight="bold" lengthAdjust="spacing" textLength="89" x="1860.03" y="268.9951">osdmapper</text></g><!--cluster odt_pkg--><g id="cluster_odt_pkg"><path d="M102.03,593 L129.03,593 A3.75,3.75 0 0 1 131.53,595.5 L138.53,615.2969 L3590.03,615.2969 A2.5,2.5 0 0 1 3592.53,617.7969 L3592.53,982.5 A2.5,2.5 0 0 1 3590.03,985 L102.03,985 A2.5,2.5 0 0 1 99.53,982.5 L99.53,595.5 A2.5,2.5 0 0 1 102.03,593 " fill="none" style="stroke:#000000;stroke-width:1.5;"/><line style="stroke:#000000;stroke-width:1.5;" x1="99.53" x2="138.53" y1="615.2969" y2="615.2969"/><text fill="#000000" font-family="sans-serif" font-size="14" font-weight="bold" lengthAdjust="spacing" textLength="26" x="103.53" y="607.9951">odt</text></g><!--cluster api--><g id="cluster_api"><rect fill="none" height="309" rx="2.5" ry="2.5" style="stroke:#181818;stroke-width:1.0;" width="1838" x="566.53" y="644"/><text fill="#000000" font-family="sans-serif" font-size="14" font-weight="bold" lengthAdjust="spacing" textLength="23" x="1474.03" y="658.9951">api</text></g><!--cluster panel_decision--><g id="cluster_panel_decision"><rect fill="none" height="144" rx="2.5" ry="2.5" style="stroke:#181818;stroke-width:1.0;" width="342" x="590.53" y="736"/><text fill="#000000" font-family="sans-serif" font-size="14" font-weight="bold" lengthAdjust="spacing" textLength="116" x="703.53" y="750.9951">panel_decision</text></g><!--cluster panels--><g id="cluster_panels"><rect fill="none" height="144" rx="2.5" ry="2.5" style="stroke:#181818;stroke-width:1.0;" width="290" x="1290.53" y="736"/><text fill="#000000" font-family="sans-serif" font-size="14" font-weight="bold" lengthAdjust="spacing" textLength="52" x="1409.53" y="750.9951">panels</text></g><!--cluster prsls--><g id="cluster_prsls"><rect fill="none" height="242" rx="2.5" ry="2.5" style="stroke:#181818;stroke-width:1.0;" width="310" x="956.53" y="687"/><text fill="#000000" font-family="sans-serif" font-size="14" font-weight="bold" lengthAdjust="spacing" textLength="39" x="1092.03" y="701.9951">prsls</text></g><!--cluster report--><g id="cluster_report"><rect fill="none" height="96" rx="2.5" ry="2.5" style="stroke:#181818;stroke-width:1.0;" width="210" x="1862.53" y="760"/><text fill="#000000" font-family="sans-serif" font-size="14" font-weight="bold" lengthAdjust="spacing" textLength="50" x="1942.53" y="774.9951">report</text></g><!--cluster reviewers--><g id="cluster_reviewers"><rect fill="none" height="96" rx="2.5" ry="2.5" style="stroke:#181818;stroke-width:1.0;" width="234" x="1604.53" y="760"/><text fill="#000000" font-family="sans-serif" font-size="14" font-weight="bold" lengthAdjust="spacing" textLength="80" x="1681.53" y="774.9951">reviewers</text></g><!--cluster reviews--><g id="cluster_reviews"><rect fill="none" height="144" rx="2.5" ry="2.5" style="stroke:#181818;stroke-width:1.0;" width="284" x="2096.53" y="736"/><text fill="#000000" font-family="sans-serif" font-size="14" font-weight="bold" lengthAdjust="spacing" textLength="63" x="2207.03" y="750.9951">reviews</text></g><!--cluster utils.email_helper--><g id="cluster_utils.email_helper"><rect fill="none" height="112" rx="2.5" ry="2.5" style="stroke:#181818;stroke-width:1.0;" width="194" x="3366.53" y="752"/><text fill="#000000" font-family="sans-serif" font-size="14" font-weight="bold" lengthAdjust="spacing" textLength="137" x="3395.03" y="766.9951">utils.email_helper</text></g><!--cluster utils.pht_handler--><g id="cluster_utils.pht_handler"><rect fill="none" height="144" rx="2.5" ry="2.5" style="stroke:#181818;stroke-width:1.0;" width="352" x="2990.53" y="736"/><text fill="#000000" font-family="sans-serif" font-size="14" font-weight="bold" lengthAdjust="spacing" textLength="131" x="3101.03" y="750.9951">utils.pht_handler</text></g><!--cluster utils.s3_bucket--><g id="cluster_utils.s3_bucket"><rect fill="none" height="193" rx="2.5" ry="2.5" style="stroke:#181818;stroke-width:1.0;" width="316" x="2650.53" y="711.5"/><text fill="#000000" font-family="sans-serif" font-size="14" font-weight="bold" lengthAdjust="spacing" textLength="118" x="2749.53" y="726.4951">utils.s3_bucket</text></g><!--cluster utils.validation--><g id="cluster_utils.validation"><rect fill="none" height="112" rx="2.5" ry="2.5" style="stroke:#181818;stroke-width:1.0;" width="198" x="2428.53" y="752"/><text fill="#000000" font-family="sans-serif" font-size="14" font-weight="bold" lengthAdjust="spacing" textLength="113" x="2471.03" y="766.9951">utils.validation</text></g><!--cluster app--><g id="cluster_app"><rect fill="none" height="107" rx="2.5" ry="2.5" style="stroke:#181818;stroke-width:1.0;" width="142" x="36.53" y="7"/><text fill="#000000" font-family="sans-serif" font-size="14" font-weight="bold" lengthAdjust="spacing" textLength="29" x="93.03" y="21.9951">app</text></g><g id="elem_coordinates_items"><rect fill="#F1F1F1" height="93.4844" style="stroke:#181818;stroke-width:0.5;" width="268" x="977.53" y="322"/><text fill="#000000" font-family="sans-serif" font-size="14" lengthAdjust="spacing" textLength="127" x="1048.03" y="336.9951">coordinates_items</text><line style="stroke:#181818;stroke-width:0.5;" x1="978.53" x2="1244.53" y1="342.2969" y2="342.2969"/><ellipse cx="988.53" cy="355.9453" fill="none" rx="3" ry="3" style="stroke:#038048;stroke-width:1.0;"/><text fill="#000000" font-family="sans-serif" font-size="14" lengthAdjust="spacing" textLength="115" x="997.53" y="359.292">ReferenceFrame</text><ellipse cx="988.53" cy="372.2422" fill="none" rx="3" ry="3" style="stroke:#038048;stroke-width:1.0;"/><text fill="#000000" font-family="sans-serif" font-size="14" lengthAdjust="spacing" textLength="139" x="997.53" y="375.5889">EquatorialResponse</text><ellipse cx="988.53" cy="388.5391" fill="none" rx="3" ry="3" style="stroke:#038048;stroke-width:1.0;"/><text fill="#000000" font-family="sans-serif" font-size="14" lengthAdjust="spacing" textLength="125" x="997.53" y="391.8857">GalacticResponse</text><ellipse cx="988.53" cy="404.8359" fill="none" rx="3" ry="3" style="stroke:#038048;stroke-width:1.0;"/><text fill="#000000" font-family="sans-serif" font-size="14" lengthAdjust="spacing" textLength="242" x="997.53" y="408.1826">get_systemcoordinates«endpoint»</text></g><!--class Scope--><g id="elem_Scope"><rect codeLine="15" fill="#F1F1F1" height="48" id="Scope" rx="2.5" ry="2.5" style="stroke:#181818;stroke-width:0.5;" width="76" x="845.53" y="344.5"/><ellipse cx="860.53" cy="360.5" fill="#ADD1B2" rx="11" ry="11" style="stroke:#181818;stroke-width:1.0;"/><path d="M863.4988,366.1406 Q862.9206,366.4375 862.28,366.5781 Q861.6394,366.7344 860.9363,366.7344 Q858.4363,366.7344 857.1081,365.0938 Q855.7956,363.4375 855.7956,360.3125 Q855.7956,357.1875 857.1081,355.5313 Q858.4363,353.875 860.9363,353.875 Q861.6394,353.875 862.28,354.0313 Q862.9363,354.1875 863.4988,354.4844 L863.4988,357.2031 Q862.8738,356.625 862.28,356.3594 Q861.6863,356.0781 861.0613,356.0781 Q859.7175,356.0781 859.03,357.1563 Q858.3425,358.2188 858.3425,360.3125 Q858.3425,362.4063 859.03,363.4844 Q859.7175,364.5469 861.0613,364.5469 Q861.6863,364.5469 862.28,364.2813 Q862.8738,364 863.4988,363.4219 L863.4988,366.1406 Z " fill="#000000"/><text fill="#000000" font-family="sans-serif" font-size="14" lengthAdjust="spacing" textLength="44" x="874.53" y="365.3467">Scope</text><line style="stroke:#181818;stroke-width:0.5;" x1="846.53" x2="920.53" y1="376.5" y2="376.5"/><line style="stroke:#181818;stroke-width:0.5;" x1="846.53" x2="920.53" y1="384.5" y2="384.5"/></g><!--entity constants--><g id="elem_constants"><rect fill="#F1F1F1" height="36.2969" rx="2.5" ry="2.5" style="stroke:#181818;stroke-width:0.5;" width="89" x="143.03" y="350.5"/><text fill="#000000" font-family="sans-serif" font-size="14" lengthAdjust="spacing" textLength="69" x="153.03" y="373.4951">constants</text></g><g id="elem_coordinateslookup_items"><rect fill="#F1F1F1" height="126.0781" style="stroke:#181818;stroke-width:0.5;" width="188" x="601.53" y="305.5"/><text fill="#000000" font-family="sans-serif" font-size="14" lengthAdjust="spacing" textLength="174" x="608.53" y="320.4951">coordinateslookup_items</text><line style="stroke:#181818;stroke-width:0.5;" x1="602.53" x2="788.53" y1="325.7969" y2="325.7969"/><ellipse cx="612.53" cy="339.4453" fill="none" rx="3" ry="3" style="stroke:#038048;stroke-width:1.0;"/><text fill="#000000" font-family="sans-serif" font-size="14" lengthAdjust="spacing" textLength="68" x="621.53" y="342.792">Equatorial</text><ellipse cx="612.53" cy="355.7422" fill="none" rx="3" ry="3" style="stroke:#038048;stroke-width:1.0;"/><text fill="#000000" font-family="sans-serif" font-size="14" lengthAdjust="spacing" textLength="54" x="621.53" y="359.0889">Galactic</text><ellipse cx="612.53" cy="372.0391" fill="#84BE84" rx="3" ry="3" style="stroke:#038048;stroke-width:1.0;"/><text fill="#000000" font-family="sans-serif" font-size="14" lengthAdjust="spacing" textLength="98" x="621.53" y="375.3857">round_coord()</text><ellipse cx="612.53" cy="388.3359" fill="#84BE84" rx="3" ry="3" style="stroke:#038048;stroke-width:1.0;"/><text fill="#000000" font-family="sans-serif" font-size="14" lengthAdjust="spacing" textLength="149" x="621.53" y="391.6826">convert_ra_dec_deg()</text><ellipse cx="612.53" cy="404.6328" fill="#84BE84" rx="3" ry="3" style="stroke:#038048;stroke-width:1.0;"/><text fill="#000000" font-family="sans-serif" font-size="14" lengthAdjust="spacing" textLength="142" x="621.53" y="407.9795">convert_to_galactic()</text><ellipse cx="612.53" cy="420.9297" fill="#84BE84" rx="3" ry="3" style="stroke:#038048;stroke-width:1.0;"/><text fill="#000000" font-family="sans-serif" font-size="14" lengthAdjust="spacing" textLength="122" x="621.53" y="424.2764">get_coordinates()</text></g><g id="elem_error_handling_items"><rect fill="#F1F1F1" height="191.2656" style="stroke:#181818;stroke-width:0.5;" width="278" x="267.53" y="273"/><text fill="#000000" font-family="sans-serif" font-size="14" lengthAdjust="spacing" textLength="144" x="334.53" y="287.9951">error_handling_items</text><line style="stroke:#181818;stroke-width:0.5;" x1="268.53" x2="544.53" y1="293.2969" y2="293.2969"/><ellipse cx="278.53" cy="306.9453" fill="#84BE84" rx="3" ry="3" style="stroke:#038048;stroke-width:1.0;"/><text fill="#000000" font-family="sans-serif" font-size="14" lengthAdjust="spacing" textLength="95" x="287.53" y="310.292">error_details()</text><ellipse cx="278.53" cy="323.2422" fill="none" rx="3" ry="3" style="stroke:#038048;stroke-width:1.0;"/><text fill="#000000" font-family="sans-serif" font-size="14" lengthAdjust="spacing" textLength="119" x="287.53" y="326.5889">BadRequestError</text><ellipse cx="278.53" cy="339.5391" fill="none" rx="3" ry="3" style="stroke:#038048;stroke-width:1.0;"/><text fill="#000000" font-family="sans-serif" font-size="14" lengthAdjust="spacing" textLength="98" x="287.53" y="342.8857">DuplicateError</text><ellipse cx="278.53" cy="355.8359" fill="none" rx="3" ry="3" style="stroke:#038048;stroke-width:1.0;"/><text fill="#000000" font-family="sans-serif" font-size="14" lengthAdjust="spacing" textLength="175" x="287.53" y="359.1826">UnprocessableEntityError</text><ellipse cx="278.53" cy="372.1328" fill="none" rx="3" ry="3" style="stroke:#038048;stroke-width:1.0;"/><text fill="#000000" font-family="sans-serif" font-size="14" lengthAdjust="spacing" textLength="101" x="287.53" y="375.4795">NotFoundError</text><ellipse cx="278.53" cy="388.4297" fill="#84BE84" rx="3" ry="3" style="stroke:#038048;stroke-width:1.0;"/><text fill="#000000" font-family="sans-serif" font-size="14" lengthAdjust="spacing" textLength="128" x="287.53" y="391.7764">_make_response()</text><ellipse cx="278.53" cy="404.7266" fill="#84BE84" rx="3" ry="3" style="stroke:#038048;stroke-width:1.0;"/><text fill="#000000" font-family="sans-serif" font-size="14" lengthAdjust="spacing" textLength="172" x="287.53" y="408.0732">oda_not_found_handler()</text><ellipse cx="278.53" cy="421.0234" fill="#84BE84" rx="3" ry="3" style="stroke:#038048;stroke-width:1.0;"/><text fill="#000000" font-family="sans-serif" font-size="14" lengthAdjust="spacing" textLength="135" x="287.53" y="424.3701">oda_error_handler()</text><ellipse cx="278.53" cy="437.3203" fill="#84BE84" rx="3" ry="3" style="stroke:#038048;stroke-width:1.0;"/><text fill="#000000" font-family="sans-serif" font-size="14" lengthAdjust="spacing" textLength="226" x="287.53" y="440.667">oda_unique_constraint_handler()</text><ellipse cx="278.53" cy="453.6172" fill="#84BE84" rx="3" ry="3" style="stroke:#038048;stroke-width:1.0;"/><text fill="#000000" font-family="sans-serif" font-size="14" lengthAdjust="spacing" textLength="252" x="287.53" y="456.9639">dangerous_internal_server_handler()</text></g><g id="elem_model_items"><rect fill="#F1F1F1" height="93.4844" style="stroke:#181818;stroke-width:0.5;" width="202" x="1510.53" y="322"/><text fill="#000000" font-family="sans-serif" font-size="14" lengthAdjust="spacing" textLength="88" x="1567.53" y="336.9951">model_items</text><line style="stroke:#181818;stroke-width:0.5;" x1="1511.53" x2="1711.53" y1="342.2969" y2="342.2969"/><ellipse cx="1521.53" cy="355.9453" fill="none" rx="3" ry="3" style="stroke:#038048;stroke-width:1.0;"/><text fill="#000000" font-family="sans-serif" font-size="14" lengthAdjust="spacing" textLength="69" x="1530.53" y="359.292">AppModel</text><ellipse cx="1521.53" cy="372.2422" fill="none" rx="3" ry="3" style="stroke:#038048;stroke-width:1.0;"/><text fill="#000000" font-family="sans-serif" font-size="14" lengthAdjust="spacing" textLength="137" x="1530.53" y="375.5889">ValidationResponse</text><ellipse cx="1521.53" cy="388.5391" fill="none" rx="3" ry="3" style="stroke:#038048;stroke-width:1.0;"/><text fill="#000000" font-family="sans-serif" font-size="14" lengthAdjust="spacing" textLength="176" x="1530.53" y="391.8857">ErrorResponseTraceback</text><ellipse cx="1521.53" cy="404.8359" fill="none" rx="3" ry="3" style="stroke:#038048;stroke-width:1.0;"/><text fill="#000000" font-family="sans-serif" font-size="14" lengthAdjust="spacing" textLength="80" x="1530.53" y="408.1826">ErrorDetails</text></g><g id="elem_models"><rect fill="#F1F1F1" height="272.75" style="stroke:#181818;stroke-width:0.5;" width="173" x="1302.03" y="232"/><text fill="#000000" font-family="sans-serif" font-size="14" lengthAdjust="spacing" textLength="51" x="1363.03" y="246.9951">models</text><line style="stroke:#181818;stroke-width:0.5;" x1="1303.03" x2="1474.03" y1="252.2969" y2="252.2969"/><text fill="#000000" font-family="sans-serif" font-size="14" lengthAdjust="spacing" textLength="105" x="1308.03" y="269.292">EmailRequest()</text><text fill="#000000" font-family="sans-serif" font-size="14" lengthAdjust="spacing" textLength="124" x="1308.03" y="285.5889">CycleInformation()</text><text fill="#000000" font-family="sans-serif" font-size="14" lengthAdjust="spacing" textLength="99" x="1308.03" y="301.8857">CyclePolicies()</text><text fill="#000000" font-family="sans-serif" font-size="14" lengthAdjust="spacing" textLength="161" x="1308.03" y="318.1826">TelescopeCapabilities()</text><text fill="#000000" font-family="sans-serif" font-size="14" lengthAdjust="spacing" textLength="132" x="1308.03" y="334.4795">ObservatoryPolicy()</text><text fill="#000000" font-family="sans-serif" font-size="14" lengthAdjust="spacing" textLength="147" x="1308.03" y="350.7764">ReceiverInformation()</text><text fill="#000000" font-family="sans-serif" font-size="14" lengthAdjust="spacing" textLength="149" x="1308.03" y="367.0732">BasicCapabilitiesMid()</text><text fill="#000000" font-family="sans-serif" font-size="14" lengthAdjust="spacing" textLength="70" x="1308.03" y="383.3701">AA2_MID()</text><text fill="#000000" font-family="sans-serif" font-size="14" lengthAdjust="spacing" textLength="34" x="1308.03" y="399.667">Mid()</text><text fill="#000000" font-family="sans-serif" font-size="14" lengthAdjust="spacing" textLength="152" x="1308.03" y="415.9639">BasicCapabilitiesLow()</text><text fill="#000000" font-family="sans-serif" font-size="14" lengthAdjust="spacing" textLength="75" x="1308.03" y="432.2607">AA2_LOW()</text><text fill="#000000" font-family="sans-serif" font-size="14" lengthAdjust="spacing" textLength="37" x="1308.03" y="448.5576">Low()</text><text fill="#000000" font-family="sans-serif" font-size="14" lengthAdjust="spacing" textLength="88" x="1308.03" y="464.8545">Capabilities()</text><text fill="#000000" font-family="sans-serif" font-size="14" lengthAdjust="spacing" textLength="112" x="1308.03" y="481.1514">OsdDataModel()</text><text fill="#000000" font-family="sans-serif" font-size="14" lengthAdjust="spacing" textLength="117" x="1308.03" y="497.4482">ProposalReport()</text></g><g id="elem_osdmapper_items"><rect fill="#F1F1F1" height="158.6719" style="stroke:#181818;stroke-width:0.5;" width="271" x="1769.03" y="289"/><text fill="#000000" font-family="sans-serif" font-size="14" lengthAdjust="spacing" textLength="124" x="1842.53" y="303.9951">osdmapper_items</text><line style="stroke:#181818;stroke-width:0.5;" x1="1770.03" x2="2039.03" y1="309.2969" y2="309.2969"/><ellipse cx="1780.03" cy="322.9453" fill="none" rx="3" ry="3" style="stroke:#038048;stroke-width:1.0;"/><text fill="#000000" font-family="sans-serif" font-size="14" lengthAdjust="spacing" textLength="109" x="1789.03" y="326.292">FrequencyBand</text><ellipse cx="1780.03" cy="339.2422" fill="none" rx="3" ry="3" style="stroke:#038048;stroke-width:1.0;"/><text fill="#000000" font-family="sans-serif" font-size="14" lengthAdjust="spacing" textLength="60" x="1789.03" y="342.5889">Subarray</text><ellipse cx="1780.03" cy="355.5391" fill="none" rx="3" ry="3" style="stroke:#038048;stroke-width:1.0;"/><text fill="#000000" font-family="sans-serif" font-size="14" lengthAdjust="spacing" textLength="116" x="1789.03" y="358.8857">MidConfiguration</text><ellipse cx="1780.03" cy="371.8359" fill="none" rx="3" ry="3" style="stroke:#038048;stroke-width:1.0;"/><text fill="#000000" font-family="sans-serif" font-size="14" lengthAdjust="spacing" textLength="119" x="1789.03" y="375.1826">LowConfiguration</text><ellipse cx="1780.03" cy="388.1328" fill="none" rx="3" ry="3" style="stroke:#038048;stroke-width:1.0;"/><text fill="#000000" font-family="sans-serif" font-size="14" lengthAdjust="spacing" textLength="92" x="1789.03" y="391.4795">Configuration</text><ellipse cx="1780.03" cy="404.4297" fill="#84BE84" rx="3" ry="3" style="stroke:#038048;stroke-width:1.0;"/><text fill="#000000" font-family="sans-serif" font-size="14" lengthAdjust="spacing" textLength="171" x="1789.03" y="407.7764">configuration_from_osd()</text><ellipse cx="1780.03" cy="420.7266" fill="#84BE84" rx="3" ry="3" style="stroke:#038048;stroke-width:1.0;"/><text fill="#000000" font-family="sans-serif" font-size="14" lengthAdjust="spacing" textLength="245" x="1789.03" y="424.0732">_get_mid_telescope_configuration()</text><ellipse cx="1780.03" cy="437.0234" fill="#84BE84" rx="3" ry="3" style="stroke:#038048;stroke-width:1.0;"/><text fill="#000000" font-family="sans-serif" font-size="14" lengthAdjust="spacing" textLength="243" x="1789.03" y="440.3701">_get_low_telescope_configuration()</text></g><g id="elem_odt_note"><path d="M299.03,805 L299.03,830.1328 L550.03,830.1328 L550.03,815 L540.03,805 L299.03,805 " fill="#FEFFDD" style="stroke:#181818;stroke-width:0.5;"/><path d="M540.03,805 L540.03,815 L550.03,815 L540.03,805 " fill="#FEFFDD" style="stroke:#181818;stroke-width:1.0;"/><text fill="#000000" font-family="sans-serif" font-size="13" lengthAdjust="spacing" textLength="230" x="305.03" y="822.0669">"ODT section minimized in this view"</text></g><g id="elem_panel_decision_endpoints"><rect fill="#F1F1F1" height="93.4844" style="stroke:#181818;stroke-width:0.5;" width="310" x="606.53" y="771"/><text fill="#000000" font-family="sans-serif" font-size="14" lengthAdjust="spacing" textLength="180" x="671.53" y="785.9951">panel_decision_endpoints</text><line style="stroke:#181818;stroke-width:0.5;" x1="607.53" x2="915.53" y1="791.2969" y2="791.2969"/><ellipse cx="617.53" cy="804.9453" fill="none" rx="3" ry="3" style="stroke:#038048;stroke-width:1.0;"/><text fill="#000000" font-family="sans-serif" font-size="14" lengthAdjust="spacing" textLength="234" x="626.53" y="808.292">create_panel_decision«endpoint»</text><ellipse cx="617.53" cy="821.2422" fill="none" rx="3" ry="3" style="stroke:#038048;stroke-width:1.0;"/><text fill="#000000" font-family="sans-serif" font-size="14" lengthAdjust="spacing" textLength="213" x="626.53" y="824.5889">get_panel_decision«endpoint»</text><ellipse cx="617.53" cy="837.5391" fill="none" rx="3" ry="3" style="stroke:#038048;stroke-width:1.0;"/><text fill="#000000" font-family="sans-serif" font-size="14" lengthAdjust="spacing" textLength="284" x="626.53" y="840.8857">get_panel_decisions_for_user«endpoint»</text><ellipse cx="617.53" cy="853.8359" fill="none" rx="3" ry="3" style="stroke:#038048;stroke-width:1.0;"/><text fill="#000000" font-family="sans-serif" font-size="14" lengthAdjust="spacing" textLength="239" x="626.53" y="857.1826">update_panel_decision«endpoint»</text></g><g id="elem_panels_endpoints"><rect fill="#F1F1F1" height="93.4844" style="stroke:#181818;stroke-width:0.5;" width="258" x="1306.53" y="771"/><text fill="#000000" font-family="sans-serif" font-size="14" lengthAdjust="spacing" textLength="123" x="1374.03" y="785.9951">panels_endpoints</text><line style="stroke:#181818;stroke-width:0.5;" x1="1307.53" x2="1563.53" y1="791.2969" y2="791.2969"/><ellipse cx="1317.53" cy="804.9453" fill="none" rx="3" ry="3" style="stroke:#038048;stroke-width:1.0;"/><text fill="#000000" font-family="sans-serif" font-size="14" lengthAdjust="spacing" textLength="169" x="1326.53" y="808.292">create_panel«endpoint»</text><ellipse cx="1317.53" cy="821.2422" fill="none" rx="3" ry="3" style="stroke:#038048;stroke-width:1.0;"/><text fill="#000000" font-family="sans-serif" font-size="14" lengthAdjust="spacing" textLength="148" x="1326.53" y="824.5889">get_panel«endpoint»</text><ellipse cx="1317.53" cy="837.5391" fill="none" rx="3" ry="3" style="stroke:#038048;stroke-width:1.0;"/><text fill="#000000" font-family="sans-serif" font-size="14" lengthAdjust="spacing" textLength="232" x="1326.53" y="840.8857">get_reviews_for_panel«endpoint»</text><ellipse cx="1317.53" cy="853.8359" fill="none" rx="3" ry="3" style="stroke:#038048;stroke-width:1.0;"/><text fill="#000000" font-family="sans-serif" font-size="14" lengthAdjust="spacing" textLength="219" x="1326.53" y="857.1826">get_panels_for_user«endpoint»</text></g><g id="elem_prsls_endpoints"><rect fill="#F1F1F1" height="191.2656" style="stroke:#181818;stroke-width:0.5;" width="277" x="973.03" y="722"/><text fill="#000000" font-family="sans-serif" font-size="14" lengthAdjust="spacing" textLength="110" x="1056.53" y="736.9951">prsls_endpoints</text><line style="stroke:#181818;stroke-width:0.5;" x1="974.03" x2="1249.03" y1="742.2969" y2="742.2969"/><ellipse cx="984.03" cy="755.9453" fill="none" rx="3" ry="3" style="stroke:#038048;stroke-width:1.0;"/><text fill="#000000" font-family="sans-serif" font-size="14" lengthAdjust="spacing" textLength="201" x="993.03" y="759.292">get_osd_by_cycle«endpoint»</text><ellipse cx="984.03" cy="772.2422" fill="none" rx="3" ry="3" style="stroke:#038048;stroke-width:1.0;"/><text fill="#000000" font-family="sans-serif" font-size="14" lengthAdjust="spacing" textLength="191" x="993.03" y="775.5889">create_proposal«endpoint»</text><ellipse cx="984.03" cy="788.5391" fill="none" rx="3" ry="3" style="stroke:#038048;stroke-width:1.0;"/><text fill="#000000" font-family="sans-serif" font-size="14" lengthAdjust="spacing" textLength="170" x="993.03" y="791.8857">get_proposal«endpoint»</text><ellipse cx="984.03" cy="804.8359" fill="none" rx="3" ry="3" style="stroke:#038048;stroke-width:1.0;"/><text fill="#000000" font-family="sans-serif" font-size="14" lengthAdjust="spacing" textLength="241" x="993.03" y="808.1826">get_proposals_for_user«endpoint»</text><ellipse cx="984.03" cy="821.1328" fill="none" rx="3" ry="3" style="stroke:#038048;stroke-width:1.0;"/><text fill="#000000" font-family="sans-serif" font-size="14" lengthAdjust="spacing" textLength="196" x="993.03" y="824.4795">update_proposal«endpoint»</text><ellipse cx="984.03" cy="837.4297" fill="none" rx="3" ry="3" style="stroke:#038048;stroke-width:1.0;"/><text fill="#000000" font-family="sans-serif" font-size="14" lengthAdjust="spacing" textLength="199" x="993.03" y="840.7764">validate_proposal«endpoint»</text><ellipse cx="984.03" cy="853.7266" fill="none" rx="3" ry="3" style="stroke:#038048;stroke-width:1.0;"/><text fill="#000000" font-family="sans-serif" font-size="14" lengthAdjust="spacing" textLength="158" x="993.03" y="857.0732">send_email«endpoint»</text><ellipse cx="984.03" cy="870.0234" fill="none" rx="3" ry="3" style="stroke:#038048;stroke-width:1.0;"/><text fill="#000000" font-family="sans-serif" font-size="14" lengthAdjust="spacing" textLength="231" x="993.03" y="873.3701">create_upload_pdf_url«endpoint»</text><ellipse cx="984.03" cy="886.3203" fill="none" rx="3" ry="3" style="stroke:#038048;stroke-width:1.0;"/><text fill="#000000" font-family="sans-serif" font-size="14" lengthAdjust="spacing" textLength="251" x="993.03" y="889.667">create_download_pdf_url«endpoint»</text><ellipse cx="984.03" cy="902.6172" fill="none" rx="3" ry="3" style="stroke:#038048;stroke-width:1.0;"/><text fill="#000000" font-family="sans-serif" font-size="14" lengthAdjust="spacing" textLength="228" x="993.03" y="905.9639">create_delete_pdf_url«endpoint»</text></g><g id="elem_report_endpoints"><rect fill="#F1F1F1" height="44.5938" style="stroke:#181818;stroke-width:0.5;" width="178" x="1878.53" y="795"/><text fill="#000000" font-family="sans-serif" font-size="14" lengthAdjust="spacing" textLength="119" x="1908.03" y="809.9951">report_endpoints</text><line style="stroke:#181818;stroke-width:0.5;" x1="1879.53" x2="2055.53" y1="815.2969" y2="815.2969"/><ellipse cx="1889.53" cy="828.9453" fill="none" rx="3" ry="3" style="stroke:#038048;stroke-width:1.0;"/><text fill="#000000" font-family="sans-serif" font-size="14" lengthAdjust="spacing" textLength="152" x="1898.53" y="832.292">get_report«endpoint»</text></g><g id="elem_reviewers_endpoints"><rect fill="#F1F1F1" height="44.5938" style="stroke:#181818;stroke-width:0.5;" width="202" x="1620.53" y="795"/><text fill="#000000" font-family="sans-serif" font-size="14" lengthAdjust="spacing" textLength="143" x="1650.03" y="809.9951">reviewers_endpoints</text><line style="stroke:#181818;stroke-width:0.5;" x1="1621.53" x2="1821.53" y1="815.2969" y2="815.2969"/><ellipse cx="1631.53" cy="828.9453" fill="none" rx="3" ry="3" style="stroke:#038048;stroke-width:1.0;"/><text fill="#000000" font-family="sans-serif" font-size="14" lengthAdjust="spacing" textLength="176" x="1640.53" y="832.292">get_reviewers«endpoint»</text></g><g id="elem_reviews_endpoints"><rect fill="#F1F1F1" height="93.4844" style="stroke:#181818;stroke-width:0.5;" width="251" x="2113.03" y="771"/><text fill="#000000" font-family="sans-serif" font-size="14" lengthAdjust="spacing" textLength="129" x="2174.03" y="785.9951">reviews_endpoints</text><line style="stroke:#181818;stroke-width:0.5;" x1="2114.03" x2="2363.03" y1="791.2969" y2="791.2969"/><ellipse cx="2124.03" cy="804.9453" fill="none" rx="3" ry="3" style="stroke:#038048;stroke-width:1.0;"/><text fill="#000000" font-family="sans-serif" font-size="14" lengthAdjust="spacing" textLength="175" x="2133.03" y="808.292">create_review«endpoint»</text><ellipse cx="2124.03" cy="821.2422" fill="none" rx="3" ry="3" style="stroke:#038048;stroke-width:1.0;"/><text fill="#000000" font-family="sans-serif" font-size="14" lengthAdjust="spacing" textLength="154" x="2133.03" y="824.5889">get_review«endpoint»</text><ellipse cx="2124.03" cy="837.5391" fill="none" rx="3" ry="3" style="stroke:#038048;stroke-width:1.0;"/><text fill="#000000" font-family="sans-serif" font-size="14" lengthAdjust="spacing" textLength="225" x="2133.03" y="840.8857">get_reviews_for_user«endpoint»</text><ellipse cx="2124.03" cy="853.8359" fill="none" rx="3" ry="3" style="stroke:#038048;stroke-width:1.0;"/><text fill="#000000" font-family="sans-serif" font-size="14" lengthAdjust="spacing" textLength="180" x="2133.03" y="857.1826">update_review«endpoint»</text></g><!--entity utils.constants--><g id="elem_utils.constants"><rect fill="#F1F1F1" height="36.2969" rx="2.5" ry="2.5" style="stroke:#181818;stroke-width:0.5;" width="121" x="143.03" y="799.5"/><text fill="#000000" font-family="sans-serif" font-size="14" lengthAdjust="spacing" textLength="101" x="153.03" y="822.4951">utils.constants</text></g><g id="elem_email_helper_items"><rect fill="#F1F1F1" height="60.8906" style="stroke:#181818;stroke-width:0.5;" width="161" x="3383.03" y="787"/><text fill="#000000" font-family="sans-serif" font-size="14" lengthAdjust="spacing" textLength="132" x="3397.53" y="801.9951">email_helper_items</text><line style="stroke:#181818;stroke-width:0.5;" x1="3384.03" x2="3543.03" y1="807.2969" y2="807.2969"/><ellipse cx="3394.03" cy="820.9453" fill="#84BE84" rx="3" ry="3" style="stroke:#038048;stroke-width:1.0;"/><text fill="#000000" font-family="sans-serif" font-size="14" lengthAdjust="spacing" textLength="99" x="3403.03" y="824.292">render_email()</text><ellipse cx="3394.03" cy="837.2422" fill="#84BE84" rx="3" ry="3" style="stroke:#038048;stroke-width:1.0;"/><text fill="#000000" font-family="sans-serif" font-size="14" lengthAdjust="spacing" textLength="135" x="3403.03" y="840.5889">send_email_async()</text></g><g id="elem_pht_handler_items"><rect fill="#F1F1F1" height="93.4844" style="stroke:#181818;stroke-width:0.5;" width="320" x="3006.53" y="771"/><text fill="#000000" font-family="sans-serif" font-size="14" lengthAdjust="spacing" textLength="127" x="3103.03" y="785.9951">pht_handler_items</text><line style="stroke:#181818;stroke-width:0.5;" x1="3007.53" x2="3325.53" y1="791.2969" y2="791.2969"/><ellipse cx="3017.53" cy="804.9453" fill="#84BE84" rx="3" ry="3" style="stroke:#038048;stroke-width:1.0;"/><text fill="#000000" font-family="sans-serif" font-size="14" lengthAdjust="spacing" textLength="199" x="3026.53" y="808.292">transform_update_proposal()</text><ellipse cx="3017.53" cy="821.2422" fill="#84BE84" rx="3" ry="3" style="stroke:#038048;stroke-width:1.0;"/><text fill="#000000" font-family="sans-serif" font-size="14" lengthAdjust="spacing" textLength="165" x="3026.53" y="824.5889">get_latest_entity_by_id()</text><ellipse cx="3017.53" cy="837.5391" fill="#84BE84" rx="3" ry="3" style="stroke:#038048;stroke-width:1.0;"/><text fill="#000000" font-family="sans-serif" font-size="14" lengthAdjust="spacing" textLength="122" x="3026.53" y="840.8857">_get_array_class()</text><ellipse cx="3017.53" cy="853.8359" fill="#84BE84" rx="3" ry="3" style="stroke:#038048;stroke-width:1.0;"/><text fill="#000000" font-family="sans-serif" font-size="14" lengthAdjust="spacing" textLength="294" x="3026.53" y="857.1826">join_proposals_panels_reviews_decisions()</text></g><g id="elem_s3_bucket_items"><rect fill="#F1F1F1" height="142.375" style="stroke:#181818;stroke-width:0.5;" width="284" x="2666.53" y="746.5"/><text fill="#000000" font-family="sans-serif" font-size="14" lengthAdjust="spacing" textLength="117" x="2750.03" y="761.4951">s3_bucket_items</text><line style="stroke:#181818;stroke-width:0.5;" x1="2667.53" x2="2949.53" y1="766.7969" y2="766.7969"/><text fill="#000000" font-family="sans-serif" font-size="14" lengthAdjust="spacing" textLength="71" x="2686.53" y="783.792">S3Method</text><text fill="#000000" font-family="sans-serif" font-size="14" lengthAdjust="spacing" textLength="62" x="2686.53" y="800.0889">S3Config</text><ellipse cx="2677.53" cy="813.0391" fill="#84BE84" rx="3" ry="3" style="stroke:#038048;stroke-width:1.0;"/><text fill="#000000" font-family="sans-serif" font-size="14" lengthAdjust="spacing" textLength="111" x="2686.53" y="816.3857">get_aws_client()</text><ellipse cx="2677.53" cy="829.3359" fill="#84BE84" rx="3" ry="3" style="stroke:#038048;stroke-width:1.0;"/><text fill="#000000" font-family="sans-serif" font-size="14" lengthAdjust="spacing" textLength="174" x="2686.53" y="832.6826">generate_presigned_url()</text><ellipse cx="2677.53" cy="845.6328" fill="#84BE84" rx="3" ry="3" style="stroke:#038048;stroke-width:1.0;"/><text fill="#000000" font-family="sans-serif" font-size="14" lengthAdjust="spacing" textLength="238" x="2686.53" y="848.9795">create_presigned_url_upload_pdf()</text><ellipse cx="2677.53" cy="861.9297" fill="#84BE84" rx="3" ry="3" style="stroke:#038048;stroke-width:1.0;"/><text fill="#000000" font-family="sans-serif" font-size="14" lengthAdjust="spacing" textLength="258" x="2686.53" y="865.2764">create_presigned_url_download_pdf()</text><ellipse cx="2677.53" cy="878.2266" fill="#84BE84" rx="3" ry="3" style="stroke:#038048;stroke-width:1.0;"/><text fill="#000000" font-family="sans-serif" font-size="14" lengthAdjust="spacing" textLength="235" x="2686.53" y="881.5732">create_presigned_url_delete_pdf()</text></g><g id="elem_validation_items"><rect fill="#F1F1F1" height="60.8906" style="stroke:#181818;stroke-width:0.5;" width="166" x="2444.53" y="787"/><text fill="#000000" font-family="sans-serif" font-size="14" lengthAdjust="spacing" textLength="109" x="2473.03" y="801.9951">validation_items</text><line style="stroke:#181818;stroke-width:0.5;" x1="2445.53" x2="2609.53" y1="807.2969" y2="807.2969"/><ellipse cx="2455.53" cy="820.9453" fill="#84BE84" rx="3" ry="3" style="stroke:#038048;stroke-width:1.0;"/><text fill="#000000" font-family="sans-serif" font-size="14" lengthAdjust="spacing" textLength="129" x="2464.53" y="824.292">validate_proposal()</text><ellipse cx="2455.53" cy="837.2422" fill="#84BE84" rx="3" ry="3" style="stroke:#038048;stroke-width:1.0;"/><text fill="#000000" font-family="sans-serif" font-size="14" lengthAdjust="spacing" textLength="140" x="2464.53" y="840.5889">validate_duplicates()</text></g><path d="M88.53,1009 L112.53,1009 A3.75,3.75 0 0 1 115.03,1011.5 L122.03,1031.2969 L126.53,1031.2969 A2.5,2.5 0 0 1 129.03,1033.7969 L129.03,1059.0938 A2.5,2.5 0 0 1 126.53,1061.5938 L88.53,1061.5938 A2.5,2.5 0 0 1 86.03,1059.0938 L86.03,1011.5 A2.5,2.5 0 0 1 88.53,1009 " fill="#F1F1F1" style="stroke:#181818;stroke-width:0.5;"/><line style="stroke:#181818;stroke-width:0.5;" x1="86.03" x2="122.03" y1="1031.2969" y2="1031.2969"/><text fill="#000000" font-family="sans-serif" font-size="14" lengthAdjust="spacing" textLength="23" x="90.03" y="1023.9951">pht</text><!--class create_app--><g id="elem_create_app"><rect codeLine="194" fill="#F1F1F1" height="56.2656" id="create_app" rx="2.5" ry="2.5" style="stroke:#181818;stroke-width:0.5;" width="109" x="53.03" y="42"/><ellipse cx="68.03" cy="62.1328" fill="#ADD1B2" rx="11" ry="11" style="stroke:#181818;stroke-width:1.0;"/><path d="M70.9988,67.7734 Q70.4206,68.0703 69.78,68.2109 Q69.1394,68.3672 68.4363,68.3672 Q65.9363,68.3672 64.6081,66.7266 Q63.2956,65.0703 63.2956,61.9453 Q63.2956,58.8203 64.6081,57.1641 Q65.9363,55.5078 68.4363,55.5078 Q69.1394,55.5078 69.78,55.6641 Q70.4363,55.8203 70.9988,56.1172 L70.9988,58.8359 Q70.3738,58.2578 69.78,57.9922 Q69.1863,57.7109 68.5613,57.7109 Q67.2175,57.7109 66.53,58.7891 Q65.8425,59.8516 65.8425,61.9453 Q65.8425,64.0391 66.53,65.1172 Q67.2175,66.1797 68.5613,66.1797 Q69.1863,66.1797 69.78,65.9141 Q70.3738,65.6328 70.9988,65.0547 L70.9988,67.7734 Z " fill="#000000"/><text fill="#000000" font-family="sans-serif" font-size="12" font-style="italic" lengthAdjust="spacing" textLength="65" x="88.03" y="58.1387">«function»</text><text fill="#000000" font-family="sans-serif" font-size="14" lengthAdjust="spacing" textLength="77" x="82.03" y="73.9639">create_app</text><line style="stroke:#181818;stroke-width:0.5;" x1="54.03" x2="161.03" y1="82.2656" y2="82.2656"/><line style="stroke:#181818;stroke-width:0.5;" x1="54.03" x2="161.03" y1="90.2656" y2="90.2656"/></g><!--link common_pkg to odt_pkg--><!--link common_pkg to odt_pkg--><!--link odt_pkg to pht_pkg--><!--link odt_pkg to pht_pkg--><!--reverse link create_app to common_pkg--><g id="link_create_app_common_pkg"><path codeLine="198" d="M107.53,103.36 C107.53,112.8163 107.53,123.9425 107.53,136.1849 C107.53,139.2455 107.53,142.3758 107.53,145.5673 " fill="none" id="create_app-backto-common_pkg" style="stroke:#181818;stroke-width:1.0;"/><polygon fill="#181818" points="107.53,98.1,103.53,107.1,107.53,103.1,111.53,107.1,107.53,98.1" style="stroke:#181818;stroke-width:1.0;"/></g><!--reverse link create_app to odt_pkg--><g id="link_create_app_odt_pkg"><path codeLine="199" d="M167.34,71.68 C491.34,75.47 2022.81,95.24 2056.53,130 C2192.39,270.04 2194.21,430.75 2056.53,569 C2037.61,587.99 146.18,558.77 126.53,577 C88,612.74 82.795,671.3175 87.445,721.5938 C89.77,746.7319 94.5588,769.7947 98.8775,786.8898 C99.0125,787.4241 99.147,787.9525 99.2809,788.4749 C99.3479,788.7361 99.4147,788.9959 99.4814,789.2541 " fill="none" id="create_app-backto-odt_pkg" style="stroke:#181818;stroke-width:1.0;"/><polygon fill="#181818" points="162.2,71.62,171.1537,75.7226,167.1997,71.6771,171.2451,67.7231,162.2,71.62" style="stroke:#181818;stroke-width:1.0;"/></g><!--reverse link create_app to pht_pkg--><g id="link_create_app_pht_pkg"><path codeLine="200" d="M97.13,103.26 C94.82,111.85 92.7,121.2 91.53,130 C40.42,513.72 6,623.46 91.53,1001 C92.13,1003.64 92.96,1006.32 93.93,1008.94 " fill="none" id="create_app-backto-pht_pkg" style="stroke:#181818;stroke-width:1.0;"/><polygon fill="#181818" points="98.59,98.01,92.319,105.6044,97.2466,102.8262,100.0248,107.7538,98.59,98.01" style="stroke:#181818;stroke-width:1.0;"/></g><!--SRC=[fLZTJoCt47_FNs7nqZjLyD1xHKX0e48w2WBQUwWgorbF4bzsRP_j1QKL_tl7-nLdrvjrk4YGoFCRxypFy-5PfpHnYYoKSweWN1Z8d51oDjCisx0La9DC5OMI9uHPKl-aUhCY_yrc13yTYcbnbYbbk93CWJqXv-TFk1MJgnmkBX1EcezQVCTr4c2fS53O0E8_lv8dM881cS6jOGNqX3S_IkQK4In_0gkLj7t0xondw4as8bw1etPhyS618UVd8BbMGhgBYmx_Fgl_zzmjtNhSnondrfBdJ6c8QcTe4Qgv4Pg6yCx4NAbDgOzXjzOOuNX7umXzlMMZIibfjVkdppqPElKAnb73A8SC_rQZ4AVegdd00EDF9Z0_aCTF0enHXgwPvBcGgqbczk4ZjDGW3ew9t0uil6By2NwKODsDn_MayrBd8aFJOy8_fJOg0slP8eSRwOJRnc1_A7VhcOx9QC4sG4qJrWFZ56TKAaUNrKbLVeA9eW8cHX2b5EWchQBLC4oBKJH7lW630tDPEZ2IvTI2mREEQCIFiL0SyidJgr0ZXtQfzRqNzvR_OhdWpDUqaL9GaTpANWpBO856nK3pEY0cF56M5qnhC9FUTCWHZswD3pEPRQ-Gn9xikLmmOzYsjtml-BMIIx4gJULpJ_nLlHqI7v9beOmkZIeesZ-81Ehpjn2SEiZ1-Wf8zpJZ2hbwIr1e-NuFkfFYhcfD-Dtq9O_1381srV-k5ayUvY_4rlsD54AAGlmBd0X9t5fOyYhWxQG2OXSWdLROuSPFz1VowP9p_pno-NX7sZvYoHfx615BibKbUSEI_pdYWrxNFk1tu4FQWtURC8cfWPLNME7RzPX247_xAhGpUX_S7By1h6bqNoNQCFTB-KygM2naXfPOJ2PKIysFiEzzDlorpwHDPz2cCvVgVmBEW0_Ocf-ZzawWz30zngQouv67oV5MOHcXYotDjbaE4qwqN1gbbML9BXyFFJhcqXxnMZUYPBn5AOK2EquQANZlK8nJpPUqD8awNBt93sXXfVP-JEWSZ283MXcN54OrT3gEQjn7pV7P1COcMjIWKunge3zZrp5MfLMZ6fjSPewiH-cvCx7z-yHTgtHu7pixSfogbQhCecl8Ksvg8NZaieQZAaTXXHnSSdQvJ9dToYnogOcOwEy3pVrvqi80Es8WNk6bnTCfQAzkHKUmt0zVFkdyZEBBinYvwrMtK5fDl0F0TppIeAmsxQUDbAx7fx5Xlz15cMt0JNBH8QDCF7-v1xTMlBTOttqZJ30qDSi5CX4XIeAfgGGhLXAuBuZ3iRVjMW4eADTf-B1K9sfqPJgDuDTkKffaU0ST2RP1inkOt25uEp17P_qFJubzcsvyzZLpUy-OQt_pk9C-Ds8pIYL-L6YaW7wClxH3opNJR25ouOQOXuMVXVrxbcsroxOdHrz0uAmyRi4Lio8Bdt0_oCRBoz_e_Tsyjph43RR2aJ2orTU7RxtL8UwGovRFcMFLFDuJFJO1yLHrw_Xq5xndFFLn__TQS0xodzDsp4j0j0DXJzpCM5FYMJ1zZRnkgr_oDPc7A0GjIrbDbzZ5VEY6HfRwz88WwcodiBCX9co7mPZmVm00]--></g></svg>