<?xml version="1.0" encoding="UTF-8" standalone="no"?><svg xmlns="http://www.w3.org/2000/svg" xmlns:xlink="http://www.w3.org/1999/xlink" contentStyleType="text/css" height="722px" preserveAspectRatio="none" style="width:1741px;height:722px;background:#FFFFFF;" version="1.1" viewBox="0 0 1741 722" width="1741px" zoomAndPan="magnify"><defs/><g><!--cluster pht_pkg--><g id="cluster_pht_pkg"><path d="M8.5,6 L35.5,6 A3.75,3.75 0 0 1 38,8.5 L45,28.2969 L1731.5,28.2969 A2.5,2.5 0 0 1 1734,30.7969 L1734,712.5 A2.5,2.5 0 0 1 1731.5,715 L8.5,715 A2.5,2.5 0 0 1 6,712.5 L6,8.5 A2.5,2.5 0 0 1 8.5,6 " fill="none" style="stroke:#000000;stroke-width:1.5;"/><line style="stroke:#000000;stroke-width:1.5;" x1="6" x2="45" y1="28.2969" y2="28.2969"/><text fill="#000000" font-family="sans-serif" font-size="14" font-weight="bold" lengthAdjust="spacing" textLength="26" x="10" y="20.9951">pht</text></g><!--cluster api--><g id="cluster_api"><rect fill="none" height="358" rx="2.5" ry="2.5" style="stroke:#181818;stroke-width:1.0;" width="1680" x="30" y="49"/><text fill="#000000" font-family="sans-serif" font-size="14" font-weight="bold" lengthAdjust="spacing" textLength="23" x="858.5" y="63.9951">api</text></g><!--cluster panel_decision--><g id="cluster_panel_decision"><rect fill="none" height="144" rx="2.5" ry="2.5" style="stroke:#181818;stroke-width:1.0;" width="306" x="54" y="165.5"/><text fill="#000000" font-family="sans-serif" font-size="14" font-weight="bold" lengthAdjust="spacing" textLength="116" x="149" y="180.4951">panel_decision</text></g><!--cluster panels_management--><g id="cluster_panels_management"><rect fill="none" height="128" rx="2.5" ry="2.5" style="stroke:#181818;stroke-width:1.0;" width="240" x="1178" y="173.5"/><text fill="#000000" font-family="sans-serif" font-size="14" font-weight="bold" lengthAdjust="spacing" textLength="161" x="1217.5" y="188.4951">panels_management</text></g><!--cluster prsls--><g id="cluster_prsls"><rect fill="none" height="291" rx="2.5" ry="2.5" style="stroke:#181818;stroke-width:1.0;" width="366" x="788" y="92"/><text fill="#000000" font-family="sans-serif" font-size="14" font-weight="bold" lengthAdjust="spacing" textLength="39" x="951.5" y="106.9951">prsls</text></g><!--cluster report--><g id="cluster_report"><rect fill="none" height="96" rx="2.5" ry="2.5" style="stroke:#181818;stroke-width:1.0;" width="166" x="598" y="189.5"/><text fill="#000000" font-family="sans-serif" font-size="14" font-weight="bold" lengthAdjust="spacing" textLength="50" x="656" y="204.4951">report</text></g><!--cluster reviewers--><g id="cluster_reviewers"><rect fill="none" height="96" rx="2.5" ry="2.5" style="stroke:#181818;stroke-width:1.0;" width="190" x="384" y="189.5"/><text fill="#000000" font-family="sans-serif" font-size="14" font-weight="bold" lengthAdjust="spacing" textLength="80" x="439" y="204.4951">reviewers</text></g><!--cluster reviews--><g id="cluster_reviews"><rect fill="none" height="144" rx="2.5" ry="2.5" style="stroke:#181818;stroke-width:1.0;" width="244" x="1442" y="165.5"/><text fill="#000000" font-family="sans-serif" font-size="14" font-weight="bold" lengthAdjust="spacing" textLength="63" x="1532.5" y="180.4951">reviews</text></g><!--cluster utils--><g id="cluster_utils"><rect fill="none" height="260" rx="2.5" ry="2.5" style="stroke:#181818;stroke-width:1.0;" width="1463" x="247" y="431"/><text fill="#000000" font-family="sans-serif" font-size="14" font-weight="bold" lengthAdjust="spacing" textLength="33" x="962" y="445.9951">utils</text></g><!--cluster email_helper--><g id="cluster_email_helper"><rect fill="none" height="112" rx="2.5" ry="2.5" style="stroke:#181818;stroke-width:1.0;" width="194" x="747" y="514.5"/><text fill="#000000" font-family="sans-serif" font-size="14" font-weight="bold" lengthAdjust="spacing" textLength="99" x="794.5" y="529.4951">email_helper</text></g><!--cluster pht_handler--><g id="cluster_pht_handler"><rect fill="none" height="144" rx="2.5" ry="2.5" style="stroke:#181818;stroke-width:1.0;" width="352" x="371" y="498.5"/><text fill="#000000" font-family="sans-serif" font-size="14" font-weight="bold" lengthAdjust="spacing" textLength="93" x="500.5" y="513.4951">pht_handler</text></g><!--cluster s3_bucket--><g id="cluster_s3_bucket"><rect fill="none" height="193" rx="2.5" ry="2.5" style="stroke:#181818;stroke-width:1.0;" width="316" x="1370" y="474"/><text fill="#000000" font-family="sans-serif" font-size="14" font-weight="bold" lengthAdjust="spacing" textLength="80" x="1488" y="488.9951">s3_bucket</text></g><!--cluster validation--><g id="cluster_validation"><rect fill="none" height="107" rx="2.5" ry="2.5" style="stroke:#181818;stroke-width:1.0;" width="381" x="965" y="517"/><text fill="#000000" font-family="sans-serif" font-size="14" font-weight="bold" lengthAdjust="spacing" textLength="75" x="1118" y="531.9951">validation</text></g><g id="elem_panel_decision_endpoints"><rect fill="#F1F1F1" height="93.4844" style="stroke:#181818;stroke-width:0.5;" width="273" x="70.5" y="200.5"/><text fill="#000000" font-family="sans-serif" font-size="14" lengthAdjust="spacing" textLength="180" x="117" y="215.4951">panel_decision_endpoints</text><line style="stroke:#181818;stroke-width:0.5;" x1="71.5" x2="342.5" y1="220.7969" y2="220.7969"/><ellipse cx="81.5" cy="234.4453" fill="none" rx="3" ry="3" style="stroke:#038048;stroke-width:1.0;"/><text fill="#000000" font-family="sans-serif" font-size="14" lengthAdjust="spacing" textLength="161" x="90.5" y="237.792">POST /panel-decisions/</text><ellipse cx="81.5" cy="250.7422" fill="none" rx="3" ry="3" style="stroke:#038048;stroke-width:1.0;"/><text fill="#000000" font-family="sans-serif" font-size="14" lengthAdjust="spacing" textLength="247" x="90.5" y="254.0889">GET /panel-decisions/{decision_id}</text><ellipse cx="81.5" cy="267.0391" fill="none" rx="3" ry="3" style="stroke:#038048;stroke-width:1.0;"/><text fill="#000000" font-family="sans-serif" font-size="14" lengthAdjust="spacing" textLength="244" x="90.5" y="270.3857">GET /panel-decisions/list/{user_id}</text><ellipse cx="81.5" cy="283.3359" fill="none" rx="3" ry="3" style="stroke:#038048;stroke-width:1.0;"/><text fill="#000000" font-family="sans-serif" font-size="14" lengthAdjust="spacing" textLength="246" x="90.5" y="286.6826">PUT /panel-decisions/{decision_id}</text></g><g id="elem_panels_endpoints"><rect fill="#F1F1F1" height="77.1875" style="stroke:#181818;stroke-width:0.5;" width="207" x="1194.5" y="208.5"/><text fill="#000000" font-family="sans-serif" font-size="14" lengthAdjust="spacing" textLength="123" x="1236.5" y="223.4951">panels_endpoints</text><line style="stroke:#181818;stroke-width:0.5;" x1="1195.5" x2="1400.5" y1="228.7969" y2="228.7969"/><ellipse cx="1205.5" cy="242.4453" fill="none" rx="3" ry="3" style="stroke:#038048;stroke-width:1.0;"/><text fill="#000000" font-family="sans-serif" font-size="14" lengthAdjust="spacing" textLength="98" x="1214.5" y="245.792">POST /panels/</text><ellipse cx="1205.5" cy="258.7422" fill="none" rx="3" ry="3" style="stroke:#038048;stroke-width:1.0;"/><text fill="#000000" font-family="sans-serif" font-size="14" lengthAdjust="spacing" textLength="169" x="1214.5" y="262.0889">GET /panels//{panel_id}</text><ellipse cx="1205.5" cy="275.0391" fill="none" rx="3" ry="3" style="stroke:#038048;stroke-width:1.0;"/><text fill="#000000" font-family="sans-serif" font-size="14" lengthAdjust="spacing" textLength="181" x="1214.5" y="278.3857">GET /panels/list/{user_id}</text></g><g id="elem_prsls_endpoints"><rect fill="#F1F1F1" height="240.1563" style="stroke:#181818;stroke-width:0.5;" width="333" x="804.5" y="127"/><text fill="#000000" font-family="sans-serif" font-size="14" lengthAdjust="spacing" textLength="110" x="916" y="141.9951">prsls_endpoints</text><line style="stroke:#181818;stroke-width:0.5;" x1="805.5" x2="1136.5" y1="147.2969" y2="147.2969"/><ellipse cx="815.5" cy="160.9453" fill="none" rx="3" ry="3" style="stroke:#038048;stroke-width:1.0;"/><text fill="#000000" font-family="sans-serif" font-size="14" lengthAdjust="spacing" textLength="129" x="824.5" y="164.292">POST /prsls/create</text><ellipse cx="815.5" cy="177.2422" fill="none" rx="3" ry="3" style="stroke:#038048;stroke-width:1.0;"/><text fill="#000000" font-family="sans-serif" font-size="14" lengthAdjust="spacing" textLength="124" x="824.5" y="180.5889">POST /prsls/batch</text><ellipse cx="815.5" cy="193.5391" fill="none" rx="3" ry="3" style="stroke:#038048;stroke-width:1.0;"/><text fill="#000000" font-family="sans-serif" font-size="14" lengthAdjust="spacing" textLength="137" x="824.5" y="196.8857">POST /prsls/validate</text><ellipse cx="815.5" cy="209.8359" fill="none" rx="3" ry="3" style="stroke:#038048;stroke-width:1.0;"/><text fill="#000000" font-family="sans-serif" font-size="14" lengthAdjust="spacing" textLength="166" x="824.5" y="213.1826">POST /prsls/send-email/</text><ellipse cx="815.5" cy="226.1328" fill="none" rx="3" ry="3" style="stroke:#038048;stroke-width:1.0;"/><text fill="#000000" font-family="sans-serif" font-size="14" lengthAdjust="spacing" textLength="287" x="824.5" y="229.4795">POST /prsls/signed-url/upload/{filename}</text><ellipse cx="815.5" cy="242.4297" fill="none" rx="3" ry="3" style="stroke:#038048;stroke-width:1.0;"/><text fill="#000000" font-family="sans-serif" font-size="14" lengthAdjust="spacing" textLength="307" x="824.5" y="245.7764">POST /prsls/signed-url/download/{filename}</text><ellipse cx="815.5" cy="258.7266" fill="none" rx="3" ry="3" style="stroke:#038048;stroke-width:1.0;"/><text fill="#000000" font-family="sans-serif" font-size="14" lengthAdjust="spacing" textLength="284" x="824.5" y="262.0732">POST /prsls/signed-url/delete/{filename}</text><ellipse cx="815.5" cy="275.0234" fill="none" rx="3" ry="3" style="stroke:#038048;stroke-width:1.0;"/><text fill="#000000" font-family="sans-serif" font-size="14" lengthAdjust="spacing" textLength="160" x="824.5" y="278.3701">GET /prsls/osd/{cycle}</text><ellipse cx="815.5" cy="291.3203" fill="none" rx="3" ry="3" style="stroke:#038048;stroke-width:1.0;"/><text fill="#000000" font-family="sans-serif" font-size="14" lengthAdjust="spacing" textLength="173" x="824.5" y="294.667">GET /prsls/{proposal_id}</text><ellipse cx="815.5" cy="307.6172" fill="none" rx="3" ry="3" style="stroke:#038048;stroke-width:1.0;"/><text fill="#000000" font-family="sans-serif" font-size="14" lengthAdjust="spacing" textLength="185" x="824.5" y="310.9639">GET /prsls/status/{status}</text><ellipse cx="815.5" cy="323.9141" fill="none" rx="3" ry="3" style="stroke:#038048;stroke-width:1.0;"/><text fill="#000000" font-family="sans-serif" font-size="14" lengthAdjust="spacing" textLength="195" x="824.5" y="327.2607">GET /prsls/reviews/{prsl_id}</text><ellipse cx="815.5" cy="340.2109" fill="none" rx="3" ry="3" style="stroke:#038048;stroke-width:1.0;"/><text fill="#000000" font-family="sans-serif" font-size="14" lengthAdjust="spacing" textLength="168" x="824.5" y="343.5576">GET /prsls/list/{user_id}</text><ellipse cx="815.5" cy="356.5078" fill="none" rx="3" ry="3" style="stroke:#038048;stroke-width:1.0;"/><text fill="#000000" font-family="sans-serif" font-size="14" lengthAdjust="spacing" textLength="172" x="824.5" y="359.8545">PUT /prsls/{proposal_id}</text></g><g id="elem_report_endpoints"><rect fill="#F1F1F1" height="44.5938" style="stroke:#181818;stroke-width:0.5;" width="133" x="614.5" y="224.5"/><text fill="#000000" font-family="sans-serif" font-size="14" lengthAdjust="spacing" textLength="119" x="621.5" y="239.4951">report_endpoints</text><line style="stroke:#181818;stroke-width:0.5;" x1="615.5" x2="746.5" y1="244.7969" y2="244.7969"/><ellipse cx="625.5" cy="258.4453" fill="none" rx="3" ry="3" style="stroke:#038048;stroke-width:1.0;"/><text fill="#000000" font-family="sans-serif" font-size="14" lengthAdjust="spacing" textLength="85" x="634.5" y="261.792">GET /report/</text></g><g id="elem_reviewers_endpoints"><rect fill="#F1F1F1" height="44.5938" style="stroke:#181818;stroke-width:0.5;" width="157" x="400.5" y="224.5"/><text fill="#000000" font-family="sans-serif" font-size="14" lengthAdjust="spacing" textLength="143" x="407.5" y="239.4951">reviewers_endpoints</text><line style="stroke:#181818;stroke-width:0.5;" x1="401.5" x2="556.5" y1="244.7969" y2="244.7969"/><ellipse cx="411.5" cy="258.4453" fill="none" rx="3" ry="3" style="stroke:#038048;stroke-width:1.0;"/><text fill="#000000" font-family="sans-serif" font-size="14" lengthAdjust="spacing" textLength="104" x="420.5" y="261.792">GET /reviewers</text></g><g id="elem_reviews_endpoints"><rect fill="#F1F1F1" height="93.4844" style="stroke:#181818;stroke-width:0.5;" width="213" x="1457.5" y="200.5"/><text fill="#000000" font-family="sans-serif" font-size="14" lengthAdjust="spacing" textLength="129" x="1499.5" y="215.4951">reviews_endpoints</text><line style="stroke:#181818;stroke-width:0.5;" x1="1458.5" x2="1669.5" y1="220.7969" y2="220.7969"/><ellipse cx="1468.5" cy="234.4453" fill="none" rx="3" ry="3" style="stroke:#038048;stroke-width:1.0;"/><text fill="#000000" font-family="sans-serif" font-size="14" lengthAdjust="spacing" textLength="99" x="1477.5" y="237.792">POST /reviews</text><ellipse cx="1468.5" cy="250.7422" fill="none" rx="3" ry="3" style="stroke:#038048;stroke-width:1.0;"/><text fill="#000000" font-family="sans-serif" font-size="14" lengthAdjust="spacing" textLength="176" x="1477.5" y="254.0889">GET /reviews/{review_id}</text><ellipse cx="1468.5" cy="267.0391" fill="none" rx="3" ry="3" style="stroke:#038048;stroke-width:1.0;"/><text fill="#000000" font-family="sans-serif" font-size="14" lengthAdjust="spacing" textLength="187" x="1477.5" y="270.3857">GET /reviews/list/{user_id}</text><ellipse cx="1468.5" cy="283.3359" fill="none" rx="3" ry="3" style="stroke:#038048;stroke-width:1.0;"/><text fill="#000000" font-family="sans-serif" font-size="14" lengthAdjust="spacing" textLength="175" x="1477.5" y="286.6826">PUT /reviews/{review_id}</text></g><g id="elem_email_helper_items"><rect fill="#F1F1F1" height="60.8906" style="stroke:#181818;stroke-width:0.5;" width="161" x="763.5" y="549.5"/><text fill="#000000" font-family="sans-serif" font-size="14" lengthAdjust="spacing" textLength="132" x="778" y="564.4951">email_helper_items</text><line style="stroke:#181818;stroke-width:0.5;" x1="764.5" x2="923.5" y1="569.7969" y2="569.7969"/><ellipse cx="774.5" cy="583.4453" fill="#84BE84" rx="3" ry="3" style="stroke:#038048;stroke-width:1.0;"/><text fill="#000000" font-family="sans-serif" font-size="14" lengthAdjust="spacing" textLength="99" x="783.5" y="586.792">render_email()</text><ellipse cx="774.5" cy="599.7422" fill="#84BE84" rx="3" ry="3" style="stroke:#038048;stroke-width:1.0;"/><text fill="#000000" font-family="sans-serif" font-size="14" lengthAdjust="spacing" textLength="135" x="783.5" y="603.0889">send_email_async()</text></g><g id="elem_pht_handler_items"><rect fill="#F1F1F1" height="93.4844" style="stroke:#181818;stroke-width:0.5;" width="320" x="387" y="533.5"/><text fill="#000000" font-family="sans-serif" font-size="14" lengthAdjust="spacing" textLength="127" x="483.5" y="548.4951">pht_handler_items</text><line style="stroke:#181818;stroke-width:0.5;" x1="388" x2="706" y1="553.7969" y2="553.7969"/><ellipse cx="398" cy="567.4453" fill="#84BE84" rx="3" ry="3" style="stroke:#038048;stroke-width:1.0;"/><text fill="#000000" font-family="sans-serif" font-size="14" lengthAdjust="spacing" textLength="199" x="407" y="570.792">transform_update_proposal()</text><ellipse cx="398" cy="583.7422" fill="#84BE84" rx="3" ry="3" style="stroke:#038048;stroke-width:1.0;"/><text fill="#000000" font-family="sans-serif" font-size="14" lengthAdjust="spacing" textLength="165" x="407" y="587.0889">get_latest_entity_by_id()</text><ellipse cx="398" cy="600.0391" fill="#84BE84" rx="3" ry="3" style="stroke:#038048;stroke-width:1.0;"/><text fill="#000000" font-family="sans-serif" font-size="14" lengthAdjust="spacing" textLength="122" x="407" y="603.3857">_get_array_class()</text><ellipse cx="398" cy="616.3359" fill="#84BE84" rx="3" ry="3" style="stroke:#038048;stroke-width:1.0;"/><text fill="#000000" font-family="sans-serif" font-size="14" lengthAdjust="spacing" textLength="294" x="407" y="619.6826">join_proposals_panels_reviews_decisions()</text></g><g id="elem_s3_bucket_functions"><rect fill="#F1F1F1" height="142.375" style="stroke:#181818;stroke-width:0.5;" width="284" x="1386" y="509"/><text fill="#000000" font-family="sans-serif" font-size="14" lengthAdjust="spacing" textLength="143" x="1456.5" y="523.9951">s3_bucket_functions</text><line style="stroke:#181818;stroke-width:0.5;" x1="1387" x2="1669" y1="529.2969" y2="529.2969"/><ellipse cx="1397" cy="542.9453" fill="#84BE84" rx="3" ry="3" style="stroke:#038048;stroke-width:1.0;"/><text fill="#000000" font-family="sans-serif" font-size="14" lengthAdjust="spacing" textLength="125" x="1406" y="546.292">S3Method (Enum)</text><ellipse cx="1397" cy="559.2422" fill="none" rx="3" ry="3" style="stroke:#038048;stroke-width:1.0;"/><text fill="#000000" font-family="sans-serif" font-size="14" lengthAdjust="spacing" textLength="62" x="1406" y="562.5889">S3Config</text><ellipse cx="1397" cy="575.5391" fill="#84BE84" rx="3" ry="3" style="stroke:#038048;stroke-width:1.0;"/><text fill="#000000" font-family="sans-serif" font-size="14" lengthAdjust="spacing" textLength="111" x="1406" y="578.8857">get_aws_client()</text><ellipse cx="1397" cy="591.8359" fill="#84BE84" rx="3" ry="3" style="stroke:#038048;stroke-width:1.0;"/><text fill="#000000" font-family="sans-serif" font-size="14" lengthAdjust="spacing" textLength="174" x="1406" y="595.1826">generate_presigned_url()</text><ellipse cx="1397" cy="608.1328" fill="#84BE84" rx="3" ry="3" style="stroke:#038048;stroke-width:1.0;"/><text fill="#000000" font-family="sans-serif" font-size="14" lengthAdjust="spacing" textLength="238" x="1406" y="611.4795">create_presigned_url_upload_pdf()</text><ellipse cx="1397" cy="624.4297" fill="#84BE84" rx="3" ry="3" style="stroke:#038048;stroke-width:1.0;"/><text fill="#000000" font-family="sans-serif" font-size="14" lengthAdjust="spacing" textLength="258" x="1406" y="627.7764">create_presigned_url_download_pdf()</text><ellipse cx="1397" cy="640.7266" fill="#84BE84" rx="3" ry="3" style="stroke:#038048;stroke-width:1.0;"/><text fill="#000000" font-family="sans-serif" font-size="14" lengthAdjust="spacing" textLength="235" x="1406" y="644.0732">create_presigned_url_delete_pdf()</text></g><!--class validate_duplicates--><g id="elem_validate_duplicates"><rect codeLine="91" fill="#F1F1F1" height="56.2656" id="validate_duplicates" rx="2.5" ry="2.5" style="stroke:#181818;stroke-width:0.5;" width="162" x="1168" y="552"/><ellipse cx="1183" cy="572.1328" fill="#ADD1B2" rx="11" ry="11" style="stroke:#181818;stroke-width:1.0;"/><path d="M1185.9688,577.7734 Q1185.3906,578.0703 1184.75,578.2109 Q1184.1094,578.3672 1183.4063,578.3672 Q1180.9063,578.3672 1179.5781,576.7266 Q1178.2656,575.0703 1178.2656,571.9453 Q1178.2656,568.8203 1179.5781,567.1641 Q1180.9063,565.5078 1183.4063,565.5078 Q1184.1094,565.5078 1184.75,565.6641 Q1185.4063,565.8203 1185.9688,566.1172 L1185.9688,568.8359 Q1185.3438,568.2578 1184.75,567.9922 Q1184.1563,567.7109 1183.5313,567.7109 Q1182.1875,567.7109 1181.5,568.7891 Q1180.8125,569.8516 1180.8125,571.9453 Q1180.8125,574.0391 1181.5,575.1172 Q1182.1875,576.1797 1183.5313,576.1797 Q1184.1563,576.1797 1184.75,575.9141 Q1185.3438,575.6328 1185.9688,575.0547 L1185.9688,577.7734 Z " fill="#000000"/><text fill="#000000" font-family="sans-serif" font-size="12" font-style="italic" lengthAdjust="spacing" textLength="65" x="1229.5" y="568.1387">«function»</text><text fill="#000000" font-family="sans-serif" font-size="14" lengthAdjust="spacing" textLength="130" x="1197" y="583.9639">validate_duplicates</text><line style="stroke:#181818;stroke-width:0.5;" x1="1169" x2="1329" y1="592.2656" y2="592.2656"/><line style="stroke:#181818;stroke-width:0.5;" x1="1169" x2="1329" y1="600.2656" y2="600.2656"/></g><!--class validate_proposal--><g id="elem_validate_proposal"><rect codeLine="92" fill="#F1F1F1" height="56.2656" id="validate_proposal" rx="2.5" ry="2.5" style="stroke:#181818;stroke-width:0.5;" width="151" x="981.5" y="552"/><ellipse cx="996.5" cy="572.1328" fill="#ADD1B2" rx="11" ry="11" style="stroke:#181818;stroke-width:1.0;"/><path d="M999.4688,577.7734 Q998.8906,578.0703 998.25,578.2109 Q997.6094,578.3672 996.9063,578.3672 Q994.4063,578.3672 993.0781,576.7266 Q991.7656,575.0703 991.7656,571.9453 Q991.7656,568.8203 993.0781,567.1641 Q994.4063,565.5078 996.9063,565.5078 Q997.6094,565.5078 998.25,565.6641 Q998.9063,565.8203 999.4688,566.1172 L999.4688,568.8359 Q998.8438,568.2578 998.25,567.9922 Q997.6563,567.7109 997.0313,567.7109 Q995.6875,567.7109 995,568.7891 Q994.3125,569.8516 994.3125,571.9453 Q994.3125,574.0391 995,575.1172 Q995.6875,576.1797 997.0313,576.1797 Q997.6563,576.1797 998.25,575.9141 Q998.8438,575.6328 999.4688,575.0547 L999.4688,577.7734 Z " fill="#000000"/><text fill="#000000" font-family="sans-serif" font-size="12" font-style="italic" lengthAdjust="spacing" textLength="65" x="1037.5" y="568.1387">«function»</text><text fill="#000000" font-family="sans-serif" font-size="14" lengthAdjust="spacing" textLength="119" x="1010.5" y="583.9639">validate_proposal</text><line style="stroke:#181818;stroke-width:0.5;" x1="982.5" x2="1131.5" y1="592.2656" y2="592.2656"/><line style="stroke:#181818;stroke-width:0.5;" x1="982.5" x2="1131.5" y1="600.2656" y2="600.2656"/></g><!--entity constants--><g id="elem_constants"><rect fill="#F1F1F1" height="36.2969" rx="2.5" ry="2.5" style="stroke:#181818;stroke-width:0.5;" width="89" x="262.5" y="562"/><text fill="#000000" font-family="sans-serif" font-size="14" lengthAdjust="spacing" textLength="69" x="272.5" y="584.9951">constants</text></g><!--link prsls_endpoints to validate_proposal--><g id="link_prsls_endpoints_validate_proposal"><path codeLine="100" d="M1001.93,367.03 C1018.59,431.15 1037.87,505.39 1048.63,546.8 " fill="none" id="prsls_endpoints-to-validate_proposal" style="stroke:#181818;stroke-width:1.0;"/><polygon fill="#181818" points="1049.9,551.69,1051.5103,541.9737,1048.6437,546.8504,1043.767,543.9838,1049.9,551.69" style="stroke:#181818;stroke-width:1.0;"/></g><!--link prsls_endpoints to email_helper_items--><g id="link_prsls_endpoints_email_helper_items"><path codeLine="101" d="M925.33,367.03 C901.16,430.03 873.24,502.8 857.2,544.61 " fill="none" id="prsls_endpoints-to-email_helper_items" style="stroke:#181818;stroke-width:1.0;"/><polygon fill="#181818" points="855.4,549.3,862.3685,542.3401,857.1978,544.6344,854.9035,539.4637,855.4,549.3" style="stroke:#181818;stroke-width:1.0;"/></g><!--link prsls_endpoints to pht_handler_items--><g id="link_prsls_endpoints_pht_handler_items"><path codeLine="102" d="M832.65,367.01 C810.34,384.02 786.99,400.61 764,415 C756.92,419.43 754.11,418.63 747,423 C695.6,454.59 641.93,497.05 603.15,529.7 " fill="none" id="prsls_endpoints-to-pht_handler_items" style="stroke:#181818;stroke-width:1.0;"/><polygon fill="#181818" points="598.97,533.23,608.4289,530.4859,602.7923,530.0067,603.2716,524.3702,598.97,533.23" style="stroke:#181818;stroke-width:1.0;"/></g><!--link prsls_endpoints to s3_bucket_functions--><g id="link_prsls_endpoints_s3_bucket_functions"><path codeLine="103" d="M1093.32,367.02 C1119.45,386.33 1148.22,403.68 1178,415 C1212.94,428.28 1311.26,409.2 1346,423 C1390.41,440.64 1431.6,473.84 1463.52,505.1 " fill="none" id="prsls_endpoints-to-s3_bucket_functions" style="stroke:#181818;stroke-width:1.0;"/><polygon fill="#181818" points="1467.37,508.9,1463.7788,499.7292,1463.8131,505.386,1458.1564,505.4202,1467.37,508.9" style="stroke:#181818;stroke-width:1.0;"/></g><!--link panels_endpoints to validate_duplicates--><g id="link_panels_endpoints_validate_duplicates"><path codeLine="104" d="M1292.43,285.65 C1282.72,351.24 1262.86,485.35 1253.76,546.86 " fill="none" id="panels_endpoints-to-validate_duplicates" style="stroke:#181818;stroke-width:1.0;"/><polygon fill="#181818" points="1253.02,551.88,1258.3132,543.5744,1253.7631,546.9355,1250.402,542.3855,1253.02,551.88" style="stroke:#181818;stroke-width:1.0;"/></g><!--link report_endpoints to pht_handler_items--><g id="link_report_endpoints_pht_handler_items"><path codeLine="105" d="M672.21,269.72 C651.1,321.86 597.11,455.23 567.38,528.65 " fill="none" id="report_endpoints-to-pht_handler_items" style="stroke:#181818;stroke-width:1.0;"/><polygon fill="#181818" points="565.46,533.4,572.5346,526.548,567.3292,528.7626,565.1147,523.5572,565.46,533.4" style="stroke:#181818;stroke-width:1.0;"/></g><!--link reviewers_endpoints to constants--><g id="link_reviewers_endpoints_constants"><path codeLine="106" d="M463.99,269.7 C441.94,302.13 400.25,365.58 371,423 C347.51,469.11 325.95,525.92 314.85,556.67 " fill="none" id="reviewers_endpoints-to-constants" style="stroke:#181818;stroke-width:1.0;"/><polygon fill="#181818" points="313.03,561.74,319.8527,554.6372,314.7307,557.0381,312.3297,551.9161,313.03,561.74" style="stroke:#181818;stroke-width:1.0;"/></g><!--SRC=[dPPDRzmW48Rl-ojGBatKhdp8DTfB5VLKDKhQCsBnh4qM0mASoBBslnSRs_k5CHjVziFFYyVl33DOgP2LQ2kjbHNAcGPgcHIhbI9qJmf0TwgqTuWOv3wnsXUeNQsGkwRxHB4xzFJqweH451mscn4vmnGHm74Eb1ct_hK2dLno- -xkeNC91f4hoOGrvt1tVKSlVzx-egnNh4U5oGBWh-S0rquFOVaXLSIPiLbR6z0pgfT_Dptg-EluRSP7WoiYtCyAX4stqXmjH0iUBbXdigprsLdoAsfJuXjhmqtQMtPaKfrqO4Or40iBq9POMYum7uIpV7afuo9RGqKOpvP8LWZ8rxNcMQsu97dMxXW7GIeuf4jp-Ic-BWOE5k9Id-PUAOrx36qeNm9RfQMIXiHBnqTZYQsTmdykm1e-67pswvk4jHCtxqB8fmLyNRWQbDHf-zEZyTBje_TWTbCKdJ6WJM8W0vqKoy1-OLCFwReXfgIDFQ3nY5r6_PTOcOneMg4iBNnfok5YYDQMnNhSnFNT0vV05UWaxqu5c5cemgrVEsyTqDFt3m6Wwrt-DYQc4VG22YNzz0I1Io9odXZp2Hy9sMeYp4xg2jUgQxvutAN1-0kmc3lAT9lCCjlWRUEo56Hn1nEjIOCf9yO4eNTNYTCZ3Hu6x5Ygqxo_nIVpYBSrtKDQovXelAj5VsWB-_Js-1jiANDq_opgwY58_9HYnuePsuXx7ygPist6MG7Q-mz-Vc0tFuAe7xZd8FO33gjybwuP9zkDgdwa1JJHh0p3VV7GsfSA6ey2E7VlnMXNSKurPcYpYKd6QWeBOjsKkkIxi6oaXOnzPrhW6rglr-WLUFzkfcJA_71zmDPQ8Die5xSKlEaWtwhEprRk_yrrvBFaTHkQHQzs_omPs053Lxqux9x5UanC3rzEtaWCWTdOqvFxtjpLuJy0]--></g></svg>