<?xml version="1.0" encoding="UTF-8" standalone="no"?><svg xmlns="http://www.w3.org/2000/svg" xmlns:xlink="http://www.w3.org/1999/xlink" contentStyleType="text/css" height="988px" preserveAspectRatio="none" style="width:2346px;height:988px;background:#FFFFFF;" version="1.1" viewBox="0 0 2346 988" width="2346px" zoomAndPan="magnify"><defs/><g><text fill="#000000" font-family="sans-serif" font-size="14" font-weight="bold" lengthAdjust="spacing" textLength="321" x="1005.5" y="22.9951">High Level Module View of OSO Services</text><!--cluster common_pkg--><g id="cluster_common_pkg"><path d="M183.5,43.2969 L251.5,43.2969 A3.75,3.75 0 0 1 254,45.7969 L261,65.5938 L2156.5,65.5938 A2.5,2.5 0 0 1 2159,68.0938 L2159,365.7969 A2.5,2.5 0 0 1 2156.5,368.2969 L183.5,368.2969 A2.5,2.5 0 0 1 181,365.7969 L181,45.7969 A2.5,2.5 0 0 1 183.5,43.2969 " fill="none" style="stroke:#000000;stroke-width:1.5;"/><line style="stroke:#000000;stroke-width:1.5;" x1="181" x2="261" y1="65.5938" y2="65.5938"/><text fill="#000000" font-family="sans-serif" font-size="14" font-weight="bold" lengthAdjust="spacing" textLength="67" x="185" y="58.292">common</text></g><!--cluster constants--><g id="cluster_constants"><rect fill="none" height="177" rx="2.5" ry="2.5" style="stroke:#181818;stroke-width:1.0;" width="342" x="221" y="126.7969"/><text fill="#000000" font-family="sans-serif" font-size="14" font-weight="bold" lengthAdjust="spacing" textLength="78" x="353" y="141.792">constants</text></g><!--cluster api.coordinates--><g id="cluster_api.coordinates"><rect fill="none" height="144" rx="2.5" ry="2.5" style="stroke:#181818;stroke-width:1.0;" width="230" x="977" y="143.2969"/><text fill="#000000" font-family="sans-serif" font-size="14" font-weight="bold" lengthAdjust="spacing" textLength="122" x="1031" y="158.292">api.coordinates</text></g><!--cluster auth--><g id="cluster_auth"><rect fill="none" height="96" rx="2.5" ry="2.5" style="stroke:#181818;stroke-width:1.0;" width="122" x="831" y="167.2969"/><text fill="#000000" font-family="sans-serif" font-size="14" font-weight="bold" lengthAdjust="spacing" textLength="35" x="874.5" y="182.292">auth</text></g><!--cluster coordinateslookup--><g id="cluster_coordinateslookup"><rect fill="none" height="177" rx="2.5" ry="2.5" style="stroke:#181818;stroke-width:1.0;" width="220" x="587" y="126.7969"/><text fill="#000000" font-family="sans-serif" font-size="14" font-weight="bold" lengthAdjust="spacing" textLength="147" x="623.5" y="141.792">coordinateslookup</text></g><!--cluster error_handling--><g id="cluster_error_handling"><rect fill="none" height="242" rx="2.5" ry="2.5" style="stroke:#181818;stroke-width:1.0;" width="310" x="1489" y="94.2969"/><text fill="#000000" font-family="sans-serif" font-size="14" font-weight="bold" lengthAdjust="spacing" textLength="115" x="1586.5" y="109.292">error_handling</text></g><!--cluster model--><g id="cluster_model"><rect fill="none" height="144" rx="2.5" ry="2.5" style="stroke:#181818;stroke-width:1.0;" width="234" x="1231" y="143.2969"/><text fill="#000000" font-family="sans-serif" font-size="14" font-weight="bold" lengthAdjust="spacing" textLength="48" x="1324" y="158.292">model</text></g><!--cluster osdmapper--><g id="cluster_osdmapper"><rect fill="none" height="210" rx="2.5" ry="2.5" style="stroke:#181818;stroke-width:1.0;" width="304" x="1823" y="110.2969"/><text fill="#000000" font-family="sans-serif" font-size="14" font-weight="bold" lengthAdjust="spacing" textLength="89" x="1930.5" y="125.292">osdmapper</text></g><!--cluster odt_pkg--><g id="cluster_odt_pkg"><path d="M183.5,408.2969 L210.5,408.2969 A3.75,3.75 0 0 1 213,410.7969 L220,430.5938 L497.5,430.5938 A2.5,2.5 0 0 1 500,433.0938 L500,497.7969 A2.5,2.5 0 0 1 497.5,500.2969 L183.5,500.2969 A2.5,2.5 0 0 1 181,497.7969 L181,410.7969 A2.5,2.5 0 0 1 183.5,408.2969 " fill="none" style="stroke:#000000;stroke-width:1.5;"/><line style="stroke:#000000;stroke-width:1.5;" x1="181" x2="220" y1="430.5938" y2="430.5938"/><text fill="#000000" font-family="sans-serif" font-size="14" font-weight="bold" lengthAdjust="spacing" textLength="26" x="185" y="423.292">odt</text></g><!--cluster pht_pkg--><g id="cluster_pht_pkg"><path d="M183.5,540.2969 L210.5,540.2969 A3.75,3.75 0 0 1 213,542.7969 L220,562.5938 L2336.5,562.5938 A2.5,2.5 0 0 1 2339,565.0938 L2339,978.7969 A2.5,2.5 0 0 1 2336.5,981.2969 L183.5,981.2969 A2.5,2.5 0 0 1 181,978.7969 L181,542.7969 A2.5,2.5 0 0 1 183.5,540.2969 " fill="none" style="stroke:#000000;stroke-width:1.5;"/><line style="stroke:#000000;stroke-width:1.5;" x1="181" x2="220" y1="562.5938" y2="562.5938"/><text fill="#000000" font-family="sans-serif" font-size="14" font-weight="bold" lengthAdjust="spacing" textLength="26" x="185" y="555.292">pht</text></g><!--cluster api--><g id="cluster_api"><rect fill="none" height="358" rx="2.5" ry="2.5" style="stroke:#181818;stroke-width:1.0;" width="1460" x="221" y="591.2969"/><text fill="#000000" font-family="sans-serif" font-size="14" font-weight="bold" lengthAdjust="spacing" textLength="23" x="939.5" y="606.292">api</text></g><!--cluster panel_decision--><g id="cluster_panel_decision"><rect fill="none" height="144" rx="2.5" ry="2.5" style="stroke:#181818;stroke-width:1.0;" width="272" x="933" y="707.7969"/><text fill="#000000" font-family="sans-serif" font-size="14" font-weight="bold" lengthAdjust="spacing" textLength="116" x="1011" y="722.792">panel_decision</text></g><!--cluster panels--><g id="cluster_panels"><rect fill="none" height="128" rx="2.5" ry="2.5" style="stroke:#181818;stroke-width:1.0;" width="208" x="701" y="715.7969"/><text fill="#000000" font-family="sans-serif" font-size="14" font-weight="bold" lengthAdjust="spacing" textLength="52" x="779" y="730.792">panels</text></g><!--cluster prsls--><g id="cluster_prsls"><rect fill="none" height="291" rx="2.5" ry="2.5" style="stroke:#181818;stroke-width:1.0;" width="242" x="435" y="634.2969"/><text fill="#000000" font-family="sans-serif" font-size="14" font-weight="bold" lengthAdjust="spacing" textLength="39" x="536.5" y="649.292">prsls</text></g><!--cluster report--><g id="cluster_report"><rect fill="none" height="96" rx="2.5" ry="2.5" style="stroke:#181818;stroke-width:1.0;" width="166" x="245" y="731.7969"/><text fill="#000000" font-family="sans-serif" font-size="14" font-weight="bold" lengthAdjust="spacing" textLength="50" x="303" y="746.792">report</text></g><!--cluster reviewers--><g id="cluster_reviewers"><rect fill="none" height="96" rx="2.5" ry="2.5" style="stroke:#181818;stroke-width:1.0;" width="190" x="1467" y="731.7969"/><text fill="#000000" font-family="sans-serif" font-size="14" font-weight="bold" lengthAdjust="spacing" textLength="80" x="1522" y="746.792">reviewers</text></g><!--cluster reviews--><g id="cluster_reviews"><rect fill="none" height="144" rx="2.5" ry="2.5" style="stroke:#181818;stroke-width:1.0;" width="214" x="1229" y="707.7969"/><text fill="#000000" font-family="sans-serif" font-size="14" font-weight="bold" lengthAdjust="spacing" textLength="63" x="1304.5" y="722.792">reviews</text></g><!--cluster pht.utils--><g id="cluster_pht.utils"><rect fill="none" height="76" rx="2.5" ry="2.5" style="stroke:#181818;stroke-width:1.0;" width="282" x="2025" y="741.7969"/><text fill="#000000" font-family="sans-serif" font-size="14" font-weight="bold" lengthAdjust="spacing" textLength="64" x="2134" y="756.792">pht.utils</text></g><!--cluster pht.model--><g id="cluster_pht.model"><rect fill="none" height="76" rx="2.5" ry="2.5" style="stroke:#181818;stroke-width:1.0;" width="296" x="1705" y="741.7969"/><text fill="#000000" font-family="sans-serif" font-size="14" font-weight="bold" lengthAdjust="spacing" textLength="79" x="1813.5" y="756.792">pht.model</text></g><!--cluster app--><g id="cluster_app"><rect fill="none" height="107" rx="2.5" ry="2.5" style="stroke:#181818;stroke-width:1.0;" width="142" x="7" y="400.7969"/><text fill="#000000" font-family="sans-serif" font-size="14" font-weight="bold" lengthAdjust="spacing" textLength="29" x="63.5" y="415.792">app</text></g><g id="elem_Constants"><rect fill="#F1F1F1" height="126.0781" style="stroke:#181818;stroke-width:0.5;" width="310" x="237" y="161.7969"/><text fill="#000000" font-family="sans-serif" font-size="14" lengthAdjust="spacing" textLength="71" x="356.5" y="176.792">Constants</text><line style="stroke:#181818;stroke-width:0.5;" x1="238" x2="546" y1="182.0938" y2="182.0938"/><ellipse cx="248" cy="195.7422" fill="none" rx="3" ry="3" style="stroke:#038048;stroke-width:1.0;"/><text fill="#000000" font-family="sans-serif" font-size="14" lengthAdjust="spacing" textLength="224" x="257" y="199.0889">MID_20_CHANNELS_WIDTH_MHZ</text><ellipse cx="248" cy="212.0391" fill="none" rx="3" ry="3" style="stroke:#038048;stroke-width:1.0;"/><text fill="#000000" font-family="sans-serif" font-size="14" lengthAdjust="spacing" textLength="187" x="257" y="215.3857">MID_CHANNEL_WIDTH_KHZ</text><ellipse cx="248" cy="228.3359" fill="none" rx="3" ry="3" style="stroke:#038048;stroke-width:1.0;"/><text fill="#000000" font-family="sans-serif" font-size="14" lengthAdjust="spacing" textLength="196" x="257" y="231.6826">LOW_CHANNEL_BLOCK_MHZ</text><ellipse cx="248" cy="244.6328" fill="none" rx="3" ry="3" style="stroke:#038048;stroke-width:1.0;"/><text fill="#000000" font-family="sans-serif" font-size="14" lengthAdjust="spacing" textLength="284" x="257" y="247.9795">LOW_CONTINUUM_CHANNEL_WIDTH_KHZ</text><ellipse cx="248" cy="260.9297" fill="none" rx="3" ry="3" style="stroke:#038048;stroke-width:1.0;"/><text fill="#000000" font-family="sans-serif" font-size="14" lengthAdjust="spacing" textLength="226" x="257" y="264.2764">LOW_PST_CHANNEL_WIDTH_KHZ</text><ellipse cx="248" cy="277.2266" fill="none" rx="3" ry="3" style="stroke:#038048;stroke-width:1.0;"/><text fill="#000000" font-family="sans-serif" font-size="14" lengthAdjust="spacing" textLength="262" x="257" y="280.5732">LOW_STATION_CHANNEL_WIDTH_MHZ</text></g><g id="elem_coordinates_items"><rect fill="#F1F1F1" height="93.4844" style="stroke:#181818;stroke-width:0.5;" width="198" x="993" y="178.2969"/><text fill="#000000" font-family="sans-serif" font-size="14" lengthAdjust="spacing" textLength="127" x="1028.5" y="193.292">coordinates_items</text><line style="stroke:#181818;stroke-width:0.5;" x1="994" x2="1190" y1="198.5938" y2="198.5938"/><ellipse cx="1004" cy="212.2422" fill="none" rx="3" ry="3" style="stroke:#038048;stroke-width:1.0;"/><text fill="#000000" font-family="sans-serif" font-size="14" lengthAdjust="spacing" textLength="139" x="1013" y="215.5889">EquatorialResponse</text><ellipse cx="1004" cy="228.5391" fill="none" rx="3" ry="3" style="stroke:#038048;stroke-width:1.0;"/><text fill="#000000" font-family="sans-serif" font-size="14" lengthAdjust="spacing" textLength="125" x="1013" y="231.8857">GalacticResponse</text><ellipse cx="1004" cy="244.8359" fill="none" rx="3" ry="3" style="stroke:#038048;stroke-width:1.0;"/><text fill="#000000" font-family="sans-serif" font-size="14" lengthAdjust="spacing" textLength="115" x="1013" y="248.1826">ReferenceFrame</text><ellipse cx="1004" cy="261.1328" fill="#84BE84" rx="3" ry="3" style="stroke:#038048;stroke-width:1.0;"/><text fill="#000000" font-family="sans-serif" font-size="14" lengthAdjust="spacing" textLength="172" x="1013" y="264.4795">get_systemcoordinates()</text></g><g id="elem_auth_items"><rect fill="#F1F1F1" height="44.5938" style="stroke:#181818;stroke-width:0.5;" width="90" x="847" y="202.2969"/><text fill="#000000" font-family="sans-serif" font-size="14" lengthAdjust="spacing" textLength="76" x="854" y="217.292">auth_items</text><line style="stroke:#181818;stroke-width:0.5;" x1="848" x2="936" y1="222.5938" y2="222.5938"/><ellipse cx="858" cy="236.2422" fill="none" rx="3" ry="3" style="stroke:#038048;stroke-width:1.0;"/><text fill="#000000" font-family="sans-serif" font-size="14" lengthAdjust="spacing" textLength="44" x="867" y="239.5889">Scope</text></g><g id="elem_coordinateslookup_items"><rect fill="#F1F1F1" height="126.0781" style="stroke:#181818;stroke-width:0.5;" width="188" x="603" y="161.7969"/><text fill="#000000" font-family="sans-serif" font-size="14" lengthAdjust="spacing" textLength="174" x="610" y="176.792">coordinateslookup_items</text><line style="stroke:#181818;stroke-width:0.5;" x1="604" x2="790" y1="182.0938" y2="182.0938"/><ellipse cx="614" cy="195.7422" fill="none" rx="3" ry="3" style="stroke:#038048;stroke-width:1.0;"/><text fill="#000000" font-family="sans-serif" font-size="14" lengthAdjust="spacing" textLength="68" x="623" y="199.0889">Equatorial</text><ellipse cx="614" cy="212.0391" fill="none" rx="3" ry="3" style="stroke:#038048;stroke-width:1.0;"/><text fill="#000000" font-family="sans-serif" font-size="14" lengthAdjust="spacing" textLength="54" x="623" y="215.3857">Galactic</text><ellipse cx="614" cy="228.3359" fill="#84BE84" rx="3" ry="3" style="stroke:#038048;stroke-width:1.0;"/><text fill="#000000" font-family="sans-serif" font-size="14" lengthAdjust="spacing" textLength="149" x="623" y="231.6826">convert_ra_dec_deg()</text><ellipse cx="614" cy="244.6328" fill="#84BE84" rx="3" ry="3" style="stroke:#038048;stroke-width:1.0;"/><text fill="#000000" font-family="sans-serif" font-size="14" lengthAdjust="spacing" textLength="142" x="623" y="247.9795">convert_to_galactic()</text><ellipse cx="614" cy="260.9297" fill="#84BE84" rx="3" ry="3" style="stroke:#038048;stroke-width:1.0;"/><text fill="#000000" font-family="sans-serif" font-size="14" lengthAdjust="spacing" textLength="122" x="623" y="264.2764">get_coordinates()</text><ellipse cx="614" cy="277.2266" fill="#84BE84" rx="3" ry="3" style="stroke:#038048;stroke-width:1.0;"/><text fill="#000000" font-family="sans-serif" font-size="14" lengthAdjust="spacing" textLength="98" x="623" y="280.5732">round_coord()</text></g><g id="elem_error_handling_items"><rect fill="#F1F1F1" height="191.2656" style="stroke:#181818;stroke-width:0.5;" width="278" x="1505" y="129.2969"/><text fill="#000000" font-family="sans-serif" font-size="14" lengthAdjust="spacing" textLength="144" x="1572" y="144.292">error_handling_items</text><line style="stroke:#181818;stroke-width:0.5;" x1="1506" x2="1782" y1="149.5938" y2="149.5938"/><ellipse cx="1516" cy="163.2422" fill="none" rx="3" ry="3" style="stroke:#038048;stroke-width:1.0;"/><text fill="#000000" font-family="sans-serif" font-size="14" lengthAdjust="spacing" textLength="119" x="1525" y="166.5889">BadRequestError</text><ellipse cx="1516" cy="179.5391" fill="none" rx="3" ry="3" style="stroke:#038048;stroke-width:1.0;"/><text fill="#000000" font-family="sans-serif" font-size="14" lengthAdjust="spacing" textLength="98" x="1525" y="182.8857">DuplicateError</text><ellipse cx="1516" cy="195.8359" fill="none" rx="3" ry="3" style="stroke:#038048;stroke-width:1.0;"/><text fill="#000000" font-family="sans-serif" font-size="14" lengthAdjust="spacing" textLength="101" x="1525" y="199.1826">NotFoundError</text><ellipse cx="1516" cy="212.1328" fill="none" rx="3" ry="3" style="stroke:#038048;stroke-width:1.0;"/><text fill="#000000" font-family="sans-serif" font-size="14" lengthAdjust="spacing" textLength="175" x="1525" y="215.4795">UnprocessableEntityError</text><ellipse cx="1516" cy="228.4297" fill="#84BE84" rx="3" ry="3" style="stroke:#038048;stroke-width:1.0;"/><text fill="#000000" font-family="sans-serif" font-size="14" lengthAdjust="spacing" textLength="128" x="1525" y="231.7764">_make_response()</text><ellipse cx="1516" cy="244.7266" fill="#84BE84" rx="3" ry="3" style="stroke:#038048;stroke-width:1.0;"/><text fill="#000000" font-family="sans-serif" font-size="14" lengthAdjust="spacing" textLength="252" x="1525" y="248.0732">dangerous_internal_server_handler()</text><ellipse cx="1516" cy="261.0234" fill="#84BE84" rx="3" ry="3" style="stroke:#038048;stroke-width:1.0;"/><text fill="#000000" font-family="sans-serif" font-size="14" lengthAdjust="spacing" textLength="95" x="1525" y="264.3701">error_details()</text><ellipse cx="1516" cy="277.3203" fill="#84BE84" rx="3" ry="3" style="stroke:#038048;stroke-width:1.0;"/><text fill="#000000" font-family="sans-serif" font-size="14" lengthAdjust="spacing" textLength="135" x="1525" y="280.667">oda_error_handler()</text><ellipse cx="1516" cy="293.6172" fill="#84BE84" rx="3" ry="3" style="stroke:#038048;stroke-width:1.0;"/><text fill="#000000" font-family="sans-serif" font-size="14" lengthAdjust="spacing" textLength="172" x="1525" y="296.9639">oda_not_found_handler()</text><ellipse cx="1516" cy="309.9141" fill="#84BE84" rx="3" ry="3" style="stroke:#038048;stroke-width:1.0;"/><text fill="#000000" font-family="sans-serif" font-size="14" lengthAdjust="spacing" textLength="226" x="1525" y="313.2607">oda_unique_constraint_handler()</text></g><g id="elem_model_items"><rect fill="#F1F1F1" height="93.4844" style="stroke:#181818;stroke-width:0.5;" width="202" x="1247" y="178.2969"/><text fill="#000000" font-family="sans-serif" font-size="14" lengthAdjust="spacing" textLength="88" x="1304" y="193.292">model_items</text><line style="stroke:#181818;stroke-width:0.5;" x1="1248" x2="1448" y1="198.5938" y2="198.5938"/><ellipse cx="1258" cy="212.2422" fill="none" rx="3" ry="3" style="stroke:#038048;stroke-width:1.0;"/><text fill="#000000" font-family="sans-serif" font-size="14" lengthAdjust="spacing" textLength="69" x="1267" y="215.5889">AppModel</text><ellipse cx="1258" cy="228.5391" fill="none" rx="3" ry="3" style="stroke:#038048;stroke-width:1.0;"/><text fill="#000000" font-family="sans-serif" font-size="14" lengthAdjust="spacing" textLength="80" x="1267" y="231.8857">ErrorDetails</text><ellipse cx="1258" cy="244.8359" fill="none" rx="3" ry="3" style="stroke:#038048;stroke-width:1.0;"/><text fill="#000000" font-family="sans-serif" font-size="14" lengthAdjust="spacing" textLength="176" x="1267" y="248.1826">ErrorResponseTraceback</text><ellipse cx="1258" cy="261.1328" fill="none" rx="3" ry="3" style="stroke:#038048;stroke-width:1.0;"/><text fill="#000000" font-family="sans-serif" font-size="14" lengthAdjust="spacing" textLength="137" x="1267" y="264.4795">ValidationResponse</text></g><g id="elem_osdmapper_items"><rect fill="#F1F1F1" height="158.6719" style="stroke:#181818;stroke-width:0.5;" width="271" x="1839.5" y="145.2969"/><text fill="#000000" font-family="sans-serif" font-size="14" lengthAdjust="spacing" textLength="124" x="1913" y="160.292">osdmapper_items</text><line style="stroke:#181818;stroke-width:0.5;" x1="1840.5" x2="2109.5" y1="165.5938" y2="165.5938"/><ellipse cx="1850.5" cy="179.2422" fill="none" rx="3" ry="3" style="stroke:#038048;stroke-width:1.0;"/><text fill="#000000" font-family="sans-serif" font-size="14" lengthAdjust="spacing" textLength="92" x="1859.5" y="182.5889">Configuration</text><ellipse cx="1850.5" cy="195.5391" fill="none" rx="3" ry="3" style="stroke:#038048;stroke-width:1.0;"/><text fill="#000000" font-family="sans-serif" font-size="14" lengthAdjust="spacing" textLength="109" x="1859.5" y="198.8857">FrequencyBand</text><ellipse cx="1850.5" cy="211.8359" fill="none" rx="3" ry="3" style="stroke:#038048;stroke-width:1.0;"/><text fill="#000000" font-family="sans-serif" font-size="14" lengthAdjust="spacing" textLength="119" x="1859.5" y="215.1826">LowConfiguration</text><ellipse cx="1850.5" cy="228.1328" fill="none" rx="3" ry="3" style="stroke:#038048;stroke-width:1.0;"/><text fill="#000000" font-family="sans-serif" font-size="14" lengthAdjust="spacing" textLength="116" x="1859.5" y="231.4795">MidConfiguration</text><ellipse cx="1850.5" cy="244.4297" fill="none" rx="3" ry="3" style="stroke:#038048;stroke-width:1.0;"/><text fill="#000000" font-family="sans-serif" font-size="14" lengthAdjust="spacing" textLength="60" x="1859.5" y="247.7764">Subarray</text><ellipse cx="1850.5" cy="260.7266" fill="#84BE84" rx="3" ry="3" style="stroke:#038048;stroke-width:1.0;"/><text fill="#000000" font-family="sans-serif" font-size="14" lengthAdjust="spacing" textLength="171" x="1859.5" y="264.0732">configuration_from_osd()</text><ellipse cx="1850.5" cy="277.0234" fill="#84BE84" rx="3" ry="3" style="stroke:#038048;stroke-width:1.0;"/><text fill="#000000" font-family="sans-serif" font-size="14" lengthAdjust="spacing" textLength="243" x="1859.5" y="280.3701">_get_low_telescope_configuration()</text><ellipse cx="1850.5" cy="293.3203" fill="#84BE84" rx="3" ry="3" style="stroke:#038048;stroke-width:1.0;"/><text fill="#000000" font-family="sans-serif" font-size="14" lengthAdjust="spacing" textLength="245" x="1859.5" y="296.667">_get_mid_telescope_configuration()</text></g><g id="elem_odt_note"><path d="M224.5,451.2969 L224.5,476.4297 L475.5,476.4297 L475.5,461.2969 L465.5,451.2969 L224.5,451.2969 " fill="#FEFFDD" style="stroke:#181818;stroke-width:0.5;"/><path d="M465.5,451.2969 L465.5,461.2969 L475.5,461.2969 L465.5,451.2969 " fill="#FEFFDD" style="stroke:#181818;stroke-width:1.0;"/><text fill="#000000" font-family="sans-serif" font-size="13" lengthAdjust="spacing" textLength="230" x="230.5" y="468.3638">"ODT section minimized in this view"</text></g><g id="elem_panel_decision_endpoints"><rect fill="#F1F1F1" height="93.4844" style="stroke:#181818;stroke-width:0.5;" width="240" x="949" y="742.7969"/><text fill="#000000" font-family="sans-serif" font-size="14" lengthAdjust="spacing" textLength="180" x="979" y="757.792">panel_decision_endpoints</text><line style="stroke:#181818;stroke-width:0.5;" x1="950" x2="1188" y1="763.0938" y2="763.0938"/><ellipse cx="960" cy="776.7422" fill="#84BE84" rx="3" ry="3" style="stroke:#038048;stroke-width:1.0;"/><text fill="#000000" font-family="sans-serif" font-size="14" lengthAdjust="spacing" textLength="164" x="969" y="780.0889">create_panel_decision()</text><ellipse cx="960" cy="793.0391" fill="#84BE84" rx="3" ry="3" style="stroke:#038048;stroke-width:1.0;"/><text fill="#000000" font-family="sans-serif" font-size="14" lengthAdjust="spacing" textLength="143" x="969" y="796.3857">get_panel_decision()</text><ellipse cx="960" cy="809.3359" fill="#84BE84" rx="3" ry="3" style="stroke:#038048;stroke-width:1.0;"/><text fill="#000000" font-family="sans-serif" font-size="14" lengthAdjust="spacing" textLength="214" x="969" y="812.6826">get_panel_decisions_for_user()</text><ellipse cx="960" cy="825.6328" fill="#84BE84" rx="3" ry="3" style="stroke:#038048;stroke-width:1.0;"/><text fill="#000000" font-family="sans-serif" font-size="14" lengthAdjust="spacing" textLength="169" x="969" y="828.9795">update_panel_decision()</text></g><g id="elem_panels_endpoints"><rect fill="#F1F1F1" height="77.1875" style="stroke:#181818;stroke-width:0.5;" width="175" x="717.5" y="750.7969"/><text fill="#000000" font-family="sans-serif" font-size="14" lengthAdjust="spacing" textLength="123" x="743.5" y="765.792">panels_endpoints</text><line style="stroke:#181818;stroke-width:0.5;" x1="718.5" x2="891.5" y1="771.0938" y2="771.0938"/><ellipse cx="728.5" cy="784.7422" fill="#84BE84" rx="3" ry="3" style="stroke:#038048;stroke-width:1.0;"/><text fill="#000000" font-family="sans-serif" font-size="14" lengthAdjust="spacing" textLength="99" x="737.5" y="788.0889">create_panel()</text><ellipse cx="728.5" cy="801.0391" fill="#84BE84" rx="3" ry="3" style="stroke:#038048;stroke-width:1.0;"/><text fill="#000000" font-family="sans-serif" font-size="14" lengthAdjust="spacing" textLength="78" x="737.5" y="804.3857">get_panel()</text><ellipse cx="728.5" cy="817.3359" fill="#84BE84" rx="3" ry="3" style="stroke:#038048;stroke-width:1.0;"/><text fill="#000000" font-family="sans-serif" font-size="14" lengthAdjust="spacing" textLength="149" x="737.5" y="820.6826">get_panels_for_user()</text></g><g id="elem_prsls_endpoints"><rect fill="#F1F1F1" height="240.1563" style="stroke:#181818;stroke-width:0.5;" width="210" x="451" y="669.2969"/><text fill="#000000" font-family="sans-serif" font-size="14" lengthAdjust="spacing" textLength="110" x="501" y="684.292">prsls_endpoints</text><line style="stroke:#181818;stroke-width:0.5;" x1="452" x2="660" y1="689.5938" y2="689.5938"/><ellipse cx="462" cy="703.2422" fill="#84BE84" rx="3" ry="3" style="stroke:#038048;stroke-width:1.0;"/><text fill="#000000" font-family="sans-serif" font-size="14" lengthAdjust="spacing" textLength="158" x="471" y="706.5889">create_delete_pdf_url()</text><ellipse cx="462" cy="719.5391" fill="#84BE84" rx="3" ry="3" style="stroke:#038048;stroke-width:1.0;"/><text fill="#000000" font-family="sans-serif" font-size="14" lengthAdjust="spacing" textLength="181" x="471" y="722.8857">create_download_pdf_url()</text><ellipse cx="462" cy="735.8359" fill="#84BE84" rx="3" ry="3" style="stroke:#038048;stroke-width:1.0;"/><text fill="#000000" font-family="sans-serif" font-size="14" lengthAdjust="spacing" textLength="121" x="471" y="739.1826">create_proposal()</text><ellipse cx="462" cy="752.1328" fill="#84BE84" rx="3" ry="3" style="stroke:#038048;stroke-width:1.0;"/><text fill="#000000" font-family="sans-serif" font-size="14" lengthAdjust="spacing" textLength="161" x="471" y="755.4795">create_upload_pdf_url()</text><ellipse cx="462" cy="768.4297" fill="#84BE84" rx="3" ry="3" style="stroke:#038048;stroke-width:1.0;"/><text fill="#000000" font-family="sans-serif" font-size="14" lengthAdjust="spacing" textLength="131" x="471" y="771.7764">get_osd_by_cycle()</text><ellipse cx="462" cy="784.7266" fill="#84BE84" rx="3" ry="3" style="stroke:#038048;stroke-width:1.0;"/><text fill="#000000" font-family="sans-serif" font-size="14" lengthAdjust="spacing" textLength="100" x="471" y="788.0732">get_proposal()</text><ellipse cx="462" cy="801.0234" fill="#84BE84" rx="3" ry="3" style="stroke:#038048;stroke-width:1.0;"/><text fill="#000000" font-family="sans-serif" font-size="14" lengthAdjust="spacing" textLength="154" x="471" y="804.3701">get_proposals_batch()</text><ellipse cx="462" cy="817.3203" fill="#84BE84" rx="3" ry="3" style="stroke:#038048;stroke-width:1.0;"/><text fill="#000000" font-family="sans-serif" font-size="14" lengthAdjust="spacing" textLength="181" x="471" y="820.667">get_proposals_by_status()</text><ellipse cx="462" cy="833.6172" fill="#84BE84" rx="3" ry="3" style="stroke:#038048;stroke-width:1.0;"/><text fill="#000000" font-family="sans-serif" font-size="14" lengthAdjust="spacing" textLength="171" x="471" y="836.9639">get_proposals_for_user()</text><ellipse cx="462" cy="849.9141" fill="#84BE84" rx="3" ry="3" style="stroke:#038048;stroke-width:1.0;"/><text fill="#000000" font-family="sans-serif" font-size="14" lengthAdjust="spacing" textLength="184" x="471" y="853.2607">get_reviews_for_proposal()</text><ellipse cx="462" cy="866.2109" fill="#84BE84" rx="3" ry="3" style="stroke:#038048;stroke-width:1.0;"/><text fill="#000000" font-family="sans-serif" font-size="14" lengthAdjust="spacing" textLength="88" x="471" y="869.5576">send_email()</text><ellipse cx="462" cy="882.5078" fill="#84BE84" rx="3" ry="3" style="stroke:#038048;stroke-width:1.0;"/><text fill="#000000" font-family="sans-serif" font-size="14" lengthAdjust="spacing" textLength="126" x="471" y="885.8545">update_proposal()</text><ellipse cx="462" cy="898.8047" fill="#84BE84" rx="3" ry="3" style="stroke:#038048;stroke-width:1.0;"/><text fill="#000000" font-family="sans-serif" font-size="14" lengthAdjust="spacing" textLength="129" x="471" y="902.1514">validate_proposal()</text></g><g id="elem_report_endpoints"><rect fill="#F1F1F1" height="44.5938" style="stroke:#181818;stroke-width:0.5;" width="133" x="261.5" y="766.7969"/><text fill="#000000" font-family="sans-serif" font-size="14" lengthAdjust="spacing" textLength="119" x="268.5" y="781.792">report_endpoints</text><line style="stroke:#181818;stroke-width:0.5;" x1="262.5" x2="393.5" y1="787.0938" y2="787.0938"/><ellipse cx="272.5" cy="800.7422" fill="#84BE84" rx="3" ry="3" style="stroke:#038048;stroke-width:1.0;"/><text fill="#000000" font-family="sans-serif" font-size="14" lengthAdjust="spacing" textLength="82" x="281.5" y="804.0889">get_report()</text></g><g id="elem_reviewers_endpoints"><rect fill="#F1F1F1" height="44.5938" style="stroke:#181818;stroke-width:0.5;" width="157" x="1483.5" y="766.7969"/><text fill="#000000" font-family="sans-serif" font-size="14" lengthAdjust="spacing" textLength="143" x="1490.5" y="781.792">reviewers_endpoints</text><line style="stroke:#181818;stroke-width:0.5;" x1="1484.5" x2="1639.5" y1="787.0938" y2="787.0938"/><ellipse cx="1494.5" cy="800.7422" fill="#84BE84" rx="3" ry="3" style="stroke:#038048;stroke-width:1.0;"/><text fill="#000000" font-family="sans-serif" font-size="14" lengthAdjust="spacing" textLength="106" x="1503.5" y="804.0889">get_reviewers()</text></g><g id="elem_reviews_endpoints"><rect fill="#F1F1F1" height="93.4844" style="stroke:#181818;stroke-width:0.5;" width="181" x="1245.5" y="742.7969"/><text fill="#000000" font-family="sans-serif" font-size="14" lengthAdjust="spacing" textLength="129" x="1271.5" y="757.792">reviews_endpoints</text><line style="stroke:#181818;stroke-width:0.5;" x1="1246.5" x2="1425.5" y1="763.0938" y2="763.0938"/><ellipse cx="1256.5" cy="776.7422" fill="#84BE84" rx="3" ry="3" style="stroke:#038048;stroke-width:1.0;"/><text fill="#000000" font-family="sans-serif" font-size="14" lengthAdjust="spacing" textLength="105" x="1265.5" y="780.0889">create_review()</text><ellipse cx="1256.5" cy="793.0391" fill="#84BE84" rx="3" ry="3" style="stroke:#038048;stroke-width:1.0;"/><text fill="#000000" font-family="sans-serif" font-size="14" lengthAdjust="spacing" textLength="84" x="1265.5" y="796.3857">get_review()</text><ellipse cx="1256.5" cy="809.3359" fill="#84BE84" rx="3" ry="3" style="stroke:#038048;stroke-width:1.0;"/><text fill="#000000" font-family="sans-serif" font-size="14" lengthAdjust="spacing" textLength="155" x="1265.5" y="812.6826">get_reviews_for_user()</text><ellipse cx="1256.5" cy="825.6328" fill="#84BE84" rx="3" ry="3" style="stroke:#038048;stroke-width:1.0;"/><text fill="#000000" font-family="sans-serif" font-size="14" lengthAdjust="spacing" textLength="110" x="1265.5" y="828.9795">update_review()</text></g><g id="elem_utils_note"><path d="M2041,776.7969 L2041,801.9297 L2291,801.9297 L2291,786.7969 L2281,776.7969 L2041,776.7969 " fill="#FEFFDD" style="stroke:#181818;stroke-width:0.5;"/><path d="M2281,776.7969 L2281,786.7969 L2291,786.7969 L2281,776.7969 " fill="#FEFFDD" style="stroke:#181818;stroke-width:1.0;"/><text fill="#000000" font-family="sans-serif" font-size="13" lengthAdjust="spacing" textLength="229" x="2047" y="793.8638">"utils section minimized in this view"</text></g><g id="elem_model_note"><path d="M1721,776.7969 L1721,801.9297 L1985,801.9297 L1985,786.7969 L1975,776.7969 L1721,776.7969 " fill="#FEFFDD" style="stroke:#181818;stroke-width:0.5;"/><path d="M1975,776.7969 L1975,786.7969 L1985,786.7969 L1975,776.7969 " fill="#FEFFDD" style="stroke:#181818;stroke-width:1.0;"/><text fill="#000000" font-family="sans-serif" font-size="13" lengthAdjust="spacing" textLength="243" x="1727" y="793.8638">"model section minimized in this view"</text></g><!--class create_app--><g id="elem_create_app"><rect codeLine="169" fill="#F1F1F1" height="56.2656" id="create_app" rx="2.5" ry="2.5" style="stroke:#181818;stroke-width:0.5;" width="109" x="23.5" y="435.7969"/><ellipse cx="38.5" cy="455.9297" fill="#ADD1B2" rx="11" ry="11" style="stroke:#181818;stroke-width:1.0;"/><path d="M41.4688,461.5703 Q40.8906,461.8672 40.25,462.0078 Q39.6094,462.1641 38.9063,462.1641 Q36.4063,462.1641 35.0781,460.5234 Q33.7656,458.8672 33.7656,455.7422 Q33.7656,452.6172 35.0781,450.9609 Q36.4063,449.3047 38.9063,449.3047 Q39.6094,449.3047 40.25,449.4609 Q40.9063,449.6172 41.4688,449.9141 L41.4688,452.6328 Q40.8438,452.0547 40.25,451.7891 Q39.6563,451.5078 39.0313,451.5078 Q37.6875,451.5078 37,452.5859 Q36.3125,453.6484 36.3125,455.7422 Q36.3125,457.8359 37,458.9141 Q37.6875,459.9766 39.0313,459.9766 Q39.6563,459.9766 40.25,459.7109 Q40.8438,459.4297 41.4688,458.8516 L41.4688,461.5703 Z " fill="#000000"/><text fill="#000000" font-family="sans-serif" font-size="12" font-style="italic" lengthAdjust="spacing" textLength="65" x="58.5" y="451.9355">«function»</text><text fill="#000000" font-family="sans-serif" font-size="14" lengthAdjust="spacing" textLength="77" x="52.5" y="467.7607">create_app</text><line style="stroke:#181818;stroke-width:0.5;" x1="24.5" x2="131.5" y1="476.0625" y2="476.0625"/><line style="stroke:#181818;stroke-width:0.5;" x1="24.5" x2="131.5" y1="484.0625" y2="484.0625"/></g><!--link common_pkg to odt_pkg--><!--link common_pkg to odt_pkg--><!--link odt_pkg to pht_pkg--><!--link odt_pkg to pht_pkg--><!--reverse link create_app to common_pkg--><g id="link_create_app_common_pkg"><path codeLine="173" d="M93.04,430.6869 C108.05,398.6369 131.7075,348.1244 151.7763,305.2744 C161.8106,283.8494 170.9478,264.34 177.6583,250.0119 C178.4971,248.2209 179.298,246.5108 180.058,244.8881 C180.248,244.4824 180.4354,244.0822 180.6202,243.6875 C180.7127,243.4902 180.8044,243.2942 180.8955,243.0997 " fill="none" id="create_app-backto-common_pkg" style="stroke:#181818;stroke-width:1.0;"/><polygon fill="#181818" points="90.77,435.5369,98.2185,429.0933,92.8969,431.0118,90.9784,425.6902,90.77,435.5369" style="stroke:#181818;stroke-width:1.0;"/></g><!--link odt_pkg to create_app--><g id="link_odt_pkg_create_app"><path codeLine="174" d="M180.8401,463.7969 C180.7741,463.7969 180.7081,463.7969 180.6422,463.7969 C180.1143,463.7969 179.5864,463.7969 179.0585,463.7969 C178.0026,463.7969 176.9468,463.7969 175.8909,463.7969 C171.6675,463.7969 167.4438,463.7969 163.22,463.7969 C154.7725,463.7969 146.325,463.7969 137.88,463.7969 " fill="none" id="odt_pkg-to-create_app" style="stroke:#181818;stroke-width:1.0;"/><polygon fill="#181818" points="132.63,463.7969,141.63,467.7969,137.63,463.7969,141.63,459.7969,132.63,463.7969" style="stroke:#181818;stroke-width:1.0;"/></g><!--reverse link create_app to pht_pkg--><g id="link_create_app_pht_pkg"><path codeLine="175" d="M89.03,496.9369 C102.835,537.1769 127.2575,608.3519 148.5075,670.2794 C159.1325,701.2431 168.9644,729.895 176.2794,751.2122 C177.1937,753.8768 178.0688,756.4269 178.9012,758.8525 C179.3173,760.0653 179.7228,761.247 180.1172,762.3964 C180.3145,762.9711 180.5089,763.5377 180.7005,764.0961 C180.7963,764.3753 180.8914,764.6524 180.9858,764.9274 " fill="none" id="create_app-backto-pht_pkg" style="stroke:#181818;stroke-width:1.0;"/><polygon fill="#181818" points="87.27,491.8269,86.3922,501.6365,88.8854,496.5587,93.9632,499.0519,87.27,491.8269" style="stroke:#181818;stroke-width:1.0;"/></g><!--SRC=[dLVRRkCs47tNLn1-Qb4aAFgyC934IHEiBqNix08j2e8MnpORYTIIb0EtyB_lK1TRb2ZBMmEE7Pv3pioPuOniLKQi8cjbhKe95nfYAvIC8Yji0kHPR7Ta2dj8o4pn75U-2FWWQaCMomLPWjwB64mKPIn-PriWerYbgP8ZmWmflzBiVKl-YoA2hmPB6ikaDIFowTChccHocy1uZ4HIlDJw7rmb3pNl113o2vczJEXllzA7vxlv_76wf5zV9gjdEdl-iyMf21N-sSEdYwyd_7wwUFZSsb_WY_dgPVxsDXiywO_bQf2pNDsjNXRp5kzizHYLVtsbM2PkOwKq5v9P6DAhmQJ2Gcf8GpZdoEEtd5cb1KjUmMIeBdZmxonXcFyu2Bx21ZJ869uqItre2vQQWq6B3Gz- -lboPBdTzOLp2iYHgaZyG9QnoY1qlbTb9ryIfTxpRD1SPqVGzbd4e7ZU8bRw7hIbcb4ECRwt9rbyWbLqMntGOZXnGxAMg5Qvv2NUG8udQTgYWDPAqnsJF15oEwY8Jm_ASS_uAtpBmTX7H_QmIPub8aQtkz1SsIVdUnTvavbMs5OCMoVmAB4J7Reach9teBegr9Oe7EC1L0PlWRIW9KkemLu5LIIWM_moIWwMYQGjiEACDbJex7MuL9PkYaJqSt8fK2HQj3xDqAy0jpzjgUAG36QhO0MJT9TbCmVwXUp2cfHHTu6w2QmqYs6DZdYKBomHdBbPqMaM_L4emrEMPQ078panWz7WNDY8RQuB-nxof5qfolXmZ-9wo5Hzz6-R2TuFBlCrqveTslVsJASRhLAAFhVoJjtTJTG7jP20SIsBUlj2z5JmA-XdZO-DwQkuBKOlVbPprt6mEg5UTT-BnT5YiYAcdFOa5LAaub_WH4XYTyAGFOxvKK44oOiJF4FPhZI4dmr3pQdLpV39z_CfJ6AvObyKHhY7XhwQE5M5lu6YQvaI_kD1bHqDs7Iep_VKhZlh3rCCtdHDSzEwv8wSPtp0wh6Hm2YaXXcy6IMj9tO_yi0WkRWU3EtOcB8TbxMvncF76d8OUnCul_c6vhhjOSrH7p9HZ5zcuV38b64zA0wa_XES4dYBwVf0uqESG4YeyEbDoD0ri_7kCkD0ySdMvkOYArXf9Kc3kw8bfSSdWv9JIB6xju2wJiFRzcLd3-ANYa53fhGTh8QIrbiEPMoEShLP9mHeSuNbYZbWl6BzaFrhhG_UWvBMc_21IWWKIvNiplRMb2x_zTiuTlVRt8h-ArvFbe9qdYquNOgLg-PBOy9SykFY0r3jH_dyq_IZMFb_VhY1r_WDU-EwpryxmJd8ls_g4Ni5enx6BRWQdKDmr1YgFJzWueGPKzSFif2qoMKHyNZiel2SpBERCK7MxNd3sGUDl_Tj5w_7V6ZpTm00]--></g></svg>