<?xml version="1.0" encoding="UTF-8" standalone="no"?><svg xmlns="http://www.w3.org/2000/svg" xmlns:xlink="http://www.w3.org/1999/xlink" contentStyleType="text/css" height="1173px" preserveAspectRatio="none" style="width:3698px;height:1173px;background:#FFFFFF;" version="1.1" viewBox="0 0 3698 1173" width="3698px" zoomAndPan="magnify"><defs/><g><!--cluster common_pkg--><g id="cluster_common_pkg"><path d="M34.0525,146 L102.0525,146 A3.75,3.75 0 0 1 104.5525,148.5 L111.5525,168.2969 L2018.0525,168.2969 A2.5,2.5 0 0 1 2020.5525,170.7969 L2020.5525,550.5 A2.5,2.5 0 0 1 2018.0525,553 L34.0525,553 A2.5,2.5 0 0 1 31.5525,550.5 L31.5525,148.5 A2.5,2.5 0 0 1 34.0525,146 " fill="none" style="stroke:#000000;stroke-width:1.5;"/><line style="stroke:#000000;stroke-width:1.5;" x1="31.5525" x2="111.5525" y1="168.2969" y2="168.2969"/><text fill="#000000" font-family="sans-serif" font-size="14" font-weight="bold" lengthAdjust="spacing" textLength="67" x="35.5525" y="160.9951">common</text></g><!--cluster api.coordinates--><g id="cluster_api.coordinates"><rect fill="none" height="144" rx="2.5" ry="2.5" style="stroke:#181818;stroke-width:1.0;" width="300" x="893.5525" y="287"/><text fill="#000000" font-family="sans-serif" font-size="14" font-weight="bold" lengthAdjust="spacing" textLength="122" x="982.5525" y="301.9951">api.coordinates</text></g><!--cluster auth--><g id="cluster_auth"><rect fill="none" height="99" rx="2.5" ry="2.5" style="stroke:#181818;stroke-width:1.0;" width="108" x="761.5525" y="309.5"/><text fill="#000000" font-family="sans-serif" font-size="14" font-weight="bold" lengthAdjust="spacing" textLength="35" x="798.0525" y="324.4951">auth</text></g><!--cluster coordinateslookup--><g id="cluster_coordinateslookup"><rect fill="none" height="177" rx="2.5" ry="2.5" style="stroke:#181818;stroke-width:1.0;" width="220" x="517.5525" y="270.5"/><text fill="#000000" font-family="sans-serif" font-size="14" font-weight="bold" lengthAdjust="spacing" textLength="147" x="554.0525" y="285.4951">coordinateslookup</text></g><!--cluster error_handling--><g id="cluster_error_handling"><rect fill="none" height="242" rx="2.5" ry="2.5" style="stroke:#181818;stroke-width:1.0;" width="310" x="183.5525" y="238"/><text fill="#000000" font-family="sans-serif" font-size="14" font-weight="bold" lengthAdjust="spacing" textLength="115" x="281.0525" y="252.9951">error_handling</text></g><!--cluster model--><g id="cluster_model"><rect fill="none" height="324" rx="2.5" ry="2.5" style="stroke:#181818;stroke-width:1.0;" width="443" x="1545.5525" y="197"/><text fill="#000000" font-family="sans-serif" font-size="14" font-weight="bold" lengthAdjust="spacing" textLength="48" x="1743.0525" y="211.9951">model</text></g><!--cluster osdmapper--><g id="cluster_osdmapper"><rect fill="none" height="210" rx="2.5" ry="2.5" style="stroke:#181818;stroke-width:1.0;" width="304" x="1217.5525" y="254"/><text fill="#000000" font-family="sans-serif" font-size="14" font-weight="bold" lengthAdjust="spacing" textLength="89" x="1325.0525" y="268.9951">osdmapper</text></g><!--cluster odt_pkg--><g id="cluster_odt_pkg"><path d="M905.0525,593 L932.0525,593 A3.75,3.75 0 0 1 934.5525,595.5 L941.5525,615.2969 L1219.0525,615.2969 A2.5,2.5 0 0 1 1221.5525,617.7969 L1221.5525,682.5 A2.5,2.5 0 0 1 1219.0525,685 L905.0525,685 A2.5,2.5 0 0 1 902.5525,682.5 L902.5525,595.5 A2.5,2.5 0 0 1 905.0525,593 " fill="none" style="stroke:#000000;stroke-width:1.5;"/><line style="stroke:#000000;stroke-width:1.5;" x1="902.5525" x2="941.5525" y1="615.2969" y2="615.2969"/><text fill="#000000" font-family="sans-serif" font-size="14" font-weight="bold" lengthAdjust="spacing" textLength="26" x="906.5525" y="607.9951">odt</text></g><!--cluster pht_pkg--><g id="cluster_pht_pkg"><path d="M905.0525,725 L932.0525,725 A3.75,3.75 0 0 1 934.5525,727.5 L941.5525,747.2969 L3689.0525,747.2969 A2.5,2.5 0 0 1 3691.5525,749.7969 L3691.5525,1163.5 A2.5,2.5 0 0 1 3689.0525,1166 L905.0525,1166 A2.5,2.5 0 0 1 902.5525,1163.5 L902.5525,727.5 A2.5,2.5 0 0 1 905.0525,725 " fill="none" style="stroke:#000000;stroke-width:1.5;"/><line style="stroke:#000000;stroke-width:1.5;" x1="902.5525" x2="941.5525" y1="747.2969" y2="747.2969"/><text fill="#000000" font-family="sans-serif" font-size="14" font-weight="bold" lengthAdjust="spacing" textLength="26" x="906.5525" y="739.9951">pht</text></g><!--cluster api--><g id="cluster_api"><rect fill="none" height="358" rx="2.5" ry="2.5" style="stroke:#181818;stroke-width:1.0;" width="1420" x="1083.5525" y="776"/><text fill="#000000" font-family="sans-serif" font-size="14" font-weight="bold" lengthAdjust="spacing" textLength="23" x="1782.0525" y="790.9951">api</text></g><!--cluster panel_decision--><g id="cluster_panel_decision"><rect fill="none" height="144" rx="2.5" ry="2.5" style="stroke:#181818;stroke-width:1.0;" width="262" x="1329.5525" y="892.5"/><text fill="#000000" font-family="sans-serif" font-size="14" font-weight="bold" lengthAdjust="spacing" textLength="116" x="1402.5525" y="907.4951">panel_decision</text></g><!--cluster panels--><g id="cluster_panels"><rect fill="none" height="128" rx="2.5" ry="2.5" style="stroke:#181818;stroke-width:1.0;" width="198" x="1107.5525" y="900.5"/><text fill="#000000" font-family="sans-serif" font-size="14" font-weight="bold" lengthAdjust="spacing" textLength="52" x="1180.5525" y="915.4951">panels</text></g><!--cluster prsls--><g id="cluster_prsls"><rect fill="none" height="291" rx="2.5" ry="2.5" style="stroke:#181818;stroke-width:1.0;" width="232" x="1805.5525" y="819"/><text fill="#000000" font-family="sans-serif" font-size="14" font-weight="bold" lengthAdjust="spacing" textLength="39" x="1902.0525" y="833.9951">prsls</text></g><!--cluster report--><g id="cluster_report"><rect fill="none" height="96" rx="2.5" ry="2.5" style="stroke:#181818;stroke-width:1.0;" width="166" x="1615.5525" y="916.5"/><text fill="#000000" font-family="sans-serif" font-size="14" font-weight="bold" lengthAdjust="spacing" textLength="50" x="1673.5525" y="931.4951">report</text></g><!--cluster reviewers--><g id="cluster_reviewers"><rect fill="none" height="96" rx="2.5" ry="2.5" style="stroke:#181818;stroke-width:1.0;" width="190" x="2289.5525" y="916.5"/><text fill="#000000" font-family="sans-serif" font-size="14" font-weight="bold" lengthAdjust="spacing" textLength="80" x="2344.5525" y="931.4951">reviewers</text></g><!--cluster reviews--><g id="cluster_reviews"><rect fill="none" height="144" rx="2.5" ry="2.5" style="stroke:#181818;stroke-width:1.0;" width="204" x="2061.5525" y="892.5"/><text fill="#000000" font-family="sans-serif" font-size="14" font-weight="bold" lengthAdjust="spacing" textLength="63" x="2132.0525" y="907.4951">reviews</text></g><!--cluster utils.email_helper--><g id="cluster_utils.email_helper"><rect fill="none" height="112" rx="2.5" ry="2.5" style="stroke:#181818;stroke-width:1.0;" width="194" x="2903.5525" y="908.5"/><text fill="#000000" font-family="sans-serif" font-size="14" font-weight="bold" lengthAdjust="spacing" textLength="137" x="2932.0525" y="923.4951">utils.email_helper</text></g><!--cluster utils.pht_handler--><g id="cluster_utils.pht_handler"><rect fill="none" height="144" rx="2.5" ry="2.5" style="stroke:#181818;stroke-width:1.0;" width="352" x="2527.5525" y="892.5"/><text fill="#000000" font-family="sans-serif" font-size="14" font-weight="bold" lengthAdjust="spacing" textLength="131" x="2638.0525" y="907.4951">utils.pht_handler</text></g><!--cluster utils.s3_bucket--><g id="cluster_utils.s3_bucket"><rect fill="none" height="193" rx="2.5" ry="2.5" style="stroke:#181818;stroke-width:1.0;" width="316" x="3343.5525" y="868"/><text fill="#000000" font-family="sans-serif" font-size="14" font-weight="bold" lengthAdjust="spacing" textLength="118" x="3442.5525" y="882.9951">utils.s3_bucket</text></g><!--cluster utils.validation--><g id="cluster_utils.validation"><rect fill="none" height="112" rx="2.5" ry="2.5" style="stroke:#181818;stroke-width:1.0;" width="198" x="3121.5525" y="908.5"/><text fill="#000000" font-family="sans-serif" font-size="14" font-weight="bold" lengthAdjust="spacing" textLength="113" x="3164.0525" y="923.4951">utils.validation</text></g><!--cluster app--><g id="cluster_app"><rect fill="none" height="107" rx="2.5" ry="2.5" style="stroke:#181818;stroke-width:1.0;" width="142" x="1991.5525" y="7"/><text fill="#000000" font-family="sans-serif" font-size="14" font-weight="bold" lengthAdjust="spacing" textLength="29" x="2048.0525" y="21.9951">app</text></g><g id="elem_coordinates_items"><rect fill="#F1F1F1" height="93.4844" style="stroke:#181818;stroke-width:0.5;" width="268" x="909.5525" y="322"/><text fill="#000000" font-family="sans-serif" font-size="14" lengthAdjust="spacing" textLength="127" x="980.0525" y="336.9951">coordinates_items</text><line style="stroke:#181818;stroke-width:0.5;" x1="910.5525" x2="1176.5525" y1="342.2969" y2="342.2969"/><ellipse cx="920.5525" cy="355.9453" fill="none" rx="3" ry="3" style="stroke:#038048;stroke-width:1.0;"/><text fill="#000000" font-family="sans-serif" font-size="14" lengthAdjust="spacing" textLength="115" x="929.5525" y="359.292">ReferenceFrame</text><ellipse cx="920.5525" cy="372.2422" fill="none" rx="3" ry="3" style="stroke:#038048;stroke-width:1.0;"/><text fill="#000000" font-family="sans-serif" font-size="14" lengthAdjust="spacing" textLength="139" x="929.5525" y="375.5889">EquatorialResponse</text><ellipse cx="920.5525" cy="388.5391" fill="none" rx="3" ry="3" style="stroke:#038048;stroke-width:1.0;"/><text fill="#000000" font-family="sans-serif" font-size="14" lengthAdjust="spacing" textLength="125" x="929.5525" y="391.8857">GalacticResponse</text><ellipse cx="920.5525" cy="404.8359" fill="none" rx="3" ry="3" style="stroke:#038048;stroke-width:1.0;"/><text fill="#000000" font-family="sans-serif" font-size="14" lengthAdjust="spacing" textLength="242" x="929.5525" y="408.1826">get_systemcoordinates«endpoint»</text></g><!--class Scope--><g id="elem_Scope"><rect codeLine="14" fill="#F1F1F1" height="48" id="Scope" rx="2.5" ry="2.5" style="stroke:#181818;stroke-width:0.5;" width="76" x="777.5525" y="344.5"/><ellipse cx="792.5525" cy="360.5" fill="#ADD1B2" rx="11" ry="11" style="stroke:#181818;stroke-width:1.0;"/><path d="M795.5213,366.1406 Q794.9431,366.4375 794.3025,366.5781 Q793.6619,366.7344 792.9588,366.7344 Q790.4588,366.7344 789.1306,365.0938 Q787.8181,363.4375 787.8181,360.3125 Q787.8181,357.1875 789.1306,355.5313 Q790.4588,353.875 792.9588,353.875 Q793.6619,353.875 794.3025,354.0313 Q794.9588,354.1875 795.5213,354.4844 L795.5213,357.2031 Q794.8963,356.625 794.3025,356.3594 Q793.7088,356.0781 793.0838,356.0781 Q791.74,356.0781 791.0525,357.1563 Q790.365,358.2188 790.365,360.3125 Q790.365,362.4063 791.0525,363.4844 Q791.74,364.5469 793.0838,364.5469 Q793.7088,364.5469 794.3025,364.2813 Q794.8963,364 795.5213,363.4219 L795.5213,366.1406 Z " fill="#000000"/><text fill="#000000" font-family="sans-serif" font-size="14" lengthAdjust="spacing" textLength="44" x="806.5525" y="365.3467">Scope</text><line style="stroke:#181818;stroke-width:0.5;" x1="778.5525" x2="852.5525" y1="376.5" y2="376.5"/><line style="stroke:#181818;stroke-width:0.5;" x1="778.5525" x2="852.5525" y1="384.5" y2="384.5"/></g><!--entity constants--><g id="elem_constants"><rect fill="#F1F1F1" height="36.2969" rx="2.5" ry="2.5" style="stroke:#181818;stroke-width:0.5;" width="89" x="75.0525" y="350.5"/><text fill="#000000" font-family="sans-serif" font-size="14" lengthAdjust="spacing" textLength="69" x="85.0525" y="373.4951">constants</text></g><g id="elem_coordinateslookup_items"><rect fill="#F1F1F1" height="126.0781" style="stroke:#181818;stroke-width:0.5;" width="188" x="533.5525" y="305.5"/><text fill="#000000" font-family="sans-serif" font-size="14" lengthAdjust="spacing" textLength="174" x="540.5525" y="320.4951">coordinateslookup_items</text><line style="stroke:#181818;stroke-width:0.5;" x1="534.5525" x2="720.5525" y1="325.7969" y2="325.7969"/><ellipse cx="544.5525" cy="339.4453" fill="none" rx="3" ry="3" style="stroke:#038048;stroke-width:1.0;"/><text fill="#000000" font-family="sans-serif" font-size="14" lengthAdjust="spacing" textLength="68" x="553.5525" y="342.792">Equatorial</text><ellipse cx="544.5525" cy="355.7422" fill="none" rx="3" ry="3" style="stroke:#038048;stroke-width:1.0;"/><text fill="#000000" font-family="sans-serif" font-size="14" lengthAdjust="spacing" textLength="54" x="553.5525" y="359.0889">Galactic</text><ellipse cx="544.5525" cy="372.0391" fill="#84BE84" rx="3" ry="3" style="stroke:#038048;stroke-width:1.0;"/><text fill="#000000" font-family="sans-serif" font-size="14" lengthAdjust="spacing" textLength="98" x="553.5525" y="375.3857">round_coord()</text><ellipse cx="544.5525" cy="388.3359" fill="#84BE84" rx="3" ry="3" style="stroke:#038048;stroke-width:1.0;"/><text fill="#000000" font-family="sans-serif" font-size="14" lengthAdjust="spacing" textLength="149" x="553.5525" y="391.6826">convert_ra_dec_deg()</text><ellipse cx="544.5525" cy="404.6328" fill="#84BE84" rx="3" ry="3" style="stroke:#038048;stroke-width:1.0;"/><text fill="#000000" font-family="sans-serif" font-size="14" lengthAdjust="spacing" textLength="142" x="553.5525" y="407.9795">convert_to_galactic()</text><ellipse cx="544.5525" cy="420.9297" fill="#84BE84" rx="3" ry="3" style="stroke:#038048;stroke-width:1.0;"/><text fill="#000000" font-family="sans-serif" font-size="14" lengthAdjust="spacing" textLength="122" x="553.5525" y="424.2764">get_coordinates()</text></g><g id="elem_error_handling_items"><rect fill="#F1F1F1" height="191.2656" style="stroke:#181818;stroke-width:0.5;" width="278" x="199.5525" y="273"/><text fill="#000000" font-family="sans-serif" font-size="14" lengthAdjust="spacing" textLength="144" x="266.5525" y="287.9951">error_handling_items</text><line style="stroke:#181818;stroke-width:0.5;" x1="200.5525" x2="476.5525" y1="293.2969" y2="293.2969"/><ellipse cx="210.5525" cy="306.9453" fill="#84BE84" rx="3" ry="3" style="stroke:#038048;stroke-width:1.0;"/><text fill="#000000" font-family="sans-serif" font-size="14" lengthAdjust="spacing" textLength="95" x="219.5525" y="310.292">error_details()</text><ellipse cx="210.5525" cy="323.2422" fill="none" rx="3" ry="3" style="stroke:#038048;stroke-width:1.0;"/><text fill="#000000" font-family="sans-serif" font-size="14" lengthAdjust="spacing" textLength="119" x="219.5525" y="326.5889">BadRequestError</text><ellipse cx="210.5525" cy="339.5391" fill="none" rx="3" ry="3" style="stroke:#038048;stroke-width:1.0;"/><text fill="#000000" font-family="sans-serif" font-size="14" lengthAdjust="spacing" textLength="98" x="219.5525" y="342.8857">DuplicateError</text><ellipse cx="210.5525" cy="355.8359" fill="none" rx="3" ry="3" style="stroke:#038048;stroke-width:1.0;"/><text fill="#000000" font-family="sans-serif" font-size="14" lengthAdjust="spacing" textLength="175" x="219.5525" y="359.1826">UnprocessableEntityError</text><ellipse cx="210.5525" cy="372.1328" fill="none" rx="3" ry="3" style="stroke:#038048;stroke-width:1.0;"/><text fill="#000000" font-family="sans-serif" font-size="14" lengthAdjust="spacing" textLength="101" x="219.5525" y="375.4795">NotFoundError</text><ellipse cx="210.5525" cy="388.4297" fill="#84BE84" rx="3" ry="3" style="stroke:#038048;stroke-width:1.0;"/><text fill="#000000" font-family="sans-serif" font-size="14" lengthAdjust="spacing" textLength="128" x="219.5525" y="391.7764">_make_response()</text><ellipse cx="210.5525" cy="404.7266" fill="#84BE84" rx="3" ry="3" style="stroke:#038048;stroke-width:1.0;"/><text fill="#000000" font-family="sans-serif" font-size="14" lengthAdjust="spacing" textLength="172" x="219.5525" y="408.0732">oda_not_found_handler()</text><ellipse cx="210.5525" cy="421.0234" fill="#84BE84" rx="3" ry="3" style="stroke:#038048;stroke-width:1.0;"/><text fill="#000000" font-family="sans-serif" font-size="14" lengthAdjust="spacing" textLength="135" x="219.5525" y="424.3701">oda_error_handler()</text><ellipse cx="210.5525" cy="437.3203" fill="#84BE84" rx="3" ry="3" style="stroke:#038048;stroke-width:1.0;"/><text fill="#000000" font-family="sans-serif" font-size="14" lengthAdjust="spacing" textLength="226" x="219.5525" y="440.667">oda_unique_constraint_handler()</text><ellipse cx="210.5525" cy="453.6172" fill="#84BE84" rx="3" ry="3" style="stroke:#038048;stroke-width:1.0;"/><text fill="#000000" font-family="sans-serif" font-size="14" lengthAdjust="spacing" textLength="252" x="219.5525" y="456.9639">dangerous_internal_server_handler()</text></g><g id="elem_model_items"><rect fill="#F1F1F1" height="93.4844" style="stroke:#181818;stroke-width:0.5;" width="202" x="1770.5525" y="322"/><text fill="#000000" font-family="sans-serif" font-size="14" lengthAdjust="spacing" textLength="88" x="1827.5525" y="336.9951">model_items</text><line style="stroke:#181818;stroke-width:0.5;" x1="1771.5525" x2="1971.5525" y1="342.2969" y2="342.2969"/><ellipse cx="1781.5525" cy="355.9453" fill="none" rx="3" ry="3" style="stroke:#038048;stroke-width:1.0;"/><text fill="#000000" font-family="sans-serif" font-size="14" lengthAdjust="spacing" textLength="69" x="1790.5525" y="359.292">AppModel</text><ellipse cx="1781.5525" cy="372.2422" fill="none" rx="3" ry="3" style="stroke:#038048;stroke-width:1.0;"/><text fill="#000000" font-family="sans-serif" font-size="14" lengthAdjust="spacing" textLength="137" x="1790.5525" y="375.5889">ValidationResponse</text><ellipse cx="1781.5525" cy="388.5391" fill="none" rx="3" ry="3" style="stroke:#038048;stroke-width:1.0;"/><text fill="#000000" font-family="sans-serif" font-size="14" lengthAdjust="spacing" textLength="176" x="1790.5525" y="391.8857">ErrorResponseTraceback</text><ellipse cx="1781.5525" cy="404.8359" fill="none" rx="3" ry="3" style="stroke:#038048;stroke-width:1.0;"/><text fill="#000000" font-family="sans-serif" font-size="14" lengthAdjust="spacing" textLength="80" x="1790.5525" y="408.1826">ErrorDetails</text></g><g id="elem_models"><rect fill="#F1F1F1" height="272.75" style="stroke:#181818;stroke-width:0.5;" width="173" x="1562.0525" y="232"/><text fill="#000000" font-family="sans-serif" font-size="14" lengthAdjust="spacing" textLength="51" x="1623.0525" y="246.9951">models</text><line style="stroke:#181818;stroke-width:0.5;" x1="1563.0525" x2="1734.0525" y1="252.2969" y2="252.2969"/><text fill="#000000" font-family="sans-serif" font-size="14" lengthAdjust="spacing" textLength="105" x="1568.0525" y="269.292">EmailRequest()</text><text fill="#000000" font-family="sans-serif" font-size="14" lengthAdjust="spacing" textLength="124" x="1568.0525" y="285.5889">CycleInformation()</text><text fill="#000000" font-family="sans-serif" font-size="14" lengthAdjust="spacing" textLength="99" x="1568.0525" y="301.8857">CyclePolicies()</text><text fill="#000000" font-family="sans-serif" font-size="14" lengthAdjust="spacing" textLength="161" x="1568.0525" y="318.1826">TelescopeCapabilities()</text><text fill="#000000" font-family="sans-serif" font-size="14" lengthAdjust="spacing" textLength="132" x="1568.0525" y="334.4795">ObservatoryPolicy()</text><text fill="#000000" font-family="sans-serif" font-size="14" lengthAdjust="spacing" textLength="147" x="1568.0525" y="350.7764">ReceiverInformation()</text><text fill="#000000" font-family="sans-serif" font-size="14" lengthAdjust="spacing" textLength="149" x="1568.0525" y="367.0732">BasicCapabilitiesMid()</text><text fill="#000000" font-family="sans-serif" font-size="14" lengthAdjust="spacing" textLength="70" x="1568.0525" y="383.3701">AA2_MID()</text><text fill="#000000" font-family="sans-serif" font-size="14" lengthAdjust="spacing" textLength="34" x="1568.0525" y="399.667">Mid()</text><text fill="#000000" font-family="sans-serif" font-size="14" lengthAdjust="spacing" textLength="152" x="1568.0525" y="415.9639">BasicCapabilitiesLow()</text><text fill="#000000" font-family="sans-serif" font-size="14" lengthAdjust="spacing" textLength="75" x="1568.0525" y="432.2607">AA2_LOW()</text><text fill="#000000" font-family="sans-serif" font-size="14" lengthAdjust="spacing" textLength="37" x="1568.0525" y="448.5576">Low()</text><text fill="#000000" font-family="sans-serif" font-size="14" lengthAdjust="spacing" textLength="88" x="1568.0525" y="464.8545">Capabilities()</text><text fill="#000000" font-family="sans-serif" font-size="14" lengthAdjust="spacing" textLength="112" x="1568.0525" y="481.1514">OsdDataModel()</text><text fill="#000000" font-family="sans-serif" font-size="14" lengthAdjust="spacing" textLength="117" x="1568.0525" y="497.4482">ProposalReport()</text></g><g id="elem_osdmapper_items"><rect fill="#F1F1F1" height="158.6719" style="stroke:#181818;stroke-width:0.5;" width="271" x="1234.0525" y="289"/><text fill="#000000" font-family="sans-serif" font-size="14" lengthAdjust="spacing" textLength="124" x="1307.5525" y="303.9951">osdmapper_items</text><line style="stroke:#181818;stroke-width:0.5;" x1="1235.0525" x2="1504.0525" y1="309.2969" y2="309.2969"/><ellipse cx="1245.0525" cy="322.9453" fill="none" rx="3" ry="3" style="stroke:#038048;stroke-width:1.0;"/><text fill="#000000" font-family="sans-serif" font-size="14" lengthAdjust="spacing" textLength="109" x="1254.0525" y="326.292">FrequencyBand</text><ellipse cx="1245.0525" cy="339.2422" fill="none" rx="3" ry="3" style="stroke:#038048;stroke-width:1.0;"/><text fill="#000000" font-family="sans-serif" font-size="14" lengthAdjust="spacing" textLength="60" x="1254.0525" y="342.5889">Subarray</text><ellipse cx="1245.0525" cy="355.5391" fill="none" rx="3" ry="3" style="stroke:#038048;stroke-width:1.0;"/><text fill="#000000" font-family="sans-serif" font-size="14" lengthAdjust="spacing" textLength="116" x="1254.0525" y="358.8857">MidConfiguration</text><ellipse cx="1245.0525" cy="371.8359" fill="none" rx="3" ry="3" style="stroke:#038048;stroke-width:1.0;"/><text fill="#000000" font-family="sans-serif" font-size="14" lengthAdjust="spacing" textLength="119" x="1254.0525" y="375.1826">LowConfiguration</text><ellipse cx="1245.0525" cy="388.1328" fill="none" rx="3" ry="3" style="stroke:#038048;stroke-width:1.0;"/><text fill="#000000" font-family="sans-serif" font-size="14" lengthAdjust="spacing" textLength="92" x="1254.0525" y="391.4795">Configuration</text><ellipse cx="1245.0525" cy="404.4297" fill="#84BE84" rx="3" ry="3" style="stroke:#038048;stroke-width:1.0;"/><text fill="#000000" font-family="sans-serif" font-size="14" lengthAdjust="spacing" textLength="171" x="1254.0525" y="407.7764">configuration_from_osd()</text><ellipse cx="1245.0525" cy="420.7266" fill="#84BE84" rx="3" ry="3" style="stroke:#038048;stroke-width:1.0;"/><text fill="#000000" font-family="sans-serif" font-size="14" lengthAdjust="spacing" textLength="245" x="1254.0525" y="424.0732">_get_mid_telescope_configuration()</text><ellipse cx="1245.0525" cy="437.0234" fill="#84BE84" rx="3" ry="3" style="stroke:#038048;stroke-width:1.0;"/><text fill="#000000" font-family="sans-serif" font-size="14" lengthAdjust="spacing" textLength="243" x="1254.0525" y="440.3701">_get_low_telescope_configuration()</text></g><g id="elem_odt_note"><path d="M946.0525,636 L946.0525,661.1328 L1197.0525,661.1328 L1197.0525,646 L1187.0525,636 L946.0525,636 " fill="#FEFFDD" style="stroke:#181818;stroke-width:0.5;"/><path d="M1187.0525,636 L1187.0525,646 L1197.0525,646 L1187.0525,636 " fill="#FEFFDD" style="stroke:#181818;stroke-width:1.0;"/><text fill="#000000" font-family="sans-serif" font-size="13" lengthAdjust="spacing" textLength="230" x="952.0525" y="653.0669">"ODT section minimised in this view"</text></g><g id="elem_panel_decision_endpoints"><rect fill="#F1F1F1" height="93.4844" style="stroke:#181818;stroke-width:0.5;" width="230" x="1345.5525" y="927.5"/><text fill="#000000" font-family="sans-serif" font-size="14" lengthAdjust="spacing" textLength="180" x="1370.5525" y="942.4951">panel_decision_endpoints</text><line style="stroke:#181818;stroke-width:0.5;" x1="1346.5525" x2="1574.5525" y1="947.7969" y2="947.7969"/><ellipse cx="1356.5525" cy="961.4453" fill="none" rx="3" ry="3" style="stroke:#038048;stroke-width:1.0;"/><text fill="#000000" font-family="sans-serif" font-size="14" lengthAdjust="spacing" textLength="154" x="1365.5525" y="964.792">create_panel_decision</text><ellipse cx="1356.5525" cy="977.7422" fill="none" rx="3" ry="3" style="stroke:#038048;stroke-width:1.0;"/><text fill="#000000" font-family="sans-serif" font-size="14" lengthAdjust="spacing" textLength="133" x="1365.5525" y="981.0889">get_panel_decision</text><ellipse cx="1356.5525" cy="994.0391" fill="none" rx="3" ry="3" style="stroke:#038048;stroke-width:1.0;"/><text fill="#000000" font-family="sans-serif" font-size="14" lengthAdjust="spacing" textLength="204" x="1365.5525" y="997.3857">get_panel_decisions_for_user</text><ellipse cx="1356.5525" cy="1010.3359" fill="none" rx="3" ry="3" style="stroke:#038048;stroke-width:1.0;"/><text fill="#000000" font-family="sans-serif" font-size="14" lengthAdjust="spacing" textLength="159" x="1365.5525" y="1013.6826">update_panel_decision</text></g><g id="elem_panels_endpoints"><rect fill="#F1F1F1" height="77.1875" style="stroke:#181818;stroke-width:0.5;" width="165" x="1124.0525" y="935.5"/><text fill="#000000" font-family="sans-serif" font-size="14" lengthAdjust="spacing" textLength="123" x="1145.0525" y="950.4951">panels_endpoints</text><line style="stroke:#181818;stroke-width:0.5;" x1="1125.0525" x2="1288.0525" y1="955.7969" y2="955.7969"/><ellipse cx="1135.0525" cy="969.4453" fill="none" rx="3" ry="3" style="stroke:#038048;stroke-width:1.0;"/><text fill="#000000" font-family="sans-serif" font-size="14" lengthAdjust="spacing" textLength="89" x="1144.0525" y="972.792">create_panel</text><ellipse cx="1135.0525" cy="985.7422" fill="none" rx="3" ry="3" style="stroke:#038048;stroke-width:1.0;"/><text fill="#000000" font-family="sans-serif" font-size="14" lengthAdjust="spacing" textLength="68" x="1144.0525" y="989.0889">get_panel</text><ellipse cx="1135.0525" cy="1002.0391" fill="none" rx="3" ry="3" style="stroke:#038048;stroke-width:1.0;"/><text fill="#000000" font-family="sans-serif" font-size="14" lengthAdjust="spacing" textLength="139" x="1144.0525" y="1005.3857">get_panels_for_user</text></g><g id="elem_prsls_endpoints"><rect fill="#F1F1F1" height="240.1563" style="stroke:#181818;stroke-width:0.5;" width="200" x="1821.5525" y="854"/><text fill="#000000" font-family="sans-serif" font-size="14" lengthAdjust="spacing" textLength="110" x="1866.5525" y="868.9951">prsls_endpoints</text><line style="stroke:#181818;stroke-width:0.5;" x1="1822.5525" x2="2020.5525" y1="874.2969" y2="874.2969"/><ellipse cx="1832.5525" cy="887.9453" fill="none" rx="3" ry="3" style="stroke:#038048;stroke-width:1.0;"/><text fill="#000000" font-family="sans-serif" font-size="14" lengthAdjust="spacing" textLength="121" x="1841.5525" y="891.292">get_osd_by_cycle</text><ellipse cx="1832.5525" cy="904.2422" fill="none" rx="3" ry="3" style="stroke:#038048;stroke-width:1.0;"/><text fill="#000000" font-family="sans-serif" font-size="14" lengthAdjust="spacing" textLength="111" x="1841.5525" y="907.5889">create_proposal</text><ellipse cx="1832.5525" cy="920.5391" fill="none" rx="3" ry="3" style="stroke:#038048;stroke-width:1.0;"/><text fill="#000000" font-family="sans-serif" font-size="14" lengthAdjust="spacing" textLength="90" x="1841.5525" y="923.8857">get_proposal</text><ellipse cx="1832.5525" cy="936.8359" fill="none" rx="3" ry="3" style="stroke:#038048;stroke-width:1.0;"/><text fill="#000000" font-family="sans-serif" font-size="14" lengthAdjust="spacing" textLength="144" x="1841.5525" y="940.1826">get_proposals_batch</text><ellipse cx="1832.5525" cy="953.1328" fill="none" rx="3" ry="3" style="stroke:#038048;stroke-width:1.0;"/><text fill="#000000" font-family="sans-serif" font-size="14" lengthAdjust="spacing" textLength="171" x="1841.5525" y="956.4795">get_proposals_by_status</text><ellipse cx="1832.5525" cy="969.4297" fill="none" rx="3" ry="3" style="stroke:#038048;stroke-width:1.0;"/><text fill="#000000" font-family="sans-serif" font-size="14" lengthAdjust="spacing" textLength="174" x="1841.5525" y="972.7764">get_reviews_for_proposal</text><ellipse cx="1832.5525" cy="985.7266" fill="none" rx="3" ry="3" style="stroke:#038048;stroke-width:1.0;"/><text fill="#000000" font-family="sans-serif" font-size="14" lengthAdjust="spacing" textLength="161" x="1841.5525" y="989.0732">get_proposals_for_user</text><ellipse cx="1832.5525" cy="1002.0234" fill="none" rx="3" ry="3" style="stroke:#038048;stroke-width:1.0;"/><text fill="#000000" font-family="sans-serif" font-size="14" lengthAdjust="spacing" textLength="116" x="1841.5525" y="1005.3701">update_proposal</text><ellipse cx="1832.5525" cy="1018.3203" fill="none" rx="3" ry="3" style="stroke:#038048;stroke-width:1.0;"/><text fill="#000000" font-family="sans-serif" font-size="14" lengthAdjust="spacing" textLength="119" x="1841.5525" y="1021.667">validate_proposal</text><ellipse cx="1832.5525" cy="1034.6172" fill="none" rx="3" ry="3" style="stroke:#038048;stroke-width:1.0;"/><text fill="#000000" font-family="sans-serif" font-size="14" lengthAdjust="spacing" textLength="78" x="1841.5525" y="1037.9639">send_email</text><ellipse cx="1832.5525" cy="1050.9141" fill="none" rx="3" ry="3" style="stroke:#038048;stroke-width:1.0;"/><text fill="#000000" font-family="sans-serif" font-size="14" lengthAdjust="spacing" textLength="151" x="1841.5525" y="1054.2607">create_upload_pdf_url</text><ellipse cx="1832.5525" cy="1067.2109" fill="none" rx="3" ry="3" style="stroke:#038048;stroke-width:1.0;"/><text fill="#000000" font-family="sans-serif" font-size="14" lengthAdjust="spacing" textLength="171" x="1841.5525" y="1070.5576">create_download_pdf_url</text><ellipse cx="1832.5525" cy="1083.5078" fill="none" rx="3" ry="3" style="stroke:#038048;stroke-width:1.0;"/><text fill="#000000" font-family="sans-serif" font-size="14" lengthAdjust="spacing" textLength="148" x="1841.5525" y="1086.8545">create_delete_pdf_url</text></g><g id="elem_report_endpoints"><rect fill="#F1F1F1" height="44.5938" style="stroke:#181818;stroke-width:0.5;" width="133" x="1632.0525" y="951.5"/><text fill="#000000" font-family="sans-serif" font-size="14" lengthAdjust="spacing" textLength="119" x="1639.0525" y="966.4951">report_endpoints</text><line style="stroke:#181818;stroke-width:0.5;" x1="1633.0525" x2="1764.0525" y1="971.7969" y2="971.7969"/><ellipse cx="1643.0525" cy="985.4453" fill="none" rx="3" ry="3" style="stroke:#038048;stroke-width:1.0;"/><text fill="#000000" font-family="sans-serif" font-size="14" lengthAdjust="spacing" textLength="72" x="1652.0525" y="988.792">get_report</text></g><g id="elem_reviewers_endpoints"><rect fill="#F1F1F1" height="44.5938" style="stroke:#181818;stroke-width:0.5;" width="157" x="2306.0525" y="951.5"/><text fill="#000000" font-family="sans-serif" font-size="14" lengthAdjust="spacing" textLength="143" x="2313.0525" y="966.4951">reviewers_endpoints</text><line style="stroke:#181818;stroke-width:0.5;" x1="2307.0525" x2="2462.0525" y1="971.7969" y2="971.7969"/><ellipse cx="2317.0525" cy="985.4453" fill="none" rx="3" ry="3" style="stroke:#038048;stroke-width:1.0;"/><text fill="#000000" font-family="sans-serif" font-size="14" lengthAdjust="spacing" textLength="96" x="2326.0525" y="988.792">get_reviewers</text></g><g id="elem_reviews_endpoints"><rect fill="#F1F1F1" height="93.4844" style="stroke:#181818;stroke-width:0.5;" width="171" x="2078.0525" y="927.5"/><text fill="#000000" font-family="sans-serif" font-size="14" lengthAdjust="spacing" textLength="129" x="2099.0525" y="942.4951">reviews_endpoints</text><line style="stroke:#181818;stroke-width:0.5;" x1="2079.0525" x2="2248.0525" y1="947.7969" y2="947.7969"/><ellipse cx="2089.0525" cy="961.4453" fill="none" rx="3" ry="3" style="stroke:#038048;stroke-width:1.0;"/><text fill="#000000" font-family="sans-serif" font-size="14" lengthAdjust="spacing" textLength="95" x="2098.0525" y="964.792">create_review</text><ellipse cx="2089.0525" cy="977.7422" fill="none" rx="3" ry="3" style="stroke:#038048;stroke-width:1.0;"/><text fill="#000000" font-family="sans-serif" font-size="14" lengthAdjust="spacing" textLength="74" x="2098.0525" y="981.0889">get_review</text><ellipse cx="2089.0525" cy="994.0391" fill="none" rx="3" ry="3" style="stroke:#038048;stroke-width:1.0;"/><text fill="#000000" font-family="sans-serif" font-size="14" lengthAdjust="spacing" textLength="145" x="2098.0525" y="997.3857">get_reviews_for_user</text><ellipse cx="2089.0525" cy="1010.3359" fill="none" rx="3" ry="3" style="stroke:#038048;stroke-width:1.0;"/><text fill="#000000" font-family="sans-serif" font-size="14" lengthAdjust="spacing" textLength="100" x="2098.0525" y="1013.6826">update_review</text></g><!--entity utils.constants--><g id="elem_utils.constants"><rect fill="#F1F1F1" height="36.2969" rx="2.5" ry="2.5" style="stroke:#181818;stroke-width:0.5;" width="121" x="946.0525" y="956"/><text fill="#000000" font-family="sans-serif" font-size="14" lengthAdjust="spacing" textLength="101" x="956.0525" y="978.9951">utils.constants</text></g><g id="elem_email_helper_items"><rect fill="#F1F1F1" height="60.8906" style="stroke:#181818;stroke-width:0.5;" width="161" x="2920.0525" y="943.5"/><text fill="#000000" font-family="sans-serif" font-size="14" lengthAdjust="spacing" textLength="132" x="2934.5525" y="958.4951">email_helper_items</text><line style="stroke:#181818;stroke-width:0.5;" x1="2921.0525" x2="3080.0525" y1="963.7969" y2="963.7969"/><ellipse cx="2931.0525" cy="977.4453" fill="#84BE84" rx="3" ry="3" style="stroke:#038048;stroke-width:1.0;"/><text fill="#000000" font-family="sans-serif" font-size="14" lengthAdjust="spacing" textLength="99" x="2940.0525" y="980.792">render_email()</text><ellipse cx="2931.0525" cy="993.7422" fill="#84BE84" rx="3" ry="3" style="stroke:#038048;stroke-width:1.0;"/><text fill="#000000" font-family="sans-serif" font-size="14" lengthAdjust="spacing" textLength="135" x="2940.0525" y="997.0889">send_email_async()</text></g><g id="elem_pht_handler_items"><rect fill="#F1F1F1" height="93.4844" style="stroke:#181818;stroke-width:0.5;" width="320" x="2543.5525" y="927.5"/><text fill="#000000" font-family="sans-serif" font-size="14" lengthAdjust="spacing" textLength="127" x="2640.0525" y="942.4951">pht_handler_items</text><line style="stroke:#181818;stroke-width:0.5;" x1="2544.5525" x2="2862.5525" y1="947.7969" y2="947.7969"/><ellipse cx="2554.5525" cy="961.4453" fill="#84BE84" rx="3" ry="3" style="stroke:#038048;stroke-width:1.0;"/><text fill="#000000" font-family="sans-serif" font-size="14" lengthAdjust="spacing" textLength="199" x="2563.5525" y="964.792">transform_update_proposal()</text><ellipse cx="2554.5525" cy="977.7422" fill="#84BE84" rx="3" ry="3" style="stroke:#038048;stroke-width:1.0;"/><text fill="#000000" font-family="sans-serif" font-size="14" lengthAdjust="spacing" textLength="165" x="2563.5525" y="981.0889">get_latest_entity_by_id()</text><ellipse cx="2554.5525" cy="994.0391" fill="#84BE84" rx="3" ry="3" style="stroke:#038048;stroke-width:1.0;"/><text fill="#000000" font-family="sans-serif" font-size="14" lengthAdjust="spacing" textLength="122" x="2563.5525" y="997.3857">_get_array_class()</text><ellipse cx="2554.5525" cy="1010.3359" fill="#84BE84" rx="3" ry="3" style="stroke:#038048;stroke-width:1.0;"/><text fill="#000000" font-family="sans-serif" font-size="14" lengthAdjust="spacing" textLength="294" x="2563.5525" y="1013.6826">join_proposals_panels_reviews_decisions()</text></g><g id="elem_s3_bucket_items"><rect fill="#F1F1F1" height="142.375" style="stroke:#181818;stroke-width:0.5;" width="284" x="3359.5525" y="903"/><text fill="#000000" font-family="sans-serif" font-size="14" lengthAdjust="spacing" textLength="117" x="3443.0525" y="917.9951">s3_bucket_items</text><line style="stroke:#181818;stroke-width:0.5;" x1="3360.5525" x2="3642.5525" y1="923.2969" y2="923.2969"/><text fill="#000000" font-family="sans-serif" font-size="14" lengthAdjust="spacing" textLength="71" x="3379.5525" y="940.292">S3Method</text><text fill="#000000" font-family="sans-serif" font-size="14" lengthAdjust="spacing" textLength="62" x="3379.5525" y="956.5889">S3Config</text><ellipse cx="3370.5525" cy="969.5391" fill="#84BE84" rx="3" ry="3" style="stroke:#038048;stroke-width:1.0;"/><text fill="#000000" font-family="sans-serif" font-size="14" lengthAdjust="spacing" textLength="111" x="3379.5525" y="972.8857">get_aws_client()</text><ellipse cx="3370.5525" cy="985.8359" fill="#84BE84" rx="3" ry="3" style="stroke:#038048;stroke-width:1.0;"/><text fill="#000000" font-family="sans-serif" font-size="14" lengthAdjust="spacing" textLength="174" x="3379.5525" y="989.1826">generate_presigned_url()</text><ellipse cx="3370.5525" cy="1002.1328" fill="#84BE84" rx="3" ry="3" style="stroke:#038048;stroke-width:1.0;"/><text fill="#000000" font-family="sans-serif" font-size="14" lengthAdjust="spacing" textLength="238" x="3379.5525" y="1005.4795">create_presigned_url_upload_pdf()</text><ellipse cx="3370.5525" cy="1018.4297" fill="#84BE84" rx="3" ry="3" style="stroke:#038048;stroke-width:1.0;"/><text fill="#000000" font-family="sans-serif" font-size="14" lengthAdjust="spacing" textLength="258" x="3379.5525" y="1021.7764">create_presigned_url_download_pdf()</text><ellipse cx="3370.5525" cy="1034.7266" fill="#84BE84" rx="3" ry="3" style="stroke:#038048;stroke-width:1.0;"/><text fill="#000000" font-family="sans-serif" font-size="14" lengthAdjust="spacing" textLength="235" x="3379.5525" y="1038.0732">create_presigned_url_delete_pdf()</text></g><g id="elem_validation_items"><rect fill="#F1F1F1" height="60.8906" style="stroke:#181818;stroke-width:0.5;" width="166" x="3137.5525" y="943.5"/><text fill="#000000" font-family="sans-serif" font-size="14" lengthAdjust="spacing" textLength="109" x="3166.0525" y="958.4951">validation_items</text><line style="stroke:#181818;stroke-width:0.5;" x1="3138.5525" x2="3302.5525" y1="963.7969" y2="963.7969"/><ellipse cx="3148.5525" cy="977.4453" fill="#84BE84" rx="3" ry="3" style="stroke:#038048;stroke-width:1.0;"/><text fill="#000000" font-family="sans-serif" font-size="14" lengthAdjust="spacing" textLength="129" x="3157.5525" y="980.792">validate_proposal()</text><ellipse cx="3148.5525" cy="993.7422" fill="#84BE84" rx="3" ry="3" style="stroke:#038048;stroke-width:1.0;"/><text fill="#000000" font-family="sans-serif" font-size="14" lengthAdjust="spacing" textLength="140" x="3157.5525" y="997.0889">validate_duplicates()</text></g><!--class create_app--><g id="elem_create_app"><rect codeLine="192" fill="#F1F1F1" height="56.2656" id="create_app" rx="2.5" ry="2.5" style="stroke:#181818;stroke-width:0.5;" width="109" x="2008.0525" y="42"/><ellipse cx="2023.0525" cy="62.1328" fill="#ADD1B2" rx="11" ry="11" style="stroke:#181818;stroke-width:1.0;"/><path d="M2026.0213,67.7734 Q2025.4431,68.0703 2024.8025,68.2109 Q2024.1619,68.3672 2023.4588,68.3672 Q2020.9588,68.3672 2019.6306,66.7266 Q2018.3181,65.0703 2018.3181,61.9453 Q2018.3181,58.8203 2019.6306,57.1641 Q2020.9588,55.5078 2023.4588,55.5078 Q2024.1619,55.5078 2024.8025,55.6641 Q2025.4588,55.8203 2026.0213,56.1172 L2026.0213,58.8359 Q2025.3963,58.2578 2024.8025,57.9922 Q2024.2088,57.7109 2023.5838,57.7109 Q2022.24,57.7109 2021.5525,58.7891 Q2020.865,59.8516 2020.865,61.9453 Q2020.865,64.0391 2021.5525,65.1172 Q2022.24,66.1797 2023.5838,66.1797 Q2024.2088,66.1797 2024.8025,65.9141 Q2025.3963,65.6328 2026.0213,65.0547 L2026.0213,67.7734 Z " fill="#000000"/><text fill="#000000" font-family="sans-serif" font-size="12" font-style="italic" lengthAdjust="spacing" textLength="65" x="2043.0525" y="58.1387">«function»</text><text fill="#000000" font-family="sans-serif" font-size="14" lengthAdjust="spacing" textLength="77" x="2037.0525" y="73.9639">create_app</text><line style="stroke:#181818;stroke-width:0.5;" x1="2009.0525" x2="2116.0525" y1="82.2656" y2="82.2656"/><line style="stroke:#181818;stroke-width:0.5;" x1="2009.0525" x2="2116.0525" y1="90.2656" y2="90.2656"/></g><!--link common_pkg to odt_pkg--><!--link common_pkg to odt_pkg--><!--link odt_pkg to pht_pkg--><!--link odt_pkg to pht_pkg--><!--reverse link create_app to common_pkg--><g id="link_create_app_common_pkg"><path codeLine="196" d="M2002.7525,71.67 C1673.5525,75.52 95.7525,95.73 59.5525,130 C21.6925,165.845 16.255,223.94 20.4963,273.6988 C22.6169,298.5781 27.1572,321.3734 31.2742,338.2614 C31.3385,338.5253 31.4028,338.7877 31.4669,339.0487 " fill="none" id="create_app-backto-common_pkg" style="stroke:#181818;stroke-width:1.0;"/><polygon fill="#181818" points="2007.9725,71.61,1998.9274,67.7131,2002.9728,71.6671,1999.0188,75.7126,2007.9725,71.61" style="stroke:#181818;stroke-width:1.0;"/></g><!--reverse link create_app to odt_pkg--><g id="link_create_app_odt_pkg"><path codeLine="197" d="M2069.9125,103.02 C2088.4925,192.96 2126.4725,449.15 1988.5525,569 C1966.3525,588.3 952.8325,559.02 929.5525,577 C926.4425,579.4013 923.807,582.2547 921.5768,585.4156 C920.4617,586.996 919.4478,588.6533 918.5266,590.3694 C918.0661,591.2275 917.6286,592.1002 917.2133,592.9854 " fill="none" id="create_app-backto-odt_pkg" style="stroke:#181818;stroke-width:1.0;"/><polygon fill="#181818" points="2068.8825,98.09,2066.8224,107.721,2069.9126,102.9827,2074.6508,106.0729,2068.8825,98.09" style="stroke:#181818;stroke-width:1.0;"/></g><!--reverse link create_app to pht_pkg--><g id="link_create_app_pht_pkg"><path codeLine="198" d="M2075.1625,102.78 C2107.2425,189.45 2181.4625,432.56 2064.5525,569 C1940.0325,714.32 1404.1325,683.6 1213.5525,701 C1197.8325,702.43 940.9525,698.09 929.5525,709 C887.7275,749.035 882.4725,813.615 887.92,868.88 C890.6438,896.5125 896.0431,921.8163 900.8847,940.5588 C901.1873,941.7302 901.4877,942.8759 901.7852,943.995 C901.9339,944.5546 902.0819,945.1075 902.229,945.6536 C902.3026,945.9266 902.3759,946.198 902.4491,946.4676 " fill="none" id="create_app-backto-pht_pkg" style="stroke:#181818;stroke-width:1.0;"/><polygon fill="#181818" points="2073.3925,98.03,2072.8172,107.862,2075.1528,102.7099,2080.305,105.0455,2073.3925,98.03" style="stroke:#181818;stroke-width:1.0;"/></g><!--SRC=[dLXDR-Cs4BtxLn0vjIYIG_SQ64ZYf5XWqooIj3qi2e8cnpOt4iabgGH6aV_U8INPiaHAoXf8970UoPd7uNp8QqEy9cljlIw9a1Qubrej5eRn5xO5SiPrMMfrHfWZzIirBrlotuAG0uGPUS6rja8gvi6TaSlBHro7gMq1osN4rZ-z_exZf8EbqaFfEf3m-uqymWOiA0vtbfNG4zx-g9ZNLhBY4PpHolK1Vx22eHay8zw2fsxlSEEE8fUNe8JHKldbye1_NzJ_u-DeRkLtUHjvmPmZJrmRICxcg15EyncQXl23YeNMBvNv2BlrZ0p7HnepzFM6hQwKe77rNtxjoT2eLx2UMaO5SFpRPY5UqsspmG0JJgQZVaUUFWcmLbkwOqeKKcqdcJc5PsYfGG8yauKRQ7ZDn2FygC3vsu3hILULAIH7rLF2lvInceDpR5t0hVBIxrEmFxM_2qodPBHaBq1juzO3vRHWL6bFD_6aefrWawWE4nb4fIIQIQEtMeRN8eiMo3UWS-1TLXwiOWLrOF6i4pFInrXg0SNawKLKvj2kZBaFujxmtwoGWeM0bWa5aUHMzcmPXpKgbGAjQeUOi4GxKJ9Zm4vQSq1cBBgpmSqKtryZYJtPKxLcrh9zR_XUYXkjDd9RsMXpJ_n5lus9nsIyAwCRgqkA-WyyWORxMqf1FHJWGWIa9pFJ4mhzDcD2o_Tx9pLfuMDUmkSXAH62Dm3QqV0U1yyULi_4rScDb5B9KZeGH2hYTzAHLmblPn68MI2kSBAHsTKRuREpKJV_vS_xk0XJwByO7gMJ8Q7c9dISv7GARJEKEmKtPsG10myzdPB01Sf_0kGmgbXQuSrEm2iZ9lP-NmpVJfbnynbnyvaOisrCbZ5tt0phvbeHaED614tmZj7rdl8zBs34JgkDTYnhpZoneslc-MuQjQTOllZAPP0MmbsgwPkzzGpNoY_rMWVvKOn3hYcK6C7pF6BkranG8pQqiYCueT_KJ2H6jQ1N0ZVgI1QCjdwM9zNGQLUgSHzH8HmZM3TJYmOzHv46-b5TFgB9l01HOqVrdE7autwRMEPzeeQeFDOP5nzi4-f9qSFf3eev5KWNd2b2i0KJA8p8GV8-tYdAt5xnHB9Eg1XIQ5CNJchOmMOKnD9KEJo5alRYHBArA49J4IvBgBr399EP6YPMLpHsSWF0TtIhJkXgiaNh4OTqEOyDzuckA_u2VfAB0pB9nDEdU_0xBNg3TKsNO8AXghoGo4I2A0MsfXASt2eG8NWDsxas-NH0dH0w3zyDfJDd74BgF89V3nt09CD7QCRP1ebceF818Tf6CDd3_dJtqzVfDjo-fX_jANCJYeRFAjoDLEqTnLyrAYcXx-FFRJ5-mmnRoqBw8UPX7NgyyFrW7rVPz-He2qZi0VCQN3CdUNU7-y5jlBhwdTv_NlL6XxZ1KjZg99Rwyl1FRtI86pFPYHNpBFQPFT7NnY4UOvPDTosTZsVdmU-_xQGGeFuzRzkN6OYsqUc9cxPaIhpeD2oPpqZrnwlcvY4AGPjAnQvfkGnMd2XPcVCbGTJ5SS9HXvImxPzImly1]--></g></svg>