<?xml version="1.0" encoding="UTF-8" standalone="no"?><svg xmlns="http://www.w3.org/2000/svg" xmlns:xlink="http://www.w3.org/1999/xlink" contentStyleType="text/css" height="747px" preserveAspectRatio="none" style="width:1741px;height:747px;background:#FFFFFF;" version="1.1" viewBox="0 0 1741 747" width="1741px" zoomAndPan="magnify"><defs/><g><!--cluster pht_pkg--><g id="cluster_pht_pkg"><path d="M8.5,6 L35.5,6 A3.75,3.75 0 0 1 38,8.5 L45,28.2969 L1731.5,28.2969 A2.5,2.5 0 0 1 1734,30.7969 L1734,737.5 A2.5,2.5 0 0 1 1731.5,740 L8.5,740 A2.5,2.5 0 0 1 6,737.5 L6,8.5 A2.5,2.5 0 0 1 8.5,6 " fill="none" style="stroke:#000000;stroke-width:1.5;"/><line style="stroke:#000000;stroke-width:1.5;" x1="6" x2="45" y1="28.2969" y2="28.2969"/><text fill="#000000" font-family="sans-serif" font-size="14" font-weight="bold" lengthAdjust="spacing" textLength="26" x="10" y="20.9951">pht</text></g><!--cluster api--><g id="cluster_api"><rect fill="none" height="358" rx="2.5" ry="2.5" style="stroke:#181818;stroke-width:1.0;" width="1680" x="30" y="49"/><text fill="#000000" font-family="sans-serif" font-size="14" font-weight="bold" lengthAdjust="spacing" textLength="23" x="858.5" y="63.9951">api</text></g><!--cluster panel_decision--><g id="cluster_panel_decision"><rect fill="none" height="144" rx="2.5" ry="2.5" style="stroke:#181818;stroke-width:1.0;" width="306" x="54" y="165.5"/><text fill="#000000" font-family="sans-serif" font-size="14" font-weight="bold" lengthAdjust="spacing" textLength="116" x="149" y="180.4951">panel_decision</text></g><!--cluster panels_management--><g id="cluster_panels_management"><rect fill="none" height="128" rx="2.5" ry="2.5" style="stroke:#181818;stroke-width:1.0;" width="240" x="384" y="173.5"/><text fill="#000000" font-family="sans-serif" font-size="14" font-weight="bold" lengthAdjust="spacing" textLength="161" x="423.5" y="188.4951">panels_management</text></g><!--cluster prsls--><g id="cluster_prsls"><rect fill="none" height="291" rx="2.5" ry="2.5" style="stroke:#181818;stroke-width:1.0;" width="366" x="648" y="92"/><text fill="#000000" font-family="sans-serif" font-size="14" font-weight="bold" lengthAdjust="spacing" textLength="39" x="811.5" y="106.9951">prsls</text></g><!--cluster report--><g id="cluster_report"><rect fill="none" height="96" rx="2.5" ry="2.5" style="stroke:#181818;stroke-width:1.0;" width="166" x="1038" y="189.5"/><text fill="#000000" font-family="sans-serif" font-size="14" font-weight="bold" lengthAdjust="spacing" textLength="50" x="1096" y="204.4951">report</text></g><!--cluster reviewers--><g id="cluster_reviewers"><rect fill="none" height="96" rx="2.5" ry="2.5" style="stroke:#181818;stroke-width:1.0;" width="190" x="1228" y="189.5"/><text fill="#000000" font-family="sans-serif" font-size="14" font-weight="bold" lengthAdjust="spacing" textLength="80" x="1283" y="204.4951">reviewers</text></g><!--cluster reviews--><g id="cluster_reviews"><rect fill="none" height="144" rx="2.5" ry="2.5" style="stroke:#181818;stroke-width:1.0;" width="244" x="1442" y="165.5"/><text fill="#000000" font-family="sans-serif" font-size="14" font-weight="bold" lengthAdjust="spacing" textLength="63" x="1532.5" y="180.4951">reviews</text></g><!--cluster utils--><g id="cluster_utils"><rect fill="none" height="260" rx="2.5" ry="2.5" style="stroke:#181818;stroke-width:1.0;" width="1463" x="30" y="456"/><text fill="#000000" font-family="sans-serif" font-size="14" font-weight="bold" lengthAdjust="spacing" textLength="33" x="745" y="470.9951">utils</text></g><!--cluster email_helper--><g id="cluster_email_helper"><rect fill="none" height="112" rx="2.5" ry="2.5" style="stroke:#181818;stroke-width:1.0;" width="194" x="54" y="539.5"/><text fill="#000000" font-family="sans-serif" font-size="14" font-weight="bold" lengthAdjust="spacing" textLength="99" x="101.5" y="554.4951">email_helper</text></g><!--cluster pht_handler--><g id="cluster_pht_handler"><rect fill="none" height="144" rx="2.5" ry="2.5" style="stroke:#181818;stroke-width:1.0;" width="352" x="1017" y="523.5"/><text fill="#000000" font-family="sans-serif" font-size="14" font-weight="bold" lengthAdjust="spacing" textLength="93" x="1146.5" y="538.4951">pht_handler</text></g><!--cluster s3_bucket--><g id="cluster_s3_bucket"><rect fill="none" height="193" rx="2.5" ry="2.5" style="stroke:#181818;stroke-width:1.0;" width="316" x="677" y="499"/><text fill="#000000" font-family="sans-serif" font-size="14" font-weight="bold" lengthAdjust="spacing" textLength="80" x="795" y="513.9951">s3_bucket</text></g><!--cluster validation--><g id="cluster_validation"><rect fill="none" height="107" rx="2.5" ry="2.5" style="stroke:#181818;stroke-width:1.0;" width="381" x="272" y="542"/><text fill="#000000" font-family="sans-serif" font-size="14" font-weight="bold" lengthAdjust="spacing" textLength="75" x="425" y="556.9951">validation</text></g><g id="elem_panel_decision_endpoints"><rect fill="#F1F1F1" height="93.4844" style="stroke:#181818;stroke-width:0.5;" width="273" x="70.5" y="200.5"/><text fill="#000000" font-family="sans-serif" font-size="14" lengthAdjust="spacing" textLength="180" x="117" y="215.4951">panel_decision_endpoints</text><line style="stroke:#181818;stroke-width:0.5;" x1="71.5" x2="342.5" y1="220.7969" y2="220.7969"/><ellipse cx="81.5" cy="234.4453" fill="none" rx="3" ry="3" style="stroke:#038048;stroke-width:1.0;"/><text fill="#000000" font-family="sans-serif" font-size="14" lengthAdjust="spacing" textLength="161" x="90.5" y="237.792">POST /panel-decisions/</text><ellipse cx="81.5" cy="250.7422" fill="none" rx="3" ry="3" style="stroke:#038048;stroke-width:1.0;"/><text fill="#000000" font-family="sans-serif" font-size="14" lengthAdjust="spacing" textLength="247" x="90.5" y="254.0889">GET /panel-decisions/{decision_id}</text><ellipse cx="81.5" cy="267.0391" fill="none" rx="3" ry="3" style="stroke:#038048;stroke-width:1.0;"/><text fill="#000000" font-family="sans-serif" font-size="14" lengthAdjust="spacing" textLength="244" x="90.5" y="270.3857">GET /panel-decisions/list/{user_id}</text><ellipse cx="81.5" cy="283.3359" fill="none" rx="3" ry="3" style="stroke:#038048;stroke-width:1.0;"/><text fill="#000000" font-family="sans-serif" font-size="14" lengthAdjust="spacing" textLength="246" x="90.5" y="286.6826">PUT /panel-decisions/{decision_id}</text></g><g id="elem_panels_endpoints"><rect fill="#F1F1F1" height="77.1875" style="stroke:#181818;stroke-width:0.5;" width="207" x="400.5" y="208.5"/><text fill="#000000" font-family="sans-serif" font-size="14" lengthAdjust="spacing" textLength="123" x="442.5" y="223.4951">panels_endpoints</text><line style="stroke:#181818;stroke-width:0.5;" x1="401.5" x2="606.5" y1="228.7969" y2="228.7969"/><ellipse cx="411.5" cy="242.4453" fill="none" rx="3" ry="3" style="stroke:#038048;stroke-width:1.0;"/><text fill="#000000" font-family="sans-serif" font-size="14" lengthAdjust="spacing" textLength="98" x="420.5" y="245.792">POST /panels/</text><ellipse cx="411.5" cy="258.7422" fill="none" rx="3" ry="3" style="stroke:#038048;stroke-width:1.0;"/><text fill="#000000" font-family="sans-serif" font-size="14" lengthAdjust="spacing" textLength="169" x="420.5" y="262.0889">GET /panels//{panel_id}</text><ellipse cx="411.5" cy="275.0391" fill="none" rx="3" ry="3" style="stroke:#038048;stroke-width:1.0;"/><text fill="#000000" font-family="sans-serif" font-size="14" lengthAdjust="spacing" textLength="181" x="420.5" y="278.3857">GET /panels/list/{user_id}</text></g><g id="elem_prsls_endpoints"><rect fill="#F1F1F1" height="240.1563" style="stroke:#181818;stroke-width:0.5;" width="333" x="664.5" y="127"/><text fill="#000000" font-family="sans-serif" font-size="14" lengthAdjust="spacing" textLength="110" x="776" y="141.9951">prsls_endpoints</text><line style="stroke:#181818;stroke-width:0.5;" x1="665.5" x2="996.5" y1="147.2969" y2="147.2969"/><ellipse cx="675.5" cy="160.9453" fill="none" rx="3" ry="3" style="stroke:#038048;stroke-width:1.0;"/><text fill="#000000" font-family="sans-serif" font-size="14" lengthAdjust="spacing" textLength="129" x="684.5" y="164.292">POST /prsls/create</text><ellipse cx="675.5" cy="177.2422" fill="none" rx="3" ry="3" style="stroke:#038048;stroke-width:1.0;"/><text fill="#000000" font-family="sans-serif" font-size="14" lengthAdjust="spacing" textLength="124" x="684.5" y="180.5889">POST /prsls/batch</text><ellipse cx="675.5" cy="193.5391" fill="none" rx="3" ry="3" style="stroke:#038048;stroke-width:1.0;"/><text fill="#000000" font-family="sans-serif" font-size="14" lengthAdjust="spacing" textLength="137" x="684.5" y="196.8857">POST /prsls/validate</text><ellipse cx="675.5" cy="209.8359" fill="none" rx="3" ry="3" style="stroke:#038048;stroke-width:1.0;"/><text fill="#000000" font-family="sans-serif" font-size="14" lengthAdjust="spacing" textLength="166" x="684.5" y="213.1826">POST /prsls/send-email/</text><ellipse cx="675.5" cy="226.1328" fill="none" rx="3" ry="3" style="stroke:#038048;stroke-width:1.0;"/><text fill="#000000" font-family="sans-serif" font-size="14" lengthAdjust="spacing" textLength="287" x="684.5" y="229.4795">POST /prsls/signed-url/upload/{filename}</text><ellipse cx="675.5" cy="242.4297" fill="none" rx="3" ry="3" style="stroke:#038048;stroke-width:1.0;"/><text fill="#000000" font-family="sans-serif" font-size="14" lengthAdjust="spacing" textLength="307" x="684.5" y="245.7764">POST /prsls/signed-url/download/{filename}</text><ellipse cx="675.5" cy="258.7266" fill="none" rx="3" ry="3" style="stroke:#038048;stroke-width:1.0;"/><text fill="#000000" font-family="sans-serif" font-size="14" lengthAdjust="spacing" textLength="284" x="684.5" y="262.0732">POST /prsls/signed-url/delete/{filename}</text><ellipse cx="675.5" cy="275.0234" fill="none" rx="3" ry="3" style="stroke:#038048;stroke-width:1.0;"/><text fill="#000000" font-family="sans-serif" font-size="14" lengthAdjust="spacing" textLength="160" x="684.5" y="278.3701">GET /prsls/osd/{cycle}</text><ellipse cx="675.5" cy="291.3203" fill="none" rx="3" ry="3" style="stroke:#038048;stroke-width:1.0;"/><text fill="#000000" font-family="sans-serif" font-size="14" lengthAdjust="spacing" textLength="173" x="684.5" y="294.667">GET /prsls/{proposal_id}</text><ellipse cx="675.5" cy="307.6172" fill="none" rx="3" ry="3" style="stroke:#038048;stroke-width:1.0;"/><text fill="#000000" font-family="sans-serif" font-size="14" lengthAdjust="spacing" textLength="185" x="684.5" y="310.9639">GET /prsls/status/{status}</text><ellipse cx="675.5" cy="323.9141" fill="none" rx="3" ry="3" style="stroke:#038048;stroke-width:1.0;"/><text fill="#000000" font-family="sans-serif" font-size="14" lengthAdjust="spacing" textLength="195" x="684.5" y="327.2607">GET /prsls/reviews/{prsl_id}</text><ellipse cx="675.5" cy="340.2109" fill="none" rx="3" ry="3" style="stroke:#038048;stroke-width:1.0;"/><text fill="#000000" font-family="sans-serif" font-size="14" lengthAdjust="spacing" textLength="168" x="684.5" y="343.5576">GET /prsls/list/{user_id}</text><ellipse cx="675.5" cy="356.5078" fill="none" rx="3" ry="3" style="stroke:#038048;stroke-width:1.0;"/><text fill="#000000" font-family="sans-serif" font-size="14" lengthAdjust="spacing" textLength="172" x="684.5" y="359.8545">PUT /prsls/{proposal_id}</text></g><g id="elem_report_endpoints"><rect fill="#F1F1F1" height="44.5938" style="stroke:#181818;stroke-width:0.5;" width="133" x="1054.5" y="224.5"/><text fill="#000000" font-family="sans-serif" font-size="14" lengthAdjust="spacing" textLength="119" x="1061.5" y="239.4951">report_endpoints</text><line style="stroke:#181818;stroke-width:0.5;" x1="1055.5" x2="1186.5" y1="244.7969" y2="244.7969"/><ellipse cx="1065.5" cy="258.4453" fill="none" rx="3" ry="3" style="stroke:#038048;stroke-width:1.0;"/><text fill="#000000" font-family="sans-serif" font-size="14" lengthAdjust="spacing" textLength="85" x="1074.5" y="261.792">GET /report/</text></g><g id="elem_reviewers_endpoints"><rect fill="#F1F1F1" height="44.5938" style="stroke:#181818;stroke-width:0.5;" width="157" x="1244.5" y="224.5"/><text fill="#000000" font-family="sans-serif" font-size="14" lengthAdjust="spacing" textLength="143" x="1251.5" y="239.4951">reviewers_endpoints</text><line style="stroke:#181818;stroke-width:0.5;" x1="1245.5" x2="1400.5" y1="244.7969" y2="244.7969"/><ellipse cx="1255.5" cy="258.4453" fill="none" rx="3" ry="3" style="stroke:#038048;stroke-width:1.0;"/><text fill="#000000" font-family="sans-serif" font-size="14" lengthAdjust="spacing" textLength="104" x="1264.5" y="261.792">GET /reviewers</text></g><g id="elem_reviews_endpoints"><rect fill="#F1F1F1" height="93.4844" style="stroke:#181818;stroke-width:0.5;" width="213" x="1457.5" y="200.5"/><text fill="#000000" font-family="sans-serif" font-size="14" lengthAdjust="spacing" textLength="129" x="1499.5" y="215.4951">reviews_endpoints</text><line style="stroke:#181818;stroke-width:0.5;" x1="1458.5" x2="1669.5" y1="220.7969" y2="220.7969"/><ellipse cx="1468.5" cy="234.4453" fill="none" rx="3" ry="3" style="stroke:#038048;stroke-width:1.0;"/><text fill="#000000" font-family="sans-serif" font-size="14" lengthAdjust="spacing" textLength="99" x="1477.5" y="237.792">POST /reviews</text><ellipse cx="1468.5" cy="250.7422" fill="none" rx="3" ry="3" style="stroke:#038048;stroke-width:1.0;"/><text fill="#000000" font-family="sans-serif" font-size="14" lengthAdjust="spacing" textLength="176" x="1477.5" y="254.0889">GET /reviews/{review_id}</text><ellipse cx="1468.5" cy="267.0391" fill="none" rx="3" ry="3" style="stroke:#038048;stroke-width:1.0;"/><text fill="#000000" font-family="sans-serif" font-size="14" lengthAdjust="spacing" textLength="187" x="1477.5" y="270.3857">GET /reviews/list/{user_id}</text><ellipse cx="1468.5" cy="283.3359" fill="none" rx="3" ry="3" style="stroke:#038048;stroke-width:1.0;"/><text fill="#000000" font-family="sans-serif" font-size="14" lengthAdjust="spacing" textLength="175" x="1477.5" y="286.6826">PUT /reviews/{review_id}</text></g><g id="elem_email_helper_items"><rect fill="#F1F1F1" height="60.8906" style="stroke:#181818;stroke-width:0.5;" width="161" x="70.5" y="574.5"/><text fill="#000000" font-family="sans-serif" font-size="14" lengthAdjust="spacing" textLength="132" x="85" y="589.4951">email_helper_items</text><line style="stroke:#181818;stroke-width:0.5;" x1="71.5" x2="230.5" y1="594.7969" y2="594.7969"/><ellipse cx="81.5" cy="608.4453" fill="#84BE84" rx="3" ry="3" style="stroke:#038048;stroke-width:1.0;"/><text fill="#000000" font-family="sans-serif" font-size="14" lengthAdjust="spacing" textLength="99" x="90.5" y="611.792">render_email()</text><ellipse cx="81.5" cy="624.7422" fill="#84BE84" rx="3" ry="3" style="stroke:#038048;stroke-width:1.0;"/><text fill="#000000" font-family="sans-serif" font-size="14" lengthAdjust="spacing" textLength="135" x="90.5" y="628.0889">send_email_async()</text></g><g id="elem_pht_handler_items"><rect fill="#F1F1F1" height="93.4844" style="stroke:#181818;stroke-width:0.5;" width="320" x="1033" y="558.5"/><text fill="#000000" font-family="sans-serif" font-size="14" lengthAdjust="spacing" textLength="127" x="1129.5" y="573.4951">pht_handler_items</text><line style="stroke:#181818;stroke-width:0.5;" x1="1034" x2="1352" y1="578.7969" y2="578.7969"/><ellipse cx="1044" cy="592.4453" fill="#84BE84" rx="3" ry="3" style="stroke:#038048;stroke-width:1.0;"/><text fill="#000000" font-family="sans-serif" font-size="14" lengthAdjust="spacing" textLength="199" x="1053" y="595.792">transform_update_proposal()</text><ellipse cx="1044" cy="608.7422" fill="#84BE84" rx="3" ry="3" style="stroke:#038048;stroke-width:1.0;"/><text fill="#000000" font-family="sans-serif" font-size="14" lengthAdjust="spacing" textLength="165" x="1053" y="612.0889">get_latest_entity_by_id()</text><ellipse cx="1044" cy="625.0391" fill="#84BE84" rx="3" ry="3" style="stroke:#038048;stroke-width:1.0;"/><text fill="#000000" font-family="sans-serif" font-size="14" lengthAdjust="spacing" textLength="122" x="1053" y="628.3857">_get_array_class()</text><ellipse cx="1044" cy="641.3359" fill="#84BE84" rx="3" ry="3" style="stroke:#038048;stroke-width:1.0;"/><text fill="#000000" font-family="sans-serif" font-size="14" lengthAdjust="spacing" textLength="294" x="1053" y="644.6826">join_proposals_panels_reviews_decisions()</text></g><g id="elem_s3_bucket_functions"><rect fill="#F1F1F1" height="142.375" style="stroke:#181818;stroke-width:0.5;" width="284" x="693" y="534"/><text fill="#000000" font-family="sans-serif" font-size="14" lengthAdjust="spacing" textLength="143" x="763.5" y="548.9951">s3_bucket_functions</text><line style="stroke:#181818;stroke-width:0.5;" x1="694" x2="976" y1="554.2969" y2="554.2969"/><ellipse cx="704" cy="567.9453" fill="#84BE84" rx="3" ry="3" style="stroke:#038048;stroke-width:1.0;"/><text fill="#000000" font-family="sans-serif" font-size="14" lengthAdjust="spacing" textLength="125" x="713" y="571.292">S3Method (Enum)</text><ellipse cx="704" cy="584.2422" fill="none" rx="3" ry="3" style="stroke:#038048;stroke-width:1.0;"/><text fill="#000000" font-family="sans-serif" font-size="14" lengthAdjust="spacing" textLength="62" x="713" y="587.5889">S3Config</text><ellipse cx="704" cy="600.5391" fill="#84BE84" rx="3" ry="3" style="stroke:#038048;stroke-width:1.0;"/><text fill="#000000" font-family="sans-serif" font-size="14" lengthAdjust="spacing" textLength="111" x="713" y="603.8857">get_aws_client()</text><ellipse cx="704" cy="616.8359" fill="#84BE84" rx="3" ry="3" style="stroke:#038048;stroke-width:1.0;"/><text fill="#000000" font-family="sans-serif" font-size="14" lengthAdjust="spacing" textLength="174" x="713" y="620.1826">generate_presigned_url()</text><ellipse cx="704" cy="633.1328" fill="#84BE84" rx="3" ry="3" style="stroke:#038048;stroke-width:1.0;"/><text fill="#000000" font-family="sans-serif" font-size="14" lengthAdjust="spacing" textLength="238" x="713" y="636.4795">create_presigned_url_upload_pdf()</text><ellipse cx="704" cy="649.4297" fill="#84BE84" rx="3" ry="3" style="stroke:#038048;stroke-width:1.0;"/><text fill="#000000" font-family="sans-serif" font-size="14" lengthAdjust="spacing" textLength="258" x="713" y="652.7764">create_presigned_url_download_pdf()</text><ellipse cx="704" cy="665.7266" fill="#84BE84" rx="3" ry="3" style="stroke:#038048;stroke-width:1.0;"/><text fill="#000000" font-family="sans-serif" font-size="14" lengthAdjust="spacing" textLength="235" x="713" y="669.0732">create_presigned_url_delete_pdf()</text></g><!--class validate_duplicates--><g id="elem_validate_duplicates"><rect codeLine="91" fill="#F1F1F1" height="56.2656" id="validate_duplicates" rx="2.5" ry="2.5" style="stroke:#181818;stroke-width:0.5;" width="162" x="288" y="577"/><ellipse cx="303" cy="597.1328" fill="#ADD1B2" rx="11" ry="11" style="stroke:#181818;stroke-width:1.0;"/><path d="M305.9688,602.7734 Q305.3906,603.0703 304.75,603.2109 Q304.1094,603.3672 303.4063,603.3672 Q300.9063,603.3672 299.5781,601.7266 Q298.2656,600.0703 298.2656,596.9453 Q298.2656,593.8203 299.5781,592.1641 Q300.9063,590.5078 303.4063,590.5078 Q304.1094,590.5078 304.75,590.6641 Q305.4063,590.8203 305.9688,591.1172 L305.9688,593.8359 Q305.3438,593.2578 304.75,592.9922 Q304.1563,592.7109 303.5313,592.7109 Q302.1875,592.7109 301.5,593.7891 Q300.8125,594.8516 300.8125,596.9453 Q300.8125,599.0391 301.5,600.1172 Q302.1875,601.1797 303.5313,601.1797 Q304.1563,601.1797 304.75,600.9141 Q305.3438,600.6328 305.9688,600.0547 L305.9688,602.7734 Z " fill="#000000"/><text fill="#000000" font-family="sans-serif" font-size="12" font-style="italic" lengthAdjust="spacing" textLength="65" x="349.5" y="593.1387">«function»</text><text fill="#000000" font-family="sans-serif" font-size="14" lengthAdjust="spacing" textLength="130" x="317" y="608.9639">validate_duplicates</text><line style="stroke:#181818;stroke-width:0.5;" x1="289" x2="449" y1="617.2656" y2="617.2656"/><line style="stroke:#181818;stroke-width:0.5;" x1="289" x2="449" y1="625.2656" y2="625.2656"/></g><!--class validate_proposal--><g id="elem_validate_proposal"><rect codeLine="92" fill="#F1F1F1" height="56.2656" id="validate_proposal" rx="2.5" ry="2.5" style="stroke:#181818;stroke-width:0.5;" width="151" x="485.5" y="577"/><ellipse cx="500.5" cy="597.1328" fill="#ADD1B2" rx="11" ry="11" style="stroke:#181818;stroke-width:1.0;"/><path d="M503.4688,602.7734 Q502.8906,603.0703 502.25,603.2109 Q501.6094,603.3672 500.9063,603.3672 Q498.4063,603.3672 497.0781,601.7266 Q495.7656,600.0703 495.7656,596.9453 Q495.7656,593.8203 497.0781,592.1641 Q498.4063,590.5078 500.9063,590.5078 Q501.6094,590.5078 502.25,590.6641 Q502.9063,590.8203 503.4688,591.1172 L503.4688,593.8359 Q502.8438,593.2578 502.25,592.9922 Q501.6563,592.7109 501.0313,592.7109 Q499.6875,592.7109 499,593.7891 Q498.3125,594.8516 498.3125,596.9453 Q498.3125,599.0391 499,600.1172 Q499.6875,601.1797 501.0313,601.1797 Q501.6563,601.1797 502.25,600.9141 Q502.8438,600.6328 503.4688,600.0547 L503.4688,602.7734 Z " fill="#000000"/><text fill="#000000" font-family="sans-serif" font-size="12" font-style="italic" lengthAdjust="spacing" textLength="65" x="541.5" y="593.1387">«function»</text><text fill="#000000" font-family="sans-serif" font-size="14" lengthAdjust="spacing" textLength="119" x="514.5" y="608.9639">validate_proposal</text><line style="stroke:#181818;stroke-width:0.5;" x1="486.5" x2="635.5" y1="617.2656" y2="617.2656"/><line style="stroke:#181818;stroke-width:0.5;" x1="486.5" x2="635.5" y1="625.2656" y2="625.2656"/></g><!--entity constants--><g id="elem_constants"><rect fill="#F1F1F1" height="36.2969" rx="2.5" ry="2.5" style="stroke:#181818;stroke-width:0.5;" width="89" x="1388.5" y="587"/><text fill="#000000" font-family="sans-serif" font-size="14" lengthAdjust="spacing" textLength="69" x="1398.5" y="609.9951">constants</text></g><!--link prsls_endpoints to validate_proposal--><g id="link_prsls_endpoints_validate_proposal"><path codeLine="100" d="M738.65,367.25 C718.26,393.77 696.83,421.79 677,448 C644.45,491.01 607.33,541.12 584.03,572.7 " fill="none" id="prsls_endpoints-to-validate_proposal" style="stroke:#181818;stroke-width:1.0;"/><polygon fill="#181818" points="580.98,576.84,589.5414,571.9714,583.9479,572.8162,583.1032,567.2227,580.98,576.84" style="stroke:#181818;stroke-width:1.0;"/></g><!--link prsls_endpoints to email_helper_items--><g id="link_prsls_endpoints_email_helper_items"><path codeLine="101" d="M701.24,367.21 C676.85,385.27 650.61,402.14 624,415 C578.47,437 563.16,433.58 513,440 C486.42,443.4 295.86,435.82 272,448 C221.31,473.88 185.47,531.82 166.55,569.34 " fill="none" id="prsls_endpoints-to-email_helper_items" style="stroke:#181818;stroke-width:1.0;"/><polygon fill="#181818" points="164.1,574.26,171.6946,567.9893,166.3303,569.785,164.5346,564.4207,164.1,574.26" style="stroke:#181818;stroke-width:1.0;"/></g><!--link prsls_endpoints to pht_handler_items--><g id="link_prsls_endpoints_pht_handler_items"><path codeLine="102" d="M952.04,367.04 C1016.95,430.87 1093.45,506.1 1142.55,554.39 " fill="none" id="prsls_endpoints-to-pht_handler_items" style="stroke:#181818;stroke-width:1.0;"/><polygon fill="#181818" points="1146.33,558.11,1142.7018,548.9538,1142.7589,554.6104,1137.1024,554.6675,1146.33,558.11" style="stroke:#181818;stroke-width:1.0;"/></g><!--link prsls_endpoints to s3_bucket_functions--><g id="link_prsls_endpoints_s3_bucket_functions"><path codeLine="103" d="M832.34,367.04 C832.94,420.47 833.63,481.9 834.16,528.83 " fill="none" id="prsls_endpoints-to-s3_bucket_functions" style="stroke:#181818;stroke-width:1.0;"/><polygon fill="#181818" points="834.21,533.9,838.1069,524.8549,834.1529,528.9003,830.1074,524.9463,834.21,533.9" style="stroke:#181818;stroke-width:1.0;"/></g><!--link panels_endpoints to validate_duplicates--><g id="link_panels_endpoints_validate_duplicates"><path codeLine="104" d="M489.68,285.76 C463.03,356.05 406.25,505.77 381.25,571.7 " fill="none" id="panels_endpoints-to-validate_duplicates" style="stroke:#181818;stroke-width:1.0;"/><polygon fill="#181818" points="379.36,576.68,386.2912,569.683,381.1328,572.0048,378.811,566.8465,379.36,576.68" style="stroke:#181818;stroke-width:1.0;"/><text fill="#000000" font-family="sans-serif" font-size="13" lengthAdjust="spacing" textLength="67" x="437" y="436.0669">List[Panel]</text></g><!--link report_endpoints to pht_handler_items--><g id="link_report_endpoints_pht_handler_items"><path codeLine="105" d="M1125.4,269.73 C1136.66,325.42 1166.79,474.39 1182.75,553.31 " fill="none" id="report_endpoints-to-pht_handler_items" style="stroke:#181818;stroke-width:1.0;"/><polygon fill="#181818" points="1183.78,558.41,1185.9265,548.7979,1182.7939,553.5082,1178.0836,550.3756,1183.78,558.41" style="stroke:#181818;stroke-width:1.0;"/></g><!--link reviewers_endpoints to constants--><g id="link_reviewers_endpoints_constants"><path codeLine="106" d="M1329.72,269.73 C1349.32,333.17 1406.31,517.62 1426.12,581.73 " fill="none" id="reviewers_endpoints-to-constants" style="stroke:#181818;stroke-width:1.0;"/><polygon fill="#181818" points="1427.7,586.84,1428.8702,577.0609,1426.2266,582.062,1421.2254,579.4184,1427.7,586.84" style="stroke:#181818;stroke-width:1.0;"/></g><!--SRC=[dPOzRzim48Pt_mh2InEqXePiHU2b2BgqQ92qKr4GD7MscL0aGL891CF_lITHahyeYOuMV-XvgTDxnpjwROZNPAMzrmN9XGNkXLQpcM7ybMs0pCtMpmbp13-fUTsGtMn6yEhlCoFcvFx-2OLCRIGibnroWXccGD8Sk72u_gM275rwzOBtoAc4WigD5igxKxY-FfF7Ny-_ITOe5ft2PH7m-qE4s_KF4Va-LII5yzckT607L8z_hdhKuTVXsu2FZXPCuSy2b4-tqXqi91CUJbZdicmNiZFbrwXDYMzidNHfRrcJINLIWnctm3nCG2lc-NQ2UMDIvDDBEOni0GKJCfiYnKP1lYYjp4eZDSkptLf8KAo0VReqr-_gusAGu65S6jBSABN3n_2AoobmPwmssh7nqWdHUEPBL8JF2TZ2cu3tPdsNi7RYvfq8-RY0BmlNWj4sRNy6TBnqc-W3c5qLHMqCM9SOI4idnTAo7zZKRRgkY2bfOxVeUCIOqV1bh4mwDArGfXO-DsL_DaHBByPwNCyrtODkGHgmITuT2wZmKCHRlqLl4MZeczi8KFUkS9ioLob-1iMIVdo2e5kcSfaOyn4_4hAtJBcrjWKjJTryQRTBe_5lm5E9bAitcHU-egiAinHbQGqpQrb5kMJEHQ4NhCJ-aOws0xOhrNxUN-EJkwEhahz2MileQRekLNDeY_lqVFSJ_5RdvEP1bSLjbFYcrLfi1cnZ-3vS2hHjm5a5DlWFONvGd1zHD0pSKv260KTDlaxNT9FjIbKpqYAQqQoqmttoqDgK2kcE0ZJ7znAyhZXKTHbQBiSaNJN51MFTb6FoCIm_qaAwljCly8ai5Wlo1B9vDxSLndt1Fk1BguYl3CQjbQngABIgqxCL_h-yZ7oGl6n3W-Z5xXya8pkWxQfdXzsJM8yIyvNymEx-zx7c_pNIypay4b5aKZPqdujWzMp_7m00]--></g></svg>