<?xml version="1.0" encoding="UTF-8" standalone="no"?><svg xmlns="http://www.w3.org/2000/svg" xmlns:xlink="http://www.w3.org/1999/xlink" contentStyleType="text/css" height="710px" preserveAspectRatio="none" style="width:3336px;height:710px;background:#FFFFFF;" version="1.1" viewBox="0 0 3336 710" width="3336px" zoomAndPan="magnify"><defs/><g><!--cluster common_pkg--><g id="cluster_common_pkg"><path d="M8.5,146 L76.5,146 A3.75,3.75 0 0 1 79,148.5 L86,168.2969 L2817.5,168.2969 A2.5,2.5 0 0 1 2820,170.7969 L2820,624 A2.5,2.5 0 0 1 2817.5,626.5 L8.5,626.5 A2.5,2.5 0 0 1 6,624 L6,148.5 A2.5,2.5 0 0 1 8.5,146 " fill="none" style="stroke:#000000;stroke-width:1.5;"/><line style="stroke:#000000;stroke-width:1.5;" x1="6" x2="86" y1="168.2969" y2="168.2969"/><text fill="#000000" font-family="sans-serif" font-size="14" font-weight="bold" lengthAdjust="spacing" textLength="67" x="10" y="160.9951">common</text></g><!--cluster api--><g id="cluster_api"><rect fill="none" height="373" rx="2.5" ry="2.5" style="stroke:#181818;stroke-width:1.0;" width="1436" x="38" y="221.5"/><text fill="#000000" font-family="sans-serif" font-size="14" font-weight="bold" lengthAdjust="spacing" textLength="23" x="744.5" y="236.4951">api</text></g><!--cluster panel_reviews--><g id="cluster_panel_reviews"><rect fill="none" height="107" rx="2.5" ry="2.5" style="stroke:#181818;stroke-width:1.0;" width="184" x="601" y="264.5"/><text fill="#000000" font-family="sans-serif" font-size="14" font-weight="bold" lengthAdjust="spacing" textLength="113" x="636.5" y="279.4951">panel_reviews</text></g><!--cluster reviewers--><g id="cluster_reviewers"><rect fill="none" height="107" rx="2.5" ry="2.5" style="stroke:#181818;stroke-width:1.0;" width="130" x="447" y="264.5"/><text fill="#000000" font-family="sans-serif" font-size="14" font-weight="bold" lengthAdjust="spacing" textLength="80" x="472" y="279.4951">reviewers</text></g><!--cluster panel_decision--><g id="cluster_panel_decision"><rect fill="none" height="107" rx="2.5" ry="2.5" style="stroke:#181818;stroke-width:1.0;" width="206" x="217" y="264.5"/><text fill="#000000" font-family="sans-serif" font-size="14" font-weight="bold" lengthAdjust="spacing" textLength="116" x="262" y="279.4951">panel_decision</text></g><!--cluster panels--><g id="cluster_panels"><rect fill="none" height="107" rx="2.5" ry="2.5" style="stroke:#181818;stroke-width:1.0;" width="180" x="969" y="264.5"/><text fill="#000000" font-family="sans-serif" font-size="14" font-weight="bold" lengthAdjust="spacing" textLength="52" x="1033" y="279.4951">panels</text></g><!--cluster reports--><g id="cluster_reports"><rect fill="none" height="107" rx="2.5" ry="2.5" style="stroke:#181818;stroke-width:1.0;" width="136" x="809" y="264.5"/><text fill="#000000" font-family="sans-serif" font-size="14" font-weight="bold" lengthAdjust="spacing" textLength="59" x="847.5" y="279.4951">reports</text></g><!--cluster prsls--><g id="cluster_prsls"><rect fill="none" height="306" rx="2.5" ry="2.5" style="stroke:#181818;stroke-width:1.0;" width="277" x="1173" y="264.5"/><text fill="#000000" font-family="sans-serif" font-size="14" font-weight="bold" lengthAdjust="spacing" textLength="39" x="1292" y="279.4951">prsls</text></g><!--cluster auth--><g id="cluster_auth"><rect fill="none" height="99" rx="2.5" ry="2.5" style="stroke:#181818;stroke-width:1.0;" width="108" x="1752" y="268.5"/><text fill="#000000" font-family="sans-serif" font-size="14" font-weight="bold" lengthAdjust="spacing" textLength="35" x="1788.5" y="283.4951">auth</text></g><!--cluster coordinateslookup--><g id="cluster_coordinateslookup"><rect fill="none" height="144" rx="2.5" ry="2.5" style="stroke:#181818;stroke-width:1.0;" width="230" x="1498" y="246"/><text fill="#000000" font-family="sans-serif" font-size="14" font-weight="bold" lengthAdjust="spacing" textLength="147" x="1539.5" y="260.9951">coordinateslookup</text></g><!--cluster error_handling--><g id="cluster_error_handling"><rect fill="none" height="242" rx="2.5" ry="2.5" style="stroke:#181818;stroke-width:1.0;" width="310" x="2142" y="197"/><text fill="#000000" font-family="sans-serif" font-size="14" font-weight="bold" lengthAdjust="spacing" textLength="115" x="2239.5" y="211.9951">error_handling</text></g><!--cluster model--><g id="cluster_model"><rect fill="none" height="144" rx="2.5" ry="2.5" style="stroke:#181818;stroke-width:1.0;" width="234" x="1884" y="246"/><text fill="#000000" font-family="sans-serif" font-size="14" font-weight="bold" lengthAdjust="spacing" textLength="48" x="1977" y="260.9951">model</text></g><!--cluster osdmapper--><g id="cluster_osdmapper"><rect fill="none" height="210" rx="2.5" ry="2.5" style="stroke:#181818;stroke-width:1.0;" width="304" x="2476" y="213"/><text fill="#000000" font-family="sans-serif" font-size="14" font-weight="bold" lengthAdjust="spacing" textLength="89" x="2583.5" y="227.9951">osdmapper</text></g><!--cluster odt_pkg--><g id="cluster_odt_pkg"><path d="M2862.5,471 L2889.5,471 A3.75,3.75 0 0 1 2892,473.5 L2899,493.2969 L3176.5,493.2969 A2.5,2.5 0 0 1 3179,495.7969 L3179,560.5 A2.5,2.5 0 0 1 3176.5,563 L2862.5,563 A2.5,2.5 0 0 1 2860,560.5 L2860,473.5 A2.5,2.5 0 0 1 2862.5,471 " fill="none" style="stroke:#000000;stroke-width:1.5;"/><line style="stroke:#000000;stroke-width:1.5;" x1="2860" x2="2899" y1="493.2969" y2="493.2969"/><text fill="#000000" font-family="sans-serif" font-size="14" font-weight="bold" lengthAdjust="spacing" textLength="26" x="2864" y="485.9951">odt</text></g><!--cluster app--><g id="cluster_app"><rect fill="none" height="107" rx="2.5" ry="2.5" style="stroke:#181818;stroke-width:1.0;" width="142" x="2797" y="7"/><text fill="#000000" font-family="sans-serif" font-size="14" font-weight="bold" lengthAdjust="spacing" textLength="29" x="2853.5" y="21.9951">app</text></g><!--class get_coordinates--><g id="elem_get_coordinates"><rect codeLine="6" fill="#F1F1F1" height="56.2656" id="get_coordinates" rx="2.5" ry="2.5" style="stroke:#181818;stroke-width:0.5;" width="144" x="54" y="299.5"/><ellipse cx="69" cy="319.6328" fill="#ADD1B2" rx="11" ry="11" style="stroke:#181818;stroke-width:1.0;"/><path d="M71.9688,325.2734 Q71.3906,325.5703 70.75,325.7109 Q70.1094,325.8672 69.4063,325.8672 Q66.9063,325.8672 65.5781,324.2266 Q64.2656,322.5703 64.2656,319.4453 Q64.2656,316.3203 65.5781,314.6641 Q66.9063,313.0078 69.4063,313.0078 Q70.1094,313.0078 70.75,313.1641 Q71.4063,313.3203 71.9688,313.6172 L71.9688,316.3359 Q71.3438,315.7578 70.75,315.4922 Q70.1563,315.2109 69.5313,315.2109 Q68.1875,315.2109 67.5,316.2891 Q66.8125,317.3516 66.8125,319.4453 Q66.8125,321.5391 67.5,322.6172 Q68.1875,323.6797 69.5313,323.6797 Q70.1563,323.6797 70.75,323.4141 Q71.3438,323.1328 71.9688,322.5547 L71.9688,325.2734 Z " fill="#000000"/><text fill="#000000" font-family="sans-serif" font-size="12" font-style="italic" lengthAdjust="spacing" textLength="70" x="104" y="315.6387">«endpoint»</text><text fill="#000000" font-family="sans-serif" font-size="14" lengthAdjust="spacing" textLength="112" x="83" y="331.4639">get_coordinates</text><line style="stroke:#181818;stroke-width:0.5;" x1="55" x2="197" y1="339.7656" y2="339.7656"/><line style="stroke:#181818;stroke-width:0.5;" x1="55" x2="197" y1="347.7656" y2="347.7656"/></g><!--class panel_review_get--><g id="elem_panel_review_get"><rect codeLine="72" fill="#F1F1F1" height="56.2656" id="panel_review_get" rx="2.5" ry="2.5" style="stroke:#181818;stroke-width:0.5;" width="151" x="617.5" y="299.5"/><ellipse cx="632.5" cy="319.6328" fill="#ADD1B2" rx="11" ry="11" style="stroke:#181818;stroke-width:1.0;"/><path d="M635.4688,325.2734 Q634.8906,325.5703 634.25,325.7109 Q633.6094,325.8672 632.9063,325.8672 Q630.4063,325.8672 629.0781,324.2266 Q627.7656,322.5703 627.7656,319.4453 Q627.7656,316.3203 629.0781,314.6641 Q630.4063,313.0078 632.9063,313.0078 Q633.6094,313.0078 634.25,313.1641 Q634.9063,313.3203 635.4688,313.6172 L635.4688,316.3359 Q634.8438,315.7578 634.25,315.4922 Q633.6563,315.2109 633.0313,315.2109 Q631.6875,315.2109 631,316.2891 Q630.3125,317.3516 630.3125,319.4453 Q630.3125,321.5391 631,322.6172 Q631.6875,323.6797 633.0313,323.6797 Q633.6563,323.6797 634.25,323.4141 Q634.8438,323.1328 635.4688,322.5547 L635.4688,325.2734 Z " fill="#000000"/><text fill="#000000" font-family="sans-serif" font-size="12" font-style="italic" lengthAdjust="spacing" textLength="70" x="671" y="315.6387">«endpoint»</text><text fill="#000000" font-family="sans-serif" font-size="14" lengthAdjust="spacing" textLength="119" x="646.5" y="331.4639">panel_review_get</text><line style="stroke:#181818;stroke-width:0.5;" x1="618.5" x2="767.5" y1="339.7656" y2="339.7656"/><line style="stroke:#181818;stroke-width:0.5;" x1="618.5" x2="767.5" y1="347.7656" y2="347.7656"/></g><!--class reviewers--><g id="elem_reviewers"><rect codeLine="75" fill="#F1F1F1" height="56.2656" id="reviewers" rx="2.5" ry="2.5" style="stroke:#181818;stroke-width:0.5;" width="98" x="463" y="299.5"/><ellipse cx="478" cy="319.6328" fill="#ADD1B2" rx="11" ry="11" style="stroke:#181818;stroke-width:1.0;"/><path d="M480.9688,325.2734 Q480.3906,325.5703 479.75,325.7109 Q479.1094,325.8672 478.4063,325.8672 Q475.9063,325.8672 474.5781,324.2266 Q473.2656,322.5703 473.2656,319.4453 Q473.2656,316.3203 474.5781,314.6641 Q475.9063,313.0078 478.4063,313.0078 Q479.1094,313.0078 479.75,313.1641 Q480.4063,313.3203 480.9688,313.6172 L480.9688,316.3359 Q480.3438,315.7578 479.75,315.4922 Q479.1563,315.2109 478.5313,315.2109 Q477.1875,315.2109 476.5,316.2891 Q475.8125,317.3516 475.8125,319.4453 Q475.8125,321.5391 476.5,322.6172 Q477.1875,323.6797 478.5313,323.6797 Q479.1563,323.6797 479.75,323.4141 Q480.3438,323.1328 480.9688,322.5547 L480.9688,325.2734 Z " fill="#000000"/><text fill="#000000" font-family="sans-serif" font-size="12" font-style="italic" lengthAdjust="spacing" textLength="70" x="490" y="315.6387">«endpoint»</text><text fill="#000000" font-family="sans-serif" font-size="14" lengthAdjust="spacing" textLength="66" x="492" y="331.4639">reviewers</text><line style="stroke:#181818;stroke-width:0.5;" x1="464" x2="560" y1="339.7656" y2="339.7656"/><line style="stroke:#181818;stroke-width:0.5;" x1="464" x2="560" y1="347.7656" y2="347.7656"/></g><!--class panel_decision_post--><g id="elem_panel_decision_post"><rect codeLine="78" fill="#F1F1F1" height="56.2656" id="panel_decision_post" rx="2.5" ry="2.5" style="stroke:#181818;stroke-width:0.5;" width="173" x="233.5" y="299.5"/><ellipse cx="248.5" cy="319.6328" fill="#ADD1B2" rx="11" ry="11" style="stroke:#181818;stroke-width:1.0;"/><path d="M251.4688,325.2734 Q250.8906,325.5703 250.25,325.7109 Q249.6094,325.8672 248.9063,325.8672 Q246.4063,325.8672 245.0781,324.2266 Q243.7656,322.5703 243.7656,319.4453 Q243.7656,316.3203 245.0781,314.6641 Q246.4063,313.0078 248.9063,313.0078 Q249.6094,313.0078 250.25,313.1641 Q250.9063,313.3203 251.4688,313.6172 L251.4688,316.3359 Q250.8438,315.7578 250.25,315.4922 Q249.6563,315.2109 249.0313,315.2109 Q247.6875,315.2109 247,316.2891 Q246.3125,317.3516 246.3125,319.4453 Q246.3125,321.5391 247,322.6172 Q247.6875,323.6797 249.0313,323.6797 Q249.6563,323.6797 250.25,323.4141 Q250.8438,323.1328 251.4688,322.5547 L251.4688,325.2734 Z " fill="#000000"/><text fill="#000000" font-family="sans-serif" font-size="12" font-style="italic" lengthAdjust="spacing" textLength="70" x="298" y="315.6387">«endpoint»</text><text fill="#000000" font-family="sans-serif" font-size="14" lengthAdjust="spacing" textLength="141" x="262.5" y="331.4639">panel_decision_post</text><line style="stroke:#181818;stroke-width:0.5;" x1="234.5" x2="405.5" y1="339.7656" y2="339.7656"/><line style="stroke:#181818;stroke-width:0.5;" x1="234.5" x2="405.5" y1="347.7656" y2="347.7656"/></g><!--class panels_endpoint--><g id="elem_panels_endpoint"><rect codeLine="81" fill="#F1F1F1" height="56.2656" id="panels_endpoint" rx="2.5" ry="2.5" style="stroke:#181818;stroke-width:0.5;" width="147" x="985.5" y="299.5"/><ellipse cx="1000.5" cy="319.6328" fill="#ADD1B2" rx="11" ry="11" style="stroke:#181818;stroke-width:1.0;"/><path d="M1003.4688,325.2734 Q1002.8906,325.5703 1002.25,325.7109 Q1001.6094,325.8672 1000.9063,325.8672 Q998.4063,325.8672 997.0781,324.2266 Q995.7656,322.5703 995.7656,319.4453 Q995.7656,316.3203 997.0781,314.6641 Q998.4063,313.0078 1000.9063,313.0078 Q1001.6094,313.0078 1002.25,313.1641 Q1002.9063,313.3203 1003.4688,313.6172 L1003.4688,316.3359 Q1002.8438,315.7578 1002.25,315.4922 Q1001.6563,315.2109 1001.0313,315.2109 Q999.6875,315.2109 999,316.2891 Q998.3125,317.3516 998.3125,319.4453 Q998.3125,321.5391 999,322.6172 Q999.6875,323.6797 1001.0313,323.6797 Q1001.6563,323.6797 1002.25,323.4141 Q1002.8438,323.1328 1003.4688,322.5547 L1003.4688,325.2734 Z " fill="#000000"/><text fill="#000000" font-family="sans-serif" font-size="12" font-style="italic" lengthAdjust="spacing" textLength="70" x="1037" y="315.6387">«endpoint»</text><text fill="#000000" font-family="sans-serif" font-size="14" lengthAdjust="spacing" textLength="115" x="1014.5" y="331.4639">panels_endpoint</text><line style="stroke:#181818;stroke-width:0.5;" x1="986.5" x2="1131.5" y1="339.7656" y2="339.7656"/><line style="stroke:#181818;stroke-width:0.5;" x1="986.5" x2="1131.5" y1="347.7656" y2="347.7656"/></g><!--class report_get--><g id="elem_report_get"><rect codeLine="84" fill="#F1F1F1" height="56.2656" id="report_get" rx="2.5" ry="2.5" style="stroke:#181818;stroke-width:0.5;" width="104" x="825" y="299.5"/><ellipse cx="840" cy="319.6328" fill="#ADD1B2" rx="11" ry="11" style="stroke:#181818;stroke-width:1.0;"/><path d="M842.9688,325.2734 Q842.3906,325.5703 841.75,325.7109 Q841.1094,325.8672 840.4063,325.8672 Q837.9063,325.8672 836.5781,324.2266 Q835.2656,322.5703 835.2656,319.4453 Q835.2656,316.3203 836.5781,314.6641 Q837.9063,313.0078 840.4063,313.0078 Q841.1094,313.0078 841.75,313.1641 Q842.4063,313.3203 842.9688,313.6172 L842.9688,316.3359 Q842.3438,315.7578 841.75,315.4922 Q841.1563,315.2109 840.5313,315.2109 Q839.1875,315.2109 838.5,316.2891 Q837.8125,317.3516 837.8125,319.4453 Q837.8125,321.5391 838.5,322.6172 Q839.1875,323.6797 840.5313,323.6797 Q841.1563,323.6797 841.75,323.4141 Q842.3438,323.1328 842.9688,322.5547 L842.9688,325.2734 Z " fill="#000000"/><text fill="#000000" font-family="sans-serif" font-size="12" font-style="italic" lengthAdjust="spacing" textLength="70" x="855" y="315.6387">«endpoint»</text><text fill="#000000" font-family="sans-serif" font-size="14" lengthAdjust="spacing" textLength="72" x="854" y="331.4639">report_get</text><line style="stroke:#181818;stroke-width:0.5;" x1="826" x2="928" y1="339.7656" y2="339.7656"/><line style="stroke:#181818;stroke-width:0.5;" x1="826" x2="928" y1="347.7656" y2="347.7656"/></g><!--class send_email--><g id="elem_send_email"><rect codeLine="87" fill="#F1F1F1" height="56.2656" id="send_email" rx="2.5" ry="2.5" style="stroke:#181818;stroke-width:0.5;" width="110" x="1189" y="299.5"/><ellipse cx="1204" cy="319.6328" fill="#ADD1B2" rx="11" ry="11" style="stroke:#181818;stroke-width:1.0;"/><path d="M1206.9688,325.2734 Q1206.3906,325.5703 1205.75,325.7109 Q1205.1094,325.8672 1204.4063,325.8672 Q1201.9063,325.8672 1200.5781,324.2266 Q1199.2656,322.5703 1199.2656,319.4453 Q1199.2656,316.3203 1200.5781,314.6641 Q1201.9063,313.0078 1204.4063,313.0078 Q1205.1094,313.0078 1205.75,313.1641 Q1206.4063,313.3203 1206.9688,313.6172 L1206.9688,316.3359 Q1206.3438,315.7578 1205.75,315.4922 Q1205.1563,315.2109 1204.5313,315.2109 Q1203.1875,315.2109 1202.5,316.2891 Q1201.8125,317.3516 1201.8125,319.4453 Q1201.8125,321.5391 1202.5,322.6172 Q1203.1875,323.6797 1204.5313,323.6797 Q1205.1563,323.6797 1205.75,323.4141 Q1206.3438,323.1328 1206.9688,322.5547 L1206.9688,325.2734 Z " fill="#000000"/><text fill="#000000" font-family="sans-serif" font-size="12" font-style="italic" lengthAdjust="spacing" textLength="70" x="1222" y="315.6387">«endpoint»</text><text fill="#000000" font-family="sans-serif" font-size="14" lengthAdjust="spacing" textLength="78" x="1218" y="331.4639">send_email</text><line style="stroke:#181818;stroke-width:0.5;" x1="1190" x2="1298" y1="339.7656" y2="339.7656"/><line style="stroke:#181818;stroke-width:0.5;" x1="1190" x2="1298" y1="347.7656" y2="347.7656"/></g><!--class proposals--><g id="elem_proposals"><rect codeLine="88" fill="#F1F1F1" height="56.2656" id="proposals" rx="2.5" ry="2.5" style="stroke:#181818;stroke-width:0.5;" width="100" x="1334" y="299.5"/><ellipse cx="1349" cy="319.6328" fill="#ADD1B2" rx="11" ry="11" style="stroke:#181818;stroke-width:1.0;"/><path d="M1351.9688,325.2734 Q1351.3906,325.5703 1350.75,325.7109 Q1350.1094,325.8672 1349.4063,325.8672 Q1346.9063,325.8672 1345.5781,324.2266 Q1344.2656,322.5703 1344.2656,319.4453 Q1344.2656,316.3203 1345.5781,314.6641 Q1346.9063,313.0078 1349.4063,313.0078 Q1350.1094,313.0078 1350.75,313.1641 Q1351.4063,313.3203 1351.9688,313.6172 L1351.9688,316.3359 Q1351.3438,315.7578 1350.75,315.4922 Q1350.1563,315.2109 1349.5313,315.2109 Q1348.1875,315.2109 1347.5,316.2891 Q1346.8125,317.3516 1346.8125,319.4453 Q1346.8125,321.5391 1347.5,322.6172 Q1348.1875,323.6797 1349.5313,323.6797 Q1350.1563,323.6797 1350.75,323.4141 Q1351.3438,323.1328 1351.9688,322.5547 L1351.9688,325.2734 Z " fill="#000000"/><text fill="#000000" font-family="sans-serif" font-size="12" font-style="italic" lengthAdjust="spacing" textLength="70" x="1362" y="315.6387">«endpoint»</text><text fill="#000000" font-family="sans-serif" font-size="14" lengthAdjust="spacing" textLength="68" x="1363" y="331.4639">proposals</text><line style="stroke:#181818;stroke-width:0.5;" x1="1335" x2="1433" y1="339.7656" y2="339.7656"/><line style="stroke:#181818;stroke-width:0.5;" x1="1335" x2="1433" y1="347.7656" y2="347.7656"/></g><!--class pdf--><g id="elem_pdf"><rect codeLine="89" fill="#F1F1F1" height="56.2656" id="pdf" rx="2.5" ry="2.5" style="stroke:#181818;stroke-width:0.5;" width="98" x="1195" y="498.5"/><ellipse cx="1210" cy="518.6328" fill="#ADD1B2" rx="11" ry="11" style="stroke:#181818;stroke-width:1.0;"/><path d="M1212.9688,524.2734 Q1212.3906,524.5703 1211.75,524.7109 Q1211.1094,524.8672 1210.4063,524.8672 Q1207.9063,524.8672 1206.5781,523.2266 Q1205.2656,521.5703 1205.2656,518.4453 Q1205.2656,515.3203 1206.5781,513.6641 Q1207.9063,512.0078 1210.4063,512.0078 Q1211.1094,512.0078 1211.75,512.1641 Q1212.4063,512.3203 1212.9688,512.6172 L1212.9688,515.3359 Q1212.3438,514.7578 1211.75,514.4922 Q1211.1563,514.2109 1210.5313,514.2109 Q1209.1875,514.2109 1208.5,515.2891 Q1207.8125,516.3516 1207.8125,518.4453 Q1207.8125,520.5391 1208.5,521.6172 Q1209.1875,522.6797 1210.5313,522.6797 Q1211.1563,522.6797 1211.75,522.4141 Q1212.3438,522.1328 1212.9688,521.5547 L1212.9688,524.2734 Z " fill="#000000"/><text fill="#000000" font-family="sans-serif" font-size="12" font-style="italic" lengthAdjust="spacing" textLength="70" x="1222" y="514.6387">«endpoint»</text><text fill="#000000" font-family="sans-serif" font-size="14" lengthAdjust="spacing" textLength="22" x="1246" y="530.4639">pdf</text><line style="stroke:#181818;stroke-width:0.5;" x1="1196" x2="1292" y1="538.7656" y2="538.7656"/><line style="stroke:#181818;stroke-width:0.5;" x1="1196" x2="1292" y1="546.7656" y2="546.7656"/></g><!--class Scope--><g id="elem_Scope"><rect codeLine="10" fill="#F1F1F1" height="48" id="Scope" rx="2.5" ry="2.5" style="stroke:#181818;stroke-width:0.5;" width="76" x="1768" y="303.5"/><ellipse cx="1783" cy="319.5" fill="#ADD1B2" rx="11" ry="11" style="stroke:#181818;stroke-width:1.0;"/><path d="M1785.9688,325.1406 Q1785.3906,325.4375 1784.75,325.5781 Q1784.1094,325.7344 1783.4063,325.7344 Q1780.9063,325.7344 1779.5781,324.0938 Q1778.2656,322.4375 1778.2656,319.3125 Q1778.2656,316.1875 1779.5781,314.5313 Q1780.9063,312.875 1783.4063,312.875 Q1784.1094,312.875 1784.75,313.0313 Q1785.4063,313.1875 1785.9688,313.4844 L1785.9688,316.2031 Q1785.3438,315.625 1784.75,315.3594 Q1784.1563,315.0781 1783.5313,315.0781 Q1782.1875,315.0781 1781.5,316.1563 Q1780.8125,317.2188 1780.8125,319.3125 Q1780.8125,321.4063 1781.5,322.4844 Q1782.1875,323.5469 1783.5313,323.5469 Q1784.1563,323.5469 1784.75,323.2813 Q1785.3438,323 1785.9688,322.4219 L1785.9688,325.1406 Z " fill="#000000"/><text fill="#000000" font-family="sans-serif" font-size="14" lengthAdjust="spacing" textLength="44" x="1797" y="324.3467">Scope</text><line style="stroke:#181818;stroke-width:0.5;" x1="1769" x2="1843" y1="335.5" y2="335.5"/><line style="stroke:#181818;stroke-width:0.5;" x1="1769" x2="1843" y1="343.5" y2="343.5"/></g><g id="elem_coordinateslookup_items"><rect fill="#F1F1F1" height="93.4844" style="stroke:#181818;stroke-width:0.5;" width="198" x="1514" y="281"/><text fill="#000000" font-family="sans-serif" font-size="14" lengthAdjust="spacing" textLength="174" x="1526" y="295.9951">coordinateslookup_items</text><line style="stroke:#181818;stroke-width:0.5;" x1="1515" x2="1711" y1="301.2969" y2="301.2969"/><ellipse cx="1525" cy="314.9453" fill="none" rx="3" ry="3" style="stroke:#038048;stroke-width:1.0;"/><text fill="#000000" font-family="sans-serif" font-size="14" lengthAdjust="spacing" textLength="115" x="1534" y="318.292">ReferenceFrame</text><ellipse cx="1525" cy="331.2422" fill="none" rx="3" ry="3" style="stroke:#038048;stroke-width:1.0;"/><text fill="#000000" font-family="sans-serif" font-size="14" lengthAdjust="spacing" textLength="139" x="1534" y="334.5889">EquatorialResponse</text><ellipse cx="1525" cy="347.5391" fill="none" rx="3" ry="3" style="stroke:#038048;stroke-width:1.0;"/><text fill="#000000" font-family="sans-serif" font-size="14" lengthAdjust="spacing" textLength="125" x="1534" y="350.8857">GalacticResponse</text><ellipse cx="1525" cy="363.8359" fill="#84BE84" rx="3" ry="3" style="stroke:#038048;stroke-width:1.0;"/><text fill="#000000" font-family="sans-serif" font-size="14" lengthAdjust="spacing" textLength="172" x="1534" y="367.1826">get_systemcoordinates()</text></g><g id="elem_error_handling_items"><rect fill="#F1F1F1" height="191.2656" style="stroke:#181818;stroke-width:0.5;" width="278" x="2158" y="232"/><text fill="#000000" font-family="sans-serif" font-size="14" lengthAdjust="spacing" textLength="144" x="2225" y="246.9951">error_handling_items</text><line style="stroke:#181818;stroke-width:0.5;" x1="2159" x2="2435" y1="252.2969" y2="252.2969"/><ellipse cx="2169" cy="265.9453" fill="#84BE84" rx="3" ry="3" style="stroke:#038048;stroke-width:1.0;"/><text fill="#000000" font-family="sans-serif" font-size="14" lengthAdjust="spacing" textLength="95" x="2178" y="269.292">error_details()</text><ellipse cx="2169" cy="282.2422" fill="none" rx="3" ry="3" style="stroke:#038048;stroke-width:1.0;"/><text fill="#000000" font-family="sans-serif" font-size="14" lengthAdjust="spacing" textLength="119" x="2178" y="285.5889">BadRequestError</text><ellipse cx="2169" cy="298.5391" fill="none" rx="3" ry="3" style="stroke:#038048;stroke-width:1.0;"/><text fill="#000000" font-family="sans-serif" font-size="14" lengthAdjust="spacing" textLength="98" x="2178" y="301.8857">DuplicateError</text><ellipse cx="2169" cy="314.8359" fill="none" rx="3" ry="3" style="stroke:#038048;stroke-width:1.0;"/><text fill="#000000" font-family="sans-serif" font-size="14" lengthAdjust="spacing" textLength="175" x="2178" y="318.1826">UnprocessableEntityError</text><ellipse cx="2169" cy="331.1328" fill="none" rx="3" ry="3" style="stroke:#038048;stroke-width:1.0;"/><text fill="#000000" font-family="sans-serif" font-size="14" lengthAdjust="spacing" textLength="101" x="2178" y="334.4795">NotFoundError</text><ellipse cx="2169" cy="347.4297" fill="#84BE84" rx="3" ry="3" style="stroke:#038048;stroke-width:1.0;"/><text fill="#000000" font-family="sans-serif" font-size="14" lengthAdjust="spacing" textLength="128" x="2178" y="350.7764">_make_response()</text><ellipse cx="2169" cy="363.7266" fill="#84BE84" rx="3" ry="3" style="stroke:#038048;stroke-width:1.0;"/><text fill="#000000" font-family="sans-serif" font-size="14" lengthAdjust="spacing" textLength="172" x="2178" y="367.0732">oda_not_found_handler()</text><ellipse cx="2169" cy="380.0234" fill="#84BE84" rx="3" ry="3" style="stroke:#038048;stroke-width:1.0;"/><text fill="#000000" font-family="sans-serif" font-size="14" lengthAdjust="spacing" textLength="135" x="2178" y="383.3701">oda_error_handler()</text><ellipse cx="2169" cy="396.3203" fill="#84BE84" rx="3" ry="3" style="stroke:#038048;stroke-width:1.0;"/><text fill="#000000" font-family="sans-serif" font-size="14" lengthAdjust="spacing" textLength="226" x="2178" y="399.667">oda_unique_constraint_handler()</text><ellipse cx="2169" cy="412.6172" fill="#84BE84" rx="3" ry="3" style="stroke:#038048;stroke-width:1.0;"/><text fill="#000000" font-family="sans-serif" font-size="14" lengthAdjust="spacing" textLength="252" x="2178" y="415.9639">dangerous_internal_server_handler()</text></g><g id="elem_model_items"><rect fill="#F1F1F1" height="93.4844" style="stroke:#181818;stroke-width:0.5;" width="202" x="1900" y="281"/><text fill="#000000" font-family="sans-serif" font-size="14" lengthAdjust="spacing" textLength="88" x="1957" y="295.9951">model_items</text><line style="stroke:#181818;stroke-width:0.5;" x1="1901" x2="2101" y1="301.2969" y2="301.2969"/><ellipse cx="1911" cy="314.9453" fill="none" rx="3" ry="3" style="stroke:#038048;stroke-width:1.0;"/><text fill="#000000" font-family="sans-serif" font-size="14" lengthAdjust="spacing" textLength="69" x="1920" y="318.292">AppModel</text><ellipse cx="1911" cy="331.2422" fill="none" rx="3" ry="3" style="stroke:#038048;stroke-width:1.0;"/><text fill="#000000" font-family="sans-serif" font-size="14" lengthAdjust="spacing" textLength="137" x="1920" y="334.5889">ValidationResponse</text><ellipse cx="1911" cy="347.5391" fill="none" rx="3" ry="3" style="stroke:#038048;stroke-width:1.0;"/><text fill="#000000" font-family="sans-serif" font-size="14" lengthAdjust="spacing" textLength="176" x="1920" y="350.8857">ErrorResponseTraceback</text><ellipse cx="1911" cy="363.8359" fill="none" rx="3" ry="3" style="stroke:#038048;stroke-width:1.0;"/><text fill="#000000" font-family="sans-serif" font-size="14" lengthAdjust="spacing" textLength="80" x="1920" y="367.1826">ErrorDetails</text></g><g id="elem_osdmapper_items"><rect fill="#F1F1F1" height="158.6719" style="stroke:#181818;stroke-width:0.5;" width="271" x="2492.5" y="248"/><text fill="#000000" font-family="sans-serif" font-size="14" lengthAdjust="spacing" textLength="124" x="2566" y="262.9951">osdmapper_items</text><line style="stroke:#181818;stroke-width:0.5;" x1="2493.5" x2="2762.5" y1="268.2969" y2="268.2969"/><ellipse cx="2503.5" cy="281.9453" fill="none" rx="3" ry="3" style="stroke:#038048;stroke-width:1.0;"/><text fill="#000000" font-family="sans-serif" font-size="14" lengthAdjust="spacing" textLength="109" x="2512.5" y="285.292">FrequencyBand</text><ellipse cx="2503.5" cy="298.2422" fill="none" rx="3" ry="3" style="stroke:#038048;stroke-width:1.0;"/><text fill="#000000" font-family="sans-serif" font-size="14" lengthAdjust="spacing" textLength="60" x="2512.5" y="301.5889">Subarray</text><ellipse cx="2503.5" cy="314.5391" fill="none" rx="3" ry="3" style="stroke:#038048;stroke-width:1.0;"/><text fill="#000000" font-family="sans-serif" font-size="14" lengthAdjust="spacing" textLength="116" x="2512.5" y="317.8857">MidConfiguration</text><ellipse cx="2503.5" cy="330.8359" fill="none" rx="3" ry="3" style="stroke:#038048;stroke-width:1.0;"/><text fill="#000000" font-family="sans-serif" font-size="14" lengthAdjust="spacing" textLength="119" x="2512.5" y="334.1826">LowConfiguration</text><ellipse cx="2503.5" cy="347.1328" fill="none" rx="3" ry="3" style="stroke:#038048;stroke-width:1.0;"/><text fill="#000000" font-family="sans-serif" font-size="14" lengthAdjust="spacing" textLength="92" x="2512.5" y="350.4795">Configuration</text><ellipse cx="2503.5" cy="363.4297" fill="#84BE84" rx="3" ry="3" style="stroke:#038048;stroke-width:1.0;"/><text fill="#000000" font-family="sans-serif" font-size="14" lengthAdjust="spacing" textLength="171" x="2512.5" y="366.7764">configuration_from_osd()</text><ellipse cx="2503.5" cy="379.7266" fill="#84BE84" rx="3" ry="3" style="stroke:#038048;stroke-width:1.0;"/><text fill="#000000" font-family="sans-serif" font-size="14" lengthAdjust="spacing" textLength="245" x="2512.5" y="383.0732">_get_mid_telescope_configuration()</text><ellipse cx="2503.5" cy="396.0234" fill="#84BE84" rx="3" ry="3" style="stroke:#038048;stroke-width:1.0;"/><text fill="#000000" font-family="sans-serif" font-size="14" lengthAdjust="spacing" textLength="243" x="2512.5" y="399.3701">_get_low_telescope_configuration()</text></g><g id="elem_odt_note"><path d="M2903.5,514 L2903.5,539.1328 L3154.5,539.1328 L3154.5,524 L3144.5,514 L2903.5,514 " fill="#FEFFDD" style="stroke:#181818;stroke-width:0.5;"/><path d="M3144.5,514 L3144.5,524 L3154.5,524 L3144.5,514 " fill="#FEFFDD" style="stroke:#181818;stroke-width:1.0;"/><text fill="#000000" font-family="sans-serif" font-size="13" lengthAdjust="spacing" textLength="230" x="2909.5" y="531.0669">"ODT section minimized in this view"</text></g><path d="M2849,650.5 L2873,650.5 A3.75,3.75 0 0 1 2875.5,653 L2882.5,672.7969 L2887,672.7969 A2.5,2.5 0 0 1 2889.5,675.2969 L2889.5,700.5938 A2.5,2.5 0 0 1 2887,703.0938 L2849,703.0938 A2.5,2.5 0 0 1 2846.5,700.5938 L2846.5,653 A2.5,2.5 0 0 1 2849,650.5 " fill="#F1F1F1" style="stroke:#181818;stroke-width:0.5;"/><line style="stroke:#181818;stroke-width:0.5;" x1="2846.5" x2="2882.5" y1="672.7969" y2="672.7969"/><text fill="#000000" font-family="sans-serif" font-size="14" lengthAdjust="spacing" textLength="23" x="2850.5" y="665.4951">pht</text><!--class create_app--><g id="elem_create_app"><rect codeLine="100" fill="#F1F1F1" height="56.2656" id="create_app" rx="2.5" ry="2.5" style="stroke:#181818;stroke-width:0.5;" width="109" x="2813.5" y="42"/><ellipse cx="2828.5" cy="62.1328" fill="#ADD1B2" rx="11" ry="11" style="stroke:#181818;stroke-width:1.0;"/><path d="M2831.4688,67.7734 Q2830.8906,68.0703 2830.25,68.2109 Q2829.6094,68.3672 2828.9063,68.3672 Q2826.4063,68.3672 2825.0781,66.7266 Q2823.7656,65.0703 2823.7656,61.9453 Q2823.7656,58.8203 2825.0781,57.1641 Q2826.4063,55.5078 2828.9063,55.5078 Q2829.6094,55.5078 2830.25,55.6641 Q2830.9063,55.8203 2831.4688,56.1172 L2831.4688,58.8359 Q2830.8438,58.2578 2830.25,57.9922 Q2829.6563,57.7109 2829.0313,57.7109 Q2827.6875,57.7109 2827,58.7891 Q2826.3125,59.8516 2826.3125,61.9453 Q2826.3125,64.0391 2827,65.1172 Q2827.6875,66.1797 2829.0313,66.1797 Q2829.6563,66.1797 2830.25,65.9141 Q2830.8438,65.6328 2831.4688,65.0547 L2831.4688,67.7734 Z " fill="#000000"/><text fill="#000000" font-family="sans-serif" font-size="12" font-style="italic" lengthAdjust="spacing" textLength="65" x="2848.5" y="58.1387">«function»</text><text fill="#000000" font-family="sans-serif" font-size="14" lengthAdjust="spacing" textLength="77" x="2842.5" y="73.9639">create_app</text><line style="stroke:#181818;stroke-width:0.5;" x1="2814.5" x2="2921.5" y1="82.2656" y2="82.2656"/><line style="stroke:#181818;stroke-width:0.5;" x1="2814.5" x2="2921.5" y1="90.2656" y2="90.2656"/></g><!--link common_pkg to odt_pkg--><!--link common_pkg to odt_pkg--><!--link odt_pkg to pht_pkg--><!--link odt_pkg to pht_pkg--><!--reverse link create_app to common_pkg--><g id="link_create_app_common_pkg"><path codeLine="104" d="M2852.17,102.77 C2848.36,111.43 2844.64,120.93 2842,130 C2835.9225,150.875 2831.0194,173.3763 2827.0806,195.4391 C2825.1113,206.4705 2823.383,217.3923 2821.8695,227.9464 C2821.4912,230.5849 2821.1262,233.2004 2820.7743,235.789 C2820.5984,237.0832 2820.4257,238.3707 2820.2562,239.651 C2820.1714,240.2911 2820.0875,240.9294 2820.0043,241.5659 " fill="none" id="create_app-backto-common_pkg" style="stroke:#181818;stroke-width:1.0;"/><polygon fill="#181818" points="2854.29,98.05,2846.9661,104.6349,2852.25,102.6149,2854.27,107.8988,2854.29,98.05" style="stroke:#181818;stroke-width:1.0;"/></g><!--reverse link create_app to odt_pkg--><g id="link_create_app_odt_pkg"><path codeLine="105" d="M2868,103.09 C2868,154.475 2868,258.815 2868,350.9325 C2868,373.9619 2868,396.2273 2868,416.7105 C2868,426.9521 2868,436.7481 2868,445.9712 C2868,450.5828 2868,455.0511 2868,459.3604 C2868,461.515 2868,463.6298 2868,465.7028 C2868,466.7394 2868,467.7654 2868,468.7808 C2868,469.2885 2868,469.7936 2868,470.2959 " fill="none" id="create_app-backto-odt_pkg" style="stroke:#181818;stroke-width:1.0;"/><polygon fill="#181818" points="2868,98.07,2864,107.07,2868,103.07,2872,107.07,2868,98.07" style="stroke:#181818;stroke-width:1.0;"/></g><!--reverse link create_app to pht_pkg--><g id="link_create_app_pht_pkg"><path codeLine="106" d="M2907.45,101.41 C3020.74,192.21 3329.08,465.98 3171,642.5 C3152.24,663.45 2955.85,672.7 2889.65,675.24 " fill="none" id="create_app-backto-pht_pkg" style="stroke:#181818;stroke-width:1.0;"/><polygon fill="#181818" points="2903.51,98.26,2908.0469,107.0017,2907.4171,101.38,2913.0388,100.7503,2903.51,98.26" style="stroke:#181818;stroke-width:1.0;"/></g><!--SRC=[bLRBRjim4BpxAmXVcg18lo0ma3H9KQ1f2oVjfIW8cbpPh2akGr8nt2B_tgLasR8iHOek4ZYpZrbobuheM4Ism1WnPqfxa56ZdKoSa6kn13QLcETefqm4LdrojrwoVvC9esVF4avFsUNbdCo5NHgOpOZ2Teyq8WIsXCWbebVQYWY1s62LGstZR5PINze-YxWQSleWqK6dTIEKGLmNhjyLBlxGEZknu3f27Xh4zBndSyZ0WvLmvqKEBV3sgH0HlHPc3i6X3Mt29s44rLZsmAbAOHieS2ETi_CzwwLJB7YFdg-4LKRRvQ3IOtgFp8ga80fjcXbKwBLGStWg8CJRn6kXDuKpMbBgNU0FwpnA244i3DpQgEEsY_OLunqMLdLXF1Thu7vNmfFaK0bkCV8isLSwmNUo6fNeOHHMaqmwkJP4B-Yqzh8LrHiy5e4J2xmLXWVmpz3bltiRSrHW1dUlPFLisfLpzmbkBVyKHYkHEhlds9L5hh57BoGiAAakqarr80QKO52vS0xye9eziqVHdK_7pChjDHMnXJqK2-6zsBQMxxNwY3RJoyANcblm5zoy1h-6oIR6Cuyvf_nFJW9FNPnhnICO26b4yIFBRWE3cn46TRrV6ZCQLIm7DBrtqpbng0EWNatVvUBqsyqZ2zMKPxcsEjT_GJ5jMLpfm9urRAObaOOpsrkDc_FlsDcLKYaUk_h-cTNZFR0LpKkcCxR5Wcs4ZUST6jogqa3lXePnWGzEXANMy91aX7x-uVve6gHDEBsL3ZK_YbIPW1yLPKyUxRxAIu7KGQVRTwoIse8x3F5jqSRNA_3QxHlAvT37aSLAr3TjXlDXNFg1_778QO1r-su8zKWb52OC4bNsMfxb8M_yE5qetDXVAwqKsDyNTSUEODIztO9txJ84JngDrFCdLCcH7kZQviGYKbROSb2GAb9nb6JXBcQCM1yE1eSSki2whpl1_m00]--></g></svg>