<?xml version="1.0" encoding="UTF-8" standalone="no"?><svg xmlns="http://www.w3.org/2000/svg" xmlns:xlink="http://www.w3.org/1999/xlink" contentScriptType="application/ecmascript" contentStyleType="text/css" height="2424px" preserveAspectRatio="none" style="width:1238px;height:2424px;" version="1.1" viewBox="0 0 1238 2424" width="1238px" zoomAndPan="magnify"><defs><filter height="300%" id="f1c2woclpz60hm" width="300%" x="-1" y="-1"><feGaussianBlur result="blurOut" stdDeviation="2.0"/><feColorMatrix in="blurOut" result="blurOut2" type="matrix" values="0 0 0 0 0 0 0 0 0 0 0 0 0 0 0 0 0 0 .4 0"/><feOffset dx="4.0" dy="4.0" in="blurOut2" result="blurOut3"/><feBlend in="SourceGraphic" in2="blurOut3" mode="normal"/></filter></defs><g><line style="stroke: #A80036; stroke-width: 1.0; stroke-dasharray: 5.0,5.0;" x1="30" x2="30" y1="86.2969" y2="2337.5938"/><line style="stroke: #A80036; stroke-width: 1.0; stroke-dasharray: 5.0,5.0;" x1="459" x2="459" y1="86.2969" y2="2337.5938"/><line style="stroke: #A80036; stroke-width: 1.0; stroke-dasharray: 5.0,5.0;" x1="927.5" x2="927.5" y1="86.2969" y2="2337.5938"/><line style="stroke: #A80036; stroke-width: 1.0; stroke-dasharray: 5.0,5.0;" x1="1025.5" x2="1025.5" y1="86.2969" y2="2337.5938"/><line style="stroke: #A80036; stroke-width: 1.0; stroke-dasharray: 5.0,5.0;" x1="1125.5" x2="1125.5" y1="86.2969" y2="2337.5938"/><line style="stroke: #A80036; stroke-width: 1.0; stroke-dasharray: 5.0,5.0;" x1="1196.5" x2="1196.5" y1="86.2969" y2="2337.5938"/><text fill="#000000" font-family="sans-serif" font-size="14" lengthAdjust="spacingAndGlyphs" textLength="39" x="8" y="82.9951">Client</text><ellipse cx="30.5" cy="13" fill="#FEFECE" filter="url(#f1c2woclpz60hm)" rx="8" ry="8" style="stroke: #A80036; stroke-width: 2.0;"/><path d="M30.5,21 L30.5,48 M17.5,29 L43.5,29 M30.5,48 L17.5,63 M30.5,48 L43.5,63 " fill="none" filter="url(#f1c2woclpz60hm)" style="stroke: #A80036; stroke-width: 2.0;"/><text fill="#000000" font-family="sans-serif" font-size="14" lengthAdjust="spacingAndGlyphs" textLength="39" x="8" y="2349.5889">Client</text><ellipse cx="30.5" cy="2362.8906" fill="#FEFECE" filter="url(#f1c2woclpz60hm)" rx="8" ry="8" style="stroke: #A80036; stroke-width: 2.0;"/><path d="M30.5,2370.8906 L30.5,2397.8906 M17.5,2378.8906 L43.5,2378.8906 M30.5,2397.8906 L17.5,2412.8906 M30.5,2397.8906 L43.5,2412.8906 " fill="none" filter="url(#f1c2woclpz60hm)" style="stroke: #A80036; stroke-width: 2.0;"/><rect fill="#FEFECE" filter="url(#f1c2woclpz60hm)" height="30.2969" style="stroke: #A80036; stroke-width: 1.5;" width="89" x="413" y="51"/><text fill="#000000" font-family="sans-serif" font-size="14" lengthAdjust="spacingAndGlyphs" textLength="75" x="420" y="70.9951">API Service</text><rect fill="#FEFECE" filter="url(#f1c2woclpz60hm)" height="30.2969" style="stroke: #A80036; stroke-width: 1.5;" width="89" x="413" y="2336.5938"/><text fill="#000000" font-family="sans-serif" font-size="14" lengthAdjust="spacingAndGlyphs" textLength="75" x="420" y="2356.5889">API Service</text><text fill="#000000" font-family="sans-serif" font-size="14" lengthAdjust="spacingAndGlyphs" textLength="66" x="891.5" y="82.9951">Database</text><path d="M909.5,34 C909.5,24 927.5,24 927.5,24 C927.5,24 945.5,24 945.5,34 L945.5,60 C945.5,70 927.5,70 927.5,70 C927.5,70 909.5,70 909.5,60 L909.5,34 " fill="#FEFECE" filter="url(#f1c2woclpz60hm)" style="stroke: #000000; stroke-width: 1.5;"/><path d="M909.5,34 C909.5,44 927.5,44 927.5,44 C927.5,44 945.5,44 945.5,34 " fill="none" style="stroke: #000000; stroke-width: 1.5;"/><text fill="#000000" font-family="sans-serif" font-size="14" lengthAdjust="spacingAndGlyphs" textLength="66" x="891.5" y="2349.5889">Database</text><path d="M909.5,2362.8906 C909.5,2352.8906 927.5,2352.8906 927.5,2352.8906 C927.5,2352.8906 945.5,2352.8906 945.5,2362.8906 L945.5,2388.8906 C945.5,2398.8906 927.5,2398.8906 927.5,2398.8906 C927.5,2398.8906 909.5,2398.8906 909.5,2388.8906 L909.5,2362.8906 " fill="#FEFECE" filter="url(#f1c2woclpz60hm)" style="stroke: #000000; stroke-width: 1.5;"/><path d="M909.5,2362.8906 C909.5,2372.8906 927.5,2372.8906 927.5,2372.8906 C927.5,2372.8906 945.5,2372.8906 945.5,2362.8906 " fill="none" style="stroke: #000000; stroke-width: 1.5;"/><rect fill="#FEFECE" filter="url(#f1c2woclpz60hm)" height="30.2969" style="stroke: #A80036; stroke-width: 1.5;" width="101" x="973.5" y="51"/><text fill="#000000" font-family="sans-serif" font-size="14" lengthAdjust="spacingAndGlyphs" textLength="87" x="980.5" y="70.9951">Email_Server</text><rect fill="#FEFECE" filter="url(#f1c2woclpz60hm)" height="30.2969" style="stroke: #A80036; stroke-width: 1.5;" width="101" x="973.5" y="2336.5938"/><text fill="#000000" font-family="sans-serif" font-size="14" lengthAdjust="spacingAndGlyphs" textLength="87" x="980.5" y="2356.5889">Email_Server</text><rect fill="#FEFECE" filter="url(#f1c2woclpz60hm)" height="30.2969" style="stroke: #A80036; stroke-width: 1.5;" width="70" x="1088.5" y="51"/><text fill="#000000" font-family="sans-serif" font-size="14" lengthAdjust="spacingAndGlyphs" textLength="56" x="1095.5" y="70.9951">AWS_S3</text><rect fill="#FEFECE" filter="url(#f1c2woclpz60hm)" height="30.2969" style="stroke: #A80036; stroke-width: 1.5;" width="70" x="1088.5" y="2336.5938"/><text fill="#000000" font-family="sans-serif" font-size="14" lengthAdjust="spacingAndGlyphs" textLength="56" x="1095.5" y="2356.5889">AWS_S3</text><rect fill="#FEFECE" filter="url(#f1c2woclpz60hm)" height="30.2969" style="stroke: #A80036; stroke-width: 1.5;" width="45" x="1172.5" y="51"/><text fill="#000000" font-family="sans-serif" font-size="14" lengthAdjust="spacingAndGlyphs" textLength="31" x="1179.5" y="70.9951">OSD</text><rect fill="#FEFECE" filter="url(#f1c2woclpz60hm)" height="30.2969" style="stroke: #A80036; stroke-width: 1.5;" width="45" x="1172.5" y="2336.5938"/><text fill="#000000" font-family="sans-serif" font-size="14" lengthAdjust="spacingAndGlyphs" textLength="31" x="1179.5" y="2356.5889">OSD</text><rect fill="#EEEEEE" filter="url(#f1c2woclpz60hm)" height="3" style="stroke: #EEEEEE; stroke-width: 1.0;" width="1223.5" x="3" y="116.8633"/><line style="stroke: #000000; stroke-width: 1.0;" x1="3" x2="1226.5" y1="116.8633" y2="116.8633"/><line style="stroke: #000000; stroke-width: 1.0;" x1="3" x2="1226.5" y1="119.8633" y2="119.8633"/><rect fill="#EEEEEE" filter="url(#f1c2woclpz60hm)" height="23.1328" style="stroke: #000000; stroke-width: 2.0;" width="186" x="521.75" y="106.2969"/><text fill="#000000" font-family="sans-serif" font-size="13" font-weight="bold" lengthAdjust="spacingAndGlyphs" textLength="167" x="527.75" y="122.3638">POST: Create Proposal</text><polygon fill="#A80036" points="447.5,156.5625,457.5,160.5625,447.5,164.5625,451.5,160.5625" style="stroke: #A80036; stroke-width: 1.0;"/><line style="stroke: #A80036; stroke-width: 1.0;" x1="30.5" x2="453.5" y1="160.5625" y2="160.5625"/><text fill="#000000" font-family="sans-serif" font-size="13" lengthAdjust="spacingAndGlyphs" textLength="181" x="37.5" y="155.4966">POST /prsls/create (payload)</text><polygon fill="#A80036" points="915.5,185.6953,925.5,189.6953,915.5,193.6953,919.5,189.6953" style="stroke: #A80036; stroke-width: 1.0;"/><line style="stroke: #A80036; stroke-width: 1.0;" x1="459.5" x2="921.5" y1="189.6953" y2="189.6953"/><text fill="#000000" font-family="sans-serif" font-size="13" lengthAdjust="spacingAndGlyphs" textLength="119" x="466.5" y="184.6294">INSERT new record</text><polygon fill="#A80036" points="470.5,214.8281,460.5,218.8281,470.5,222.8281,466.5,218.8281" style="stroke: #A80036; stroke-width: 1.0;"/><line style="stroke: #A80036; stroke-width: 1.0; stroke-dasharray: 2.0,2.0;" x1="464.5" x2="926.5" y1="218.8281" y2="218.8281"/><text fill="#000000" font-family="sans-serif" font-size="13" lengthAdjust="spacingAndGlyphs" textLength="118" x="476.5" y="213.7622">Insert success (ID)</text><polygon fill="#A80036" points="41.5,243.9609,31.5,247.9609,41.5,251.9609,37.5,247.9609" style="stroke: #A80036; stroke-width: 1.0;"/><line style="stroke: #A80036; stroke-width: 1.0; stroke-dasharray: 2.0,2.0;" x1="35.5" x2="458.5" y1="247.9609" y2="247.9609"/><text fill="#000000" font-family="sans-serif" font-size="13" lengthAdjust="spacingAndGlyphs" textLength="165" x="47.5" y="242.895">201 Created (proposal ID)</text><polygon fill="#A80036" points="470.5,273.0938,460.5,277.0938,470.5,281.0938,466.5,277.0938" style="stroke: #A80036; stroke-width: 1.0;"/><line style="stroke: #A80036; stroke-width: 1.0; stroke-dasharray: 2.0,2.0;" x1="464.5" x2="926.5" y1="277.0938" y2="277.0938"/><text fill="#000000" font-family="sans-serif" font-size="13" lengthAdjust="spacingAndGlyphs" textLength="202" x="476.5" y="272.0278">Insert failure (Validation ERROR)</text><polygon fill="#A80036" points="41.5,302.2266,31.5,306.2266,41.5,310.2266,37.5,306.2266" style="stroke: #A80036; stroke-width: 1.0;"/><line style="stroke: #A80036; stroke-width: 1.0; stroke-dasharray: 2.0,2.0;" x1="35.5" x2="458.5" y1="306.2266" y2="306.2266"/><text fill="#000000" font-family="sans-serif" font-size="13" lengthAdjust="spacingAndGlyphs" textLength="126" x="47.5" y="301.1606">422 Validation Error</text><polygon fill="#A80036" points="470.5,331.3594,460.5,335.3594,470.5,339.3594,466.5,335.3594" style="stroke: #A80036; stroke-width: 1.0;"/><line style="stroke: #A80036; stroke-width: 1.0; stroke-dasharray: 2.0,2.0;" x1="464.5" x2="926.5" y1="335.3594" y2="335.3594"/><text fill="#000000" font-family="sans-serif" font-size="13" lengthAdjust="spacingAndGlyphs" textLength="135" x="476.5" y="330.2935">Insert failure (ERROR)</text><polygon fill="#A80036" points="41.5,360.4922,31.5,364.4922,41.5,368.4922,37.5,364.4922" style="stroke: #A80036; stroke-width: 1.0;"/><line style="stroke: #A80036; stroke-width: 1.0; stroke-dasharray: 2.0,2.0;" x1="35.5" x2="458.5" y1="364.4922" y2="364.4922"/><text fill="#000000" font-family="sans-serif" font-size="13" lengthAdjust="spacingAndGlyphs" textLength="320" x="47.5" y="359.4263">400 (Failed when attempting to create a proposal)</text><rect fill="#EEEEEE" filter="url(#f1c2woclpz60hm)" height="3" style="stroke: #EEEEEE; stroke-width: 1.0;" width="1223.5" x="3" y="393.0586"/><line style="stroke: #000000; stroke-width: 1.0;" x1="3" x2="1226.5" y1="393.0586" y2="393.0586"/><line style="stroke: #000000; stroke-width: 1.0;" x1="3" x2="1226.5" y1="396.0586" y2="396.0586"/><rect fill="#EEEEEE" filter="url(#f1c2woclpz60hm)" height="23.1328" style="stroke: #000000; stroke-width: 2.0;" width="188" x="520.75" y="382.4922"/><text fill="#000000" font-family="sans-serif" font-size="13" font-weight="bold" lengthAdjust="spacingAndGlyphs" textLength="169" x="526.75" y="398.5591">GET: Retrieve Proposal</text><polygon fill="#A80036" points="447.5,432.7578,457.5,436.7578,447.5,440.7578,451.5,436.7578" style="stroke: #A80036; stroke-width: 1.0;"/><line style="stroke: #A80036; stroke-width: 1.0;" x1="30.5" x2="453.5" y1="436.7578" y2="436.7578"/><text fill="#000000" font-family="sans-serif" font-size="13" lengthAdjust="spacingAndGlyphs" textLength="156" x="37.5" y="431.6919">GET /prsls/{proposal_id}</text><polygon fill="#A80036" points="915.5,461.8906,925.5,465.8906,915.5,469.8906,919.5,465.8906" style="stroke: #A80036; stroke-width: 1.0;"/><line style="stroke: #A80036; stroke-width: 1.0;" x1="459.5" x2="921.5" y1="465.8906" y2="465.8906"/><text fill="#000000" font-family="sans-serif" font-size="13" lengthAdjust="spacingAndGlyphs" textLength="188" x="466.5" y="460.8247">SELECT record by proposal ID</text><polygon fill="#A80036" points="470.5,491.0234,460.5,495.0234,470.5,499.0234,466.5,495.0234" style="stroke: #A80036; stroke-width: 1.0;"/><line style="stroke: #A80036; stroke-width: 1.0; stroke-dasharray: 2.0,2.0;" x1="464.5" x2="926.5" y1="495.0234" y2="495.0234"/><text fill="#000000" font-family="sans-serif" font-size="13" lengthAdjust="spacingAndGlyphs" textLength="87" x="476.5" y="489.9575">Return record</text><polygon fill="#A80036" points="41.5,520.1563,31.5,524.1563,41.5,528.1563,37.5,524.1563" style="stroke: #A80036; stroke-width: 1.0;"/><line style="stroke: #A80036; stroke-width: 1.0; stroke-dasharray: 2.0,2.0;" x1="35.5" x2="458.5" y1="524.1563" y2="524.1563"/><text fill="#000000" font-family="sans-serif" font-size="13" lengthAdjust="spacingAndGlyphs" textLength="148" x="47.5" y="519.0903">200 OK (proposal data)</text><polygon fill="#A80036" points="470.5,549.2891,460.5,553.2891,470.5,557.2891,466.5,553.2891" style="stroke: #A80036; stroke-width: 1.0;"/><line style="stroke: #A80036; stroke-width: 1.0; stroke-dasharray: 2.0,2.0;" x1="464.5" x2="926.5" y1="553.2891" y2="553.2891"/><text fill="#000000" font-family="sans-serif" font-size="13" lengthAdjust="spacingAndGlyphs" textLength="137" x="476.5" y="548.2231">Query failure (ERROR)</text><polygon fill="#A80036" points="41.5,578.4219,31.5,582.4219,41.5,586.4219,37.5,582.4219" style="stroke: #A80036; stroke-width: 1.0;"/><line style="stroke: #A80036; stroke-width: 1.0; stroke-dasharray: 2.0,2.0;" x1="35.5" x2="458.5" y1="582.4219" y2="582.4219"/><text fill="#000000" font-family="sans-serif" font-size="13" lengthAdjust="spacingAndGlyphs" textLength="405" x="47.5" y="577.356">404 (The requested identifier {proposal_id} could not be found)</text><rect fill="#EEEEEE" filter="url(#f1c2woclpz60hm)" height="3" style="stroke: #EEEEEE; stroke-width: 1.0;" width="1223.5" x="3" y="610.9883"/><line style="stroke: #000000; stroke-width: 1.0;" x1="3" x2="1226.5" y1="610.9883" y2="610.9883"/><line style="stroke: #000000; stroke-width: 1.0;" x1="3" x2="1226.5" y1="613.9883" y2="613.9883"/><rect fill="#EEEEEE" filter="url(#f1c2woclpz60hm)" height="23.1328" style="stroke: #000000; stroke-width: 2.0;" width="181" x="524.25" y="600.4219"/><text fill="#000000" font-family="sans-serif" font-size="13" font-weight="bold" lengthAdjust="spacingAndGlyphs" textLength="162" x="530.25" y="616.4888">PUT: Update Proposal</text><polygon fill="#A80036" points="447.5,650.6875,457.5,654.6875,447.5,658.6875,451.5,654.6875" style="stroke: #A80036; stroke-width: 1.0;"/><line style="stroke: #A80036; stroke-width: 1.0;" x1="30.5" x2="453.5" y1="654.6875" y2="654.6875"/><text fill="#000000" font-family="sans-serif" font-size="13" lengthAdjust="spacingAndGlyphs" textLength="220" x="37.5" y="649.6216">PUT /prsls/{proposal_id} (payload)</text><polygon fill="#A80036" points="915.5,679.8203,925.5,683.8203,915.5,687.8203,919.5,683.8203" style="stroke: #A80036; stroke-width: 1.0;"/><line style="stroke: #A80036; stroke-width: 1.0;" x1="459.5" x2="921.5" y1="683.8203" y2="683.8203"/><text fill="#000000" font-family="sans-serif" font-size="13" lengthAdjust="spacingAndGlyphs" textLength="142" x="466.5" y="678.7544">Verify proposal is valid</text><polygon fill="#A80036" points="470.5,708.9531,460.5,712.9531,470.5,716.9531,466.5,712.9531" style="stroke: #A80036; stroke-width: 1.0;"/><line style="stroke: #A80036; stroke-width: 1.0; stroke-dasharray: 2.0,2.0;" x1="464.5" x2="926.5" y1="712.9531" y2="712.9531"/><text fill="#000000" font-family="sans-serif" font-size="13" lengthAdjust="spacingAndGlyphs" textLength="417" x="476.5" y="707.8872">422 Validation Error (Proposal ID in path and body do not match.)</text><polygon fill="#A80036" points="41.5,738.0859,31.5,742.0859,41.5,746.0859,37.5,742.0859" style="stroke: #A80036; stroke-width: 1.0;"/><line style="stroke: #A80036; stroke-width: 1.0; stroke-dasharray: 2.0,2.0;" x1="35.5" x2="458.5" y1="742.0859" y2="742.0859"/><text fill="#000000" font-family="sans-serif" font-size="13" lengthAdjust="spacingAndGlyphs" textLength="244" x="47.5" y="737.02">42    2 Validation Error (proposal data)</text><polygon fill="#A80036" points="915.5,767.2188,925.5,771.2188,915.5,775.2188,919.5,771.2188" style="stroke: #A80036; stroke-width: 1.0;"/><line style="stroke: #A80036; stroke-width: 1.0;" x1="459.5" x2="921.5" y1="771.2188" y2="771.2188"/><text fill="#000000" font-family="sans-serif" font-size="13" lengthAdjust="spacingAndGlyphs" textLength="136" x="466.5" y="766.1528">Verify proposal exists</text><polygon fill="#A80036" points="470.5,796.3516,460.5,800.3516,470.5,804.3516,466.5,800.3516" style="stroke: #A80036; stroke-width: 1.0;"/><line style="stroke: #A80036; stroke-width: 1.0; stroke-dasharray: 2.0,2.0;" x1="464.5" x2="926.5" y1="800.3516" y2="800.3516"/><text fill="#000000" font-family="sans-serif" font-size="13" lengthAdjust="spacingAndGlyphs" textLength="444" x="476.5" y="795.2856">404 Error (The requested identifier {proposal_id} could not be found.)</text><polygon fill="#A80036" points="41.5,825.4844,31.5,829.4844,41.5,833.4844,37.5,829.4844" style="stroke: #A80036; stroke-width: 1.0;"/><line style="stroke: #A80036; stroke-width: 1.0; stroke-dasharray: 2.0,2.0;" x1="35.5" x2="458.5" y1="829.4844" y2="829.4844"/><text fill="#000000" font-family="sans-serif" font-size="13" lengthAdjust="spacingAndGlyphs" textLength="161" x="47.5" y="824.4185">404 Error (proposal data)</text><polygon fill="#A80036" points="470.5,854.6172,460.5,858.6172,470.5,862.6172,466.5,858.6172" style="stroke: #A80036; stroke-width: 1.0;"/><line style="stroke: #A80036; stroke-width: 1.0; stroke-dasharray: 2.0,2.0;" x1="464.5" x2="926.5" y1="858.6172" y2="858.6172"/><text fill="#000000" font-family="sans-serif" font-size="13" lengthAdjust="spacingAndGlyphs" textLength="154" x="476.5" y="853.5513">Success (Return record)</text><polygon fill="#A80036" points="915.5,883.75,925.5,887.75,915.5,891.75,919.5,887.75" style="stroke: #A80036; stroke-width: 1.0;"/><line style="stroke: #A80036; stroke-width: 1.0;" x1="459.5" x2="921.5" y1="887.75" y2="887.75"/><text fill="#000000" font-family="sans-serif" font-size="13" lengthAdjust="spacingAndGlyphs" textLength="187" x="466.5" y="882.6841">Update record by proposal ID</text><polygon fill="#A80036" points="470.5,912.8828,460.5,916.8828,470.5,920.8828,466.5,916.8828" style="stroke: #A80036; stroke-width: 1.0;"/><line style="stroke: #A80036; stroke-width: 1.0; stroke-dasharray: 2.0,2.0;" x1="464.5" x2="926.5" y1="916.8828" y2="916.8828"/><text fill="#000000" font-family="sans-serif" font-size="13" lengthAdjust="spacingAndGlyphs" textLength="228" x="476.5" y="911.8169">Update success (updated proposal)</text><polygon fill="#A80036" points="41.5,942.0156,31.5,946.0156,41.5,950.0156,37.5,946.0156" style="stroke: #A80036; stroke-width: 1.0;"/><line style="stroke: #A80036; stroke-width: 1.0; stroke-dasharray: 2.0,2.0;" x1="35.5" x2="458.5" y1="946.0156" y2="946.0156"/><text fill="#000000" font-family="sans-serif" font-size="13" lengthAdjust="spacingAndGlyphs" textLength="205" x="47.5" y="940.9497">200 OK (updated proposal data)</text><polygon fill="#A80036" points="470.5,971.1484,460.5,975.1484,470.5,979.1484,466.5,975.1484" style="stroke: #A80036; stroke-width: 1.0;"/><line style="stroke: #A80036; stroke-width: 1.0; stroke-dasharray: 2.0,2.0;" x1="464.5" x2="926.5" y1="975.1484" y2="975.1484"/><text fill="#000000" font-family="sans-serif" font-size="13" lengthAdjust="spacingAndGlyphs" textLength="135" x="476.5" y="970.0825">Update failure (error)</text><polygon fill="#A80036" points="41.5,1000.2813,31.5,1004.2813,41.5,1008.2813,37.5,1004.2813" style="stroke: #A80036; stroke-width: 1.0;"/><line style="stroke: #A80036; stroke-width: 1.0; stroke-dasharray: 2.0,2.0;" x1="35.5" x2="458.5" y1="1004.2813" y2="1004.2813"/><text fill="#000000" font-family="sans-serif" font-size="13" lengthAdjust="spacingAndGlyphs" textLength="371" x="47.5" y="999.2153">400 BAD REQUEST (Validation error while saving proposal)</text><rect fill="#EEEEEE" filter="url(#f1c2woclpz60hm)" height="3" style="stroke: #EEEEEE; stroke-width: 1.0;" width="1223.5" x="3" y="1032.8477"/><line style="stroke: #000000; stroke-width: 1.0;" x1="3" x2="1226.5" y1="1032.8477" y2="1032.8477"/><line style="stroke: #000000; stroke-width: 1.0;" x1="3" x2="1226.5" y1="1035.8477" y2="1035.8477"/><rect fill="#EEEEEE" filter="url(#f1c2woclpz60hm)" height="23.1328" style="stroke: #000000; stroke-width: 2.0;" width="183" x="523.25" y="1022.2813"/><text fill="#000000" font-family="sans-serif" font-size="13" font-weight="bold" lengthAdjust="spacingAndGlyphs" textLength="164" x="529.25" y="1038.3481">GET: List all proposals</text><polygon fill="#A80036" points="447.5,1072.5469,457.5,1076.5469,447.5,1080.5469,451.5,1076.5469" style="stroke: #A80036; stroke-width: 1.0;"/><line style="stroke: #A80036; stroke-width: 1.0;" x1="30.5" x2="453.5" y1="1076.5469" y2="1076.5469"/><text fill="#000000" font-family="sans-serif" font-size="13" lengthAdjust="spacingAndGlyphs" textLength="129" x="37.5" y="1071.481">GET /prsls/{user_id}</text><polygon fill="#A80036" points="915.5,1101.6797,925.5,1105.6797,915.5,1109.6797,919.5,1105.6797" style="stroke: #A80036; stroke-width: 1.0;"/><line style="stroke: #A80036; stroke-width: 1.0;" x1="459.5" x2="921.5" y1="1105.6797" y2="1105.6797"/><text fill="#000000" font-family="sans-serif" font-size="13" lengthAdjust="spacingAndGlyphs" textLength="186" x="466.5" y="1100.6138">SELECT all records by user ID</text><polygon fill="#A80036" points="470.5,1130.8125,460.5,1134.8125,470.5,1138.8125,466.5,1134.8125" style="stroke: #A80036; stroke-width: 1.0;"/><line style="stroke: #A80036; stroke-width: 1.0; stroke-dasharray: 2.0,2.0;" x1="464.5" x2="926.5" y1="1134.8125" y2="1134.8125"/><text fill="#000000" font-family="sans-serif" font-size="13" lengthAdjust="spacingAndGlyphs" textLength="104" x="476.5" y="1129.7466">Return record(s)</text><polygon fill="#A80036" points="41.5,1159.9453,31.5,1163.9453,41.5,1167.9453,37.5,1163.9453" style="stroke: #A80036; stroke-width: 1.0;"/><line style="stroke: #A80036; stroke-width: 1.0; stroke-dasharray: 2.0,2.0;" x1="35.5" x2="458.5" y1="1163.9453" y2="1163.9453"/><text fill="#000000" font-family="sans-serif" font-size="13" lengthAdjust="spacingAndGlyphs" textLength="180" x="47.5" y="1158.8794">200 OK (List[proposal data])</text><rect fill="#EEEEEE" filter="url(#f1c2woclpz60hm)" height="3" style="stroke: #EEEEEE; stroke-width: 1.0;" width="1223.5" x="3" y="1192.5117"/><line style="stroke: #000000; stroke-width: 1.0;" x1="3" x2="1226.5" y1="1192.5117" y2="1192.5117"/><line style="stroke: #000000; stroke-width: 1.0;" x1="3" x2="1226.5" y1="1195.5117" y2="1195.5117"/><rect fill="#EEEEEE" filter="url(#f1c2woclpz60hm)" height="23.1328" style="stroke: #000000; stroke-width: 2.0;" width="198" x="515.75" y="1181.9453"/><text fill="#000000" font-family="sans-serif" font-size="13" font-weight="bold" lengthAdjust="spacingAndGlyphs" textLength="179" x="521.75" y="1198.0122">POST: Validate proposal</text><polygon fill="#A80036" points="447.5,1232.2109,457.5,1236.2109,447.5,1240.2109,451.5,1236.2109" style="stroke: #A80036; stroke-width: 1.0;"/><line style="stroke: #A80036; stroke-width: 1.0;" x1="30.5" x2="453.5" y1="1236.2109" y2="1236.2109"/><text fill="#000000" font-family="sans-serif" font-size="13" lengthAdjust="spacingAndGlyphs" textLength="190" x="37.5" y="1231.145">POST /prsls/validate (payload)</text><line style="stroke: #A80036; stroke-width: 1.0;" x1="459.5" x2="501.5" y1="1265.3438" y2="1265.3438"/><line style="stroke: #A80036; stroke-width: 1.0;" x1="501.5" x2="501.5" y1="1265.3438" y2="1278.3438"/><line style="stroke: #A80036; stroke-width: 1.0;" x1="460.5" x2="501.5" y1="1278.3438" y2="1278.3438"/><polygon fill="#A80036" points="470.5,1274.3438,460.5,1278.3438,470.5,1282.3438,466.5,1278.3438" style="stroke: #A80036; stroke-width: 1.0;"/><text fill="#000000" font-family="sans-serif" font-size="13" lengthAdjust="spacingAndGlyphs" textLength="180" x="466.5" y="1260.2778">Verify observation set exists</text><line style="stroke: #A80036; stroke-width: 1.0;" x1="459.5" x2="501.5" y1="1307.4766" y2="1307.4766"/><line style="stroke: #A80036; stroke-width: 1.0;" x1="501.5" x2="501.5" y1="1307.4766" y2="1320.4766"/><line style="stroke: #A80036; stroke-width: 1.0;" x1="460.5" x2="501.5" y1="1320.4766" y2="1320.4766"/><polygon fill="#A80036" points="470.5,1316.4766,460.5,1320.4766,470.5,1324.4766,466.5,1320.4766" style="stroke: #A80036; stroke-width: 1.0;"/><text fill="#000000" font-family="sans-serif" font-size="13" lengthAdjust="spacingAndGlyphs" textLength="444" x="466.5" y="1302.4106">Verify each observation target has a valid sensitivity calculation result</text><line style="stroke: #A80036; stroke-width: 1.0;" x1="459.5" x2="501.5" y1="1349.6094" y2="1349.6094"/><line style="stroke: #A80036; stroke-width: 1.0;" x1="501.5" x2="501.5" y1="1349.6094" y2="1362.6094"/><line style="stroke: #A80036; stroke-width: 1.0;" x1="460.5" x2="501.5" y1="1362.6094" y2="1362.6094"/><polygon fill="#A80036" points="470.5,1358.6094,460.5,1362.6094,470.5,1366.6094,466.5,1362.6094" style="stroke: #A80036; stroke-width: 1.0;"/><text fill="#000000" font-family="sans-serif" font-size="13" lengthAdjust="spacingAndGlyphs" textLength="331" x="466.5" y="1344.5435">Verify each observation sets has at least one target</text><polygon fill="#A80036" points="41.5,1387.7422,31.5,1391.7422,41.5,1395.7422,37.5,1391.7422" style="stroke: #A80036; stroke-width: 1.0;"/><line style="stroke: #A80036; stroke-width: 1.0; stroke-dasharray: 2.0,2.0;" x1="35.5" x2="458.5" y1="1391.7422" y2="1391.7422"/><text fill="#000000" font-family="sans-serif" font-size="13" lengthAdjust="spacingAndGlyphs" textLength="373" x="47.5" y="1386.6763">200 OK (dict: { "result": bool, "validation_errors": list[str] })</text><rect fill="#EEEEEE" filter="url(#f1c2woclpz60hm)" height="3" style="stroke: #EEEEEE; stroke-width: 1.0;" width="1223.5" x="3" y="1420.3086"/><line style="stroke: #000000; stroke-width: 1.0;" x1="3" x2="1226.5" y1="1420.3086" y2="1420.3086"/><line style="stroke: #000000; stroke-width: 1.0;" x1="3" x2="1226.5" y1="1423.3086" y2="1423.3086"/><rect fill="#EEEEEE" filter="url(#f1c2woclpz60hm)" height="23.1328" style="stroke: #000000; stroke-width: 2.0;" width="149" x="540.25" y="1409.7422"/><text fill="#000000" font-family="sans-serif" font-size="13" font-weight="bold" lengthAdjust="spacingAndGlyphs" textLength="130" x="546.25" y="1425.8091">POST: Send email</text><polygon fill="#A80036" points="447.5,1460.0078,457.5,1464.0078,447.5,1468.0078,451.5,1464.0078" style="stroke: #A80036; stroke-width: 1.0;"/><line style="stroke: #A80036; stroke-width: 1.0;" x1="30.5" x2="453.5" y1="1464.0078" y2="1464.0078"/><text fill="#000000" font-family="sans-serif" font-size="13" lengthAdjust="spacingAndGlyphs" textLength="147" x="37.5" y="1458.9419">POST /prsls/send-email</text><line style="stroke: #A80036; stroke-width: 1.0;" x1="459.5" x2="501.5" y1="1493.1406" y2="1493.1406"/><line style="stroke: #A80036; stroke-width: 1.0;" x1="501.5" x2="501.5" y1="1493.1406" y2="1506.1406"/><line style="stroke: #A80036; stroke-width: 1.0;" x1="460.5" x2="501.5" y1="1506.1406" y2="1506.1406"/><polygon fill="#A80036" points="470.5,1502.1406,460.5,1506.1406,470.5,1510.1406,466.5,1506.1406" style="stroke: #A80036; stroke-width: 1.0;"/><text fill="#000000" font-family="sans-serif" font-size="13" lengthAdjust="spacingAndGlyphs" textLength="163" x="466.5" y="1488.0747">Verify valid email address</text><polygon fill="#A80036" points="41.5,1531.2734,31.5,1535.2734,41.5,1539.2734,37.5,1535.2734" style="stroke: #A80036; stroke-width: 1.0;"/><line style="stroke: #A80036; stroke-width: 1.0; stroke-dasharray: 2.0,2.0;" x1="35.5" x2="458.5" y1="1535.2734" y2="1535.2734"/><text fill="#000000" font-family="sans-serif" font-size="13" lengthAdjust="spacingAndGlyphs" textLength="389" x="47.5" y="1530.2075">422 Unprocessable Entity (value is not a valid email address)</text><polygon fill="#A80036" points="1014,1560.4063,1024,1564.4063,1014,1568.4063,1018,1564.4063" style="stroke: #A80036; stroke-width: 1.0;"/><line style="stroke: #A80036; stroke-width: 1.0;" x1="459.5" x2="1020" y1="1564.4063" y2="1564.4063"/><text fill="#000000" font-family="sans-serif" font-size="13" lengthAdjust="spacingAndGlyphs" textLength="153" x="466.5" y="1559.3403">Connect to email server</text><polygon fill="#A80036" points="1014,1589.5391,1024,1593.5391,1014,1597.5391,1018,1593.5391" style="stroke: #A80036; stroke-width: 1.0;"/><line style="stroke: #A80036; stroke-width: 1.0;" x1="459.5" x2="1020" y1="1593.5391" y2="1593.5391"/><text fill="#000000" font-family="sans-serif" font-size="13" lengthAdjust="spacingAndGlyphs" textLength="72" x="466.5" y="1588.4731">Send email</text><polygon fill="#A80036" points="41.5,1618.6719,31.5,1622.6719,41.5,1626.6719,37.5,1622.6719" style="stroke: #A80036; stroke-width: 1.0;"/><line style="stroke: #A80036; stroke-width: 1.0; stroke-dasharray: 2.0,2.0;" x1="35.5" x2="458.5" y1="1622.6719" y2="1622.6719"/><text fill="#000000" font-family="sans-serif" font-size="13" lengthAdjust="spacingAndGlyphs" textLength="235" x="47.5" y="1617.606">200 Success (Email sent succesfully)</text><rect fill="#EEEEEE" filter="url(#f1c2woclpz60hm)" height="3" style="stroke: #EEEEEE; stroke-width: 1.0;" width="1223.5" x="3" y="1651.2383"/><line style="stroke: #000000; stroke-width: 1.0;" x1="3" x2="1226.5" y1="1651.2383" y2="1651.2383"/><line style="stroke: #000000; stroke-width: 1.0;" x1="3" x2="1226.5" y1="1654.2383" y2="1654.2383"/><rect fill="#EEEEEE" filter="url(#f1c2woclpz60hm)" height="23.1328" style="stroke: #000000; stroke-width: 2.0;" width="324" x="452.75" y="1640.6719"/><text fill="#000000" font-family="sans-serif" font-size="13" font-weight="bold" lengthAdjust="spacingAndGlyphs" textLength="305" x="458.75" y="1656.7388">POST: Generate signed url for file upload</text><polygon fill="#A80036" points="447.5,1690.9375,457.5,1694.9375,447.5,1698.9375,451.5,1694.9375" style="stroke: #A80036; stroke-width: 1.0;"/><line style="stroke: #A80036; stroke-width: 1.0;" x1="30.5" x2="453.5" y1="1694.9375" y2="1694.9375"/><text fill="#000000" font-family="sans-serif" font-size="13" lengthAdjust="spacingAndGlyphs" textLength="261" x="37.5" y="1689.8716">POST /prsls/signed-url/upload/{filename}</text><polygon fill="#A80036" points="447.5,1720.0703,457.5,1724.0703,447.5,1728.0703,451.5,1724.0703" style="stroke: #A80036; stroke-width: 1.0;"/><line style="stroke: #A80036; stroke-width: 1.0;" x1="30.5" x2="453.5" y1="1724.0703" y2="1724.0703"/><text fill="#000000" font-family="sans-serif" font-size="13" lengthAdjust="spacingAndGlyphs" textLength="111" x="37.5" y="1719.0044">Validate filename</text><polygon fill="#A80036" points="41.5,1749.2031,31.5,1753.2031,41.5,1757.2031,37.5,1753.2031" style="stroke: #A80036; stroke-width: 1.0;"/><line style="stroke: #A80036; stroke-width: 1.0; stroke-dasharray: 2.0,2.0;" x1="35.5" x2="458.5" y1="1753.2031" y2="1753.2031"/><text fill="#000000" font-family="sans-serif" font-size="13" lengthAdjust="spacingAndGlyphs" textLength="276" x="47.5" y="1748.1372">422 Unprocessable Entity (Invalid filename)</text><polygon fill="#A80036" points="1113.5,1778.3359,1123.5,1782.3359,1113.5,1786.3359,1117.5,1782.3359" style="stroke: #A80036; stroke-width: 1.0;"/><line style="stroke: #A80036; stroke-width: 1.0;" x1="459.5" x2="1119.5" y1="1782.3359" y2="1782.3359"/><text fill="#000000" font-family="sans-serif" font-size="13" lengthAdjust="spacingAndGlyphs" textLength="141" x="466.5" y="1777.27">Connect to AWS client</text><polygon fill="#A80036" points="470.5,1807.4688,460.5,1811.4688,470.5,1815.4688,466.5,1811.4688" style="stroke: #A80036; stroke-width: 1.0;"/><line style="stroke: #A80036; stroke-width: 1.0;" x1="464.5" x2="1124.5" y1="1811.4688" y2="1811.4688"/><text fill="#000000" font-family="sans-serif" font-size="13" lengthAdjust="spacingAndGlyphs" textLength="149" x="476.5" y="1806.4028">Generate url (filename)</text><polygon fill="#A80036" points="41.5,1836.6016,31.5,1840.6016,41.5,1844.6016,37.5,1840.6016" style="stroke: #A80036; stroke-width: 1.0;"/><line style="stroke: #A80036; stroke-width: 1.0; stroke-dasharray: 2.0,2.0;" x1="35.5" x2="458.5" y1="1840.6016" y2="1840.6016"/><text fill="#000000" font-family="sans-serif" font-size="13" lengthAdjust="spacingAndGlyphs" textLength="111" x="47.5" y="1835.5356">200 Success (url)</text><rect fill="#EEEEEE" filter="url(#f1c2woclpz60hm)" height="3" style="stroke: #EEEEEE; stroke-width: 1.0;" width="1223.5" x="3" y="1869.168"/><line style="stroke: #000000; stroke-width: 1.0;" x1="3" x2="1226.5" y1="1869.168" y2="1869.168"/><line style="stroke: #000000; stroke-width: 1.0;" x1="3" x2="1226.5" y1="1872.168" y2="1872.168"/><rect fill="#EEEEEE" filter="url(#f1c2woclpz60hm)" height="23.1328" style="stroke: #000000; stroke-width: 2.0;" width="345" x="442.25" y="1858.6016"/><text fill="#000000" font-family="sans-serif" font-size="13" font-weight="bold" lengthAdjust="spacingAndGlyphs" textLength="326" x="448.25" y="1874.6685">POST: Generate signed url for file download</text><polygon fill="#A80036" points="447.5,1908.8672,457.5,1912.8672,447.5,1916.8672,451.5,1912.8672" style="stroke: #A80036; stroke-width: 1.0;"/><line style="stroke: #A80036; stroke-width: 1.0;" x1="30.5" x2="453.5" y1="1912.8672" y2="1912.8672"/><text fill="#000000" font-family="sans-serif" font-size="13" lengthAdjust="spacingAndGlyphs" textLength="278" x="37.5" y="1907.8013">POST /prsls/signed-url/download/{filename}</text><polygon fill="#A80036" points="1113.5,1938,1123.5,1942,1113.5,1946,1117.5,1942" style="stroke: #A80036; stroke-width: 1.0;"/><line style="stroke: #A80036; stroke-width: 1.0;" x1="459.5" x2="1119.5" y1="1942" y2="1942"/><text fill="#000000" font-family="sans-serif" font-size="13" lengthAdjust="spacingAndGlyphs" textLength="141" x="466.5" y="1936.9341">Connect to AWS client</text><polygon fill="#A80036" points="470.5,1967.1328,460.5,1971.1328,470.5,1975.1328,466.5,1971.1328" style="stroke: #A80036; stroke-width: 1.0;"/><line style="stroke: #A80036; stroke-width: 1.0;" x1="464.5" x2="1124.5" y1="1971.1328" y2="1971.1328"/><text fill="#000000" font-family="sans-serif" font-size="13" lengthAdjust="spacingAndGlyphs" textLength="149" x="476.5" y="1966.0669">Generate url (filename)</text><polygon fill="#A80036" points="41.5,1996.2656,31.5,2000.2656,41.5,2004.2656,37.5,2000.2656" style="stroke: #A80036; stroke-width: 1.0;"/><line style="stroke: #A80036; stroke-width: 1.0; stroke-dasharray: 2.0,2.0;" x1="35.5" x2="458.5" y1="2000.2656" y2="2000.2656"/><text fill="#000000" font-family="sans-serif" font-size="13" lengthAdjust="spacingAndGlyphs" textLength="111" x="47.5" y="1995.1997">200 Success (url)</text><rect fill="#EEEEEE" filter="url(#f1c2woclpz60hm)" height="3" style="stroke: #EEEEEE; stroke-width: 1.0;" width="1223.5" x="3" y="2028.832"/><line style="stroke: #000000; stroke-width: 1.0;" x1="3" x2="1226.5" y1="2028.832" y2="2028.832"/><line style="stroke: #000000; stroke-width: 1.0;" x1="3" x2="1226.5" y1="2031.832" y2="2031.832"/><rect fill="#EEEEEE" filter="url(#f1c2woclpz60hm)" height="23.1328" style="stroke: #000000; stroke-width: 2.0;" width="320" x="454.75" y="2018.2656"/><text fill="#000000" font-family="sans-serif" font-size="13" font-weight="bold" lengthAdjust="spacingAndGlyphs" textLength="301" x="460.75" y="2034.3325">POST: Generate signed url for file delete</text><polygon fill="#A80036" points="447.5,2068.5313,457.5,2072.5313,447.5,2076.5313,451.5,2072.5313" style="stroke: #A80036; stroke-width: 1.0;"/><line style="stroke: #A80036; stroke-width: 1.0;" x1="30.5" x2="453.5" y1="2072.5313" y2="2072.5313"/><text fill="#000000" font-family="sans-serif" font-size="13" lengthAdjust="spacingAndGlyphs" textLength="258" x="37.5" y="2067.4653">POST /prsls/signed-url/delete/{filename}</text><polygon fill="#A80036" points="1113.5,2097.6641,1123.5,2101.6641,1113.5,2105.6641,1117.5,2101.6641" style="stroke: #A80036; stroke-width: 1.0;"/><line style="stroke: #A80036; stroke-width: 1.0;" x1="459.5" x2="1119.5" y1="2101.6641" y2="2101.6641"/><text fill="#000000" font-family="sans-serif" font-size="13" lengthAdjust="spacingAndGlyphs" textLength="141" x="466.5" y="2096.5981">Connect to AWS client</text><polygon fill="#A80036" points="470.5,2126.7969,460.5,2130.7969,470.5,2134.7969,466.5,2130.7969" style="stroke: #A80036; stroke-width: 1.0;"/><line style="stroke: #A80036; stroke-width: 1.0;" x1="464.5" x2="1124.5" y1="2130.7969" y2="2130.7969"/><text fill="#000000" font-family="sans-serif" font-size="13" lengthAdjust="spacingAndGlyphs" textLength="149" x="476.5" y="2125.731">Generate url (filename)</text><polygon fill="#A80036" points="41.5,2155.9297,31.5,2159.9297,41.5,2163.9297,37.5,2159.9297" style="stroke: #A80036; stroke-width: 1.0;"/><line style="stroke: #A80036; stroke-width: 1.0; stroke-dasharray: 2.0,2.0;" x1="35.5" x2="458.5" y1="2159.9297" y2="2159.9297"/><text fill="#000000" font-family="sans-serif" font-size="13" lengthAdjust="spacingAndGlyphs" textLength="111" x="47.5" y="2154.8638">200 Success (url)</text><rect fill="#EEEEEE" filter="url(#f1c2woclpz60hm)" height="3" style="stroke: #EEEEEE; stroke-width: 1.0;" width="1223.5" x="3" y="2188.4961"/><line style="stroke: #000000; stroke-width: 1.0;" x1="3" x2="1226.5" y1="2188.4961" y2="2188.4961"/><line style="stroke: #000000; stroke-width: 1.0;" x1="3" x2="1226.5" y1="2191.4961" y2="2191.4961"/><rect fill="#EEEEEE" filter="url(#f1c2woclpz60hm)" height="23.1328" style="stroke: #000000; stroke-width: 2.0;" width="183" x="523.25" y="2177.9297"/><text fill="#000000" font-family="sans-serif" font-size="13" font-weight="bold" lengthAdjust="spacingAndGlyphs" textLength="164" x="529.25" y="2193.9966">GET: List all proposals</text><polygon fill="#A80036" points="447.5,2228.1953,457.5,2232.1953,447.5,2236.1953,451.5,2232.1953" style="stroke: #A80036; stroke-width: 1.0;"/><line style="stroke: #A80036; stroke-width: 1.0;" x1="30.5" x2="453.5" y1="2232.1953" y2="2232.1953"/><text fill="#000000" font-family="sans-serif" font-size="13" lengthAdjust="spacingAndGlyphs" textLength="108" x="37.5" y="2227.1294">GET /osd/{cycle}</text><polygon fill="#A80036" points="1185,2257.3281,1195,2261.3281,1185,2265.3281,1189,2261.3281" style="stroke: #A80036; stroke-width: 1.0;"/><line style="stroke: #A80036; stroke-width: 1.0;" x1="459.5" x2="1191" y1="2261.3281" y2="2261.3281"/><text fill="#000000" font-family="sans-serif" font-size="13" lengthAdjust="spacingAndGlyphs" textLength="87" x="466.5" y="2256.2622">get_osd_data</text><polygon fill="#A80036" points="470.5,2286.4609,460.5,2290.4609,470.5,2294.4609,466.5,2290.4609" style="stroke: #A80036; stroke-width: 1.0;"/><line style="stroke: #A80036; stroke-width: 1.0; stroke-dasharray: 2.0,2.0;" x1="464.5" x2="1196" y1="2290.4609" y2="2290.4609"/><text fill="#000000" font-family="sans-serif" font-size="13" lengthAdjust="spacingAndGlyphs" textLength="115" x="476.5" y="2285.395">Returns OSD data</text><polygon fill="#A80036" points="41.5,2315.5938,31.5,2319.5938,41.5,2323.5938,37.5,2319.5938" style="stroke: #A80036; stroke-width: 1.0;"/><line style="stroke: #A80036; stroke-width: 1.0; stroke-dasharray: 2.0,2.0;" x1="35.5" x2="458.5" y1="2319.5938" y2="2319.5938"/><text fill="#000000" font-family="sans-serif" font-size="13" lengthAdjust="spacingAndGlyphs" textLength="122" x="47.5" y="2314.5278">200 OK (OSD data)</text><!--MD5=[eefac7279d2af8e95e5cb0d2548db1ad]
@startuml
actor Client
participant "API Service" as Service
database "Database" as DB
== POST: Create Proposal ==
Client -> Service: POST /prsls/create (payload)
Service -> DB: INSERT new record
DB - -> Service: Insert success (ID)
Service - -> Client: 201 Created (proposal ID)
DB - -> Service: Insert failure (Validation ERROR)
Service - -> Client: 422 Validation Error
DB - -> Service: Insert failure (ERROR)
Service - -> Client: 400 (Failed when attempting to create a proposal)
== GET: Retrieve Proposal ==
Client -> Service: GET /prsls/{proposal_id}
Service -> DB: SELECT record by proposal ID
DB - -> Service: Return record
Service - -> Client: 200 OK (proposal data)
DB - -> Service: Query failure (ERROR)
Service - -> Client: 404 (The requested identifier {proposal_id} could not be found) 
== PUT: Update Proposal ==
Client -> Service: PUT /prsls/{proposal_id} (payload)
Service -> DB: Verify proposal is valid 
DB - -> Service: 422 Validation Error (Proposal ID in path and body do not match.)
Service - -> Client: 42    2 Validation Error (proposal data)
Service -> DB: Verify proposal exists 
DB - -> Service: 404 Error (The requested identifier {proposal_id} could not be found.)
Service - -> Client: 404 Error (proposal data)
DB - -> Service: Success (Return record)
Service -> DB: Update record by proposal ID
DB - -> Service: Update success (updated proposal)
Service - -> Client: 200 OK (updated proposal data)
DB - -> Service: Update failure (error)
Service - -> Client: 400 BAD REQUEST (Validation error while saving proposal)
== GET: List all proposals ==
Client -> Service: GET /prsls/{user_id}
Service -> DB: SELECT all records by user ID
DB - -> Service: Return record(s)
Service - -> Client: 200 OK (List[proposal data])
== POST: Validate proposal ==
Client -> Service: POST /prsls/validate (payload)
Service -> Service: Verify observation set exists
Service -> Service: Verify each observation target has a valid sensitivity calculation result
Service -> Service: Verify each observation sets has at least one target
Service - -> Client: 200 OK (dict: { "result": bool, "validation_errors": list[str] })
== POST: Send email ==
Client -> Service: POST /prsls/send-email
Service -> Service: Verify valid email address
Service - -> Client: 422 Unprocessable Entity (value is not a valid email address)
Service -> Email_Server: Connect to email server
Service -> Email_Server: Send email
Service - -> Client: 200 Success (Email sent succesfully)
== POST: Generate signed url for file upload ==
Client -> Service: POST /prsls/signed-url/upload/{filename}
Client -> Service: Validate filename
Service - -> Client: 422 Unprocessable Entity (Invalid filename)
Service -> AWS_S3: Connect to AWS client
AWS_S3 -> Service: Generate url (filename)
Service - -> Client: 200 Success (url)
== POST: Generate signed url for file download ==
Client -> Service: POST /prsls/signed-url/download/{filename}
Service -> AWS_S3: Connect to AWS client
AWS_S3 -> Service: Generate url (filename)
Service - -> Client: 200 Success (url)
== POST: Generate signed url for file delete ==
Client -> Service: POST /prsls/signed-url/delete/{filename}
Service -> AWS_S3: Connect to AWS client
AWS_S3 -> Service: Generate url (filename)
Service - -> Client: 200 Success (url)
== GET: List all proposals ==
Client -> Service: GET /osd/{cycle}
Service -> OSD: get_osd_data
OSD - -> Service: Returns OSD data
Service - -> Client: 200 OK (OSD data)
@enduml

PlantUML version 1.2020.02(Sun Mar 01 10:22:07 GMT 2020)
(GPL source distribution)
Java Runtime: OpenJDK Runtime Environment
JVM: OpenJDK 64-Bit Server VM
Java Version: 11.0.28+6-post-Ubuntu-1ubuntu122.04.1
Operating System: Linux
Default Encoding: UTF-8
Language: en
Country: null
--></g></svg>