<?xml version="1.0" encoding="UTF-8" standalone="no"?><svg xmlns="http://www.w3.org/2000/svg" xmlns:xlink="http://www.w3.org/1999/xlink" contentStyleType="text/css" height="2413px" preserveAspectRatio="none" style="width:1218px;height:2413px;background:#FFFFFF;" version="1.1" viewBox="0 0 1218 2413" width="1218px" zoomAndPan="magnify"><defs/><g><line style="stroke:#181818;stroke-width:0.5;stroke-dasharray:5.0,5.0;" x1="27" x2="27" y1="81.2969" y2="2332.5938"/><line style="stroke:#181818;stroke-width:0.5;stroke-dasharray:5.0,5.0;" x1="456" x2="456" y1="81.2969" y2="2332.5938"/><line style="stroke:#181818;stroke-width:0.5;stroke-dasharray:5.0,5.0;" x1="924.5" x2="924.5" y1="81.2969" y2="2332.5938"/><line style="stroke:#181818;stroke-width:0.5;stroke-dasharray:5.0,5.0;" x1="1020.5" x2="1020.5" y1="81.2969" y2="2332.5938"/><line style="stroke:#181818;stroke-width:0.5;stroke-dasharray:5.0,5.0;" x1="1116.5" x2="1116.5" y1="81.2969" y2="2332.5938"/><line style="stroke:#181818;stroke-width:0.5;stroke-dasharray:5.0,5.0;" x1="1183.5" x2="1183.5" y1="81.2969" y2="2332.5938"/><text fill="#000000" font-family="sans-serif" font-size="14" lengthAdjust="spacing" textLength="39" x="5" y="77.9951">Client</text><ellipse cx="27.5" cy="13.5" fill="#E2E2F0" rx="8" ry="8" style="stroke:#181818;stroke-width:0.5;"/><path d="M27.5,21.5 L27.5,48.5 M14.5,29.5 L40.5,29.5 M27.5,48.5 L14.5,63.5 M27.5,48.5 L40.5,63.5 " fill="none" style="stroke:#181818;stroke-width:0.5;"/><text fill="#000000" font-family="sans-serif" font-size="14" lengthAdjust="spacing" textLength="39" x="5" y="2344.5889">Client</text><ellipse cx="27.5" cy="2356.3906" fill="#E2E2F0" rx="8" ry="8" style="stroke:#181818;stroke-width:0.5;"/><path d="M27.5,2364.3906 L27.5,2391.3906 M14.5,2372.3906 L40.5,2372.3906 M27.5,2391.3906 L14.5,2406.3906 M27.5,2391.3906 L40.5,2406.3906 " fill="none" style="stroke:#181818;stroke-width:0.5;"/><rect fill="#E2E2F0" height="30.2969" rx="2.5" ry="2.5" style="stroke:#181818;stroke-width:0.5;" width="89" x="412" y="50"/><text fill="#000000" font-family="sans-serif" font-size="14" lengthAdjust="spacing" textLength="75" x="419" y="69.9951">API Service</text><rect fill="#E2E2F0" height="30.2969" rx="2.5" ry="2.5" style="stroke:#181818;stroke-width:0.5;" width="89" x="412" y="2331.5938"/><text fill="#000000" font-family="sans-serif" font-size="14" lengthAdjust="spacing" textLength="75" x="419" y="2351.5889">API Service</text><text fill="#000000" font-family="sans-serif" font-size="14" lengthAdjust="spacing" textLength="66" x="888.5" y="77.9951">Database</text><path d="M906.5,29 C906.5,19 924.5,19 924.5,19 C924.5,19 942.5,19 942.5,29 L942.5,55 C942.5,65 924.5,65 924.5,65 C924.5,65 906.5,65 906.5,55 L906.5,29 " fill="#E2E2F0" style="stroke:#181818;stroke-width:1.5;"/><path d="M906.5,29 C906.5,39 924.5,39 924.5,39 C924.5,39 942.5,39 942.5,29 " fill="none" style="stroke:#181818;stroke-width:1.5;"/><text fill="#000000" font-family="sans-serif" font-size="14" lengthAdjust="spacing" textLength="66" x="888.5" y="2344.5889">Database</text><path d="M906.5,2357.8906 C906.5,2347.8906 924.5,2347.8906 924.5,2347.8906 C924.5,2347.8906 942.5,2347.8906 942.5,2357.8906 L942.5,2383.8906 C942.5,2393.8906 924.5,2393.8906 924.5,2393.8906 C924.5,2393.8906 906.5,2393.8906 906.5,2383.8906 L906.5,2357.8906 " fill="#E2E2F0" style="stroke:#181818;stroke-width:1.5;"/><path d="M906.5,2357.8906 C906.5,2367.8906 924.5,2367.8906 924.5,2367.8906 C924.5,2367.8906 942.5,2367.8906 942.5,2357.8906 " fill="none" style="stroke:#181818;stroke-width:1.5;"/><rect fill="#E2E2F0" height="30.2969" rx="2.5" ry="2.5" style="stroke:#181818;stroke-width:0.5;" width="101" x="970.5" y="50"/><text fill="#000000" font-family="sans-serif" font-size="14" lengthAdjust="spacing" textLength="87" x="977.5" y="69.9951">Email_Server</text><rect fill="#E2E2F0" height="30.2969" rx="2.5" ry="2.5" style="stroke:#181818;stroke-width:0.5;" width="101" x="970.5" y="2331.5938"/><text fill="#000000" font-family="sans-serif" font-size="14" lengthAdjust="spacing" textLength="87" x="977.5" y="2351.5889">Email_Server</text><rect fill="#E2E2F0" height="30.2969" rx="2.5" ry="2.5" style="stroke:#181818;stroke-width:0.5;" width="70" x="1081.5" y="50"/><text fill="#000000" font-family="sans-serif" font-size="14" lengthAdjust="spacing" textLength="56" x="1088.5" y="69.9951">AWS_S3</text><rect fill="#E2E2F0" height="30.2969" rx="2.5" ry="2.5" style="stroke:#181818;stroke-width:0.5;" width="70" x="1081.5" y="2331.5938"/><text fill="#000000" font-family="sans-serif" font-size="14" lengthAdjust="spacing" textLength="56" x="1088.5" y="2351.5889">AWS_S3</text><rect fill="#E2E2F0" height="30.2969" rx="2.5" ry="2.5" style="stroke:#181818;stroke-width:0.5;" width="45" x="1161.5" y="50"/><text fill="#000000" font-family="sans-serif" font-size="14" lengthAdjust="spacing" textLength="31" x="1168.5" y="69.9951">OSD</text><rect fill="#E2E2F0" height="30.2969" rx="2.5" ry="2.5" style="stroke:#181818;stroke-width:0.5;" width="45" x="1161.5" y="2331.5938"/><text fill="#000000" font-family="sans-serif" font-size="14" lengthAdjust="spacing" textLength="31" x="1168.5" y="2351.5889">OSD</text><rect fill="#EEEEEE" height="3" style="stroke:#EEEEEE;stroke-width:1.0;" width="1211.5" x="0" y="111.8633"/><line style="stroke:#000000;stroke-width:1.0;" x1="0" x2="1211.5" y1="111.8633" y2="111.8633"/><line style="stroke:#000000;stroke-width:1.0;" x1="0" x2="1211.5" y1="114.8633" y2="114.8633"/><rect fill="#EEEEEE" height="23.1328" style="stroke:#000000;stroke-width:2.0;" width="186" x="512.75" y="101.2969"/><text fill="#000000" font-family="sans-serif" font-size="13" font-weight="bold" lengthAdjust="spacing" textLength="167" x="518.75" y="117.3638">POST: Create Proposal</text><polygon fill="#181818" points="444.5,151.5625,454.5,155.5625,444.5,159.5625,448.5,155.5625" style="stroke:#181818;stroke-width:1.0;"/><line style="stroke:#181818;stroke-width:1.0;" x1="27.5" x2="450.5" y1="155.5625" y2="155.5625"/><text fill="#000000" font-family="sans-serif" font-size="13" lengthAdjust="spacing" textLength="181" x="34.5" y="150.4966">POST /prsls/create (payload)</text><polygon fill="#181818" points="912.5,180.6953,922.5,184.6953,912.5,188.6953,916.5,184.6953" style="stroke:#181818;stroke-width:1.0;"/><line style="stroke:#181818;stroke-width:1.0;" x1="456.5" x2="918.5" y1="184.6953" y2="184.6953"/><text fill="#000000" font-family="sans-serif" font-size="13" lengthAdjust="spacing" textLength="119" x="463.5" y="179.6294">INSERT new record</text><polygon fill="#181818" points="467.5,209.8281,457.5,213.8281,467.5,217.8281,463.5,213.8281" style="stroke:#181818;stroke-width:1.0;"/><line style="stroke:#181818;stroke-width:1.0;stroke-dasharray:2.0,2.0;" x1="461.5" x2="923.5" y1="213.8281" y2="213.8281"/><text fill="#000000" font-family="sans-serif" font-size="13" lengthAdjust="spacing" textLength="118" x="473.5" y="208.7622">Insert success (ID)</text><polygon fill="#181818" points="38.5,238.9609,28.5,242.9609,38.5,246.9609,34.5,242.9609" style="stroke:#181818;stroke-width:1.0;"/><line style="stroke:#181818;stroke-width:1.0;stroke-dasharray:2.0,2.0;" x1="32.5" x2="455.5" y1="242.9609" y2="242.9609"/><text fill="#000000" font-family="sans-serif" font-size="13" lengthAdjust="spacing" textLength="165" x="44.5" y="237.895">201 Created (proposal ID)</text><polygon fill="#181818" points="467.5,268.0938,457.5,272.0938,467.5,276.0938,463.5,272.0938" style="stroke:#181818;stroke-width:1.0;"/><line style="stroke:#181818;stroke-width:1.0;stroke-dasharray:2.0,2.0;" x1="461.5" x2="923.5" y1="272.0938" y2="272.0938"/><text fill="#000000" font-family="sans-serif" font-size="13" lengthAdjust="spacing" textLength="202" x="473.5" y="267.0278">Insert failure (Validation ERROR)</text><polygon fill="#181818" points="38.5,297.2266,28.5,301.2266,38.5,305.2266,34.5,301.2266" style="stroke:#181818;stroke-width:1.0;"/><line style="stroke:#181818;stroke-width:1.0;stroke-dasharray:2.0,2.0;" x1="32.5" x2="455.5" y1="301.2266" y2="301.2266"/><text fill="#000000" font-family="sans-serif" font-size="13" lengthAdjust="spacing" textLength="126" x="44.5" y="296.1606">422 Validation Error</text><polygon fill="#181818" points="467.5,326.3594,457.5,330.3594,467.5,334.3594,463.5,330.3594" style="stroke:#181818;stroke-width:1.0;"/><line style="stroke:#181818;stroke-width:1.0;stroke-dasharray:2.0,2.0;" x1="461.5" x2="923.5" y1="330.3594" y2="330.3594"/><text fill="#000000" font-family="sans-serif" font-size="13" lengthAdjust="spacing" textLength="135" x="473.5" y="325.2935">Insert failure (ERROR)</text><polygon fill="#181818" points="38.5,355.4922,28.5,359.4922,38.5,363.4922,34.5,359.4922" style="stroke:#181818;stroke-width:1.0;"/><line style="stroke:#181818;stroke-width:1.0;stroke-dasharray:2.0,2.0;" x1="32.5" x2="455.5" y1="359.4922" y2="359.4922"/><text fill="#000000" font-family="sans-serif" font-size="13" lengthAdjust="spacing" textLength="320" x="44.5" y="354.4263">400 (Failed when attempting to create a proposal)</text><rect fill="#EEEEEE" height="3" style="stroke:#EEEEEE;stroke-width:1.0;" width="1211.5" x="0" y="388.0586"/><line style="stroke:#000000;stroke-width:1.0;" x1="0" x2="1211.5" y1="388.0586" y2="388.0586"/><line style="stroke:#000000;stroke-width:1.0;" x1="0" x2="1211.5" y1="391.0586" y2="391.0586"/><rect fill="#EEEEEE" height="23.1328" style="stroke:#000000;stroke-width:2.0;" width="188" x="511.75" y="377.4922"/><text fill="#000000" font-family="sans-serif" font-size="13" font-weight="bold" lengthAdjust="spacing" textLength="169" x="517.75" y="393.5591">GET: Retrieve Proposal</text><polygon fill="#181818" points="444.5,427.7578,454.5,431.7578,444.5,435.7578,448.5,431.7578" style="stroke:#181818;stroke-width:1.0;"/><line style="stroke:#181818;stroke-width:1.0;" x1="27.5" x2="450.5" y1="431.7578" y2="431.7578"/><text fill="#000000" font-family="sans-serif" font-size="13" lengthAdjust="spacing" textLength="156" x="34.5" y="426.6919">GET /prsls/{proposal_id}</text><polygon fill="#181818" points="912.5,456.8906,922.5,460.8906,912.5,464.8906,916.5,460.8906" style="stroke:#181818;stroke-width:1.0;"/><line style="stroke:#181818;stroke-width:1.0;" x1="456.5" x2="918.5" y1="460.8906" y2="460.8906"/><text fill="#000000" font-family="sans-serif" font-size="13" lengthAdjust="spacing" textLength="188" x="463.5" y="455.8247">SELECT record by proposal ID</text><polygon fill="#181818" points="467.5,486.0234,457.5,490.0234,467.5,494.0234,463.5,490.0234" style="stroke:#181818;stroke-width:1.0;"/><line style="stroke:#181818;stroke-width:1.0;stroke-dasharray:2.0,2.0;" x1="461.5" x2="923.5" y1="490.0234" y2="490.0234"/><text fill="#000000" font-family="sans-serif" font-size="13" lengthAdjust="spacing" textLength="87" x="473.5" y="484.9575">Return record</text><polygon fill="#181818" points="38.5,515.1563,28.5,519.1563,38.5,523.1563,34.5,519.1563" style="stroke:#181818;stroke-width:1.0;"/><line style="stroke:#181818;stroke-width:1.0;stroke-dasharray:2.0,2.0;" x1="32.5" x2="455.5" y1="519.1563" y2="519.1563"/><text fill="#000000" font-family="sans-serif" font-size="13" lengthAdjust="spacing" textLength="148" x="44.5" y="514.0903">200 OK (proposal data)</text><polygon fill="#181818" points="467.5,544.2891,457.5,548.2891,467.5,552.2891,463.5,548.2891" style="stroke:#181818;stroke-width:1.0;"/><line style="stroke:#181818;stroke-width:1.0;stroke-dasharray:2.0,2.0;" x1="461.5" x2="923.5" y1="548.2891" y2="548.2891"/><text fill="#000000" font-family="sans-serif" font-size="13" lengthAdjust="spacing" textLength="137" x="473.5" y="543.2231">Query failure (ERROR)</text><polygon fill="#181818" points="38.5,573.4219,28.5,577.4219,38.5,581.4219,34.5,577.4219" style="stroke:#181818;stroke-width:1.0;"/><line style="stroke:#181818;stroke-width:1.0;stroke-dasharray:2.0,2.0;" x1="32.5" x2="455.5" y1="577.4219" y2="577.4219"/><text fill="#000000" font-family="sans-serif" font-size="13" lengthAdjust="spacing" textLength="405" x="44.5" y="572.356">404 (The requested identifier {proposal_id} could not be found)</text><rect fill="#EEEEEE" height="3" style="stroke:#EEEEEE;stroke-width:1.0;" width="1211.5" x="0" y="605.9883"/><line style="stroke:#000000;stroke-width:1.0;" x1="0" x2="1211.5" y1="605.9883" y2="605.9883"/><line style="stroke:#000000;stroke-width:1.0;" x1="0" x2="1211.5" y1="608.9883" y2="608.9883"/><rect fill="#EEEEEE" height="23.1328" style="stroke:#000000;stroke-width:2.0;" width="181" x="515.25" y="595.4219"/><text fill="#000000" font-family="sans-serif" font-size="13" font-weight="bold" lengthAdjust="spacing" textLength="162" x="521.25" y="611.4888">PUT: Update Proposal</text><polygon fill="#181818" points="444.5,645.6875,454.5,649.6875,444.5,653.6875,448.5,649.6875" style="stroke:#181818;stroke-width:1.0;"/><line style="stroke:#181818;stroke-width:1.0;" x1="27.5" x2="450.5" y1="649.6875" y2="649.6875"/><text fill="#000000" font-family="sans-serif" font-size="13" lengthAdjust="spacing" textLength="220" x="34.5" y="644.6216">PUT /prsls/{proposal_id} (payload)</text><polygon fill="#181818" points="912.5,674.8203,922.5,678.8203,912.5,682.8203,916.5,678.8203" style="stroke:#181818;stroke-width:1.0;"/><line style="stroke:#181818;stroke-width:1.0;" x1="456.5" x2="918.5" y1="678.8203" y2="678.8203"/><text fill="#000000" font-family="sans-serif" font-size="13" lengthAdjust="spacing" textLength="142" x="463.5" y="673.7544">Verify proposal is valid</text><polygon fill="#181818" points="467.5,703.9531,457.5,707.9531,467.5,711.9531,463.5,707.9531" style="stroke:#181818;stroke-width:1.0;"/><line style="stroke:#181818;stroke-width:1.0;stroke-dasharray:2.0,2.0;" x1="461.5" x2="923.5" y1="707.9531" y2="707.9531"/><text fill="#000000" font-family="sans-serif" font-size="13" lengthAdjust="spacing" textLength="417" x="473.5" y="702.8872">422 Validation Error (Proposal ID in path and body do not match.)</text><polygon fill="#181818" points="38.5,733.0859,28.5,737.0859,38.5,741.0859,34.5,737.0859" style="stroke:#181818;stroke-width:1.0;"/><line style="stroke:#181818;stroke-width:1.0;stroke-dasharray:2.0,2.0;" x1="32.5" x2="455.5" y1="737.0859" y2="737.0859"/><text fill="#000000" font-family="sans-serif" font-size="13" lengthAdjust="spacing" textLength="244" x="44.5" y="732.02">42    2 Validation Error (proposal data)</text><polygon fill="#181818" points="912.5,762.2188,922.5,766.2188,912.5,770.2188,916.5,766.2188" style="stroke:#181818;stroke-width:1.0;"/><line style="stroke:#181818;stroke-width:1.0;" x1="456.5" x2="918.5" y1="766.2188" y2="766.2188"/><text fill="#000000" font-family="sans-serif" font-size="13" lengthAdjust="spacing" textLength="136" x="463.5" y="761.1528">Verify proposal exists</text><polygon fill="#181818" points="467.5,791.3516,457.5,795.3516,467.5,799.3516,463.5,795.3516" style="stroke:#181818;stroke-width:1.0;"/><line style="stroke:#181818;stroke-width:1.0;stroke-dasharray:2.0,2.0;" x1="461.5" x2="923.5" y1="795.3516" y2="795.3516"/><text fill="#000000" font-family="sans-serif" font-size="13" lengthAdjust="spacing" textLength="444" x="473.5" y="790.2856">404 Error (The requested identifier {proposal_id} could not be found.)</text><polygon fill="#181818" points="38.5,820.4844,28.5,824.4844,38.5,828.4844,34.5,824.4844" style="stroke:#181818;stroke-width:1.0;"/><line style="stroke:#181818;stroke-width:1.0;stroke-dasharray:2.0,2.0;" x1="32.5" x2="455.5" y1="824.4844" y2="824.4844"/><text fill="#000000" font-family="sans-serif" font-size="13" lengthAdjust="spacing" textLength="161" x="44.5" y="819.4185">404 Error (proposal data)</text><polygon fill="#181818" points="467.5,849.6172,457.5,853.6172,467.5,857.6172,463.5,853.6172" style="stroke:#181818;stroke-width:1.0;"/><line style="stroke:#181818;stroke-width:1.0;stroke-dasharray:2.0,2.0;" x1="461.5" x2="923.5" y1="853.6172" y2="853.6172"/><text fill="#000000" font-family="sans-serif" font-size="13" lengthAdjust="spacing" textLength="154" x="473.5" y="848.5513">Success (Return record)</text><polygon fill="#181818" points="912.5,878.75,922.5,882.75,912.5,886.75,916.5,882.75" style="stroke:#181818;stroke-width:1.0;"/><line style="stroke:#181818;stroke-width:1.0;" x1="456.5" x2="918.5" y1="882.75" y2="882.75"/><text fill="#000000" font-family="sans-serif" font-size="13" lengthAdjust="spacing" textLength="187" x="463.5" y="877.6841">Update record by proposal ID</text><polygon fill="#181818" points="467.5,907.8828,457.5,911.8828,467.5,915.8828,463.5,911.8828" style="stroke:#181818;stroke-width:1.0;"/><line style="stroke:#181818;stroke-width:1.0;stroke-dasharray:2.0,2.0;" x1="461.5" x2="923.5" y1="911.8828" y2="911.8828"/><text fill="#000000" font-family="sans-serif" font-size="13" lengthAdjust="spacing" textLength="228" x="473.5" y="906.8169">Update success (updated proposal)</text><polygon fill="#181818" points="38.5,937.0156,28.5,941.0156,38.5,945.0156,34.5,941.0156" style="stroke:#181818;stroke-width:1.0;"/><line style="stroke:#181818;stroke-width:1.0;stroke-dasharray:2.0,2.0;" x1="32.5" x2="455.5" y1="941.0156" y2="941.0156"/><text fill="#000000" font-family="sans-serif" font-size="13" lengthAdjust="spacing" textLength="205" x="44.5" y="935.9497">200 OK (updated proposal data)</text><polygon fill="#181818" points="467.5,966.1484,457.5,970.1484,467.5,974.1484,463.5,970.1484" style="stroke:#181818;stroke-width:1.0;"/><line style="stroke:#181818;stroke-width:1.0;stroke-dasharray:2.0,2.0;" x1="461.5" x2="923.5" y1="970.1484" y2="970.1484"/><text fill="#000000" font-family="sans-serif" font-size="13" lengthAdjust="spacing" textLength="135" x="473.5" y="965.0825">Update failure (error)</text><polygon fill="#181818" points="38.5,995.2813,28.5,999.2813,38.5,1003.2813,34.5,999.2813" style="stroke:#181818;stroke-width:1.0;"/><line style="stroke:#181818;stroke-width:1.0;stroke-dasharray:2.0,2.0;" x1="32.5" x2="455.5" y1="999.2813" y2="999.2813"/><text fill="#000000" font-family="sans-serif" font-size="13" lengthAdjust="spacing" textLength="371" x="44.5" y="994.2153">400 BAD REQUEST (Validation error while saving proposal)</text><rect fill="#EEEEEE" height="3" style="stroke:#EEEEEE;stroke-width:1.0;" width="1211.5" x="0" y="1027.8477"/><line style="stroke:#000000;stroke-width:1.0;" x1="0" x2="1211.5" y1="1027.8477" y2="1027.8477"/><line style="stroke:#000000;stroke-width:1.0;" x1="0" x2="1211.5" y1="1030.8477" y2="1030.8477"/><rect fill="#EEEEEE" height="23.1328" style="stroke:#000000;stroke-width:2.0;" width="183" x="514.25" y="1017.2813"/><text fill="#000000" font-family="sans-serif" font-size="13" font-weight="bold" lengthAdjust="spacing" textLength="164" x="520.25" y="1033.3481">GET: List all proposals</text><polygon fill="#181818" points="444.5,1067.5469,454.5,1071.5469,444.5,1075.5469,448.5,1071.5469" style="stroke:#181818;stroke-width:1.0;"/><line style="stroke:#181818;stroke-width:1.0;" x1="27.5" x2="450.5" y1="1071.5469" y2="1071.5469"/><text fill="#000000" font-family="sans-serif" font-size="13" lengthAdjust="spacing" textLength="129" x="34.5" y="1066.481">GET /prsls/{user_id}</text><polygon fill="#181818" points="912.5,1096.6797,922.5,1100.6797,912.5,1104.6797,916.5,1100.6797" style="stroke:#181818;stroke-width:1.0;"/><line style="stroke:#181818;stroke-width:1.0;" x1="456.5" x2="918.5" y1="1100.6797" y2="1100.6797"/><text fill="#000000" font-family="sans-serif" font-size="13" lengthAdjust="spacing" textLength="186" x="463.5" y="1095.6138">SELECT all records by user ID</text><polygon fill="#181818" points="467.5,1125.8125,457.5,1129.8125,467.5,1133.8125,463.5,1129.8125" style="stroke:#181818;stroke-width:1.0;"/><line style="stroke:#181818;stroke-width:1.0;stroke-dasharray:2.0,2.0;" x1="461.5" x2="923.5" y1="1129.8125" y2="1129.8125"/><text fill="#000000" font-family="sans-serif" font-size="13" lengthAdjust="spacing" textLength="104" x="473.5" y="1124.7466">Return record(s)</text><polygon fill="#181818" points="38.5,1154.9453,28.5,1158.9453,38.5,1162.9453,34.5,1158.9453" style="stroke:#181818;stroke-width:1.0;"/><line style="stroke:#181818;stroke-width:1.0;stroke-dasharray:2.0,2.0;" x1="32.5" x2="455.5" y1="1158.9453" y2="1158.9453"/><text fill="#000000" font-family="sans-serif" font-size="13" lengthAdjust="spacing" textLength="180" x="44.5" y="1153.8794">200 OK (List[proposal data])</text><rect fill="#EEEEEE" height="3" style="stroke:#EEEEEE;stroke-width:1.0;" width="1211.5" x="0" y="1187.5117"/><line style="stroke:#000000;stroke-width:1.0;" x1="0" x2="1211.5" y1="1187.5117" y2="1187.5117"/><line style="stroke:#000000;stroke-width:1.0;" x1="0" x2="1211.5" y1="1190.5117" y2="1190.5117"/><rect fill="#EEEEEE" height="23.1328" style="stroke:#000000;stroke-width:2.0;" width="198" x="506.75" y="1176.9453"/><text fill="#000000" font-family="sans-serif" font-size="13" font-weight="bold" lengthAdjust="spacing" textLength="179" x="512.75" y="1193.0122">POST: Validate proposal</text><polygon fill="#181818" points="444.5,1227.2109,454.5,1231.2109,444.5,1235.2109,448.5,1231.2109" style="stroke:#181818;stroke-width:1.0;"/><line style="stroke:#181818;stroke-width:1.0;" x1="27.5" x2="450.5" y1="1231.2109" y2="1231.2109"/><text fill="#000000" font-family="sans-serif" font-size="13" lengthAdjust="spacing" textLength="190" x="34.5" y="1226.145">POST /prsls/validate (payload)</text><line style="stroke:#181818;stroke-width:1.0;" x1="456.5" x2="498.5" y1="1260.3438" y2="1260.3438"/><line style="stroke:#181818;stroke-width:1.0;" x1="498.5" x2="498.5" y1="1260.3438" y2="1273.3438"/><line style="stroke:#181818;stroke-width:1.0;" x1="457.5" x2="498.5" y1="1273.3438" y2="1273.3438"/><polygon fill="#181818" points="467.5,1269.3438,457.5,1273.3438,467.5,1277.3438,463.5,1273.3438" style="stroke:#181818;stroke-width:1.0;"/><text fill="#000000" font-family="sans-serif" font-size="13" lengthAdjust="spacing" textLength="180" x="463.5" y="1255.2778">Verify observation set exists</text><line style="stroke:#181818;stroke-width:1.0;" x1="456.5" x2="498.5" y1="1302.4766" y2="1302.4766"/><line style="stroke:#181818;stroke-width:1.0;" x1="498.5" x2="498.5" y1="1302.4766" y2="1315.4766"/><line style="stroke:#181818;stroke-width:1.0;" x1="457.5" x2="498.5" y1="1315.4766" y2="1315.4766"/><polygon fill="#181818" points="467.5,1311.4766,457.5,1315.4766,467.5,1319.4766,463.5,1315.4766" style="stroke:#181818;stroke-width:1.0;"/><text fill="#000000" font-family="sans-serif" font-size="13" lengthAdjust="spacing" textLength="444" x="463.5" y="1297.4106">Verify each observation target has a valid sensitivity calculation result</text><line style="stroke:#181818;stroke-width:1.0;" x1="456.5" x2="498.5" y1="1344.6094" y2="1344.6094"/><line style="stroke:#181818;stroke-width:1.0;" x1="498.5" x2="498.5" y1="1344.6094" y2="1357.6094"/><line style="stroke:#181818;stroke-width:1.0;" x1="457.5" x2="498.5" y1="1357.6094" y2="1357.6094"/><polygon fill="#181818" points="467.5,1353.6094,457.5,1357.6094,467.5,1361.6094,463.5,1357.6094" style="stroke:#181818;stroke-width:1.0;"/><text fill="#000000" font-family="sans-serif" font-size="13" lengthAdjust="spacing" textLength="331" x="463.5" y="1339.5435">Verify each observation sets has at least one target</text><polygon fill="#181818" points="38.5,1382.7422,28.5,1386.7422,38.5,1390.7422,34.5,1386.7422" style="stroke:#181818;stroke-width:1.0;"/><line style="stroke:#181818;stroke-width:1.0;stroke-dasharray:2.0,2.0;" x1="32.5" x2="455.5" y1="1386.7422" y2="1386.7422"/><text fill="#000000" font-family="sans-serif" font-size="13" lengthAdjust="spacing" textLength="373" x="44.5" y="1381.6763">200 OK (dict: { "result": bool, "validation_errors": list[str] })</text><rect fill="#EEEEEE" height="3" style="stroke:#EEEEEE;stroke-width:1.0;" width="1211.5" x="0" y="1415.3086"/><line style="stroke:#000000;stroke-width:1.0;" x1="0" x2="1211.5" y1="1415.3086" y2="1415.3086"/><line style="stroke:#000000;stroke-width:1.0;" x1="0" x2="1211.5" y1="1418.3086" y2="1418.3086"/><rect fill="#EEEEEE" height="23.1328" style="stroke:#000000;stroke-width:2.0;" width="149" x="531.25" y="1404.7422"/><text fill="#000000" font-family="sans-serif" font-size="13" font-weight="bold" lengthAdjust="spacing" textLength="130" x="537.25" y="1420.8091">POST: Send email</text><polygon fill="#181818" points="444.5,1455.0078,454.5,1459.0078,444.5,1463.0078,448.5,1459.0078" style="stroke:#181818;stroke-width:1.0;"/><line style="stroke:#181818;stroke-width:1.0;" x1="27.5" x2="450.5" y1="1459.0078" y2="1459.0078"/><text fill="#000000" font-family="sans-serif" font-size="13" lengthAdjust="spacing" textLength="147" x="34.5" y="1453.9419">POST /prsls/send-email</text><line style="stroke:#181818;stroke-width:1.0;" x1="456.5" x2="498.5" y1="1488.1406" y2="1488.1406"/><line style="stroke:#181818;stroke-width:1.0;" x1="498.5" x2="498.5" y1="1488.1406" y2="1501.1406"/><line style="stroke:#181818;stroke-width:1.0;" x1="457.5" x2="498.5" y1="1501.1406" y2="1501.1406"/><polygon fill="#181818" points="467.5,1497.1406,457.5,1501.1406,467.5,1505.1406,463.5,1501.1406" style="stroke:#181818;stroke-width:1.0;"/><text fill="#000000" font-family="sans-serif" font-size="13" lengthAdjust="spacing" textLength="163" x="463.5" y="1483.0747">Verify valid email address</text><polygon fill="#181818" points="38.5,1526.2734,28.5,1530.2734,38.5,1534.2734,34.5,1530.2734" style="stroke:#181818;stroke-width:1.0;"/><line style="stroke:#181818;stroke-width:1.0;stroke-dasharray:2.0,2.0;" x1="32.5" x2="455.5" y1="1530.2734" y2="1530.2734"/><text fill="#000000" font-family="sans-serif" font-size="13" lengthAdjust="spacing" textLength="389" x="44.5" y="1525.2075">422 Unprocessable Entity (value is not a valid email address)</text><polygon fill="#181818" points="1009,1555.4063,1019,1559.4063,1009,1563.4063,1013,1559.4063" style="stroke:#181818;stroke-width:1.0;"/><line style="stroke:#181818;stroke-width:1.0;" x1="456.5" x2="1015" y1="1559.4063" y2="1559.4063"/><text fill="#000000" font-family="sans-serif" font-size="13" lengthAdjust="spacing" textLength="153" x="463.5" y="1554.3403">Connect to email server</text><polygon fill="#181818" points="1009,1584.5391,1019,1588.5391,1009,1592.5391,1013,1588.5391" style="stroke:#181818;stroke-width:1.0;"/><line style="stroke:#181818;stroke-width:1.0;" x1="456.5" x2="1015" y1="1588.5391" y2="1588.5391"/><text fill="#000000" font-family="sans-serif" font-size="13" lengthAdjust="spacing" textLength="72" x="463.5" y="1583.4731">Send email</text><polygon fill="#181818" points="38.5,1613.6719,28.5,1617.6719,38.5,1621.6719,34.5,1617.6719" style="stroke:#181818;stroke-width:1.0;"/><line style="stroke:#181818;stroke-width:1.0;stroke-dasharray:2.0,2.0;" x1="32.5" x2="455.5" y1="1617.6719" y2="1617.6719"/><text fill="#000000" font-family="sans-serif" font-size="13" lengthAdjust="spacing" textLength="235" x="44.5" y="1612.606">200 Success (Email sent succesfully)</text><rect fill="#EEEEEE" height="3" style="stroke:#EEEEEE;stroke-width:1.0;" width="1211.5" x="0" y="1646.2383"/><line style="stroke:#000000;stroke-width:1.0;" x1="0" x2="1211.5" y1="1646.2383" y2="1646.2383"/><line style="stroke:#000000;stroke-width:1.0;" x1="0" x2="1211.5" y1="1649.2383" y2="1649.2383"/><rect fill="#EEEEEE" height="23.1328" style="stroke:#000000;stroke-width:2.0;" width="324" x="443.75" y="1635.6719"/><text fill="#000000" font-family="sans-serif" font-size="13" font-weight="bold" lengthAdjust="spacing" textLength="305" x="449.75" y="1651.7388">POST: Generate signed url for file upload</text><polygon fill="#181818" points="444.5,1685.9375,454.5,1689.9375,444.5,1693.9375,448.5,1689.9375" style="stroke:#181818;stroke-width:1.0;"/><line style="stroke:#181818;stroke-width:1.0;" x1="27.5" x2="450.5" y1="1689.9375" y2="1689.9375"/><text fill="#000000" font-family="sans-serif" font-size="13" lengthAdjust="spacing" textLength="261" x="34.5" y="1684.8716">POST /prsls/signed-url/upload/{filename}</text><polygon fill="#181818" points="444.5,1715.0703,454.5,1719.0703,444.5,1723.0703,448.5,1719.0703" style="stroke:#181818;stroke-width:1.0;"/><line style="stroke:#181818;stroke-width:1.0;" x1="27.5" x2="450.5" y1="1719.0703" y2="1719.0703"/><text fill="#000000" font-family="sans-serif" font-size="13" lengthAdjust="spacing" textLength="111" x="34.5" y="1714.0044">Validate filename</text><polygon fill="#181818" points="38.5,1744.2031,28.5,1748.2031,38.5,1752.2031,34.5,1748.2031" style="stroke:#181818;stroke-width:1.0;"/><line style="stroke:#181818;stroke-width:1.0;stroke-dasharray:2.0,2.0;" x1="32.5" x2="455.5" y1="1748.2031" y2="1748.2031"/><text fill="#000000" font-family="sans-serif" font-size="13" lengthAdjust="spacing" textLength="276" x="44.5" y="1743.1372">422 Unprocessable Entity (Invalid filename)</text><polygon fill="#181818" points="1104.5,1773.3359,1114.5,1777.3359,1104.5,1781.3359,1108.5,1777.3359" style="stroke:#181818;stroke-width:1.0;"/><line style="stroke:#181818;stroke-width:1.0;" x1="456.5" x2="1110.5" y1="1777.3359" y2="1777.3359"/><text fill="#000000" font-family="sans-serif" font-size="13" lengthAdjust="spacing" textLength="141" x="463.5" y="1772.27">Connect to AWS client</text><polygon fill="#181818" points="467.5,1802.4688,457.5,1806.4688,467.5,1810.4688,463.5,1806.4688" style="stroke:#181818;stroke-width:1.0;"/><line style="stroke:#181818;stroke-width:1.0;" x1="461.5" x2="1115.5" y1="1806.4688" y2="1806.4688"/><text fill="#000000" font-family="sans-serif" font-size="13" lengthAdjust="spacing" textLength="149" x="473.5" y="1801.4028">Generate url (filename)</text><polygon fill="#181818" points="38.5,1831.6016,28.5,1835.6016,38.5,1839.6016,34.5,1835.6016" style="stroke:#181818;stroke-width:1.0;"/><line style="stroke:#181818;stroke-width:1.0;stroke-dasharray:2.0,2.0;" x1="32.5" x2="455.5" y1="1835.6016" y2="1835.6016"/><text fill="#000000" font-family="sans-serif" font-size="13" lengthAdjust="spacing" textLength="111" x="44.5" y="1830.5356">200 Success (url)</text><rect fill="#EEEEEE" height="3" style="stroke:#EEEEEE;stroke-width:1.0;" width="1211.5" x="0" y="1864.168"/><line style="stroke:#000000;stroke-width:1.0;" x1="0" x2="1211.5" y1="1864.168" y2="1864.168"/><line style="stroke:#000000;stroke-width:1.0;" x1="0" x2="1211.5" y1="1867.168" y2="1867.168"/><rect fill="#EEEEEE" height="23.1328" style="stroke:#000000;stroke-width:2.0;" width="345" x="433.25" y="1853.6016"/><text fill="#000000" font-family="sans-serif" font-size="13" font-weight="bold" lengthAdjust="spacing" textLength="326" x="439.25" y="1869.6685">POST: Generate signed url for file download</text><polygon fill="#181818" points="444.5,1903.8672,454.5,1907.8672,444.5,1911.8672,448.5,1907.8672" style="stroke:#181818;stroke-width:1.0;"/><line style="stroke:#181818;stroke-width:1.0;" x1="27.5" x2="450.5" y1="1907.8672" y2="1907.8672"/><text fill="#000000" font-family="sans-serif" font-size="13" lengthAdjust="spacing" textLength="278" x="34.5" y="1902.8013">POST /prsls/signed-url/download/{filename}</text><polygon fill="#181818" points="1104.5,1933,1114.5,1937,1104.5,1941,1108.5,1937" style="stroke:#181818;stroke-width:1.0;"/><line style="stroke:#181818;stroke-width:1.0;" x1="456.5" x2="1110.5" y1="1937" y2="1937"/><text fill="#000000" font-family="sans-serif" font-size="13" lengthAdjust="spacing" textLength="141" x="463.5" y="1931.9341">Connect to AWS client</text><polygon fill="#181818" points="467.5,1962.1328,457.5,1966.1328,467.5,1970.1328,463.5,1966.1328" style="stroke:#181818;stroke-width:1.0;"/><line style="stroke:#181818;stroke-width:1.0;" x1="461.5" x2="1115.5" y1="1966.1328" y2="1966.1328"/><text fill="#000000" font-family="sans-serif" font-size="13" lengthAdjust="spacing" textLength="149" x="473.5" y="1961.0669">Generate url (filename)</text><polygon fill="#181818" points="38.5,1991.2656,28.5,1995.2656,38.5,1999.2656,34.5,1995.2656" style="stroke:#181818;stroke-width:1.0;"/><line style="stroke:#181818;stroke-width:1.0;stroke-dasharray:2.0,2.0;" x1="32.5" x2="455.5" y1="1995.2656" y2="1995.2656"/><text fill="#000000" font-family="sans-serif" font-size="13" lengthAdjust="spacing" textLength="111" x="44.5" y="1990.1997">200 Success (url)</text><rect fill="#EEEEEE" height="3" style="stroke:#EEEEEE;stroke-width:1.0;" width="1211.5" x="0" y="2023.832"/><line style="stroke:#000000;stroke-width:1.0;" x1="0" x2="1211.5" y1="2023.832" y2="2023.832"/><line style="stroke:#000000;stroke-width:1.0;" x1="0" x2="1211.5" y1="2026.832" y2="2026.832"/><rect fill="#EEEEEE" height="23.1328" style="stroke:#000000;stroke-width:2.0;" width="320" x="445.75" y="2013.2656"/><text fill="#000000" font-family="sans-serif" font-size="13" font-weight="bold" lengthAdjust="spacing" textLength="301" x="451.75" y="2029.3325">POST: Generate signed url for file delete</text><polygon fill="#181818" points="444.5,2063.5313,454.5,2067.5313,444.5,2071.5313,448.5,2067.5313" style="stroke:#181818;stroke-width:1.0;"/><line style="stroke:#181818;stroke-width:1.0;" x1="27.5" x2="450.5" y1="2067.5313" y2="2067.5313"/><text fill="#000000" font-family="sans-serif" font-size="13" lengthAdjust="spacing" textLength="258" x="34.5" y="2062.4653">POST /prsls/signed-url/delete/{filename}</text><polygon fill="#181818" points="1104.5,2092.6641,1114.5,2096.6641,1104.5,2100.6641,1108.5,2096.6641" style="stroke:#181818;stroke-width:1.0;"/><line style="stroke:#181818;stroke-width:1.0;" x1="456.5" x2="1110.5" y1="2096.6641" y2="2096.6641"/><text fill="#000000" font-family="sans-serif" font-size="13" lengthAdjust="spacing" textLength="141" x="463.5" y="2091.5981">Connect to AWS client</text><polygon fill="#181818" points="467.5,2121.7969,457.5,2125.7969,467.5,2129.7969,463.5,2125.7969" style="stroke:#181818;stroke-width:1.0;"/><line style="stroke:#181818;stroke-width:1.0;" x1="461.5" x2="1115.5" y1="2125.7969" y2="2125.7969"/><text fill="#000000" font-family="sans-serif" font-size="13" lengthAdjust="spacing" textLength="149" x="473.5" y="2120.731">Generate url (filename)</text><polygon fill="#181818" points="38.5,2150.9297,28.5,2154.9297,38.5,2158.9297,34.5,2154.9297" style="stroke:#181818;stroke-width:1.0;"/><line style="stroke:#181818;stroke-width:1.0;stroke-dasharray:2.0,2.0;" x1="32.5" x2="455.5" y1="2154.9297" y2="2154.9297"/><text fill="#000000" font-family="sans-serif" font-size="13" lengthAdjust="spacing" textLength="111" x="44.5" y="2149.8638">200 Success (url)</text><rect fill="#EEEEEE" height="3" style="stroke:#EEEEEE;stroke-width:1.0;" width="1211.5" x="0" y="2183.4961"/><line style="stroke:#000000;stroke-width:1.0;" x1="0" x2="1211.5" y1="2183.4961" y2="2183.4961"/><line style="stroke:#000000;stroke-width:1.0;" x1="0" x2="1211.5" y1="2186.4961" y2="2186.4961"/><rect fill="#EEEEEE" height="23.1328" style="stroke:#000000;stroke-width:2.0;" width="183" x="514.25" y="2172.9297"/><text fill="#000000" font-family="sans-serif" font-size="13" font-weight="bold" lengthAdjust="spacing" textLength="164" x="520.25" y="2188.9966">GET: List all proposals</text><polygon fill="#181818" points="444.5,2223.1953,454.5,2227.1953,444.5,2231.1953,448.5,2227.1953" style="stroke:#181818;stroke-width:1.0;"/><line style="stroke:#181818;stroke-width:1.0;" x1="27.5" x2="450.5" y1="2227.1953" y2="2227.1953"/><text fill="#000000" font-family="sans-serif" font-size="13" lengthAdjust="spacing" textLength="108" x="34.5" y="2222.1294">GET /osd/{cycle}</text><polygon fill="#181818" points="1172,2252.3281,1182,2256.3281,1172,2260.3281,1176,2256.3281" style="stroke:#181818;stroke-width:1.0;"/><line style="stroke:#181818;stroke-width:1.0;" x1="456.5" x2="1178" y1="2256.3281" y2="2256.3281"/><text fill="#000000" font-family="sans-serif" font-size="13" lengthAdjust="spacing" textLength="87" x="463.5" y="2251.2622">get_osd_data</text><polygon fill="#181818" points="467.5,2281.4609,457.5,2285.4609,467.5,2289.4609,463.5,2285.4609" style="stroke:#181818;stroke-width:1.0;"/><line style="stroke:#181818;stroke-width:1.0;stroke-dasharray:2.0,2.0;" x1="461.5" x2="1183" y1="2285.4609" y2="2285.4609"/><text fill="#000000" font-family="sans-serif" font-size="13" lengthAdjust="spacing" textLength="115" x="473.5" y="2280.395">Returns OSD data</text><polygon fill="#181818" points="38.5,2310.5938,28.5,2314.5938,38.5,2318.5938,34.5,2314.5938" style="stroke:#181818;stroke-width:1.0;"/><line style="stroke:#181818;stroke-width:1.0;stroke-dasharray:2.0,2.0;" x1="32.5" x2="455.5" y1="2314.5938" y2="2314.5938"/><text fill="#000000" font-family="sans-serif" font-size="13" lengthAdjust="spacing" textLength="122" x="44.5" y="2309.5278">200 OK (OSD data)</text><!--SRC=[pLPDRnen4BtpAqQSG6e-ckQ4b4f9s5QeLPEm8JrK4JBs42mvzjRsag8e_xtZ_I2xOHT8J-Mqh6UUPzuRFo_ZtbYuL1ArxoJCUibbmhI7xldr26AqIycn2yoLpnt1F9inXz0T5a_Pyl2YStO6rrVnxG0kBJAFS6rDOXnJS7RMoNU0WyybpY2BXQF4EkMEU9xHIzXA6IRwdI8g90ml1Z3w4KVZMz3u11QviQ8pl823Ajf8ExGUNCevEWUzqR02Ge5v0GCuEVvOr2TekxB24Ds2E6TIfPPgksDAKlFIQ8Z6uwjnC_xfoGbK8wqrTYVqDhpZO-XzeK2gzsc16fZt-9XugH_06oY8Or2sqWyoV8r8XJ5wAt6vKmSABcLuBb6cKhoyrI2ElaUNjmN_C5j1XRsD3cdprEfIh6OXZk7gMqM3C5YRAjoaQ5TxCdKAlTi5qgQ_KtH1O2beHSubMgYr1joaIe0s7cO8SvDgqOTiVYT4t2GH-uplf9cszY6-Gold5TgaWsMO5DXekcc8e7VzoZT83Gdp2s2Qf31Y1S9axJmopnU7RQC9z6j2VgF1ZhhnZtJUDLHD0XI0_op3ORkspRM-BI8k3Q0sWHiz5HhlDyn5yDfRqko_g9ovRGF-Dhgby6AJzQHZQBVT4oxEXp2ERYOHcMZLch8qSWeo371i6MnYqng-au30b5elkJsy8INFsk8B0IwdqmK-G_HEO-YvxTI5Ed_LUBlllrupHTVuokpkYsPPvZIUqdLACV9cHbqiSs8T-cBojsKWuujQccVsWJ8NT4MouhWxr4vwkPH-1PmfdgeyrA9BbNyNEXNbScmF2XcfQZGMUsvbLaXE_vwXcs_Q7P2B6FK1kilrA4spKNAqf88CpjjxUAdG7oDv3pxIlEx1E_Ki3hBWRVtb_EIOJ0YgpRLUiXDDieVpo6OqwX4P3D7P8uGKWxC6Ks5DW3N1ex0o3I_GqdUBqHgv3_TgdkAoXVQ4LmfQoLxxKLGWwl8ZPPugjQhm-HKrsindv8CclqYj8a-qC0z7EKt2iEv3T9PyGCb7USxHSm3Gx15VcdBNXwYCUYVX8vrpNARNw3t_6K_ZJpLYwHNm_7CpNwtxJSb1QBxNWDd6BiNlIwKmJ_hzP9PPLJh_-qvH8Iszhyyivx_fyX-kA-D89BxYgbxxLJmS0DdYbDQduIhfq9kckyc5qEoosUgWPL3_Bm00]--></g></svg>