<svg xmlns="http://www.w3.org/2000/svg" xmlns:xlink="http://www.w3.org/1999/xlink" contentStyleType="text/css" data-diagram-type="SEQUENCE" height="2573px" preserveAspectRatio="none" style="width:1251px;height:2573px;background:#FFFFFF;" version="1.1" viewBox="0 0 1251 2573" width="1251px" zoomAndPan="magnify"><defs/><g><g><title>Client</title><rect fill="#000000" fill-opacity="0.00000" height="2410.9609" width="8" x="24.2651" y="81.2969"/><line style="stroke:#181818;stroke-width:0.5;stroke-dasharray:5,5;" x1="28" x2="28" y1="81.2969" y2="2492.2578"/></g><g><title>API Service</title><rect fill="#000000" fill-opacity="0.00000" height="2410.9609" width="8" x="465.7695" y="81.2969"/><line style="stroke:#181818;stroke-width:0.5;stroke-dasharray:5,5;" x1="469.5996" x2="469.5996" y1="81.2969" y2="2492.2578"/></g><g><title>Database</title><rect fill="#000000" fill-opacity="0.00000" height="2410.9609" width="8" x="947.7402" y="81.2969"/><line style="stroke:#181818;stroke-width:0.5;stroke-dasharray:5,5;" x1="951.3398" x2="951.3398" y1="81.2969" y2="2492.2578"/></g><g><title>Email_Server</title><rect fill="#000000" fill-opacity="0.00000" height="2410.9609" width="8" x="1047.0166" y="81.2969"/><line style="stroke:#181818;stroke-width:0.5;stroke-dasharray:5,5;" x1="1050.1406" x2="1050.1406" y1="81.2969" y2="2492.2578"/></g><g><title>AWS_S3</title><rect fill="#000000" fill-opacity="0.00000" height="2410.9609" width="8" x="1145.4429" y="81.2969"/><line style="stroke:#181818;stroke-width:0.5;stroke-dasharray:5,5;" x1="1148.8926" x2="1148.8926" y1="81.2969" y2="2492.2578"/></g><g><title>OSD</title><rect fill="#000000" fill-opacity="0.00000" height="2410.9609" width="8" x="1213.3364" y="81.2969"/><line style="stroke:#181818;stroke-width:0.5;stroke-dasharray:5,5;" x1="1216.9932" x2="1216.9932" y1="81.2969" y2="2492.2578"/></g><g class="participant participant-head" data-participant="Client"><text fill="#000000" font-family="sans-serif" font-size="14" lengthAdjust="spacing" textLength="40.5303" x="5" y="77.9951">Client</text><ellipse cx="28.2651" cy="13.5" fill="#E2E2F0" rx="8" ry="8" style="stroke:#181818;stroke-width:0.5;"/><path d="M28.2651,21.5 L28.2651,48.5 M15.2651,29.5 L41.2651,29.5 M28.2651,48.5 L15.2651,63.5 M28.2651,48.5 L41.2651,63.5" fill="none" style="stroke:#181818;stroke-width:0.5;"/></g><g class="participant participant-tail" data-participant="Client"><text fill="#000000" font-family="sans-serif" font-size="14" lengthAdjust="spacing" textLength="40.5303" x="5" y="2504.2529">Client</text><ellipse cx="28.2651" cy="2516.0547" fill="#E2E2F0" rx="8" ry="8" style="stroke:#181818;stroke-width:0.5;"/><path d="M28.2651,2524.0547 L28.2651,2551.0547 M15.2651,2532.0547 L41.2651,2532.0547 M28.2651,2551.0547 L15.2651,2566.0547 M28.2651,2551.0547 L41.2651,2566.0547" fill="none" style="stroke:#181818;stroke-width:0.5;"/></g><g class="participant participant-head" data-participant="Service"><rect fill="#E2E2F0" height="30.2969" rx="2.5" ry="2.5" style="stroke:#181818;stroke-width:0.5;" width="92.3398" x="423.5996" y="50"/><text fill="#000000" font-family="sans-serif" font-size="14" lengthAdjust="spacing" textLength="78.3398" x="430.5996" y="69.9951">API Service</text></g><g class="participant participant-tail" data-participant="Service"><rect fill="#E2E2F0" height="30.2969" rx="2.5" ry="2.5" style="stroke:#181818;stroke-width:0.5;" width="92.3398" x="423.5996" y="2491.2578"/><text fill="#000000" font-family="sans-serif" font-size="14" lengthAdjust="spacing" textLength="78.3398" x="430.5996" y="2511.2529">API Service</text></g><g class="participant participant-head" data-participant="DB"><text fill="#000000" font-family="sans-serif" font-size="14" lengthAdjust="spacing" textLength="66.8008" x="915.3398" y="77.9951">Database</text><path d="M933.7402,29 C933.7402,19 951.7402,19 951.7402,19 C951.7402,19 969.7402,19 969.7402,29 L969.7402,55 C969.7402,65 951.7402,65 951.7402,65 C951.7402,65 933.7402,65 933.7402,55 L933.7402,29" fill="#E2E2F0" style="stroke:#181818;stroke-width:0.5;"/><path d="M933.7402,29 C933.7402,39 951.7402,39 951.7402,39 C951.7402,39 969.7402,39 969.7402,29" fill="none" style="stroke:#181818;stroke-width:0.5;"/></g><g class="participant participant-tail" data-participant="DB"><text fill="#000000" font-family="sans-serif" font-size="14" lengthAdjust="spacing" textLength="66.8008" x="915.3398" y="2504.2529">Database</text><path d="M933.7402,2517.5547 C933.7402,2507.5547 951.7402,2507.5547 951.7402,2507.5547 C951.7402,2507.5547 969.7402,2507.5547 969.7402,2517.5547 L969.7402,2543.5547 C969.7402,2553.5547 951.7402,2553.5547 951.7402,2553.5547 C951.7402,2553.5547 933.7402,2553.5547 933.7402,2543.5547 L933.7402,2517.5547" fill="#E2E2F0" style="stroke:#181818;stroke-width:0.5;"/><path d="M933.7402,2517.5547 C933.7402,2527.5547 951.7402,2527.5547 951.7402,2527.5547 C951.7402,2527.5547 969.7402,2527.5547 969.7402,2517.5547" fill="none" style="stroke:#181818;stroke-width:0.5;"/></g><g class="participant participant-head" data-participant="Email_Server"><rect fill="#E2E2F0" height="30.2969" rx="2.5" ry="2.5" style="stroke:#181818;stroke-width:0.5;" width="105.752" x="998.1406" y="50"/><text fill="#000000" font-family="sans-serif" font-size="14" lengthAdjust="spacing" textLength="91.752" x="1005.1406" y="69.9951">Email_Server</text></g><g class="participant participant-tail" data-participant="Email_Server"><rect fill="#E2E2F0" height="30.2969" rx="2.5" ry="2.5" style="stroke:#181818;stroke-width:0.5;" width="105.752" x="998.1406" y="2491.2578"/><text fill="#000000" font-family="sans-serif" font-size="14" lengthAdjust="spacing" textLength="91.752" x="1005.1406" y="2511.2529">Email_Server</text></g><g class="participant participant-head" data-participant="AWS_S3"><rect fill="#E2E2F0" height="30.2969" rx="2.5" ry="2.5" style="stroke:#181818;stroke-width:0.5;" width="71.1006" x="1113.8926" y="50"/><text fill="#000000" font-family="sans-serif" font-size="14" lengthAdjust="spacing" textLength="57.1006" x="1120.8926" y="69.9951">AWS_S3</text></g><g class="participant participant-tail" data-participant="AWS_S3"><rect fill="#E2E2F0" height="30.2969" rx="2.5" ry="2.5" style="stroke:#181818;stroke-width:0.5;" width="71.1006" x="1113.8926" y="2491.2578"/><text fill="#000000" font-family="sans-serif" font-size="14" lengthAdjust="spacing" textLength="57.1006" x="1120.8926" y="2511.2529">AWS_S3</text></g><g class="participant participant-head" data-participant="OSD"><rect fill="#E2E2F0" height="30.2969" rx="2.5" ry="2.5" style="stroke:#181818;stroke-width:0.5;" width="44.6865" x="1194.9932" y="50"/><text fill="#000000" font-family="sans-serif" font-size="14" lengthAdjust="spacing" textLength="30.6865" x="1201.9932" y="69.9951">OSD</text></g><g class="participant participant-tail" data-participant="OSD"><rect fill="#E2E2F0" height="30.2969" rx="2.5" ry="2.5" style="stroke:#181818;stroke-width:0.5;" width="44.6865" x="1194.9932" y="2491.2578"/><text fill="#000000" font-family="sans-serif" font-size="14" lengthAdjust="spacing" textLength="30.6865" x="1201.9932" y="2511.2529">OSD</text></g><rect fill="#EEEEEE" height="3" style="stroke:#EEEEEE;stroke-width:1;" width="1244.6797" x="0" y="111.8633"/><line style="stroke:#000000;stroke-width:1;" x1="0" x2="1244.6797" y1="111.8633" y2="111.8633"/><line style="stroke:#000000;stroke-width:1;" x1="0" x2="1244.6797" y1="114.8633" y2="114.8633"/><rect fill="#EEEEEE" height="23.1328" style="stroke:#000000;stroke-width:2;" width="184.2314" x="530.2241" y="101.2969"/><text fill="#000000" font-family="sans-serif" font-size="13" font-weight="bold" lengthAdjust="spacing" textLength="165.7056" x="536.2241" y="117.3638">POST: Create Proposal</text><g class="message" data-participant-1="Client" data-participant-2="Service"><polygon fill="#181818" points="457.7695,151.5625,467.7695,155.5625,457.7695,159.5625,461.7695,155.5625" style="stroke:#181818;stroke-width:1;"/><line style="stroke:#181818;stroke-width:1;" x1="28.2651" x2="463.7695" y1="155.5625" y2="155.5625"/><text fill="#000000" font-family="sans-serif" font-size="13" lengthAdjust="spacing" textLength="185.4341" x="35.2651" y="150.4966">POST /prsls/create (payload)</text></g><g class="message" data-participant-1="Service" data-participant-2="DB"><polygon fill="#181818" points="939.7402,180.6953,949.7402,184.6953,939.7402,188.6953,943.7402,184.6953" style="stroke:#181818;stroke-width:1;"/><line style="stroke:#181818;stroke-width:1;" x1="469.7695" x2="945.7402" y1="184.6953" y2="184.6953"/><text fill="#000000" font-family="sans-serif" font-size="13" lengthAdjust="spacing" textLength="124.1729" x="476.7695" y="179.6294">INSERT new record</text></g><g class="message" data-participant-1="DB" data-participant-2="Service"><polygon fill="#181818" points="480.7695,209.8281,470.7695,213.8281,480.7695,217.8281,476.7695,213.8281" style="stroke:#181818;stroke-width:1;"/><line style="stroke:#181818;stroke-width:1;stroke-dasharray:2,2;" x1="474.7695" x2="950.7402" y1="213.8281" y2="213.8281"/><text fill="#000000" font-family="sans-serif" font-size="13" lengthAdjust="spacing" textLength="120.3896" x="486.7695" y="208.7622">Insert success (ID)</text></g><g class="message" data-participant-1="Service" data-participant-2="Client"><polygon fill="#181818" points="39.2651,238.9609,29.2651,242.9609,39.2651,246.9609,35.2651,242.9609" style="stroke:#181818;stroke-width:1;"/><line style="stroke:#181818;stroke-width:1;stroke-dasharray:2,2;" x1="33.2651" x2="468.7695" y1="242.9609" y2="242.9609"/><text fill="#000000" font-family="sans-serif" font-size="13" lengthAdjust="spacing" textLength="169.0381" x="45.2651" y="237.895">201 Created (proposal ID)</text></g><g class="message" data-participant-1="DB" data-participant-2="Service"><polygon fill="#181818" points="480.7695,268.0938,470.7695,272.0938,480.7695,276.0938,476.7695,272.0938" style="stroke:#181818;stroke-width:1;"/><line style="stroke:#181818;stroke-width:1;stroke-dasharray:2,2;" x1="474.7695" x2="950.7402" y1="272.0938" y2="272.0938"/><text fill="#000000" font-family="sans-serif" font-size="13" lengthAdjust="spacing" textLength="211.9229" x="486.7695" y="267.0278">Insert failure (Validation ERROR)</text></g><g class="message" data-participant-1="Service" data-participant-2="Client"><polygon fill="#181818" points="39.2651,297.2266,29.2651,301.2266,39.2651,305.2266,35.2651,301.2266" style="stroke:#181818;stroke-width:1;"/><line style="stroke:#181818;stroke-width:1;stroke-dasharray:2,2;" x1="33.2651" x2="468.7695" y1="301.2266" y2="301.2266"/><text fill="#000000" font-family="sans-serif" font-size="13" lengthAdjust="spacing" textLength="130.4824" x="45.2651" y="296.1606">422 Validation Error</text></g><g class="message" data-participant-1="DB" data-participant-2="Service"><polygon fill="#181818" points="480.7695,326.3594,470.7695,330.3594,480.7695,334.3594,476.7695,330.3594" style="stroke:#181818;stroke-width:1;"/><line style="stroke:#181818;stroke-width:1;stroke-dasharray:2,2;" x1="474.7695" x2="950.7402" y1="330.3594" y2="330.3594"/><text fill="#000000" font-family="sans-serif" font-size="13" lengthAdjust="spacing" textLength="142.5874" x="486.7695" y="325.2935">Insert failure (ERROR)</text></g><g class="message" data-participant-1="Service" data-participant-2="Client"><polygon fill="#181818" points="39.2651,355.4922,29.2651,359.4922,39.2651,363.4922,35.2651,359.4922" style="stroke:#181818;stroke-width:1;"/><line style="stroke:#181818;stroke-width:1;stroke-dasharray:2,2;" x1="33.2651" x2="468.7695" y1="359.4922" y2="359.4922"/><text fill="#000000" font-family="sans-serif" font-size="13" lengthAdjust="spacing" textLength="328.8594" x="45.2651" y="354.4263">400 (Failed when attempting to create a proposal)</text></g><rect fill="#EEEEEE" height="3" style="stroke:#EEEEEE;stroke-width:1;" width="1244.6797" x="0" y="388.0586"/><line style="stroke:#000000;stroke-width:1;" x1="0" x2="1244.6797" y1="388.0586" y2="388.0586"/><line style="stroke:#000000;stroke-width:1;" x1="0" x2="1244.6797" y1="391.0586" y2="391.0586"/><rect fill="#EEEEEE" height="23.1328" style="stroke:#000000;stroke-width:2;" width="187.2847" x="528.6975" y="377.4922"/><text fill="#000000" font-family="sans-serif" font-size="13" font-weight="bold" lengthAdjust="spacing" textLength="168.7588" x="534.6975" y="393.5591">GET: Retrieve Proposal</text><g class="message" data-participant-1="Client" data-participant-2="Service"><polygon fill="#181818" points="457.7695,427.7578,467.7695,431.7578,457.7695,435.7578,461.7695,431.7578" style="stroke:#181818;stroke-width:1;"/><line style="stroke:#181818;stroke-width:1;" x1="28.2651" x2="463.7695" y1="431.7578" y2="431.7578"/><text fill="#000000" font-family="sans-serif" font-size="13" lengthAdjust="spacing" textLength="160.8877" x="35.2651" y="426.6919">GET /prsls/{proposal_id}</text></g><g class="message" data-participant-1="Service" data-participant-2="DB"><polygon fill="#181818" points="939.7402,456.8906,949.7402,460.8906,939.7402,464.8906,943.7402,460.8906" style="stroke:#181818;stroke-width:1;"/><line style="stroke:#181818;stroke-width:1;" x1="469.7695" x2="945.7402" y1="460.8906" y2="460.8906"/><text fill="#000000" font-family="sans-serif" font-size="13" lengthAdjust="spacing" textLength="193.4067" x="476.7695" y="455.8247">SELECT record by proposal ID</text></g><g class="message" data-participant-1="DB" data-participant-2="Service"><polygon fill="#181818" points="480.7695,486.0234,470.7695,490.0234,480.7695,494.0234,476.7695,490.0234" style="stroke:#181818;stroke-width:1;"/><line style="stroke:#181818;stroke-width:1;stroke-dasharray:2,2;" x1="474.7695" x2="950.7402" y1="490.0234" y2="490.0234"/><text fill="#000000" font-family="sans-serif" font-size="13" lengthAdjust="spacing" textLength="90.124" x="486.7695" y="484.9575">Return record</text></g><g class="message" data-participant-1="Service" data-participant-2="Client"><polygon fill="#181818" points="39.2651,515.1563,29.2651,519.1563,39.2651,523.1563,35.2651,519.1563" style="stroke:#181818;stroke-width:1;"/><line style="stroke:#181818;stroke-width:1;stroke-dasharray:2,2;" x1="33.2651" x2="468.7695" y1="519.1563" y2="519.1563"/><text fill="#000000" font-family="sans-serif" font-size="13" lengthAdjust="spacing" textLength="151.4995" x="45.2651" y="514.0903">200 OK (proposal data)</text></g><g class="message" data-participant-1="DB" data-participant-2="Service"><polygon fill="#181818" points="480.7695,544.2891,470.7695,548.2891,480.7695,552.2891,476.7695,548.2891" style="stroke:#181818;stroke-width:1;"/><line style="stroke:#181818;stroke-width:1;stroke-dasharray:2,2;" x1="474.7695" x2="950.7402" y1="548.2891" y2="548.2891"/><text fill="#000000" font-family="sans-serif" font-size="13" lengthAdjust="spacing" textLength="144.8091" x="486.7695" y="543.2231">Query failure (ERROR)</text></g><g class="message" data-participant-1="Service" data-participant-2="Client"><polygon fill="#181818" points="39.2651,573.4219,29.2651,577.4219,39.2651,581.4219,35.2651,577.4219" style="stroke:#181818;stroke-width:1;"/><line style="stroke:#181818;stroke-width:1;stroke-dasharray:2,2;" x1="33.2651" x2="468.7695" y1="577.4219" y2="577.4219"/><text fill="#000000" font-family="sans-serif" font-size="13" lengthAdjust="spacing" textLength="417.5044" x="45.2651" y="572.356">404 (The requested identifier {proposal_id} could not be found)</text></g><rect fill="#EEEEEE" height="3" style="stroke:#EEEEEE;stroke-width:1;" width="1244.6797" x="0" y="605.9883"/><line style="stroke:#000000;stroke-width:1;" x1="0" x2="1244.6797" y1="605.9883" y2="605.9883"/><line style="stroke:#000000;stroke-width:1;" x1="0" x2="1244.6797" y1="608.9883" y2="608.9883"/><rect fill="#EEEEEE" height="23.1328" style="stroke:#000000;stroke-width:2;" width="178.7725" x="532.9536" y="595.4219"/><text fill="#000000" font-family="sans-serif" font-size="13" font-weight="bold" lengthAdjust="spacing" textLength="160.2466" x="538.9536" y="611.4888">PUT: Update Proposal</text><g class="message" data-participant-1="Client" data-participant-2="Service"><polygon fill="#181818" points="457.7695,645.6875,467.7695,649.6875,457.7695,653.6875,461.7695,649.6875" style="stroke:#181818;stroke-width:1;"/><line style="stroke:#181818;stroke-width:1;" x1="28.2651" x2="463.7695" y1="649.6875" y2="649.6875"/><text fill="#000000" font-family="sans-serif" font-size="13" lengthAdjust="spacing" textLength="225.9258" x="35.2651" y="644.6216">PUT /prsls/{proposal_id} (payload)</text></g><g class="message" data-participant-1="Service" data-participant-2="DB"><polygon fill="#181818" points="939.7402,674.8203,949.7402,678.8203,939.7402,682.8203,943.7402,678.8203" style="stroke:#181818;stroke-width:1;"/><line style="stroke:#181818;stroke-width:1;" x1="469.7695" x2="945.7402" y1="678.8203" y2="678.8203"/><text fill="#000000" font-family="sans-serif" font-size="13" lengthAdjust="spacing" textLength="148.1416" x="476.7695" y="673.7544">Verify proposal is valid</text></g><g class="message" data-participant-1="DB" data-participant-2="Service"><polygon fill="#181818" points="480.7695,703.9531,470.7695,707.9531,480.7695,711.9531,476.7695,707.9531" style="stroke:#181818;stroke-width:1;"/><line style="stroke:#181818;stroke-width:1;stroke-dasharray:2,2;" x1="474.7695" x2="950.7402" y1="707.9531" y2="707.9531"/><text fill="#000000" font-family="sans-serif" font-size="13" lengthAdjust="spacing" textLength="428.1113" x="486.7695" y="702.8872">422 Validation Error (Proposal ID in path and body do not match.)</text></g><g class="message" data-participant-1="Service" data-participant-2="Client"><polygon fill="#181818" points="39.2651,733.0859,29.2651,737.0859,39.2651,741.0859,35.2651,737.0859" style="stroke:#181818;stroke-width:1;"/><line style="stroke:#181818;stroke-width:1;stroke-dasharray:2,2;" x1="33.2651" x2="468.7695" y1="737.0859" y2="737.0859"/><text fill="#000000" font-family="sans-serif" font-size="13" lengthAdjust="spacing" textLength="250.8086" x="45.2651" y="732.02">42    2 Validation Error (proposal data)</text></g><g class="message" data-participant-1="Service" data-participant-2="DB"><polygon fill="#181818" points="939.7402,762.2188,949.7402,766.2188,939.7402,770.2188,943.7402,766.2188" style="stroke:#181818;stroke-width:1;"/><line style="stroke:#181818;stroke-width:1;" x1="469.7695" x2="945.7402" y1="766.2188" y2="766.2188"/><text fill="#000000" font-family="sans-serif" font-size="13" lengthAdjust="spacing" textLength="140.4355" x="476.7695" y="761.1528">Verify proposal exists</text></g><g class="message" data-participant-1="DB" data-participant-2="Service"><polygon fill="#181818" points="480.7695,791.3516,470.7695,795.3516,480.7695,799.3516,476.7695,795.3516" style="stroke:#181818;stroke-width:1;"/><line style="stroke:#181818;stroke-width:1;stroke-dasharray:2,2;" x1="474.7695" x2="950.7402" y1="795.3516" y2="795.3516"/><text fill="#000000" font-family="sans-serif" font-size="13" lengthAdjust="spacing" textLength="457.9707" x="486.7695" y="790.2856">404 Error (The requested identifier {proposal_id} could not be found.)</text></g><g class="message" data-participant-1="Service" data-participant-2="Client"><polygon fill="#181818" points="39.2651,820.4844,29.2651,824.4844,39.2651,828.4844,35.2651,824.4844" style="stroke:#181818;stroke-width:1;"/><line style="stroke:#181818;stroke-width:1;stroke-dasharray:2,2;" x1="33.2651" x2="468.7695" y1="824.4844" y2="824.4844"/><text fill="#000000" font-family="sans-serif" font-size="13" lengthAdjust="spacing" textLength="164.9438" x="45.2651" y="819.4185">404 Error (proposal data)</text></g><g class="message" data-participant-1="DB" data-participant-2="Service"><polygon fill="#181818" points="480.7695,849.6172,470.7695,853.6172,480.7695,857.6172,476.7695,853.6172" style="stroke:#181818;stroke-width:1;"/><line style="stroke:#181818;stroke-width:1;stroke-dasharray:2,2;" x1="474.7695" x2="950.7402" y1="853.6172" y2="853.6172"/><text fill="#000000" font-family="sans-serif" font-size="13" lengthAdjust="spacing" textLength="156.73" x="486.7695" y="848.5513">Success (Return record)</text></g><g class="message" data-participant-1="Service" data-participant-2="DB"><polygon fill="#181818" points="939.7402,878.75,949.7402,882.75,939.7402,886.75,943.7402,882.75" style="stroke:#181818;stroke-width:1;"/><line style="stroke:#181818;stroke-width:1;" x1="469.7695" x2="945.7402" y1="882.75" y2="882.75"/><text fill="#000000" font-family="sans-serif" font-size="13" lengthAdjust="spacing" textLength="191.5469" x="476.7695" y="877.6841">Update record by proposal ID</text></g><g class="message" data-participant-1="DB" data-participant-2="Service"><polygon fill="#181818" points="480.7695,907.8828,470.7695,911.8828,480.7695,915.8828,476.7695,911.8828" style="stroke:#181818;stroke-width:1;"/><line style="stroke:#181818;stroke-width:1;stroke-dasharray:2,2;" x1="474.7695" x2="950.7402" y1="911.8828" y2="911.8828"/><text fill="#000000" font-family="sans-serif" font-size="13" lengthAdjust="spacing" textLength="230.6357" x="486.7695" y="906.8169">Update success (updated proposal)</text></g><g class="message" data-participant-1="Service" data-participant-2="Client"><polygon fill="#181818" points="39.2651,937.0156,29.2651,941.0156,39.2651,945.0156,35.2651,941.0156" style="stroke:#181818;stroke-width:1;"/><line style="stroke:#181818;stroke-width:1;stroke-dasharray:2,2;" x1="33.2651" x2="468.7695" y1="941.0156" y2="941.0156"/><text fill="#000000" font-family="sans-serif" font-size="13" lengthAdjust="spacing" textLength="209.6885" x="45.2651" y="935.9497">200 OK (updated proposal data)</text></g><g class="message" data-participant-1="DB" data-participant-2="Service"><polygon fill="#181818" points="480.7695,966.1484,470.7695,970.1484,480.7695,974.1484,476.7695,970.1484" style="stroke:#181818;stroke-width:1;"/><line style="stroke:#181818;stroke-width:1;stroke-dasharray:2,2;" x1="474.7695" x2="950.7402" y1="970.1484" y2="970.1484"/><text fill="#000000" font-family="sans-serif" font-size="13" lengthAdjust="spacing" textLength="138.8232" x="486.7695" y="965.0825">Update failure (error)</text></g><g class="message" data-participant-1="Service" data-participant-2="Client"><polygon fill="#181818" points="39.2651,995.2813,29.2651,999.2813,39.2651,1003.2813,35.2651,999.2813" style="stroke:#181818;stroke-width:1;"/><line style="stroke:#181818;stroke-width:1;stroke-dasharray:2,2;" x1="33.2651" x2="468.7695" y1="999.2813" y2="999.2813"/><text fill="#000000" font-family="sans-serif" font-size="13" lengthAdjust="spacing" textLength="383.0303" x="45.2651" y="994.2153">400 BAD REQUEST (Validation error while saving proposal)</text></g><rect fill="#EEEEEE" height="3" style="stroke:#EEEEEE;stroke-width:1;" width="1244.6797" x="0" y="1027.8477"/><line style="stroke:#000000;stroke-width:1;" x1="0" x2="1244.6797" y1="1027.8477" y2="1027.8477"/><line style="stroke:#000000;stroke-width:1;" x1="0" x2="1244.6797" y1="1030.8477" y2="1030.8477"/><rect fill="#EEEEEE" height="23.1328" style="stroke:#000000;stroke-width:2;" width="181.686" x="531.4968" y="1017.2813"/><text fill="#000000" font-family="sans-serif" font-size="13" font-weight="bold" lengthAdjust="spacing" textLength="163.1602" x="537.4968" y="1033.3481">GET: List all proposals</text><g class="message" data-participant-1="Client" data-participant-2="Service"><polygon fill="#181818" points="457.7695,1067.5469,467.7695,1071.5469,457.7695,1075.5469,461.7695,1071.5469" style="stroke:#181818;stroke-width:1;"/><line style="stroke:#181818;stroke-width:1;" x1="28.2651" x2="463.7695" y1="1071.5469" y2="1071.5469"/><text fill="#000000" font-family="sans-serif" font-size="13" lengthAdjust="spacing" textLength="133.1357" x="35.2651" y="1066.481">GET /prsls/{user_id}</text></g><g class="message" data-participant-1="Service" data-participant-2="DB"><polygon fill="#181818" points="939.7402,1096.6797,949.7402,1100.6797,939.7402,1104.6797,943.7402,1100.6797" style="stroke:#181818;stroke-width:1;"/><line style="stroke:#181818;stroke-width:1;" x1="469.7695" x2="945.7402" y1="1100.6797" y2="1100.6797"/><text fill="#000000" font-family="sans-serif" font-size="13" lengthAdjust="spacing" textLength="191.75" x="476.7695" y="1095.6138">SELECT all records by user ID</text></g><g class="message" data-participant-1="DB" data-participant-2="Service"><polygon fill="#181818" points="480.7695,1125.8125,470.7695,1129.8125,480.7695,1133.8125,476.7695,1129.8125" style="stroke:#181818;stroke-width:1;"/><line style="stroke:#181818;stroke-width:1;stroke-dasharray:2,2;" x1="474.7695" x2="950.7402" y1="1129.8125" y2="1129.8125"/><text fill="#000000" font-family="sans-serif" font-size="13" lengthAdjust="spacing" textLength="107.0405" x="486.7695" y="1124.7466">Return record(s)</text></g><g class="message" data-participant-1="Service" data-participant-2="Client"><polygon fill="#181818" points="39.2651,1154.9453,29.2651,1158.9453,39.2651,1162.9453,35.2651,1158.9453" style="stroke:#181818;stroke-width:1;"/><line style="stroke:#181818;stroke-width:1;stroke-dasharray:2,2;" x1="33.2651" x2="468.7695" y1="1158.9453" y2="1158.9453"/><text fill="#000000" font-family="sans-serif" font-size="13" lengthAdjust="spacing" textLength="184.3677" x="45.2651" y="1153.8794">200 OK (List[proposal data])</text></g><rect fill="#EEEEEE" height="3" style="stroke:#EEEEEE;stroke-width:1;" width="1244.6797" x="0" y="1187.5117"/><line style="stroke:#000000;stroke-width:1;" x1="0" x2="1244.6797" y1="1187.5117" y2="1187.5117"/><line style="stroke:#000000;stroke-width:1;" x1="0" x2="1244.6797" y1="1190.5117" y2="1190.5117"/><rect fill="#EEEEEE" height="23.1328" style="stroke:#000000;stroke-width:2;" width="196.292" x="524.1938" y="1176.9453"/><text fill="#000000" font-family="sans-serif" font-size="13" font-weight="bold" lengthAdjust="spacing" textLength="177.7661" x="530.1938" y="1193.0122">POST: Validate proposal</text><g class="message" data-participant-1="Client" data-participant-2="Service"><polygon fill="#181818" points="457.7695,1227.2109,467.7695,1231.2109,457.7695,1235.2109,461.7695,1231.2109" style="stroke:#181818;stroke-width:1;"/><line style="stroke:#181818;stroke-width:1;" x1="28.2651" x2="463.7695" y1="1231.2109" y2="1231.2109"/><text fill="#000000" font-family="sans-serif" font-size="13" lengthAdjust="spacing" textLength="196.0791" x="35.2651" y="1226.145">POST /prsls/validate (payload)</text></g><g class="message" data-participant-1="Service" data-participant-2="Service"><line style="stroke:#181818;stroke-width:1;" x1="469.7695" x2="511.7695" y1="1260.3438" y2="1260.3438"/><line style="stroke:#181818;stroke-width:1;" x1="511.7695" x2="511.7695" y1="1260.3438" y2="1273.3438"/><line style="stroke:#181818;stroke-width:1;" x1="470.7695" x2="511.7695" y1="1273.3438" y2="1273.3438"/><polygon fill="#181818" points="480.7695,1269.3438,470.7695,1273.3438,480.7695,1277.3438,476.7695,1273.3438" style="stroke:#181818;stroke-width:1;"/><text fill="#000000" font-family="sans-serif" font-size="13" lengthAdjust="spacing" textLength="185.2119" x="476.7695" y="1255.2778">Verify observation set exists</text></g><g class="message" data-participant-1="Service" data-participant-2="Service"><line style="stroke:#181818;stroke-width:1;" x1="469.7695" x2="511.7695" y1="1302.4766" y2="1302.4766"/><line style="stroke:#181818;stroke-width:1;" x1="511.7695" x2="511.7695" y1="1302.4766" y2="1315.4766"/><line style="stroke:#181818;stroke-width:1;" x1="470.7695" x2="511.7695" y1="1315.4766" y2="1315.4766"/><polygon fill="#181818" points="480.7695,1311.4766,470.7695,1315.4766,480.7695,1319.4766,476.7695,1315.4766" style="stroke:#181818;stroke-width:1;"/><text fill="#000000" font-family="sans-serif" font-size="13" lengthAdjust="spacing" textLength="459.2339" x="476.7695" y="1297.4106">Verify each observation target has a valid sensitivity calculation result</text></g><g class="message" data-participant-1="Service" data-participant-2="Service"><line style="stroke:#181818;stroke-width:1;" x1="469.7695" x2="511.7695" y1="1344.6094" y2="1344.6094"/><line style="stroke:#181818;stroke-width:1;" x1="511.7695" x2="511.7695" y1="1344.6094" y2="1357.6094"/><line style="stroke:#181818;stroke-width:1;" x1="470.7695" x2="511.7695" y1="1357.6094" y2="1357.6094"/><polygon fill="#181818" points="480.7695,1353.6094,470.7695,1357.6094,480.7695,1361.6094,476.7695,1357.6094" style="stroke:#181818;stroke-width:1;"/><text fill="#000000" font-family="sans-serif" font-size="13" lengthAdjust="spacing" textLength="337.4858" x="476.7695" y="1339.5435">Verify each observation sets has at least one target</text></g><g class="message" data-participant-1="Service" data-participant-2="Client"><polygon fill="#181818" points="39.2651,1382.7422,29.2651,1386.7422,39.2651,1390.7422,35.2651,1386.7422" style="stroke:#181818;stroke-width:1;"/><line style="stroke:#181818;stroke-width:1;stroke-dasharray:2,2;" x1="33.2651" x2="468.7695" y1="1386.7422" y2="1386.7422"/><text fill="#000000" font-family="sans-serif" font-size="13" lengthAdjust="spacing" textLength="389.1621" x="45.2651" y="1381.6763">200 OK (dict: { "result": bool, "validation_errors": list[str] })</text></g><rect fill="#EEEEEE" height="3" style="stroke:#EEEEEE;stroke-width:1;" width="1244.6797" x="0" y="1415.3086"/><line style="stroke:#000000;stroke-width:1;" x1="0" x2="1244.6797" y1="1415.3086" y2="1415.3086"/><line style="stroke:#000000;stroke-width:1;" x1="0" x2="1244.6797" y1="1418.3086" y2="1418.3086"/><rect fill="#EEEEEE" height="23.1328" style="stroke:#000000;stroke-width:2;" width="148.3735" x="548.1531" y="1404.7422"/><text fill="#000000" font-family="sans-serif" font-size="13" font-weight="bold" lengthAdjust="spacing" textLength="129.8477" x="554.1531" y="1420.8091">POST: Send email</text><g class="message" data-participant-1="Client" data-participant-2="Service"><polygon fill="#181818" points="457.7695,1455.0078,467.7695,1459.0078,457.7695,1463.0078,461.7695,1459.0078" style="stroke:#181818;stroke-width:1;"/><line style="stroke:#181818;stroke-width:1;" x1="28.2651" x2="463.7695" y1="1459.0078" y2="1459.0078"/><text fill="#000000" font-family="sans-serif" font-size="13" lengthAdjust="spacing" textLength="149.7158" x="35.2651" y="1453.9419">POST /prsls/send-email</text></g><g class="message" data-participant-1="Service" data-participant-2="Service"><line style="stroke:#181818;stroke-width:1;" x1="469.7695" x2="511.7695" y1="1488.1406" y2="1488.1406"/><line style="stroke:#181818;stroke-width:1;" x1="511.7695" x2="511.7695" y1="1488.1406" y2="1501.1406"/><line style="stroke:#181818;stroke-width:1;" x1="470.7695" x2="511.7695" y1="1501.1406" y2="1501.1406"/><polygon fill="#181818" points="480.7695,1497.1406,470.7695,1501.1406,480.7695,1505.1406,476.7695,1501.1406" style="stroke:#181818;stroke-width:1;"/><text fill="#000000" font-family="sans-serif" font-size="13" lengthAdjust="spacing" textLength="168.8604" x="476.7695" y="1483.0747">Verify valid email address</text></g><g class="message" data-participant-1="Service" data-participant-2="Client"><polygon fill="#181818" points="39.2651,1526.2734,29.2651,1530.2734,39.2651,1534.2734,35.2651,1530.2734" style="stroke:#181818;stroke-width:1;"/><line style="stroke:#181818;stroke-width:1;stroke-dasharray:2,2;" x1="33.2651" x2="468.7695" y1="1530.2734" y2="1530.2734"/><text fill="#000000" font-family="sans-serif" font-size="13" lengthAdjust="spacing" textLength="399.4199" x="45.2651" y="1525.2075">422 Unprocessable Entity (value is not a valid email address)</text></g><g class="message" data-participant-1="Service" data-participant-2="Email_Server"><polygon fill="#181818" points="1039.0166,1555.4063,1049.0166,1559.4063,1039.0166,1563.4063,1043.0166,1559.4063" style="stroke:#181818;stroke-width:1;"/><line style="stroke:#181818;stroke-width:1;" x1="469.7695" x2="1045.0166" y1="1559.4063" y2="1559.4063"/><text fill="#000000" font-family="sans-serif" font-size="13" lengthAdjust="spacing" textLength="156.2031" x="476.7695" y="1554.3403">Connect to email server</text></g><g class="message" data-participant-1="Service" data-participant-2="Email_Server"><polygon fill="#181818" points="1039.0166,1584.5391,1049.0166,1588.5391,1039.0166,1592.5391,1043.0166,1588.5391" style="stroke:#181818;stroke-width:1;"/><line style="stroke:#181818;stroke-width:1;" x1="469.7695" x2="1045.0166" y1="1588.5391" y2="1588.5391"/><text fill="#000000" font-family="sans-serif" font-size="13" lengthAdjust="spacing" textLength="72.7251" x="476.7695" y="1583.4731">Send email</text></g><g class="message" data-participant-1="Service" data-participant-2="Client"><polygon fill="#181818" points="39.2651,1613.6719,29.2651,1617.6719,39.2651,1621.6719,35.2651,1617.6719" style="stroke:#181818;stroke-width:1;"/><line style="stroke:#181818;stroke-width:1;stroke-dasharray:2,2;" x1="33.2651" x2="468.7695" y1="1617.6719" y2="1617.6719"/><text fill="#000000" font-family="sans-serif" font-size="13" lengthAdjust="spacing" textLength="239.8018" x="45.2651" y="1612.606">200 Success (Email sent succesfully)</text></g><rect fill="#EEEEEE" height="3" style="stroke:#EEEEEE;stroke-width:1;" width="1244.6797" x="0" y="1646.2383"/><line style="stroke:#000000;stroke-width:1;" x1="0" x2="1244.6797" y1="1646.2383" y2="1646.2383"/><line style="stroke:#000000;stroke-width:1;" x1="0" x2="1244.6797" y1="1649.2383" y2="1649.2383"/><rect fill="#EEEEEE" height="23.1328" style="stroke:#000000;stroke-width:2;" width="320.8711" x="461.9043" y="1635.6719"/><text fill="#000000" font-family="sans-serif" font-size="13" font-weight="bold" lengthAdjust="spacing" textLength="302.3452" x="467.9043" y="1651.7388">POST: Generate signed url for file upload</text><g class="message" data-participant-1="Client" data-participant-2="Service"><polygon fill="#181818" points="457.7695,1685.9375,467.7695,1689.9375,457.7695,1693.9375,461.7695,1689.9375" style="stroke:#181818;stroke-width:1;"/><line style="stroke:#181818;stroke-width:1;" x1="28.2651" x2="463.7695" y1="1689.9375" y2="1689.9375"/><text fill="#000000" font-family="sans-serif" font-size="13" lengthAdjust="spacing" textLength="269.166" x="35.2651" y="1684.8716">POST /prsls/signed-url/upload/{filename}</text></g><g class="message" data-participant-1="Client" data-participant-2="Service"><polygon fill="#181818" points="457.7695,1715.0703,467.7695,1719.0703,457.7695,1723.0703,461.7695,1719.0703" style="stroke:#181818;stroke-width:1;"/><line style="stroke:#181818;stroke-width:1;" x1="28.2651" x2="463.7695" y1="1719.0703" y2="1719.0703"/><text fill="#000000" font-family="sans-serif" font-size="13" lengthAdjust="spacing" textLength="114.1943" x="35.2651" y="1714.0044">Validate filename</text></g><g class="message" data-participant-1="Service" data-participant-2="Client"><polygon fill="#181818" points="39.2651,1744.2031,29.2651,1748.2031,39.2651,1752.2031,35.2651,1748.2031" style="stroke:#181818;stroke-width:1;"/><line style="stroke:#181818;stroke-width:1;stroke-dasharray:2,2;" x1="33.2651" x2="468.7695" y1="1748.2031" y2="1748.2031"/><text fill="#000000" font-family="sans-serif" font-size="13" lengthAdjust="spacing" textLength="285.1367" x="45.2651" y="1743.1372">422 Unprocessable Entity (Invalid filename)</text></g><g class="message" data-participant-1="Service" data-participant-2="AWS_S3"><polygon fill="#181818" points="1137.4429,1773.3359,1147.4429,1777.3359,1137.4429,1781.3359,1141.4429,1777.3359" style="stroke:#181818;stroke-width:1;"/><line style="stroke:#181818;stroke-width:1;" x1="469.7695" x2="1143.4429" y1="1777.3359" y2="1777.3359"/><text fill="#000000" font-family="sans-serif" font-size="13" lengthAdjust="spacing" textLength="144.9043" x="476.7695" y="1772.27">Connect to AWS client</text></g><g class="message" data-participant-1="AWS_S3" data-participant-2="Service"><polygon fill="#181818" points="480.7695,1802.4688,470.7695,1806.4688,480.7695,1810.4688,476.7695,1806.4688" style="stroke:#181818;stroke-width:1;"/><line style="stroke:#181818;stroke-width:1;" x1="474.7695" x2="1148.4429" y1="1806.4688" y2="1806.4688"/><text fill="#000000" font-family="sans-serif" font-size="13" lengthAdjust="spacing" textLength="152.9849" x="486.7695" y="1801.4028">Generate url (filename)</text></g><g class="message" data-participant-1="Service" data-participant-2="Client"><polygon fill="#181818" points="39.2651,1831.6016,29.2651,1835.6016,39.2651,1839.6016,35.2651,1835.6016" style="stroke:#181818;stroke-width:1;"/><line style="stroke:#181818;stroke-width:1;stroke-dasharray:2,2;" x1="33.2651" x2="468.7695" y1="1835.6016" y2="1835.6016"/><text fill="#000000" font-family="sans-serif" font-size="13" lengthAdjust="spacing" textLength="112.7471" x="45.2651" y="1830.5356">200 Success (url)</text></g><rect fill="#EEEEEE" height="3" style="stroke:#EEEEEE;stroke-width:1;" width="1244.6797" x="0" y="1864.168"/><line style="stroke:#000000;stroke-width:1;" x1="0" x2="1244.6797" y1="1864.168" y2="1864.168"/><line style="stroke:#000000;stroke-width:1;" x1="0" x2="1244.6797" y1="1867.168" y2="1867.168"/><rect fill="#EEEEEE" height="23.1328" style="stroke:#000000;stroke-width:2;" width="341.812" x="451.4338" y="1853.6016"/><text fill="#000000" font-family="sans-serif" font-size="13" font-weight="bold" lengthAdjust="spacing" textLength="323.2861" x="457.4338" y="1869.6685">POST: Generate signed url for file download</text><g class="message" data-participant-1="Client" data-participant-2="Service"><polygon fill="#181818" points="457.7695,1903.8672,467.7695,1907.8672,457.7695,1911.8672,461.7695,1907.8672" style="stroke:#181818;stroke-width:1;"/><line style="stroke:#181818;stroke-width:1;" x1="28.2651" x2="463.7695" y1="1907.8672" y2="1907.8672"/><text fill="#000000" font-family="sans-serif" font-size="13" lengthAdjust="spacing" textLength="287.752" x="35.2651" y="1902.8013">POST /prsls/signed-url/download/{filename}</text></g><g class="message" data-participant-1="Service" data-participant-2="AWS_S3"><polygon fill="#181818" points="1137.4429,1933,1147.4429,1937,1137.4429,1941,1141.4429,1937" style="stroke:#181818;stroke-width:1;"/><line style="stroke:#181818;stroke-width:1;" x1="469.7695" x2="1143.4429" y1="1937" y2="1937"/><text fill="#000000" font-family="sans-serif" font-size="13" lengthAdjust="spacing" textLength="144.9043" x="476.7695" y="1931.9341">Connect to AWS client</text></g><g class="message" data-participant-1="AWS_S3" data-participant-2="Service"><polygon fill="#181818" points="480.7695,1962.1328,470.7695,1966.1328,480.7695,1970.1328,476.7695,1966.1328" style="stroke:#181818;stroke-width:1;"/><line style="stroke:#181818;stroke-width:1;" x1="474.7695" x2="1148.4429" y1="1966.1328" y2="1966.1328"/><text fill="#000000" font-family="sans-serif" font-size="13" lengthAdjust="spacing" textLength="152.9849" x="486.7695" y="1961.0669">Generate url (filename)</text></g><g class="message" data-participant-1="Service" data-participant-2="Client"><polygon fill="#181818" points="39.2651,1991.2656,29.2651,1995.2656,39.2651,1999.2656,35.2651,1995.2656" style="stroke:#181818;stroke-width:1;"/><line style="stroke:#181818;stroke-width:1;stroke-dasharray:2,2;" x1="33.2651" x2="468.7695" y1="1995.2656" y2="1995.2656"/><text fill="#000000" font-family="sans-serif" font-size="13" lengthAdjust="spacing" textLength="112.7471" x="45.2651" y="1990.1997">200 Success (url)</text></g><rect fill="#EEEEEE" height="3" style="stroke:#EEEEEE;stroke-width:1;" width="1244.6797" x="0" y="2023.832"/><line style="stroke:#000000;stroke-width:1;" x1="0" x2="1244.6797" y1="2023.832" y2="2023.832"/><line style="stroke:#000000;stroke-width:1;" x1="0" x2="1244.6797" y1="2026.832" y2="2026.832"/><rect fill="#EEEEEE" height="23.1328" style="stroke:#000000;stroke-width:2;" width="317.272" x="463.7039" y="2013.2656"/><text fill="#000000" font-family="sans-serif" font-size="13" font-weight="bold" lengthAdjust="spacing" textLength="298.7461" x="469.7039" y="2029.3325">POST: Generate signed url for file delete</text><g class="message" data-participant-1="Client" data-participant-2="Service"><polygon fill="#181818" points="457.7695,2063.5313,467.7695,2067.5313,457.7695,2071.5313,461.7695,2067.5313" style="stroke:#181818;stroke-width:1;"/><line style="stroke:#181818;stroke-width:1;" x1="28.2651" x2="463.7695" y1="2067.5313" y2="2067.5313"/><text fill="#000000" font-family="sans-serif" font-size="13" lengthAdjust="spacing" textLength="265.8462" x="35.2651" y="2062.4653">POST /prsls/signed-url/delete/{filename}</text></g><g class="message" data-participant-1="Service" data-participant-2="AWS_S3"><polygon fill="#181818" points="1137.4429,2092.6641,1147.4429,2096.6641,1137.4429,2100.6641,1141.4429,2096.6641" style="stroke:#181818;stroke-width:1;"/><line style="stroke:#181818;stroke-width:1;" x1="469.7695" x2="1143.4429" y1="2096.6641" y2="2096.6641"/><text fill="#000000" font-family="sans-serif" font-size="13" lengthAdjust="spacing" textLength="144.9043" x="476.7695" y="2091.5981">Connect to AWS client</text></g><g class="message" data-participant-1="AWS_S3" data-participant-2="Service"><polygon fill="#181818" points="480.7695,2121.7969,470.7695,2125.7969,480.7695,2129.7969,476.7695,2125.7969" style="stroke:#181818;stroke-width:1;"/><line style="stroke:#181818;stroke-width:1;" x1="474.7695" x2="1148.4429" y1="2125.7969" y2="2125.7969"/><text fill="#000000" font-family="sans-serif" font-size="13" lengthAdjust="spacing" textLength="152.9849" x="486.7695" y="2120.731">Generate url (filename)</text></g><g class="message" data-participant-1="Service" data-participant-2="Client"><polygon fill="#181818" points="39.2651,2150.9297,29.2651,2154.9297,39.2651,2158.9297,35.2651,2154.9297" style="stroke:#181818;stroke-width:1;"/><line style="stroke:#181818;stroke-width:1;stroke-dasharray:2,2;" x1="33.2651" x2="468.7695" y1="2154.9297" y2="2154.9297"/><text fill="#000000" font-family="sans-serif" font-size="13" lengthAdjust="spacing" textLength="112.7471" x="45.2651" y="2149.8638">200 Success (url)</text></g><rect fill="#EEEEEE" height="3" style="stroke:#EEEEEE;stroke-width:1;" width="1244.6797" x="0" y="2183.4961"/><line style="stroke:#000000;stroke-width:1;" x1="0" x2="1244.6797" y1="2183.4961" y2="2183.4961"/><line style="stroke:#000000;stroke-width:1;" x1="0" x2="1244.6797" y1="2186.4961" y2="2186.4961"/><rect fill="#EEEEEE" height="23.1328" style="stroke:#000000;stroke-width:2;" width="181.686" x="531.4968" y="2172.9297"/><text fill="#000000" font-family="sans-serif" font-size="13" font-weight="bold" lengthAdjust="spacing" textLength="163.1602" x="537.4968" y="2188.9966">GET: List all proposals</text><g class="message" data-participant-1="Client" data-participant-2="Service"><polygon fill="#181818" points="457.7695,2223.1953,467.7695,2227.1953,457.7695,2231.1953,461.7695,2227.1953" style="stroke:#181818;stroke-width:1;"/><line style="stroke:#181818;stroke-width:1;" x1="28.2651" x2="463.7695" y1="2227.1953" y2="2227.1953"/><text fill="#000000" font-family="sans-serif" font-size="13" lengthAdjust="spacing" textLength="112.2393" x="35.2651" y="2222.1294">GET /osd/{cycle}</text></g><g class="message" data-participant-1="Service" data-participant-2="OSD"><polygon fill="#181818" points="1205.3364,2252.3281,1215.3364,2256.3281,1205.3364,2260.3281,1209.3364,2256.3281" style="stroke:#181818;stroke-width:1;"/><line style="stroke:#181818;stroke-width:1;" x1="469.7695" x2="1211.3364" y1="2256.3281" y2="2256.3281"/><text fill="#000000" font-family="sans-serif" font-size="13" lengthAdjust="spacing" textLength="86.6074" x="476.7695" y="2251.2622">get_osd_data</text></g><g class="message" data-participant-1="OSD" data-participant-2="Service"><polygon fill="#181818" points="480.7695,2281.4609,470.7695,2285.4609,480.7695,2289.4609,476.7695,2285.4609" style="stroke:#181818;stroke-width:1;"/><line style="stroke:#181818;stroke-width:1;stroke-dasharray:2,2;" x1="474.7695" x2="1216.3364" y1="2285.4609" y2="2285.4609"/><text fill="#000000" font-family="sans-serif" font-size="13" lengthAdjust="spacing" textLength="116.7651" x="486.7695" y="2280.395">Returns OSD data</text></g><g class="message" data-participant-1="Service" data-participant-2="Client"><polygon fill="#181818" points="39.2651,2310.5938,29.2651,2314.5938,39.2651,2318.5938,35.2651,2314.5938" style="stroke:#181818;stroke-width:1;"/><line style="stroke:#181818;stroke-width:1;stroke-dasharray:2,2;" x1="33.2651" x2="468.7695" y1="2314.5938" y2="2314.5938"/><text fill="#000000" font-family="sans-serif" font-size="13" lengthAdjust="spacing" textLength="123.8872" x="45.2651" y="2309.5278">200 OK (OSD data)</text></g><rect fill="#EEEEEE" height="3" style="stroke:#EEEEEE;stroke-width:1;" width="1244.6797" x="0" y="2343.1602"/><line style="stroke:#000000;stroke-width:1;" x1="0" x2="1244.6797" y1="2343.1602" y2="2343.1602"/><line style="stroke:#000000;stroke-width:1;" x1="0" x2="1244.6797" y1="2346.1602" y2="2346.1602"/><rect fill="#EEEEEE" height="23.1328" style="stroke:#000000;stroke-width:2;" width="216.4585" x="514.1106" y="2332.5938"/><text fill="#000000" font-family="sans-serif" font-size="13" font-weight="bold" lengthAdjust="spacing" textLength="197.9326" x="520.1106" y="2348.6606">GET: Reviews for the panel</text><g class="message" data-participant-1="Client" data-participant-2="Service"><polygon fill="#181818" points="457.7695,2382.8594,467.7695,2386.8594,457.7695,2390.8594,461.7695,2386.8594" style="stroke:#181818;stroke-width:1;"/><line style="stroke:#181818;stroke-width:1;" x1="28.2651" x2="463.7695" y1="2386.8594" y2="2386.8594"/><text fill="#000000" font-family="sans-serif" font-size="13" lengthAdjust="spacing" textLength="160.145" x="35.2651" y="2381.7935">GET /reviews/{panel_id}</text></g><g class="message" data-participant-1="Service" data-participant-2="DB"><polygon fill="#181818" points="939.7402,2411.9922,949.7402,2415.9922,939.7402,2419.9922,943.7402,2415.9922" style="stroke:#181818;stroke-width:1;"/><line style="stroke:#181818;stroke-width:1;" x1="469.7695" x2="945.7402" y1="2415.9922" y2="2415.9922"/><text fill="#000000" font-family="sans-serif" font-size="13" lengthAdjust="spacing" textLength="200.7002" x="476.7695" y="2410.9263">SELECT all reviews by panel ID</text></g><g class="message" data-participant-1="DB" data-participant-2="Service"><polygon fill="#181818" points="480.7695,2441.125,470.7695,2445.125,480.7695,2449.125,476.7695,2445.125" style="stroke:#181818;stroke-width:1;"/><line style="stroke:#181818;stroke-width:1;stroke-dasharray:2,2;" x1="474.7695" x2="950.7402" y1="2445.125" y2="2445.125"/><text fill="#000000" font-family="sans-serif" font-size="13" lengthAdjust="spacing" textLength="107.0405" x="486.7695" y="2440.0591">Return record(s)</text></g><g class="message" data-participant-1="Service" data-participant-2="Client"><polygon fill="#181818" points="39.2651,2470.2578,29.2651,2474.2578,39.2651,2478.2578,35.2651,2474.2578" style="stroke:#181818;stroke-width:1;"/><line style="stroke:#181818;stroke-width:1;stroke-dasharray:2,2;" x1="33.2651" x2="468.7695" y1="2474.2578" y2="2474.2578"/><text fill="#000000" font-family="sans-serif" font-size="13" lengthAdjust="spacing" textLength="144.8979" x="45.2651" y="2469.1919">200 OK (List[reviews])</text></g><!--SRC=[pLV1Rjiu4BtxAmO-sS2coMPxCf05abXR65jiKYlk7eh0eAbnJ80XjIIbh17atpiK9KUA9TafUcXEjZdpEFFUy95Xt6a3rrAWSeEK6IUuI9boCBoydK6C9XSSXy1izNcGCCTMp28Cf-MdOdbwDRYuWDkR-6u2rmQPGxWrEjMMIRYu68GTuEJF2cTInC9fQgoqfpnaZ5AsbPebuq4PvHEcLnEO_HD7ypjG-0G6kJR9O7e59tMqcR9e7DYCSxGMHhDf3OG2Gm4JE3_xlQmleUsg2drq1-AQ2PaPgkqhauAQ5rf1D9_VpDlnFvwVGptI66qEGlVXdPt1w2yAf7gVDgY0EOUFgHFg0Po6aZW6LIjZByEdY5IOepC2yuCwK70bmtE5iXJ9oriDukXpT7rNyW-hBTJOs-kGDi-CgiHg5-8CRlwkQU07Qr-5BncQxP5CVOJHtGPfq_yoj5vWaT2AM0iqq6WDkCva0aexM26iTQQICHJpko3Y5cbopFWkscdh7kAlQCIwHfkmaFj9WRscsuO8HhUlV8DGa3At0QP82fri8T55Eu_CySs7hj44-cj3VgF1WRhnVs6TRQcQ12W1VrY63ztQjjVwjeYuCe361ExrL6fyt32NmJjloOhlIUtCzGtus-YEmijDTfEEljrkJxYwdC8y-hA8o4JhrbIaaLEGOO1bkRU9VMluJ082atAtP8_mXemygySNF5oWqte-VVH1OnZPVkfydTyQlDsFNw-PicjyPVRmHPDNEQsdT9TIZhnUKHTv8DQYAoU_BmCPtpJI73CFbBcXAvALnzsYiiA9NBWjS2Pv9aEeGPj9zovqAie6R0SI6Qcg5PPxzZAR24xVdc4ODXrEo4Mq_0s6-MwKbiKeMLgINWRhp3syrEYFaRm77sbUZ-2TUavEYk2-_W8_0PCb2TLcEo_PXIBP_NbaAnhrY0o6w1mHGeRUMRsfi3R0Xk2HNrdw7z3GkqKhXTpvUpMas6AXE-6LWawoTtuKbOYgUgIiCoctDJu_eK9J-8nuKEGNcP7aYGRM_YXdgH_MOuWkaaye-JJad3vx0CKUyQKjTtU8ggXt4ZvJWUCglK7lvR_nClwZGIpz13myDyDgqsyg3dppenRCBdOf_bWg4_satazcbLMdyvVl52NIqllwB79-cIv_uBhIbaJYMowRjT_4qmcGBIvfVUclaW7zqdOtMHzQN3Qz3be5ZGUr5tSkyCaM0ZXw0T4_KjZxwZOXWHwGFlBWvHhG_MEb0Fufjsk9UZ_-3W00]--></g></svg>