<?xml version="1.0" encoding="UTF-8" standalone="no"?><svg xmlns="http://www.w3.org/2000/svg" xmlns:xlink="http://www.w3.org/1999/xlink" contentStyleType="text/css" height="247px" preserveAspectRatio="none" style="width:372px;height:247px;background:#FFFFFF;" version="1.1" viewBox="0 0 372 247" width="372px" zoomAndPan="magnify"><defs/><g><line style="stroke:#181818;stroke-width:0.5;stroke-dasharray:5.0,5.0;" x1="22" x2="22" y1="36.2969" y2="211.8281"/><line style="stroke:#181818;stroke-width:0.5;stroke-dasharray:5.0,5.0;" x1="343" x2="343" y1="36.2969" y2="211.8281"/><rect fill="#E2E2F0" height="30.2969" rx="2.5" ry="2.5" style="stroke:#181818;stroke-width:0.5;" width="35" x="5" y="5"/><text fill="#000000" font-family="sans-serif" font-size="14" lengthAdjust="spacing" textLength="21" x="12" y="24.9951">API</text><rect fill="#E2E2F0" height="30.2969" rx="2.5" ry="2.5" style="stroke:#181818;stroke-width:0.5;" width="35" x="5" y="210.8281"/><text fill="#000000" font-family="sans-serif" font-size="14" lengthAdjust="spacing" textLength="21" x="12" y="230.8232">API</text><rect fill="#E2E2F0" height="30.2969" rx="2.5" ry="2.5" style="stroke:#181818;stroke-width:0.5;" width="45" x="321" y="5"/><text fill="#000000" font-family="sans-serif" font-size="14" lengthAdjust="spacing" textLength="31" x="328" y="24.9951">ODA</text><rect fill="#E2E2F0" height="30.2969" rx="2.5" ry="2.5" style="stroke:#181818;stroke-width:0.5;" width="45" x="321" y="210.8281"/><text fill="#000000" font-family="sans-serif" font-size="14" lengthAdjust="spacing" textLength="31" x="328" y="230.8232">ODA</text><line style="stroke:#181818;stroke-width:1.0;" x1="22.5" x2="64.5" y1="67.4297" y2="67.4297"/><line style="stroke:#181818;stroke-width:1.0;" x1="64.5" x2="64.5" y1="67.4297" y2="80.4297"/><line style="stroke:#181818;stroke-width:1.0;" x1="23.5" x2="64.5" y1="80.4297" y2="80.4297"/><polygon fill="#181818" points="33.5,76.4297,23.5,80.4297,33.5,84.4297,29.5,80.4297" style="stroke:#181818;stroke-width:1.0;"/><text fill="#000000" font-family="sans-serif" font-size="13" lengthAdjust="spacing" textLength="307" x="29.5" y="62.3638">HTTP POST (/prsls/signed-url/upload/{filename})</text><line style="stroke:#181818;stroke-width:1.0;" x1="22.5" x2="64.5" y1="109.5625" y2="109.5625"/><line style="stroke:#181818;stroke-width:1.0;" x1="64.5" x2="64.5" y1="109.5625" y2="122.5625"/><line style="stroke:#181818;stroke-width:1.0;" x1="23.5" x2="64.5" y1="122.5625" y2="122.5625"/><polygon fill="#181818" points="33.5,118.5625,23.5,122.5625,33.5,126.5625,29.5,122.5625" style="stroke:#181818;stroke-width:1.0;"/><text fill="#000000" font-family="sans-serif" font-size="13" lengthAdjust="spacing" textLength="176" x="29.5" y="104.4966">Validated params: filename</text><line style="stroke:#181818;stroke-width:1.0;" x1="22.5" x2="64.5" y1="151.6953" y2="151.6953"/><line style="stroke:#181818;stroke-width:1.0;" x1="64.5" x2="64.5" y1="151.6953" y2="164.6953"/><line style="stroke:#181818;stroke-width:1.0;" x1="23.5" x2="64.5" y1="164.6953" y2="164.6953"/><polygon fill="#181818" points="33.5,160.6953,23.5,164.6953,33.5,168.6953,29.5,164.6953" style="stroke:#181818;stroke-width:1.0;"/><text fill="#000000" font-family="sans-serif" font-size="13" lengthAdjust="spacing" textLength="62" x="29.5" y="146.6294">Response</text><polygon fill="#181818" points="331.5,189.8281,341.5,193.8281,331.5,197.8281,335.5,193.8281" style="stroke:#181818;stroke-width:1.0;"/><line style="stroke:#181818;stroke-width:1.0;stroke-dasharray:2.0,2.0;" x1="22.5" x2="337.5" y1="193.8281" y2="193.8281"/><text fill="#000000" font-family="sans-serif" font-size="13" lengthAdjust="spacing" textLength="90" x="29.5" y="188.7622">Store valid file</text><!--SRC=[SmpmLD2rKt0CyBHIy0W92L08y0yEKT3GBoWgpYdMByvCpqjDqIqjoj4lBSZ9JqpHhqxBp4dDIynDhTNaSaJI6vQOavcIM9AQeb2GM9IOMsob05E8eYmejRWWFwyOAWWKzNTnj588BialIbKe0na1rWO0]--></g></svg>